<svg width="696" height="181" viewBox="0 0 696 181" fill="none" xmlns="http://www.w3.org/2000/svg">
<path d="M0 0H696V98C696 143.84 658.84 181 613 181H0V0Z" fill="black" fill-opacity="0.35"/>
<mask id="path-2-outside-1_9_2" maskUnits="userSpaceOnUse" x="23" y="31" width="620" height="98" fill="black">
<rect fill="white" x="23" y="31" width="620" height="98"/>
<path d="M30.8 105C29.4667 105 28.3333 104.567 27.4 103.7C26.4667 102.833 26 101.8 26 100.6V39.4C26 38.1333 26.4667 37.1 27.4 36.3C28.3333 35.4333 29.4667 35 30.8 35H58.6C64.4 35 69 36.7333 72.4 40.2C75.8667 43.6667 77.6 48.3333 77.6 54.2C77.6 57.3333 76.7667 60.2667 75.1 63C73.4333 65.7333 71.2667 67.7667 68.6 69.1V69.3C72.4 70.4333 75.3333 72.4 77.4 75.2C79.4667 77.9333 80.5 81.2667 80.5 85.2C80.5 89.0667 79.6667 92.5 78 95.5C76.4 98.5 74.1333 100.833 71.2 102.5C68.2667 104.167 64.9 105 61.1 105H30.8ZM58.4 65.9C61.1333 65.9 63.4667 64.8 65.4 62.6C67.4 60.3333 68.4 57.6 68.4 54.4C68.4 50.8667 67.5 48.1 65.7 46.1C63.9667 44.1 61.5333 43.1 58.4 43.1H35.3V65.9H58.4ZM60.4 96.9C63.8 96.9 66.4667 95.9 68.4 93.9C70.3333 91.8333 71.3 88.9667 71.3 85.3C71.3 81.7667 70.3333 79 68.4 77C66.5333 75 63.8667 74 60.4 74H35.3V96.9H60.4ZM106.516 105.9C101.649 105.9 98.0156 104.567 95.6156 101.9C93.2156 99.1667 92.0156 95.6 92.0156 91.2V40.5C92.0156 38.3 92.7156 36.7 94.1156 35.7C95.5823 34.6333 97.7823 34.1 100.716 34.1V90.9C100.716 93.5 101.249 95.3667 102.316 96.5C103.382 97.6333 105.149 98.2 107.616 98.2C110.082 98.2 112.349 97.6 114.416 96.4C115.282 97.4 115.716 98.5667 115.716 99.9C115.716 101.5 114.882 102.9 113.216 104.1C111.549 105.3 109.316 105.9 106.516 105.9ZM143.756 105.9C139.69 105.9 136.056 105.133 132.856 103.6C129.656 102 127.156 99.8333 125.356 97.1C123.556 94.3 122.656 91.1667 122.656 87.7V72.9C122.656 69.3667 123.59 66.1667 125.456 63.3C127.39 60.4333 129.956 58.2 133.156 56.6C136.423 54.9333 139.956 54.1 143.756 54.1C147.556 54.1 151.023 54.9 154.156 56.5C157.356 58.1 159.856 60.3 161.656 63.1C163.523 65.9 164.456 69.0667 164.456 72.6V79C164.456 80.0667 164.056 80.9667 163.256 81.7C162.456 82.4333 161.49 82.8 160.356 82.8H131.156V87.3C131.156 90.7 132.223 93.4333 134.356 95.5C136.556 97.5667 139.69 98.6 143.756 98.6C147.823 98.6 150.923 97.7 153.056 95.9C155.19 94.1 156.256 91.6667 156.256 88.6C158.256 88.4667 159.923 88.8667 161.256 89.8C162.656 90.6667 163.356 91.9667 163.356 93.7C163.356 95.8333 162.423 97.8333 160.556 99.7C158.756 101.567 156.356 103.067 153.356 104.2C150.356 105.333 147.156 105.9 143.756 105.9ZM156.356 76V72.6C156.356 69.2667 155.19 66.5667 152.856 64.5C150.59 62.3667 147.556 61.3 143.756 61.3C139.956 61.3 136.89 62.3667 134.556 64.5C132.29 66.5667 131.156 69.2667 131.156 72.6V76H156.356ZM180.8 62H172.5C172.5 57.3333 174.233 55 177.7 55H180.8V48.9C180.8 44.5667 182.033 41.0333 184.5 38.3C186.967 35.5 190.667 34.1 195.6 34.1C198.4 34.1 200.567 34.7333 202.1 36C203.633 37.2 204.4 38.6 204.4 40.2C204.4 41.6 203.967 42.7333 203.1 43.6C201.033 42.4 198.8 41.8 196.4 41.8C193.933 41.8 192.167 42.4 191.1 43.6C190.033 44.8 189.5 46.7 189.5 49.3V55H202C202 57.4 201.467 59.1667 200.4 60.3C199.4 61.4333 197.833 62 195.7 62H189.5V99.5C189.5 101.7 188.767 103.333 187.3 104.4C185.9 105.4 183.733 105.9 180.8 105.9V62ZM224.924 105.9C219.191 105.9 214.558 104.367 211.024 101.3C207.558 98.2333 205.824 94.2 205.824 89.2C205.824 84.1333 207.658 80.0667 211.324 77C214.991 73.8667 219.824 72.3 225.824 72.3C232.224 72.3 237.491 74.5667 241.624 79.1L242.024 78.7C241.291 77.9 240.458 77.0667 239.524 76.2V72C239.524 68.6 238.458 65.9667 236.324 64.1C234.191 62.2333 231.158 61.3 227.224 61.3C220.224 61.3 215.224 64.0667 212.224 69.6C211.158 69.0667 210.258 68.3667 209.524 67.5C208.858 66.5667 208.524 65.6333 208.524 64.7C208.524 62.9 209.424 61.2 211.224 59.6C213.024 57.9333 215.391 56.6 218.324 55.6C221.324 54.6 224.458 54.1 227.724 54.1C234.058 54.1 239.024 55.6667 242.624 58.8C246.291 61.9333 248.124 66.2667 248.124 71.8V99.2C248.124 101.533 247.458 103.233 246.124 104.3C244.791 105.367 242.691 105.9 239.824 105.9V101.2C241.224 99.7333 241.991 98.8667 242.124 98.6L241.724 98.2C237.391 103.333 231.791 105.9 224.924 105.9ZM226.424 99C230.558 99 233.791 98.1333 236.124 96.4C238.524 94.6667 239.724 92.2667 239.724 89.2C239.724 86.1333 238.558 83.7 236.224 81.9C233.891 80.1 230.691 79.2 226.624 79.2C222.824 79.2 219.824 80.1 217.624 81.9C215.491 83.6333 214.424 86.0667 214.424 89.2C214.424 92.3333 215.458 94.7667 217.524 96.5C219.658 98.1667 222.624 99 226.424 99ZM283.345 61.8C279.611 61.8 276.511 62.9333 274.045 65.2C271.578 67.4 270.345 70.1 270.345 73.3V99.5C270.345 101.7 269.611 103.333 268.145 104.4C266.745 105.4 264.578 105.9 261.645 105.9V61.5C261.645 56.5667 264.445 54.1 270.045 54.1V60.2C268.978 61.3333 268.245 62.3333 267.845 63.2L268.245 63.6C272.511 57.2667 277.845 54.1 284.245 54.1C286.645 54.1 288.478 54.7 289.745 55.9C291.011 57.0333 291.645 58.4333 291.645 60.1C291.645 61.3 291.345 62.3667 290.745 63.3C288.878 62.3 286.411 61.8 283.345 61.8ZM314.629 105.9C310.562 105.9 306.862 105.133 303.529 103.6C300.262 102.067 297.696 100 295.829 97.4C294.029 94.7333 293.129 91.7667 293.129 88.5V72.1C293.129 68.7667 294.029 65.7333 295.829 63C297.696 60.2667 300.262 58.1 303.529 56.5C306.796 54.9 310.496 54.1 314.629 54.1C318.762 54.1 322.462 54.9 325.729 56.5C329.062 58.1 331.629 60.2667 333.429 63C335.296 65.7333 336.229 68.7667 336.229 72.1V88.5C336.229 91.7667 335.296 94.7333 333.429 97.4C331.562 100 328.996 102.067 325.729 103.6C322.462 105.133 318.762 105.9 314.629 105.9ZM314.629 98.4C318.629 98.4 321.796 97.4667 324.129 95.6C326.529 93.6667 327.729 91.1667 327.729 88.1V72.4C327.729 69.2 326.529 66.6 324.129 64.6C321.796 62.6 318.629 61.6 314.629 61.6C310.696 61.6 307.529 62.6 305.129 64.6C302.729 66.6 301.529 69.2 301.529 72.4V88.1C301.529 91.1667 302.696 93.6667 305.029 95.6C307.429 97.4667 310.629 98.4 314.629 98.4ZM347.777 61.2C347.777 59 348.444 57.2667 349.777 56C351.177 54.7333 353.277 54.1 356.077 54.1V59.7L354.077 62.3L354.377 62.7C356.444 60.0333 358.811 57.9333 361.477 56.4C364.144 54.8667 367.311 54.1 370.977 54.1C376.711 54.1 381.344 55.7 384.877 58.9C388.411 62.0333 390.177 66.2333 390.177 71.5V88.6C390.177 93.8667 388.344 98.0667 384.677 101.2C381.011 104.333 376.244 105.9 370.377 105.9C367.244 105.9 364.344 105.267 361.677 104C359.077 102.667 356.777 100.933 354.777 98.8L354.477 99.3C354.944 99.9667 355.644 100.7 356.577 101.5V119.1C356.577 123.633 353.644 125.9 347.777 125.9V61.2ZM369.077 98.2C373.011 98.2 376.077 97.3333 378.277 95.6C380.477 93.8 381.577 91.3333 381.577 88.2V71.9C381.577 68.6333 380.477 66.1333 378.277 64.4C376.077 62.6667 372.977 61.8 368.977 61.8C365.444 61.8 362.477 62.7333 360.077 64.6C357.677 66.4 356.477 68.6667 356.477 71.4V88.7C356.477 91.3667 357.611 93.6333 359.877 95.5C362.144 97.3 365.211 98.2 369.077 98.2ZM417.648 105.9C412.782 105.9 409.148 104.567 406.748 101.9C404.348 99.1667 403.148 95.6 403.148 91.2V40.5C403.148 38.3 403.848 36.7 405.248 35.7C406.715 34.6333 408.915 34.1 411.848 34.1V90.9C411.848 93.5 412.382 95.3667 413.448 96.5C414.515 97.6333 416.282 98.2 418.748 98.2C421.215 98.2 423.482 97.6 425.548 96.4C426.415 97.4 426.848 98.5667 426.848 99.9C426.848 101.5 426.015 102.9 424.348 104.1C422.682 105.3 420.448 105.9 417.648 105.9ZM451.389 105.9C445.656 105.9 441.022 104.367 437.489 101.3C434.022 98.2333 432.289 94.2 432.289 89.2C432.289 84.1333 434.122 80.0667 437.789 77C441.456 73.8667 446.289 72.3 452.289 72.3C458.689 72.3 463.956 74.5667 468.089 79.1L468.489 78.7C467.756 77.9 466.922 77.0667 465.989 76.2V72C465.989 68.6 464.922 65.9667 462.789 64.1C460.656 62.2333 457.622 61.3 453.689 61.3C446.689 61.3 441.689 64.0667 438.689 69.6C437.622 69.0667 436.722 68.3667 435.989 67.5C435.322 66.5667 434.989 65.6333 434.989 64.7C434.989 62.9 435.889 61.2 437.689 59.6C439.489 57.9333 441.856 56.6 444.789 55.6C447.789 54.6 450.922 54.1 454.189 54.1C460.522 54.1 465.489 55.6667 469.089 58.8C472.756 61.9333 474.589 66.2667 474.589 71.8V99.2C474.589 101.533 473.922 103.233 472.589 104.3C471.256 105.367 469.156 105.9 466.289 105.9V101.2C467.689 99.7333 468.456 98.8667 468.589 98.6L468.189 98.2C463.856 103.333 458.256 105.9 451.389 105.9ZM452.889 99C457.022 99 460.256 98.1333 462.589 96.4C464.989 94.6667 466.189 92.2667 466.189 89.2C466.189 86.1333 465.022 83.7 462.689 81.9C460.356 80.1 457.156 79.2 453.089 79.2C449.289 79.2 446.289 80.1 444.089 81.9C441.956 83.6333 440.889 86.0667 440.889 89.2C440.889 92.3333 441.922 94.7667 443.989 96.5C446.122 98.1667 449.089 99 452.889 99ZM504.745 105.9C501.345 105.9 498.145 105.4 495.145 104.4C492.145 103.333 489.711 101.833 487.845 99.9C486.045 97.9667 485.145 95.7 485.145 93.1C485.145 89.9 487.078 88.1667 490.945 87.9C491.611 91.6333 493.178 94.4 495.645 96.2C498.178 97.9333 501.378 98.8 505.245 98.8C509.111 98.8 512.111 98.2333 514.245 97.1C516.378 95.9667 517.445 94.2333 517.445 91.9C517.445 90.2333 517.011 88.9 516.145 87.9C515.278 86.8333 513.878 85.9333 511.945 85.2C510.078 84.4 507.378 83.6333 503.845 82.9C499.445 81.9 495.945 80.8333 493.345 79.7C490.745 78.5667 488.745 77.0667 487.345 75.2C486.011 73.3333 485.345 70.8667 485.345 67.8C485.345 65.2 486.145 62.8667 487.745 60.8C489.345 58.6667 491.545 57.0333 494.345 55.9C497.211 54.7 500.445 54.1 504.045 54.1C507.378 54.1 510.511 54.5667 513.445 55.5C516.445 56.4333 518.845 57.7667 520.645 59.5C522.511 61.2333 523.445 63.2333 523.445 65.5C523.445 67.0333 522.845 68.2667 521.645 69.2C520.445 70.0667 518.778 70.5667 516.645 70.7C516.445 67.7667 515.245 65.4667 513.045 63.8C510.911 62.0667 507.911 61.2 504.045 61.2C500.845 61.2 498.311 61.8 496.445 63C494.578 64.2 493.645 65.8 493.645 67.8C493.645 69.9333 494.511 71.5333 496.245 72.6C498.045 73.6 501.078 74.5667 505.345 75.5C512.345 76.9 517.478 78.8333 520.745 81.3C524.078 83.7 525.745 87.1333 525.745 91.6C525.745 96.1333 523.911 99.6667 520.245 102.2C516.578 104.667 511.411 105.9 504.745 105.9ZM552.638 105.9C547.905 105.9 544.372 104.567 542.038 101.9C539.705 99.1667 538.538 95.6 538.538 91.2V62H529.238C529.238 59.7333 529.738 58 530.738 56.8C531.738 55.6 533.105 55 534.838 55H538.638V45.5C538.638 43.3 539.338 41.7 540.738 40.7C542.205 39.6333 544.372 39.1 547.238 39.1V55H560.538C560.538 59.6667 558.438 62 554.238 62H547.338V90.9C547.338 93.5667 547.805 95.4667 548.738 96.6C549.738 97.6667 551.505 98.2 554.038 98.2C556.372 98.2 558.572 97.6 560.638 96.4C561.505 97.2667 561.938 98.4333 561.938 99.9C561.938 101.5 561.105 102.9 559.438 104.1C557.772 105.3 555.505 105.9 552.638 105.9ZM579.084 46.6C577.218 46.6 575.651 46 574.384 44.8C573.118 43.6 572.484 42.1 572.484 40.3C572.484 38.5 573.118 37.0333 574.384 35.9C575.651 34.7 577.218 34.1 579.084 34.1C580.884 34.1 582.418 34.7 583.684 35.9C584.951 37.0333 585.584 38.5 585.584 40.3C585.584 42.1 584.951 43.6 583.684 44.8C582.418 46 580.884 46.6 579.084 46.6ZM574.684 60.5C574.684 58.3 575.384 56.7 576.784 55.7C578.251 54.6333 580.451 54.1 583.384 54.1V99.5C583.384 101.7 582.651 103.333 581.184 104.4C579.784 105.4 577.618 105.9 574.684 105.9V60.5ZM616.233 105.9C610.499 105.9 605.866 104.367 602.333 101.3C598.866 98.2333 597.133 94.2 597.133 89.2C597.133 84.1333 598.966 80.0667 602.633 77C606.299 73.8667 611.133 72.3 617.133 72.3C623.533 72.3 628.799 74.5667 632.933 79.1L633.333 78.7C632.599 77.9 631.766 77.0667 630.833 76.2V72C630.833 68.6 629.766 65.9667 627.633 64.1C625.499 62.2333 622.466 61.3 618.533 61.3C611.533 61.3 606.533 64.0667 603.533 69.6C602.466 69.0667 601.566 68.3667 600.833 67.5C600.166 66.5667 599.833 65.6333 599.833 64.7C599.833 62.9 600.733 61.2 602.533 59.6C604.333 57.9333 606.699 56.6 609.633 55.6C612.633 54.6 615.766 54.1 619.033 54.1C625.366 54.1 630.333 55.6667 633.933 58.8C637.599 61.9333 639.433 66.2667 639.433 71.8V99.2C639.433 101.533 638.766 103.233 637.433 104.3C636.099 105.367 633.999 105.9 631.133 105.9V101.2C632.533 99.7333 633.299 98.8667 633.433 98.6L633.033 98.2C628.699 103.333 623.099 105.9 616.233 105.9ZM617.733 99C621.866 99 625.099 98.1333 627.433 96.4C629.833 94.6667 631.033 92.2667 631.033 89.2C631.033 86.1333 629.866 83.7 627.533 81.9C625.199 80.1 621.999 79.2 617.933 79.2C614.133 79.2 611.133 80.1 608.933 81.9C606.799 83.6333 605.733 86.0667 605.733 89.2C605.733 92.3333 606.766 94.7667 608.833 96.5C610.966 98.1667 613.933 99 617.733 99Z"/>
</mask>
<path d="M27.4 103.7L29.4414 101.502L27.4 103.7ZM27.4 36.3L29.3524 38.5778L29.3977 38.539L29.4414 38.4984L27.4 36.3ZM72.4 40.2L70.2582 42.3006L70.2684 42.311L70.2787 42.3213L72.4 40.2ZM75.1 63L77.6614 64.5618H77.6614L75.1 63ZM68.6 69.1L67.2584 66.4167L65.6 67.2459V69.1H68.6ZM68.6 69.3H65.6V71.5358L67.7426 72.1749L68.6 69.3ZM77.4 75.2L74.9863 76.9816L74.9966 76.9955L75.007 77.0093L77.4 75.2ZM78 95.5L75.3775 94.0431L75.365 94.0656L75.3529 94.0882L78 95.5ZM71.2 102.5L69.718 99.8916H69.718L71.2 102.5ZM65.4 62.6L63.1505 60.6151L63.1465 60.6197L65.4 62.6ZM65.7 46.1L63.4329 48.0648L63.4513 48.086L63.4701 48.1069L65.7 46.1ZM35.3 43.1V40.1H32.3V43.1H35.3ZM35.3 65.9H32.3V68.9H35.3V65.9ZM68.4 93.9L70.557 95.9851L70.574 95.9674L70.5908 95.9495L68.4 93.9ZM68.4 77L66.2068 79.047L66.2248 79.0662L66.243 79.0851L68.4 77ZM35.3 74V71H32.3V74H35.3ZM35.3 96.9H32.3V99.9H35.3V96.9ZM30.8 102C30.1848 102 29.7918 101.827 29.4414 101.502L25.3586 105.898C26.8749 107.306 28.7485 108 30.8 108V102ZM29.4414 101.502C29.0772 101.163 29 100.91 29 100.6H23C23 102.69 23.8562 104.503 25.3586 105.898L29.4414 101.502ZM29 100.6V39.4H23V100.6H29ZM29 39.4C29 38.9785 29.1068 38.7882 29.3524 38.5778L25.4476 34.0222C23.8265 35.4118 23 37.2881 23 39.4H29ZM29.4414 38.4984C29.7918 38.173 30.1848 38 30.8 38V32C28.7485 32 26.8749 32.6937 25.3586 34.1016L29.4414 38.4984ZM30.8 38H58.6V32H30.8V38ZM58.6 38C63.7627 38 67.5303 39.5193 70.2582 42.3006L74.5418 38.0994C70.4697 33.9474 65.0373 32 58.6 32V38ZM70.2787 42.3213C73.0744 45.117 74.6 48.9614 74.6 54.2H80.6C80.6 47.7053 78.659 42.2163 74.5213 38.0787L70.2787 42.3213ZM74.6 54.2C74.6 56.7699 73.925 59.1645 72.5386 61.4382L77.6614 64.5618C79.6084 61.3688 80.6 57.8968 80.6 54.2H74.6ZM72.5386 61.4382C71.1426 63.7276 69.3839 65.354 67.2584 66.4167L69.9416 71.7833C73.1495 70.1794 75.724 67.7391 77.6614 64.5618L72.5386 61.4382ZM65.6 69.1V69.3H71.6V69.1H65.6ZM67.7426 72.1749C71.0099 73.1493 73.3588 74.7766 74.9863 76.9816L79.8137 73.4184C77.3078 70.0234 73.7901 67.7174 69.4574 66.4251L67.7426 72.1749ZM75.007 77.0093C76.6231 79.1467 77.5 81.819 77.5 85.2H83.5C83.5 80.7143 82.3103 76.72 79.793 73.3907L75.007 77.0093ZM77.5 85.2C77.5 88.6225 76.7665 91.5428 75.3775 94.0431L80.6225 96.9569C82.5668 93.4572 83.5 89.5108 83.5 85.2H77.5ZM75.3529 94.0882C74.018 96.5913 72.1535 98.5078 69.718 99.8916L72.682 105.108C76.1132 103.159 78.782 100.409 80.6471 96.9118L75.3529 94.0882ZM69.718 99.8916C67.2912 101.27 64.4473 102 61.1 102V108C65.3527 108 69.2421 107.063 72.682 105.108L69.718 99.8916ZM61.1 102H30.8V108H61.1V102ZM58.4 68.9C62.0636 68.9 65.1966 67.3761 67.6535 64.5803L63.1465 60.6197C61.7367 62.2239 60.2031 62.9 58.4 62.9V68.9ZM67.6495 64.5849C70.1631 61.7361 71.4 58.2843 71.4 54.4H65.4C65.4 56.9157 64.6369 58.9306 63.1505 60.6151L67.6495 64.5849ZM71.4 54.4C71.4 50.3628 70.3643 46.798 67.9299 44.0931L63.4701 48.1069C64.6357 49.402 65.4 51.3705 65.4 54.4H71.4ZM67.9671 44.1352C65.5579 41.3554 62.2273 40.1 58.4 40.1V46.1C60.8394 46.1 62.3754 46.8446 63.4329 48.0648L67.9671 44.1352ZM58.4 40.1H35.3V46.1H58.4V40.1ZM32.3 43.1V65.9H38.3V43.1H32.3ZM35.3 68.9H58.4V62.9H35.3V68.9ZM60.4 99.9C64.4199 99.9 67.9368 98.6956 70.557 95.9851L66.243 91.8149C64.9966 93.1044 63.1801 93.9 60.4 93.9V99.9ZM70.5908 95.9495C73.1837 93.1778 74.3 89.4953 74.3 85.3H68.3C68.3 88.438 67.483 90.4889 66.2092 91.8505L70.5908 95.9495ZM74.3 85.3C74.3 81.2084 73.1666 77.6146 70.557 74.9149L66.243 79.0851C67.5 80.3854 68.3 82.325 68.3 85.3H74.3ZM70.5932 74.953C68.0159 72.1917 64.462 71 60.4 71V77C63.2713 77 65.0508 77.8083 66.2068 79.047L70.5932 74.953ZM60.4 71H35.3V77H60.4V71ZM32.3 74V96.9H38.3V74H32.3ZM35.3 99.9H60.4V93.9H35.3V99.9ZM95.6156 101.9L93.3613 103.879L93.3734 103.893L93.3857 103.907L95.6156 101.9ZM94.1156 35.7L95.8593 38.1412L95.8698 38.1337L95.8801 38.1262L94.1156 35.7ZM100.716 34.1H103.716V31.1H100.716V34.1ZM102.316 96.5L100.131 98.5561L102.316 96.5ZM114.416 96.4L116.683 94.4352L115.056 92.5588L112.909 93.8056L114.416 96.4ZM113.216 104.1L111.463 101.665L113.216 104.1ZM106.516 102.9C102.183 102.9 99.4945 101.725 97.8455 99.8931L93.3857 103.907C96.5367 107.408 101.115 108.9 106.516 108.9V102.9ZM97.8699 99.9206C96.0465 97.8439 95.0156 95.0315 95.0156 91.2H89.0156C89.0156 96.1685 90.3847 100.489 93.3613 103.879L97.8699 99.9206ZM95.0156 91.2V40.5H89.0156V91.2H95.0156ZM95.0156 40.5C95.0156 38.969 95.4636 38.4238 95.8593 38.1412L92.3719 33.2588C89.9676 34.9762 89.0156 37.631 89.0156 40.5H95.0156ZM95.8801 38.1262C96.6045 37.5994 98.0567 37.1 100.716 37.1V31.1C97.5079 31.1 94.5601 31.6673 92.3511 33.2738L95.8801 38.1262ZM97.7156 34.1V90.9H103.716V34.1H97.7156ZM97.7156 90.9C97.7156 93.7844 98.285 96.5947 100.131 98.5561L104.5 94.4439C104.213 94.1387 103.716 93.2156 103.716 90.9H97.7156ZM100.131 98.5561C102.022 100.566 104.794 101.2 107.616 101.2V95.2C105.504 95.2 104.742 94.701 104.5 94.4439L100.131 98.5561ZM107.616 101.2C110.594 101.2 113.383 100.469 115.922 98.9944L112.909 93.8056C111.315 94.7311 109.571 95.2 107.616 95.2V101.2ZM112.149 98.3648C112.539 98.8148 112.716 99.2824 112.716 99.9H118.716C118.716 97.8509 118.026 95.9852 116.683 94.4352L112.149 98.3648ZM112.716 99.9C112.716 100.268 112.592 100.852 111.463 101.665L114.969 106.535C117.172 104.948 118.716 102.732 118.716 99.9H112.716ZM111.463 101.665C110.463 102.385 108.911 102.9 106.516 102.9V108.9C109.721 108.9 112.635 108.215 114.969 106.535L111.463 101.665ZM132.856 103.6L131.515 106.283L131.537 106.295L131.56 106.305L132.856 103.6ZM125.356 97.1L122.833 98.7223L122.842 98.7362L122.851 98.75L125.356 97.1ZM125.456 63.3L122.969 61.6226L122.955 61.6427L122.942 61.663L125.456 63.3ZM133.156 56.6L134.498 59.2833L134.509 59.2778L134.52 59.2723L133.156 56.6ZM154.156 56.5L152.792 59.1718L152.803 59.1776L152.815 59.1833L154.156 56.5ZM161.656 63.1L159.133 64.7223L159.146 64.7433L159.16 64.7641L161.656 63.1ZM163.256 81.7L165.283 83.9115L163.256 81.7ZM131.156 82.8V79.8H128.156V82.8H131.156ZM134.356 95.5L132.269 97.6547L132.285 97.6708L132.302 97.6865L134.356 95.5ZM156.256 88.6L156.057 85.6066L153.256 85.7933V88.6H156.256ZM161.256 89.8L159.536 92.2577L159.605 92.3062L159.677 92.3508L161.256 89.8ZM160.556 99.7L158.435 97.5787L158.416 97.598L158.397 97.6176L160.556 99.7ZM153.356 104.2L152.296 101.394L153.356 104.2ZM156.356 76V79H159.356V76H156.356ZM152.856 64.5L150.8 66.6846L150.833 66.7157L150.867 66.7458L152.856 64.5ZM134.556 64.5L136.578 66.7169L136.581 66.7141L134.556 64.5ZM131.156 76H128.156V79H131.156V76ZM143.756 102.9C140.073 102.9 136.893 102.208 134.153 100.895L131.56 106.305C135.22 108.059 139.306 108.9 143.756 108.9V102.9ZM134.198 100.917C131.425 99.5301 129.345 97.7021 127.862 95.45L122.851 98.75C124.968 101.965 127.888 104.47 131.515 106.283L134.198 100.917ZM127.88 95.4777C126.404 93.1823 125.656 90.6165 125.656 87.7H119.656C119.656 91.7168 120.708 95.4177 122.833 98.7223L127.88 95.4777ZM125.656 87.7V72.9H119.656V87.7H125.656ZM125.656 72.9C125.656 69.9277 126.432 67.3 127.97 64.937L122.942 61.663C120.748 65.0334 119.656 68.8056 119.656 72.9H125.656ZM127.943 64.9774C129.578 62.5543 131.743 60.6606 134.498 59.2833L131.815 53.9167C128.169 55.7394 125.202 58.3123 122.969 61.6226L127.943 64.9774ZM134.52 59.2723C137.349 57.8289 140.412 57.1 143.756 57.1V51.1C139.5 51.1 135.497 52.0377 131.793 53.9277L134.52 59.2723ZM143.756 57.1C147.121 57.1 150.114 57.8045 152.792 59.1718L155.521 53.8282C151.932 51.9955 147.992 51.1 143.756 51.1V57.1ZM152.815 59.1833C155.57 60.5609 157.646 62.4096 159.133 64.7223L164.18 61.4777C162.066 58.1904 159.143 55.6391 155.498 53.8167L152.815 59.1833ZM159.16 64.7641C160.681 67.0459 161.456 69.6277 161.456 72.6H167.456C167.456 68.5056 166.365 64.7541 164.152 61.4359L159.16 64.7641ZM161.456 72.6V79H167.456V72.6H161.456ZM161.456 79C161.456 79.2092 161.421 79.3122 161.229 79.4885L165.283 83.9115C166.691 82.6212 167.456 80.9241 167.456 79H161.456ZM161.229 79.4885C161.009 79.6905 160.776 79.8 160.356 79.8V85.8C162.204 85.8 163.904 85.1762 165.283 83.9115L161.229 79.4885ZM160.356 79.8H131.156V85.8H160.356V79.8ZM128.156 82.8V87.3H134.156V82.8H128.156ZM128.156 87.3C128.156 91.3839 129.466 94.9395 132.269 97.6547L136.444 93.3453C134.98 91.9271 134.156 90.0161 134.156 87.3H128.156ZM132.302 97.6865C135.228 100.435 139.197 101.6 143.756 101.6V95.6C140.183 95.6 137.884 94.698 136.41 93.3135L132.302 97.6865ZM143.756 101.6C148.215 101.6 152.116 100.618 154.991 98.1929L151.122 93.6071C149.73 94.7815 147.43 95.6 143.756 95.6V101.6ZM154.991 98.1929C157.872 95.7622 159.256 92.452 159.256 88.6H153.256C153.256 90.8813 152.508 92.4378 151.122 93.6071L154.991 98.1929ZM156.456 91.5934C157.936 91.4947 158.883 91.8007 159.536 92.2577L162.977 87.3423C160.963 85.9326 158.576 85.4387 156.057 85.6066L156.456 91.5934ZM159.677 92.3508C160.139 92.6366 160.356 92.9393 160.356 93.7H166.356C166.356 90.994 165.174 88.6968 162.835 87.2492L159.677 92.3508ZM160.356 93.7C160.356 94.8576 159.881 96.133 158.435 97.5787L162.678 101.821C164.965 99.5336 166.356 96.809 166.356 93.7H160.356ZM158.397 97.6176C156.969 99.098 154.977 100.381 152.296 101.394L154.416 107.006C157.736 105.752 160.543 104.035 162.716 101.782L158.397 97.6176ZM152.296 101.394C149.655 102.391 146.816 102.9 143.756 102.9V108.9C147.496 108.9 151.058 108.275 154.416 107.006L152.296 101.394ZM159.356 76V72.6H153.356V76H159.356ZM159.356 72.6C159.356 68.4752 157.87 64.9335 154.845 62.2542L150.867 66.7458C152.509 68.1999 153.356 70.0581 153.356 72.6H159.356ZM154.912 62.3154C151.972 59.5479 148.142 58.3 143.756 58.3V64.3C146.97 64.3 149.207 65.1854 150.8 66.6846L154.912 62.3154ZM143.756 58.3C139.367 58.3 135.526 59.5487 132.532 62.2859L136.581 66.7141C138.253 65.1846 140.546 64.3 143.756 64.3V58.3ZM132.535 62.2831C129.587 64.9712 128.156 68.5048 128.156 72.6H134.156C134.156 70.0285 134.992 68.1622 136.578 66.7169L132.535 62.2831ZM128.156 72.6V76H134.156V72.6H128.156ZM131.156 79H156.356V73H131.156V79ZM180.8 62H183.8V59H180.8V62ZM172.5 62H169.5V65H172.5V62ZM180.8 55V58H183.8V55H180.8ZM184.5 38.3L186.727 40.3099L186.739 40.2966L186.751 40.2831L184.5 38.3ZM202.1 36L200.189 38.3129L200.22 38.3381L200.251 38.3625L202.1 36ZM203.1 43.6L201.594 46.1944L203.589 47.3532L205.221 45.7213L203.1 43.6ZM189.5 55H186.5V58H189.5V55ZM202 55H205V52H202V55ZM200.4 60.3L198.215 58.2439L198.182 58.279L198.15 58.3151L200.4 60.3ZM189.5 62V59H186.5V62H189.5ZM187.3 104.4L189.044 106.841L189.054 106.834L189.065 106.826L187.3 104.4ZM180.8 105.9H177.8V108.9H180.8V105.9ZM180.8 59H172.5V65H180.8V59ZM175.5 62C175.5 59.9507 175.896 58.9592 176.208 58.539C176.396 58.2859 176.709 58 177.7 58V52C175.224 52 172.937 52.8808 171.392 54.961C169.971 56.8741 169.5 59.3826 169.5 62H175.5ZM177.7 58H180.8V52H177.7V58ZM183.8 55V48.9H177.8V55H183.8ZM183.8 48.9C183.8 45.1699 184.844 42.3966 186.727 40.3099L182.273 36.2901C179.223 39.67 177.8 43.9635 177.8 48.9H183.8ZM186.751 40.2831C188.479 38.3213 191.235 37.1 195.6 37.1V31.1C190.099 31.1 185.454 32.6787 182.249 36.3169L186.751 40.2831ZM195.6 37.1C197.983 37.1 199.376 37.641 200.189 38.3129L204.011 33.6871C201.757 31.8256 198.817 31.1 195.6 31.1V37.1ZM200.251 38.3625C201.233 39.1309 201.4 39.7241 201.4 40.2H207.4C207.4 37.4759 206.034 35.2691 203.949 33.6375L200.251 38.3625ZM201.4 40.2C201.4 40.9273 201.201 41.256 200.979 41.4787L205.221 45.7213C206.732 44.2107 207.4 42.2727 207.4 40.2H201.4ZM204.606 41.0056C202.08 39.5387 199.327 38.8 196.4 38.8V44.8C198.273 44.8 199.987 45.2612 201.594 46.1944L204.606 41.0056ZM196.4 38.8C193.535 38.8 190.74 39.4893 188.858 41.6069L193.342 45.5931C193.593 45.3107 194.332 44.8 196.4 44.8V38.8ZM188.858 41.6069C187.078 43.6087 186.5 46.3936 186.5 49.3H192.5C192.5 47.0063 192.988 45.9913 193.342 45.5931L188.858 41.6069ZM186.5 49.3V55H192.5V49.3H186.5ZM189.5 58H202V52H189.5V58ZM199 55C199 57.037 198.536 57.903 198.215 58.2439L202.585 62.3561C204.397 60.4303 205 57.763 205 55H199ZM198.15 58.3151C197.924 58.5719 197.338 59 195.7 59V65C198.328 65 200.876 64.2947 202.65 62.2849L198.15 58.3151ZM195.7 59H189.5V65H195.7V59ZM186.5 62V99.5H192.5V62H186.5ZM186.5 99.5C186.5 100.971 186.057 101.595 185.535 101.974L189.065 106.826C191.477 105.072 192.5 102.429 192.5 99.5H186.5ZM185.556 101.959C184.913 102.419 183.503 102.9 180.8 102.9V108.9C183.964 108.9 186.887 108.381 189.044 106.841L185.556 101.959ZM183.8 105.9V62H177.8V105.9H183.8ZM211.024 101.3L209.036 103.547L209.047 103.556L209.058 103.566L211.024 101.3ZM211.324 77L213.249 79.3012L213.261 79.291L213.273 79.2807L211.324 77ZM241.624 79.1L239.407 81.1213L241.524 83.4428L243.746 81.2213L241.624 79.1ZM242.024 78.7L244.146 80.8213L246.177 78.7902L244.236 76.6728L242.024 78.7ZM239.524 76.2H236.524V77.5082L237.483 78.3984L239.524 76.2ZM212.224 69.6L210.883 72.2833L213.478 73.5812L214.862 71.0299L212.224 69.6ZM209.524 67.5L207.083 69.2437L207.155 69.3439L207.234 69.4378L209.524 67.5ZM211.224 59.6L213.217 61.8422L213.24 61.822L213.262 61.8013L211.224 59.6ZM218.324 55.6L217.376 52.7539L217.366 52.7572L217.356 52.7605L218.324 55.6ZM242.624 58.8L240.655 61.0629L240.665 61.0718L240.675 61.0807L242.624 58.8ZM246.124 104.3L244.25 101.957V101.957L246.124 104.3ZM239.824 105.9H236.824V108.9H239.824V105.9ZM239.824 101.2L237.654 99.1286L236.824 99.998V101.2H239.824ZM242.124 98.6L244.807 99.9416L245.775 98.0076L244.246 96.4787L242.124 98.6ZM241.724 98.2L243.846 96.0787L241.537 93.7705L239.432 96.2648L241.724 98.2ZM236.124 96.4L234.368 93.968L234.351 93.9798L234.335 93.9918L236.124 96.4ZM236.224 81.9L234.392 84.2753L236.224 81.9ZM217.624 81.9L219.516 84.2284L219.524 84.2219L217.624 81.9ZM217.524 96.5L215.596 98.7986L215.636 98.832L215.677 98.8641L217.524 96.5ZM224.924 102.9C219.744 102.9 215.863 101.527 212.991 99.0343L209.058 103.566C213.253 107.206 218.638 108.9 224.924 108.9V102.9ZM213.012 99.053C210.245 96.6053 208.824 93.4183 208.824 89.2H202.824C202.824 94.9817 204.87 99.8613 209.036 103.547L213.012 99.053ZM208.824 89.2C208.824 84.9609 210.309 81.7599 213.249 79.3012L209.4 74.6988C205.006 78.3734 202.824 83.3058 202.824 89.2H208.824ZM213.273 79.2807C216.274 76.7166 220.359 75.3 225.824 75.3V69.3C219.29 69.3 213.708 71.0167 209.375 74.7193L213.273 79.2807ZM225.824 75.3C231.422 75.3 235.87 77.2412 239.407 81.1213L243.841 77.0787C239.112 71.8921 233.027 69.3 225.824 69.3V75.3ZM243.746 81.2213L244.146 80.8213L239.903 76.5787L239.503 76.9787L243.746 81.2213ZM244.236 76.6728C243.44 75.8044 242.548 74.9139 241.566 74.0016L237.483 78.3984C238.367 79.2194 239.142 79.9956 239.813 80.7272L244.236 76.6728ZM242.524 76.2V72H236.524V76.2H242.524ZM242.524 72C242.524 67.9237 241.214 64.3921 238.3 61.8423L234.349 66.3577C235.701 67.5412 236.524 69.2763 236.524 72H242.524ZM238.3 61.8423C235.44 59.3397 231.603 58.3 227.224 58.3V64.3C230.712 64.3 232.942 65.127 234.349 66.3577L238.3 61.8423ZM227.224 58.3C223.329 58.3 219.806 59.0712 216.772 60.7501C213.721 62.4383 211.331 64.9531 209.587 68.1701L214.862 71.0299C216.117 68.7135 217.728 67.0783 219.677 65.9999C221.643 64.9122 224.119 64.3 227.224 64.3V58.3ZM213.566 66.9167C212.844 66.5557 212.272 66.1031 211.814 65.5622L207.234 69.4378C208.243 70.6302 209.471 71.5776 210.883 72.2833L213.566 66.9167ZM211.965 65.7563C211.578 65.2136 211.524 64.877 211.524 64.7H205.524C205.524 66.3897 206.137 67.9198 207.083 69.2437L211.965 65.7563ZM211.524 64.7C211.524 64.0204 211.83 63.0753 213.217 61.8422L209.231 57.3578C207.018 59.3247 205.524 61.7796 205.524 64.7H211.524ZM213.262 61.8013C214.685 60.4845 216.655 59.3385 219.292 58.4395L217.356 52.7605C214.127 53.8615 211.364 55.3821 209.186 57.3987L213.262 61.8013ZM219.273 58.446C221.957 57.5514 224.769 57.1 227.724 57.1V51.1C224.146 51.1 220.691 51.6486 217.376 52.7539L219.273 58.446ZM227.724 57.1C233.574 57.1 237.758 58.5418 240.655 61.0629L244.594 56.5371C240.29 52.7915 234.541 51.1 227.724 51.1V57.1ZM240.675 61.0807C243.573 63.5568 245.124 67.0001 245.124 71.8H251.124C251.124 65.5332 249.009 60.3099 244.573 56.5193L240.675 61.0807ZM245.124 71.8V99.2H251.124V71.8H245.124ZM245.124 99.2C245.124 100.977 244.634 101.65 244.25 101.957L247.998 106.643C250.281 104.817 251.124 102.09 251.124 99.2H245.124ZM244.25 101.957C243.705 102.394 242.432 102.9 239.824 102.9V108.9C242.949 108.9 245.877 108.34 247.998 106.643L244.25 101.957ZM242.824 105.9V101.2H236.824V105.9H242.824ZM241.994 103.271C242.704 102.528 243.276 101.913 243.696 101.438C243.905 101.202 244.096 100.978 244.255 100.778C244.366 100.639 244.62 100.317 244.807 99.9416L239.441 97.2584C239.486 97.1692 239.524 97.1048 239.544 97.0726C239.566 97.0377 239.582 97.0152 239.587 97.0077C239.596 96.9945 239.589 97.0054 239.556 97.0469C239.49 97.13 239.377 97.2649 239.202 97.4623C238.856 97.8538 238.344 98.4056 237.654 99.1286L241.994 103.271ZM244.246 96.4787L243.846 96.0787L239.603 100.321L240.003 100.721L244.246 96.4787ZM239.432 96.2648C235.683 100.706 230.93 102.9 224.924 102.9V108.9C232.652 108.9 239.099 105.961 244.017 100.135L239.432 96.2648ZM226.424 102C230.938 102 234.885 101.058 237.913 98.8082L234.335 93.9918C232.697 95.2088 230.177 96 226.424 96V102ZM237.881 98.832C241.094 96.5112 242.724 93.1892 242.724 89.2H236.724C236.724 91.3442 235.954 92.8221 234.368 93.968L237.881 98.832ZM242.724 89.2C242.724 85.2474 241.16 81.919 238.057 79.5247L234.392 84.2753C235.955 85.4809 236.724 87.0192 236.724 89.2H242.724ZM238.057 79.5247C235.031 77.1906 231.106 76.2 226.624 76.2V82.2C230.276 82.2 232.751 83.0094 234.392 84.2753L238.057 79.5247ZM226.624 76.2C222.366 76.2 218.617 77.2113 215.725 79.5781L219.524 84.2219C221.031 82.9887 223.283 82.2 226.624 82.2V76.2ZM215.732 79.5717C212.795 81.9587 211.424 85.3056 211.424 89.2H217.424C217.424 86.8278 218.187 85.308 219.516 84.2283L215.732 79.5717ZM211.424 89.2C211.424 93.0607 212.737 96.4001 215.596 98.7986L219.452 94.2014C218.178 93.1333 217.424 91.6059 217.424 89.2H211.424ZM215.677 98.8641C218.514 101.081 222.22 102 226.424 102V96C223.029 96 220.801 95.2528 219.371 94.1359L215.677 98.8641ZM274.045 65.2L276.041 67.4389L276.058 67.4241L276.074 67.409L274.045 65.2ZM268.145 104.4L269.888 106.841L269.899 106.834L269.909 106.826L268.145 104.4ZM261.645 105.9H258.645V108.9H261.645V105.9ZM270.045 54.1H273.045V51.1H270.045V54.1ZM270.045 60.2L272.229 62.2561L273.045 61.3897V60.2H270.045ZM267.845 63.2L265.121 61.9428L264.244 63.8422L265.723 65.3213L267.845 63.2ZM268.245 63.6L266.123 65.7213L268.698 68.2962L270.733 65.2762L268.245 63.6ZM289.745 55.9L287.681 58.0779L287.712 58.1072L287.744 58.1357L289.745 55.9ZM290.745 63.3L289.328 65.9444L291.77 67.2527L293.268 64.9223L290.745 63.3ZM283.345 58.8C278.952 58.8 275.1 60.156 272.015 62.991L276.074 67.409C277.923 65.7106 280.27 64.8 283.345 64.8V58.8ZM272.048 62.9611C268.967 65.709 267.345 69.2133 267.345 73.3H273.345C273.345 70.9867 274.189 69.091 276.041 67.4389L272.048 62.9611ZM267.345 73.3V99.5H273.345V73.3H267.345ZM267.345 99.5C267.345 100.971 266.901 101.595 266.38 101.974L269.909 106.826C272.321 105.072 273.345 102.429 273.345 99.5H267.345ZM266.401 101.959C265.757 102.419 264.348 102.9 261.645 102.9V108.9C264.808 108.9 267.732 108.381 269.888 106.841L266.401 101.959ZM264.645 105.9V61.5H258.645V105.9H264.645ZM264.645 61.5C264.645 59.6014 265.166 58.696 265.728 58.2011C266.362 57.6422 267.62 57.1 270.045 57.1V51.1C266.869 51.1 263.927 51.7911 261.761 53.6989C259.523 55.6706 258.645 58.4652 258.645 61.5H264.645ZM267.045 54.1V60.2H273.045V54.1H267.045ZM267.86 58.1439C266.693 59.3839 265.714 60.6563 265.121 61.9428L270.568 64.4572C270.775 64.0104 271.263 63.2828 272.229 62.2561L267.86 58.1439ZM265.723 65.3213L266.123 65.7213L270.366 61.4787L269.966 61.0787L265.723 65.3213ZM270.733 65.2762C274.565 59.5868 279.045 57.1 284.245 57.1V51.1C276.644 51.1 270.457 54.9465 265.756 61.9238L270.733 65.2762ZM284.245 57.1C286.169 57.1 287.153 57.5772 287.681 58.0779L291.808 53.7221C289.803 51.8228 287.12 51.1 284.245 51.1V57.1ZM287.744 58.1357C288.389 58.7128 288.645 59.306 288.645 60.1H294.645C294.645 57.5607 293.633 55.3539 291.745 53.6643L287.744 58.1357ZM288.645 60.1C288.645 60.7736 288.484 61.2678 288.221 61.6777L293.268 64.9223C294.205 63.4655 294.645 61.8264 294.645 60.1H288.645ZM292.161 60.6556C289.707 59.3409 286.699 58.8 283.345 58.8V64.8C286.123 64.8 288.048 65.2591 289.328 65.9444L292.161 60.6556ZM303.529 103.6L302.254 106.316L302.265 106.321L302.275 106.325L303.529 103.6ZM295.829 97.4L293.342 99.0784L293.367 99.1144L293.392 99.1496L295.829 97.4ZM295.829 63L293.352 61.3081L293.337 61.329L293.323 61.35L295.829 63ZM303.529 56.5L302.209 53.8058L303.529 56.5ZM325.729 56.5L324.409 59.1942L324.42 59.1994L324.431 59.2046L325.729 56.5ZM333.429 63L330.923 64.65L330.937 64.671L330.952 64.6919L333.429 63ZM333.429 97.4L335.866 99.1496L335.876 99.1351L335.887 99.1204L333.429 97.4ZM325.729 103.6L324.454 100.884L325.729 103.6ZM324.129 95.6L326.003 97.9426L326.011 97.9363L324.129 95.6ZM324.129 64.6L322.177 66.8778L322.192 66.8913L322.208 66.9047L324.129 64.6ZM305.029 95.6L303.115 97.9101L303.151 97.9396L303.187 97.9681L305.029 95.6ZM314.629 102.9C310.948 102.9 307.682 102.208 304.783 100.875L302.275 106.325C306.043 108.058 310.177 108.9 314.629 108.9V102.9ZM304.804 100.884C301.94 99.5403 299.797 97.7837 298.266 95.6504L293.392 99.1496C295.594 102.216 298.584 104.593 302.254 106.316L304.804 100.884ZM298.315 95.7216C296.856 93.5587 296.129 91.1783 296.129 88.5H290.129C290.129 92.355 291.202 95.9079 293.342 99.0784L298.315 95.7216ZM296.129 88.5V72.1H290.129V88.5H296.129ZM296.129 72.1C296.129 69.3416 296.863 66.8839 298.334 64.65L293.323 61.35C291.195 64.5827 290.129 68.1917 290.129 72.1H296.129ZM298.306 64.6919C299.852 62.4287 302.001 60.5891 304.849 59.1942L302.209 53.8058C298.524 55.6109 295.539 58.1046 293.352 61.3081L298.306 64.6919ZM304.849 59.1942C307.652 57.8213 310.89 57.1 314.629 57.1V51.1C310.101 51.1 305.94 51.9787 302.209 53.8058L304.849 59.1942ZM314.629 57.1C318.367 57.1 321.606 57.8213 324.409 59.1942L327.049 53.8058C323.318 51.9787 319.157 51.1 314.629 51.1V57.1ZM324.431 59.2046C327.339 60.6003 329.46 62.4279 330.923 64.65L335.934 61.35C333.798 58.1054 330.786 55.5997 327.027 53.7954L324.431 59.2046ZM330.952 64.6919C332.475 66.9229 333.229 69.3658 333.229 72.1H339.229C339.229 68.1675 338.116 64.5437 335.906 61.3081L330.952 64.6919ZM333.229 72.1V88.5H339.229V72.1H333.229ZM333.229 88.5C333.229 91.1535 332.484 93.5191 330.971 95.6796L335.887 99.1204C338.108 95.9475 339.229 92.3798 339.229 88.5H333.229ZM330.992 95.6504C329.46 97.7837 327.317 99.5403 324.454 100.884L327.004 106.316C330.674 104.593 333.664 102.216 335.866 99.1496L330.992 95.6504ZM324.454 100.884C321.641 102.205 318.386 102.9 314.629 102.9V108.9C319.139 108.9 323.284 108.062 327.004 106.316L324.454 100.884ZM314.629 101.4C319.08 101.4 322.982 100.359 326.003 97.9426L322.255 93.2574C320.609 94.5739 318.178 95.4 314.629 95.4V101.4ZM326.011 97.9363C329.114 95.4367 330.729 92.0797 330.729 88.1H324.729C324.729 90.2536 323.944 91.8966 322.247 93.2637L326.011 97.9363ZM330.729 88.1V72.4H324.729V88.1H330.729ZM330.729 72.4C330.729 68.3346 329.152 64.8811 326.049 62.2953L322.208 66.9047C323.905 68.3189 324.729 70.0654 324.729 72.4H330.729ZM326.081 62.3222C323.058 59.7306 319.125 58.6 314.629 58.6V64.6C318.133 64.6 320.533 65.4694 322.177 66.8778L326.081 62.3222ZM314.629 58.6C310.18 58.6 306.275 59.7396 303.208 62.2953L307.049 66.9047C308.783 65.4604 311.211 64.6 314.629 64.6V58.6ZM303.208 62.2953C300.105 64.8811 298.529 68.3346 298.529 72.4H304.529C304.529 70.0654 305.352 68.3189 307.049 66.9047L303.208 62.2953ZM298.529 72.4V88.1H304.529V72.4H298.529ZM298.529 88.1C298.529 92.0475 300.084 95.3989 303.115 97.9101L306.943 93.2899C305.307 91.9344 304.529 90.2858 304.529 88.1H298.529ZM303.187 97.9681C306.259 100.357 310.173 101.4 314.629 101.4V95.4C311.085 95.4 308.599 94.576 306.871 93.2319L303.187 97.9681ZM349.777 56L347.765 53.7754L347.738 53.7999L347.711 53.825L349.777 56ZM356.077 54.1H359.077V51.1H356.077V54.1ZM356.077 59.7L358.455 61.5291L359.077 60.7204V59.7H356.077ZM354.077 62.3L351.699 60.4709L350.31 62.277L351.677 64.1L354.077 62.3ZM354.377 62.7L351.977 64.5L354.338 67.6479L356.749 64.5377L354.377 62.7ZM361.477 56.4L359.982 53.7993L361.477 56.4ZM384.877 58.9L382.863 61.1236L382.875 61.1341L382.887 61.1446L384.877 58.9ZM384.677 101.2L382.728 98.9193L384.677 101.2ZM361.677 104L360.308 106.669L360.349 106.69L360.39 106.71L361.677 104ZM354.777 98.8L356.966 96.7482L354.249 93.8499L352.205 97.2565L354.777 98.8ZM354.477 99.3L351.905 97.7565L350.903 99.4257L352.02 101.02L354.477 99.3ZM356.577 101.5H359.577V100.12L358.53 99.2222L356.577 101.5ZM347.777 125.9H344.777V128.9H347.777V125.9ZM378.277 95.6L380.134 97.9565L380.156 97.9394L380.177 97.9219L378.277 95.6ZM378.277 64.4L380.134 62.0435L378.277 64.4ZM360.077 64.6L361.877 67L361.898 66.9842L361.919 66.9681L360.077 64.6ZM359.877 95.5L357.97 97.8158L357.991 97.8327L358.012 97.8493L359.877 95.5ZM350.777 61.2C350.777 59.648 351.222 58.7655 351.844 58.175L347.711 53.825C345.666 55.7678 344.777 58.352 344.777 61.2H350.777ZM351.79 58.2246C352.424 57.6511 353.67 57.1 356.077 57.1V51.1C352.885 51.1 349.931 51.8156 347.765 53.7754L351.79 58.2246ZM353.077 54.1V59.7H359.077V54.1H353.077ZM353.699 57.8709L351.699 60.4709L356.455 64.1291L358.455 61.5291L353.699 57.8709ZM351.677 64.1L351.977 64.5L356.777 60.9L356.477 60.5L351.677 64.1ZM356.749 64.5377C358.599 62.15 360.676 60.3211 362.973 59.0007L359.982 53.7993C356.945 55.5455 354.289 57.9167 352.006 60.8623L356.749 64.5377ZM362.973 59.0007C365.104 57.7751 367.734 57.1 370.977 57.1V51.1C366.887 51.1 363.184 51.9582 359.982 53.7993L362.973 59.0007ZM370.977 57.1C376.125 57.1 379.989 58.5206 382.863 61.1236L386.891 56.6764C382.699 52.8794 377.296 51.1 370.977 51.1V57.1ZM382.887 61.1446C385.7 63.6392 387.177 66.9811 387.177 71.5H393.177C393.177 65.4855 391.121 60.4275 386.868 56.6554L382.887 61.1446ZM387.177 71.5V88.6H393.177V71.5H387.177ZM387.177 88.6C387.177 93.0805 385.662 96.4126 382.728 98.9193L386.626 103.481C391.026 99.7207 393.177 94.6528 393.177 88.6H387.177ZM382.728 98.9193C379.716 101.494 375.69 102.9 370.377 102.9V108.9C376.798 108.9 382.305 107.173 386.626 103.481L382.728 98.9193ZM370.377 102.9C367.661 102.9 365.204 102.354 362.965 101.29L360.39 106.71C363.484 108.179 366.827 108.9 370.377 108.9V102.9ZM363.046 101.331C360.753 100.155 358.73 98.6303 356.966 96.7482L352.589 100.852C354.824 103.236 357.401 105.179 360.308 106.669L363.046 101.331ZM352.205 97.2565L351.905 97.7565L357.05 100.843L357.35 100.343L352.205 97.2565ZM352.02 101.02C352.684 101.97 353.587 102.888 354.625 103.778L358.53 99.2222C357.701 98.5118 357.204 97.9638 356.935 97.5796L352.02 101.02ZM353.577 101.5V119.1H359.577V101.5H353.577ZM353.577 119.1C353.577 120.668 353.11 121.388 352.543 121.826C351.829 122.377 350.408 122.9 347.777 122.9V128.9C351.014 128.9 353.992 128.289 356.212 126.574C358.578 124.745 359.577 122.066 359.577 119.1H353.577ZM350.777 125.9V61.2H344.777V125.9H350.777ZM369.077 101.2C373.417 101.2 377.228 100.246 380.134 97.9565L376.421 93.2435C374.927 94.4203 372.604 95.2 369.077 95.2V101.2ZM380.177 97.9219C383.151 95.489 384.577 92.1286 384.577 88.2H378.577C378.577 90.5381 377.804 92.111 376.378 93.2781L380.177 97.9219ZM384.577 88.2V71.9H378.577V88.2H384.577ZM384.577 71.9C384.577 67.886 383.181 64.4442 380.134 62.0435L376.421 66.7565C377.774 67.8224 378.577 69.3806 378.577 71.9H384.577ZM380.134 62.0435C377.22 59.7476 373.37 58.8 368.977 58.8V64.8C372.585 64.8 374.935 65.5857 376.421 66.7565L380.134 62.0435ZM368.977 58.8C364.89 58.8 361.245 59.8914 358.236 62.2319L361.919 66.9681C363.71 65.5752 365.998 64.8 368.977 64.8V58.8ZM358.277 62.2C355.207 64.5027 353.477 67.6208 353.477 71.4H359.477C359.477 69.7125 360.148 68.2973 361.877 67L358.277 62.2ZM353.477 71.4V88.7H359.477V71.4H353.477ZM353.477 88.7C353.477 92.3611 355.091 95.4446 357.97 97.8158L361.784 93.1842C360.13 91.822 359.477 90.3722 359.477 88.7H353.477ZM358.012 97.8493C360.963 100.193 364.761 101.2 369.077 101.2V95.2C365.661 95.2 363.325 94.4069 361.743 93.1507L358.012 97.8493ZM406.748 101.9L404.494 103.879L404.506 103.893L404.519 103.907L406.748 101.9ZM405.248 35.7L406.992 38.1412L407.003 38.1337L407.013 38.1262L405.248 35.7ZM411.848 34.1H414.848V31.1H411.848V34.1ZM413.448 96.5L411.264 98.5561L413.448 96.5ZM425.548 96.4L427.815 94.4352L426.189 92.5588L424.042 93.8056L425.548 96.4ZM424.348 104.1L422.596 101.665L424.348 104.1ZM417.648 102.9C413.316 102.9 410.627 101.725 408.978 99.8931L404.519 103.907C407.67 107.408 412.248 108.9 417.648 108.9V102.9ZM409.003 99.9206C407.179 97.8439 406.148 95.0315 406.148 91.2H400.148C400.148 96.1685 401.518 100.489 404.494 103.879L409.003 99.9206ZM406.148 91.2V40.5H400.148V91.2H406.148ZM406.148 40.5C406.148 38.969 406.596 38.4238 406.992 38.1412L403.505 33.2588C401.1 34.9762 400.148 37.631 400.148 40.5H406.148ZM407.013 38.1262C407.737 37.5994 409.19 37.1 411.848 37.1V31.1C408.641 31.1 405.693 31.6673 403.484 33.2738L407.013 38.1262ZM408.848 34.1V90.9H414.848V34.1H408.848ZM408.848 90.9C408.848 93.7844 409.418 96.5947 411.264 98.5561L415.633 94.4439C415.346 94.1387 414.848 93.2156 414.848 90.9H408.848ZM411.264 98.5561C413.155 100.566 415.926 101.2 418.748 101.2V95.2C416.637 95.2 415.875 94.701 415.633 94.4439L411.264 98.5561ZM418.748 101.2C421.726 101.2 424.515 100.469 427.055 98.9944L424.042 93.8056C422.448 94.7311 420.704 95.2 418.748 95.2V101.2ZM423.281 98.3648C423.671 98.8148 423.848 99.2824 423.848 99.9H429.848C429.848 97.8509 429.159 95.9852 427.815 94.4352L423.281 98.3648ZM423.848 99.9C423.848 100.268 423.725 100.852 422.596 101.665L426.101 106.535C428.305 104.948 429.848 102.732 429.848 99.9H423.848ZM422.596 101.665C421.595 102.385 420.043 102.9 417.648 102.9V108.9C420.853 108.9 423.768 108.215 426.101 106.535L422.596 101.665ZM437.489 101.3L435.501 103.547L435.512 103.556L435.523 103.566L437.489 101.3ZM437.789 77L439.714 79.3012L439.726 79.291L439.738 79.2807L437.789 77ZM468.089 79.1L465.872 81.1213L467.989 83.4428L470.21 81.2213L468.089 79.1ZM468.489 78.7L470.61 80.8213L472.641 78.7902L470.701 76.6728L468.489 78.7ZM465.989 76.2H462.989V77.5082L463.948 78.3984L465.989 76.2ZM438.689 69.6L437.347 72.2833L439.943 73.5812L441.326 71.0299L438.689 69.6ZM435.989 67.5L433.548 69.2437L433.619 69.3439L433.699 69.4378L435.989 67.5ZM437.689 59.6L439.682 61.8422L439.705 61.822L439.727 61.8013L437.689 59.6ZM444.789 55.6L443.84 52.7539L443.831 52.7572L443.821 52.7605L444.789 55.6ZM469.089 58.8L467.119 61.0629L467.13 61.0718L467.14 61.0807L469.089 58.8ZM472.589 104.3L470.715 101.957V101.957L472.589 104.3ZM466.289 105.9H463.289V108.9H466.289V105.9ZM466.289 101.2L464.119 99.1286L463.289 99.998V101.2H466.289ZM468.589 98.6L471.272 99.9416L472.239 98.0076L470.71 96.4787L468.589 98.6ZM468.189 98.2L470.31 96.0787L468.002 93.7705L465.897 96.2648L468.189 98.2ZM462.589 96.4L460.833 93.968L460.816 93.9798L460.8 93.9918L462.589 96.4ZM462.689 81.9L460.857 84.2753L462.689 81.9ZM444.089 81.9L445.981 84.2284L445.989 84.2219L444.089 81.9ZM443.989 96.5L442.061 98.7986L442.101 98.832L442.142 98.8641L443.989 96.5ZM451.389 102.9C446.209 102.9 442.327 101.527 439.455 99.0343L435.523 103.566C439.717 107.206 445.103 108.9 451.389 108.9V102.9ZM439.477 99.053C436.71 96.6053 435.289 93.4183 435.289 89.2H429.289C429.289 94.9817 431.335 99.8613 435.501 103.547L439.477 99.053ZM435.289 89.2C435.289 84.9609 436.774 81.7599 439.714 79.3012L435.864 74.6988C431.471 78.3734 429.289 83.3058 429.289 89.2H435.289ZM439.738 79.2807C442.739 76.7166 446.823 75.3 452.289 75.3V69.3C445.755 69.3 440.173 71.0167 435.84 74.7193L439.738 79.2807ZM452.289 75.3C457.887 75.3 462.335 77.2412 465.872 81.1213L470.306 77.0787C465.577 71.8921 459.491 69.3 452.289 69.3V75.3ZM470.21 81.2213L470.61 80.8213L466.368 76.5787L465.968 76.9787L470.21 81.2213ZM470.701 76.6728C469.904 75.8044 469.013 74.9139 468.03 74.0016L463.948 78.3984C464.832 79.2194 465.607 79.9956 466.278 80.7272L470.701 76.6728ZM468.989 76.2V72H462.989V76.2H468.989ZM468.989 72C468.989 67.9237 467.679 64.3921 464.765 61.8423L460.814 66.3577C462.166 67.5412 462.989 69.2763 462.989 72H468.989ZM464.765 61.8423C461.904 59.3397 458.068 58.3 453.689 58.3V64.3C457.177 64.3 459.407 65.127 460.814 66.3577L464.765 61.8423ZM453.689 58.3C449.794 58.3 446.271 59.0712 443.237 60.7501C440.186 62.4383 437.796 64.9531 436.052 68.1701L441.326 71.0299C442.582 68.7135 444.193 67.0783 446.142 65.9999C448.107 64.9122 450.584 64.3 453.689 64.3V58.3ZM440.031 66.9167C439.309 66.5557 438.737 66.1031 438.279 65.5622L433.699 69.4378C434.708 70.6302 435.936 71.5776 437.347 72.2833L440.031 66.9167ZM438.43 65.7563C438.043 65.2136 437.989 64.877 437.989 64.7H431.989C431.989 66.3897 432.602 67.9198 433.548 69.2437L438.43 65.7563ZM437.989 64.7C437.989 64.0204 438.295 63.0753 439.682 61.8422L435.696 57.3578C433.483 59.3247 431.989 61.7796 431.989 64.7H437.989ZM439.727 61.8013C441.149 60.4845 443.12 59.3385 445.757 58.4395L443.821 52.7605C440.591 53.8615 437.829 55.3821 435.651 57.3987L439.727 61.8013ZM445.738 58.446C448.422 57.5514 451.234 57.1 454.189 57.1V51.1C450.611 51.1 447.156 51.6486 443.84 52.7539L445.738 58.446ZM454.189 57.1C460.039 57.1 464.223 58.5418 467.119 61.0629L471.059 56.5371C466.755 52.7915 461.006 51.1 454.189 51.1V57.1ZM467.14 61.0807C470.038 63.5568 471.589 67.0001 471.589 71.8H477.589C477.589 65.5332 475.474 60.3099 471.038 56.5193L467.14 61.0807ZM471.589 71.8V99.2H477.589V71.8H471.589ZM471.589 99.2C471.589 100.977 471.099 101.65 470.715 101.957L474.463 106.643C476.745 104.817 477.589 102.09 477.589 99.2H471.589ZM470.715 101.957C470.17 102.394 468.897 102.9 466.289 102.9V108.9C469.414 108.9 472.342 108.34 474.463 106.643L470.715 101.957ZM469.289 105.9V101.2H463.289V105.9H469.289ZM468.459 103.271C469.169 102.528 469.741 101.913 470.161 101.438C470.37 101.202 470.561 100.978 470.72 100.778C470.83 100.639 471.084 100.317 471.272 99.9416L465.906 97.2584C465.95 97.1692 465.989 97.1048 466.009 97.0726C466.031 97.0377 466.046 97.0152 466.052 97.0077C466.061 96.9945 466.054 97.0054 466.021 97.0469C465.955 97.13 465.842 97.2649 465.667 97.4623C465.321 97.8538 464.809 98.4056 464.119 99.1286L468.459 103.271ZM470.71 96.4787L470.31 96.0787L466.068 100.321L466.468 100.721L470.71 96.4787ZM465.897 96.2648C462.148 100.706 457.395 102.9 451.389 102.9V108.9C459.117 108.9 465.564 105.961 470.481 100.135L465.897 96.2648ZM452.889 102C457.403 102 461.35 101.058 464.378 98.8082L460.8 93.9918C459.162 95.2088 456.642 96 452.889 96V102ZM464.346 98.832C467.559 96.5112 469.189 93.1892 469.189 89.2H463.189C463.189 91.3442 462.419 92.8221 460.833 93.968L464.346 98.832ZM469.189 89.2C469.189 85.2474 467.625 81.919 464.521 79.5247L460.857 84.2753C462.419 85.4809 463.189 87.0192 463.189 89.2H469.189ZM464.521 79.5247C461.496 77.1906 457.571 76.2 453.089 76.2V82.2C456.741 82.2 459.216 83.0094 460.857 84.2753L464.521 79.5247ZM453.089 76.2C448.831 76.2 445.082 77.2113 442.189 79.5781L445.989 84.2219C447.496 82.9887 449.748 82.2 453.089 82.2V76.2ZM442.197 79.5717C439.259 81.9587 437.889 85.3056 437.889 89.2H443.889C443.889 86.8278 444.652 85.308 445.981 84.2283L442.197 79.5717ZM437.889 89.2C437.889 93.0607 439.201 96.4001 442.061 98.7986L445.917 94.2014C444.643 93.1333 443.889 91.6059 443.889 89.2H437.889ZM442.142 98.8641C444.979 101.081 448.684 102 452.889 102V96C449.494 96 447.266 95.2528 445.836 94.1359L442.142 98.8641ZM495.145 104.4L494.139 107.227L494.168 107.237L494.196 107.246L495.145 104.4ZM487.845 99.9L485.649 101.944L485.667 101.964L485.686 101.984L487.845 99.9ZM490.945 87.9L493.898 87.3726L493.424 84.7218L490.738 84.9071L490.945 87.9ZM495.645 96.2L493.876 98.6234L493.913 98.6502L493.95 98.6759L495.645 96.2ZM514.245 97.1L512.837 94.4507L514.245 97.1ZM516.145 87.9L513.816 89.7918L513.846 89.8288L513.877 89.8648L516.145 87.9ZM511.945 85.2L510.763 87.9574L510.821 87.9825L510.881 88.005L511.945 85.2ZM503.845 82.9L503.18 85.8254L503.207 85.8317L503.235 85.8374L503.845 82.9ZM493.345 79.7L494.543 76.9499L493.345 79.7ZM487.345 75.2L484.903 76.9437L484.924 76.9721L484.945 77L487.345 75.2ZM487.745 60.8L490.117 62.6365L490.131 62.6184L490.145 62.6L487.745 60.8ZM494.345 55.9L495.47 58.6808L495.487 58.6742L495.503 58.6673L494.345 55.9ZM513.445 55.5L512.535 58.3588L512.544 58.3617L512.553 58.3646L513.445 55.5ZM520.645 59.5L518.564 61.661L518.583 61.6798L518.603 61.6984L520.645 59.5ZM521.645 69.2L523.401 71.632L523.444 71.6008L523.486 71.5681L521.645 69.2ZM516.645 70.7L513.651 70.9041L513.854 73.8802L516.832 73.6942L516.645 70.7ZM513.045 63.8L511.153 66.1283L511.192 66.1605L511.233 66.1913L513.045 63.8ZM496.445 63L498.067 65.5235L496.445 63ZM496.245 72.6L494.672 75.155L494.729 75.19L494.788 75.2225L496.245 72.6ZM505.345 75.5L504.703 78.4307L504.73 78.4365L504.756 78.4417L505.345 75.5ZM520.745 81.3L518.937 83.6941L518.964 83.7147L518.992 83.7346L520.745 81.3ZM520.245 102.2L521.919 104.689L521.935 104.679L521.95 104.668L520.245 102.2ZM504.745 102.9C501.643 102.9 498.765 102.445 496.093 101.554L494.196 107.246C497.524 108.355 501.046 108.9 504.745 108.9V102.9ZM496.15 101.573C493.506 100.633 491.493 99.36 490.003 97.8162L485.686 101.984C487.929 104.307 490.783 106.033 494.139 107.227L496.15 101.573ZM490.04 97.8557C488.748 96.4678 488.145 94.928 488.145 93.1H482.145C482.145 96.472 483.341 99.4656 485.649 101.944L490.04 97.8557ZM488.145 93.1C488.145 92.1385 488.409 91.8026 488.597 91.6337C488.874 91.3855 489.57 91.0019 491.151 90.8929L490.738 84.9071C488.452 85.0647 486.248 85.6811 484.592 87.1663C482.847 88.7307 482.145 90.8615 482.145 93.1H488.145ZM487.991 88.4274C488.759 92.7281 490.642 96.2636 493.876 98.6234L497.413 93.7766C495.713 92.5364 494.463 90.5385 493.898 87.3726L487.991 88.4274ZM493.95 98.6759C497.099 100.83 500.931 101.8 505.245 101.8V95.8C501.825 95.8 499.257 95.0368 497.339 93.7241L493.95 98.6759ZM505.245 101.8C509.338 101.8 512.9 101.211 515.652 99.7493L512.837 94.4507C511.322 95.2555 508.885 95.8 505.245 95.8V101.8ZM515.652 99.7493C517.102 98.9793 518.338 97.9222 519.199 96.5223C520.064 95.1168 520.445 93.5388 520.445 91.9H514.445C514.445 92.5945 514.291 93.0499 514.09 93.3777C513.884 93.7111 513.521 94.0874 512.837 94.4507L515.652 99.7493ZM520.445 91.9C520.445 89.7048 519.864 87.6108 518.412 85.9352L513.877 89.8648C514.159 90.1892 514.445 90.7619 514.445 91.9H520.445ZM518.473 86.0082C517.145 84.3744 515.206 83.2284 513.008 82.395L510.881 88.005C512.55 88.6383 513.41 89.2922 513.816 89.7918L518.473 86.0082ZM513.126 82.4426C510.986 81.5253 508.058 80.7105 504.454 79.9626L503.235 85.8374C506.698 86.5562 509.17 87.2747 510.763 87.9574L513.126 82.4426ZM504.509 79.9746C500.199 78.9949 496.901 77.9777 494.543 76.9499L492.146 82.4501C494.988 83.6889 498.69 84.8051 503.18 85.8254L504.509 79.9746ZM494.543 76.9499C492.317 75.9795 490.772 74.7705 489.745 73.4L484.945 77C486.717 79.3628 489.172 81.1538 492.146 82.4501L494.543 76.9499ZM489.786 73.4563C488.92 72.2448 488.345 70.4492 488.345 67.8H482.345C482.345 71.2841 483.102 74.4219 484.903 76.9437L489.786 73.4563ZM488.345 67.8C488.345 65.8686 488.921 64.1805 490.117 62.6365L485.372 58.9635C483.368 61.5528 482.345 64.5314 482.345 67.8H488.345ZM490.145 62.6C491.375 60.9592 493.108 59.6371 495.47 58.6808L493.219 53.1192C489.982 54.4296 487.314 56.3741 485.345 59L490.145 62.6ZM495.503 58.6673C497.949 57.6433 500.78 57.1 504.045 57.1V51.1C500.109 51.1 496.473 51.7567 493.186 53.1327L495.503 58.6673ZM504.045 57.1C507.095 57.1 509.919 57.5265 512.535 58.3588L514.354 52.6412C511.103 51.6069 507.661 51.1 504.045 51.1V57.1ZM512.553 58.3646C515.219 59.194 517.175 60.3241 518.564 61.661L522.725 57.339C520.514 55.2092 517.67 53.6727 514.336 52.6354L512.553 58.3646ZM518.603 61.6984C519.942 62.9417 520.445 64.1752 520.445 65.5H526.445C526.445 62.2915 525.08 59.5249 522.686 57.3016L518.603 61.6984ZM520.445 65.5C520.445 66.1169 520.265 66.4727 519.803 66.8319L523.486 71.5681C525.424 70.0606 526.445 67.9497 526.445 65.5H520.445ZM519.888 66.768C519.309 67.1865 518.263 67.593 516.457 67.7058L516.832 73.6942C519.293 73.5403 521.58 72.9469 523.401 71.632L519.888 66.768ZM519.638 70.4959C519.383 66.761 517.797 63.6369 514.856 61.4087L511.233 66.1913C512.692 67.2965 513.506 68.7723 513.651 70.9041L519.638 70.4959ZM514.936 61.4717C512.088 59.1571 508.325 58.2 504.045 58.2V64.2C507.498 64.2 509.735 64.9763 511.153 66.1283L514.936 61.4717ZM504.045 58.2C500.511 58.2 497.342 58.8565 494.822 60.4765L498.067 65.5235C499.28 64.7435 501.178 64.2 504.045 64.2V58.2ZM494.822 60.4765C492.208 62.1568 490.645 64.6534 490.645 67.8H496.645C496.645 66.9466 496.947 66.2432 498.067 65.5235L494.822 60.4765ZM490.645 67.8C490.645 70.9142 492.001 73.5111 494.672 75.155L497.817 70.045C497.021 69.5556 496.645 68.9525 496.645 67.8H490.645ZM494.788 75.2225C496.996 76.4493 500.397 77.4886 504.703 78.4307L505.986 72.5693C501.759 71.6447 499.093 70.7507 497.701 69.9775L494.788 75.2225ZM504.756 78.4417C511.596 79.8097 516.205 81.6316 518.937 83.6941L522.552 78.9059C518.75 76.0351 513.093 73.9902 505.933 72.5583L504.756 78.4417ZM518.992 83.7346C521.465 85.5157 522.745 87.9997 522.745 91.6H528.745C528.745 86.2669 526.69 81.8843 522.497 78.8654L518.992 83.7346ZM522.745 91.6C522.745 95.1682 521.379 97.7701 518.539 99.7318L521.95 104.668C526.444 101.563 528.745 97.0985 528.745 91.6H522.745ZM518.57 99.7108C515.591 101.715 511.099 102.9 504.745 102.9V108.9C511.723 108.9 517.565 107.618 521.919 104.689L518.57 99.7108ZM542.038 101.9L539.757 103.848L539.768 103.862L539.781 103.876L542.038 101.9ZM538.538 62H541.538V59H538.538V62ZM529.238 62H526.238V65H529.238V62ZM530.738 56.8L528.434 54.8794L530.738 56.8ZM538.638 55V58H541.638V55H538.638ZM540.738 40.7L542.482 43.1412L542.492 43.1337L542.503 43.1262L540.738 40.7ZM547.238 39.1H550.238V36.1H547.238V39.1ZM547.238 55H544.238V58H547.238V55ZM560.538 55H563.538V52H560.538V55ZM547.338 62V59H544.338V62H547.338ZM548.738 96.6L546.422 98.5071L546.484 98.5815L546.55 98.6518L548.738 96.6ZM560.638 96.4L562.76 94.2787L561.128 92.6468L559.132 93.8056L560.638 96.4ZM559.438 104.1L557.685 101.665L559.438 104.1ZM552.638 102.9C548.464 102.9 545.885 101.74 544.296 99.9245L539.781 103.876C542.858 107.393 547.346 108.9 552.638 108.9V102.9ZM544.32 99.9522C542.548 97.8764 541.538 95.0524 541.538 91.2H535.538C535.538 96.1476 536.862 100.457 539.757 103.848L544.32 99.9522ZM541.538 91.2V62H535.538V91.2H541.538ZM538.538 59H529.238V65H538.538V59ZM532.238 62C532.238 60.1263 532.657 59.1841 533.043 58.7206L528.434 54.8794C526.82 56.8159 526.238 59.3403 526.238 62H532.238ZM533.043 58.7206C533.406 58.285 533.885 58 534.838 58V52C532.325 52 530.071 52.915 528.434 54.8794L533.043 58.7206ZM534.838 58H538.638V52H534.838V58ZM541.638 55V45.5H535.638V55H541.638ZM541.638 45.5C541.638 43.969 542.086 43.4238 542.482 43.1412L538.995 38.2588C536.59 39.9762 535.638 42.631 535.638 45.5H541.638ZM542.503 43.1262C543.236 42.5927 544.664 42.1 547.238 42.1V36.1C544.079 36.1 541.174 36.6739 538.974 38.2738L542.503 43.1262ZM544.238 39.1V55H550.238V39.1H544.238ZM547.238 58H560.538V52H547.238V58ZM557.538 55C557.538 56.9444 557.094 57.8425 556.733 58.2431C556.427 58.5836 555.789 59 554.238 59V65C556.887 65 559.4 64.2497 561.193 62.2569C562.933 60.3242 563.538 57.7223 563.538 55H557.538ZM554.238 59H547.338V65H554.238V59ZM544.338 62V90.9H550.338V62H544.338ZM544.338 90.9C544.338 93.7594 544.808 96.5464 546.422 98.5071L551.054 94.6929C550.802 94.3869 550.338 93.3739 550.338 90.9H544.338ZM546.55 98.6518C548.415 100.641 551.246 101.2 554.038 101.2V95.2C551.764 95.2 551.062 94.692 550.927 94.5482L546.55 98.6518ZM554.038 101.2C556.914 101.2 559.632 100.453 562.145 98.9944L559.132 93.8056C557.511 94.7467 555.829 95.2 554.038 95.2V101.2ZM558.517 98.5213C558.713 98.717 558.938 99.0614 558.938 99.9H564.938C564.938 97.8053 564.297 95.8163 562.76 94.2787L558.517 98.5213ZM558.938 99.9C558.938 100.268 558.815 100.852 557.685 101.665L561.191 106.535C563.395 104.948 564.938 102.732 564.938 99.9H558.938ZM557.685 101.665C556.696 102.378 555.118 102.9 552.638 102.9V108.9C555.892 108.9 558.847 108.222 561.191 106.535L557.685 101.665ZM574.384 44.8L576.448 42.6221V42.6221L574.384 44.8ZM574.384 35.9L576.385 38.1357L576.417 38.1072L576.448 38.0779L574.384 35.9ZM583.684 35.9L581.621 38.0779L581.652 38.1072L581.684 38.1357L583.684 35.9ZM583.684 44.8L581.621 42.6221L583.684 44.8ZM576.784 55.7L578.528 58.1412L578.539 58.1337L578.549 58.1262L576.784 55.7ZM583.384 54.1H586.384V51.1H583.384V54.1ZM581.184 104.4L582.928 106.841L582.939 106.834L582.949 106.826L581.184 104.4ZM574.684 105.9H571.684V108.9H574.684V105.9ZM579.084 43.6C577.926 43.6 577.116 43.2551 576.448 42.6221L572.321 46.9779C574.186 48.7449 576.509 49.6 579.084 49.6V43.6ZM576.448 42.6221C575.8 42.0086 575.484 41.3056 575.484 40.3H569.484C569.484 42.8944 570.435 45.1914 572.321 46.9779L576.448 42.6221ZM575.484 40.3C575.484 39.2965 575.795 38.663 576.385 38.1357L572.384 33.6643C570.44 35.4036 569.484 37.7035 569.484 40.3H575.484ZM576.448 38.0779C577.116 37.4449 577.926 37.1 579.084 37.1V31.1C576.509 31.1 574.186 31.9551 572.321 33.7221L576.448 38.0779ZM579.084 37.1C580.144 37.1 580.931 37.424 581.621 38.0779L585.748 33.7221C583.904 31.976 581.625 31.1 579.084 31.1V37.1ZM581.684 38.1357C582.273 38.663 582.584 39.2965 582.584 40.3H588.584C588.584 37.7035 587.629 35.4036 585.685 33.6643L581.684 38.1357ZM582.584 40.3C582.584 41.3056 582.269 42.0086 581.621 42.6221L585.748 46.9779C587.633 45.1914 588.584 42.8944 588.584 40.3H582.584ZM581.621 42.6221C580.931 43.276 580.144 43.6 579.084 43.6V49.6C581.625 49.6 583.904 48.724 585.748 46.9779L581.621 42.6221ZM577.684 60.5C577.684 58.969 578.132 58.4238 578.528 58.1412L575.041 53.2588C572.636 54.9762 571.684 57.631 571.684 60.5H577.684ZM578.549 58.1262C579.273 57.5994 580.725 57.1 583.384 57.1V51.1C580.177 51.1 577.229 51.6673 575.02 53.2738L578.549 58.1262ZM580.384 54.1V99.5H586.384V54.1H580.384ZM580.384 99.5C580.384 100.971 579.941 101.595 579.42 101.974L582.949 106.826C585.361 105.072 586.384 102.429 586.384 99.5H580.384ZM579.441 101.959C578.797 102.419 577.388 102.9 574.684 102.9V108.9C577.848 108.9 580.772 108.381 582.928 106.841L579.441 101.959ZM577.684 105.9V60.5H571.684V105.9H577.684ZM602.333 101.3L600.345 103.547L600.356 103.556L600.366 103.566L602.333 101.3ZM602.633 77L604.557 79.3012L604.57 79.291L604.582 79.2807L602.633 77ZM632.933 79.1L630.716 81.1213L632.833 83.4428L635.054 81.2213L632.933 79.1ZM633.333 78.7L635.454 80.8213L637.485 78.7902L635.544 76.6728L633.333 78.7ZM630.833 76.2H627.833V77.5082L628.791 78.3984L630.833 76.2ZM603.533 69.6L602.191 72.2833L604.787 73.5812L606.17 71.0299L603.533 69.6ZM600.833 67.5L598.392 69.2437L598.463 69.3439L598.543 69.4378L600.833 67.5ZM602.533 59.6L604.526 61.8422L604.549 61.822L604.571 61.8013L602.533 59.6ZM609.633 55.6L608.684 52.7539L608.674 52.7572L608.665 52.7605L609.633 55.6ZM633.933 58.8L631.963 61.0629L631.974 61.0718L631.984 61.0807L633.933 58.8ZM637.433 104.3L635.559 101.957V101.957L637.433 104.3ZM631.133 105.9H628.133V108.9H631.133V105.9ZM631.133 101.2L628.963 99.1286L628.133 99.998V101.2H631.133ZM633.433 98.6L636.116 99.9416L637.083 98.0076L635.554 96.4787L633.433 98.6ZM633.033 98.2L635.154 96.0787L632.846 93.7705L630.74 96.2648L633.033 98.2ZM627.433 96.4L625.676 93.968L625.66 93.9798L625.644 93.9918L627.433 96.4ZM627.533 81.9L625.7 84.2753L627.533 81.9ZM608.933 81.9L610.825 84.2284L610.833 84.2219L608.933 81.9ZM608.833 96.5L606.905 98.7986L606.945 98.832L606.986 98.8641L608.833 96.5ZM616.233 102.9C611.052 102.9 607.171 101.527 604.299 99.0343L600.366 103.566C604.561 107.206 609.947 108.9 616.233 108.9V102.9ZM604.321 99.053C601.554 96.6053 600.133 93.4183 600.133 89.2H594.133C594.133 94.9817 596.179 99.8613 600.345 103.547L604.321 99.053ZM600.133 89.2C600.133 84.9609 601.618 81.7599 604.557 79.3012L600.708 74.6988C596.315 78.3734 594.133 83.3058 594.133 89.2H600.133ZM604.582 79.2807C607.582 76.7166 611.667 75.3 617.133 75.3V69.3C610.599 69.3 605.017 71.0167 600.684 74.7193L604.582 79.2807ZM617.133 75.3C622.73 75.3 627.178 77.2412 630.716 81.1213L635.15 77.0787C630.421 71.8921 624.335 69.3 617.133 69.3V75.3ZM635.054 81.2213L635.454 80.8213L631.211 76.5787L630.811 76.9787L635.054 81.2213ZM635.544 76.6728C634.748 75.8044 633.857 74.9139 632.874 74.0016L628.791 78.3984C629.676 79.2194 630.451 79.9956 631.121 80.7272L635.544 76.6728ZM633.833 76.2V72H627.833V76.2H633.833ZM633.833 72C633.833 67.9237 632.522 64.3921 629.608 61.8423L625.657 66.3577C627.01 67.5412 627.833 69.2763 627.833 72H633.833ZM629.608 61.8423C626.748 59.3397 622.912 58.3 618.533 58.3V64.3C622.021 64.3 624.251 65.127 625.657 66.3577L629.608 61.8423ZM618.533 58.3C614.638 58.3 611.115 59.0712 608.08 60.7501C605.029 62.4383 602.64 64.9531 600.896 68.1701L606.17 71.0299C607.426 68.7135 609.036 67.0783 610.985 65.9999C612.951 64.9122 615.428 64.3 618.533 64.3V58.3ZM604.874 66.9167C604.153 66.5557 603.581 66.1031 603.123 65.5622L598.543 69.4378C599.552 70.6302 600.78 71.5776 602.191 72.2833L604.874 66.9167ZM603.274 65.7563C602.886 65.2136 602.833 64.877 602.833 64.7H596.833C596.833 66.3897 597.446 67.9198 598.392 69.2437L603.274 65.7563ZM602.833 64.7C602.833 64.0204 603.139 63.0753 604.526 61.8422L600.54 57.3578C598.327 59.3247 596.833 61.7796 596.833 64.7H602.833ZM604.571 61.8013C605.993 60.4845 607.964 59.3385 610.601 58.4395L608.665 52.7605C605.435 53.8615 602.672 55.3821 600.495 57.3987L604.571 61.8013ZM610.581 58.446C613.266 57.5514 616.078 57.1 619.033 57.1V51.1C615.454 51.1 612 51.6486 608.684 52.7539L610.581 58.446ZM619.033 57.1C624.882 57.1 629.067 58.5418 631.963 61.0629L635.902 56.5371C631.599 52.7915 625.85 51.1 619.033 51.1V57.1ZM631.984 61.0807C634.881 63.5568 636.433 67.0001 636.433 71.8H642.433C642.433 65.5332 640.318 60.3099 635.882 56.5193L631.984 61.0807ZM636.433 71.8V99.2H642.433V71.8H636.433ZM636.433 99.2C636.433 100.977 635.943 101.65 635.559 101.957L639.307 106.643C641.589 104.817 642.433 102.09 642.433 99.2H636.433ZM635.559 101.957C635.013 102.394 633.741 102.9 631.133 102.9V108.9C634.258 108.9 637.186 108.34 639.307 106.643L635.559 101.957ZM634.133 105.9V101.2H628.133V105.9H634.133ZM633.303 103.271C634.013 102.528 634.585 101.913 635.005 101.438C635.214 101.202 635.404 100.978 635.563 100.778C635.674 100.639 635.928 100.317 636.116 99.9416L630.75 97.2584C630.794 97.1692 630.833 97.1048 630.853 97.0726C630.875 97.0377 630.89 97.0152 630.895 97.0077C630.905 96.9945 630.898 97.0054 630.865 97.0469C630.799 97.13 630.685 97.2649 630.511 97.4623C630.164 97.8538 629.653 98.4056 628.963 99.1286L633.303 103.271ZM635.554 96.4787L635.154 96.0787L630.911 100.321L631.312 100.721L635.554 96.4787ZM630.74 96.2648C626.991 100.706 622.238 102.9 616.233 102.9V108.9C623.961 108.9 630.407 105.961 635.325 100.135L630.74 96.2648ZM617.733 102C622.247 102 626.193 101.058 629.222 98.8082L625.644 93.9918C624.005 95.2088 621.485 96 617.733 96V102ZM629.189 98.832C632.403 96.5112 634.033 93.1892 634.033 89.2H628.033C628.033 91.3442 627.263 92.8221 625.676 93.968L629.189 98.832ZM634.033 89.2C634.033 85.2474 632.469 81.919 629.365 79.5247L625.7 84.2753C627.263 85.4809 628.033 87.0192 628.033 89.2H634.033ZM629.365 79.5247C626.34 77.1906 622.415 76.2 617.933 76.2V82.2C621.584 82.2 624.059 83.0094 625.7 84.2753L629.365 79.5247ZM617.933 76.2C613.674 76.2 609.926 77.2113 607.033 79.5781L610.833 84.2219C612.34 82.9887 614.591 82.2 617.933 82.2V76.2ZM607.041 79.5717C604.103 81.9587 602.733 85.3056 602.733 89.2H608.733C608.733 86.8278 609.496 85.308 610.825 84.2283L607.041 79.5717ZM602.733 89.2C602.733 93.0607 604.045 96.4001 606.905 98.7986L610.761 94.2014C609.487 93.1333 608.733 91.6059 608.733 89.2H602.733ZM606.986 98.8641C609.823 101.081 613.528 102 617.733 102V96C614.337 96 612.109 95.2528 610.68 94.1359L606.986 98.8641Z" fill="white" fill-opacity="0.89" mask="url(#path-2-outside-1_9_2)"/>
<path d="M238.55 168.45C236.85 168.45 235.25 168.2 233.75 167.7C232.25 167.167 231.033 166.417 230.1 165.45C229.2 164.483 228.75 163.35 228.75 162.05C228.75 160.45 229.717 159.583 231.65 159.45C231.983 161.317 232.767 162.7 234 163.6C235.267 164.467 236.867 164.9 238.8 164.9C240.733 164.9 242.233 164.617 243.3 164.05C244.367 163.483 244.9 162.617 244.9 161.45C244.9 160.617 244.683 159.95 244.25 159.45C243.817 158.917 243.117 158.467 242.15 158.1C241.217 157.7 239.867 157.317 238.1 156.95C235.9 156.45 234.15 155.917 232.85 155.35C231.55 154.783 230.55 154.033 229.85 153.1C229.183 152.167 228.85 150.933 228.85 149.4C228.85 148.1 229.25 146.933 230.05 145.9C230.85 144.833 231.95 144.017 233.35 143.45C234.783 142.85 236.4 142.55 238.2 142.55C239.867 142.55 241.433 142.783 242.9 143.25C244.4 143.717 245.6 144.383 246.5 145.25C247.433 146.117 247.9 147.117 247.9 148.25C247.9 149.017 247.6 149.633 247 150.1C246.4 150.533 245.567 150.783 244.5 150.85C244.4 149.383 243.8 148.233 242.7 147.4C241.633 146.533 240.133 146.1 238.2 146.1C236.6 146.1 235.333 146.4 234.4 147C233.467 147.6 233 148.4 233 149.4C233 150.467 233.433 151.267 234.3 151.8C235.2 152.3 236.717 152.783 238.85 153.25C242.35 153.95 244.917 154.917 246.55 156.15C248.217 157.35 249.05 159.067 249.05 161.3C249.05 163.567 248.133 165.333 246.3 166.6C244.467 167.833 241.883 168.45 238.55 168.45ZM264.843 168.45C262.81 168.45 260.993 168.067 259.393 167.3C257.793 166.5 256.543 165.417 255.643 164.05C254.743 162.65 254.293 161.083 254.293 159.35V151.95C254.293 150.183 254.76 148.583 255.693 147.15C256.66 145.717 257.943 144.6 259.543 143.8C261.176 142.967 262.943 142.55 264.843 142.55C266.743 142.55 268.476 142.95 270.043 143.75C271.643 144.55 272.893 145.65 273.793 147.05C274.726 148.45 275.193 150.033 275.193 151.8V155C275.193 155.533 274.993 155.983 274.593 156.35C274.193 156.717 273.71 156.9 273.143 156.9H258.543V159.15C258.543 160.85 259.076 162.217 260.143 163.25C261.243 164.283 262.81 164.8 264.843 164.8C266.876 164.8 268.426 164.35 269.493 163.45C270.56 162.55 271.093 161.333 271.093 159.8C272.093 159.733 272.926 159.933 273.593 160.4C274.293 160.833 274.643 161.483 274.643 162.35C274.643 163.417 274.176 164.417 273.243 165.35C272.343 166.283 271.143 167.033 269.643 167.6C268.143 168.167 266.543 168.45 264.843 168.45ZM271.143 153.5V151.8C271.143 150.133 270.56 148.783 269.393 147.75C268.26 146.683 266.743 146.15 264.843 146.15C262.943 146.15 261.41 146.683 260.243 147.75C259.11 148.783 258.543 150.133 258.543 151.8V153.5H271.143ZM280.965 146.25C280.965 143.783 282.348 142.55 285.115 142.55V145.75C284.682 146.217 284.332 146.667 284.065 147.1L284.265 147.3C285.332 145.8 286.465 144.633 287.665 143.8C288.865 142.967 290.248 142.55 291.815 142.55C294.848 142.55 296.932 144 298.065 146.9C299.965 144 302.498 142.55 305.665 142.55C308.032 142.55 309.848 143.35 311.115 144.95C312.415 146.517 313.065 148.583 313.065 151.15V165.25C313.065 166.35 312.698 167.167 311.965 167.7C311.265 168.2 310.198 168.45 308.765 168.45V151.4C308.765 149.8 308.432 148.55 307.765 147.65C307.098 146.75 306.048 146.3 304.615 146.3C303.115 146.3 301.832 146.817 300.765 147.85C299.698 148.85 299.165 150.2 299.165 151.9V165.25C299.165 166.35 298.815 167.167 298.115 167.7C297.415 168.2 296.348 168.45 294.915 168.45V151.4C294.915 149.8 294.582 148.55 293.915 147.65C293.248 146.75 292.198 146.3 290.765 146.3C289.232 146.3 287.932 146.85 286.865 147.95C285.798 149.05 285.265 150.4 285.265 152V165.25C285.265 166.35 284.898 167.167 284.165 167.7C283.465 168.2 282.398 168.45 280.965 168.45V146.25ZM342.479 168.45C340.445 168.45 338.629 168.083 337.029 167.35C335.429 166.617 334.179 165.583 333.279 164.25C332.412 162.917 331.979 161.4 331.979 159.7V151.6C331.979 149.833 332.412 148.267 333.279 146.9C334.179 145.533 335.412 144.467 336.979 143.7C338.545 142.933 340.345 142.55 342.379 142.55C344.279 142.55 345.962 142.833 347.429 143.4C348.929 143.933 350.095 144.7 350.929 145.7C351.762 146.7 352.179 147.833 352.179 149.1C352.179 149.933 351.845 150.617 351.179 151.15C350.545 151.65 349.712 151.867 348.679 151.8C348.679 150.2 348.095 148.9 346.929 147.9C345.795 146.9 344.312 146.4 342.479 146.4C340.645 146.4 339.162 146.9 338.029 147.9C336.895 148.867 336.329 150.133 336.329 151.7V159.5C336.329 161 336.912 162.233 338.079 163.2C339.245 164.133 340.745 164.6 342.579 164.6C344.412 164.6 345.895 164.1 347.029 163.1C348.195 162.1 348.779 160.817 348.779 159.25C349.845 159.183 350.695 159.4 351.329 159.9C351.995 160.367 352.329 161.033 352.329 161.9C352.329 163.167 351.912 164.3 351.079 165.3C350.245 166.3 349.079 167.083 347.579 167.65C346.079 168.183 344.379 168.45 342.479 168.45ZM366.295 168.45C364.262 168.45 362.412 168.067 360.745 167.3C359.112 166.533 357.828 165.5 356.895 164.2C355.995 162.867 355.545 161.383 355.545 159.75V151.55C355.545 149.883 355.995 148.367 356.895 147C357.828 145.633 359.112 144.55 360.745 143.75C362.378 142.95 364.228 142.55 366.295 142.55C368.362 142.55 370.212 142.95 371.845 143.75C373.512 144.55 374.795 145.633 375.695 147C376.628 148.367 377.095 149.883 377.095 151.55V159.75C377.095 161.383 376.628 162.867 375.695 164.2C374.762 165.5 373.478 166.533 371.845 167.3C370.212 168.067 368.362 168.45 366.295 168.45ZM366.295 164.7C368.295 164.7 369.878 164.233 371.045 163.3C372.245 162.333 372.845 161.083 372.845 159.55V151.7C372.845 150.1 372.245 148.8 371.045 147.8C369.878 146.8 368.295 146.3 366.295 146.3C364.328 146.3 362.745 146.8 361.545 147.8C360.345 148.8 359.745 150.1 359.745 151.7V159.55C359.745 161.083 360.328 162.333 361.495 163.3C362.695 164.233 364.295 164.7 366.295 164.7ZM393.719 146.4C391.852 146.4 390.302 146.967 389.069 148.1C387.836 149.2 387.219 150.55 387.219 152.15V165.25C387.219 166.35 386.852 167.167 386.119 167.7C385.419 168.2 384.336 168.45 382.869 168.45V146.25C382.869 143.783 384.269 142.55 387.069 142.55V145.6C386.536 146.167 386.169 146.667 385.969 147.1L386.169 147.3C388.302 144.133 390.969 142.55 394.169 142.55C395.369 142.55 396.286 142.85 396.919 143.45C397.552 144.017 397.869 144.717 397.869 145.55C397.869 146.15 397.719 146.683 397.419 147.15C396.486 146.65 395.252 146.4 393.719 146.4ZM411.813 168.45C409.447 168.45 407.68 167.783 406.513 166.45C405.347 165.083 404.763 163.3 404.763 161.1V146.5H400.113C400.113 145.367 400.363 144.5 400.863 143.9C401.363 143.3 402.047 143 402.913 143H404.813V138.25C404.813 137.15 405.163 136.35 405.863 135.85C406.597 135.317 407.68 135.05 409.113 135.05V143H415.763C415.763 145.333 414.713 146.5 412.613 146.5H409.163V160.95C409.163 162.283 409.397 163.233 409.863 163.8C410.363 164.333 411.247 164.6 412.513 164.6C413.68 164.6 414.78 164.3 415.813 163.7C416.247 164.133 416.463 164.717 416.463 165.45C416.463 166.25 416.047 166.95 415.213 167.55C414.38 168.15 413.247 168.45 411.813 168.45ZM431.786 168.45C429.753 168.45 427.936 168.067 426.336 167.3C424.736 166.5 423.486 165.417 422.586 164.05C421.686 162.65 421.236 161.083 421.236 159.35V151.95C421.236 150.183 421.703 148.583 422.636 147.15C423.603 145.717 424.886 144.6 426.486 143.8C428.12 142.967 429.886 142.55 431.786 142.55C433.686 142.55 435.42 142.95 436.986 143.75C438.586 144.55 439.836 145.65 440.736 147.05C441.67 148.45 442.136 150.033 442.136 151.8V155C442.136 155.533 441.936 155.983 441.536 156.35C441.136 156.717 440.653 156.9 440.086 156.9H425.486V159.15C425.486 160.85 426.02 162.217 427.086 163.25C428.186 164.283 429.753 164.8 431.786 164.8C433.82 164.8 435.37 164.35 436.436 163.45C437.503 162.55 438.036 161.333 438.036 159.8C439.036 159.733 439.87 159.933 440.536 160.4C441.236 160.833 441.586 161.483 441.586 162.35C441.586 163.417 441.12 164.417 440.186 165.35C439.286 166.283 438.086 167.033 436.586 167.6C435.086 168.167 433.486 168.45 431.786 168.45ZM438.086 153.5V151.8C438.086 150.133 437.503 148.783 436.336 147.75C435.203 146.683 433.686 146.15 431.786 146.15C429.886 146.15 428.353 146.683 427.186 147.75C426.053 148.783 425.486 150.133 425.486 151.8V153.5H438.086Z" fill="#5BFFFF" fill-opacity="0.56"/>
</svg>
