<svg width="696" height="181" viewBox="0 0 696 181" fill="none" xmlns="http://www.w3.org/2000/svg">
<path d="M0 0H696V98C696 143.84 658.84 181 613 181H0V0Z" fill="black" fill-opacity="0.35"/>
<mask id="path-2-outside-1_9_2" maskUnits="userSpaceOnUse" x="140" y="28" width="409" height="125" fill="black">
<rect fill="white" x="140" y="28" width="409" height="125"/>
<path d="M151.776 148C149.562 148 147.681 147.281 146.132 145.842C144.582 144.403 143.808 142.688 143.808 140.696V39.104C143.808 37.0013 144.582 35.286 146.132 33.958C147.681 32.5193 149.562 31.8 151.776 31.8H197.924C207.552 31.8 215.188 34.6773 220.832 40.432C226.586 46.1867 229.464 53.9333 229.464 63.672C229.464 68.8733 228.08 73.7427 225.314 78.28C222.547 82.8173 218.95 86.1927 214.524 88.406V88.738C220.832 90.6193 225.701 93.884 229.132 98.532C232.562 103.069 234.278 108.603 234.278 115.132C234.278 121.551 232.894 127.25 230.128 132.23C227.472 137.21 223.709 141.083 218.84 143.85C213.97 146.617 208.382 148 202.074 148H151.776ZM197.592 83.094C202.129 83.094 206.002 81.268 209.212 77.616C212.532 73.8533 214.192 69.316 214.192 64.004C214.192 58.1387 212.698 53.546 209.71 50.226C206.832 46.906 202.793 45.246 197.592 45.246H159.246V83.094H197.592ZM200.912 134.554C206.556 134.554 210.982 132.894 214.192 129.574C217.401 126.143 219.006 121.385 219.006 115.298C219.006 109.433 217.401 104.84 214.192 101.52C211.093 98.2 206.666 96.54 200.912 96.54H159.246V134.554H200.912ZM280.719 149.494C273.968 149.494 267.826 148.221 262.293 145.676C256.87 143.131 252.609 139.7 249.511 135.384C246.523 130.957 245.029 126.033 245.029 120.61V93.386C245.029 87.8527 246.523 82.8173 249.511 78.28C252.609 73.7427 256.87 70.146 262.293 67.49C267.715 64.834 273.857 63.506 280.719 63.506C287.58 63.506 293.722 64.834 299.145 67.49C304.678 70.146 308.939 73.7427 311.927 78.28C315.025 82.8173 316.575 87.8527 316.575 93.386V120.61C316.575 126.033 315.025 130.957 311.927 135.384C308.828 139.7 304.567 143.131 299.145 145.676C293.722 148.221 287.58 149.494 280.719 149.494ZM280.719 137.044C287.359 137.044 292.615 135.495 296.489 132.396C300.473 129.187 302.465 125.037 302.465 119.946V93.884C302.465 88.572 300.473 84.256 296.489 80.936C292.615 77.616 287.359 75.956 280.719 75.956C274.189 75.956 268.933 77.616 264.949 80.936C260.965 84.256 258.973 88.572 258.973 93.884V119.946C258.973 125.037 260.909 129.187 264.783 132.396C268.767 135.495 274.079 137.044 280.719 137.044ZM364.564 149.494C356.707 149.494 350.841 147.281 346.968 142.854C343.095 138.317 341.158 132.396 341.158 125.092V76.62H325.72C325.72 72.8573 326.55 69.98 328.21 67.988C329.87 65.996 332.139 65 335.016 65H341.324V49.23C341.324 45.578 342.486 42.922 344.81 41.262C347.245 39.4913 350.841 38.606 355.6 38.606V65H377.678C377.678 72.7467 374.192 76.62 367.22 76.62H355.766V124.594C355.766 129.021 356.541 132.175 358.09 134.056C359.75 135.827 362.683 136.712 366.888 136.712C370.761 136.712 374.413 135.716 377.844 133.724C379.283 135.163 380.002 137.099 380.002 139.534C380.002 142.19 378.619 144.514 375.852 146.506C373.085 148.498 369.323 149.494 364.564 149.494ZM424.834 149.494C418.083 149.494 411.941 148.221 406.408 145.676C400.985 143.131 396.724 139.7 393.626 135.384C390.638 130.957 389.144 126.033 389.144 120.61V93.386C389.144 87.8527 390.638 82.8173 393.626 78.28C396.724 73.7427 400.985 70.146 406.408 67.49C411.83 64.834 417.972 63.506 424.834 63.506C431.695 63.506 437.837 64.834 443.26 67.49C448.793 70.146 453.054 73.7427 456.042 78.28C459.14 82.8173 460.69 87.8527 460.69 93.386V120.61C460.69 126.033 459.14 130.957 456.042 135.384C452.943 139.7 448.682 143.131 443.26 145.676C437.837 148.221 431.695 149.494 424.834 149.494ZM424.834 137.044C431.474 137.044 436.73 135.495 440.604 132.396C444.588 129.187 446.58 125.037 446.58 119.946V93.884C446.58 88.572 444.588 84.256 440.604 80.936C436.73 77.616 431.474 75.956 424.834 75.956C418.304 75.956 413.048 77.616 409.064 80.936C405.08 84.256 403.088 88.572 403.088 93.884V119.946C403.088 125.037 405.024 129.187 408.898 132.396C412.882 135.495 418.194 137.044 424.834 137.044ZM475.43 149.494C473.991 149.494 472.442 149.217 470.782 148.664C469.122 148.221 467.739 147.447 466.632 146.34L497.176 104.342L470.118 65.996C471.003 65.2213 472.221 64.6127 473.77 64.17C475.43 63.7273 476.924 63.506 478.252 63.506C482.457 63.506 485.556 65 487.548 67.988L504.812 93.718L501.658 98.2L502.488 98.864L523.57 67.988C524.566 66.5493 525.894 65.4427 527.554 64.668C529.325 63.8933 531.206 63.506 533.198 63.506C534.526 63.506 535.965 63.7273 537.514 64.17C539.063 64.6127 540.281 65.2213 541.166 65.996L513.942 104.342L544.32 146.34C543.324 147.447 542.051 148.221 540.502 148.664C539.063 149.217 537.68 149.494 536.352 149.494C534.581 149.494 532.811 149.107 531.04 148.332C529.269 147.668 527.997 146.727 527.222 145.51L505.476 113.804L483.896 145.51C483.011 146.838 481.793 147.834 480.244 148.498C478.695 149.162 477.09 149.494 475.43 149.494Z"/>
</mask>
<path d="M146.132 145.842L148.173 143.644L148.173 143.644L146.132 145.842ZM146.132 33.958L148.084 36.2358L148.129 36.197L148.173 36.1564L146.132 33.958ZM220.832 40.432L218.69 42.5326L218.7 42.543L218.71 42.5533L220.832 40.432ZM225.314 78.28L227.875 79.8418L227.875 79.8418L225.314 78.28ZM214.524 88.406L213.182 85.7227L211.524 86.5519V88.406H214.524ZM214.524 88.738H211.524V90.9738L213.666 91.6129L214.524 88.738ZM229.132 98.532L226.718 100.314L226.728 100.327L226.739 100.341L229.132 98.532ZM230.128 132.23L227.505 130.773L227.493 130.796L227.48 130.818L230.128 132.23ZM218.84 143.85L217.357 141.242L217.357 141.242L218.84 143.85ZM209.212 77.616L206.962 75.6311L206.958 75.6357L209.212 77.616ZM209.71 50.226L207.442 52.1908L207.461 52.212L207.48 52.2329L209.71 50.226ZM159.246 45.246V42.246H156.246V45.246H159.246ZM159.246 83.094H156.246V86.094H159.246V83.094ZM214.192 129.574L216.348 131.659L216.366 131.641L216.382 131.623L214.192 129.574ZM214.192 101.52L211.998 103.567L212.016 103.586L212.035 103.605L214.192 101.52ZM159.246 96.54V93.54H156.246V96.54H159.246ZM159.246 134.554H156.246V137.554H159.246V134.554ZM151.776 145C150.28 145 149.139 144.541 148.173 143.644L144.09 148.04C146.222 150.02 148.844 151 151.776 151V145ZM148.173 143.644C147.193 142.733 146.808 141.798 146.808 140.696H140.808C140.808 143.578 141.972 146.073 144.09 148.04L148.173 143.644ZM146.808 140.696V39.104H140.808V140.696H146.808ZM146.808 39.104C146.808 37.8465 147.222 36.9742 148.084 36.2358L144.179 31.6802C141.942 33.5978 140.808 36.1561 140.808 39.104H146.808ZM148.173 36.1564C149.139 35.2589 150.28 34.8 151.776 34.8V28.8C148.844 28.8 146.222 29.7797 144.09 31.7596L148.173 36.1564ZM151.776 34.8H197.924V28.8H151.776V34.8ZM197.924 34.8C206.914 34.8 213.718 37.4633 218.69 42.5326L222.973 38.3314C216.657 31.8914 208.189 28.8 197.924 28.8V34.8ZM218.71 42.5533C223.794 47.637 226.464 54.5614 226.464 63.672H232.464C232.464 53.3053 229.378 44.7363 222.953 38.3107L218.71 42.5533ZM226.464 63.672C226.464 68.3099 225.238 72.6405 222.752 76.7182L227.875 79.8418C230.922 74.8448 232.464 69.4368 232.464 63.672H226.464ZM222.752 76.7182C220.256 80.8116 217.067 83.78 213.182 85.7227L215.865 91.0893C220.833 88.6054 224.838 84.8231 227.875 79.8418L222.752 76.7182ZM211.524 88.406V88.738H217.524V88.406H211.524ZM213.666 91.6129C219.441 93.3353 223.726 96.2606 226.718 100.314L231.545 96.7504C227.675 91.5074 222.222 87.9034 215.381 85.8631L213.666 91.6129ZM226.739 100.341C229.719 104.283 231.278 109.155 231.278 115.132H237.278C237.278 108.05 235.406 101.856 231.524 96.7227L226.739 100.341ZM231.278 115.132C231.278 121.107 229.994 126.293 227.505 130.773L232.75 133.687C235.794 128.207 237.278 121.995 237.278 115.132H231.278ZM227.48 130.818C225.089 135.301 221.729 138.758 217.357 141.242L220.322 146.458C225.689 143.409 229.854 139.119 232.775 133.642L227.48 130.818ZM217.357 141.242C212.995 143.72 207.929 145 202.074 145V151C208.834 151 214.946 149.513 220.322 146.458L217.357 141.242ZM202.074 145H151.776V151H202.074V145ZM197.592 86.094C203.059 86.094 207.732 83.8441 211.465 79.5963L206.958 75.6357C204.272 78.6919 201.199 80.094 197.592 80.094V86.094ZM211.461 79.6009C215.295 75.2561 217.192 70.0003 217.192 64.004H211.192C211.192 68.6317 209.768 72.4506 206.962 75.6311L211.461 79.6009ZM217.192 64.004C217.192 57.6348 215.562 52.244 211.939 48.2191L207.48 52.2329C209.833 54.848 211.192 58.6425 211.192 64.004H217.192ZM211.977 48.2612C208.423 44.1614 203.487 42.246 197.592 42.246V48.246C202.099 48.246 205.241 49.6506 207.442 52.1908L211.977 48.2612ZM197.592 42.246H159.246V48.246H197.592V42.246ZM156.246 45.246V83.094H162.246V45.246H156.246ZM159.246 86.094H197.592V80.094H159.246V86.094ZM200.912 137.554C207.175 137.554 212.452 135.69 216.348 131.659L212.035 127.489C209.512 130.098 205.936 131.554 200.912 131.554V137.554ZM216.382 131.623C220.251 127.488 222.006 121.913 222.006 115.298H216.006C216.006 120.856 214.55 124.799 212.001 127.525L216.382 131.623ZM222.006 115.298C222.006 108.874 220.234 103.455 216.348 99.4349L212.035 103.605C214.568 106.225 216.006 109.991 216.006 115.298H222.006ZM216.385 99.473C212.575 95.3917 207.262 93.54 200.912 93.54V99.54C206.071 99.54 209.61 101.008 211.998 103.567L216.385 99.473ZM200.912 93.54H159.246V99.54H200.912V93.54ZM156.246 96.54V134.554H162.246V96.54H156.246ZM159.246 137.554H200.912V131.554H159.246V137.554ZM262.293 145.676L261.018 148.392L261.028 148.397L261.039 148.401L262.293 145.676ZM249.511 135.384L247.024 137.062L247.048 137.098L247.074 137.134L249.511 135.384ZM249.511 78.28L247.033 76.5881L247.019 76.609L247.005 76.63L249.511 78.28ZM262.293 67.49L260.973 64.7958L260.973 64.7958L262.293 67.49ZM299.145 67.49L297.825 70.1842L297.836 70.1894L297.846 70.1946L299.145 67.49ZM311.927 78.28L309.421 79.93L309.435 79.951L309.449 79.9719L311.927 78.28ZM311.927 135.384L314.364 137.134L314.374 137.119L314.384 137.104L311.927 135.384ZM299.145 145.676L297.87 142.96L297.87 142.96L299.145 145.676ZM296.489 132.396L298.363 134.739L298.371 134.732L296.489 132.396ZM296.489 80.936L294.536 83.2138L294.552 83.2273L294.568 83.2407L296.489 80.936ZM264.783 132.396L262.869 134.706L262.904 134.736L262.941 134.764L264.783 132.396ZM280.719 146.494C274.353 146.494 268.646 145.296 263.546 142.951L261.039 148.401C267.006 151.146 273.582 152.494 280.719 152.494V146.494ZM263.567 142.96C258.548 140.604 254.711 137.484 251.948 133.634L247.074 137.134C250.507 141.916 255.192 145.657 261.018 148.392L263.567 142.96ZM251.997 133.706C249.349 129.783 248.029 125.444 248.029 120.61H242.029C242.029 126.621 243.696 132.132 247.024 137.062L251.997 133.706ZM248.029 120.61V93.386H242.029V120.61H248.029ZM248.029 93.386C248.029 88.4276 249.357 83.9679 252.016 79.93L247.005 76.63C243.688 81.6667 242.029 87.2777 242.029 93.386H248.029ZM251.988 79.9719C254.766 75.9047 258.608 72.635 263.612 70.1842L260.973 64.7958C255.132 67.6569 250.453 71.5806 247.033 76.5881L251.988 79.9719ZM263.612 70.1842C268.571 67.7552 274.252 66.506 280.719 66.506V60.506C273.462 60.506 266.859 61.9127 260.973 64.7958L263.612 70.1842ZM280.719 66.506C287.185 66.506 292.866 67.7552 297.825 70.1842L300.464 64.7958C294.578 61.9127 287.975 60.506 280.719 60.506V66.506ZM297.846 70.1946C302.954 72.6463 306.77 75.9039 309.421 79.93L314.432 76.63C311.107 71.5814 306.402 67.6457 300.443 64.7854L297.846 70.1946ZM309.449 79.9719C312.205 84.0069 313.575 88.4518 313.575 93.386H319.575C319.575 87.2535 317.846 81.6277 314.404 76.5881L309.449 79.9719ZM313.575 93.386V120.61H319.575V93.386H313.575ZM313.575 120.61C313.575 125.42 312.213 129.743 309.469 133.664L314.384 137.104C317.837 132.172 319.575 126.646 319.575 120.61H313.575ZM309.49 133.634C306.726 137.484 302.889 140.604 297.87 142.96L300.419 148.392C306.245 145.657 310.93 141.916 314.364 137.134L309.49 133.634ZM297.87 142.96C292.9 145.293 287.203 146.494 280.719 146.494V152.494C287.957 152.494 294.544 151.15 300.419 148.392L297.87 142.96ZM280.719 140.044C287.809 140.044 293.802 138.387 298.363 134.739L294.615 130.053C291.429 132.602 286.908 134.044 280.719 134.044V140.044ZM298.371 134.732C303.057 130.957 305.465 125.95 305.465 119.946H299.465C299.465 124.124 297.888 127.417 294.607 130.06L298.371 134.732ZM305.465 119.946V93.884H299.465V119.946H305.465ZM305.465 93.884C305.465 87.7066 303.096 82.5371 298.409 78.6313L294.568 83.2407C297.849 85.9749 299.465 89.4374 299.465 93.884H305.465ZM298.441 78.6582C293.877 74.7466 287.855 72.956 280.719 72.956V78.956C286.862 78.956 291.353 80.4854 294.536 83.2138L298.441 78.6582ZM280.719 72.956C273.674 72.956 267.679 74.7556 263.028 78.6313L266.869 83.2407C270.186 80.4764 274.705 78.956 280.719 78.956V72.956ZM263.028 78.6313C258.341 82.5371 255.973 87.7066 255.973 93.884H261.973C261.973 89.4374 263.588 85.9749 266.869 83.2407L263.028 78.6313ZM255.973 93.884V119.946H261.973V93.884H255.973ZM255.973 119.946C255.973 125.918 258.298 130.919 262.869 134.706L266.697 130.086C263.521 127.454 261.973 124.156 261.973 119.946H255.973ZM262.941 134.764C267.597 138.385 273.622 140.044 280.719 140.044V134.044C274.535 134.044 269.937 132.604 266.624 130.028L262.941 134.764ZM346.968 142.854L344.686 144.802L344.698 144.816L344.71 144.83L346.968 142.854ZM341.158 76.62H344.158V73.62H341.158V76.62ZM325.72 76.62H322.72V79.62H325.72V76.62ZM328.21 67.988L325.905 66.0674L325.905 66.0674L328.21 67.988ZM341.324 65V68H344.324V65H341.324ZM344.81 41.262L346.554 43.7032L346.564 43.6957L346.575 43.6882L344.81 41.262ZM355.6 38.606H358.6V35.606H355.6V38.606ZM355.6 65H352.6V68H355.6V65ZM377.678 65H380.678V62H377.678V65ZM355.766 76.62V73.62H352.766V76.62H355.766ZM358.09 134.056L355.774 135.963L355.836 136.038L355.902 136.108L358.09 134.056ZM377.844 133.724L379.965 131.603L378.334 129.971L376.338 131.13L377.844 133.724ZM375.852 146.506L374.099 144.071L374.099 144.071L375.852 146.506ZM364.564 146.494C357.265 146.494 352.355 144.454 349.226 140.878L344.71 144.83C349.328 150.107 356.148 152.494 364.564 152.494V146.494ZM349.25 140.906C345.938 137.026 344.158 131.848 344.158 125.092H338.158C338.158 132.944 340.252 139.607 344.686 144.802L349.25 140.906ZM344.158 125.092V76.62H338.158V125.092H344.158ZM341.158 73.62H325.72V79.62H341.158V73.62ZM328.72 76.62C328.72 73.2503 329.469 71.1641 330.515 69.9085L325.905 66.0674C323.632 68.7959 322.72 72.4643 322.72 76.62H328.72ZM330.515 69.9086C331.538 68.681 332.919 68 335.016 68V62C331.359 62 328.203 63.311 325.905 66.0674L330.515 69.9086ZM335.016 68H341.324V62H335.016V68ZM344.324 65V49.23H338.324V65H344.324ZM344.324 49.23C344.324 46.247 345.234 44.6458 346.554 43.7032L343.066 38.8208C339.738 41.1982 338.324 44.909 338.324 49.23H344.324ZM346.575 43.6882C348.276 42.4507 351.134 41.606 355.6 41.606V35.606C350.549 35.606 346.213 36.5319 343.046 38.8358L346.575 43.6882ZM352.6 38.606V65H358.6V38.606H352.6ZM355.6 68H377.678V62H355.6V68ZM374.678 65C374.678 68.4844 373.887 70.5375 372.834 71.7081C371.834 72.8186 370.157 73.62 367.22 73.62V79.62C371.255 79.62 374.807 78.4847 377.294 75.7219C379.726 73.0192 380.678 69.2623 380.678 65H374.678ZM367.22 73.62H355.766V79.62H367.22V73.62ZM352.766 76.62V124.594H358.766V76.62H352.766ZM352.766 124.594C352.766 129.213 353.544 133.254 355.774 135.963L360.406 132.149C359.538 131.095 358.766 128.828 358.766 124.594H352.766ZM355.902 136.108C358.427 138.801 362.424 139.712 366.888 139.712V133.712C362.942 133.712 361.074 132.852 360.279 132.004L355.902 136.108ZM366.888 139.712C371.304 139.712 375.474 138.569 379.351 136.318L376.338 131.13C373.353 132.863 370.219 133.712 366.888 133.712V139.712ZM375.723 135.845C376.491 136.613 377.002 137.727 377.002 139.534H383.002C383.002 136.471 382.075 133.712 379.965 131.603L375.723 135.845ZM377.002 139.534C377.002 140.958 376.329 142.466 374.099 144.071L377.605 148.941C380.909 146.562 383.002 143.422 383.002 139.534H377.002ZM374.099 144.071C372.01 145.576 368.936 146.494 364.564 146.494V152.494C369.71 152.494 374.161 151.42 377.605 148.941L374.099 144.071ZM406.408 145.676L405.133 148.392L405.144 148.397L405.154 148.401L406.408 145.676ZM393.626 135.384L391.139 137.062L391.164 137.098L391.189 137.134L393.626 135.384ZM393.626 78.28L391.148 76.5881L391.134 76.609L391.12 76.63L393.626 78.28ZM406.408 67.49L405.088 64.7958L405.088 64.7958L406.408 67.49ZM443.26 67.49L441.94 70.1842L441.951 70.1894L441.962 70.1946L443.26 67.49ZM456.042 78.28L453.536 79.93L453.55 79.951L453.564 79.9719L456.042 78.28ZM456.042 135.384L458.479 137.134L458.489 137.119L458.5 137.104L456.042 135.384ZM443.26 145.676L441.985 142.96L441.985 142.96L443.26 145.676ZM440.604 132.396L442.478 134.739L442.486 134.732L440.604 132.396ZM440.604 80.936L438.651 83.2138L438.667 83.2273L438.683 83.2407L440.604 80.936ZM408.898 132.396L406.984 134.706L407.019 134.736L407.056 134.764L408.898 132.396ZM424.834 146.494C418.469 146.494 412.761 145.296 407.662 142.951L405.154 148.401C411.121 151.146 417.698 152.494 424.834 152.494V146.494ZM407.683 142.96C402.663 140.604 398.826 137.484 396.063 133.634L391.189 137.134C394.623 141.916 399.307 145.657 405.133 148.392L407.683 142.96ZM396.112 133.706C393.464 129.783 392.144 125.444 392.144 120.61H386.144C386.144 126.621 387.811 132.132 391.139 137.062L396.112 133.706ZM392.144 120.61V93.386H386.144V120.61H392.144ZM392.144 93.386C392.144 88.4276 393.472 83.9679 396.131 79.93L391.12 76.63C387.803 81.6667 386.144 87.2777 386.144 93.386H392.144ZM396.103 79.9719C398.881 75.9047 402.724 72.635 407.727 70.1842L405.088 64.7958C399.247 67.6569 394.568 71.5806 391.148 76.5881L396.103 79.9719ZM407.727 70.1842C412.687 67.7552 418.367 66.506 424.834 66.506V60.506C417.578 60.506 410.974 61.9127 405.088 64.7958L407.727 70.1842ZM424.834 66.506C431.3 66.506 436.981 67.7552 441.94 70.1842L444.579 64.7958C438.693 61.9127 432.09 60.506 424.834 60.506V66.506ZM441.962 70.1946C447.069 72.6463 450.885 75.9039 453.536 79.93L458.547 76.63C455.223 71.5814 450.517 67.6457 444.558 64.7854L441.962 70.1946ZM453.564 79.9719C456.32 84.0069 457.69 88.4518 457.69 93.386H463.69C463.69 87.2535 461.961 81.6277 458.519 76.5881L453.564 79.9719ZM457.69 93.386V120.61H463.69V93.386H457.69ZM457.69 120.61C457.69 125.42 456.328 129.743 453.584 133.664L458.5 137.104C461.953 132.172 463.69 126.646 463.69 120.61H457.69ZM453.605 133.634C450.841 137.484 447.004 140.604 441.985 142.96L444.535 148.392C450.361 145.657 455.045 141.916 458.479 137.134L453.605 133.634ZM441.985 142.96C437.015 145.293 431.319 146.494 424.834 146.494V152.494C432.072 152.494 438.659 151.15 444.535 148.392L441.985 142.96ZM424.834 140.044C431.924 140.044 437.917 138.387 442.478 134.739L438.73 130.053C435.544 132.602 431.023 134.044 424.834 134.044V140.044ZM442.486 134.732C447.173 130.957 449.58 125.95 449.58 119.946H443.58C443.58 124.124 442.003 127.417 438.722 130.06L442.486 134.732ZM449.58 119.946V93.884H443.58V119.946H449.58ZM449.58 93.884C449.58 87.7066 447.211 82.5371 442.524 78.6313L438.683 83.2407C441.964 85.9749 443.58 89.4374 443.58 93.884H449.58ZM442.556 78.6582C437.993 74.7466 431.97 72.956 424.834 72.956V78.956C430.978 78.956 435.468 80.4854 438.651 83.2138L442.556 78.6582ZM424.834 72.956C417.789 72.956 411.794 74.7556 407.143 78.6313L410.984 83.2407C414.301 80.4764 418.82 78.956 424.834 78.956V72.956ZM407.143 78.6313C402.456 82.5371 400.088 87.7066 400.088 93.884H406.088C406.088 89.4374 407.703 85.9749 410.984 83.2407L407.143 78.6313ZM400.088 93.884V119.946H406.088V93.884H400.088ZM400.088 119.946C400.088 125.918 402.413 130.919 406.984 134.706L410.812 130.086C407.636 127.454 406.088 124.156 406.088 119.946H400.088ZM407.056 134.764C411.712 138.385 417.738 140.044 424.834 140.044V134.044C418.65 134.044 414.052 132.604 410.74 130.028L407.056 134.764ZM470.782 148.664L471.731 145.818L471.644 145.789L471.555 145.765L470.782 148.664ZM466.632 146.34L464.206 144.575L462.698 146.649L464.511 148.461L466.632 146.34ZM497.176 104.342L499.602 106.107L500.866 104.368L499.627 102.612L497.176 104.342ZM470.118 65.996L468.143 63.7383L466.109 65.5177L467.667 67.7256L470.118 65.996ZM473.77 64.17L472.997 61.2713L472.971 61.2781L472.946 61.2854L473.77 64.17ZM487.548 67.988L485.052 69.6521L485.057 69.6595L487.548 67.988ZM504.812 93.718L507.266 95.4445L508.452 93.7585L507.303 92.0465L504.812 93.718ZM501.658 98.2L499.205 96.4735L497.581 98.7804L499.784 100.543L501.658 98.2ZM502.488 98.864L500.614 101.207L503.141 103.228L504.966 100.556L502.488 98.864ZM523.57 67.988L521.104 66.2804L521.098 66.2883L521.093 66.2963L523.57 67.988ZM527.554 64.668L526.352 61.9195L526.318 61.9341L526.285 61.9494L527.554 64.668ZM537.514 64.17L536.69 67.0546L536.69 67.0546L537.514 64.17ZM541.166 65.996L543.612 67.7327L545.181 65.5229L543.142 63.7383L541.166 65.996ZM513.942 104.342L511.496 102.605L510.251 104.358L511.511 106.1L513.942 104.342ZM544.32 146.34L546.55 148.347L548.171 146.545L546.751 144.582L544.32 146.34ZM540.502 148.664L539.678 145.779L539.55 145.816L539.425 145.864L540.502 148.664ZM531.04 148.332L532.243 145.584L532.169 145.551L532.093 145.523L531.04 148.332ZM527.222 145.51L529.753 143.899L529.725 143.856L529.696 143.813L527.222 145.51ZM505.476 113.804L507.95 112.107L505.467 108.486L502.996 112.116L505.476 113.804ZM483.896 145.51L481.416 143.822L481.408 143.834L481.4 143.846L483.896 145.51ZM480.244 148.498L479.062 145.741L479.062 145.741L480.244 148.498ZM475.43 146.494C474.375 146.494 473.149 146.291 471.731 145.818L469.833 151.51C471.735 152.144 473.608 152.494 475.43 152.494V146.494ZM471.555 145.765C470.354 145.445 469.451 144.916 468.753 144.219L464.511 148.461C466.026 149.977 467.89 150.998 470.009 151.563L471.555 145.765ZM469.058 148.105L499.602 106.107L494.75 102.577L464.206 144.575L469.058 148.105ZM499.627 102.612L472.569 64.2664L467.667 67.7256L494.725 106.072L499.627 102.612ZM472.094 68.2537C472.547 67.8572 473.322 67.4181 474.594 67.0546L472.946 61.2854C471.12 61.8072 469.46 62.5854 468.143 63.7383L472.094 68.2537ZM474.543 67.0687C476.021 66.6747 477.248 66.506 478.252 66.506V60.506C476.6 60.506 474.84 60.7799 472.997 61.2713L474.543 67.0687ZM478.252 66.506C481.653 66.506 483.718 67.6514 485.052 69.6521L490.044 66.3239C487.394 62.3485 483.262 60.506 478.252 60.506V66.506ZM485.057 69.6595L502.321 95.3895L507.303 92.0465L490.039 66.3165L485.057 69.6595ZM502.359 91.9915L499.205 96.4735L504.112 99.9265L507.266 95.4445L502.359 91.9915ZM499.784 100.543L500.614 101.207L504.362 96.5214L503.532 95.8574L499.784 100.543ZM504.966 100.556L526.048 69.6797L521.093 66.2963L500.011 97.1723L504.966 100.556ZM526.037 69.6956C526.716 68.715 527.621 67.9473 528.823 67.3865L526.285 61.9494C524.167 62.938 522.417 64.3836 521.104 66.2804L526.037 69.6956ZM528.757 67.4165C530.136 66.8128 531.607 66.506 533.198 66.506V60.506C530.805 60.506 528.513 60.9738 526.352 61.9195L528.757 67.4165ZM533.198 66.506C534.195 66.506 535.354 66.6728 536.69 67.0546L538.338 61.2854C536.576 60.7819 534.857 60.506 533.198 60.506V66.506ZM536.69 67.0546C537.962 67.4181 538.737 67.8572 539.191 68.2537L543.142 63.7383C541.824 62.5854 540.165 61.8072 538.338 61.2854L536.69 67.0546ZM538.72 64.2593L511.496 102.605L516.388 106.079L543.612 67.7327L538.72 64.2593ZM511.511 106.1L541.889 148.098L546.751 144.582L516.373 102.584L511.511 106.1ZM542.09 144.333C541.502 144.987 540.732 145.478 539.678 145.779L541.326 151.549C543.371 150.964 545.146 149.907 546.55 148.347L542.09 144.333ZM539.425 145.864C538.276 146.306 537.258 146.494 536.352 146.494V152.494C538.102 152.494 539.851 152.129 541.579 151.464L539.425 145.864ZM536.352 146.494C535.032 146.494 533.669 146.208 532.243 145.584L529.838 151.08C531.952 152.006 534.131 152.494 536.352 152.494V146.494ZM532.093 145.523C530.743 145.017 530.083 144.419 529.753 143.899L524.691 147.121C525.91 149.036 527.796 150.319 529.987 151.141L532.093 145.523ZM529.696 143.813L507.95 112.107L503.002 115.501L524.748 147.207L529.696 143.813ZM502.996 112.116L481.416 143.822L486.376 147.198L507.956 115.492L502.996 112.116ZM481.4 143.846C480.856 144.662 480.108 145.292 479.062 145.741L481.426 151.255C483.479 150.376 485.166 149.014 486.392 147.174L481.4 143.846ZM479.062 145.741C477.881 146.247 476.677 146.494 475.43 146.494V152.494C477.503 152.494 479.509 152.077 481.426 151.255L479.062 145.741Z" fill="white" fill-opacity="0.89" mask="url(#path-2-outside-1_9_2)"/>
</svg>
