<svg width="208" height="208" viewBox="0 0 208 208" fill="none" xmlns="http://www.w3.org/2000/svg">
<path d="M109.058 193V207.2H104.018C102.485 207.2 101.205 206.88 100.178 206.24C99.1515 205.613 98.3849 204.76 97.8782 203.68C97.3582 202.613 97.0982 201.427 97.0982 200.12C97.0982 198.68 97.3849 197.427 97.9582 196.36C98.5182 195.293 99.3182 194.467 100.358 193.88C101.398 193.293 102.618 193 104.018 193H109.058ZM99.3782 200.12C99.3782 201.12 99.5649 202 99.9382 202.76C100.298 203.533 100.825 204.133 101.518 204.56C102.198 205 103.032 205.22 104.018 205.22H106.818V194.98H104.018C103.018 194.98 102.178 195.207 101.498 195.66C100.805 196.113 100.278 196.727 99.9182 197.5C99.5582 198.273 99.3782 199.147 99.3782 200.12Z" fill="white"/>
<path d="M95.027 192.688L92.8056 206.713L86.7017 205.747C86.0696 205.646 85.511 205.423 85.0259 205.076C84.5409 204.729 84.1418 204.308 83.8287 203.813C83.5025 203.316 83.2768 202.781 83.1516 202.208C83.0132 201.632 82.9889 201.061 83.0786 200.495C83.1766 199.876 83.3824 199.301 83.696 198.771C84.0095 198.24 84.4094 197.804 84.8954 197.462C85.3683 197.118 85.8959 196.898 86.4782 196.802L84.0241 190.946L86.5131 191.34L88.7824 196.701L92.0417 197.217L92.8145 192.338L95.027 192.688ZM91.732 199.173L87.8603 198.559C87.452 198.495 87.0711 198.556 86.7175 198.743C86.3639 198.93 86.0636 199.206 85.8167 199.572C85.5676 199.951 85.4056 200.378 85.3305 200.852C85.2533 201.339 85.2898 201.79 85.4401 202.206C85.5882 202.634 85.8147 202.994 86.1195 203.285C86.4112 203.574 86.7546 203.75 87.1497 203.813L90.9029 204.407L91.732 199.173Z" fill="white"/>
<path d="M73.1062 202.473L71.09 201.818L70.2282 186.607L72.4727 187.336L72.7064 191.471L77.9182 193.164L80.5186 189.951L82.7821 190.686L73.1062 202.473ZM72.6119 193.186L72.8583 199.806L77.0248 194.619L72.6119 193.186Z" fill="white"/>
<path d="M59.2834 181.103L54.689 190.12L61.9001 185.175L63.0762 185.774L63.3318 194.523L67.9262 185.507L69.922 186.523L63.4754 199.176L61.337 198.086L61.0899 188.218L52.9615 193.819L50.8231 192.729L57.2697 180.077L59.2834 181.103Z" fill="white"/>
<path d="M52.5969 176.664L44.2504 188.152L42.4382 186.835L50.7847 175.347L52.5969 176.664Z" fill="white"/>
<path d="M40.3151 176.362C39.7023 176.975 38.9952 177.466 38.1938 177.833C37.383 178.21 36.5297 178.432 35.634 178.498C34.7195 178.564 33.8191 178.437 32.9329 178.116C32.0372 177.805 31.2076 177.268 30.4439 176.504C29.5388 175.599 28.9637 174.609 28.7185 173.534C28.464 172.469 28.497 171.455 28.8175 170.493L30.8964 170.904C30.6796 171.498 30.5994 172.059 30.656 172.586C30.7032 173.105 30.8493 173.581 31.0944 174.015C31.3301 174.439 31.6082 174.812 31.9288 175.132C32.4568 175.66 33.0272 176.014 33.64 176.193C34.2434 176.381 34.8562 176.438 35.4785 176.362C36.0913 176.278 36.6853 176.089 37.2604 175.797C37.8261 175.495 38.3258 175.127 38.7595 174.694C39.2403 174.213 39.6268 173.666 39.9191 173.053C40.202 172.45 40.3764 171.832 40.4424 171.201C40.4895 170.569 40.4141 169.956 40.2161 169.362C40.0181 168.768 39.6834 168.235 39.212 167.764C38.8914 167.443 38.5002 167.165 38.0382 166.93C37.5762 166.694 37.0813 166.548 36.5533 166.491C36.0065 166.435 35.4502 166.52 34.8845 166.746L34.3188 164.681C35.0259 164.389 35.7755 164.29 36.5674 164.384C37.35 164.469 38.1042 164.695 38.8302 165.063C39.5467 165.421 40.169 165.864 40.6969 166.392C41.404 167.099 41.9037 167.891 42.196 168.768C42.4788 169.654 42.5873 170.555 42.5213 171.469C42.4458 172.393 42.2196 173.279 41.8424 174.128C41.4559 174.986 40.9468 175.731 40.3151 176.362Z" fill="white"/>
<path d="M16.7897 159.54L28.2778 151.193L29.6062 153.022L24.5417 156.701L28.7503 162.494L33.8147 158.814L35.1313 160.626L23.6433 168.973L22.3267 167.161L27.1322 163.669L22.9237 157.877L18.1181 161.368L16.7897 159.54Z" fill="white"/>
<path d="M20.2964 140.123L22.0606 139.224L26.4825 147.903L13.8302 154.349L9.49007 145.831L11.2543 144.932L14.5775 151.455L18.1771 149.62L15.2988 143.972L16.9561 143.127L19.8344 148.776L23.7014 146.806L20.2964 140.123Z" fill="white"/>
<path d="M20.6662 135.535L7.16115 139.923L6.46895 137.793L18.0909 134.016L15.7362 126.769L17.6192 126.157L20.6662 135.535Z" fill="white"/>
<path d="M16.759 122.11L2.73382 124.332L2.38341 122.119L14.453 120.208L13.2609 112.681L15.2166 112.372L16.759 122.11Z" fill="white"/>
<path d="M13.02 98.1854H15L15 107.925H0.799999L0.799999 98.3654H2.78L2.78 105.685H6.82L6.82 99.3454H8.68L8.68 105.685H13.02L13.02 98.1854Z" fill="white"/>
<path d="M16.8527 85.2981L6.85729 83.715L13.7888 89.0449L13.5824 90.3487L5.33988 93.2955L15.3353 94.8787L14.9849 97.0911L0.959698 94.8697L1.33514 92.4993L10.6435 89.215L2.80563 83.215L3.18107 80.8445L17.2062 83.0659L16.8527 85.2981Z" fill="white"/>
<path d="M19.2697 70.3556L21.1528 70.9675L18.1429 80.2307L4.63795 75.8427L7.59215 66.7506L9.47524 67.3625L7.21324 74.3242L11.0555 75.5726L13.0147 69.5429L14.7836 70.1177L12.8245 76.1474L16.9521 77.4885L19.2697 70.3556Z" fill="white"/>
<path d="M17.0156 54.7559C16.8244 54.8081 16.6 54.9108 16.3424 55.0639C16.073 55.2109 15.7942 55.4056 15.5062 55.6479C15.2181 55.8902 14.9417 56.1683 14.6769 56.4823C14.4122 56.7964 14.1829 57.1435 13.9892 57.5236C13.5655 58.3552 13.4052 59.0517 13.5083 59.613C13.6113 60.1743 13.9361 60.5942 14.4826 60.8726C14.8865 61.0784 15.2648 61.129 15.6174 61.0244C15.9581 60.9136 16.3238 60.666 16.7143 60.2813C17.1048 59.8967 17.5677 59.3993 18.1031 58.7892C18.7409 58.0367 19.3627 57.4183 19.9687 56.934C20.5627 56.4435 21.1762 56.15 21.809 56.0535C22.4418 55.9569 23.1384 56.1023 23.8987 56.4897C24.5402 56.8166 25.0321 57.2169 25.3744 57.6906C25.7166 58.1642 25.9273 58.6906 26.0064 59.2696C26.0736 59.8426 26.0362 60.4445 25.8943 61.0755C25.7405 61.7005 25.5001 62.3337 25.1732 62.9753C24.8524 63.6049 24.4663 64.2013 24.0148 64.7643C23.5693 65.3155 23.0766 65.8126 22.5365 66.2558C21.9907 66.681 21.4125 67.0373 20.8021 67.3249L19.5545 65.5444C19.7876 65.4687 20.0718 65.3366 20.4072 65.1484C20.7367 64.9422 21.0815 64.6914 21.4415 64.3959C21.8076 64.0886 22.1651 63.7395 22.5139 63.3486C22.8569 62.9398 23.1494 62.4978 23.3916 62.0226C23.7971 61.2266 23.9692 60.5511 23.9078 59.9961C23.8406 59.4231 23.5457 59.0035 23.0229 58.7371C22.5953 58.5192 22.1871 58.4833 21.7984 58.6294C21.3978 58.7695 20.9752 59.0555 20.5307 59.4874C20.0861 59.9193 19.5901 60.4523 19.0427 61.0861C18.3932 61.8027 17.7956 62.3736 17.2497 62.7988C16.692 63.218 16.1326 63.4642 15.5715 63.5374C15.0046 63.5928 14.3944 63.454 13.741 63.121C12.9094 62.6973 12.3114 62.1382 11.947 61.4437C11.5706 60.7432 11.4155 59.9758 11.4814 59.1414C11.5416 58.2892 11.7926 57.4294 12.2345 56.5622C12.525 55.9919 12.8658 55.4847 13.2567 55.0404C13.6358 54.5901 14.0443 54.1997 14.4821 53.8691C14.926 53.5266 15.3783 53.2408 15.8392 53.0117L17.0156 54.7559Z" fill="white"/>
<path d="M32.3723 51.3414C31.7688 52.172 31.0623 52.8041 30.2528 53.2378C29.4325 53.6636 28.571 53.9194 27.6682 54.0051C26.7654 54.0908 25.8708 54.0177 24.9845 53.7858C24.0953 53.5353 23.2839 53.1436 22.5504 52.6106C21.7845 52.0542 21.1583 51.385 20.6717 50.6029C20.1743 49.8131 19.8362 48.9741 19.6574 48.086C19.4678 47.1902 19.4595 46.2942 19.6326 45.3981C19.8027 44.4834 20.1738 43.6324 20.7459 42.8449C21.3416 42.0251 22.0495 41.4023 22.8698 40.9765C23.698 40.5398 24.5649 40.288 25.4707 40.2209C26.3842 40.143 27.2803 40.2254 28.1587 40.4681C29.045 40.7 29.8495 41.0785 30.5722 41.6036C31.3381 42.16 31.9697 42.8332 32.4671 43.6231C32.9615 44.3943 33.3036 45.2279 33.4932 46.1238C33.672 47.0118 33.671 47.9093 33.4901 48.8161C33.317 49.7122 32.9444 50.5539 32.3723 51.3414ZM30.7498 50.1379C31.173 49.5554 31.4306 48.9514 31.5224 48.3259C31.6142 47.7005 31.5703 47.0917 31.3907 46.4997C31.208 45.8891 30.9274 45.3226 30.5488 44.8003C30.1593 44.2702 29.7111 43.8209 29.2041 43.4526C28.6648 43.0607 28.0789 42.7669 27.4466 42.5712C26.822 42.3646 26.198 42.2821 25.5746 42.3235C24.9511 42.365 24.3616 42.53 23.8059 42.8185C23.2473 43.0883 22.7681 43.4983 22.3684 44.0484C21.9452 44.6309 21.6877 45.2349 21.5958 45.8604C21.504 46.4858 21.5494 47.1039 21.732 47.7145C21.9038 48.3173 22.1751 48.8852 22.546 49.4183C22.9246 49.9407 23.3728 50.3899 23.8906 50.7661C24.4299 51.1579 25.0158 51.4517 25.6482 51.6475C26.2805 51.8433 26.9045 51.9258 27.5201 51.8951C28.1436 51.8536 28.7385 51.6926 29.305 51.412C29.8607 51.1235 30.3423 50.6988 30.7498 50.1379ZM28.4712 48.1362L29.7408 46.3888L36.2766 45.7975L35.0069 47.5449L28.4712 48.1362Z" fill="white"/>
<path d="M41.1385 41.1379C40.3372 41.9393 39.5216 42.4814 38.692 42.7642C37.8717 43.0376 37.0562 43.1083 36.2454 42.9764C35.444 42.8349 34.6614 42.5427 33.8978 42.0995C33.1435 41.647 32.4411 41.0954 31.7906 40.4449L26.6994 35.3537L28.2833 33.7698L33.3745 38.861C33.8365 39.323 34.3315 39.7237 34.8594 40.0631C35.378 40.3931 35.9107 40.624 36.4575 40.756C37.0043 40.888 37.5512 40.8786 38.098 40.7278C38.6542 40.5675 39.1916 40.2281 39.7102 39.7095C40.2382 39.1815 40.5776 38.6441 40.7284 38.0973C40.8793 37.5316 40.884 36.9801 40.7426 36.4427C40.6011 35.8864 40.3654 35.349 40.0355 34.8305C39.7055 34.3119 39.3142 33.8264 38.8617 33.3738L33.7705 28.2827L35.3686 26.6846L40.4597 31.7758C41.148 32.464 41.7137 33.1994 42.1568 33.982C42.5999 34.7456 42.878 35.5329 42.9912 36.3437C43.1043 37.1357 43.0194 37.937 42.7366 38.7479C42.4538 39.5587 41.9211 40.3553 41.1385 41.1379Z" fill="white"/>
<path d="M50.7773 32.6585L42.4307 21.1705L44.2429 19.8538L52.5895 31.3419L50.7773 32.6585Z" fill="white"/>
<path d="M63.712 10.9259L59.5065 13.0687L65.0542 23.9568L63.0405 24.9828L57.4928 14.0947L53.2694 16.2467L52.3705 14.4825L62.8131 9.1617L63.712 10.9259Z" fill="white"/>
<path d="M71.1127 6.17483L73.1289 5.51971L82.7668 17.3189L80.5223 18.0482L77.9029 14.8407L72.6911 16.5341L72.4764 20.6625L70.2129 21.398L71.1127 6.17483ZM76.9715 13.3979L72.881 8.18687L72.5586 14.8317L76.9715 13.3979Z" fill="white"/>
<path d="M90.3908 18.6785L87.5593 0.80134L88.7248 0.616747L91.5563 18.4939L90.3908 18.6785Z" fill="white"/>
<path d="M99.1316 15V0.799999L103.952 0.799999C105.458 0.799999 106.712 1.12 107.712 1.76C108.725 2.38667 109.485 3.24 109.992 4.32C110.498 5.38667 110.752 6.57333 110.752 7.88C110.752 9.32 110.472 10.5733 109.912 11.64C109.365 12.7067 108.578 13.5333 107.552 14.12C106.538 14.7067 105.338 15 103.952 15H99.1316ZM109.352 7.88C109.352 6.74667 109.138 5.74 108.712 4.86C108.298 3.98 107.692 3.29333 106.892 2.8C106.092 2.29333 105.112 2.04 103.952 2.04L100.532 2.04V13.76H103.952C105.125 13.76 106.112 13.5 106.912 12.98C107.712 12.46 108.318 11.76 108.732 10.88C109.145 9.98667 109.352 8.98667 109.352 7.88Z" fill="white"/>
<path d="M113.228 15.3522L115.449 1.327L121.375 2.26561C121.981 2.36155 122.515 2.57426 122.975 2.90374C123.436 3.23321 123.817 3.64444 124.116 4.13743C124.432 4.61933 124.646 5.13931 124.76 5.69736C124.89 6.24433 124.912 6.78779 124.826 7.32772C124.72 7.99935 124.488 8.61061 124.131 9.16151C123.787 9.71449 123.345 10.1576 122.806 10.4907C122.281 10.826 121.692 11.0094 121.039 11.0409L123.618 16.9979L122.058 16.7507L119.579 11.0527L115.43 10.3957L114.611 15.5712L113.228 15.3522ZM115.624 9.17096L120.207 9.89682C120.76 9.98442 121.265 9.90911 121.721 9.67088C122.178 9.43264 122.556 9.08763 122.857 8.63583C123.16 8.17086 123.356 7.66182 123.443 7.10871C123.533 6.54244 123.484 6.0014 123.295 5.48559C123.122 4.9587 122.842 4.51598 122.453 4.15743C122.079 3.78779 121.629 3.56126 121.102 3.47783L116.638 2.77074L115.624 9.17096Z" fill="white"/>
<path d="M135.341 5.67242L136.463 6.03706L137.686 21.3653L136.279 20.9079L135.901 16.1166L129.833 14.1451L126.73 17.8054L125.304 17.3419L135.341 5.67242ZM135.937 14.9716L135.386 7.41138L130.458 13.1916L135.937 14.9716Z" fill="white"/>
<path d="M149.386 27.2384L154.634 16.9384L145.978 22.6061L145.194 22.2066L144.673 11.8628L139.425 22.1628L138.177 21.5272L144.624 8.87494L145.907 9.52869L146.431 20.7044L155.815 14.5771L157.08 15.2217L150.634 27.874L149.386 27.2384Z" fill="white"/>
<path d="M156.151 31.8797L164.497 20.3916L165.63 21.2145L157.283 32.7026L156.151 31.8797Z" fill="white"/>
<path d="M167.77 31.7228C168.383 31.1099 169.085 30.615 169.877 30.2378C170.688 29.8607 171.537 29.6344 172.423 29.559C173.319 29.4742 174.205 29.5873 175.082 29.8984C175.968 30.2001 176.788 30.7281 177.542 31.4823C178.438 32.378 178.994 33.3491 179.211 34.3956C179.447 35.4421 179.395 36.4368 179.056 37.3796L177.797 37.0826C178.023 36.4227 178.099 35.8004 178.023 35.2159C177.957 34.6219 177.792 34.0798 177.528 33.5895C177.274 33.1087 176.962 32.6844 176.595 32.3167C175.991 31.7133 175.336 31.3032 174.629 31.0864C173.931 30.8601 173.22 30.7894 172.494 30.8742C171.786 30.9591 171.103 31.1712 170.443 31.5106C169.792 31.8406 169.213 32.2602 168.703 32.7693C168.147 33.3255 167.709 33.9525 167.388 34.6502C167.068 35.3479 166.879 36.0644 166.823 36.7998C166.775 37.5257 166.86 38.2329 167.077 38.9211C167.313 39.6094 167.699 40.2222 168.237 40.7596C168.614 41.1367 169.066 41.4573 169.594 41.7212C170.122 41.9852 170.693 42.1502 171.306 42.2162C171.928 42.2916 172.56 42.2162 173.201 41.9899L173.597 43.2345C172.89 43.5267 172.145 43.6304 171.362 43.5456C170.58 43.4607 169.83 43.2392 169.114 42.8809C168.406 42.5321 167.798 42.1031 167.289 41.594C166.601 40.9057 166.115 40.1279 165.833 39.2605C165.559 38.3837 165.455 37.488 165.521 36.5735C165.606 35.659 165.842 34.7822 166.229 33.9431C166.625 33.0945 167.138 32.3544 167.77 31.7228Z" fill="white"/>
<path d="M191.074 48.2733L179.586 56.6198L178.775 55.5034L184.147 51.6005L179.198 44.7886L173.826 48.6915L173.003 47.5588L184.491 39.2123L185.314 40.3449L180.201 44.0597L185.15 50.8716L190.263 47.1568L191.074 48.2733Z" fill="white"/>
<path d="M187.004 68.134L185.899 68.697L181.568 60.1968L194.22 53.7501L198.47 62.0899L197.365 62.6529L193.751 55.5605L189.189 57.8849L192.34 64.0685L191.289 64.6042L188.138 58.4206L183.309 60.8812L187.004 68.134Z" fill="white"/>
<path d="M187.393 72.6456L200.898 68.2576L201.33 69.5891L189.004 73.5939L191.538 81.3926L190.359 81.7758L187.393 72.6456Z" fill="white"/>
<path d="M191.271 86.0771L205.296 83.8557L205.515 85.2385L192.714 87.2659L193.997 95.3649L192.772 95.5589L191.271 86.0771Z" fill="white"/>
<path d="M194.24 109.726H193V100.186H207.2V109.546H205.96V101.586H200.84V108.526H199.66V101.586H194.24V109.726Z" fill="white"/>
<path d="M191.03 123.444L202.447 125.253L194.382 118.771L194.52 117.902L204.196 114.21L192.779 112.402L192.998 111.019L207.023 113.241L206.798 114.663L196.331 118.614L205.058 125.646L204.836 127.048L190.811 124.827L191.03 123.444Z" fill="white"/>
<path d="M188.054 137.332L186.875 136.949L189.823 127.875L203.328 132.263L200.435 141.165L199.256 140.782L201.716 133.212L196.846 131.63L194.702 138.23L193.579 137.865L195.724 131.265L190.569 129.59L188.054 137.332Z" fill="white"/>
<path d="M191.536 153.659C191.829 153.584 192.113 153.466 192.389 153.308C192.676 153.155 192.955 152.96 193.225 152.724C193.495 152.487 193.753 152.215 194 151.907C194.241 151.61 194.458 151.272 194.652 150.892C195.215 149.787 195.416 148.864 195.254 148.124C195.099 147.401 194.659 146.855 193.934 146.486C193.435 146.231 192.983 146.15 192.576 146.243C192.164 146.347 191.736 146.615 191.291 147.047C190.847 147.479 190.324 148.05 189.722 148.761C189.072 149.567 188.45 150.231 187.855 150.751C187.261 151.271 186.647 151.594 186.014 151.721C185.393 151.853 184.702 151.726 183.942 151.338C183.36 151.042 182.913 150.672 182.6 150.228C182.287 149.784 182.091 149.288 182.012 148.739C181.933 148.189 181.964 147.599 182.106 146.968C182.26 146.343 182.506 145.698 182.845 145.033C183.178 144.38 183.564 143.783 184.003 143.244C184.449 142.723 184.938 142.261 185.472 141.86C186.018 141.464 186.616 141.141 187.268 140.889L187.966 142.031C187.614 142.135 187.252 142.288 186.88 142.488C186.515 142.705 186.152 142.962 185.792 143.258C185.426 143.565 185.084 143.914 184.765 144.305C184.451 144.714 184.174 145.156 183.932 145.632C183.417 146.641 183.202 147.519 183.286 148.265C183.363 149.023 183.765 149.587 184.489 149.956C185.012 150.222 185.5 150.292 185.955 150.164C186.421 150.042 186.9 149.748 187.392 149.28C187.885 148.813 188.438 148.212 189.052 147.477C189.702 146.701 190.306 146.074 190.864 145.595C191.422 145.116 191.982 144.825 192.543 144.722C193.11 144.637 193.733 144.767 194.41 145.112C195.194 145.511 195.756 146.037 196.097 146.69C196.444 147.36 196.581 148.104 196.51 148.92C196.45 149.743 196.196 150.593 195.748 151.473C195.463 152.031 195.141 152.517 194.78 152.932C194.425 153.365 194.037 153.729 193.618 154.024C193.192 154.33 192.728 154.58 192.225 154.773L191.536 153.659Z" fill="white"/>
<path d="M175.622 156.667C176.21 155.858 176.904 155.242 177.706 154.819C178.519 154.404 179.372 154.159 180.267 154.084C181.162 154.009 182.049 154.093 182.927 154.335C183.817 154.586 184.628 154.978 185.362 155.511C186.127 156.067 186.758 156.731 187.252 157.502C187.757 158.281 188.103 159.109 188.29 159.987C188.479 160.882 188.492 161.773 188.326 162.658C188.172 163.551 187.816 164.381 187.26 165.147C186.672 165.956 185.972 166.568 185.16 166.983C184.347 167.398 183.492 167.634 182.594 167.69C181.688 167.757 180.796 167.669 179.918 167.427C179.039 167.184 178.239 166.8 177.516 166.275C176.75 165.718 176.115 165.051 175.609 164.272C175.115 163.5 174.769 162.672 174.572 161.787C174.385 160.91 174.374 160.029 174.539 159.143C174.705 158.258 175.066 157.432 175.622 156.667ZM176.641 157.407C176.163 158.065 175.871 158.751 175.764 159.465C175.661 160.197 175.702 160.911 175.889 161.607C176.079 162.322 176.389 162.984 176.819 163.593C177.25 164.203 177.762 164.723 178.355 165.154C178.981 165.609 179.654 165.941 180.375 166.151C181.106 166.37 181.834 166.445 182.558 166.378C183.286 166.33 183.967 166.141 184.602 165.811C185.248 165.489 185.798 165.016 186.252 164.39C186.723 163.743 187.01 163.053 187.113 162.321C187.22 161.607 187.178 160.893 186.989 160.178C186.802 159.482 186.497 158.824 186.075 158.204C185.644 157.594 185.132 157.074 184.539 156.643C183.913 156.189 183.234 155.852 182.503 155.634C181.782 155.424 181.058 155.342 180.331 155.391C179.615 155.447 178.933 155.636 178.288 155.958C177.645 156.298 177.096 156.781 176.641 157.407ZM178.478 160.324L177.667 161.44L171.976 161.854L172.787 160.738L178.478 160.324Z" fill="white"/>
<path d="M166.854 166.87C167.646 166.078 168.457 165.55 169.286 165.286C170.116 165.022 170.927 164.965 171.719 165.116C172.52 165.276 173.298 165.583 174.052 166.035C174.797 166.497 175.49 167.049 176.131 167.69L181.194 172.753L180.218 173.729L175.155 168.666C174.637 168.147 174.076 167.69 173.472 167.294C172.86 166.907 172.233 166.639 171.592 166.488C170.95 166.337 170.305 166.351 169.654 166.53C169.013 166.719 168.381 167.124 167.759 167.747C167.118 168.388 166.708 169.033 166.529 169.684C166.349 170.353 166.34 171.004 166.5 171.636C166.651 172.277 166.92 172.894 167.306 173.488C167.702 174.092 168.155 174.648 168.664 175.157L173.727 180.22L172.737 181.21L167.674 176.147C167.005 175.478 166.439 174.761 165.977 173.997C165.515 173.234 165.223 172.451 165.1 171.65C164.968 170.858 165.034 170.056 165.298 169.246C165.562 168.435 166.081 167.643 166.854 166.87Z" fill="white"/>
<path d="M156.475 175.885L164.822 187.373L163.689 188.196L155.342 176.708L156.475 175.885Z" fill="white"/>
<path d="M144.714 197.687L149.223 195.39L143.339 183.843L144.586 183.207L150.47 194.755L154.979 192.457L155.542 193.562L145.277 198.792L144.714 197.687Z" fill="white"/>
<path d="M136.44 201.97L135.318 202.335L125.319 190.653L126.726 190.196L129.848 193.85L135.916 191.879L136.275 187.093L137.701 186.63L136.44 201.97ZM130.492 194.797L135.382 200.59L135.97 193.017L130.492 194.797Z" fill="white"/>
<path d="M117.609 189.322L120.441 207.199L119.275 207.383L116.444 189.506L117.609 189.322Z" fill="white"/>
</svg>
