<svg width="3179" height="2566" viewBox="0 0 3179 2566" fill="none" xmlns="http://www.w3.org/2000/svg">
<path d="M1768 1252C1768 1345.71 1689.05 1423 1590 1423C1490.95 1423 1412 1345.71 1412 1252C1412 1158.29 1490.95 1081 1590 1081C1689.05 1081 1768 1158.29 1768 1252Z" stroke="#045360" stroke-width="44"/>
<path d="M2049 1282.5C2049 1503.49 1846.06 1687 1590 1687C1333.94 1687 1131 1503.49 1131 1282.5C1131 1061.51 1333.94 878 1590 878C1846.06 878 2049 1061.51 2049 1282.5Z" stroke="#045360" stroke-width="44"/>
<path d="M2294 1307C2294 1663.25 1980.5 1955 1590 1955C1199.5 1955 886 1663.25 886 1307C886 950.749 1199.5 659 1590 659C1980.5 659 2294 950.749 2294 1307Z" stroke="#045360" stroke-width="44"/>
<path d="M2553 1327.5C2553 1797.08 2124.33 2182 1590 2182C1055.67 2182 627 1797.08 627 1327.5C627 857.916 1055.67 473 1590 473C2124.33 473 2553 857.916 2553 1327.5Z" stroke="#045360" stroke-width="44"/>
<path d="M2880 1307C2880 1907.42 2305.72 2400 1589.5 2400C873.276 2400 299 1907.42 299 1307C299 706.58 873.276 214 1589.5 214C2305.72 214 2880 706.58 2880 1307Z" stroke="#045360" stroke-width="44"/>
<path d="M3157 1283C3157 1975.26 2459.84 2544 1589.5 2544C719.158 2544 22 1975.26 22 1283C22 590.736 719.158 22 1589.5 22C2459.84 22 3157 590.736 3157 1283Z" stroke="#045360" stroke-width="44"/>
</svg>
