<svg width="696" height="181" viewBox="0 0 696 181" fill="none" xmlns="http://www.w3.org/2000/svg">
<path d="M0 0H696V98C696 143.84 658.84 181 613 181H0V0Z" fill="black" fill-opacity="0.35"/>
<mask id="path-2-outside-1_9_2" maskUnits="userSpaceOnUse" x="21" y="35" width="639" height="125" fill="black">
<rect fill="white" x="21" y="35" width="639" height="125"/>
<path d="M60.625 131.125C53.625 131.125 47.375 129.833 41.875 127.25C36.375 124.583 32.0833 120.917 29 116.25C26 111.5 24.5 106.125 24.5 100.125V72.125C24.5 66.125 26 60.7917 29 56.125C32.0833 51.4583 36.3333 47.8333 41.75 45.25C47.1667 42.6667 53.375 41.375 60.375 41.375C67.375 41.375 73.5833 42.5 79 44.75C84.4167 46.9167 88.625 49.9583 91.625 53.875C94.7083 57.7917 96.25 62.2917 96.25 67.375C96.25 69.875 95.4167 71.8333 93.75 73.25C92.0833 74.6667 89.875 75.375 87.125 75.375C86.5417 75.375 85.6667 75.2917 84.5 75.125C84.6667 74.125 84.75 72.5417 84.75 70.375C84.75 66.7917 83.7083 63.5833 81.625 60.75C79.625 57.9167 76.75 55.7083 73 54.125C69.3333 52.5417 65.125 51.75 60.375 51.75C55.7083 51.75 51.5417 52.625 47.875 54.375C44.2083 56.0417 41.3333 58.4583 39.25 61.625C37.25 64.7083 36.25 68.2083 36.25 72.125V100.125C36.25 104.125 37.25 107.708 39.25 110.875C41.3333 113.958 44.2083 116.375 47.875 118.125C51.625 119.875 55.875 120.75 60.625 120.75C65.4583 120.75 69.75 119.958 73.5 118.375C77.25 116.792 80.1667 114.625 82.25 111.875C84.3333 109.042 85.375 105.792 85.375 102.125C85.375 100.792 85.2917 99.2083 85.125 97.375C86.2917 97.2083 87.125 97.125 87.625 97.125C90.375 97.125 92.5833 97.9167 94.25 99.5C96 101.083 96.875 103.208 96.875 105.875C96.875 110.792 95.3333 115.167 92.25 119C89.1667 122.833 84.875 125.833 79.375 128C73.9583 130.083 67.7083 131.125 60.625 131.125ZM138.324 76C133.658 76 129.783 77.4167 126.699 80.25C123.616 83 122.074 86.375 122.074 90.375V123.125C122.074 125.875 121.158 127.917 119.324 129.25C117.574 130.5 114.866 131.125 111.199 131.125V75.625C111.199 69.4583 114.699 66.375 121.699 66.375V74C120.366 75.4167 119.449 76.6667 118.949 77.75L119.449 78.25C124.783 70.3333 131.449 66.375 139.449 66.375C142.449 66.375 144.741 67.125 146.324 68.625C147.908 70.0417 148.699 71.7917 148.699 73.875C148.699 75.375 148.324 76.7083 147.574 77.875C145.241 76.625 142.158 76 138.324 76ZM166.935 57C164.601 57 162.643 56.25 161.06 54.75C159.476 53.25 158.685 51.375 158.685 49.125C158.685 46.875 159.476 45.0417 161.06 43.625C162.643 42.125 164.601 41.375 166.935 41.375C169.185 41.375 171.101 42.125 172.685 43.625C174.268 45.0417 175.06 46.875 175.06 49.125C175.06 51.375 174.268 53.25 172.685 54.75C171.101 56.25 169.185 57 166.935 57ZM161.435 74.375C161.435 71.625 162.31 69.625 164.06 68.375C165.893 67.0417 168.643 66.375 172.31 66.375V123.125C172.31 125.875 171.393 127.917 169.56 129.25C167.81 130.5 165.101 131.125 161.435 131.125V74.375ZM213.196 131.125C208.113 131.125 203.488 130.167 199.321 128.25C195.238 126.333 192.03 123.75 189.696 120.5C187.446 117.167 186.321 113.458 186.321 109.375V88.875C186.321 84.7083 187.446 80.9167 189.696 77.5C192.03 74.0833 195.238 71.375 199.321 69.375C203.405 67.375 208.03 66.375 213.196 66.375C218.363 66.375 222.988 67.375 227.071 69.375C231.238 71.375 234.446 74.0833 236.696 77.5C239.03 80.9167 240.196 84.7083 240.196 88.875V109.375C240.196 113.458 239.03 117.167 236.696 120.5C234.363 123.75 231.155 126.333 227.071 128.25C222.988 130.167 218.363 131.125 213.196 131.125ZM213.196 121.75C218.196 121.75 222.155 120.583 225.071 118.25C228.071 115.833 229.571 112.708 229.571 108.875V89.25C229.571 85.25 228.071 82 225.071 79.5C222.155 77 218.196 75.75 213.196 75.75C208.28 75.75 204.321 77 201.321 79.5C198.321 82 196.821 85.25 196.821 89.25V108.875C196.821 112.708 198.28 115.833 201.196 118.25C204.196 120.583 208.196 121.75 213.196 121.75ZM272.757 131.125C266.674 131.125 262.132 129.458 259.132 126.125C256.132 122.708 254.632 118.25 254.632 112.75V49.375C254.632 46.625 255.507 44.625 257.257 43.375C259.09 42.0417 261.84 41.375 265.507 41.375V112.375C265.507 115.625 266.174 117.958 267.507 119.375C268.84 120.792 271.049 121.5 274.132 121.5C277.215 121.5 280.049 120.75 282.632 119.25C283.715 120.5 284.257 121.958 284.257 123.625C284.257 125.625 283.215 127.375 281.132 128.875C279.049 130.375 276.257 131.125 272.757 131.125ZM305.606 57C303.273 57 301.315 56.25 299.731 54.75C298.148 53.25 297.356 51.375 297.356 49.125C297.356 46.875 298.148 45.0417 299.731 43.625C301.315 42.125 303.273 41.375 305.606 41.375C307.856 41.375 309.773 42.125 311.356 43.625C312.94 45.0417 313.731 46.875 313.731 49.125C313.731 51.375 312.94 53.25 311.356 54.75C309.773 56.25 307.856 57 305.606 57ZM300.106 74.375C300.106 71.625 300.981 69.625 302.731 68.375C304.565 67.0417 307.315 66.375 310.981 66.375V123.125C310.981 125.875 310.065 127.917 308.231 129.25C306.481 130.5 303.773 131.125 300.106 131.125V74.375ZM331.292 75.25C331.292 72.5 332.125 70.3333 333.792 68.75C335.542 67.1667 338.167 66.375 341.667 66.375V73.375L339.167 76.625L339.542 77.125C342.125 73.7917 345.084 71.1667 348.417 69.25C351.75 67.3333 355.709 66.375 360.292 66.375C367.459 66.375 373.25 68.375 377.667 72.375C382.084 76.2917 384.292 81.5417 384.292 88.125V109.5C384.292 116.083 382 121.333 377.417 125.25C372.834 129.167 366.875 131.125 359.542 131.125C355.625 131.125 352 130.333 348.667 128.75C345.417 127.083 342.542 124.917 340.042 122.25L339.667 122.875C340.25 123.708 341.125 124.625 342.292 125.625V147.625C342.292 153.292 338.625 156.125 331.292 156.125V75.25ZM357.917 121.5C362.834 121.5 366.667 120.417 369.417 118.25C372.167 116 373.542 112.917 373.542 109V88.625C373.542 84.5417 372.167 81.4167 369.417 79.25C366.667 77.0833 362.792 76 357.792 76C353.375 76 349.667 77.1667 346.667 79.5C343.667 81.75 342.167 84.5833 342.167 88V109.625C342.167 112.958 343.584 115.792 346.417 118.125C349.25 120.375 353.084 121.5 357.917 121.5ZM424.256 131.125C419.173 131.125 414.548 130.167 410.381 128.25C406.298 126.333 403.089 123.75 400.756 120.5C398.506 117.167 397.381 113.458 397.381 109.375V88.875C397.381 84.7083 398.506 80.9167 400.756 77.5C403.089 74.0833 406.298 71.375 410.381 69.375C414.464 67.375 419.089 66.375 424.256 66.375C429.423 66.375 434.048 67.375 438.131 69.375C442.298 71.375 445.506 74.0833 447.756 77.5C450.089 80.9167 451.256 84.7083 451.256 88.875V109.375C451.256 113.458 450.089 117.167 447.756 120.5C445.423 123.75 442.214 126.333 438.131 128.25C434.048 130.167 429.423 131.125 424.256 131.125ZM424.256 121.75C429.256 121.75 433.214 120.583 436.131 118.25C439.131 115.833 440.631 112.708 440.631 108.875V89.25C440.631 85.25 439.131 82 436.131 79.5C433.214 77 429.256 75.75 424.256 75.75C419.339 75.75 415.381 77 412.381 79.5C409.381 82 407.881 85.25 407.881 89.25V108.875C407.881 112.708 409.339 115.833 412.256 118.25C415.256 120.583 419.256 121.75 424.256 121.75ZM425.381 43C426.548 40.1667 429.756 38.75 435.006 38.75H442.381L429.631 57.25C428.964 58.3333 428.131 59.0417 427.131 59.375C426.131 59.7083 424.548 59.875 422.381 59.875L418.381 59.75L425.381 43ZM483.816 131.125C477.733 131.125 473.191 129.458 470.191 126.125C467.191 122.708 465.691 118.25 465.691 112.75V49.375C465.691 46.625 466.566 44.625 468.316 43.375C470.15 42.0417 472.9 41.375 476.566 41.375V112.375C476.566 115.625 477.233 117.958 478.566 119.375C479.9 120.792 482.108 121.5 485.191 121.5C488.275 121.5 491.108 120.75 493.691 119.25C494.775 120.5 495.316 121.958 495.316 123.625C495.316 125.625 494.275 127.375 492.191 128.875C490.108 130.375 487.316 131.125 483.816 131.125ZM516.666 57C514.333 57 512.374 56.25 510.791 54.75C509.208 53.25 508.416 51.375 508.416 49.125C508.416 46.875 509.208 45.0417 510.791 43.625C512.374 42.125 514.333 41.375 516.666 41.375C518.916 41.375 520.833 42.125 522.416 43.625C523.999 45.0417 524.791 46.875 524.791 49.125C524.791 51.375 523.999 53.25 522.416 54.75C520.833 56.25 518.916 57 516.666 57ZM511.166 74.375C511.166 71.625 512.041 69.625 513.791 68.375C515.624 67.0417 518.374 66.375 522.041 66.375V123.125C522.041 125.875 521.124 127.917 519.291 129.25C517.541 130.5 514.833 131.125 511.166 131.125V74.375ZM564.977 131.125C560.727 131.125 556.727 130.5 552.977 129.25C549.227 127.917 546.185 126.042 543.852 123.625C541.602 121.208 540.477 118.375 540.477 115.125C540.477 111.125 542.893 108.958 547.727 108.625C548.56 113.292 550.518 116.75 553.602 119C556.768 121.167 560.768 122.25 565.602 122.25C570.435 122.25 574.185 121.542 576.852 120.125C579.518 118.708 580.852 116.542 580.852 113.625C580.852 111.542 580.31 109.875 579.227 108.625C578.143 107.292 576.393 106.167 573.977 105.25C571.643 104.25 568.268 103.292 563.852 102.375C558.352 101.125 553.977 99.7917 550.727 98.375C547.477 96.9583 544.977 95.0833 543.227 92.75C541.56 90.4167 540.727 87.3333 540.727 83.5C540.727 80.25 541.727 77.3333 543.727 74.75C545.727 72.0833 548.477 70.0417 551.977 68.625C555.56 67.125 559.602 66.375 564.102 66.375C568.268 66.375 572.185 66.9583 575.852 68.125C579.602 69.2917 582.602 70.9583 584.852 73.125C587.185 75.2917 588.352 77.7917 588.352 80.625C588.352 82.5417 587.602 84.0833 586.102 85.25C584.602 86.3333 582.518 86.9583 579.852 87.125C579.602 83.4583 578.102 80.5833 575.352 78.5C572.685 76.3333 568.935 75.25 564.102 75.25C560.102 75.25 556.935 76 554.602 77.5C552.268 79 551.102 81 551.102 83.5C551.102 86.1667 552.185 88.1667 554.352 89.5C556.602 90.75 560.393 91.9583 565.727 93.125C574.477 94.875 580.893 97.2917 584.977 100.375C589.143 103.375 591.227 107.667 591.227 113.25C591.227 118.917 588.935 123.333 584.352 126.5C579.768 129.583 573.31 131.125 564.977 131.125ZM630.709 131.125C625.626 131.125 621.084 130.167 617.084 128.25C613.084 126.25 609.959 123.542 607.709 120.125C605.459 116.625 604.334 112.708 604.334 108.375V89.875C604.334 85.4583 605.501 81.4583 607.834 77.875C610.251 74.2917 613.459 71.5 617.459 69.5C621.542 67.4167 625.959 66.375 630.709 66.375C635.459 66.375 639.792 67.375 643.709 69.375C647.709 71.375 650.834 74.125 653.084 77.625C655.417 81.125 656.584 85.0833 656.584 89.5V97.5C656.584 98.8333 656.084 99.9583 655.084 100.875C654.084 101.792 652.876 102.25 651.459 102.25H614.959V107.875C614.959 112.125 616.292 115.542 618.959 118.125C621.709 120.708 625.626 122 630.709 122C635.792 122 639.667 120.875 642.334 118.625C645.001 116.375 646.334 113.333 646.334 109.5C648.834 109.333 650.917 109.833 652.584 111C654.334 112.083 655.209 113.708 655.209 115.875C655.209 118.542 654.042 121.042 651.709 123.375C649.459 125.708 646.459 127.583 642.709 129C638.959 130.417 634.959 131.125 630.709 131.125ZM646.459 93.75V89.5C646.459 85.3333 645.001 81.9583 642.084 79.375C639.251 76.7083 635.459 75.375 630.709 75.375C625.959 75.375 622.126 76.7083 619.209 79.375C616.376 81.9583 614.959 85.3333 614.959 89.5V93.75H646.459Z"/>
</mask>
<path d="M41.875 127.25L40.5662 129.949L40.5828 129.958L40.5996 129.965L41.875 127.25ZM29 116.25L26.4635 117.852L26.48 117.878L26.497 117.904L29 116.25ZM29 56.125L26.497 54.4712L26.4866 54.4869L26.4765 54.5027L29 56.125ZM41.75 45.25L43.0414 47.9578L43.0414 47.9578L41.75 45.25ZM79 44.75L77.8492 47.5205L77.8675 47.5281L77.8858 47.5354L79 44.75ZM91.625 53.875L89.2434 55.6992L89.2555 55.715L89.2678 55.7307L91.625 53.875ZM93.75 73.25L91.8071 70.9642L91.8071 70.9642L93.75 73.25ZM84.5 75.125L81.5408 74.6318L81.036 77.6606L84.0757 78.0948L84.5 75.125ZM81.625 60.75L79.1741 62.48L79.1908 62.5038L79.2081 62.5272L81.625 60.75ZM73 54.125L71.8107 56.8792L71.8219 56.884L71.8331 56.8887L73 54.125ZM47.875 54.375L49.1164 57.1061L49.1419 57.0945L49.1672 57.0824L47.875 54.375ZM39.25 61.625L36.7437 59.9761L36.7384 59.9843L36.7331 59.9924L39.25 61.625ZM39.25 110.875L36.7135 112.477L36.7383 112.516L36.7642 112.555L39.25 110.875ZM47.875 118.125L46.5828 120.832L46.5946 120.838L46.6063 120.844L47.875 118.125ZM73.5 118.375L74.6669 121.139L74.6669 121.139L73.5 118.375ZM82.25 111.875L84.6413 113.687L84.6542 113.669L84.667 113.652L82.25 111.875ZM85.125 97.375L84.7007 94.4052L81.8793 94.8082L82.1373 97.6466L85.125 97.375ZM94.25 99.5L92.1838 101.675L92.2102 101.7L92.2373 101.725L94.25 99.5ZM92.25 119L94.5876 120.88L94.5876 120.88L92.25 119ZM79.375 128L80.4519 130.8L80.4633 130.796L80.4746 130.791L79.375 128ZM60.625 128.125C53.999 128.125 48.195 126.904 43.1504 124.535L40.5996 129.965C46.555 132.763 53.251 134.125 60.625 134.125V128.125ZM43.1838 124.551C38.1221 122.096 34.2622 118.772 31.503 114.596L26.497 117.904C29.9045 123.061 34.6279 127.07 40.5662 129.949L43.1838 124.551ZM31.5365 114.648C28.8601 110.41 27.5 105.598 27.5 100.125H21.5C21.5 106.652 23.1399 112.59 26.4635 117.852L31.5365 114.648ZM27.5 100.125V72.125H21.5V100.125H27.5ZM27.5 72.125C27.5 66.6514 28.86 61.8905 31.5235 57.7473L26.4765 54.5027C23.14 59.6928 21.5 65.5986 21.5 72.125H27.5ZM31.503 57.7788C34.2638 53.6003 38.0796 50.3242 43.0414 47.9578L40.4586 42.5422C34.587 45.3425 29.9029 49.3164 26.497 54.4712L31.503 57.7788ZM43.0414 47.9578C47.9929 45.5963 53.7478 44.375 60.375 44.375V38.375C53.0022 38.375 46.3405 39.737 40.4586 42.5422L43.0414 47.9578ZM60.375 44.375C67.0549 44.375 72.8606 45.4483 77.8492 47.5205L80.1508 41.9795C74.3061 39.5517 67.6951 38.375 60.375 38.375V44.375ZM77.8858 47.5354C82.8935 49.5385 86.6272 52.2837 89.2434 55.6992L94.0066 52.0508C90.6228 47.633 85.9399 44.2949 80.1142 41.9646L77.8858 47.5354ZM89.2678 55.7307C91.9259 59.1072 93.25 62.9504 93.25 67.375H99.25C99.25 61.6329 97.4908 56.4761 93.9822 52.0193L89.2678 55.7307ZM93.25 67.375C93.25 69.1353 92.7031 70.2026 91.8071 70.9642L95.6929 75.5358C98.1303 73.4641 99.25 70.6147 99.25 67.375H93.25ZM91.8071 70.9642C90.8109 71.8109 89.3516 72.375 87.125 72.375V78.375C90.3984 78.375 93.3557 77.5224 95.693 75.5358L91.8071 70.9642ZM87.125 72.375C86.7636 72.375 86.0618 72.3177 84.9243 72.1552L84.0757 78.0948C85.2716 78.2657 86.3197 78.375 87.125 78.375V72.375ZM87.4592 75.6182C87.6692 74.358 87.75 72.5647 87.75 70.375H81.75C81.75 72.5186 81.6641 73.892 81.5408 74.6318L87.4592 75.6182ZM87.75 70.375C87.75 66.1653 86.5117 62.3317 84.042 58.9728L79.2081 62.5272C80.905 64.835 81.75 67.4181 81.75 70.375H87.75ZM84.0759 59.0199C81.7003 55.6544 78.3421 53.1241 74.1669 51.3612L71.8331 56.8887C75.1579 58.2926 77.5498 60.1789 79.1741 62.48L84.0759 59.0199ZM74.1893 51.3708C70.083 49.5976 65.4579 48.75 60.375 48.75V54.75C64.7921 54.75 68.5837 55.4857 71.8107 56.8792L74.1893 51.3708ZM60.375 48.75C55.3276 48.75 50.709 49.6982 46.5828 51.6676L49.1672 57.0824C52.3744 55.5517 56.089 54.75 60.375 54.75V48.75ZM46.6336 51.6439C42.4854 53.5295 39.1579 56.3066 36.7437 59.9761L41.7563 63.2738C43.5088 60.61 45.9313 58.5539 49.1164 57.1061L46.6336 51.6439ZM36.7331 59.9924C34.3968 63.5943 33.25 67.6688 33.25 72.125H39.25C39.25 68.7479 40.1032 65.8224 41.7669 63.2576L36.7331 59.9924ZM33.25 72.125V100.125H39.25V72.125H33.25ZM33.25 100.125C33.25 104.652 34.3899 108.798 36.7135 112.477L41.7865 109.273C40.1101 106.619 39.25 103.598 39.25 100.125H33.25ZM36.7642 112.555C39.1739 116.121 42.4795 118.874 46.5828 120.832L49.1672 115.418C45.9372 113.876 43.4928 111.796 41.7358 109.195L36.7642 112.555ZM46.6063 120.844C50.8083 122.804 55.5013 123.75 60.625 123.75V117.75C56.2487 117.75 52.4417 116.946 49.1437 115.406L46.6063 120.844ZM60.625 123.75C65.7854 123.75 70.4852 122.904 74.6669 121.139L72.3331 115.611C69.0148 117.012 65.1313 117.75 60.625 117.75V123.75ZM74.6669 121.139C78.8138 119.388 82.1874 116.926 84.6413 113.687L79.8587 110.063C78.1459 112.324 75.6862 114.195 72.3331 115.611L74.6669 121.139ZM84.667 113.652C87.1459 110.281 88.375 106.402 88.375 102.125H82.375C82.375 105.181 81.5207 107.803 79.8331 110.098L84.667 113.652ZM88.375 102.125C88.375 100.674 88.2847 98.9958 88.1127 97.1034L82.1373 97.6466C82.2986 99.4209 82.375 100.909 82.375 102.125H88.375ZM85.5493 100.345C86.7124 100.179 87.3588 100.125 87.625 100.125V94.125C86.8912 94.125 85.8709 94.238 84.7007 94.4052L85.5493 100.345ZM87.625 100.125C89.7664 100.125 91.181 100.722 92.1838 101.675L96.3163 97.325C93.9857 95.1109 90.9836 94.125 87.625 94.125V100.125ZM92.2373 101.725C93.2735 102.662 93.875 103.934 93.875 105.875H99.875C99.875 102.483 98.7265 99.5045 96.2627 97.2754L92.2373 101.725ZM93.875 105.875C93.875 110.107 92.5673 113.819 89.9124 117.12L94.5876 120.88C98.0994 116.514 99.875 111.476 99.875 105.875H93.875ZM89.9124 117.12C87.2157 120.472 83.3883 123.195 78.2754 125.209L80.4746 130.791C86.3617 128.472 91.1177 125.194 94.5876 120.88L89.9124 117.12ZM78.2981 125.2C73.2916 127.126 67.4189 128.125 60.625 128.125V134.125C67.9978 134.125 74.6251 133.041 80.4519 130.8L78.2981 125.2ZM126.699 80.25L128.696 82.4889L128.713 82.4741L128.729 82.459L126.699 80.25ZM119.324 129.25L121.068 131.691L121.078 131.684L121.089 131.676L119.324 129.25ZM111.199 131.125H108.199V134.125H111.199V131.125ZM121.699 66.375H124.699V63.375H121.699V66.375ZM121.699 74L123.884 76.0561L124.699 75.1897V74H121.699ZM118.949 77.75L116.225 76.4928L115.349 78.3922L116.828 79.8713L118.949 77.75ZM119.449 78.25L117.328 80.3713L119.903 82.9462L121.937 79.9262L119.449 78.25ZM146.324 68.625L144.261 70.8029L144.292 70.8322L144.324 70.8607L146.324 68.625ZM147.574 77.875L146.158 80.5194L148.6 81.8277L150.098 79.4973L147.574 77.875ZM138.324 73C132.999 73 128.371 74.6394 124.669 78.041L128.729 82.459C131.194 80.194 134.316 79 138.324 79V73ZM124.702 78.0111C121.005 81.309 119.074 85.4883 119.074 90.375H125.074C125.074 87.2617 126.227 84.691 128.696 82.4889L124.702 78.0111ZM119.074 90.375V123.125H125.074V90.375H119.074ZM119.074 123.125C119.074 125.146 118.448 126.178 117.56 126.824L121.089 131.676C123.868 129.655 125.074 126.604 125.074 123.125H119.074ZM117.581 126.809C116.587 127.519 114.636 128.125 111.199 128.125V134.125C115.096 134.125 118.562 133.481 121.068 131.691L117.581 126.809ZM114.199 131.125V75.625H108.199V131.125H114.199ZM114.199 75.625C114.199 73.1098 114.895 71.7419 115.807 70.9386C116.792 70.0714 118.575 69.375 121.699 69.375V63.375C117.824 63.375 114.357 64.2203 111.841 66.4364C109.253 68.7165 108.199 71.9736 108.199 75.625H114.199ZM118.699 66.375V74H124.699V66.375H118.699ZM119.515 71.9439C118.081 73.4672 116.919 74.9896 116.225 76.4928L121.673 79.0072C121.979 78.3437 122.651 77.3661 123.884 76.0561L119.515 71.9439ZM116.828 79.8713L117.328 80.3713L121.571 76.1287L121.071 75.6287L116.828 79.8713ZM121.937 79.9262C126.837 72.6534 132.65 69.375 139.449 69.375V63.375C130.249 63.375 122.728 68.0132 116.961 76.5738L121.937 79.9262ZM139.449 69.375C141.974 69.375 143.416 70.0022 144.261 70.8029L148.387 66.4471C146.066 64.2478 142.925 63.375 139.449 63.375V69.375ZM144.324 70.8607C145.285 71.7211 145.699 72.6643 145.699 73.875H151.699C151.699 70.919 150.53 68.3622 148.325 66.3893L144.324 70.8607ZM145.699 73.875C145.699 74.8486 145.464 75.6095 145.051 76.2527L150.098 79.4973C151.184 77.8072 151.699 75.9014 151.699 73.875H145.699ZM148.991 75.2306C146.07 73.6659 142.445 73 138.324 73V79C141.87 79 144.412 79.5841 146.158 80.5194L148.991 75.2306ZM161.06 54.75L163.123 52.5721L163.123 52.5721L161.06 54.75ZM161.06 43.625L163.06 45.8607L163.092 45.8322L163.123 45.8029L161.06 43.625ZM172.685 43.625L170.621 45.8029L170.652 45.8322L170.684 45.8607L172.685 43.625ZM172.685 54.75L170.621 52.5721L170.621 52.5721L172.685 54.75ZM164.06 68.375L165.803 70.8162L165.814 70.8087L165.824 70.8012L164.06 68.375ZM172.31 66.375H175.31V63.375H172.31V66.375ZM169.56 129.25L171.303 131.691L171.314 131.684L171.324 131.676L169.56 129.25ZM161.435 131.125H158.435V134.125H161.435V131.125ZM166.935 54C165.31 54 164.108 53.5051 163.123 52.5721L158.996 56.9279C161.178 58.9949 163.892 60 166.935 60V54ZM163.123 52.5721C162.158 51.6586 161.685 50.5806 161.685 49.125H155.685C155.685 52.1694 156.794 54.8414 158.996 56.9279L163.123 52.5721ZM161.685 49.125C161.685 47.6715 162.154 46.6714 163.06 45.8607L159.059 41.3893C156.799 43.412 155.685 46.0785 155.685 49.125H161.685ZM163.123 45.8029C164.108 44.8699 165.31 44.375 166.935 44.375V38.375C163.892 38.375 161.178 39.3801 158.996 41.4471L163.123 45.8029ZM166.935 44.375C168.444 44.375 169.614 44.849 170.621 45.8029L174.748 41.4471C172.588 39.401 169.925 38.375 166.935 38.375V44.375ZM170.684 45.8607C171.59 46.6714 172.06 47.6715 172.06 49.125H178.06C178.06 46.0785 176.946 43.412 174.685 41.3893L170.684 45.8607ZM172.06 49.125C172.06 50.5806 171.586 51.6586 170.621 52.5721L174.748 56.9279C176.95 54.8414 178.06 52.1694 178.06 49.125H172.06ZM170.621 52.5721C169.614 53.526 168.444 54 166.935 54V60C169.925 60 172.588 58.974 174.748 56.9279L170.621 52.5721ZM164.435 74.375C164.435 72.294 165.058 71.3488 165.803 70.8162L162.316 65.9338C159.562 67.9012 158.435 70.956 158.435 74.375H164.435ZM165.824 70.8012C166.915 70.0077 168.917 69.375 172.31 69.375V63.375C168.368 63.375 164.871 64.0756 162.295 65.9488L165.824 70.8012ZM169.31 66.375V123.125H175.31V66.375H169.31ZM169.31 123.125C169.31 125.146 168.683 126.178 167.795 126.824L171.324 131.676C174.103 129.655 175.31 126.604 175.31 123.125H169.31ZM167.816 126.809C166.822 127.519 164.871 128.125 161.435 128.125V134.125C165.331 134.125 168.797 133.481 171.303 131.691L167.816 126.809ZM164.435 131.125V74.375H158.435V131.125H164.435ZM199.321 128.25L198.047 130.966L198.057 130.971L198.068 130.975L199.321 128.25ZM189.696 120.5L187.21 122.178L187.234 122.214L187.259 122.25L189.696 120.5ZM189.696 77.5L187.219 75.8081L187.205 75.829L187.191 75.85L189.696 77.5ZM199.321 69.375L198.002 66.6808L198.002 66.6808L199.321 69.375ZM227.071 69.375L225.752 72.0692L225.762 72.0744L225.773 72.0796L227.071 69.375ZM236.696 77.5L234.191 79.15L234.205 79.171L234.219 79.1919L236.696 77.5ZM236.696 120.5L239.133 122.25L239.144 122.235L239.154 122.22L236.696 120.5ZM227.071 128.25L225.797 125.534L227.071 128.25ZM225.071 118.25L226.945 120.593L226.953 120.586L225.071 118.25ZM225.071 79.5L223.119 81.7778L223.135 81.7913L223.151 81.8047L225.071 79.5ZM201.196 118.25L199.282 120.56L199.318 120.59L199.354 120.618L201.196 118.25ZM213.196 128.125C208.499 128.125 204.308 127.242 200.575 125.525L198.068 130.975C202.668 133.092 207.727 134.125 213.196 134.125V128.125ZM200.596 125.534C196.916 123.807 194.132 121.534 192.133 118.75L187.259 122.25C189.928 125.966 193.56 128.86 198.047 130.966L200.596 125.534ZM192.183 118.822C190.273 115.992 189.321 112.87 189.321 109.375H183.321C183.321 114.047 184.62 118.341 187.21 122.178L192.183 118.822ZM189.321 109.375V88.875H183.321V109.375H189.321ZM189.321 88.875C189.321 85.2833 190.281 82.0673 192.202 79.15L187.191 75.85C184.612 79.7661 183.321 84.1334 183.321 88.875H189.321ZM192.174 79.1919C194.186 76.2454 196.976 73.864 200.641 72.0692L198.002 66.6808C193.5 68.8859 189.873 71.9213 187.219 75.8081L192.174 79.1919ZM200.641 72.0692C204.261 70.2962 208.424 69.375 213.196 69.375V63.375C207.635 63.375 202.549 64.4537 198.002 66.6808L200.641 72.0692ZM213.196 69.375C217.968 69.375 222.132 70.2962 225.752 72.0692L228.391 66.6808C223.844 64.4537 218.758 63.375 213.196 63.375V69.375ZM225.773 72.0796C229.514 73.8753 232.277 76.2446 234.191 79.15L239.202 75.85C236.615 71.9221 232.962 68.8747 228.369 66.6704L225.773 72.0796ZM234.219 79.1919C236.209 82.1063 237.196 85.3075 237.196 88.875H243.196C243.196 84.1092 241.85 79.7271 239.174 75.8081L234.219 79.1919ZM237.196 88.875V109.375H243.196V88.875H237.196ZM237.196 109.375C237.196 112.845 236.218 115.952 234.239 118.78L239.154 122.22C241.842 118.381 243.196 114.071 243.196 109.375H237.196ZM234.259 118.75C232.261 121.534 229.476 123.807 225.797 125.534L228.346 130.966C232.833 128.86 236.465 125.966 239.133 122.25L234.259 118.75ZM225.797 125.534C222.166 127.238 217.986 128.125 213.196 128.125V134.125C218.74 134.125 223.81 133.095 228.346 130.966L225.797 125.534ZM213.196 124.75C218.647 124.75 223.341 123.476 226.945 120.593L223.197 115.907C220.968 117.691 217.746 118.75 213.196 118.75V124.75ZM226.953 120.586C230.656 117.603 232.571 113.621 232.571 108.875H226.571C226.571 111.795 225.486 114.063 223.189 115.914L226.953 120.586ZM232.571 108.875V89.25H226.571V108.875H232.571ZM232.571 89.25C232.571 84.3846 230.695 80.2811 226.992 77.1953L223.151 81.8047C225.448 83.7189 226.571 86.1154 226.571 89.25H232.571ZM227.024 77.2222C223.417 74.1306 218.692 72.75 213.196 72.75V78.75C217.7 78.75 220.892 79.8694 223.119 81.7778L227.024 77.2222ZM213.196 72.75C207.764 72.75 203.068 74.1396 199.401 77.1953L203.242 81.8047C205.575 79.8604 208.795 78.75 213.196 78.75V72.75ZM199.401 77.1953C195.698 80.2811 193.821 84.3846 193.821 89.25H199.821C199.821 86.1154 200.945 83.7189 203.242 81.8047L199.401 77.1953ZM193.821 89.25V108.875H199.821V89.25H193.821ZM193.821 108.875C193.821 113.589 195.668 117.566 199.282 120.56L203.11 115.94C200.891 114.101 199.821 111.827 199.821 108.875H193.821ZM199.354 120.618C203.026 123.474 207.74 124.75 213.196 124.75V118.75C208.652 118.75 205.366 117.693 203.038 115.882L199.354 120.618ZM259.132 126.125L256.878 128.104L256.89 128.118L256.902 128.132L259.132 126.125ZM257.257 43.375L259.001 45.8162L259.011 45.8087L259.021 45.8012L257.257 43.375ZM265.507 41.375H268.507V38.375H265.507V41.375ZM267.507 119.375L265.322 121.431L265.322 121.431L267.507 119.375ZM282.632 119.25L284.899 117.285L283.273 115.409L281.125 116.656L282.632 119.25ZM281.132 128.875L279.379 126.44L279.379 126.44L281.132 128.875ZM272.757 128.125C267.207 128.125 263.611 126.617 261.362 124.118L256.902 128.132C260.653 132.3 266.14 134.125 272.757 134.125V128.125ZM261.386 124.146C258.963 121.386 257.632 117.681 257.632 112.75H251.632C251.632 118.819 253.301 124.031 256.878 128.104L261.386 124.146ZM257.632 112.75V49.375H251.632V112.75H257.632ZM257.632 49.375C257.632 47.294 258.255 46.3488 259.001 45.8162L255.513 40.9338C252.759 42.9012 251.632 45.956 251.632 49.375H257.632ZM259.021 45.8012C260.112 45.0077 262.115 44.375 265.507 44.375V38.375C261.566 38.375 258.068 39.0756 255.492 40.9488L259.021 45.8012ZM262.507 41.375V112.375H268.507V41.375H262.507ZM262.507 112.375C262.507 115.909 263.21 119.186 265.322 121.431L269.691 117.319C269.137 116.73 268.507 115.341 268.507 112.375H262.507ZM265.322 121.431C267.48 123.724 270.693 124.5 274.132 124.5V118.5C271.404 118.5 270.2 117.859 269.691 117.319L265.322 121.431ZM274.132 124.5C277.726 124.5 281.082 123.619 284.138 121.844L281.125 116.656C279.015 117.881 276.704 118.5 274.132 118.5V124.5ZM280.365 121.215C280.971 121.915 281.257 122.674 281.257 123.625H287.257C287.257 121.243 286.459 119.085 284.899 117.285L280.365 121.215ZM281.257 123.625C281.257 124.393 280.925 125.327 279.379 126.44L282.885 131.31C285.505 129.423 287.257 126.857 287.257 123.625H281.257ZM279.379 126.44C277.962 127.46 275.852 128.125 272.757 128.125V134.125C276.662 134.125 280.135 133.29 282.885 131.31L279.379 126.44ZM299.731 54.75L301.795 52.5721L301.795 52.5721L299.731 54.75ZM299.731 43.625L301.732 45.8607L301.764 45.8322L301.795 45.8029L299.731 43.625ZM311.356 43.625L309.293 45.8029L309.324 45.8322L309.356 45.8607L311.356 43.625ZM311.356 54.75L309.293 52.5721L309.293 52.5721L311.356 54.75ZM302.731 68.375L304.475 70.8162L304.486 70.8087L304.496 70.8012L302.731 68.375ZM310.981 66.375H313.981V63.375H310.981V66.375ZM308.231 129.25L309.975 131.691L309.986 131.684L309.996 131.676L308.231 129.25ZM300.106 131.125H297.106V134.125H300.106V131.125ZM305.606 54C303.982 54 302.779 53.5051 301.795 52.5721L297.668 56.9279C299.85 58.9949 302.564 60 305.606 60V54ZM301.795 52.5721C300.83 51.6586 300.356 50.5806 300.356 49.125H294.356C294.356 52.1694 295.466 54.8414 297.668 56.9279L301.795 52.5721ZM300.356 49.125C300.356 47.6715 300.826 46.6714 301.732 45.8607L297.731 41.3893C295.47 43.412 294.356 46.0785 294.356 49.125H300.356ZM301.795 45.8029C302.779 44.8699 303.982 44.375 305.606 44.375V38.375C302.564 38.375 299.85 39.3801 297.668 41.4471L301.795 45.8029ZM305.606 44.375C307.116 44.375 308.286 44.849 309.293 45.8029L313.42 41.4471C311.26 39.401 308.597 38.375 305.606 38.375V44.375ZM309.356 45.8607C310.262 46.6714 310.731 47.6715 310.731 49.125H316.731C316.731 46.0785 315.617 43.412 313.357 41.3893L309.356 45.8607ZM310.731 49.125C310.731 50.5806 310.258 51.6586 309.293 52.5721L313.42 56.9279C315.622 54.8414 316.731 52.1694 316.731 49.125H310.731ZM309.293 52.5721C308.286 53.526 307.116 54 305.606 54V60C308.597 60 311.26 58.974 313.42 56.9279L309.293 52.5721ZM303.106 74.375C303.106 72.294 303.729 71.3488 304.475 70.8162L300.988 65.9338C298.233 67.9012 297.106 70.956 297.106 74.375H303.106ZM304.496 70.8012C305.587 70.0077 307.589 69.375 310.981 69.375V63.375C307.04 63.375 303.543 64.0756 300.967 65.9488L304.496 70.8012ZM307.981 66.375V123.125H313.981V66.375H307.981ZM307.981 123.125C307.981 125.146 307.355 126.178 306.467 126.824L309.996 131.676C312.775 129.655 313.981 126.604 313.981 123.125H307.981ZM306.488 126.809C305.494 127.519 303.543 128.125 300.106 128.125V134.125C304.003 134.125 307.469 133.481 309.975 131.691L306.488 126.809ZM303.106 131.125V74.375H297.106V131.125H303.106ZM333.792 68.75L331.779 66.5254L331.752 66.5499L331.726 66.575L333.792 68.75ZM341.667 66.375H344.667V63.375H341.667V66.375ZM341.667 73.375L344.045 75.2041L344.667 74.3954V73.375H341.667ZM339.167 76.625L336.789 74.7959L335.4 76.602L336.767 78.425L339.167 76.625ZM339.542 77.125L337.142 78.925L339.503 82.0729L341.913 78.9627L339.542 77.125ZM348.417 69.25L346.922 66.6493L346.922 66.6493L348.417 69.25ZM377.667 72.375L375.653 74.5986L375.665 74.6091L375.677 74.6196L377.667 72.375ZM377.417 125.25L375.468 122.969L375.468 122.969L377.417 125.25ZM348.667 128.75L347.298 131.419L347.339 131.44L347.38 131.46L348.667 128.75ZM340.042 122.25L342.231 120.198L339.513 117.3L337.47 120.707L340.042 122.25ZM339.667 122.875L337.095 121.332L336.093 123.001L337.209 124.595L339.667 122.875ZM342.292 125.625H345.292V124.245L344.244 123.347L342.292 125.625ZM331.292 156.125H328.292V159.125H331.292V156.125ZM369.417 118.25L371.274 120.606L371.295 120.589L371.317 120.572L369.417 118.25ZM369.417 79.25L371.274 76.8935L371.274 76.8935L369.417 79.25ZM346.667 79.5L348.467 81.9L348.488 81.8842L348.509 81.8681L346.667 79.5ZM346.417 118.125L344.51 120.441L344.53 120.458L344.551 120.474L346.417 118.125ZM334.292 75.25C334.292 73.148 334.903 71.8322 335.858 70.925L331.726 66.575C329.347 68.8345 328.292 71.852 328.292 75.25H334.292ZM335.805 70.9746C336.789 70.0844 338.559 69.375 341.667 69.375V63.375C337.775 63.375 334.295 64.2489 331.779 66.5254L335.805 70.9746ZM338.667 66.375V73.375H344.667V66.375H338.667ZM339.289 71.5459L336.789 74.7959L341.545 78.4541L344.045 75.2041L339.289 71.5459ZM336.767 78.425L337.142 78.925L341.942 75.325L341.567 74.825L336.767 78.425ZM341.913 78.9627C344.28 75.9083 346.949 73.5545 349.912 71.8507L346.922 66.6493C343.218 68.7789 339.97 71.675 337.171 75.2873L341.913 78.9627ZM349.912 71.8507C352.711 70.2418 356.132 69.375 360.292 69.375V63.375C355.285 63.375 350.79 64.4249 346.922 66.6493L349.912 71.8507ZM360.292 69.375C366.873 69.375 371.896 71.1956 375.653 74.5986L379.681 70.1514C374.605 65.5544 368.044 63.375 360.292 63.375V69.375ZM375.677 74.6196C379.373 77.8975 381.292 82.2895 381.292 88.125H387.292C387.292 80.7939 384.794 74.6858 379.657 70.1304L375.677 74.6196ZM381.292 88.125V109.5H387.292V88.125H381.292ZM381.292 109.5C381.292 115.297 379.318 119.679 375.468 122.969L379.366 127.531C384.683 122.987 387.292 116.87 387.292 109.5H381.292ZM375.468 122.969C371.539 126.327 366.322 128.125 359.542 128.125V134.125C367.429 134.125 374.128 132.006 379.366 127.531L375.468 122.969ZM359.542 128.125C356.043 128.125 352.861 127.421 349.954 126.04L347.38 131.46C351.14 133.246 355.208 134.125 359.542 134.125V128.125ZM350.036 126.081C347.093 124.571 344.495 122.614 342.231 120.198L337.853 124.302C340.589 127.22 343.741 129.595 347.298 131.419L350.036 126.081ZM337.47 120.707L337.095 121.332L342.239 124.418L342.614 123.793L337.47 120.707ZM337.209 124.595C337.99 125.711 339.068 126.813 340.34 127.903L344.244 123.347C343.182 122.437 342.51 121.705 342.125 121.155L337.209 124.595ZM339.292 125.625V147.625H345.292V125.625H339.292ZM339.292 147.625C339.292 149.759 338.641 150.905 337.708 151.626C336.627 152.461 334.656 153.125 331.292 153.125V159.125C335.262 159.125 338.79 158.373 341.376 156.374C344.11 154.262 345.292 151.157 345.292 147.625H339.292ZM334.292 156.125V75.25H328.292V156.125H334.292ZM357.917 124.5C363.24 124.5 367.817 123.33 371.274 120.606L367.56 115.894C365.517 117.504 362.427 118.5 357.917 118.5V124.5ZM371.317 120.572C374.84 117.689 376.542 113.712 376.542 109H370.542C370.542 112.121 369.494 114.311 367.517 115.928L371.317 120.572ZM376.542 109V88.625H370.542V109H376.542ZM376.542 88.625C376.542 83.7944 374.871 79.7275 371.274 76.8935L367.56 81.6065C369.463 83.1058 370.542 85.289 370.542 88.625H376.542ZM371.274 76.8935C367.81 74.1643 363.185 73 357.792 73V79C362.399 79 365.524 80.0024 367.56 81.6065L371.274 76.8935ZM357.792 73C352.821 73 348.434 74.3248 344.825 77.1319L348.509 81.8681C350.9 80.0086 353.93 79 357.792 79V73ZM344.867 77.1C341.197 79.8527 339.167 83.5375 339.167 88H345.167C345.167 85.6292 346.137 83.6473 348.467 81.9L344.867 77.1ZM339.167 88V109.625H345.167V88H339.167ZM339.167 109.625C339.167 113.953 341.064 117.603 344.51 120.441L348.324 115.809C346.103 113.98 345.167 111.964 345.167 109.625H339.167ZM344.551 120.474C348.069 123.268 352.634 124.5 357.917 124.5V118.5C353.534 118.5 350.431 117.482 348.283 115.776L344.551 120.474ZM410.381 128.25L409.106 130.966L409.117 130.971L409.127 130.975L410.381 128.25ZM400.756 120.5L398.269 122.178L398.294 122.214L398.319 122.25L400.756 120.5ZM400.756 77.5L398.278 75.8081L398.264 75.829L398.25 75.85L400.756 77.5ZM410.381 69.375L409.061 66.6808L409.061 66.6808L410.381 69.375ZM438.131 69.375L436.811 72.0692L436.822 72.0744L436.833 72.0796L438.131 69.375ZM447.756 77.5L445.25 79.15L445.264 79.171L445.278 79.1919L447.756 77.5ZM447.756 120.5L450.193 122.25L450.203 122.235L450.214 122.22L447.756 120.5ZM438.131 128.25L436.856 125.534L438.131 128.25ZM436.131 118.25L438.005 120.593L438.013 120.586L436.131 118.25ZM436.131 79.5L434.178 81.7778L434.194 81.7913L434.21 81.8047L436.131 79.5ZM412.256 118.25L410.342 120.56L410.377 120.59L410.414 120.618L412.256 118.25ZM425.381 43L428.149 44.1568L428.152 44.1495L428.155 44.1422L425.381 43ZM442.381 38.75L444.851 40.4524L448.092 35.75H442.381V38.75ZM429.631 57.25L427.161 55.5476L427.117 55.6115L427.076 55.6777L429.631 57.25ZM427.131 59.375L428.08 62.2211L428.08 62.221L427.131 59.375ZM422.381 59.875L422.287 62.8735L422.334 62.875H422.381V59.875ZM418.381 59.75L415.613 58.5932L413.933 62.6125L418.287 62.7485L418.381 59.75ZM424.256 128.125C419.558 128.125 415.367 127.242 411.635 125.525L409.127 130.975C413.728 133.092 418.787 134.125 424.256 134.125V128.125ZM411.656 125.534C407.976 123.807 405.191 121.534 403.193 118.75L398.319 122.25C400.987 125.966 404.619 128.86 409.106 130.966L411.656 125.534ZM403.242 118.822C401.332 115.992 400.381 112.87 400.381 109.375H394.381C394.381 114.047 395.679 118.341 398.269 122.178L403.242 118.822ZM400.381 109.375V88.875H394.381V109.375H400.381ZM400.381 88.875C400.381 85.2833 401.34 82.0673 403.261 79.15L398.25 75.85C395.671 79.7661 394.381 84.1334 394.381 88.875H400.381ZM403.233 79.1919C405.246 76.2454 408.036 73.864 411.7 72.0692L409.061 66.6808C404.559 68.8859 400.933 71.9213 398.278 75.8081L403.233 79.1919ZM411.7 72.0692C415.32 70.2962 419.484 69.375 424.256 69.375V63.375C418.694 63.375 413.608 64.4537 409.061 66.6808L411.7 72.0692ZM424.256 69.375C429.028 69.375 433.192 70.2962 436.811 72.0692L439.45 66.6808C434.904 64.4537 429.817 63.375 424.256 63.375V69.375ZM436.833 72.0796C440.574 73.8753 443.337 76.2446 445.25 79.15L450.261 75.85C447.675 71.9221 444.021 68.8747 439.429 66.6704L436.833 72.0796ZM445.278 79.1919C447.269 82.1063 448.256 85.3075 448.256 88.875H454.256C454.256 84.1092 452.91 79.7271 450.233 75.8081L445.278 79.1919ZM448.256 88.875V109.375H454.256V88.875H448.256ZM448.256 109.375C448.256 112.845 447.277 115.952 445.298 118.78L450.214 122.22C452.901 118.381 454.256 114.071 454.256 109.375H448.256ZM445.319 118.75C443.321 121.534 440.536 123.807 436.856 125.534L439.406 130.966C443.892 128.86 447.524 125.966 450.193 122.25L445.319 118.75ZM436.856 125.534C433.226 127.238 429.046 128.125 424.256 128.125V134.125C429.799 134.125 434.869 133.095 439.406 130.966L436.856 125.534ZM424.256 124.75C429.706 124.75 434.401 123.476 438.005 120.593L434.257 115.907C432.028 117.691 428.805 118.75 424.256 118.75V124.75ZM438.013 120.586C441.716 117.603 443.631 113.621 443.631 108.875H437.631C437.631 111.795 436.546 114.063 434.249 115.914L438.013 120.586ZM443.631 108.875V89.25H437.631V108.875H443.631ZM443.631 89.25C443.631 84.3846 441.754 80.2811 438.051 77.1953L434.21 81.8047C436.507 83.7189 437.631 86.1154 437.631 89.25H443.631ZM438.083 77.2222C434.476 74.1306 429.752 72.75 424.256 72.75V78.75C428.76 78.75 431.952 79.8694 434.178 81.7778L438.083 77.2222ZM424.256 72.75C418.824 72.75 414.127 74.1396 410.46 77.1953L414.301 81.8047C416.634 79.8604 419.854 78.75 424.256 78.75V72.75ZM410.46 77.1953C406.757 80.2811 404.881 84.3846 404.881 89.25H410.881C410.881 86.1154 412.004 83.7189 414.301 81.8047L410.46 77.1953ZM404.881 89.25V108.875H410.881V89.25H404.881ZM404.881 108.875C404.881 113.589 406.728 117.566 410.342 120.56L414.17 115.94C411.951 114.101 410.881 111.827 410.881 108.875H404.881ZM410.414 120.618C414.086 123.474 418.8 124.75 424.256 124.75V118.75C419.712 118.75 416.426 117.693 414.098 115.882L410.414 120.618ZM428.155 44.1422C428.582 43.1042 430.028 41.75 435.006 41.75V35.75C429.484 35.75 424.513 37.2291 422.607 41.8577L428.155 44.1422ZM435.006 41.75H442.381V35.75H435.006V41.75ZM439.911 37.0476L427.161 55.5476L432.101 58.9524L444.851 40.4524L439.911 37.0476ZM427.076 55.6777C426.699 56.2902 426.383 56.4621 426.182 56.529L428.08 62.221C429.879 61.6212 431.229 60.3765 432.186 58.8223L427.076 55.6777ZM426.182 56.5289C425.666 56.701 424.491 56.875 422.381 56.875V62.875C424.604 62.875 426.596 62.7157 428.08 62.2211L426.182 56.5289ZM422.475 56.8765L418.475 56.7515L418.287 62.7485L422.287 62.8735L422.475 56.8765ZM421.149 60.9068L428.149 44.1568L422.613 41.8432L415.613 58.5932L421.149 60.9068ZM470.191 126.125L467.937 128.104L467.949 128.118L467.962 128.132L470.191 126.125ZM468.316 43.375L470.06 45.8162L470.071 45.8087L470.081 45.8012L468.316 43.375ZM476.566 41.375H479.566V38.375H476.566V41.375ZM478.566 119.375L476.382 121.431L476.382 121.431L478.566 119.375ZM493.691 119.25L495.958 117.285L494.332 115.409L492.185 116.656L493.691 119.25ZM492.191 128.875L490.438 126.44L490.438 126.44L492.191 128.875ZM483.816 128.125C478.267 128.125 474.67 126.617 472.421 124.118L467.962 128.132C471.712 132.3 477.199 134.125 483.816 134.125V128.125ZM472.446 124.146C470.022 121.386 468.691 117.681 468.691 112.75H462.691C462.691 118.819 464.36 124.031 467.937 128.104L472.446 124.146ZM468.691 112.75V49.375H462.691V112.75H468.691ZM468.691 49.375C468.691 47.294 469.314 46.3488 470.06 45.8162L466.573 40.9338C463.818 42.9012 462.691 45.956 462.691 49.375H468.691ZM470.081 45.8012C471.172 45.0077 473.174 44.375 476.566 44.375V38.375C472.625 38.375 469.128 39.0756 466.552 40.9488L470.081 45.8012ZM473.566 41.375V112.375H479.566V41.375H473.566ZM473.566 112.375C473.566 115.909 474.269 119.186 476.382 121.431L480.751 117.319C480.197 116.73 479.566 115.341 479.566 112.375H473.566ZM476.382 121.431C478.54 123.724 481.753 124.5 485.191 124.5V118.5C482.463 118.5 481.26 117.859 480.751 117.319L476.382 121.431ZM485.191 124.5C488.786 124.5 492.142 123.619 495.198 121.844L492.185 116.656C490.074 117.881 487.763 118.5 485.191 118.5V124.5ZM491.424 121.215C492.031 121.915 492.316 122.674 492.316 123.625H498.316C498.316 121.243 497.518 119.085 495.958 117.285L491.424 121.215ZM492.316 123.625C492.316 124.393 491.985 125.327 490.438 126.44L493.944 131.31C496.565 129.423 498.316 126.857 498.316 123.625H492.316ZM490.438 126.44C489.022 127.46 486.911 128.125 483.816 128.125V134.125C487.721 134.125 491.194 133.29 493.944 131.31L490.438 126.44ZM510.791 54.75L512.854 52.5721L512.854 52.5721L510.791 54.75ZM510.791 43.625L512.791 45.8607L512.823 45.8322L512.854 45.8029L510.791 43.625ZM522.416 43.625L520.353 45.8029L520.384 45.8322L520.416 45.8607L522.416 43.625ZM522.416 54.75L520.353 52.5721L520.353 52.5721L522.416 54.75ZM513.791 68.375L515.535 70.8162L515.545 70.8087L515.556 70.8012L513.791 68.375ZM522.041 66.375H525.041V63.375H522.041V66.375ZM519.291 129.25L521.035 131.691L521.045 131.684L521.056 131.676L519.291 129.25ZM511.166 131.125H508.166V134.125H511.166V131.125ZM516.666 54C515.041 54 513.839 53.5051 512.854 52.5721L508.728 56.9279C510.91 58.9949 513.624 60 516.666 60V54ZM512.854 52.5721C511.89 51.6586 511.416 50.5806 511.416 49.125H505.416C505.416 52.1694 506.525 54.8414 508.728 56.9279L512.854 52.5721ZM511.416 49.125C511.416 47.6715 511.885 46.6714 512.791 45.8607L508.791 41.3893C506.53 43.412 505.416 46.0785 505.416 49.125H511.416ZM512.854 45.8029C513.839 44.8699 515.041 44.375 516.666 44.375V38.375C513.624 38.375 510.91 39.3801 508.728 41.4471L512.854 45.8029ZM516.666 44.375C518.175 44.375 519.346 44.849 520.353 45.8029L524.479 41.4471C522.319 39.401 519.657 38.375 516.666 38.375V44.375ZM520.416 45.8607C521.322 46.6714 521.791 47.6715 521.791 49.125H527.791C527.791 46.0785 526.677 43.412 524.416 41.3893L520.416 45.8607ZM521.791 49.125C521.791 50.5806 521.317 51.6586 520.353 52.5721L524.479 56.9279C526.682 54.8414 527.791 52.1694 527.791 49.125H521.791ZM520.353 52.5721C519.346 53.526 518.175 54 516.666 54V60C519.657 60 522.319 58.974 524.479 56.9279L520.353 52.5721ZM514.166 74.375C514.166 72.294 514.789 71.3488 515.535 70.8162L512.047 65.9338C509.293 67.9012 508.166 70.956 508.166 74.375H514.166ZM515.556 70.8012C516.647 70.0077 518.649 69.375 522.041 69.375V63.375C518.1 63.375 514.602 64.0756 512.027 65.9488L515.556 70.8012ZM519.041 66.375V123.125H525.041V66.375H519.041ZM519.041 123.125C519.041 125.146 518.414 126.178 517.527 126.824L521.056 131.676C523.834 129.655 525.041 126.604 525.041 123.125H519.041ZM517.547 126.809C516.554 127.519 514.602 128.125 511.166 128.125V134.125C515.063 134.125 518.528 133.481 521.035 131.691L517.547 126.809ZM514.166 131.125V74.375H508.166V131.125H514.166ZM552.977 129.25L551.972 132.077L552 132.087L552.028 132.096L552.977 129.25ZM543.852 123.625L541.656 125.669L541.674 125.689L541.693 125.709L543.852 123.625ZM547.727 108.625L550.68 108.098L550.206 105.447L547.52 105.632L547.727 108.625ZM553.602 119L551.833 121.423L551.87 121.45L551.908 121.476L553.602 119ZM576.852 120.125L575.444 117.476L575.444 117.476L576.852 120.125ZM579.227 108.625L576.898 110.517L576.928 110.554L576.959 110.59L579.227 108.625ZM573.977 105.25L572.795 108.007L572.853 108.032L572.913 108.055L573.977 105.25ZM563.852 102.375L563.187 105.3L563.214 105.307L563.242 105.312L563.852 102.375ZM550.727 98.375L551.925 95.6249L551.925 95.6249L550.727 98.375ZM543.227 92.75L540.785 94.4937L540.806 94.5221L540.827 94.55L543.227 92.75ZM543.727 74.75L546.099 76.5865L546.113 76.5684L546.127 76.55L543.727 74.75ZM551.977 68.625L553.102 71.4058L553.119 71.3992L553.135 71.3923L551.977 68.625ZM575.852 68.125L574.942 70.9838L574.951 70.9867L574.96 70.9896L575.852 68.125ZM584.852 73.125L582.771 75.286L582.79 75.3048L582.81 75.3234L584.852 73.125ZM586.102 85.25L587.858 87.682L587.901 87.6508L587.943 87.6181L586.102 85.25ZM579.852 87.125L576.859 87.3291L577.061 90.3052L580.039 90.1192L579.852 87.125ZM575.352 78.5L573.46 80.8283L573.499 80.8605L573.54 80.8913L575.352 78.5ZM554.602 77.5L556.224 80.0235L556.224 80.0235L554.602 77.5ZM554.352 89.5L552.779 92.055L552.836 92.09L552.895 92.1225L554.352 89.5ZM565.727 93.125L565.085 96.0557L565.112 96.0615L565.138 96.0667L565.727 93.125ZM584.977 100.375L583.169 102.769L583.196 102.79L583.224 102.81L584.977 100.375ZM584.352 126.5L586.026 128.989L586.042 128.979L586.057 128.968L584.352 126.5ZM564.977 128.125C561.025 128.125 557.347 127.545 553.925 126.404L552.028 132.096C556.106 133.455 560.428 134.125 564.977 134.125V128.125ZM553.982 126.423C550.588 125.217 547.967 123.568 546.01 121.541L541.693 125.709C544.403 128.515 547.865 130.617 551.972 132.077L553.982 126.423ZM546.047 121.581C544.305 119.709 543.477 117.603 543.477 115.125H537.477C537.477 119.147 538.898 122.707 541.656 125.669L546.047 121.581ZM543.477 115.125C543.477 113.763 543.862 113.119 544.292 112.734C544.81 112.269 545.869 111.76 547.933 111.618L547.52 105.632C544.751 105.823 542.185 106.564 540.286 108.266C538.3 110.047 537.477 112.487 537.477 115.125H543.477ZM544.773 109.152C545.708 114.386 547.983 118.614 551.833 121.423L555.37 116.577C553.054 114.886 551.412 112.197 550.68 108.098L544.773 109.152ZM551.908 121.476C555.689 124.063 560.321 125.25 565.602 125.25V119.25C561.216 119.25 557.848 118.27 555.296 116.524L551.908 121.476ZM565.602 125.25C570.662 125.25 574.974 124.52 578.259 122.774L575.444 117.476C573.396 118.564 570.208 119.25 565.602 119.25V125.25ZM578.259 122.774C579.975 121.863 581.412 120.626 582.407 119.01C583.405 117.388 583.852 115.556 583.852 113.625H577.852C577.852 114.611 577.632 115.321 577.297 115.865C576.958 116.415 576.395 116.971 575.444 117.476L578.259 122.774ZM583.852 113.625C583.852 111.013 583.162 108.586 581.494 106.66L576.959 110.59C577.457 111.164 577.852 112.07 577.852 113.625H583.852ZM581.555 106.733C580.011 104.833 577.721 103.462 575.041 102.445L572.913 108.055C575.065 108.872 576.276 109.751 576.898 110.517L581.555 106.733ZM575.158 102.493C572.551 101.375 568.948 100.369 564.461 99.4376L563.242 105.312C567.588 106.215 570.735 107.125 572.795 108.007L575.158 102.493ZM564.516 99.4496C559.106 98.2199 554.933 96.9361 551.925 95.6249L549.528 101.125C553.02 102.647 557.597 104.03 563.187 105.3L564.516 99.4496ZM551.925 95.6249C549.049 94.3712 547.004 92.7872 545.627 90.95L540.827 94.55C542.949 97.3795 545.904 99.5455 549.528 101.125L551.925 95.6249ZM545.668 91.0063C544.469 89.3281 543.727 86.9159 543.727 83.5H537.727C537.727 87.7508 538.651 91.5052 540.785 94.4937L545.668 91.0063ZM543.727 83.5C543.727 80.9186 544.503 78.6471 546.099 76.5865L541.354 72.9135C538.95 76.0195 537.727 79.5814 537.727 83.5H543.727ZM546.127 76.55C547.757 74.3759 550.04 72.6454 553.102 71.4058L550.851 65.8442C546.914 67.4379 543.696 69.7908 541.327 72.95L546.127 76.55ZM553.135 71.3923C556.298 70.0683 559.937 69.375 564.102 69.375V63.375C559.266 63.375 554.822 64.1817 550.818 65.8577L553.135 71.3923ZM564.102 69.375C567.985 69.375 571.593 69.9181 574.942 70.9838L576.761 65.2662C572.777 63.9985 568.551 63.375 564.102 63.375V69.375ZM574.96 70.9896C578.376 72.0523 580.932 73.5158 582.771 75.286L586.932 70.964C584.271 68.4009 580.827 66.531 576.743 65.2604L574.96 70.9896ZM582.81 75.3234C584.616 77.0001 585.352 78.7335 585.352 80.625H591.352C591.352 76.8498 589.754 73.5833 586.893 70.9266L582.81 75.3234ZM585.352 80.625C585.352 81.6253 585.022 82.2894 584.26 82.8819L587.943 87.6181C590.182 85.8773 591.352 83.4581 591.352 80.625H585.352ZM584.345 82.818C583.466 83.4531 582.003 83.9847 579.664 84.1308L580.039 90.1192C583.033 89.932 585.737 89.2135 587.858 87.682L584.345 82.818ZM582.845 86.9209C582.54 82.4527 580.654 78.7535 577.163 76.1087L573.54 80.8913C575.549 82.4131 576.663 84.464 576.859 87.3291L582.845 86.9209ZM577.243 76.1717C573.861 73.4237 569.348 72.25 564.102 72.25V78.25C568.522 78.25 571.509 79.2429 573.46 80.8283L577.243 76.1717ZM564.102 72.25C559.768 72.25 555.966 73.0565 552.979 74.9765L556.224 80.0235C557.904 78.9435 560.435 78.25 564.102 78.25V72.25ZM552.979 74.9765C549.899 76.9568 548.102 79.8534 548.102 83.5H554.102C554.102 82.1466 554.638 81.0432 556.224 80.0235L552.979 74.9765ZM548.102 83.5C548.102 87.1475 549.675 90.1444 552.779 92.055L555.924 86.945C554.695 86.1889 554.102 85.1858 554.102 83.5H548.102ZM552.895 92.1225C555.553 93.5993 559.712 94.8803 565.085 96.0557L566.368 90.1943C561.074 89.0364 557.65 87.9007 555.808 86.8775L552.895 92.1225ZM565.138 96.0667C573.728 97.7847 579.621 100.09 583.169 102.769L586.784 97.9809C582.166 94.4934 575.225 91.9653 566.315 90.1833L565.138 96.0667ZM583.224 102.81C586.531 105.191 588.227 108.533 588.227 113.25H594.227C594.227 106.8 591.756 101.559 586.729 97.9404L583.224 102.81ZM588.227 113.25C588.227 117.952 586.402 121.437 582.646 124.032L586.057 128.968C591.467 125.23 594.227 119.882 594.227 113.25H588.227ZM582.677 124.011C578.781 126.632 572.998 128.125 564.977 128.125V134.125C573.622 134.125 580.755 132.535 586.026 128.989L582.677 124.011ZM617.084 128.25L615.742 130.933L615.765 130.945L615.788 130.955L617.084 128.25ZM607.709 120.125L605.185 121.747L605.194 121.761L605.203 121.775L607.709 120.125ZM607.834 77.875L605.347 76.1976L605.333 76.2177L605.32 76.238L607.834 77.875ZM617.459 69.5L618.801 72.1833L618.812 72.1778L618.822 72.1723L617.459 69.5ZM643.709 69.375L642.345 72.0468L642.356 72.0526L642.367 72.0583L643.709 69.375ZM653.084 77.625L650.56 79.2473L650.574 79.2683L650.588 79.2891L653.084 77.625ZM655.084 100.875L657.111 103.086L657.111 103.086L655.084 100.875ZM614.959 102.25V99.25H611.959V102.25H614.959ZM618.959 118.125L616.872 120.28L616.888 120.296L616.905 120.312L618.959 118.125ZM646.334 109.5L646.134 106.507L643.334 106.693V109.5H646.334ZM652.584 111L650.864 113.458L650.933 113.506L651.005 113.551L652.584 111ZM651.709 123.375L649.588 121.254L649.568 121.273L649.549 121.293L651.709 123.375ZM642.709 129L641.649 126.194L641.649 126.194L642.709 129ZM646.459 93.75V96.75H649.459V93.75H646.459ZM642.084 79.375L640.028 81.5596L640.061 81.5907L640.095 81.6208L642.084 79.375ZM619.209 79.375L621.23 81.5919L621.233 81.5891L619.209 79.375ZM614.959 93.75H611.959V96.75H614.959V93.75ZM630.709 128.125C626.009 128.125 621.92 127.241 618.38 125.545L615.788 130.955C620.248 133.092 625.243 134.125 630.709 134.125V128.125ZM618.426 125.567C614.852 123.78 612.148 121.41 610.214 118.475L605.203 121.775C607.77 125.673 611.316 128.72 615.742 130.933L618.426 125.567ZM610.233 118.503C608.307 115.507 607.334 112.158 607.334 108.375H601.334C601.334 113.258 602.611 117.743 605.185 121.747L610.233 118.503ZM607.334 108.375V89.875H601.334V108.375H607.334ZM607.334 89.875C607.334 86.0194 608.343 82.5916 610.348 79.512L605.32 76.238C602.659 80.325 601.334 84.8973 601.334 89.875H607.334ZM610.321 79.5524C612.439 76.4127 615.246 73.9606 618.801 72.1833L616.117 66.8167C611.672 69.0394 608.063 72.1707 605.347 76.1976L610.321 79.5524ZM618.822 72.1723C622.468 70.3123 626.415 69.375 630.709 69.375V63.375C625.503 63.375 620.617 64.5211 616.096 66.8277L618.822 72.1723ZM630.709 69.375C635.023 69.375 638.884 70.2795 642.345 72.0468L645.073 66.7032C640.701 64.4705 635.894 63.375 630.709 63.375V69.375ZM642.367 72.0583C645.923 73.8359 648.624 76.2346 650.56 79.2473L655.608 76.0027C653.044 72.0154 649.495 68.9141 645.051 66.6917L642.367 72.0583ZM650.588 79.2891C652.576 82.2709 653.584 85.6444 653.584 89.5H659.584C659.584 84.5223 658.259 79.9791 655.58 75.9609L650.588 79.2891ZM653.584 89.5V97.5H659.584V89.5H653.584ZM653.584 97.5C653.584 97.9759 653.449 98.3038 653.057 98.6635L657.111 103.086C658.719 101.613 659.584 99.6908 659.584 97.5H653.584ZM653.057 98.6635C652.636 99.0488 652.162 99.25 651.459 99.25V105.25C653.59 105.25 655.531 104.534 657.111 103.086L653.057 98.6635ZM651.459 99.25H614.959V105.25H651.459V99.25ZM611.959 102.25V107.875H617.959V102.25H611.959ZM611.959 107.875C611.959 112.809 613.535 117.048 616.872 120.28L621.046 115.97C619.049 114.035 617.959 111.441 617.959 107.875H611.959ZM616.905 120.312C620.381 123.577 625.133 125 630.709 125V119C626.119 119 623.037 117.84 621.013 115.938L616.905 120.312ZM630.709 125C636.185 125 640.86 123.793 644.269 120.918L640.399 116.332C638.474 117.957 635.4 119 630.709 119V125ZM644.269 120.918C647.683 118.037 649.334 114.119 649.334 109.5H643.334C643.334 112.548 642.319 114.713 640.399 116.332L644.269 120.918ZM646.534 112.493C648.514 112.361 649.877 112.767 650.864 113.458L654.304 108.542C651.957 106.899 649.154 106.305 646.134 106.507L646.534 112.493ZM651.005 113.551C651.817 114.053 652.209 114.681 652.209 115.875H658.209C658.209 112.736 656.851 110.113 654.163 108.449L651.005 113.551ZM652.209 115.875C652.209 117.566 651.5 119.341 649.588 121.254L653.83 125.496C656.585 122.742 658.209 119.517 658.209 115.875H652.209ZM649.549 121.293C647.672 123.24 645.079 124.898 641.649 126.194L643.769 131.806C647.839 130.269 651.246 128.177 653.869 125.457L649.549 121.293ZM641.649 126.194C638.258 127.475 634.619 128.125 630.709 128.125V134.125C635.299 134.125 639.66 133.359 643.769 131.806L641.649 126.194ZM649.459 93.75V89.5H643.459V93.75H649.459ZM649.459 89.5C649.459 84.5419 647.681 80.3251 644.073 77.1292L640.095 81.6208C642.32 83.5915 643.459 86.1248 643.459 89.5H649.459ZM644.14 77.1904C640.633 73.8896 636.045 72.375 630.709 72.375V78.375C634.873 78.375 637.868 79.5271 640.028 81.5596L644.14 77.1904ZM630.709 72.375C625.369 72.375 620.762 73.8904 617.185 77.1609L621.233 81.5891C623.489 79.5263 626.549 78.375 630.709 78.375V72.375ZM617.188 77.1581C613.673 80.3628 611.959 84.5715 611.959 89.5H617.959C617.959 86.0952 619.078 83.5538 621.23 81.5919L617.188 77.1581ZM611.959 89.5V93.75H617.959V89.5H611.959ZM614.959 96.75H646.459V90.75H614.959V96.75Z" fill="white" fill-opacity="0.89" mask="url(#path-2-outside-1_9_2)"/>
</svg>
