<svg version="1.2" xmlns="http://www.w3.org/2000/svg" viewBox="0 0 1366 768" width="1366" height="768">
	<title>Objeto Inteligente de Vetor-ai</title>
	<style>
		.s0 { fill: #608132 } 
	</style>
	<g id="Camada 1">
		<g id="&lt;Group&gt;">
			<path id="&lt;Path&gt;" class="s0" d="m374 411.7c0-67.7 0-148 0-215.8q-0.1 0.2-0.2 0.4c-54.6 78.1-91.5 164.7-114.3 259.3h-27.3c-24.7-57.5-63.3-121.4-95.2-156.2 0 37 0 71.2 0 108.3l-0.1 47.9h-23.8v-49.6c0-32.1 0-47.1 0-79.2l0.2-46.1 28.8 0.3c42.3 38.8 70.4 71.9 94.5 105.7 25.5-73.4 93.2-199.8 160.6-263.5h14.1l-0.7 44.6c0 60.8 0 177.5 0 238.2l0.7 94.8h-36.8z"/>
		</g>
	</g>
</svg>