<svg width="696" height="181" viewBox="0 0 696 181" fill="none" xmlns="http://www.w3.org/2000/svg">
<path d="M0 0H696V98C696 143.84 658.84 181 613 181H0V0Z" fill="black" fill-opacity="0.35"/>
<mask id="path-2-outside-1_9_2" maskUnits="userSpaceOnUse" x="16" y="55" width="657" height="78" fill="black">
<rect fill="white" x="16" y="55" width="657" height="78"/>
<path d="M22.968 114C21.9547 114 21.0933 113.696 20.384 113.088C19.6747 112.429 19.32 111.619 19.32 110.656V64.144C19.32 63.1813 19.6493 62.396 20.308 61.788C21.0173 61.1293 21.904 60.8 22.968 60.8H40.752C45.0587 60.8 48.8587 61.6107 52.152 63.232C55.4453 64.8533 58.004 67.1333 59.828 70.072C61.7027 72.96 62.64 76.2787 62.64 80.028V94.62C62.64 98.3693 61.7027 101.713 59.828 104.652C58.004 107.591 55.42 109.896 52.076 111.568C48.7827 113.189 45.008 114 40.752 114H22.968ZM39.992 107.768C44.856 107.768 48.656 106.628 51.392 104.348C54.128 102.017 55.496 98.8 55.496 94.696V79.952C55.496 75.8987 54.128 72.732 51.392 70.452C48.656 68.172 44.856 67.032 39.992 67.032H26.464V107.768H39.992ZM89.0268 81.168C86.1895 81.168 83.8335 82.0293 81.9588 83.752C80.0842 85.424 79.1468 87.476 79.1468 89.908V109.82C79.1468 111.492 78.5895 112.733 77.4748 113.544C76.4108 114.304 74.7642 114.684 72.5348 114.684V80.94C72.5348 77.1907 74.6628 75.316 78.9188 75.316V79.952C78.1082 80.8133 77.5508 81.5733 77.2468 82.232L77.5508 82.536C80.7935 77.7227 84.8468 75.316 89.7108 75.316C91.5348 75.316 92.9282 75.772 93.8908 76.684C94.8535 77.5453 95.3348 78.6093 95.3348 79.876C95.3348 80.788 95.1068 81.5987 94.6508 82.308C93.2322 81.548 91.3575 81.168 89.0268 81.168ZM115.198 114.684C112.107 114.684 109.346 114.101 106.914 112.936C104.482 111.72 102.582 110.073 101.214 107.996C99.8456 105.868 99.1616 103.487 99.1616 100.852V89.604C99.1616 86.9187 99.8709 84.4867 101.29 82.308C102.759 80.1293 104.71 78.432 107.142 77.216C109.624 75.9493 112.31 75.316 115.198 75.316C118.086 75.316 120.72 75.924 123.102 77.14C125.534 78.356 127.434 80.028 128.802 82.156C130.22 84.284 130.93 86.6907 130.93 89.376V94.24C130.93 95.0507 130.626 95.7347 130.018 96.292C129.41 96.8493 128.675 97.128 127.814 97.128H105.622V100.548C105.622 103.132 106.432 105.209 108.054 106.78C109.726 108.351 112.107 109.136 115.198 109.136C118.288 109.136 120.644 108.452 122.266 107.084C123.887 105.716 124.698 103.867 124.698 101.536C126.218 101.435 127.484 101.739 128.498 102.448C129.562 103.107 130.094 104.095 130.094 105.412C130.094 107.033 129.384 108.553 127.966 109.972C126.598 111.391 124.774 112.531 122.494 113.392C120.214 114.253 117.782 114.684 115.198 114.684ZM124.774 91.96V89.376C124.774 86.8427 123.887 84.7907 122.114 83.22C120.391 81.5987 118.086 80.788 115.198 80.788C112.31 80.788 109.979 81.5987 108.206 83.22C106.483 84.7907 105.622 86.8427 105.622 89.376V91.96H124.774ZM139.703 80.94C139.703 77.1907 141.831 75.316 146.087 75.316V80.18C145.631 80.636 145.099 81.32 144.491 82.232L144.795 82.536C146.315 80.408 148.291 78.6853 150.723 77.368C153.155 76 155.789 75.316 158.627 75.316C162.731 75.316 165.973 76.532 168.355 78.964C170.736 81.396 171.927 84.5373 171.927 88.388V109.82C171.927 111.492 171.369 112.733 170.255 113.544C169.191 114.304 167.544 114.684 165.315 114.684V89.072C165.315 86.64 164.631 84.7147 163.263 83.296C161.895 81.8773 159.817 81.168 157.031 81.168C155.156 81.168 153.383 81.5733 151.711 82.384C150.089 83.144 148.772 84.208 147.759 85.576C146.796 86.8933 146.315 88.3373 146.315 89.908V109.82C146.315 111.492 145.757 112.733 144.643 113.544C143.579 114.304 141.932 114.684 139.703 114.684V80.94ZM194.401 114.684C190.044 114.684 186.522 113.519 183.837 111.188C181.202 108.857 179.885 105.792 179.885 101.992C179.885 98.1413 181.278 95.0507 184.065 92.72C186.852 90.3387 190.525 89.148 195.085 89.148C199.949 89.148 203.952 90.8707 207.093 94.316L207.397 94.012C206.84 93.404 206.206 92.7707 205.497 92.112V88.92C205.497 86.336 204.686 84.3347 203.065 82.916C201.444 81.4973 199.138 80.788 196.149 80.788C190.829 80.788 187.029 82.8907 184.749 87.096C183.938 86.6907 183.254 86.1587 182.697 85.5C182.19 84.7907 181.937 84.0813 181.937 83.372C181.937 82.004 182.621 80.712 183.989 79.496C185.357 78.2293 187.156 77.216 189.385 76.456C191.665 75.696 194.046 75.316 196.529 75.316C201.342 75.316 205.117 76.5067 207.853 78.888C210.64 81.2693 212.033 84.5627 212.033 88.768V109.592C212.033 111.365 211.526 112.657 210.513 113.468C209.5 114.279 207.904 114.684 205.725 114.684V111.112C206.789 109.997 207.372 109.339 207.473 109.136L207.169 108.832C203.876 112.733 199.62 114.684 194.401 114.684ZM195.541 109.44C198.682 109.44 201.14 108.781 202.913 107.464C204.737 106.147 205.649 104.323 205.649 101.992C205.649 99.6613 204.762 97.812 202.989 96.444C201.216 95.076 198.784 94.392 195.693 94.392C192.805 94.392 190.525 95.076 188.853 96.444C187.232 97.7613 186.421 99.6107 186.421 101.992C186.421 104.373 187.206 106.223 188.777 107.54C190.398 108.807 192.653 109.44 195.541 109.44ZM237.432 129.884C234.798 129.884 232.34 129.453 230.06 128.592C227.78 127.731 225.982 126.565 224.664 125.096C223.347 123.677 222.688 122.132 222.688 120.46C222.688 119.143 223.119 118.18 223.98 117.572C224.892 116.964 226.108 116.66 227.628 116.66C227.73 119.041 228.642 120.916 230.364 122.284C232.138 123.703 234.494 124.412 237.432 124.412C243.918 124.412 247.16 121.271 247.16 114.988V110.58C247.87 109.972 248.402 109.415 248.756 108.908L248.528 108.528C247.059 110.099 245.21 111.391 242.98 112.404C240.802 113.417 238.598 113.924 236.368 113.924C232.011 113.924 228.439 112.733 225.652 110.352C222.916 107.92 221.548 104.728 221.548 100.776V88.54C221.548 85.956 222.182 83.676 223.448 81.7C224.766 79.6733 226.539 78.1027 228.768 76.988C231.048 75.8733 233.556 75.316 236.292 75.316C241.258 75.316 245.412 77.4947 248.756 81.852L249.06 81.548L247.54 79.648C247.54 78.2293 248.022 77.1653 248.984 76.456C249.998 75.696 251.619 75.316 253.848 75.316V114.304C253.848 117.344 253.139 120.029 251.72 122.36C250.352 124.741 248.427 126.591 245.944 127.908C243.462 129.225 240.624 129.884 237.432 129.884ZM237.584 108.148C240.27 108.148 242.55 107.439 244.424 106.02C246.299 104.551 247.236 102.828 247.236 100.852V88.464C247.236 86.3867 246.299 84.6387 244.424 83.22C242.6 81.8013 240.371 81.092 237.736 81.092C234.696 81.092 232.34 81.776 230.668 83.144C228.996 84.4613 228.16 86.3613 228.16 88.844V100.472C228.16 102.853 228.971 104.728 230.592 106.096C232.264 107.464 234.595 108.148 237.584 108.148ZM279.741 114.684C276.65 114.684 273.889 114.101 271.457 112.936C269.025 111.72 267.125 110.073 265.757 107.996C264.389 105.868 263.705 103.487 263.705 100.852V89.604C263.705 86.9187 264.414 84.4867 265.833 82.308C267.302 80.1293 269.253 78.432 271.685 77.216C274.167 75.9493 276.853 75.316 279.741 75.316C282.629 75.316 285.263 75.924 287.645 77.14C290.077 78.356 291.977 80.028 293.345 82.156C294.763 84.284 295.473 86.6907 295.473 89.376V94.24C295.473 95.0507 295.169 95.7347 294.561 96.292C293.953 96.8493 293.218 97.128 292.357 97.128H270.165V100.548C270.165 103.132 270.975 105.209 272.597 106.78C274.269 108.351 276.65 109.136 279.741 109.136C282.831 109.136 285.187 108.452 286.809 107.084C288.43 105.716 289.241 103.867 289.241 101.536C290.761 101.435 292.027 101.739 293.041 102.448C294.105 103.107 294.637 104.095 294.637 105.412C294.637 107.033 293.927 108.553 292.509 109.972C291.141 111.391 289.317 112.531 287.037 113.392C284.757 114.253 282.325 114.684 279.741 114.684ZM289.317 91.96V89.376C289.317 86.8427 288.43 84.7907 286.657 83.22C284.934 81.5987 282.629 80.788 279.741 80.788C276.853 80.788 274.522 81.5987 272.749 83.22C271.026 84.7907 270.165 86.8427 270.165 89.376V91.96H289.317ZM304.246 80.94C304.246 77.1907 306.348 75.316 310.554 75.316V80.18C309.895 80.8893 309.363 81.5733 308.958 82.232L309.262 82.536C310.883 80.256 312.606 78.4827 314.43 77.216C316.254 75.9493 318.356 75.316 320.738 75.316C325.348 75.316 328.515 77.52 330.238 81.928C333.126 77.52 336.976 75.316 341.79 75.316C345.387 75.316 348.148 76.532 350.074 78.964C352.05 81.3453 353.038 84.4867 353.038 88.388V109.82C353.038 111.492 352.48 112.733 351.366 113.544C350.302 114.304 348.68 114.684 346.502 114.684V88.768C346.502 86.336 345.995 84.436 344.982 83.068C343.968 81.7 342.372 81.016 340.194 81.016C337.914 81.016 335.963 81.8013 334.342 83.372C332.72 84.892 331.91 86.944 331.91 89.528V109.82C331.91 111.492 331.378 112.733 330.314 113.544C329.25 114.304 327.628 114.684 325.45 114.684V88.768C325.45 86.336 324.943 84.436 323.93 83.068C322.916 81.7 321.32 81.016 319.142 81.016C316.811 81.016 314.835 81.852 313.214 83.524C311.592 85.196 310.782 87.248 310.782 89.68V109.82C310.782 111.492 310.224 112.733 309.11 113.544C308.046 114.304 306.424 114.684 304.246 114.684V80.94ZM386.271 114C385.257 114 384.371 113.645 383.611 112.936C382.901 112.176 382.547 111.289 382.547 110.276V66.044C382.547 62.092 384.928 60.116 389.691 60.116V107.692H413.023C414.796 107.692 416.164 108.249 417.127 109.364C418.089 110.428 418.571 111.973 418.571 114H386.271ZM431.574 69.616C430.156 69.616 428.965 69.16 428.002 68.248C427.04 67.336 426.558 66.196 426.558 64.828C426.558 63.46 427.04 62.3453 428.002 61.484C428.965 60.572 430.156 60.116 431.574 60.116C432.942 60.116 434.108 60.572 435.07 61.484C436.033 62.3453 436.514 63.46 436.514 64.828C436.514 66.196 436.033 67.336 435.07 68.248C434.108 69.16 432.942 69.616 431.574 69.616ZM428.23 80.18C428.23 78.508 428.762 77.292 429.826 76.532C430.941 75.7213 432.613 75.316 434.842 75.316V109.82C434.842 111.492 434.285 112.733 433.17 113.544C432.106 114.304 430.46 114.684 428.23 114.684V80.18ZM447.191 80.94C447.191 77.1907 449.319 75.316 453.575 75.316V80.18C453.119 80.636 452.587 81.32 451.979 82.232L452.283 82.536C453.803 80.408 455.779 78.6853 458.211 77.368C460.643 76 463.278 75.316 466.115 75.316C470.219 75.316 473.462 76.532 475.843 78.964C478.224 81.396 479.415 84.5373 479.415 88.388V109.82C479.415 111.492 478.858 112.733 477.743 113.544C476.679 114.304 475.032 114.684 472.803 114.684V89.072C472.803 86.64 472.119 84.7147 470.751 83.296C469.383 81.8773 467.306 81.168 464.519 81.168C462.644 81.168 460.871 81.5733 459.199 82.384C457.578 83.144 456.26 84.208 455.247 85.576C454.284 86.8933 453.803 88.3373 453.803 89.908V109.82C453.803 111.492 453.246 112.733 452.131 113.544C451.067 114.304 449.42 114.684 447.191 114.684V80.94ZM492.921 81.32H486.613C486.613 77.7733 487.93 76 490.565 76H492.921V71.364C492.921 68.0707 493.858 65.3853 495.733 63.308C497.608 61.18 500.42 60.116 504.169 60.116C506.297 60.116 507.944 60.5973 509.109 61.56C510.274 62.472 510.857 63.536 510.857 64.752C510.857 65.816 510.528 66.6773 509.869 67.336C508.298 66.424 506.601 65.968 504.777 65.968C502.902 65.968 501.56 66.424 500.749 67.336C499.938 68.248 499.533 69.692 499.533 71.668V76H509.033C509.033 77.824 508.628 79.1667 507.817 80.028C507.057 80.8893 505.866 81.32 504.245 81.32H499.533V109.82C499.533 111.492 498.976 112.733 497.861 113.544C496.797 114.304 495.15 114.684 492.921 114.684V81.32ZM526.456 114.684C522.098 114.684 518.577 113.519 515.892 111.188C513.257 108.857 511.94 105.792 511.94 101.992C511.94 98.1413 513.333 95.0507 516.12 92.72C518.906 90.3387 522.58 89.148 527.14 89.148C532.004 89.148 536.006 90.8707 539.148 94.316L539.452 94.012C538.894 93.404 538.261 92.7707 537.552 92.112V88.92C537.552 86.336 536.741 84.3347 535.12 82.916C533.498 81.4973 531.193 80.788 528.204 80.788C522.884 80.788 519.084 82.8907 516.804 87.096C515.993 86.6907 515.309 86.1587 514.752 85.5C514.245 84.7907 513.992 84.0813 513.992 83.372C513.992 82.004 514.676 80.712 516.044 79.496C517.412 78.2293 519.21 77.216 521.44 76.456C523.72 75.696 526.101 75.316 528.584 75.316C533.397 75.316 537.172 76.5067 539.908 78.888C542.694 81.2693 544.088 84.5627 544.088 88.768V109.592C544.088 111.365 543.581 112.657 542.568 113.468C541.554 114.279 539.958 114.684 537.78 114.684V111.112C538.844 109.997 539.426 109.339 539.528 109.136L539.224 108.832C535.93 112.733 531.674 114.684 526.456 114.684ZM527.596 109.44C530.737 109.44 533.194 108.781 534.968 107.464C536.792 106.147 537.704 104.323 537.704 101.992C537.704 99.6613 536.817 97.812 535.044 96.444C533.27 95.076 530.838 94.392 527.748 94.392C524.86 94.392 522.58 95.076 520.908 96.444C519.286 97.7613 518.476 99.6107 518.476 101.992C518.476 104.373 519.261 106.223 520.832 107.54C522.453 108.807 524.708 109.44 527.596 109.44ZM529.42 61.104C530.129 59.3813 532.08 58.52 535.272 58.52H539.756L532.004 69.768C531.598 70.4267 531.092 70.8573 530.484 71.06C529.876 71.2627 528.913 71.364 527.596 71.364L525.164 71.288L529.42 61.104ZM566.073 114.684C562.476 114.684 559.79 113.671 558.017 111.644C556.244 109.567 555.357 106.856 555.357 103.512V81.32H548.289C548.289 79.5973 548.669 78.28 549.429 77.368C550.189 76.456 551.228 76 552.545 76H555.433V68.78C555.433 67.108 555.965 65.892 557.029 65.132C558.144 64.3213 559.79 63.916 561.969 63.916V76H572.077C572.077 79.5467 570.481 81.32 567.289 81.32H562.045V103.284C562.045 105.311 562.4 106.755 563.109 107.616C563.869 108.427 565.212 108.832 567.137 108.832C568.91 108.832 570.582 108.376 572.153 107.464C572.812 108.123 573.141 109.009 573.141 110.124C573.141 111.34 572.508 112.404 571.241 113.316C569.974 114.228 568.252 114.684 566.073 114.684ZM586.172 69.616C584.753 69.616 583.563 69.16 582.6 68.248C581.637 67.336 581.156 66.196 581.156 64.828C581.156 63.46 581.637 62.3453 582.6 61.484C583.563 60.572 584.753 60.116 586.172 60.116C587.54 60.116 588.705 60.572 589.668 61.484C590.631 62.3453 591.112 63.46 591.112 64.828C591.112 66.196 590.631 67.336 589.668 68.248C588.705 69.16 587.54 69.616 586.172 69.616ZM582.828 80.18C582.828 78.508 583.36 77.292 584.424 76.532C585.539 75.7213 587.211 75.316 589.44 75.316V109.82C589.44 111.492 588.883 112.733 587.768 113.544C586.704 114.304 585.057 114.684 582.828 114.684V80.18ZM616.989 114.684C613.898 114.684 611.137 114.127 608.705 113.012C606.273 111.897 604.373 110.327 603.005 108.3C601.687 106.273 601.029 103.968 601.029 101.384V89.072C601.029 86.3867 601.687 84.0053 603.005 81.928C604.373 79.8507 606.247 78.2293 608.629 77.064C611.01 75.8987 613.746 75.316 616.837 75.316C619.725 75.316 622.283 75.7467 624.513 76.608C626.793 77.4187 628.566 78.584 629.833 80.104C631.099 81.624 631.733 83.3467 631.733 85.272C631.733 86.5387 631.226 87.5773 630.213 88.388C629.25 89.148 627.983 89.4773 626.413 89.376C626.413 86.944 625.526 84.968 623.753 83.448C622.03 81.928 619.775 81.168 616.989 81.168C614.202 81.168 611.947 81.928 610.225 83.448C608.502 84.9173 607.641 86.8427 607.641 89.224V101.08C607.641 103.36 608.527 105.235 610.301 106.704C612.074 108.123 614.354 108.832 617.141 108.832C619.927 108.832 622.182 108.072 623.905 106.552C625.678 105.032 626.565 103.081 626.565 100.7C628.186 100.599 629.478 100.928 630.441 101.688C631.454 102.397 631.961 103.411 631.961 104.728C631.961 106.653 631.327 108.376 630.061 109.896C628.794 111.416 627.021 112.607 624.741 113.468C622.461 114.279 619.877 114.684 616.989 114.684ZM652.182 114.684C647.825 114.684 644.303 113.519 641.618 111.188C638.983 108.857 637.666 105.792 637.666 101.992C637.666 98.1413 639.059 95.0507 641.846 92.72C644.633 90.3387 648.306 89.148 652.866 89.148C657.73 89.148 661.733 90.8707 664.874 94.316L665.178 94.012C664.621 93.404 663.987 92.7707 663.278 92.112V88.92C663.278 86.336 662.467 84.3347 660.846 82.916C659.225 81.4973 656.919 80.788 653.93 80.788C648.61 80.788 644.81 82.8907 642.53 87.096C641.719 86.6907 641.035 86.1587 640.478 85.5C639.971 84.7907 639.718 84.0813 639.718 83.372C639.718 82.004 640.402 80.712 641.77 79.496C643.138 78.2293 644.937 77.216 647.166 76.456C649.446 75.696 651.827 75.316 654.31 75.316C659.123 75.316 662.898 76.5067 665.634 78.888C668.421 81.2693 669.814 84.5627 669.814 88.768V109.592C669.814 111.365 669.307 112.657 668.294 113.468C667.281 114.279 665.685 114.684 663.506 114.684V111.112C664.57 109.997 665.153 109.339 665.254 109.136L664.95 108.832C661.657 112.733 657.401 114.684 652.182 114.684ZM653.322 109.44C656.463 109.44 658.921 108.781 660.694 107.464C662.518 106.147 663.43 104.323 663.43 101.992C663.43 99.6613 662.543 97.812 660.77 96.444C658.997 95.076 656.565 94.392 653.474 94.392C650.586 94.392 648.306 95.076 646.634 96.444C645.013 97.7613 644.202 99.6107 644.202 101.992C644.202 104.373 644.987 106.223 646.558 107.54C648.179 108.807 650.434 109.44 653.322 109.44Z"/>
</mask>
<path d="M20.384 113.088L18.3426 115.286L18.3863 115.327L18.4316 115.366L20.384 113.088ZM20.308 61.788L22.3429 63.9924L22.3494 63.9864L20.308 61.788ZM52.152 63.232L53.4771 60.5405L53.4771 60.5405L52.152 63.232ZM59.828 70.072L57.2791 71.6541L57.2951 71.6799L57.3117 71.7054L59.828 70.072ZM59.828 104.652L57.2988 103.039L57.2889 103.054L57.2791 103.07L59.828 104.652ZM52.076 111.568L53.4011 114.26L53.4094 114.255L53.4176 114.251L52.076 111.568ZM51.392 104.348L53.3126 106.653L53.325 106.642L53.3374 106.632L51.392 104.348ZM51.392 70.452L53.3126 68.1473L51.392 70.452ZM26.464 67.032V64.032H23.464V67.032H26.464ZM26.464 107.768H23.464V110.768H26.464V107.768ZM22.968 111C22.6054 111 22.4543 110.911 22.3364 110.81L18.4316 115.366C19.7323 116.481 21.3039 117 22.968 117V111ZM22.4254 110.89C22.382 110.849 22.3591 110.821 22.3483 110.806C22.338 110.792 22.335 110.785 22.3345 110.784C22.3339 110.782 22.3313 110.776 22.3282 110.761C22.3251 110.745 22.32 110.712 22.32 110.656H16.32C16.32 112.458 17.0259 114.064 18.3426 115.286L22.4254 110.89ZM22.32 110.656V64.144H16.32V110.656H22.32ZM22.32 64.144C22.32 64.0746 22.3259 64.0318 22.3299 64.0107C22.3337 63.9904 22.3364 63.9865 22.3336 63.9932C22.3306 64.0003 22.3263 64.0078 22.3229 64.0125C22.3199 64.0169 22.324 64.0098 22.3428 63.9924L18.2732 59.5836C16.9501 60.8049 16.32 62.4134 16.32 64.144H22.32ZM22.3494 63.9864C22.4467 63.8959 22.5796 63.8 22.968 63.8V57.8C21.2284 57.8 19.5879 58.3627 18.2666 59.5896L22.3494 63.9864ZM22.968 63.8H40.752V57.8H22.968V63.8ZM40.752 63.8C44.6784 63.8 48.0115 64.5374 50.827 65.9235L53.4771 60.5405C49.7058 58.6839 45.4389 57.8 40.752 57.8V63.8ZM50.827 65.9235C53.6488 67.3127 55.7696 69.2221 57.2791 71.6541L62.3769 68.4899C60.2384 65.0445 57.2419 62.3939 53.4771 60.5405L50.827 65.9235ZM57.3117 71.7054C58.8426 74.0639 59.64 76.8047 59.64 80.028H65.64C65.64 75.7526 64.5627 71.8561 62.3443 68.4386L57.3117 71.7054ZM59.64 80.028V94.62H65.64V80.028H59.64ZM59.64 94.62C59.64 97.8428 58.8426 100.619 57.2988 103.039L62.3572 106.265C64.5627 102.808 65.64 98.8959 65.64 94.62H59.64ZM57.2791 103.07C55.7715 105.499 53.6235 107.44 50.7344 108.885L53.4176 114.251C57.2165 112.352 60.2365 109.683 62.3769 106.234L57.2791 103.07ZM50.751 108.876C47.9308 110.265 44.6217 111 40.752 111V117C45.3943 117 49.6345 116.114 53.4011 114.26L50.751 108.876ZM40.752 111H22.968V117H40.752V111ZM39.992 110.768C45.3017 110.768 49.8689 109.522 53.3126 106.653L49.4714 102.043C47.4431 103.734 44.4103 104.768 39.992 104.768V110.768ZM53.3374 106.632C56.8417 103.647 58.496 99.5398 58.496 94.696H52.496C52.496 98.0602 51.4143 100.388 49.4466 102.064L53.3374 106.632ZM58.496 94.696V79.952H52.496V94.696H58.496ZM58.496 79.952C58.496 75.1462 56.8318 71.0801 53.3126 68.1473L49.4714 72.7567C51.4242 74.3839 52.496 76.6511 52.496 79.952H58.496ZM53.3126 68.1473C49.8689 65.2776 45.3017 64.032 39.992 64.032V70.032C44.4103 70.032 47.4431 71.0664 49.4714 72.7567L53.3126 68.1473ZM39.992 64.032H26.464V70.032H39.992V64.032ZM23.464 67.032V107.768H29.464V67.032H23.464ZM26.464 110.768H39.992V104.768H26.464V110.768ZM81.9588 83.752L83.9557 85.9909L83.9723 85.9761L83.9887 85.961L81.9588 83.752ZM77.4748 113.544L79.2186 115.985L79.229 115.978L79.2394 115.97L77.4748 113.544ZM72.5348 114.684H69.5348V117.684H72.5348V114.684ZM78.9188 75.316H81.9188V72.316H78.9188V75.316ZM78.9188 79.952L81.1034 82.0081L81.9188 81.1417V79.952H78.9188ZM77.2468 82.232L74.523 80.9748L73.6463 82.8742L75.1255 84.3533L77.2468 82.232ZM77.5508 82.536L75.4295 84.6573L78.0044 87.2322L80.0389 84.2122L77.5508 82.536ZM93.8908 76.684L91.8276 78.8619L91.8586 78.8912L91.8905 78.9197L93.8908 76.684ZM94.6508 82.308L93.2342 84.9524L95.6763 86.2607L97.1744 83.9303L94.6508 82.308ZM89.0268 78.168C85.5306 78.168 82.4221 79.252 79.929 81.543L83.9887 85.961C85.2449 84.8066 86.8484 84.168 89.0268 84.168V78.168ZM79.962 81.5131C77.473 83.733 76.1468 86.5893 76.1468 89.908H82.1468C82.1468 88.3627 82.6953 87.115 83.9557 85.9909L79.962 81.5131ZM76.1468 89.908V109.82H82.1468V89.908H76.1468ZM76.1468 109.82C76.1468 110.763 75.8795 110.995 75.7103 111.118L79.2394 115.97C81.2995 114.472 82.1468 112.221 82.1468 109.82H76.1468ZM75.7311 111.103C75.4234 111.323 74.534 111.684 72.5348 111.684V117.684C74.9944 117.684 77.3983 117.285 79.2186 115.985L75.7311 111.103ZM75.5348 114.684V80.94H69.5348V114.684H75.5348ZM75.5348 80.94C75.5348 79.6334 75.8881 79.172 76.1139 78.9731C76.4123 78.7102 77.1664 78.316 78.9188 78.316V72.316C76.4153 72.316 73.9774 72.8591 72.1478 74.4709C70.2456 76.1466 69.5348 78.4972 69.5348 80.94H75.5348ZM75.9188 75.316V79.952H81.9188V75.316H75.9188ZM76.7342 77.8959C75.8232 78.8639 75.0208 79.8963 74.523 80.9748L79.9707 83.4892C80.0809 83.2504 80.3932 82.7628 81.1034 82.0081L76.7342 77.8959ZM75.1255 84.3533L75.4295 84.6573L79.6722 80.4147L79.3682 80.1107L75.1255 84.3533ZM80.0389 84.2122C82.8478 80.0428 86.0476 78.316 89.7108 78.316V72.316C83.6461 72.316 78.7393 75.4026 75.0628 80.8598L80.0389 84.2122ZM89.7108 78.316C91.0593 78.316 91.6032 78.6492 91.8276 78.8619L95.9541 74.5061C94.2532 72.8948 92.0104 72.316 89.7108 72.316V78.316ZM91.8905 78.9197C92.2314 79.2248 92.3348 79.482 92.3348 79.876H98.3348C98.3348 77.7367 97.4756 75.8659 95.8912 74.4483L91.8905 78.9197ZM92.3348 79.876C92.3348 80.2616 92.2468 80.4998 92.1273 80.6857L97.1744 83.9303C97.9669 82.6975 98.3348 81.3144 98.3348 79.876H92.3348ZM96.0675 79.6636C94.0615 78.5889 91.6452 78.168 89.0268 78.168V84.168C91.0698 84.168 92.4028 84.5071 93.2342 84.9524L96.0675 79.6636ZM106.914 112.936L105.572 115.619L105.594 115.631L105.617 115.641L106.914 112.936ZM101.214 107.996L98.69 109.618L98.699 109.632L98.7081 109.646L101.214 107.996ZM101.29 82.308L98.8023 80.6306L98.7888 80.6507L98.7756 80.671L101.29 82.308ZM107.142 77.216L108.483 79.8993L108.494 79.8938L108.505 79.8883L107.142 77.216ZM123.102 77.14L121.737 79.8118L121.749 79.8176L121.76 79.8233L123.102 77.14ZM128.802 82.156L126.278 83.7783L126.292 83.7993L126.305 83.8201L128.802 82.156ZM130.018 96.292L132.045 98.5035L132.045 98.5035L130.018 96.292ZM105.622 97.128V94.128H102.622V97.128H105.622ZM108.054 106.78L105.966 108.935L105.983 108.951L106 108.967L108.054 106.78ZM124.698 101.536L124.498 98.5426L121.698 98.7293V101.536H124.698ZM128.498 102.448L126.777 104.906L126.847 104.954L126.918 104.999L128.498 102.448ZM127.966 109.972L125.844 107.851L125.825 107.87L125.806 107.89L127.966 109.972ZM122.494 113.392L121.433 110.586L121.433 110.586L122.494 113.392ZM124.774 91.96V94.96H127.774V91.96H124.774ZM122.114 83.22L120.057 85.4046L120.091 85.4357L120.124 85.4658L122.114 83.22ZM108.206 83.22L110.227 85.4369L110.23 85.4341L108.206 83.22ZM105.622 91.96H102.622V94.96H105.622V91.96ZM115.198 111.684C112.49 111.684 110.182 111.176 108.21 110.231L105.617 115.641C108.509 117.027 111.724 117.684 115.198 117.684V111.684ZM108.255 110.253C106.25 109.25 104.77 107.942 103.719 106.346L98.7081 109.646C100.393 112.205 102.713 114.19 105.572 115.619L108.255 110.253ZM103.737 106.374C102.693 104.75 102.162 102.937 102.162 100.852H96.1616C96.1616 104.037 96.9976 106.986 98.69 109.618L103.737 106.374ZM102.162 100.852V89.604H96.1616V100.852H102.162ZM102.162 89.604C102.162 87.4797 102.713 85.62 103.804 83.945L98.7756 80.671C97.0289 83.3534 96.1616 86.3576 96.1616 89.604H102.162ZM103.777 83.9854C104.947 82.2503 106.497 80.8926 108.483 79.8993L105.8 74.5327C102.923 75.9714 100.571 78.0083 98.8023 80.6306L103.777 83.9854ZM108.505 79.8883C110.55 78.8449 112.766 78.316 115.198 78.316V72.316C111.853 72.316 108.699 73.0537 105.778 74.5437L108.505 79.8883ZM115.198 78.316C117.65 78.316 119.812 78.8285 121.737 79.8118L124.466 74.4682C121.629 73.0195 118.521 72.316 115.198 72.316V78.316ZM121.76 79.8233C123.747 80.8169 125.223 82.1376 126.278 83.7783L131.325 80.5337C129.644 77.9184 127.32 75.8951 124.443 74.4567L121.76 79.8233ZM126.305 83.8201C127.379 85.4299 127.93 87.2517 127.93 89.376H133.93C133.93 86.1296 133.062 83.1381 131.298 80.4919L126.305 83.8201ZM127.93 89.376V94.24H133.93V89.376H127.93ZM127.93 94.24C127.93 94.2544 127.928 94.2482 127.933 94.2263C127.937 94.2038 127.946 94.1743 127.96 94.1426C127.974 94.1109 127.989 94.0876 127.999 94.074C128.008 94.0611 128.008 94.064 127.99 94.0805L132.045 98.5035C133.26 97.3892 133.93 95.9081 133.93 94.24H127.93ZM127.99 94.0805C127.969 94.1001 127.956 94.1085 127.952 94.1111C127.948 94.1134 127.947 94.1138 127.947 94.114C127.946 94.1143 127.938 94.1173 127.92 94.1205C127.901 94.1237 127.867 94.128 127.814 94.128V100.128C129.389 100.128 130.857 99.5922 132.045 98.5035L127.99 94.0805ZM127.814 94.128H105.622V100.128H127.814V94.128ZM102.622 97.128V100.548H108.622V97.128H102.622ZM102.622 100.548C102.622 103.816 103.675 106.716 105.966 108.935L110.141 104.625C109.189 103.703 108.622 102.448 108.622 100.548H102.622ZM106 108.967C108.398 111.219 111.614 112.136 115.198 112.136V106.136C112.6 106.136 111.053 105.482 110.108 104.593L106 108.967ZM115.198 112.136C118.681 112.136 121.837 111.37 124.2 109.377L120.331 104.791C119.451 105.534 117.896 106.136 115.198 106.136V112.136ZM124.2 109.377C126.569 107.378 127.698 104.652 127.698 101.536H121.698C121.698 103.081 121.205 104.054 120.331 104.791L124.2 109.377ZM124.897 104.529C125.897 104.463 126.444 104.673 126.777 104.906L130.218 99.9903C128.524 98.8046 126.538 98.4067 124.498 98.5426L124.897 104.529ZM126.918 104.999C126.993 105.045 127.029 105.079 127.042 105.092C127.048 105.099 127.051 105.103 127.052 105.103C127.053 105.104 127.053 105.105 127.053 105.105C127.053 105.106 127.055 105.109 127.058 105.117C127.061 105.125 127.066 105.138 127.071 105.16C127.081 105.204 127.094 105.284 127.094 105.412H133.094C133.094 103.122 132.079 101.137 130.077 99.8972L126.918 104.999ZM127.094 105.412C127.094 106.058 126.842 106.853 125.844 107.851L130.087 112.093C131.927 110.254 133.094 108.009 133.094 105.412H127.094ZM125.806 107.89C124.81 108.922 123.394 109.845 121.433 110.586L123.554 116.198C126.153 115.216 128.385 113.859 130.125 112.054L125.806 107.89ZM121.433 110.586C119.512 111.311 117.441 111.684 115.198 111.684V117.684C118.122 117.684 120.915 117.195 123.554 116.198L121.433 110.586ZM127.774 91.96V89.376H121.774V91.96H127.774ZM127.774 89.376C127.774 86.0512 126.568 83.1575 124.103 80.9742L120.124 85.4658C121.206 86.4239 121.774 87.6341 121.774 89.376H127.774ZM124.17 81.0354C121.773 78.7799 118.672 77.788 115.198 77.788V83.788C117.499 83.788 119.009 84.4174 120.057 85.4046L124.17 81.0354ZM115.198 77.788C111.72 77.788 108.615 78.7807 106.181 81.0059L110.23 85.4341C111.343 84.4166 112.899 83.788 115.198 83.788V77.788ZM106.184 81.0031C103.78 83.1952 102.622 86.0808 102.622 89.376H108.622C108.622 87.6045 109.186 86.3862 110.227 85.4369L106.184 81.0031ZM102.622 89.376V91.96H108.622V89.376H102.622ZM105.622 94.96H124.774V88.96H105.622V94.96ZM146.087 75.316H149.087V72.316H146.087V75.316ZM146.087 80.18L148.208 82.3013L149.087 81.4226V80.18H146.087ZM144.491 82.232L141.995 80.5679L140.63 82.6143L142.37 84.3533L144.491 82.232ZM144.795 82.536L142.674 84.6573L145.178 87.1614L147.236 84.2797L144.795 82.536ZM150.723 77.368L152.152 80.0059L152.173 79.9945L152.194 79.9827L150.723 77.368ZM168.355 78.964L170.498 76.8651L170.498 76.8651L168.355 78.964ZM170.255 113.544L171.999 115.985L172.009 115.978L172.019 115.97L170.255 113.544ZM165.315 114.684H162.315V117.684H165.315V114.684ZM163.263 83.296L165.422 81.2136L165.422 81.2136L163.263 83.296ZM151.711 82.384L152.984 85.1004L153.002 85.092L153.02 85.0834L151.711 82.384ZM147.759 85.576L145.348 83.7903L145.342 83.7981L145.337 83.8059L147.759 85.576ZM144.643 113.544L146.387 115.985L146.397 115.978L146.407 115.97L144.643 113.544ZM139.703 114.684H136.703V117.684H139.703V114.684ZM142.703 80.94C142.703 79.6334 143.056 79.172 143.282 78.9731C143.58 78.7102 144.334 78.316 146.087 78.316V72.316C143.583 72.316 141.145 72.8591 139.316 74.4709C137.414 76.1466 136.703 78.4972 136.703 80.94H142.703ZM143.087 75.316V80.18H149.087V75.316H143.087ZM143.965 78.0587C143.306 78.7178 142.648 79.5884 141.995 80.5679L146.987 83.8961C147.55 83.0516 147.955 82.5542 148.208 82.3013L143.965 78.0587ZM142.37 84.3533L142.674 84.6573L146.916 80.4147L146.612 80.1107L142.37 84.3533ZM147.236 84.2797C148.476 82.5442 150.097 81.1188 152.152 80.0059L149.294 74.7301C146.485 76.2518 144.154 78.2718 142.354 80.7923L147.236 84.2797ZM152.194 79.9827C154.169 78.8717 156.296 78.316 158.627 78.316V72.316C155.283 72.316 152.141 73.1283 149.252 74.7533L152.194 79.9827ZM158.627 78.316C162.102 78.316 164.508 79.323 166.211 81.0629L170.498 76.8651C167.439 73.741 163.359 72.316 158.627 72.316V78.316ZM166.211 81.0629C167.97 82.859 168.927 85.2101 168.927 88.388H174.927C174.927 83.8645 173.502 79.933 170.498 76.8651L166.211 81.0629ZM168.927 88.388V109.82H174.927V88.388H168.927ZM168.927 109.82C168.927 110.763 168.659 110.995 168.49 111.118L172.019 115.97C174.079 114.472 174.927 112.221 174.927 109.82H168.927ZM168.511 111.103C168.203 111.323 167.314 111.684 165.315 111.684V117.684C167.774 117.684 170.178 117.285 171.999 115.985L168.511 111.103ZM168.315 114.684V89.072H162.315V114.684H168.315ZM168.315 89.072C168.315 86.055 167.449 83.3157 165.422 81.2136L161.103 85.3784C161.812 86.1136 162.315 87.225 162.315 89.072H168.315ZM165.422 81.2136C163.288 79.0007 160.289 78.168 157.031 78.168V84.168C159.346 84.168 160.501 84.754 161.103 85.3784L165.422 81.2136ZM157.031 78.168C154.707 78.168 152.486 78.6743 150.402 79.6846L153.02 85.0834C154.28 84.4724 155.605 84.168 157.031 84.168V78.168ZM150.438 79.6676C148.39 80.6274 146.673 82.0017 145.348 83.7903L150.169 87.3617C150.871 86.4143 151.789 85.6606 152.984 85.1004L150.438 79.6676ZM145.337 83.8059C144.014 85.6158 143.315 87.6751 143.315 89.908H149.315C149.315 88.9996 149.578 88.1709 150.181 87.346L145.337 83.8059ZM143.315 89.908V109.82H149.315V89.908H143.315ZM143.315 109.82C143.315 110.763 143.047 110.995 142.878 111.118L146.407 115.97C148.467 114.472 149.315 112.221 149.315 109.82H143.315ZM142.899 111.103C142.591 111.323 141.702 111.684 139.703 111.684V117.684C142.162 117.684 144.566 117.285 146.387 115.985L142.899 111.103ZM142.703 114.684V80.94H136.703V114.684H142.703ZM183.837 111.188L181.849 113.435L181.86 113.444L181.87 113.454L183.837 111.188ZM184.065 92.72L185.99 95.0212L186.002 95.011L186.014 95.0007L184.065 92.72ZM207.093 94.316L204.876 96.3373L206.993 98.6588L209.214 96.4373L207.093 94.316ZM207.397 94.012L209.518 96.1333L211.549 94.1022L209.608 91.9848L207.397 94.012ZM205.497 92.112H202.497V93.4202L203.455 94.3104L205.497 92.112ZM203.065 82.916L201.089 85.1737L203.065 82.916ZM184.749 87.096L183.407 89.7793L186.003 91.0772L187.386 88.5259L184.749 87.096ZM182.697 85.5L180.256 87.2437L180.327 87.3439L180.407 87.4378L182.697 85.5ZM183.989 79.496L185.982 81.7382L186.005 81.718L186.027 81.6973L183.989 79.496ZM189.385 76.456L188.436 73.6099L188.426 73.6132L188.417 73.6165L189.385 76.456ZM207.853 78.888L205.883 81.1509L205.894 81.1599L205.904 81.1687L207.853 78.888ZM210.513 113.468L208.639 111.125L208.639 111.125L210.513 113.468ZM205.725 114.684H202.725V117.684H205.725V114.684ZM205.725 111.112L203.555 109.041L202.725 109.91V111.112H205.725ZM207.473 109.136L210.156 110.478L211.123 108.544L209.594 107.015L207.473 109.136ZM207.169 108.832L209.29 106.711L206.982 104.403L204.876 106.897L207.169 108.832ZM202.913 107.464L201.156 105.032L201.14 105.044L201.124 105.056L202.913 107.464ZM202.989 96.444L201.156 98.8193L201.156 98.8193L202.989 96.444ZM188.853 96.444L190.745 98.7724L190.753 98.7659L188.853 96.444ZM188.777 107.54L186.849 109.839L186.889 109.872L186.93 109.904L188.777 107.54ZM194.401 111.684C190.596 111.684 187.827 110.679 185.803 108.922L181.87 113.454C185.217 116.358 189.491 117.684 194.401 117.684V111.684ZM185.825 108.941C183.89 107.229 182.885 105.01 182.885 101.992H176.885C176.885 106.574 178.515 110.485 181.849 113.435L185.825 108.941ZM182.885 101.992C182.885 98.9689 183.93 96.7439 185.99 95.0212L182.14 90.4188C178.627 93.3574 176.885 97.3138 176.885 101.992H182.885ZM186.014 95.0007C188.134 93.1886 191.059 92.148 195.085 92.148V86.148C189.991 86.148 185.569 87.4887 182.116 90.4393L186.014 95.0007ZM195.085 92.148C199.146 92.148 202.33 93.5453 204.876 96.3373L209.31 92.2947C205.573 88.1961 200.751 86.148 195.085 86.148V92.148ZM209.214 96.4373L209.518 96.1333L205.276 91.8907L204.972 92.1947L209.214 96.4373ZM209.608 91.9848C208.988 91.3084 208.297 90.6179 207.538 89.9136L203.455 94.3104C204.116 94.9234 204.691 95.4996 205.185 96.0392L209.608 91.9848ZM208.497 92.112V88.92H202.497V92.112H208.497ZM208.497 88.92C208.497 85.6597 207.442 82.7601 205.04 80.6583L201.089 85.1737C201.93 85.9092 202.497 87.0123 202.497 88.92H208.497ZM205.04 80.6583C202.692 78.6037 199.584 77.788 196.149 77.788V83.788C198.693 83.788 200.195 84.391 201.089 85.1737L205.04 80.6583ZM196.149 77.788C193.094 77.788 190.291 78.3932 187.856 79.7401C185.405 81.0963 183.496 83.1132 182.112 85.6661L187.386 88.5259C188.282 86.8735 189.412 85.7363 190.761 84.9899C192.127 84.2342 193.884 83.788 196.149 83.788V77.788ZM186.09 84.4127C185.625 84.1797 185.269 83.8951 184.987 83.5622L180.407 87.4378C181.24 88.4222 182.252 89.2016 183.407 89.7793L186.09 84.4127ZM185.138 83.7563C185.021 83.5929 184.972 83.4829 184.952 83.427C184.934 83.376 184.937 83.362 184.937 83.372H178.937C178.937 84.8377 179.47 86.1438 180.256 87.2437L185.138 83.7563ZM184.937 83.372C184.937 83.1244 185.027 82.5873 185.982 81.7382L181.996 77.2538C180.215 78.8367 178.937 80.8836 178.937 83.372H184.937ZM186.027 81.6973C187.017 80.7805 188.42 79.9545 190.353 79.2955L188.417 73.6165C185.891 74.4775 183.697 75.6781 181.951 77.2947L186.027 81.6973ZM190.334 79.302C192.298 78.6474 194.358 78.316 196.529 78.316V72.316C193.734 72.316 191.032 72.7446 188.436 73.6099L190.334 79.302ZM196.529 78.316C200.858 78.316 203.851 79.3818 205.883 81.1509L209.822 76.6251C206.383 73.6315 201.826 72.316 196.529 72.316V78.316ZM205.904 81.1687C207.921 82.8928 209.033 85.2961 209.033 88.768H215.033C215.033 83.8292 213.358 79.6459 209.802 76.6073L205.904 81.1687ZM209.033 88.768V109.592H215.033V88.768H209.033ZM209.033 109.592C209.033 110.809 208.703 111.074 208.639 111.125L212.387 115.811C214.349 114.241 215.033 111.922 215.033 109.592H209.033ZM208.639 111.125C208.413 111.306 207.645 111.684 205.725 111.684V117.684C208.162 117.684 210.586 117.252 212.387 115.811L208.639 111.125ZM208.725 114.684V111.112H202.725V114.684H208.725ZM207.895 113.183C208.437 112.616 208.879 112.141 209.207 111.77C209.37 111.586 209.524 111.405 209.656 111.239C209.74 111.134 209.976 110.837 210.156 110.478L204.79 107.794C204.873 107.628 204.948 107.523 204.955 107.513C204.973 107.487 204.977 107.483 204.957 107.508C204.918 107.557 204.841 107.649 204.713 107.794C204.458 108.082 204.077 108.494 203.555 109.041L207.895 113.183ZM209.594 107.015L209.29 106.711L205.048 110.953L205.352 111.257L209.594 107.015ZM204.876 106.897C202.168 110.106 198.758 111.684 194.401 111.684V117.684C200.481 117.684 205.584 115.361 209.461 110.767L204.876 106.897ZM195.541 112.44C199.063 112.44 202.234 111.706 204.702 109.872L201.124 105.056C200.045 105.857 198.301 106.44 195.541 106.44V112.44ZM204.669 109.896C207.307 107.991 208.649 105.245 208.649 101.992H202.649C202.649 103.4 202.167 104.302 201.156 105.032L204.669 109.896ZM208.649 101.992C208.649 98.7754 207.365 96.031 204.821 94.0687L201.156 98.8193C202.159 99.593 202.649 100.547 202.649 101.992H208.649ZM204.821 94.0687C202.356 92.1666 199.199 91.392 195.693 91.392V97.392C198.368 97.392 200.075 97.9854 201.156 98.8193L204.821 94.0687ZM195.693 91.392C192.346 91.392 189.318 92.1873 186.953 94.1221L190.753 98.7659C191.732 97.9647 193.263 97.392 195.693 97.392V91.392ZM186.961 94.1157C184.535 96.0867 183.421 98.8496 183.421 101.992H189.421C189.421 100.372 189.928 99.436 190.745 98.7723L186.961 94.1157ZM183.421 101.992C183.421 105.101 184.485 107.856 186.849 109.839L190.705 105.241C189.927 104.589 189.421 103.646 189.421 101.992H183.421ZM186.93 109.904C189.255 111.721 192.248 112.44 195.541 112.44V106.44C193.057 106.44 191.541 105.893 190.624 105.176L186.93 109.904ZM230.06 128.592L231.12 125.786L231.12 125.786L230.06 128.592ZM224.664 125.096L226.898 123.093L226.88 123.074L226.863 123.055L224.664 125.096ZM223.98 117.572L222.316 115.076L222.283 115.098L222.25 115.121L223.98 117.572ZM227.628 116.66L230.626 116.532L230.503 113.66H227.628V116.66ZM230.364 122.284L232.238 119.941L232.23 119.935L230.364 122.284ZM247.16 110.58L245.208 108.302L244.16 109.2V110.58H247.16ZM248.756 108.908L251.214 110.628L252.33 109.034L251.329 107.365L248.756 108.908ZM248.528 108.528L251.101 106.985L249.055 103.574L246.337 106.479L248.528 108.528ZM242.98 112.404L241.739 109.673L241.727 109.678L241.715 109.684L242.98 112.404ZM225.652 110.352L223.659 112.594L223.681 112.614L223.703 112.633L225.652 110.352ZM223.448 81.7L220.933 80.065L220.928 80.073L220.923 80.081L223.448 81.7ZM228.768 76.988L227.451 74.2928L227.439 74.2987L227.427 74.3047L228.768 76.988ZM248.756 81.852L246.376 83.6785L248.459 86.392L250.878 83.9733L248.756 81.852ZM249.06 81.548L251.182 83.6693L253.08 81.7706L251.403 79.6739L249.06 81.548ZM247.54 79.648H244.54V80.7003L245.198 81.5221L247.54 79.648ZM248.984 76.456L250.764 78.8712L250.774 78.8636L250.784 78.856L248.984 76.456ZM253.848 75.316H256.848V72.316H253.848V75.316ZM251.72 122.36L249.158 120.8L249.138 120.833L249.119 120.866L251.72 122.36ZM245.944 127.908L247.35 130.558L247.35 130.558L245.944 127.908ZM244.424 106.02L246.235 108.412L246.255 108.397L246.275 108.381L244.424 106.02ZM244.424 83.22L242.582 85.5881L242.598 85.6002L242.614 85.6122L244.424 83.22ZM230.668 83.144L232.525 85.5005L232.547 85.4834L232.568 85.4659L230.668 83.144ZM230.592 106.096L228.658 108.389L228.675 108.404L228.693 108.418L230.592 106.096ZM237.432 126.884C235.13 126.884 233.035 126.509 231.12 125.786L229 131.398C231.645 132.398 234.465 132.884 237.432 132.884V126.884ZM231.12 125.786C229.186 125.055 227.827 124.13 226.898 123.093L222.431 127.099C224.136 129.001 226.374 130.406 229 131.398L231.12 125.786ZM226.863 123.055C225.974 122.097 225.688 121.256 225.688 120.46H219.688C219.688 123.008 220.72 125.258 222.466 127.137L226.863 123.055ZM225.688 120.46C225.688 120.122 225.744 119.988 225.75 119.975C225.752 119.97 225.747 119.982 225.732 120C225.717 120.019 225.706 120.026 225.71 120.023L222.25 115.121C220.393 116.432 219.688 118.441 219.688 120.46H225.688ZM225.644 120.068C225.907 119.893 226.479 119.66 227.628 119.66V113.66C225.737 113.66 223.878 114.035 222.316 115.076L225.644 120.068ZM224.631 116.788C224.766 119.957 226.032 122.675 228.499 124.633L232.23 119.935C231.251 119.157 230.693 118.126 230.626 116.532L224.631 116.788ZM228.49 124.627C230.935 126.582 234.015 127.412 237.432 127.412V121.412C234.972 121.412 233.341 120.823 232.238 119.941L228.49 124.627ZM237.432 127.412C241.114 127.412 244.431 126.521 246.816 124.211C249.219 121.883 250.16 118.616 250.16 114.988H244.16C244.16 117.642 243.481 119.088 242.641 119.901C241.783 120.732 240.236 121.412 237.432 121.412V127.412ZM250.16 114.988V110.58H244.16V114.988H250.16ZM249.113 112.858C249.926 112.16 250.662 111.418 251.214 110.628L246.299 107.188C246.142 107.412 245.813 107.784 245.208 108.302L249.113 112.858ZM251.329 107.365L251.101 106.985L245.956 110.071L246.184 110.451L251.329 107.365ZM246.337 106.479C245.172 107.725 243.659 108.8 241.739 109.673L244.222 115.135C246.76 113.981 248.946 112.472 250.719 110.577L246.337 106.479ZM241.715 109.684C239.901 110.527 238.127 110.924 236.368 110.924V116.924C239.068 116.924 241.702 116.307 244.245 115.124L241.715 109.684ZM236.368 110.924C232.584 110.924 229.746 109.904 227.601 108.071L223.703 112.633C227.132 115.563 231.438 116.924 236.368 116.924V110.924ZM227.645 108.11C225.605 106.296 224.548 103.948 224.548 100.776H218.548C218.548 105.508 220.227 109.544 223.659 112.594L227.645 108.11ZM224.548 100.776V88.54H218.548V100.776H224.548ZM224.548 88.54C224.548 86.4699 225.048 84.7636 225.974 83.319L220.923 80.081C219.315 82.5884 218.548 85.4421 218.548 88.54H224.548ZM225.964 83.335C226.981 81.7703 228.343 80.555 230.11 79.6713L227.427 74.3047C224.735 75.6504 222.551 77.5763 220.933 80.065L225.964 83.335ZM230.086 79.6832C231.924 78.7844 233.977 78.316 236.292 78.316V72.316C233.136 72.316 230.172 72.9622 227.451 74.2928L230.086 79.6832ZM236.292 78.316C240.217 78.316 243.531 79.9708 246.376 83.6785L251.136 80.0255C247.294 75.0185 242.298 72.316 236.292 72.316V78.316ZM250.878 83.9733L251.182 83.6693L246.939 79.4267L246.635 79.7307L250.878 83.9733ZM251.403 79.6739L249.883 77.7739L245.198 81.5221L246.718 83.4221L251.403 79.6739ZM250.54 79.648C250.54 79.2754 250.603 79.0918 250.635 79.0225C250.658 78.9701 250.686 78.9287 250.764 78.8712L247.205 74.0408C245.326 75.4252 244.54 77.4772 244.54 79.648H250.54ZM250.784 78.856C251.012 78.6849 251.83 78.316 253.848 78.316V72.316C251.408 72.316 248.983 72.7071 247.184 74.056L250.784 78.856ZM250.848 75.316V114.304H256.848V75.316H250.848ZM250.848 114.304C250.848 116.858 250.258 118.992 249.158 120.8L254.283 123.92C256.019 121.067 256.848 117.83 256.848 114.304H250.848ZM249.119 120.866C248.039 122.745 246.534 124.199 244.538 125.258L247.35 130.558C250.32 128.982 252.665 126.738 254.322 123.854L249.119 120.866ZM244.538 125.258C242.544 126.316 240.201 126.884 237.432 126.884V132.884C241.047 132.884 244.379 132.135 247.35 130.558L244.538 125.258ZM237.584 111.148C240.826 111.148 243.766 110.28 246.235 108.412L242.614 103.628C241.333 104.597 239.713 105.148 237.584 105.148V111.148ZM246.275 108.381C248.709 106.473 250.236 103.942 250.236 100.852H244.236C244.236 101.714 243.889 102.628 242.574 103.659L246.275 108.381ZM250.236 100.852V88.464H244.236V100.852H250.236ZM250.236 88.464C250.236 85.314 248.746 82.7282 246.235 80.8278L242.614 85.6122C243.852 86.5492 244.236 87.4594 244.236 88.464H250.236ZM246.266 80.8519C243.843 78.9673 240.94 78.092 237.736 78.092V84.092C239.802 84.092 241.358 84.6354 242.582 85.5881L246.266 80.8519ZM237.736 78.092C234.281 78.092 231.158 78.8672 228.769 80.8221L232.568 85.4659C233.523 84.6848 235.111 84.092 237.736 84.092V78.092ZM228.812 80.7875C226.293 82.7722 225.16 85.614 225.16 88.844H231.16C231.16 87.1086 231.7 86.1504 232.525 85.5005L228.812 80.7875ZM225.16 88.844V100.472H231.16V88.844H225.16ZM225.16 100.472C225.16 103.616 226.273 106.377 228.658 108.389L232.527 103.803C231.669 103.079 231.16 102.091 231.16 100.472H225.16ZM228.693 108.418C231.074 110.366 234.166 111.148 237.584 111.148V105.148C235.024 105.148 233.455 104.562 232.492 103.774L228.693 108.418ZM271.457 112.936L270.115 115.619L270.137 115.631L270.16 115.641L271.457 112.936ZM265.757 107.996L263.233 109.618L263.242 109.632L263.251 109.646L265.757 107.996ZM265.833 82.308L263.345 80.6306L263.332 80.6507L263.319 80.671L265.833 82.308ZM271.685 77.216L273.026 79.8993L273.037 79.8938L273.048 79.8883L271.685 77.216ZM287.645 77.14L286.28 79.8118L286.292 79.8176L286.303 79.8233L287.645 77.14ZM293.345 82.156L290.821 83.7783L290.835 83.7993L290.848 83.8201L293.345 82.156ZM294.561 96.292L296.588 98.5035L296.588 98.5035L294.561 96.292ZM270.165 97.128V94.128H267.165V97.128H270.165ZM272.597 106.78L270.509 108.935L270.526 108.951L270.543 108.967L272.597 106.78ZM289.241 101.536L289.041 98.5426L286.241 98.7293V101.536H289.241ZM293.041 102.448L291.32 104.906L291.389 104.954L291.461 104.999L293.041 102.448ZM292.509 109.972L290.387 107.851L290.368 107.87L290.349 107.89L292.509 109.972ZM287.037 113.392L285.976 110.586L285.976 110.586L287.037 113.392ZM289.317 91.96V94.96H292.317V91.96H289.317ZM286.657 83.22L284.6 85.4046L284.633 85.4357L284.667 85.4658L286.657 83.22ZM272.749 83.22L274.77 85.4369L274.773 85.4341L272.749 83.22ZM270.165 91.96H267.165V94.96H270.165V91.96ZM279.741 111.684C277.033 111.684 274.725 111.176 272.753 110.231L270.16 115.641C273.052 117.027 276.267 117.684 279.741 117.684V111.684ZM272.798 110.253C270.793 109.25 269.313 107.942 268.262 106.346L263.251 109.646C264.936 112.205 267.256 114.19 270.115 115.619L272.798 110.253ZM268.28 106.374C267.236 104.75 266.705 102.937 266.705 100.852H260.705C260.705 104.037 261.541 106.986 263.233 109.618L268.28 106.374ZM266.705 100.852V89.604H260.705V100.852H266.705ZM266.705 89.604C266.705 87.4797 267.256 85.62 268.347 83.945L263.319 80.671C261.572 83.3534 260.705 86.3576 260.705 89.604H266.705ZM268.32 83.9854C269.49 82.2503 271.04 80.8926 273.026 79.8993L270.343 74.5327C267.466 75.9714 265.114 78.0083 263.345 80.6306L268.32 83.9854ZM273.048 79.8883C275.093 78.8449 277.309 78.316 279.741 78.316V72.316C276.396 72.316 273.242 73.0537 270.321 74.5437L273.048 79.8883ZM279.741 78.316C282.193 78.316 284.355 78.8285 286.28 79.8118L289.009 74.4682C286.172 73.0195 283.064 72.316 279.741 72.316V78.316ZM286.303 79.8233C288.29 80.8169 289.766 82.1376 290.821 83.7783L295.868 80.5337C294.187 77.9184 291.863 75.8951 288.986 74.4567L286.303 79.8233ZM290.848 83.8201C291.922 85.4299 292.473 87.2517 292.473 89.376H298.473C298.473 86.1296 297.605 83.1381 295.841 80.4919L290.848 83.8201ZM292.473 89.376V94.24H298.473V89.376H292.473ZM292.473 94.24C292.473 94.2544 292.471 94.2482 292.476 94.2263C292.48 94.2038 292.489 94.1743 292.503 94.1426C292.517 94.1109 292.532 94.0876 292.542 94.074C292.551 94.0611 292.551 94.064 292.533 94.0805L296.588 98.5035C297.803 97.3892 298.473 95.9081 298.473 94.24H292.473ZM292.533 94.0805C292.512 94.1001 292.499 94.1085 292.495 94.1111C292.491 94.1134 292.49 94.1138 292.49 94.114C292.489 94.1143 292.481 94.1173 292.463 94.1205C292.444 94.1237 292.41 94.128 292.357 94.128V100.128C293.932 100.128 295.4 99.5922 296.588 98.5035L292.533 94.0805ZM292.357 94.128H270.165V100.128H292.357V94.128ZM267.165 97.128V100.548H273.165V97.128H267.165ZM267.165 100.548C267.165 103.816 268.218 106.716 270.509 108.935L274.684 104.625C273.732 103.703 273.165 102.448 273.165 100.548H267.165ZM270.543 108.967C272.941 111.219 276.157 112.136 279.741 112.136V106.136C277.143 106.136 275.596 105.482 274.651 104.593L270.543 108.967ZM279.741 112.136C283.224 112.136 286.38 111.37 288.743 109.377L284.874 104.791C283.994 105.534 282.439 106.136 279.741 106.136V112.136ZM288.743 109.377C291.112 107.378 292.241 104.652 292.241 101.536H286.241C286.241 103.081 285.748 104.054 284.874 104.791L288.743 109.377ZM289.44 104.529C290.44 104.463 290.987 104.673 291.32 104.906L294.761 99.9903C293.067 98.8046 291.081 98.4067 289.041 98.5426L289.44 104.529ZM291.461 104.999C291.536 105.045 291.572 105.079 291.585 105.092C291.591 105.099 291.594 105.103 291.595 105.103C291.596 105.104 291.596 105.105 291.596 105.105C291.596 105.106 291.598 105.109 291.601 105.117C291.604 105.125 291.609 105.138 291.614 105.16C291.624 105.204 291.637 105.284 291.637 105.412H297.637C297.637 103.122 296.622 101.137 294.62 99.8972L291.461 104.999ZM291.637 105.412C291.637 106.058 291.385 106.853 290.387 107.851L294.63 112.093C296.47 110.254 297.637 108.009 297.637 105.412H291.637ZM290.349 107.89C289.353 108.922 287.937 109.845 285.976 110.586L288.097 116.198C290.696 115.216 292.928 113.859 294.668 112.054L290.349 107.89ZM285.976 110.586C284.055 111.311 281.984 111.684 279.741 111.684V117.684C282.665 117.684 285.458 117.195 288.097 116.198L285.976 110.586ZM292.317 91.96V89.376H286.317V91.96H292.317ZM292.317 89.376C292.317 86.0512 291.111 83.1575 288.646 80.9742L284.667 85.4658C285.749 86.4239 286.317 87.6341 286.317 89.376H292.317ZM288.713 81.0354C286.316 78.7799 283.215 77.788 279.741 77.788V83.788C282.042 83.788 283.552 84.4174 284.6 85.4046L288.713 81.0354ZM279.741 77.788C276.263 77.788 273.158 78.7807 270.724 81.0059L274.773 85.4341C275.886 84.4166 277.442 83.788 279.741 83.788V77.788ZM270.727 81.0031C268.323 83.1952 267.165 86.0808 267.165 89.376H273.165C273.165 87.6045 273.729 86.3862 274.77 85.4369L270.727 81.0031ZM267.165 89.376V91.96H273.165V89.376H267.165ZM270.165 94.96H289.317V88.96H270.165V94.96ZM310.554 75.316H313.554V72.316H310.554V75.316ZM310.554 80.18L312.752 82.2214L313.554 81.3581V80.18H310.554ZM308.958 82.232L306.403 80.6597L305.161 82.6778L306.836 84.3533L308.958 82.232ZM309.262 82.536L307.14 84.6573L309.65 87.1668L311.707 84.2746L309.262 82.536ZM314.43 77.216L312.719 74.7519L312.719 74.7519L314.43 77.216ZM330.238 81.928L327.444 83.02L329.56 88.4363L332.747 83.5721L330.238 81.928ZM350.074 78.964L347.722 80.8261L347.743 80.8532L347.765 80.8797L350.074 78.964ZM351.366 113.544L353.109 115.985L353.12 115.978L353.13 115.97L351.366 113.544ZM346.502 114.684H343.502V117.684H346.502V114.684ZM344.982 83.068L342.571 84.8537L342.571 84.8537L344.982 83.068ZM334.342 83.372L336.394 85.5606L336.412 85.5438L336.429 85.5267L334.342 83.372ZM330.314 113.544L332.057 115.985L332.095 115.958L332.132 115.93L330.314 113.544ZM325.45 114.684H322.45V117.684H325.45V114.684ZM323.93 83.068L326.34 81.2823L326.34 81.2823L323.93 83.068ZM313.214 83.524L315.367 85.6124L313.214 83.524ZM309.11 113.544L310.853 115.985L310.864 115.978L310.874 115.97L309.11 113.544ZM304.246 114.684H301.246V117.684H304.246V114.684ZM307.246 80.94C307.246 79.6226 307.599 79.1573 307.819 78.9612C308.105 78.7068 308.834 78.316 310.554 78.316V72.316C308.068 72.316 305.644 72.8626 303.826 74.4828C301.944 76.1614 301.246 78.5081 301.246 80.94H307.246ZM307.554 75.316V80.18H313.554V75.316H307.554ZM308.355 78.1386C307.595 78.958 306.933 79.7977 306.403 80.6597L311.513 83.8043C311.793 83.3489 312.196 82.8207 312.752 82.2214L308.355 78.1386ZM306.836 84.3533L307.14 84.6573L311.383 80.4147L311.079 80.1107L306.836 84.3533ZM311.707 84.2746C313.177 82.2067 314.665 80.7053 316.141 79.6801L312.719 74.7519C310.547 76.26 308.589 78.3052 306.817 80.7974L311.707 84.2746ZM316.141 79.6801C317.426 78.788 318.922 78.316 320.738 78.316V72.316C317.791 72.316 315.082 73.1106 312.719 74.7519L316.141 79.6801ZM320.738 78.316C322.552 78.316 323.868 78.7431 324.857 79.4313C325.852 80.1236 326.749 81.2432 327.444 83.02L333.032 80.836C332.004 78.2048 330.457 76.0184 328.285 74.5067C326.107 72.9909 323.534 72.316 320.738 72.316V78.316ZM332.747 83.5721C335.143 79.9151 338.097 78.316 341.79 78.316V72.316C335.856 72.316 331.108 75.1249 327.728 80.2839L332.747 83.5721ZM341.79 78.316C344.635 78.316 346.46 79.2328 347.722 80.8261L352.426 77.1019C349.837 73.8312 346.139 72.316 341.79 72.316V78.316ZM347.765 80.8797C349.188 82.5944 350.038 84.9993 350.038 88.388H356.038C356.038 83.9741 354.912 80.0963 352.382 77.0483L347.765 80.8797ZM350.038 88.388V109.82H356.038V88.388H350.038ZM350.038 109.82C350.038 110.763 349.77 110.995 349.601 111.118L353.13 115.97C355.19 114.472 356.038 112.221 356.038 109.82H350.038ZM349.622 111.103C349.306 111.329 348.432 111.684 346.502 111.684V117.684C348.929 117.684 351.298 117.279 353.109 115.985L349.622 111.103ZM349.502 114.684V88.768H343.502V114.684H349.502ZM349.502 88.768C349.502 85.9595 348.921 83.3464 347.392 81.2823L342.571 84.8537C343.069 85.5256 343.502 86.7125 343.502 88.768H349.502ZM347.392 81.2823C345.659 78.9421 343.03 78.016 340.194 78.016V84.016C341.715 84.016 342.278 84.4579 342.571 84.8537L347.392 81.2823ZM340.194 78.016C337.143 78.016 334.442 79.0984 332.254 81.2173L336.429 85.5267C337.485 84.5042 338.684 84.016 340.194 84.016V78.016ZM332.29 81.1834C329.964 83.364 328.91 86.2621 328.91 89.528H334.91C334.91 87.6259 335.477 86.42 336.394 85.5606L332.29 81.1834ZM328.91 89.528V109.82H334.91V89.528H328.91ZM328.91 109.82C328.91 110.815 328.631 111.055 328.496 111.158L332.132 115.93C334.125 114.412 334.91 112.169 334.91 109.82H328.91ZM328.57 111.103C328.254 111.329 327.38 111.684 325.45 111.684V117.684C327.877 117.684 330.246 117.279 332.057 115.985L328.57 111.103ZM328.45 114.684V88.768H322.45V114.684H328.45ZM328.45 88.768C328.45 85.9595 327.869 83.3464 326.34 81.2823L321.519 84.8537C322.017 85.5256 322.45 86.7125 322.45 88.768H328.45ZM326.34 81.2823C324.607 78.9421 321.978 78.016 319.142 78.016V84.016C320.663 84.016 321.226 84.4579 321.519 84.8537L326.34 81.2823ZM319.142 78.016C316 78.016 313.247 79.1804 311.06 81.4356L315.367 85.6124C316.423 84.5236 317.622 84.016 319.142 84.016V78.016ZM311.06 81.4356C308.87 83.6941 307.782 86.5066 307.782 89.68H313.782C313.782 87.9894 314.315 86.6978 315.367 85.6124L311.06 81.4356ZM307.782 89.68V109.82H313.782V89.68H307.782ZM307.782 109.82C307.782 110.763 307.514 110.995 307.345 111.118L310.874 115.97C312.934 114.472 313.782 112.221 313.782 109.82H307.782ZM307.366 111.103C307.05 111.329 306.176 111.684 304.246 111.684V117.684C306.673 117.684 309.042 117.279 310.853 115.985L307.366 111.103ZM307.246 114.684V80.94H301.246V114.684H307.246ZM383.611 112.936L381.417 114.983L381.488 115.059L381.564 115.129L383.611 112.936ZM389.691 60.116H392.691V57.116H389.691V60.116ZM389.691 107.692H386.691V110.692H389.691V107.692ZM417.127 109.364L414.856 111.325L414.879 111.351L414.902 111.377L417.127 109.364ZM418.571 114V117H421.571V114H418.571ZM386.271 111C386.039 111 385.878 110.949 385.658 110.743L381.564 115.129C382.863 116.342 384.476 117 386.271 117V111ZM385.804 110.889C385.598 110.669 385.547 110.508 385.547 110.276H379.547C379.547 112.071 380.204 113.683 381.417 114.983L385.804 110.889ZM385.547 110.276V66.044H379.547V110.276H385.547ZM385.547 66.044C385.547 64.693 385.927 64.1735 386.248 63.9067C386.677 63.5509 387.65 63.116 389.691 63.116V57.116C386.969 57.116 384.369 57.6691 382.417 59.2893C380.357 60.9985 379.547 63.443 379.547 66.044H385.547ZM386.691 60.116V107.692H392.691V60.116H386.691ZM389.691 110.692H413.023V104.692H389.691V110.692ZM413.023 110.692C414.119 110.692 414.579 111.004 414.856 111.325L419.397 107.403C417.748 105.494 415.473 104.692 413.023 104.692V110.692ZM414.902 111.377C415.193 111.698 415.571 112.411 415.571 114H421.571C421.571 111.535 420.986 109.158 419.351 107.351L414.902 111.377ZM418.571 111H386.271V117H418.571V111ZM428.002 68.248L430.066 66.0701L430.066 66.0701L428.002 68.248ZM428.002 61.484L430.003 63.7197L430.035 63.6912L430.066 63.6619L428.002 61.484ZM435.07 61.484L433.007 63.6619L433.038 63.6912L433.07 63.7197L435.07 61.484ZM435.07 68.248L433.007 66.0701L433.007 66.0701L435.07 68.248ZM429.826 76.532L431.57 78.9732L431.58 78.9657L431.591 78.9582L429.826 76.532ZM434.842 75.316H437.842V72.316H434.842V75.316ZM433.17 113.544L434.914 115.985L434.924 115.978L434.935 115.97L433.17 113.544ZM428.23 114.684H425.23V117.684H428.23V114.684ZM431.574 66.616C430.864 66.616 430.43 66.4151 430.066 66.0701L425.939 70.4259C427.5 71.9049 429.447 72.616 431.574 72.616V66.616ZM430.066 66.0701C429.722 65.7446 429.558 65.4016 429.558 64.828H423.558C423.558 66.9904 424.357 68.9274 425.939 70.4259L430.066 66.0701ZM429.558 64.828C429.558 64.2565 429.717 63.975 430.003 63.7197L426.002 59.2483C424.362 60.7156 423.558 62.6635 423.558 64.828H429.558ZM430.066 63.6619C430.43 63.3169 430.864 63.116 431.574 63.116V57.116C429.447 57.116 427.5 57.8271 425.939 59.3061L430.066 63.6619ZM431.574 63.116C432.202 63.116 432.621 63.296 433.007 63.6619L437.134 59.3061C435.594 57.848 433.683 57.116 431.574 57.116V63.116ZM433.07 63.7197C433.355 63.975 433.514 64.2565 433.514 64.828H439.514C439.514 62.6635 438.711 60.7156 437.071 59.2483L433.07 63.7197ZM433.514 64.828C433.514 65.4016 433.351 65.7446 433.007 66.0701L437.134 70.4259C438.715 68.9274 439.514 66.9904 439.514 64.828H433.514ZM433.007 66.0701C432.621 66.436 432.202 66.616 431.574 66.616V72.616C433.683 72.616 435.594 71.884 437.134 70.4259L433.007 66.0701ZM431.23 80.18C431.23 79.177 431.51 79.0158 431.57 78.9732L428.083 74.0908C426.014 75.5682 425.23 77.839 425.23 80.18H431.23ZM431.591 78.9582C431.963 78.6874 432.887 78.316 434.842 78.316V72.316C432.339 72.316 429.919 72.7553 428.062 74.1058L431.591 78.9582ZM431.842 75.316V109.82H437.842V75.316H431.842ZM431.842 109.82C431.842 110.763 431.575 110.995 431.406 111.118L434.935 115.97C436.995 114.472 437.842 112.221 437.842 109.82H431.842ZM431.427 111.103C431.119 111.323 430.229 111.684 428.23 111.684V117.684C430.69 117.684 433.094 117.285 434.914 115.985L431.427 111.103ZM431.23 114.684V80.18H425.23V114.684H431.23ZM453.575 75.316H456.575V72.316H453.575V75.316ZM453.575 80.18L455.696 82.3013L456.575 81.4226V80.18H453.575ZM451.979 82.232L449.483 80.5679L448.119 82.6143L449.858 84.3533L451.979 82.232ZM452.283 82.536L450.162 84.6573L452.666 87.1614L454.724 84.2797L452.283 82.536ZM458.211 77.368L459.64 80.0059L459.661 79.9945L459.682 79.9827L458.211 77.368ZM475.843 78.964L477.987 76.8651L477.987 76.8651L475.843 78.964ZM477.743 113.544L479.487 115.985L479.497 115.978L479.508 115.97L477.743 113.544ZM472.803 114.684H469.803V117.684H472.803V114.684ZM470.751 83.296L472.911 81.2136L472.911 81.2136L470.751 83.296ZM459.199 82.384L460.472 85.1004L460.49 85.092L460.508 85.0834L459.199 82.384ZM455.247 85.576L452.836 83.7903L452.831 83.7981L452.825 83.8059L455.247 85.576ZM452.131 113.544L453.875 115.985L453.885 115.978L453.896 115.97L452.131 113.544ZM447.191 114.684H444.191V117.684H447.191V114.684ZM450.191 80.94C450.191 79.6334 450.544 79.172 450.77 78.9731C451.069 78.7102 451.823 78.316 453.575 78.316V72.316C451.072 72.316 448.634 72.8591 446.804 74.4709C444.902 76.1466 444.191 78.4972 444.191 80.94H450.191ZM450.575 75.316V80.18H456.575V75.316H450.575ZM451.454 78.0587C450.795 78.7178 450.136 79.5884 449.483 80.5679L454.475 83.8961C455.038 83.0516 455.444 82.5542 455.696 82.3013L451.454 78.0587ZM449.858 84.3533L450.162 84.6573L454.404 80.4147L454.1 80.1107L449.858 84.3533ZM454.724 84.2797C455.964 82.5442 457.585 81.1188 459.64 80.0059L456.782 74.7301C453.973 76.2518 451.642 78.2718 449.842 80.7923L454.724 84.2797ZM459.682 79.9827C461.657 78.8717 463.784 78.316 466.115 78.316V72.316C462.772 72.316 459.629 73.1283 456.74 74.7533L459.682 79.9827ZM466.115 78.316C469.59 78.316 471.996 79.323 473.7 81.0629L477.987 76.8651C474.928 73.741 470.848 72.316 466.115 72.316V78.316ZM473.7 81.0629C475.458 82.859 476.415 85.2101 476.415 88.388H482.415C482.415 83.8645 480.991 79.933 477.987 76.8651L473.7 81.0629ZM476.415 88.388V109.82H482.415V88.388H476.415ZM476.415 109.82C476.415 110.763 476.148 110.995 475.979 111.118L479.508 115.97C481.568 114.472 482.415 112.221 482.415 109.82H476.415ZM475.999 111.103C475.692 111.323 474.802 111.684 472.803 111.684V117.684C475.263 117.684 477.667 117.285 479.487 115.985L475.999 111.103ZM475.803 114.684V89.072H469.803V114.684H475.803ZM475.803 89.072C475.803 86.055 474.938 83.3157 472.911 81.2136L468.592 85.3784C469.301 86.1136 469.803 87.225 469.803 89.072H475.803ZM472.911 81.2136C470.777 79.0007 467.777 78.168 464.519 78.168V84.168C466.834 84.168 467.989 84.754 468.592 85.3784L472.911 81.2136ZM464.519 78.168C462.195 78.168 459.974 78.6743 457.89 79.6846L460.508 85.0834C461.768 84.4724 463.094 84.168 464.519 84.168V78.168ZM457.926 79.6676C455.878 80.6274 454.161 82.0017 452.836 83.7903L457.658 87.3617C458.36 86.4143 459.277 85.6606 460.472 85.1004L457.926 79.6676ZM452.825 83.8059C451.502 85.6158 450.803 87.6751 450.803 89.908H456.803C456.803 88.9996 457.067 88.1709 457.669 87.346L452.825 83.8059ZM450.803 89.908V109.82H456.803V89.908H450.803ZM450.803 109.82C450.803 110.763 450.536 110.995 450.367 111.118L453.896 115.97C455.956 114.472 456.803 112.221 456.803 109.82H450.803ZM450.387 111.103C450.08 111.323 449.19 111.684 447.191 111.684V117.684C449.651 117.684 452.055 117.285 453.875 115.985L450.387 111.103ZM450.191 114.684V80.94H444.191V114.684H450.191ZM492.921 81.32H495.921V78.32H492.921V81.32ZM486.613 81.32H483.613V84.32H486.613V81.32ZM492.921 76V79H495.921V76H492.921ZM495.733 63.308L497.96 65.3179L497.972 65.3046L497.984 65.2911L495.733 63.308ZM509.109 61.56L507.198 63.8729L507.229 63.8981L507.26 63.9225L509.109 61.56ZM509.869 67.336L508.363 69.9304L510.359 71.0892L511.99 69.4573L509.869 67.336ZM499.533 76H496.533V79H499.533V76ZM509.033 76H512.033V73H509.033V76ZM507.817 80.028L505.633 77.9719L505.599 78.007L505.568 78.0431L507.817 80.028ZM499.533 81.32V78.32H496.533V81.32H499.533ZM497.861 113.544L499.605 115.985L499.615 115.978L499.626 115.97L497.861 113.544ZM492.921 114.684H489.921V117.684H492.921V114.684ZM492.921 78.32H486.613V84.32H492.921V78.32ZM489.613 81.32C489.613 79.8307 489.905 79.2592 490.009 79.119C490.039 79.0787 490.048 79.0769 490.064 79.0696C490.098 79.0545 490.24 79 490.565 79V73C488.505 73 486.53 73.7408 485.193 75.541C483.98 77.1741 483.613 79.2626 483.613 81.32H489.613ZM490.565 79H492.921V73H490.565V79ZM495.921 76V71.364H489.921V76H495.921ZM495.921 71.364C495.921 68.6739 496.669 66.7486 497.96 65.3179L493.506 61.2981C491.048 64.022 489.921 67.4675 489.921 71.364H495.921ZM497.984 65.2911C499.12 64.0013 500.988 63.116 504.169 63.116V57.116C499.852 57.116 496.095 58.3587 493.482 61.3249L497.984 65.2911ZM504.169 63.116C505.88 63.116 506.753 63.505 507.198 63.8729L511.02 59.2471C509.134 57.6896 506.714 57.116 504.169 57.116V63.116ZM507.26 63.9225C507.874 64.4029 507.857 64.6601 507.857 64.752H513.857C513.857 62.4119 512.675 60.5411 510.958 59.1975L507.26 63.9225ZM507.857 64.752C507.857 64.9733 507.823 65.0843 507.808 65.1246C507.795 65.1572 507.782 65.1805 507.748 65.2147L511.99 69.4573C513.293 68.1547 513.857 66.4887 513.857 64.752H507.857ZM511.376 64.7416C509.345 63.5627 507.128 62.968 504.777 62.968V68.968C506.074 68.968 507.252 69.2852 508.363 69.9304L511.376 64.7416ZM504.777 62.968C502.504 62.968 500.133 63.5133 498.507 65.3429L502.991 69.3291C502.999 69.3204 503.069 69.2389 503.329 69.1506C503.608 69.056 504.069 68.968 504.777 68.968V62.968ZM498.507 65.3429C496.984 67.0567 496.533 69.3856 496.533 71.668H502.533C502.533 69.9983 502.893 69.4393 502.991 69.3291L498.507 65.3429ZM496.533 71.668V76H502.533V71.668H496.533ZM499.533 79H509.033V73H499.533V79ZM506.033 76C506.033 77.461 505.697 77.903 505.633 77.9719L510.002 82.0841C511.558 80.4303 512.033 78.187 512.033 76H506.033ZM505.568 78.0431C505.554 78.0588 505.505 78.1139 505.334 78.1759C505.143 78.2449 504.801 78.32 504.245 78.32V84.32C506.362 84.32 508.533 83.7507 510.067 82.0129L505.568 78.0431ZM504.245 78.32H499.533V84.32H504.245V78.32ZM496.533 81.32V109.82H502.533V81.32H496.533ZM496.533 109.82C496.533 110.763 496.266 110.995 496.097 111.118L499.626 115.97C501.686 114.472 502.533 112.221 502.533 109.82H496.533ZM496.117 111.103C495.81 111.323 494.92 111.684 492.921 111.684V117.684C495.381 117.684 497.785 117.285 499.605 115.985L496.117 111.103ZM495.921 114.684V81.32H489.921V114.684H495.921ZM515.892 111.188L513.904 113.435L513.914 113.444L513.925 113.454L515.892 111.188ZM516.12 92.72L518.044 95.0212L518.056 95.011L518.068 95.0007L516.12 92.72ZM539.148 94.316L536.931 96.3373L539.047 98.6588L541.269 96.4373L539.148 94.316ZM539.452 94.012L541.573 96.1333L543.604 94.1022L541.663 91.9848L539.452 94.012ZM537.552 92.112H534.552V93.4202L535.51 94.3104L537.552 92.112ZM535.12 82.916L533.144 85.1737L535.12 82.916ZM516.804 87.096L515.462 89.7793L518.058 91.0772L519.441 88.5259L516.804 87.096ZM514.752 85.5L512.31 87.2437L512.382 87.3439L512.461 87.4378L514.752 85.5ZM516.044 79.496L518.037 81.7382L518.059 81.718L518.082 81.6973L516.044 79.496ZM521.44 76.456L520.491 73.6099L520.481 73.6132L520.472 73.6165L521.44 76.456ZM539.908 78.888L537.938 81.1509L537.948 81.1599L537.959 81.1687L539.908 78.888ZM542.568 113.468L540.693 111.125L540.693 111.125L542.568 113.468ZM537.78 114.684H534.78V117.684H537.78V114.684ZM537.78 111.112L535.609 109.041L534.78 109.91V111.112H537.78ZM539.528 109.136L542.211 110.478L543.178 108.544L541.649 107.015L539.528 109.136ZM539.224 108.832L541.345 106.711L539.037 104.403L536.931 106.897L539.224 108.832ZM534.968 107.464L533.211 105.032L533.195 105.044L533.179 105.056L534.968 107.464ZM535.044 96.444L533.211 98.8193L533.211 98.8193L535.044 96.444ZM520.908 96.444L522.799 98.7724L522.807 98.7659L520.908 96.444ZM520.832 107.54L518.904 109.839L518.944 109.872L518.985 109.904L520.832 107.54ZM529.42 61.104L532.188 62.2608L532.191 62.2535L532.194 62.2462L529.42 61.104ZM539.756 58.52L542.226 60.2224L545.467 55.52H539.756V58.52ZM532.004 69.768L529.533 68.0656L529.489 68.1295L529.449 68.1957L532.004 69.768ZM530.484 71.06L531.432 73.9061L531.432 73.9061L530.484 71.06ZM527.596 71.364L527.502 74.3625L527.549 74.364H527.596V71.364ZM525.164 71.288L522.396 70.1312L520.716 74.1505L525.07 74.2865L525.164 71.288ZM526.456 111.684C522.651 111.684 519.882 110.679 517.858 108.922L513.925 113.454C517.272 116.358 521.545 117.684 526.456 117.684V111.684ZM517.879 108.941C515.944 107.229 514.94 105.01 514.94 101.992H508.94C508.94 106.574 510.569 110.485 513.904 113.435L517.879 108.941ZM514.94 101.992C514.94 98.9689 515.984 96.7439 518.044 95.0212L514.195 90.4188C510.681 93.3574 508.94 97.3138 508.94 101.992H514.94ZM518.068 95.0007C520.189 93.1886 523.114 92.148 527.14 92.148V86.148C522.045 86.148 517.623 87.4887 514.171 90.4393L518.068 95.0007ZM527.14 92.148C531.201 92.148 534.385 93.5453 536.931 96.3373L541.364 92.2947C537.627 88.1961 532.806 86.148 527.14 86.148V92.148ZM541.269 96.4373L541.573 96.1333L537.33 91.8907L537.026 92.1947L541.269 96.4373ZM541.663 91.9848C541.043 91.3084 540.351 90.6179 539.593 89.9136L535.51 94.3104C536.17 94.9234 536.745 95.4996 537.24 96.0392L541.663 91.9848ZM540.552 92.112V88.92H534.552V92.112H540.552ZM540.552 88.92C540.552 85.6597 539.497 82.7601 537.095 80.6583L533.144 85.1737C533.985 85.9092 534.552 87.0123 534.552 88.92H540.552ZM537.095 80.6583C534.747 78.6037 531.638 77.788 528.204 77.788V83.788C530.747 83.788 532.249 84.391 533.144 85.1737L537.095 80.6583ZM528.204 77.788C525.149 77.788 522.345 78.3932 519.911 79.7401C517.46 81.0963 515.55 83.1132 514.166 85.6661L519.441 88.5259C520.337 86.8735 521.467 85.7363 522.816 84.9899C524.182 84.2342 525.938 83.788 528.204 83.788V77.788ZM518.145 84.4127C517.679 84.1797 517.323 83.8951 517.042 83.5622L512.461 87.4378C513.294 88.4222 514.307 89.2016 515.462 89.7793L518.145 84.4127ZM517.193 83.7563C517.076 83.5929 517.027 83.4829 517.007 83.427C516.989 83.376 516.992 83.362 516.992 83.372H510.992C510.992 84.8377 511.525 86.1438 512.31 87.2437L517.193 83.7563ZM516.992 83.372C516.992 83.1244 517.081 82.5873 518.037 81.7382L514.05 77.2538C512.27 78.8367 510.992 80.8836 510.992 83.372H516.992ZM518.082 81.6973C519.072 80.7805 520.475 79.9545 522.408 79.2955L520.472 73.6165C517.946 74.4775 515.751 75.6781 514.005 77.2947L518.082 81.6973ZM522.388 79.302C524.352 78.6474 526.413 78.316 528.584 78.316V72.316C525.789 72.316 523.087 72.7446 520.491 73.6099L522.388 79.302ZM528.584 78.316C532.913 78.316 535.905 79.3818 537.938 81.1509L541.877 76.6251C538.438 73.6315 533.881 72.316 528.584 72.316V78.316ZM537.959 81.1687C539.976 82.8928 541.088 85.2961 541.088 88.768H547.088C547.088 83.8292 545.412 79.6459 541.856 76.6073L537.959 81.1687ZM541.088 88.768V109.592H547.088V88.768H541.088ZM541.088 109.592C541.088 110.809 540.758 111.074 540.693 111.125L544.442 115.811C546.404 114.241 547.088 111.922 547.088 109.592H541.088ZM540.693 111.125C540.468 111.306 539.7 111.684 537.78 111.684V117.684C540.217 117.684 542.64 117.252 544.442 115.811L540.693 111.125ZM540.78 114.684V111.112H534.78V114.684H540.78ZM539.95 113.183C540.492 112.616 540.933 112.141 541.262 111.77C541.424 111.586 541.579 111.405 541.711 111.239C541.794 111.134 542.031 110.837 542.211 110.478L536.844 107.794C536.927 107.628 537.003 107.523 537.009 107.513C537.027 107.487 537.031 107.483 537.012 107.508C536.973 107.557 536.896 107.649 536.768 107.794C536.513 108.082 536.132 108.494 535.609 109.041L539.95 113.183ZM541.649 107.015L541.345 106.711L537.102 110.953L537.406 111.257L541.649 107.015ZM536.931 106.897C534.222 110.106 530.813 111.684 526.456 111.684V117.684C532.535 117.684 537.638 115.361 541.516 110.767L536.931 106.897ZM527.596 112.44C531.118 112.44 534.288 111.706 536.757 109.872L533.179 105.056C532.1 105.857 530.356 106.44 527.596 106.44V112.44ZM536.724 109.896C539.361 107.991 540.704 105.245 540.704 101.992H534.704C534.704 103.4 534.222 104.302 533.211 105.032L536.724 109.896ZM540.704 101.992C540.704 98.7754 539.42 96.031 536.876 94.0687L533.211 98.8193C534.214 99.593 534.704 100.547 534.704 101.992H540.704ZM536.876 94.0687C534.41 92.1666 531.253 91.392 527.748 91.392V97.392C530.423 97.392 532.13 97.9854 533.211 98.8193L536.876 94.0687ZM527.748 91.392C524.401 91.392 521.373 92.1873 519.008 94.1221L522.807 98.7659C523.787 97.9647 525.318 97.392 527.748 97.392V91.392ZM519.016 94.1157C516.59 96.0867 515.476 98.8496 515.476 101.992H521.476C521.476 100.372 521.983 99.436 522.799 98.7723L519.016 94.1157ZM515.476 101.992C515.476 105.101 516.54 107.856 518.904 109.839L522.759 105.241C521.982 104.589 521.476 103.646 521.476 101.992H515.476ZM518.985 109.904C521.31 111.721 524.303 112.44 527.596 112.44V106.44C525.112 106.44 523.596 105.893 522.678 105.176L518.985 109.904ZM532.194 62.2462C532.211 62.2048 532.248 62.0772 532.626 61.9104C533.079 61.7106 533.904 61.52 535.272 61.52V55.52C531.808 55.52 528.094 56.4438 526.645 59.9617L532.194 62.2462ZM535.272 61.52H539.756V55.52H535.272V61.52ZM537.285 56.8176L529.533 68.0656L534.474 71.4704L542.226 60.2224L537.285 56.8176ZM529.449 68.1957C529.385 68.2993 529.354 68.3182 529.377 68.2992C529.388 68.2897 529.408 68.274 529.439 68.2569C529.469 68.2397 529.502 68.225 529.535 68.214L531.432 73.9061C532.84 73.4369 533.863 72.4698 534.559 71.3403L529.449 68.1957ZM529.535 68.2139C529.535 68.2138 529.524 68.2176 529.499 68.224C529.474 68.2303 529.438 68.2385 529.391 68.2477C529.295 68.2663 529.163 68.2864 528.991 68.3045C528.644 68.3411 528.184 68.364 527.596 68.364V74.364C528.969 74.364 530.34 74.27 531.432 73.9061L529.535 68.2139ZM527.689 68.3655L525.257 68.2895L525.07 74.2865L527.502 74.3625L527.689 68.3655ZM527.932 72.4448L532.188 62.2608L526.652 59.9472L522.396 70.1312L527.932 72.4448ZM558.017 111.644L555.735 113.592L555.747 113.606L555.759 113.62L558.017 111.644ZM555.357 81.32H558.357V78.32H555.357V81.32ZM548.289 81.32H545.289V84.32H548.289V81.32ZM549.429 77.368L547.124 75.4474L547.124 75.4474L549.429 77.368ZM555.433 76V79H558.433V76H555.433ZM557.029 65.132L558.773 67.5732L558.783 67.5657L558.793 67.5582L557.029 65.132ZM561.969 63.916H564.969V60.916H561.969V63.916ZM561.969 76H558.969V79H561.969V76ZM572.077 76H575.077V73H572.077V76ZM562.045 81.32V78.32H559.045V81.32H562.045ZM563.109 107.616L560.793 109.523L560.854 109.598L560.92 109.668L563.109 107.616ZM572.153 107.464L574.274 105.343L572.642 103.711L570.646 104.87L572.153 107.464ZM571.241 113.316L569.488 110.881L569.488 110.881L571.241 113.316ZM566.073 111.684C563.034 111.684 561.304 110.844 560.275 109.668L555.759 113.62C558.277 116.497 561.917 117.684 566.073 117.684V111.684ZM560.299 109.696C559.087 108.276 558.357 106.308 558.357 103.512H552.357C552.357 107.404 553.401 110.857 555.735 113.592L560.299 109.696ZM558.357 103.512V81.32H552.357V103.512H558.357ZM555.357 78.32H548.289V84.32H555.357V78.32ZM551.289 81.32C551.289 79.9903 551.587 79.4641 551.734 79.2886L547.124 75.4474C545.751 77.0959 545.289 79.2043 545.289 81.32H551.289ZM551.734 79.2886C551.857 79.141 552.008 79 552.545 79V73C550.448 73 548.521 73.771 547.124 75.4474L551.734 79.2886ZM552.545 79H555.433V73H552.545V79ZM558.433 76V68.78H552.433V76H558.433ZM558.433 68.78C558.433 67.777 558.713 67.6158 558.773 67.5732L555.285 62.6908C553.217 64.1682 552.433 66.439 552.433 68.78H558.433ZM558.793 67.5582C559.175 67.2807 560.083 66.916 561.969 66.916V60.916C559.498 60.916 557.112 61.3619 555.264 62.7058L558.793 67.5582ZM558.969 63.916V76H564.969V63.916H558.969ZM561.969 79H572.077V73H561.969V79ZM569.077 76C569.077 77.3844 568.759 77.8625 568.65 77.9831C568.596 78.0436 568.336 78.32 567.289 78.32V84.32C569.434 84.32 571.568 83.7097 573.11 81.9969C574.597 80.3442 575.077 78.1623 575.077 76H569.077ZM567.289 78.32H562.045V84.32H567.289V78.32ZM559.045 81.32V103.284H565.045V81.32H559.045ZM559.045 103.284C559.045 105.503 559.402 107.834 560.793 109.523L565.425 105.709C565.435 105.721 565.328 105.595 565.224 105.171C565.121 104.751 565.045 104.137 565.045 103.284H559.045ZM560.92 109.668C562.545 111.401 564.953 111.832 567.137 111.832V105.832C566.367 105.832 565.86 105.749 565.553 105.656C565.256 105.566 565.234 105.496 565.298 105.564L560.92 109.668ZM567.137 111.832C569.453 111.832 571.643 111.229 573.659 110.058L570.646 104.87C569.522 105.523 568.368 105.832 567.137 105.832V111.832ZM570.032 109.585C570.051 109.605 570.065 109.622 570.082 109.668C570.102 109.723 570.141 109.861 570.141 110.124H576.141C576.141 108.381 575.604 106.672 574.274 105.343L570.032 109.585ZM570.141 110.124C570.141 110.182 570.134 110.223 570.088 110.3C570.029 110.399 569.872 110.605 569.488 110.881L572.994 115.751C574.798 114.452 576.141 112.572 576.141 110.124H570.141ZM569.488 110.881C568.898 111.306 567.865 111.684 566.073 111.684V117.684C568.639 117.684 571.05 117.15 572.994 115.751L569.488 110.881ZM582.6 68.248L584.663 66.0701L584.663 66.0701L582.6 68.248ZM582.6 61.484L584.6 63.7197L584.632 63.6912L584.663 63.6619L582.6 61.484ZM589.668 61.484L587.605 63.6619L587.636 63.6912L587.668 63.7197L589.668 61.484ZM589.668 68.248L587.605 66.0701L587.605 66.0701L589.668 68.248ZM584.424 76.532L586.168 78.9732L586.178 78.9657L586.188 78.9582L584.424 76.532ZM589.44 75.316H592.44V72.316H589.44V75.316ZM587.768 113.544L589.512 115.985L589.522 115.978L589.532 115.97L587.768 113.544ZM582.828 114.684H579.828V117.684H582.828V114.684ZM586.172 66.616C585.462 66.616 585.027 66.4151 584.663 66.0701L580.537 70.4259C582.098 71.9049 584.045 72.616 586.172 72.616V66.616ZM584.663 66.0701C584.32 65.7446 584.156 65.4016 584.156 64.828H578.156C578.156 66.9904 578.955 68.9274 580.537 70.4259L584.663 66.0701ZM584.156 64.828C584.156 64.2565 584.315 63.975 584.6 63.7197L580.6 59.2483C578.96 60.7156 578.156 62.6635 578.156 64.828H584.156ZM584.663 63.6619C585.027 63.3169 585.462 63.116 586.172 63.116V57.116C584.045 57.116 582.098 57.8271 580.537 59.3061L584.663 63.6619ZM586.172 63.116C586.799 63.116 587.219 63.296 587.605 63.6619L591.731 59.3061C590.192 57.848 588.281 57.116 586.172 57.116V63.116ZM587.668 63.7197C587.953 63.975 588.112 64.2565 588.112 64.828H594.112C594.112 62.6635 593.308 60.7156 591.668 59.2483L587.668 63.7197ZM588.112 64.828C588.112 65.4016 587.948 65.7446 587.605 66.0701L591.731 70.4259C593.313 68.9274 594.112 66.9904 594.112 64.828H588.112ZM587.605 66.0701C587.219 66.436 586.799 66.616 586.172 66.616V72.616C588.281 72.616 590.192 71.884 591.731 70.4259L587.605 66.0701ZM585.828 80.18C585.828 79.177 586.108 79.0158 586.168 78.9732L582.68 74.0908C580.612 75.5682 579.828 77.839 579.828 80.18H585.828ZM586.188 78.9582C586.561 78.6874 587.485 78.316 589.44 78.316V72.316C586.936 72.316 584.516 72.7553 582.659 74.1058L586.188 78.9582ZM586.44 75.316V109.82H592.44V75.316H586.44ZM586.44 109.82C586.44 110.763 586.173 110.995 586.003 111.118L589.532 115.97C591.593 114.472 592.44 112.221 592.44 109.82H586.44ZM586.024 111.103C585.716 111.323 584.827 111.684 582.828 111.684V117.684C585.287 117.684 587.691 117.285 589.512 115.985L586.024 111.103ZM585.828 114.684V80.18H579.828V114.684H585.828ZM608.705 113.012L609.955 110.285L609.955 110.285L608.705 113.012ZM603.005 108.3L600.489 109.935L600.504 109.957L600.518 109.978L603.005 108.3ZM603.005 81.928L600.499 80.278L600.485 80.2996L600.471 80.3214L603.005 81.928ZM608.629 77.064L607.31 74.3693L607.31 74.3693L608.629 77.064ZM624.513 76.608L623.432 79.4064L623.469 79.421L623.508 79.4346L624.513 76.608ZM629.833 80.104L627.528 82.0246L627.528 82.0246L629.833 80.104ZM630.213 88.388L632.072 90.7426L632.079 90.7367L632.087 90.7306L630.213 88.388ZM626.413 89.376H623.413V92.1887L626.22 92.3698L626.413 89.376ZM623.753 83.448L621.768 85.6975L621.784 85.7118L621.8 85.7258L623.753 83.448ZM610.225 83.448L612.172 85.7305L612.191 85.7142L612.21 85.6975L610.225 83.448ZM610.301 106.704L608.387 109.014L608.407 109.031L608.427 109.047L610.301 106.704ZM623.905 106.552L621.952 104.274L621.936 104.288L621.92 104.302L623.905 106.552ZM626.565 100.7L626.378 97.7058L623.565 97.8816V100.7H626.565ZM630.441 101.688L628.582 104.043L628.65 104.096L628.72 104.146L630.441 101.688ZM630.061 109.896L632.365 111.817L632.365 111.817L630.061 109.896ZM624.741 113.468L625.746 116.295L625.773 116.285L625.801 116.274L624.741 113.468ZM616.989 111.684C614.263 111.684 611.938 111.194 609.955 110.285L607.455 115.739C610.335 117.059 613.533 117.684 616.989 117.684V111.684ZM609.955 110.285C607.975 109.377 606.523 108.149 605.491 106.622L600.518 109.978C602.223 112.504 604.571 114.417 607.455 115.739L609.955 110.285ZM605.52 106.665C604.541 105.159 604.029 103.43 604.029 101.384H598.029C598.029 104.506 598.834 107.388 600.489 109.935L605.52 106.665ZM604.029 101.384V89.072H598.029V101.384H604.029ZM604.029 89.072C604.029 86.9014 604.553 85.0877 605.538 83.5346L600.471 80.3214C598.821 82.923 598.029 85.8719 598.029 89.072H604.029ZM605.51 83.578C606.564 81.9784 608.015 80.7043 609.947 79.7586L607.31 74.3693C604.48 75.7544 602.182 77.7229 600.499 80.278L605.51 83.578ZM609.947 79.7586C611.855 78.825 614.128 78.316 616.837 78.316V72.316C613.365 72.316 610.165 72.9723 607.31 74.3693L609.947 79.7586ZM616.837 78.316C619.43 78.316 621.611 78.7029 623.432 79.4064L625.594 73.8096C622.956 72.7904 620.02 72.316 616.837 72.316V78.316ZM623.508 79.4346C625.394 80.1052 626.675 81.0007 627.528 82.0246L632.137 78.1834C630.457 76.1673 628.192 74.7321 625.518 73.7814L623.508 79.4346ZM627.528 82.0246C628.359 83.0217 628.733 84.0693 628.733 85.272H634.733C634.733 82.624 633.84 80.2263 632.137 78.1834L627.528 82.0246ZM628.733 85.272C628.733 85.6017 628.661 85.7878 628.339 86.0454L632.087 90.7306C633.792 89.3668 634.733 87.4757 634.733 85.272H628.733ZM628.354 86.0333C628.123 86.2158 627.653 86.4498 626.606 86.3822L626.22 92.3698C628.314 92.5049 630.377 92.0802 632.072 90.7426L628.354 86.0333ZM629.413 89.376C629.413 86.1096 628.174 83.2865 625.705 81.1702L621.8 85.7258C622.878 86.6495 623.413 87.7784 623.413 89.376H629.413ZM625.738 81.1985C623.356 79.0969 620.343 78.168 616.989 78.168V84.168C619.207 84.168 620.704 84.7591 621.768 85.6975L625.738 81.1985ZM616.989 78.168C613.634 78.168 610.622 79.0969 608.24 81.1985L612.21 85.6975C613.273 84.7591 614.77 84.168 616.989 84.168V78.168ZM608.278 81.1655C605.848 83.2377 604.641 86.0162 604.641 89.224H610.641C610.641 87.6691 611.156 86.597 612.172 85.7305L608.278 81.1655ZM604.641 89.224V101.08H610.641V89.224H604.641ZM604.641 101.08C604.641 104.264 605.934 106.981 608.387 109.014L612.215 104.394C611.121 103.488 610.641 102.456 610.641 101.08H604.641ZM608.427 109.047C610.844 110.981 613.832 111.832 617.141 111.832V105.832C614.876 105.832 613.304 105.265 612.175 104.361L608.427 109.047ZM617.141 111.832C620.495 111.832 623.508 110.903 625.89 108.802L621.92 104.302C620.856 105.241 619.359 105.832 617.141 105.832V111.832ZM625.857 108.83C628.31 106.727 629.565 103.937 629.565 100.7H623.565C623.565 102.225 623.046 103.337 621.952 104.274L625.857 108.83ZM626.752 103.694C627.88 103.624 628.366 103.872 628.582 104.043L632.3 99.3334C630.59 97.9838 628.493 97.5737 626.378 97.7058L626.752 103.694ZM628.72 104.146C628.857 104.241 628.887 104.301 628.897 104.322C628.911 104.349 628.961 104.459 628.961 104.728H634.961C634.961 102.507 634.036 100.543 632.161 99.2303L628.72 104.146ZM628.961 104.728C628.961 105.931 628.587 106.978 627.756 107.975L632.365 111.817C634.068 109.774 634.961 107.376 634.961 104.728H628.961ZM627.756 107.975C626.889 109.015 625.588 109.941 623.681 110.662L625.801 116.274C628.454 115.272 630.699 113.817 632.365 111.817L627.756 107.975ZM623.736 110.641C621.834 111.318 619.599 111.684 616.989 111.684V117.684C620.155 117.684 623.088 117.24 625.746 116.295L623.736 110.641ZM641.618 111.188L639.63 113.435L639.641 113.444L639.652 113.454L641.618 111.188ZM641.846 92.72L643.771 95.0212L643.783 95.011L643.795 95.0007L641.846 92.72ZM664.874 94.316L662.657 96.3373L664.774 98.6588L666.995 96.4373L664.874 94.316ZM665.178 94.012L667.299 96.1333L669.33 94.1022L667.39 91.9848L665.178 94.012ZM663.278 92.112H660.278V93.4202L661.237 94.3104L663.278 92.112ZM660.846 82.916L658.871 85.1737L660.846 82.916ZM642.53 87.096L641.188 89.7793L643.784 91.0772L645.167 88.5259L642.53 87.096ZM640.478 85.5L638.037 87.2437L638.108 87.3439L638.188 87.4378L640.478 85.5ZM641.77 79.496L643.763 81.7382L643.786 81.718L643.808 81.6973L641.77 79.496ZM647.166 76.456L646.217 73.6099L646.208 73.6132L646.198 73.6165L647.166 76.456ZM665.634 78.888L663.665 81.1509L663.675 81.1599L663.685 81.1687L665.634 78.888ZM668.294 113.468L666.42 111.125L666.42 111.125L668.294 113.468ZM663.506 114.684H660.506V117.684H663.506V114.684ZM663.506 111.112L661.336 109.041L660.506 109.91V111.112H663.506ZM665.254 109.136L667.937 110.478L668.904 108.544L667.375 107.015L665.254 109.136ZM664.95 108.832L667.071 106.711L664.763 104.403L662.658 106.897L664.95 108.832ZM660.694 107.464L658.938 105.032L658.921 105.044L658.905 105.056L660.694 107.464ZM660.77 96.444L658.938 98.8193L658.938 98.8193L660.77 96.444ZM646.634 96.444L648.526 98.7724L648.534 98.7659L646.634 96.444ZM646.558 107.54L644.63 109.839L644.67 109.872L644.711 109.904L646.558 107.54ZM652.182 111.684C648.378 111.684 645.608 110.679 643.585 108.922L639.652 113.454C642.998 116.358 647.272 117.684 652.182 117.684V111.684ZM643.606 108.941C641.671 107.229 640.666 105.01 640.666 101.992H634.666C634.666 106.574 636.296 110.485 639.63 113.435L643.606 108.941ZM640.666 101.992C640.666 98.9689 641.711 96.7439 643.771 95.0212L639.921 90.4188C636.408 93.3574 634.666 97.3138 634.666 101.992H640.666ZM643.795 95.0007C645.916 93.1886 648.84 92.148 652.866 92.148V86.148C647.772 86.148 643.35 87.4887 639.897 90.4393L643.795 95.0007ZM652.866 92.148C656.928 92.148 660.112 93.5453 662.657 96.3373L667.091 92.2947C663.354 88.1961 658.533 86.148 652.866 86.148V92.148ZM666.995 96.4373L667.299 96.1333L663.057 91.8907L662.753 92.1947L666.995 96.4373ZM667.39 91.9848C666.769 91.3084 666.078 90.6179 665.319 89.9136L661.237 94.3104C661.897 94.9234 662.472 95.4996 662.967 96.0392L667.39 91.9848ZM666.278 92.112V88.92H660.278V92.112H666.278ZM666.278 88.92C666.278 85.6597 665.224 82.7601 662.822 80.6583L658.871 85.1737C659.711 85.9092 660.278 87.0123 660.278 88.92H666.278ZM662.822 80.6583C660.474 78.6037 657.365 77.788 653.93 77.788V83.788C656.474 83.788 657.976 84.391 658.871 85.1737L662.822 80.6583ZM653.93 77.788C650.875 77.788 648.072 78.3932 645.638 79.7401C643.187 81.0963 641.277 83.1132 639.893 85.6661L645.167 88.5259C646.063 86.8735 647.194 85.7363 648.543 84.9899C649.908 84.2342 651.665 83.788 653.93 83.788V77.788ZM643.872 84.4127C643.406 84.1797 643.05 83.8951 642.768 83.5622L638.188 87.4378C639.021 88.4222 640.033 89.2016 641.188 89.7793L643.872 84.4127ZM642.919 83.7563C642.803 83.5929 642.753 83.4829 642.733 83.427C642.715 83.376 642.718 83.362 642.718 83.372H636.718C636.718 84.8377 637.251 86.1438 638.037 87.2437L642.919 83.7563ZM642.718 83.372C642.718 83.1244 642.808 82.5873 643.763 81.7382L639.777 77.2538C637.996 78.8367 636.718 80.8836 636.718 83.372H642.718ZM643.808 81.6973C644.798 80.7805 646.201 79.9545 648.134 79.2955L646.198 73.6165C643.672 74.4775 641.478 75.6781 639.732 77.2947L643.808 81.6973ZM648.115 79.302C650.079 78.6474 652.139 78.316 654.31 78.316V72.316C651.516 72.316 648.813 72.7446 646.217 73.6099L648.115 79.302ZM654.31 78.316C658.64 78.316 661.632 79.3818 663.665 81.1509L667.604 76.6251C664.164 73.6315 659.607 72.316 654.31 72.316V78.316ZM663.685 81.1687C665.703 82.8928 666.814 85.2961 666.814 88.768H672.814C672.814 83.8292 671.139 79.6459 667.583 76.6073L663.685 81.1687ZM666.814 88.768V109.592H672.814V88.768H666.814ZM666.814 109.592C666.814 110.809 666.484 111.074 666.42 111.125L670.168 115.811C672.131 114.241 672.814 111.922 672.814 109.592H666.814ZM666.42 111.125C666.195 111.306 665.426 111.684 663.506 111.684V117.684C665.943 117.684 668.367 117.252 670.168 115.811L666.42 111.125ZM666.506 114.684V111.112H660.506V114.684H666.506ZM665.676 113.183C666.218 112.616 666.66 112.141 666.988 111.77C667.151 111.586 667.305 111.405 667.437 111.239C667.521 111.134 667.757 110.837 667.937 110.478L662.571 107.794C662.654 107.628 662.729 107.523 662.736 107.513C662.754 107.487 662.758 107.483 662.739 107.508C662.7 107.557 662.623 107.649 662.494 107.794C662.24 108.082 661.858 108.494 661.336 109.041L665.676 113.183ZM667.375 107.015L667.071 106.711L662.829 110.953L663.133 111.257L667.375 107.015ZM662.658 106.897C659.949 110.106 656.54 111.684 652.182 111.684V117.684C658.262 117.684 663.365 115.361 667.243 110.767L662.658 106.897ZM653.322 112.44C656.844 112.44 660.015 111.706 662.483 109.872L658.905 105.056C657.827 105.857 656.083 106.44 653.322 106.44V112.44ZM662.451 109.896C665.088 107.991 666.43 105.245 666.43 101.992H660.43C660.43 103.4 659.948 104.302 658.938 105.032L662.451 109.896ZM666.43 101.992C666.43 98.7754 665.146 96.031 662.603 94.0687L658.938 98.8193C659.941 99.593 660.43 100.547 660.43 101.992H666.43ZM662.603 94.0687C660.137 92.1666 656.98 91.392 653.474 91.392V97.392C656.15 97.392 657.857 97.9854 658.938 98.8193L662.603 94.0687ZM653.474 91.392C650.128 91.392 647.099 92.1873 644.734 94.1221L648.534 98.7659C649.513 97.9647 651.045 97.392 653.474 97.392V91.392ZM644.742 94.1157C642.316 96.0867 641.202 98.8496 641.202 101.992H647.202C647.202 100.372 647.709 99.436 648.526 98.7723L644.742 94.1157ZM641.202 101.992C641.202 105.101 642.266 107.856 644.63 109.839L648.486 105.241C647.708 104.589 647.202 103.646 647.202 101.992H641.202ZM644.711 109.904C647.036 111.721 650.029 112.44 653.322 112.44V106.44C650.839 106.44 649.323 105.893 648.405 105.176L644.711 109.904Z" fill="white" fill-opacity="0.89" mask="url(#path-2-outside-1_9_2)"/>
</svg>
