<svg width="355" height="235" viewBox="0 0 355 235" fill="none" xmlns="http://www.w3.org/2000/svg">
<rect x="88" y="87" width="229" height="48" fill="#FFC0B7"/>
<path d="M102.312 125.283L88 115V148H317V115L302.687 125.283C294.135 131.427 282.615 131.427 274.062 125.283C265.51 119.138 253.99 119.138 245.438 125.283C236.885 131.427 225.365 131.427 216.812 125.283C208.26 119.138 196.74 119.138 188.187 125.283C179.635 131.427 168.115 131.427 159.562 125.283C151.01 119.138 139.49 119.138 130.937 125.283C122.385 131.427 110.865 131.427 102.312 125.283Z" fill="#FFFB97"/>
<path d="M101.09 96.4762L88 88.7971V79H317V88.7971L301.271 97.398C292.659 102.108 282.196 101.904 273.773 96.8624C265.416 91.86 255.044 91.6181 246.463 96.2254L244.017 97.5384C235.397 102.166 224.979 101.923 216.584 96.8986C208.189 91.8737 197.771 91.6307 189.151 96.2587L186.767 97.5384C178.147 102.166 167.729 101.923 159.334 96.8986C150.939 91.8737 140.521 91.6307 131.901 96.2587L130.46 97.0319C121.243 101.981 110.113 101.77 101.09 96.4762Z" fill="#FFE8D2"/>
<ellipse cx="116.5" cy="115" rx="6.5" ry="7" fill="black"/>
<path d="M168 114C168 117.866 165.09 121 161.5 121C157.91 121 155 117.866 155 114C155 110.134 157.91 107 161.5 107C164.272 107 166.639 108.869 167.573 111.5C167.849 112.276 168 113.119 168 114Z" fill="black"/>
<path d="M158.128 27.7651C152.237 60.8391 153.025 78.7126 158.128 110H164.977C159.353 79.5915 158.607 61.8232 164.977 27.7651C165.953 16.5271 170.102 10.6928 183 1C165.244 5.43684 161.372 15.3523 158.128 27.7651Z" fill="black" stroke="black"/>
<path d="M151.5 109L154.5 114L170 107.5L166.5 102L151.5 109Z" fill="#FFC0B7"/>
<path d="M112.27 28.7651C106.176 61.8391 106.992 79.7126 112.27 111H119.355C113.538 80.5915 112.765 62.8232 119.355 28.7651C120.365 17.5271 124.657 11.6928 138 2C119.632 6.43684 115.627 16.3523 112.27 28.7651Z" fill="black" stroke="black"/>
<path d="M200.27 27.7651C194.176 60.8391 194.992 78.7126 200.27 110H207.355C201.538 79.5915 200.765 61.8232 207.355 27.7651C208.365 16.5271 212.657 10.6928 226 1C207.632 5.43684 203.627 15.3523 200.27 27.7651Z" fill="black" stroke="black"/>
<path d="M243.128 28.7651C237.237 61.8391 238.025 79.7126 243.128 111H249.977C244.353 80.5915 243.607 62.8232 249.977 28.7651C250.953 17.5271 255.102 11.6928 268 2C250.244 6.43684 246.372 16.3523 243.128 28.7651Z" fill="black" stroke="black"/>
<path d="M285.27 27.7651C279.176 60.8391 279.992 78.7126 285.27 110H292.355C286.538 79.5915 285.765 61.8232 292.355 27.7651C293.365 16.5271 297.657 10.6928 311 1C292.632 5.43684 288.627 15.3523 285.27 27.7651Z" fill="black" stroke="black"/>
<ellipse cx="204.5" cy="114" rx="6.5" ry="7" fill="black"/>
<ellipse cx="246.5" cy="114" rx="6.5" ry="7" fill="black"/>
<ellipse cx="289.5" cy="114" rx="6.5" ry="7" fill="black"/>
<circle cx="116.5" cy="114.5" r="13" stroke="#44C4D9"/>
<path d="M104 117L58.5 168.5" stroke="#44C4D9"/>
<path d="M5.525 178.693H1.508V182.151H4.745V182.918H1.508V187H0.65V177.9H5.525V178.693ZM8.79491 187.156C8.17957 187.156 7.63357 187.022 7.15691 186.753C6.68891 186.476 6.32057 186.094 6.05191 185.609C5.78324 185.115 5.64891 184.543 5.64891 183.893C5.64891 183.13 5.78757 182.493 6.06491 181.982C6.35091 181.471 6.73224 181.085 7.20891 180.825C7.68557 180.565 8.21424 180.435 8.79491 180.435C9.41024 180.435 9.95624 180.565 10.4329 180.825C10.9096 181.085 11.2779 181.471 11.5379 181.982C11.8066 182.493 11.9409 183.13 11.9409 183.893C11.9409 184.543 11.8066 185.115 11.5379 185.609C11.2779 186.094 10.9096 186.476 10.4329 186.753C9.95624 187.022 9.41024 187.156 8.79491 187.156ZM8.79491 186.324C9.28891 186.324 9.70924 186.216 10.0559 185.999C10.4026 185.782 10.6626 185.492 10.8359 185.128C11.0179 184.755 11.1089 184.344 11.1089 183.893C11.1089 183.13 10.9096 182.502 10.5109 182.008C10.1122 181.514 9.54024 181.267 8.79491 181.267C8.28357 181.267 7.85457 181.384 7.50791 181.618C7.16991 181.843 6.91424 182.155 6.74091 182.554C6.56757 182.944 6.48091 183.39 6.48091 183.893C6.48091 184.352 6.56757 184.768 6.74091 185.141C6.91424 185.505 7.16991 185.795 7.50791 186.012C7.85457 186.22 8.28357 186.324 8.79491 186.324ZM13.9159 184.244V181.293H12.7329V180.5H13.9159V177.9H14.7739V180.5H15.9699V181.293H14.7739V184.244C14.7739 184.807 14.7826 185.228 14.7999 185.505C14.8259 185.774 14.8866 185.956 14.9819 186.051C15.0859 186.138 15.2679 186.181 15.5279 186.181H15.8789V187.039H15.5539C15.1812 187.039 14.8866 187.004 14.6699 186.935C14.4532 186.857 14.2886 186.723 14.1759 186.532C14.0719 186.333 14.0026 186.051 13.9679 185.687C13.9332 185.314 13.9159 184.833 13.9159 184.244ZM20.0176 187.156C19.4022 187.156 18.8562 187.022 18.3796 186.753C17.9116 186.476 17.5432 186.094 17.2746 185.609C17.0059 185.115 16.8716 184.543 16.8716 183.893C16.8716 183.13 17.0102 182.493 17.2876 181.982C17.5736 181.471 17.9549 181.085 18.4316 180.825C18.9082 180.565 19.4369 180.435 20.0176 180.435C20.6329 180.435 21.1789 180.565 21.6556 180.825C22.1322 181.085 22.5006 181.471 22.7606 181.982C23.0292 182.493 23.1636 183.13 23.1636 183.893C23.1636 184.543 23.0292 185.115 22.7606 185.609C22.5006 186.094 22.1322 186.476 21.6556 186.753C21.1789 187.022 20.6329 187.156 20.0176 187.156ZM20.0176 186.324C20.5116 186.324 20.9319 186.216 21.2786 185.999C21.6252 185.782 21.8852 185.492 22.0586 185.128C22.2406 184.755 22.3316 184.344 22.3316 183.893C22.3316 183.13 22.1322 182.502 21.7336 182.008C21.3349 181.514 20.7629 181.267 20.0176 181.267C19.5062 181.267 19.0772 181.384 18.7306 181.618C18.3926 181.843 18.1369 182.155 17.9636 182.554C17.7902 182.944 17.7036 183.39 17.7036 183.893C17.7036 184.352 17.7902 184.768 17.9636 185.141C18.1369 185.505 18.3926 185.795 18.7306 186.012C19.0772 186.22 19.5062 186.324 20.0176 186.324ZM26.6205 187.026C25.7625 186.974 25.1039 186.645 24.6445 186.038C24.1852 185.431 23.9555 184.656 23.9555 183.711C23.9555 183.061 24.0725 182.493 24.3065 182.008C24.5405 181.514 24.8785 181.128 25.3205 180.851C25.7712 180.574 26.3085 180.435 26.9325 180.435C27.2012 180.435 27.4742 180.452 27.7515 180.487C28.0289 180.513 28.3539 180.613 28.7265 180.786V177.9H29.5715V187H28.7265V186.363C28.4752 186.545 28.1719 186.71 27.8165 186.857C27.4699 187.004 27.0712 187.061 26.6205 187.026ZM28.7265 185.635V181.605C28.0419 181.319 27.4005 181.206 26.8025 181.267C26.2132 181.328 25.7365 181.562 25.3725 181.969C25.0085 182.376 24.8265 182.957 24.8265 183.711C24.8265 184.292 24.9392 184.781 25.1645 185.18C25.3899 185.579 25.6889 185.869 26.0615 186.051C26.4429 186.224 26.8632 186.281 27.3225 186.22C27.7819 186.159 28.2499 185.964 28.7265 185.635ZM36.8575 183.971H31.6315C31.6402 184.586 31.7919 185.08 32.0865 185.453C32.3812 185.826 32.7582 186.077 33.2175 186.207C33.6855 186.328 34.1882 186.333 34.7255 186.22C35.2629 186.107 35.7785 185.869 36.2725 185.505L36.7145 186.181C36.3072 186.493 35.8782 186.723 35.4275 186.87C34.9769 187.017 34.5219 187.1 34.0625 187.117C32.9879 187.152 32.1602 186.853 31.5795 186.22C30.9989 185.587 30.7085 184.708 30.7085 183.581C30.7085 182.61 30.9772 181.843 31.5145 181.28C32.0519 180.717 32.8449 180.435 33.8935 180.435C34.5609 180.435 35.1329 180.574 35.6095 180.851C36.0949 181.128 36.4502 181.54 36.6755 182.086C36.7795 182.337 36.8445 182.623 36.8705 182.944C36.8965 183.265 36.8922 183.607 36.8575 183.971ZM33.9195 181.241C33.5122 181.241 33.1352 181.31 32.7885 181.449C32.4419 181.588 32.1602 181.804 31.9435 182.099C31.7355 182.385 31.6315 182.762 31.6315 183.23H36.0775C36.0775 182.571 35.8825 182.077 35.4925 181.748C35.1025 181.41 34.5782 181.241 33.9195 181.241ZM39.0353 189.6H38.1773V180.5H39.0353V180.89C39.6593 180.587 40.2573 180.435 40.8293 180.435C41.41 180.435 41.9257 180.569 42.3763 180.838C42.8357 181.107 43.1953 181.492 43.4553 181.995C43.7153 182.498 43.8453 183.096 43.8453 183.789C43.8453 184.43 43.724 184.998 43.4813 185.492C43.2387 185.986 42.892 186.372 42.4413 186.649C41.9907 186.926 41.4577 187.065 40.8423 187.065C40.5823 187.065 40.2963 187.039 39.9843 186.987C39.6723 186.935 39.356 186.809 39.0353 186.61V189.6ZM39.0353 185.713C39.512 185.999 39.9843 186.164 40.4523 186.207C40.9203 186.25 41.345 186.185 41.7263 186.012C42.1077 185.839 42.411 185.566 42.6363 185.193C42.8703 184.812 42.9873 184.344 42.9873 183.789C42.9873 183.217 42.8703 182.74 42.6363 182.359C42.4023 181.969 42.0947 181.687 41.7133 181.514C41.332 181.332 40.9073 181.267 40.4393 181.319C39.9713 181.371 39.5033 181.553 39.0353 181.865V185.713ZM45.6311 179.616C45.4578 179.616 45.3105 179.56 45.1891 179.447C45.0765 179.326 45.0201 179.183 45.0201 179.018C45.0201 178.845 45.0765 178.702 45.1891 178.589C45.3105 178.468 45.4578 178.407 45.6311 178.407C45.7958 178.407 45.9345 178.468 46.0471 178.589C46.1685 178.702 46.2291 178.845 46.2291 179.018C46.2291 179.183 46.1685 179.326 46.0471 179.447C45.9345 179.56 45.7958 179.616 45.6311 179.616ZM46.0341 187H45.2151V180.5H46.0341V187ZM48.3918 187H47.5338V177.9H48.3918V187ZM51.746 187.065C51.3473 187.056 50.9833 186.983 50.654 186.844C50.3247 186.705 50.0603 186.493 49.861 186.207C49.6617 185.921 49.562 185.566 49.562 185.141C49.562 184.474 49.7527 183.954 50.134 183.581C50.5153 183.208 51.044 182.974 51.72 182.879C52.396 182.784 53.176 182.814 54.06 182.97V182.476C54.06 182.138 53.956 181.874 53.748 181.683C53.5487 181.484 53.2887 181.349 52.968 181.28C52.656 181.211 52.3223 181.202 51.967 181.254C51.6203 181.306 51.2953 181.414 50.992 181.579C50.6973 181.744 50.472 181.956 50.316 182.216L49.757 181.631C50.017 181.31 50.3247 181.055 50.68 180.864C51.044 180.673 51.4253 180.552 51.824 180.5C52.2227 180.439 52.6083 180.439 52.981 180.5C53.3623 180.561 53.7003 180.678 53.995 180.851C54.333 181.024 54.5627 181.254 54.684 181.54C54.814 181.826 54.8877 182.16 54.905 182.541C54.9223 182.914 54.9353 183.321 54.944 183.763L54.931 187H54.073V186.389C53.7437 186.614 53.371 186.783 52.955 186.896C52.5477 187.009 52.1447 187.065 51.746 187.065ZM54.06 185.557V183.659C53.3493 183.564 52.7123 183.542 52.149 183.594C51.5943 183.646 51.1567 183.798 50.836 184.049C50.524 184.3 50.368 184.664 50.368 185.141C50.368 185.444 50.4547 185.683 50.628 185.856C50.81 186.029 51.0397 186.146 51.317 186.207C51.603 186.259 51.9107 186.268 52.24 186.233C52.578 186.198 52.9073 186.125 53.228 186.012C53.5487 185.891 53.826 185.739 54.06 185.557ZM61.4038 186.181C60.9531 186.58 60.4808 186.848 59.9868 186.987C59.5014 187.117 59.0291 187.13 58.5698 187.026C58.1104 186.931 57.6944 186.736 57.3218 186.441C56.9491 186.138 56.6544 185.756 56.4378 185.297C56.2211 184.829 56.1128 184.296 56.1128 183.698C56.1128 183.109 56.2211 182.589 56.4378 182.138C56.6544 181.687 56.9491 181.323 57.3218 181.046C57.6944 180.769 58.1104 180.587 58.5698 180.5C59.0291 180.413 59.5058 180.439 59.9998 180.578C60.4938 180.708 60.9661 180.964 61.4168 181.345L60.8968 181.969C60.4721 181.631 60.0301 181.427 59.5708 181.358C59.1114 181.289 58.6824 181.341 58.2838 181.514C57.8938 181.679 57.5774 181.947 57.3348 182.32C57.0921 182.693 56.9708 183.152 56.9708 183.698C56.9708 184.279 57.0964 184.773 57.3478 185.18C57.5991 185.579 57.9241 185.873 58.3228 186.064C58.7301 186.246 59.1591 186.298 59.6098 186.22C60.0691 186.142 60.5024 185.908 60.9098 185.518L61.4038 186.181ZM58.8298 189.444C58.6391 189.444 58.4528 189.396 58.2708 189.301C58.0974 189.214 57.9631 189.084 57.8678 188.911L58.2448 188.625C58.3661 188.807 58.5308 188.911 58.7388 188.937C58.9468 188.963 59.1331 188.92 59.2978 188.807C59.4624 188.703 59.5361 188.551 59.5188 188.352C59.5014 188.135 59.4104 187.984 59.2458 187.897C59.0898 187.81 58.9121 187.776 58.7128 187.793C58.5134 187.819 58.3401 187.897 58.1928 188.027L58.1538 187.507L58.7778 186.61L59.2718 186.779L58.8818 187.325C59.2111 187.316 59.4711 187.381 59.6618 187.52C59.8524 187.659 59.9738 187.832 60.0258 188.04C60.0864 188.257 60.0778 188.469 59.9998 188.677C59.9304 188.894 59.7961 189.076 59.5968 189.223C59.3974 189.37 59.1418 189.444 58.8298 189.444ZM64.6444 187.065C64.2458 187.056 63.8818 186.983 63.5524 186.844C63.2231 186.705 62.9588 186.493 62.7594 186.207C62.5601 185.921 62.4604 185.566 62.4604 185.141C62.4604 184.474 62.6511 183.954 63.0324 183.581C63.4138 183.208 63.9424 182.974 64.6184 182.879C65.2944 182.784 66.0744 182.814 66.9584 182.97V182.476C66.9584 182.138 66.8544 181.874 66.6464 181.683C66.4471 181.484 66.1871 181.349 65.8664 181.28C65.5544 181.211 65.2208 181.202 64.8654 181.254C64.5188 181.306 64.1938 181.414 63.8904 181.579C63.5958 181.744 63.3704 181.956 63.2144 182.216L62.6554 181.631C62.9154 181.31 63.2231 181.055 63.5784 180.864C63.9424 180.673 64.3238 180.552 64.7224 180.5C65.1211 180.439 65.5068 180.439 65.8794 180.5C66.2608 180.561 66.5988 180.678 66.8934 180.851C67.2314 181.024 67.4611 181.254 67.5824 181.54C67.7124 181.826 67.7861 182.16 67.8034 182.541C67.8208 182.914 67.8338 183.321 67.8424 183.763L67.8294 187H66.9714V186.389C66.6421 186.614 66.2694 186.783 65.8534 186.896C65.4461 187.009 65.0431 187.065 64.6444 187.065ZM66.9584 185.557V183.659C66.2478 183.564 65.6108 183.542 65.0474 183.594C64.4928 183.646 64.0551 183.798 63.7344 184.049C63.4224 184.3 63.2664 184.664 63.2664 185.141C63.2664 185.444 63.3531 185.683 63.5264 185.856C63.7084 186.029 63.9381 186.146 64.2154 186.207C64.5014 186.259 64.8091 186.268 65.1384 186.233C65.4764 186.198 65.8058 186.125 66.1264 186.012C66.4471 185.891 66.7244 185.739 66.9584 185.557ZM65.8534 179.46C65.6541 179.46 65.4894 179.395 65.3594 179.265C65.2294 179.135 65.1124 179.005 65.0084 178.875C64.9044 178.745 64.7874 178.676 64.6574 178.667C64.4841 178.667 64.3498 178.749 64.2544 178.914C64.1678 179.07 64.1244 179.248 64.1244 179.447H63.5394C63.5394 179.04 63.6478 178.715 63.8644 178.472C64.0898 178.229 64.3584 178.108 64.6704 178.108C64.8611 178.108 65.0084 178.147 65.1124 178.225C65.2251 178.303 65.3161 178.394 65.3854 178.498C65.4548 178.602 65.5198 178.693 65.5804 178.771C65.6498 178.849 65.7408 178.888 65.8534 178.888C65.9921 178.888 66.0961 178.814 66.1654 178.667C66.2434 178.52 66.2824 178.342 66.2824 178.134H66.8674C66.8674 178.533 66.7808 178.853 66.6074 179.096C66.4428 179.339 66.1914 179.46 65.8534 179.46ZM72.1572 187.156C71.5419 187.156 70.9959 187.022 70.5192 186.753C70.0512 186.476 69.6829 186.094 69.4142 185.609C69.1455 185.115 69.0112 184.543 69.0112 183.893C69.0112 183.13 69.1499 182.493 69.4272 181.982C69.7132 181.471 70.0945 181.085 70.5712 180.825C71.0479 180.565 71.5765 180.435 72.1572 180.435C72.7725 180.435 73.3185 180.565 73.7952 180.825C74.2719 181.085 74.6402 181.471 74.9002 181.982C75.1689 182.493 75.3032 183.13 75.3032 183.893C75.3032 184.543 75.1689 185.115 74.9002 185.609C74.6402 186.094 74.2719 186.476 73.7952 186.753C73.3185 187.022 72.7725 187.156 72.1572 187.156ZM72.1572 186.324C72.6512 186.324 73.0715 186.216 73.4182 185.999C73.7649 185.782 74.0249 185.492 74.1982 185.128C74.3802 184.755 74.4712 184.344 74.4712 183.893C74.4712 183.13 74.2719 182.502 73.8732 182.008C73.4745 181.514 72.9025 181.267 72.1572 181.267C71.6459 181.267 71.2169 181.384 70.8702 181.618C70.5322 181.843 70.2765 182.155 70.1032 182.554C69.9299 182.944 69.8432 183.39 69.8432 183.893C69.8432 184.352 69.9299 184.768 70.1032 185.141C70.2765 185.505 70.5322 185.795 70.8702 186.012C71.2169 186.22 71.6459 186.324 72.1572 186.324Z" fill="black"/>
<path d="M109.65 225L109.663 215.9H113.16C113.593 215.9 113.979 216.021 114.317 216.264C114.664 216.507 114.937 216.827 115.136 217.226C115.335 217.616 115.435 218.036 115.435 218.487C115.435 218.903 115.327 219.31 115.11 219.709C114.902 220.108 114.62 220.437 114.265 220.697C113.918 220.948 113.537 221.074 113.121 221.074H110.508V225H109.65ZM110.508 220.242H113.108C113.377 220.242 113.624 220.155 113.849 219.982C114.074 219.809 114.252 219.588 114.382 219.319C114.521 219.05 114.59 218.773 114.59 218.487C114.59 218.175 114.529 217.889 114.408 217.629C114.287 217.36 114.113 217.148 113.888 216.992C113.671 216.827 113.424 216.745 113.147 216.745H110.508V220.242ZM117.218 217.616C117.045 217.616 116.897 217.56 116.776 217.447C116.663 217.326 116.607 217.183 116.607 217.018C116.607 216.845 116.663 216.702 116.776 216.589C116.897 216.468 117.045 216.407 117.218 216.407C117.383 216.407 117.521 216.468 117.634 216.589C117.755 216.702 117.816 216.845 117.816 217.018C117.816 217.183 117.755 217.326 117.634 217.447C117.521 217.56 117.383 217.616 117.218 217.616ZM117.621 225H116.802V218.5H117.621V225ZM124.763 225H123.905V221.126C123.905 220.684 123.809 220.329 123.619 220.06C123.437 219.783 123.194 219.579 122.891 219.449C122.596 219.319 122.28 219.254 121.942 219.254C121.621 219.254 121.309 219.328 121.006 219.475C120.702 219.614 120.455 219.822 120.265 220.099C120.074 220.376 119.979 220.719 119.979 221.126V225H119.121V218.5H119.979V219.28C120.195 218.985 120.481 218.769 120.837 218.63C121.192 218.483 121.569 218.413 121.968 218.422C122.462 218.422 122.921 218.522 123.346 218.721C123.77 218.92 124.113 219.219 124.373 219.618C124.633 220.017 124.763 220.519 124.763 221.126V225ZM131.099 224.181C130.648 224.58 130.176 224.848 129.682 224.987C129.197 225.117 128.724 225.13 128.265 225.026C127.806 224.931 127.39 224.736 127.017 224.441C126.644 224.138 126.35 223.756 126.133 223.297C125.916 222.829 125.808 222.296 125.808 221.698C125.808 221.109 125.916 220.589 126.133 220.138C126.35 219.687 126.644 219.323 127.017 219.046C127.39 218.769 127.806 218.587 128.265 218.5C128.724 218.413 129.201 218.439 129.695 218.578C130.189 218.708 130.661 218.964 131.112 219.345L130.592 219.969C130.167 219.631 129.725 219.427 129.266 219.358C128.807 219.289 128.378 219.341 127.979 219.514C127.589 219.679 127.273 219.947 127.03 220.32C126.787 220.693 126.666 221.152 126.666 221.698C126.666 222.279 126.792 222.773 127.043 223.18C127.294 223.579 127.619 223.873 128.018 224.064C128.425 224.246 128.854 224.298 129.305 224.22C129.764 224.142 130.198 223.908 130.605 223.518L131.099 224.181ZM128.525 227.444C128.334 227.444 128.148 227.396 127.966 227.301C127.793 227.214 127.658 227.084 127.563 226.911L127.94 226.625C128.061 226.807 128.226 226.911 128.434 226.937C128.642 226.963 128.828 226.92 128.993 226.807C129.158 226.703 129.231 226.551 129.214 226.352C129.197 226.135 129.106 225.984 128.941 225.897C128.785 225.81 128.607 225.776 128.408 225.793C128.209 225.819 128.035 225.897 127.888 226.027L127.849 225.507L128.473 224.61L128.967 224.779L128.577 225.325C128.906 225.316 129.166 225.381 129.357 225.52C129.548 225.659 129.669 225.832 129.721 226.04C129.782 226.257 129.773 226.469 129.695 226.677C129.626 226.894 129.491 227.076 129.292 227.223C129.093 227.37 128.837 227.444 128.525 227.444ZM134.34 225.065C133.941 225.056 133.577 224.983 133.248 224.844C132.918 224.705 132.654 224.493 132.455 224.207C132.255 223.921 132.156 223.566 132.156 223.141C132.156 222.474 132.346 221.954 132.728 221.581C133.109 221.208 133.638 220.974 134.314 220.879C134.99 220.784 135.77 220.814 136.654 220.97V220.476C136.654 220.138 136.55 219.874 136.342 219.683C136.142 219.484 135.882 219.349 135.562 219.28C135.25 219.211 134.916 219.202 134.561 219.254C134.214 219.306 133.889 219.414 133.586 219.579C133.291 219.744 133.066 219.956 132.91 220.216L132.351 219.631C132.611 219.31 132.918 219.055 133.274 218.864C133.638 218.673 134.019 218.552 134.418 218.5C134.816 218.439 135.202 218.439 135.575 218.5C135.956 218.561 136.294 218.678 136.589 218.851C136.927 219.024 137.156 219.254 137.278 219.54C137.408 219.826 137.481 220.16 137.499 220.541C137.516 220.914 137.529 221.321 137.538 221.763L137.525 225H136.667V224.389C136.337 224.614 135.965 224.783 135.549 224.896C135.141 225.009 134.738 225.065 134.34 225.065ZM136.654 223.557V221.659C135.943 221.564 135.306 221.542 134.743 221.594C134.188 221.646 133.75 221.798 133.43 222.049C133.118 222.3 132.962 222.664 132.962 223.141C132.962 223.444 133.048 223.683 133.222 223.856C133.404 224.029 133.633 224.146 133.911 224.207C134.197 224.259 134.504 224.268 134.834 224.233C135.172 224.198 135.501 224.125 135.822 224.012C136.142 223.891 136.42 223.739 136.654 223.557Z" fill="black"/>
<path d="M192.031 232.13C191.398 232.13 190.809 232.009 190.263 231.766C189.726 231.523 189.249 231.194 188.833 230.778C188.417 230.362 188.092 229.877 187.858 229.322C187.633 228.759 187.52 228.135 187.52 227.45C187.52 226.791 187.633 226.176 187.858 225.604C188.092 225.032 188.417 224.538 188.833 224.122C189.249 223.706 189.726 223.377 190.263 223.134C190.809 222.891 191.398 222.77 192.031 222.77C192.664 222.77 193.257 222.896 193.812 223.147C194.375 223.398 194.882 223.771 195.333 224.265L194.644 224.811C194.289 224.43 193.886 224.135 193.435 223.927C192.993 223.71 192.525 223.602 192.031 223.602C191.52 223.602 191.047 223.702 190.614 223.901C190.181 224.1 189.795 224.378 189.457 224.733C189.128 225.071 188.868 225.474 188.677 225.942C188.486 226.401 188.391 226.904 188.391 227.45C188.391 228.005 188.486 228.512 188.677 228.971C188.868 229.43 189.128 229.833 189.457 230.18C189.795 230.527 190.181 230.8 190.614 230.999C191.047 231.198 191.52 231.298 192.031 231.298C192.525 231.298 192.993 231.194 193.435 230.986C193.886 230.769 194.289 230.47 194.644 230.089L195.333 230.648C194.882 231.142 194.375 231.515 193.812 231.766C193.257 232.009 192.664 232.13 192.031 232.13ZM202.352 228.971H197.126C197.134 229.586 197.286 230.08 197.581 230.453C197.875 230.826 198.252 231.077 198.712 231.207C199.18 231.328 199.682 231.333 200.22 231.22C200.757 231.107 201.273 230.869 201.767 230.505L202.209 231.181C201.801 231.493 201.372 231.723 200.922 231.87C200.471 232.017 200.016 232.1 199.557 232.117C198.482 232.152 197.654 231.853 197.074 231.22C196.493 230.587 196.203 229.708 196.203 228.581C196.203 227.61 196.471 226.843 197.009 226.28C197.546 225.717 198.339 225.435 199.388 225.435C200.055 225.435 200.627 225.574 201.104 225.851C201.589 226.128 201.944 226.54 202.17 227.086C202.274 227.337 202.339 227.623 202.365 227.944C202.391 228.265 202.386 228.607 202.352 228.971ZM199.414 226.241C199.006 226.241 198.629 226.31 198.283 226.449C197.936 226.588 197.654 226.804 197.438 227.099C197.23 227.385 197.126 227.762 197.126 228.23H201.572C201.572 227.571 201.377 227.077 200.987 226.748C200.597 226.41 200.072 226.241 199.414 226.241ZM203.671 232V225.604H204.516V226.241C204.794 225.929 205.132 225.725 205.53 225.63C205.938 225.535 206.471 225.578 207.129 225.76L206.752 226.527C206.336 226.38 205.959 226.362 205.621 226.475C205.283 226.579 205.015 226.757 204.815 227.008C204.616 227.259 204.516 227.519 204.516 227.788V232H203.671ZM209.572 232.065C209.173 232.056 208.809 231.983 208.48 231.844C208.151 231.705 207.886 231.493 207.687 231.207C207.488 230.921 207.388 230.566 207.388 230.141C207.388 229.474 207.579 228.954 207.96 228.581C208.341 228.208 208.87 227.974 209.546 227.879C210.222 227.784 211.002 227.814 211.886 227.97V227.476C211.886 227.138 211.782 226.874 211.574 226.683C211.375 226.484 211.115 226.349 210.794 226.28C210.482 226.211 210.148 226.202 209.793 226.254C209.446 226.306 209.121 226.414 208.818 226.579C208.523 226.744 208.298 226.956 208.142 227.216L207.583 226.631C207.843 226.31 208.151 226.055 208.506 225.864C208.87 225.673 209.251 225.552 209.65 225.5C210.049 225.439 210.434 225.439 210.807 225.5C211.188 225.561 211.526 225.678 211.821 225.851C212.159 226.024 212.389 226.254 212.51 226.54C212.64 226.826 212.714 227.16 212.731 227.541C212.748 227.914 212.761 228.321 212.77 228.763L212.757 232H211.899V231.389C211.57 231.614 211.197 231.783 210.781 231.896C210.374 232.009 209.971 232.065 209.572 232.065ZM211.886 230.557V228.659C211.175 228.564 210.538 228.542 209.975 228.594C209.42 228.646 208.983 228.798 208.662 229.049C208.35 229.3 208.194 229.664 208.194 230.141C208.194 230.444 208.281 230.683 208.454 230.856C208.636 231.029 208.866 231.146 209.143 231.207C209.429 231.259 209.737 231.268 210.066 231.233C210.404 231.198 210.733 231.125 211.054 231.012C211.375 230.891 211.652 230.739 211.886 230.557Z" fill="black"/>
<path d="M255.031 228.13C254.398 228.13 253.809 228.009 253.263 227.766C252.726 227.523 252.249 227.194 251.833 226.778C251.417 226.362 251.092 225.877 250.858 225.322C250.633 224.759 250.52 224.135 250.52 223.45C250.52 222.791 250.633 222.176 250.858 221.604C251.092 221.032 251.417 220.538 251.833 220.122C252.249 219.706 252.726 219.377 253.263 219.134C253.809 218.891 254.398 218.77 255.031 218.77C255.664 218.77 256.257 218.896 256.812 219.147C257.375 219.398 257.882 219.771 258.333 220.265L257.644 220.811C257.289 220.43 256.886 220.135 256.435 219.927C255.993 219.71 255.525 219.602 255.031 219.602C254.52 219.602 254.047 219.702 253.614 219.901C253.181 220.1 252.795 220.378 252.457 220.733C252.128 221.071 251.868 221.474 251.677 221.942C251.486 222.401 251.391 222.904 251.391 223.45C251.391 224.005 251.486 224.512 251.677 224.971C251.868 225.43 252.128 225.833 252.457 226.18C252.795 226.527 253.181 226.8 253.614 226.999C254.047 227.198 254.52 227.298 255.031 227.298C255.525 227.298 255.993 227.194 256.435 226.986C256.886 226.769 257.289 226.47 257.644 226.089L258.333 226.648C257.882 227.142 257.375 227.515 256.812 227.766C256.257 228.009 255.664 228.13 255.031 228.13ZM259.499 228V221.604H260.344V222.241C260.621 221.929 260.959 221.725 261.358 221.63C261.765 221.535 262.298 221.578 262.957 221.76L262.58 222.527C262.164 222.38 261.787 222.362 261.449 222.475C261.111 222.579 260.842 222.757 260.643 223.008C260.443 223.259 260.344 223.519 260.344 223.788V228H259.499ZM269.325 224.971H264.099C264.108 225.586 264.26 226.08 264.554 226.453C264.849 226.826 265.226 227.077 265.685 227.207C266.153 227.328 266.656 227.333 267.193 227.22C267.731 227.107 268.246 226.869 268.74 226.505L269.182 227.181C268.775 227.493 268.346 227.723 267.895 227.87C267.445 228.017 266.99 228.1 266.53 228.117C265.456 228.152 264.628 227.853 264.047 227.22C263.467 226.587 263.176 225.708 263.176 224.581C263.176 223.61 263.445 222.843 263.982 222.28C264.52 221.717 265.313 221.435 266.361 221.435C267.029 221.435 267.601 221.574 268.077 221.851C268.563 222.128 268.918 222.54 269.143 223.086C269.247 223.337 269.312 223.623 269.338 223.944C269.364 224.265 269.36 224.607 269.325 224.971ZM266.387 222.241C265.98 222.241 265.603 222.31 265.256 222.449C264.91 222.588 264.628 222.804 264.411 223.099C264.203 223.385 264.099 223.762 264.099 224.23H268.545C268.545 223.571 268.35 223.077 267.96 222.748C267.57 222.41 267.046 222.241 266.387 222.241ZM280.525 228H279.68V224.126C279.68 223.502 279.511 223.03 279.173 222.709C278.844 222.388 278.415 222.228 277.886 222.228C277.349 222.228 276.907 222.388 276.56 222.709C276.213 223.03 276.04 223.502 276.04 224.126V228H275.208V224.126C275.208 223.476 275.03 222.999 274.675 222.696C274.32 222.384 273.865 222.228 273.31 222.228C273.05 222.228 272.777 222.297 272.491 222.436C272.214 222.566 271.975 222.774 271.776 223.06C271.585 223.337 271.49 223.693 271.49 224.126V228H270.645V221.5H271.49V222.228C271.707 221.968 271.971 221.773 272.283 221.643C272.604 221.504 272.942 221.431 273.297 221.422C273.73 221.422 274.159 221.513 274.584 221.695C275.009 221.868 275.368 222.15 275.663 222.54C275.906 222.159 276.231 221.881 276.638 221.708C277.045 221.526 277.479 221.435 277.938 221.435C278.38 221.435 278.796 221.539 279.186 221.747C279.585 221.946 279.905 222.25 280.148 222.657C280.399 223.056 280.525 223.545 280.525 224.126V228ZM287.67 224.971H282.444C282.453 225.586 282.604 226.08 282.899 226.453C283.194 226.826 283.571 227.077 284.03 227.207C284.498 227.328 285.001 227.333 285.538 227.22C286.075 227.107 286.591 226.869 287.085 226.505L287.527 227.181C287.12 227.493 286.691 227.723 286.24 227.87C285.789 228.017 285.334 228.1 284.875 228.117C283.8 228.152 282.973 227.853 282.392 227.22C281.811 226.587 281.521 225.708 281.521 224.581C281.521 223.61 281.79 222.843 282.327 222.28C282.864 221.717 283.657 221.435 284.706 221.435C285.373 221.435 285.945 221.574 286.422 221.851C286.907 222.128 287.263 222.54 287.488 223.086C287.592 223.337 287.657 223.623 287.683 223.944C287.709 224.265 287.705 224.607 287.67 224.971ZM284.732 222.241C284.325 222.241 283.948 222.31 283.601 222.449C283.254 222.588 282.973 222.804 282.756 223.099C282.548 223.385 282.444 223.762 282.444 224.23H286.89C286.89 223.571 286.695 223.077 286.305 222.748C285.915 222.41 285.391 222.241 284.732 222.241Z" fill="black"/>
<path d="M320.901 213H316.676V203.9H317.534V212.194H320.901V213ZM324.125 213.065C323.726 213.056 323.362 212.983 323.033 212.844C322.704 212.705 322.439 212.493 322.24 212.207C322.041 211.921 321.941 211.566 321.941 211.141C321.941 210.474 322.132 209.954 322.513 209.581C322.894 209.208 323.423 208.974 324.099 208.879C324.775 208.784 325.555 208.814 326.439 208.97V208.476C326.439 208.138 326.335 207.874 326.127 207.683C325.928 207.484 325.668 207.349 325.347 207.28C325.035 207.211 324.701 207.202 324.346 207.254C323.999 207.306 323.674 207.414 323.371 207.579C323.076 207.744 322.851 207.956 322.695 208.216L322.136 207.631C322.396 207.31 322.704 207.055 323.059 206.864C323.423 206.673 323.804 206.552 324.203 206.5C324.602 206.439 324.987 206.439 325.36 206.5C325.741 206.561 326.079 206.678 326.374 206.851C326.712 207.024 326.942 207.254 327.063 207.54C327.193 207.826 327.267 208.16 327.284 208.541C327.301 208.914 327.314 209.321 327.323 209.763L327.31 213H326.452V212.389C326.123 212.614 325.75 212.783 325.334 212.896C324.927 213.009 324.524 213.065 324.125 213.065ZM326.439 211.557V209.659C325.728 209.564 325.091 209.542 324.528 209.594C323.973 209.646 323.536 209.798 323.215 210.049C322.903 210.3 322.747 210.664 322.747 211.141C322.747 211.444 322.834 211.683 323.007 211.856C323.189 212.029 323.419 212.146 323.696 212.207C323.982 212.259 324.29 212.268 324.619 212.233C324.957 212.198 325.286 212.125 325.607 212.012C325.928 211.891 326.205 211.739 326.439 211.557ZM323.098 205.577L324.411 204.134H324.957L326.27 205.577H325.464L324.684 204.693L323.904 205.577H323.098ZM338.502 213H337.657V209.126C337.657 208.502 337.488 208.03 337.15 207.709C336.82 207.388 336.391 207.228 335.863 207.228C335.325 207.228 334.883 207.388 334.537 207.709C334.19 208.03 334.017 208.502 334.017 209.126V213H333.185V209.126C333.185 208.476 333.007 207.999 332.652 207.696C332.296 207.384 331.841 207.228 331.287 207.228C331.027 207.228 330.754 207.297 330.468 207.436C330.19 207.566 329.952 207.774 329.753 208.06C329.562 208.337 329.467 208.693 329.467 209.126V213H328.622V206.5H329.467V207.228C329.683 206.968 329.948 206.773 330.26 206.643C330.58 206.504 330.918 206.431 331.274 206.422C331.707 206.422 332.136 206.513 332.561 206.695C332.985 206.868 333.345 207.15 333.64 207.54C333.882 207.159 334.207 206.881 334.615 206.708C335.022 206.526 335.455 206.435 335.915 206.435C336.357 206.435 336.773 206.539 337.163 206.747C337.561 206.946 337.882 207.25 338.125 207.657C338.376 208.056 338.502 208.545 338.502 209.126V213ZM340.278 205.616C340.104 205.616 339.957 205.56 339.836 205.447C339.723 205.326 339.667 205.183 339.667 205.018C339.667 204.845 339.723 204.702 339.836 204.589C339.957 204.468 340.104 204.407 340.278 204.407C340.442 204.407 340.581 204.468 340.694 204.589C340.815 204.702 340.876 204.845 340.876 205.018C340.876 205.183 340.815 205.326 340.694 205.447C340.581 205.56 340.442 205.616 340.278 205.616ZM340.681 213H339.862V206.5H340.681V213ZM347.822 213H346.964V209.126C346.964 208.684 346.869 208.329 346.678 208.06C346.496 207.783 346.254 207.579 345.95 207.449C345.656 207.319 345.339 207.254 345.001 207.254C344.681 207.254 344.369 207.328 344.065 207.475C343.762 207.614 343.515 207.822 343.324 208.099C343.134 208.376 343.038 208.719 343.038 209.126V213H342.18V206.5H343.038V207.28C343.255 206.985 343.541 206.769 343.896 206.63C344.252 206.483 344.629 206.413 345.027 206.422C345.521 206.422 345.981 206.522 346.405 206.721C346.83 206.92 347.172 207.219 347.432 207.618C347.692 208.017 347.822 208.519 347.822 209.126V213ZM351.052 213.065C350.653 213.056 350.289 212.983 349.96 212.844C349.63 212.705 349.366 212.493 349.167 212.207C348.967 211.921 348.868 211.566 348.868 211.141C348.868 210.474 349.058 209.954 349.44 209.581C349.821 209.208 350.35 208.974 351.026 208.879C351.702 208.784 352.482 208.814 353.366 208.97V208.476C353.366 208.138 353.262 207.874 353.054 207.683C352.854 207.484 352.594 207.349 352.274 207.28C351.962 207.211 351.628 207.202 351.273 207.254C350.926 207.306 350.601 207.414 350.298 207.579C350.003 207.744 349.778 207.956 349.622 208.216L349.063 207.631C349.323 207.31 349.63 207.055 349.986 206.864C350.35 206.673 350.731 206.552 351.13 206.5C351.528 206.439 351.914 206.439 352.287 206.5C352.668 206.561 353.006 206.678 353.301 206.851C353.639 207.024 353.868 207.254 353.99 207.54C354.12 207.826 354.193 208.16 354.211 208.541C354.228 208.914 354.241 209.321 354.25 209.763L354.237 213H353.379V212.389C353.049 212.614 352.677 212.783 352.261 212.896C351.853 213.009 351.45 213.065 351.052 213.065ZM353.366 211.557V209.659C352.655 209.564 352.018 209.542 351.455 209.594C350.9 209.646 350.462 209.798 350.142 210.049C349.83 210.3 349.674 210.664 349.674 211.141C349.674 211.444 349.76 211.683 349.934 211.856C350.116 212.029 350.345 212.146 350.623 212.207C350.909 212.259 351.216 212.268 351.546 212.233C351.884 212.198 352.213 212.125 352.534 212.012C352.854 211.891 353.132 211.739 353.366 211.557Z" fill="black"/>
<path d="M293 78.5H277.5V73.5H293V78.5Z" fill="white"/>
<circle cx="160.5" cy="108.5" r="13" stroke="#44C4D9"/>
<circle cx="201.5" cy="97.5" r="13" stroke="#44C4D9"/>
<circle cx="243.5" cy="89.5" r="13" stroke="#44C4D9"/>
<circle cx="284.5" cy="76.5" r="13" stroke="#44C4D9"/>
<path d="M286 89.5L330 198.5" stroke="#44C4D9"/>
<path d="M244 102.5L257 212" stroke="#44C4D9"/>
<path d="M201.5 110.5V215.5" stroke="#44C4D9"/>
<path d="M157 121L130 211.5" stroke="#44C4D9"/>
<path d="M193.5 105.5L190.5 97.5L205.5 93.5L213.5 97.5L193.5 105.5Z" fill="#FFC0B7"/>
<path d="M238.154 96L237 88.8L249.692 84L252 89.76L238.154 96Z" fill="#FFE8D2"/>
</svg>
