<svg width="696" height="181" viewBox="0 0 696 181" fill="none" xmlns="http://www.w3.org/2000/svg">
<path d="M0 0H696V98C696 143.84 658.84 181 613 181H0V0Z" fill="black" fill-opacity="0.35"/>
<mask id="path-2-outside-1_9_2" maskUnits="userSpaceOnUse" x="107" y="28" width="477" height="113" fill="black">
<rect fill="white" x="107" y="28" width="477" height="113"/>
<path d="M110.36 42.612C110.36 38.8627 111.544 36.0013 113.912 34.028C116.28 32.0547 119.733 31.068 124.272 31.068V77.688H176.812V42.612C176.812 38.8627 177.996 36.0013 180.364 34.028C182.732 32.0547 186.185 31.068 190.724 31.068V125.788C190.724 129.537 189.54 132.399 187.172 134.372C184.804 136.345 181.351 137.332 176.812 137.332V89.972H124.272V125.788C124.272 129.537 123.088 132.399 120.72 134.372C118.352 136.345 114.899 137.332 110.36 137.332V42.612ZM241.135 137.332C235.117 137.332 229.739 136.197 225.003 133.928C220.267 131.56 216.567 128.353 213.903 124.308C211.239 120.164 209.907 115.527 209.907 110.396V88.492C209.907 83.2627 211.289 78.5267 214.051 74.284C216.913 70.0413 220.711 66.736 225.447 64.368C230.282 61.9013 235.511 60.668 241.135 60.668C246.759 60.668 251.89 61.852 256.527 64.22C261.263 66.588 264.963 69.844 267.627 73.988C270.39 78.132 271.771 82.8187 271.771 88.048V97.52C271.771 99.0987 271.179 100.431 269.995 101.516C268.811 102.601 267.381 103.144 265.703 103.144H222.487V109.804C222.487 114.836 224.066 118.881 227.223 121.94C230.479 124.999 235.117 126.528 241.135 126.528C247.154 126.528 251.742 125.196 254.899 122.532C258.057 119.868 259.635 116.267 259.635 111.728C262.595 111.531 265.062 112.123 267.035 113.504C269.107 114.787 270.143 116.711 270.143 119.276C270.143 122.433 268.762 125.393 265.999 128.156C263.335 130.919 259.783 133.139 255.343 134.816C250.903 136.493 246.167 137.332 241.135 137.332ZM259.783 93.08V88.048C259.783 83.1147 258.057 79.1187 254.603 76.06C251.249 72.9027 246.759 71.324 241.135 71.324C235.511 71.324 230.973 72.9027 227.519 76.06C224.165 79.1187 222.487 83.1147 222.487 88.048V93.08H259.783ZM318.456 137.332C312.437 137.332 307.06 136.247 302.324 134.076C297.588 131.905 293.888 128.847 291.224 124.9C288.659 120.953 287.376 116.464 287.376 111.432V87.456C287.376 82.2267 288.659 77.5893 291.224 73.544C293.888 69.4987 297.539 66.3413 302.176 64.072C306.813 61.8027 312.141 60.668 318.16 60.668C323.784 60.668 328.767 61.5067 333.108 63.184C337.548 64.7627 341.001 67.032 343.468 69.992C345.935 72.952 347.168 76.3067 347.168 80.056C347.168 82.5227 346.181 84.5453 344.208 86.124C342.333 87.604 339.867 88.2453 336.808 88.048C336.808 83.312 335.081 79.464 331.628 76.504C328.273 73.544 323.883 72.064 318.456 72.064C313.029 72.064 308.639 73.544 305.284 76.504C301.929 79.3653 300.252 83.1147 300.252 87.752V110.84C300.252 115.28 301.979 118.931 305.432 121.792C308.885 124.555 313.325 125.936 318.752 125.936C324.179 125.936 328.569 124.456 331.924 121.496C335.377 118.536 337.104 114.737 337.104 110.1C340.261 109.903 342.777 110.544 344.652 112.024C346.625 113.405 347.612 115.379 347.612 117.944C347.612 121.693 346.379 125.048 343.912 128.008C341.445 130.968 337.992 133.287 333.552 134.964C329.112 136.543 324.08 137.332 318.456 137.332ZM394.19 137.332C388.172 137.332 382.794 136.247 378.058 134.076C373.322 131.905 369.622 128.847 366.958 124.9C364.393 120.953 363.11 116.464 363.11 111.432V87.456C363.11 82.2267 364.393 77.5893 366.958 73.544C369.622 69.4987 373.273 66.3413 377.91 64.072C382.548 61.8027 387.876 60.668 393.894 60.668C399.518 60.668 404.501 61.5067 408.842 63.184C413.282 64.7627 416.736 67.032 419.202 69.992C421.669 72.952 422.902 76.3067 422.902 80.056C422.902 82.5227 421.916 84.5453 419.942 86.124C418.068 87.604 415.601 88.2453 412.542 88.048C412.542 83.312 410.816 79.464 407.362 76.504C404.008 73.544 399.617 72.064 394.19 72.064C388.764 72.064 384.373 73.544 381.018 76.504C377.664 79.3653 375.986 83.1147 375.986 87.752V110.84C375.986 115.28 377.713 118.931 381.166 121.792C384.62 124.555 389.06 125.936 394.486 125.936C399.913 125.936 404.304 124.456 407.658 121.496C411.112 118.536 412.838 114.737 412.838 110.1C415.996 109.903 418.512 110.544 420.386 112.024C422.36 113.405 423.346 115.379 423.346 117.944C423.346 121.693 422.113 125.048 419.646 128.008C417.18 130.968 413.726 133.287 409.286 134.964C404.846 136.543 399.814 137.332 394.19 137.332ZM501.597 126.38C501.597 133.681 497.453 137.332 489.165 137.332V127.86C490.053 126.972 491.089 125.64 492.273 123.864L491.681 123.272C488.721 127.515 484.972 130.919 480.433 133.484C475.993 136.049 471.109 137.332 465.781 137.332C460.453 137.332 455.717 136.197 451.573 133.928C447.528 131.659 444.37 128.501 442.101 124.456C439.93 120.411 438.845 115.872 438.845 110.84V70.14C438.845 66.884 439.93 64.516 442.101 63.036C444.272 61.4573 447.528 60.668 451.869 60.668V110.248C451.869 114.984 453.25 118.783 456.013 121.644C458.874 124.505 463.068 125.936 468.593 125.936C472.244 125.936 475.598 125.196 478.657 123.716C481.716 122.137 484.133 120.065 485.909 117.5C487.784 114.836 488.721 111.975 488.721 108.916V70.14C488.721 66.884 489.757 64.516 491.829 63.036C494 61.4573 497.256 60.668 501.597 60.668V126.38ZM549.062 137.332C544.03 137.332 539.294 136.592 534.854 135.112C530.414 133.533 526.813 131.313 524.05 128.452C521.386 125.591 520.054 122.236 520.054 118.388C520.054 113.652 522.915 111.087 528.638 110.692C529.625 116.217 531.943 120.312 535.594 122.976C539.343 125.541 544.079 126.824 549.802 126.824C555.525 126.824 559.965 125.985 563.122 124.308C566.279 122.631 567.858 120.065 567.858 116.612C567.858 114.145 567.217 112.172 565.934 110.692C564.651 109.113 562.579 107.781 559.718 106.696C556.955 105.512 552.959 104.377 547.73 103.292C541.218 101.812 536.038 100.233 532.19 98.556C528.342 96.8787 525.382 94.6587 523.31 91.896C521.337 89.1333 520.35 85.4827 520.35 80.944C520.35 77.096 521.534 73.6427 523.902 70.584C526.27 67.4267 529.526 65.0093 533.67 63.332C537.913 61.556 542.698 60.668 548.026 60.668C552.959 60.668 557.597 61.3587 561.938 62.74C566.378 64.1213 569.93 66.0947 572.594 68.66C575.357 71.2253 576.738 74.1853 576.738 77.54C576.738 79.8093 575.85 81.6347 574.074 83.016C572.298 84.2987 569.831 85.0387 566.674 85.236C566.378 80.8947 564.602 77.4907 561.346 75.024C558.189 72.4587 553.749 71.176 548.026 71.176C543.29 71.176 539.541 72.064 536.778 73.84C534.015 75.616 532.634 77.984 532.634 80.944C532.634 84.1013 533.917 86.4693 536.482 88.048C539.146 89.528 543.635 90.9587 549.95 92.34C560.31 94.412 567.907 97.2733 572.742 100.924C577.675 104.476 580.142 109.557 580.142 116.168C580.142 122.877 577.429 128.107 572.002 131.856C566.575 135.507 558.929 137.332 549.062 137.332Z"/>
</mask>
<path d="M113.912 34.028L115.833 36.3327L115.833 36.3327L113.912 34.028ZM124.272 31.068H127.272V28.068H124.272V31.068ZM124.272 77.688H121.272V80.688H124.272V77.688ZM176.812 77.688V80.688H179.812V77.688H176.812ZM180.364 34.028L182.285 36.3327L182.285 36.3327L180.364 34.028ZM190.724 31.068H193.724V28.068H190.724V31.068ZM187.172 134.372L189.093 136.677L189.093 136.677L187.172 134.372ZM176.812 137.332H173.812V140.332H176.812V137.332ZM176.812 89.972H179.812V86.972H176.812V89.972ZM124.272 89.972V86.972H121.272V89.972H124.272ZM120.72 134.372L118.799 132.067L118.799 132.067L120.72 134.372ZM110.36 137.332H107.36V140.332H110.36V137.332ZM113.36 42.612C113.36 39.5414 114.296 37.6132 115.833 36.3327L111.991 31.7233C108.792 34.3895 107.36 38.1839 107.36 42.612H113.36ZM115.833 36.3327C117.457 34.9786 120.114 34.068 124.272 34.068V28.068C119.353 28.068 115.103 29.1307 111.991 31.7233L115.833 36.3327ZM121.272 31.068V77.688H127.272V31.068H121.272ZM124.272 80.688H176.812V74.688H124.272V80.688ZM179.812 77.688V42.612H173.812V77.688H179.812ZM179.812 42.612C179.812 39.5414 180.748 37.6132 182.285 36.3327L178.443 31.7233C175.244 34.3895 173.812 38.1839 173.812 42.612H179.812ZM182.285 36.3327C183.909 34.9786 186.566 34.068 190.724 34.068V28.068C185.805 28.068 181.555 29.1307 178.443 31.7233L182.285 36.3327ZM187.724 31.068V125.788H193.724V31.068H187.724ZM187.724 125.788C187.724 128.859 186.788 130.787 185.251 132.067L189.093 136.677C192.292 134.01 193.724 130.216 193.724 125.788H187.724ZM185.251 132.067C183.627 133.421 180.97 134.332 176.812 134.332V140.332C181.731 140.332 185.981 139.269 189.093 136.677L185.251 132.067ZM179.812 137.332V89.972H173.812V137.332H179.812ZM176.812 86.972H124.272V92.972H176.812V86.972ZM121.272 89.972V125.788H127.272V89.972H121.272ZM121.272 125.788C121.272 128.859 120.336 130.787 118.799 132.067L122.641 136.677C125.84 134.01 127.272 130.216 127.272 125.788H121.272ZM118.799 132.067C117.175 133.421 114.518 134.332 110.36 134.332V140.332C115.279 140.332 119.529 139.269 122.641 136.677L118.799 132.067ZM113.36 137.332V42.612H107.36V137.332H113.36ZM225.003 133.928L223.662 136.611L223.684 136.623L223.707 136.633L225.003 133.928ZM213.903 124.308L211.38 125.93L211.389 125.944L211.398 125.958L213.903 124.308ZM214.051 74.284L211.564 72.6066L211.551 72.6267L211.537 72.647L214.051 74.284ZM225.447 64.368L226.789 67.0513L226.8 67.0458L226.811 67.0403L225.447 64.368ZM256.527 64.22L255.163 66.8918L255.174 66.8976L255.186 66.9033L256.527 64.22ZM267.627 73.988L265.104 75.6103L265.117 75.6313L265.131 75.6521L267.627 73.988ZM269.995 101.516L272.023 103.727L272.023 103.727L269.995 101.516ZM222.487 103.144V100.144H219.487V103.144H222.487ZM227.223 121.94L225.136 124.095L225.153 124.111L225.169 124.127L227.223 121.94ZM259.635 111.728L259.436 108.735L256.635 108.921V111.728H259.635ZM267.035 113.504L265.315 115.962L265.384 116.01L265.456 116.055L267.035 113.504ZM265.999 128.156L263.878 126.035L263.859 126.054L263.84 126.074L265.999 128.156ZM255.343 134.816L254.283 132.01L254.283 132.01L255.343 134.816ZM259.783 93.08V96.08H262.783V93.08H259.783ZM254.603 76.06L252.547 78.2446L252.58 78.2757L252.614 78.3058L254.603 76.06ZM227.519 76.06L229.541 78.2769L229.544 78.2741L227.519 76.06ZM222.487 93.08H219.487V96.08H222.487V93.08ZM241.135 134.332C235.5 134.332 230.576 133.272 226.3 131.223L223.707 136.633C228.903 139.123 234.734 140.332 241.135 140.332V134.332ZM226.345 131.245C222.036 129.09 218.756 126.222 216.409 122.658L211.398 125.958C214.379 130.485 218.499 134.03 223.662 136.611L226.345 131.245ZM216.427 122.686C214.087 119.046 212.907 114.977 212.907 110.396H206.907C206.907 116.077 208.391 121.282 211.38 125.93L216.427 122.686ZM212.907 110.396V88.492H206.907V110.396H212.907ZM212.907 88.492C212.907 83.8237 214.131 79.66 216.565 75.921L211.537 72.647C208.447 77.3934 206.907 82.7016 206.907 88.492H212.907ZM216.539 75.9614C219.101 72.1623 222.498 69.1966 226.789 67.0513L224.106 61.6847C218.924 64.2754 214.725 67.9203 211.564 72.6066L216.539 75.9614ZM226.811 67.0403C231.208 64.7969 235.968 63.668 241.135 63.668V57.668C235.055 57.668 229.356 59.0057 224.084 61.6957L226.811 67.0403ZM241.135 63.668C246.324 63.668 250.981 64.7565 255.163 66.8918L257.892 61.5482C252.799 58.9475 247.195 57.668 241.135 57.668V63.668ZM255.186 66.9033C259.477 69.0489 262.753 71.9536 265.104 75.6103L270.151 72.3657C267.174 67.7344 263.05 64.1271 257.869 61.5367L255.186 66.9033ZM265.131 75.6521C267.548 79.2779 268.771 83.3797 268.771 88.048H274.771C274.771 82.2576 273.232 76.9861 270.123 72.3239L265.131 75.6521ZM268.771 88.048V97.52H274.771V88.048H268.771ZM268.771 97.52C268.771 98.2412 268.545 98.7762 267.968 99.3045L272.023 103.727C273.814 102.085 274.771 99.9561 274.771 97.52H268.771ZM267.968 99.3045C267.364 99.8585 266.667 100.144 265.703 100.144V106.144C268.095 106.144 270.259 105.344 272.023 103.727L267.968 99.3045ZM265.703 100.144H222.487V106.144H265.703V100.144ZM219.487 103.144V109.804H225.487V103.144H219.487ZM219.487 109.804C219.487 115.52 221.309 120.388 225.136 124.095L229.311 119.785C226.823 117.375 225.487 114.152 225.487 109.804H219.487ZM225.169 124.127C229.151 127.867 234.624 129.528 241.135 129.528V123.528C235.61 123.528 231.807 122.13 229.277 119.753L225.169 124.127ZM241.135 129.528C247.546 129.528 252.935 128.114 256.834 124.825L252.965 120.239C250.549 122.278 246.762 123.528 241.135 123.528V129.528ZM256.834 124.825C260.739 121.53 262.635 117.052 262.635 111.728H256.635C256.635 115.481 255.375 118.206 252.965 120.239L256.834 124.825ZM259.835 114.721C262.275 114.559 264.022 115.057 265.315 115.962L268.756 111.046C266.102 109.189 262.916 108.503 259.436 108.735L259.835 114.721ZM265.456 116.055C266.59 116.757 267.143 117.683 267.143 119.276H273.143C273.143 115.738 271.625 112.817 268.614 110.953L265.456 116.055ZM267.143 119.276C267.143 121.458 266.22 123.693 263.878 126.035L268.121 130.277C271.304 127.094 273.143 123.409 273.143 119.276H267.143ZM263.84 126.074C261.548 128.45 258.404 130.453 254.283 132.01L256.404 137.622C261.163 135.824 265.122 133.387 268.159 130.238L263.84 126.074ZM254.283 132.01C250.202 133.551 245.827 134.332 241.135 134.332V140.332C246.508 140.332 251.605 139.435 256.404 137.622L254.283 132.01ZM262.783 93.08V88.048H256.783V93.08H262.783ZM262.783 88.048C262.783 82.3232 260.737 77.4855 256.592 73.8142L252.614 78.3058C255.376 80.7519 256.783 83.9061 256.783 88.048H262.783ZM256.659 73.8754C252.631 70.0839 247.346 68.324 241.135 68.324V74.324C246.173 74.324 249.866 75.7214 252.547 78.2446L256.659 73.8754ZM241.135 68.324C234.922 68.324 229.609 70.0847 225.495 73.8459L229.544 78.2741C232.337 75.7206 236.101 74.324 241.135 74.324V68.324ZM225.498 73.8431C221.462 77.5232 219.487 82.3528 219.487 88.048H225.487C225.487 83.8765 226.867 80.7142 229.541 78.2769L225.498 73.8431ZM219.487 88.048V93.08H225.487V88.048H219.487ZM222.487 96.08H259.783V90.08H222.487V96.08ZM302.324 134.076L303.574 131.349L303.574 131.349L302.324 134.076ZM291.224 124.9L288.709 126.535L288.723 126.557L288.738 126.578L291.224 124.9ZM291.224 73.544L288.719 71.894L288.704 71.9156L288.691 71.9374L291.224 73.544ZM302.176 64.072L300.857 61.3773L300.857 61.3773L302.176 64.072ZM333.108 63.184L332.027 65.9824L332.065 65.997L332.103 66.0106L333.108 63.184ZM343.468 69.992L341.163 71.9126L341.163 71.9126L343.468 69.992ZM344.208 86.124L346.067 88.4786L346.075 88.4727L346.082 88.4666L344.208 86.124ZM336.808 88.048H333.808V90.8607L336.615 91.0418L336.808 88.048ZM331.628 76.504L329.643 78.7535L329.659 78.7678L329.676 78.7818L331.628 76.504ZM305.284 76.504L307.231 78.7865L307.25 78.7702L307.269 78.7535L305.284 76.504ZM305.432 121.792L303.518 124.102L303.538 124.119L303.558 124.135L305.432 121.792ZM331.924 121.496L329.972 119.218L329.955 119.232L329.939 119.246L331.924 121.496ZM337.104 110.1L336.917 107.106L334.104 107.282V110.1H337.104ZM344.652 112.024L342.793 114.379L342.861 114.432L342.932 114.482L344.652 112.024ZM343.912 128.008L346.217 129.929L346.217 129.929L343.912 128.008ZM333.552 134.964L334.557 137.791L334.585 137.781L334.612 137.77L333.552 134.964ZM318.456 134.332C312.802 134.332 307.861 133.314 303.574 131.349L301.074 136.803C306.259 139.179 312.073 140.332 318.456 140.332V134.332ZM303.574 131.349C299.29 129.385 296.038 126.669 293.711 123.222L288.738 126.578C291.738 131.024 295.886 134.425 301.074 136.803L303.574 131.349ZM293.739 123.265C291.513 119.839 290.376 115.926 290.376 111.432H284.376C284.376 117.002 285.805 122.068 288.709 126.535L293.739 123.265ZM290.376 111.432V87.456H284.376V111.432H290.376ZM290.376 87.456C290.376 82.7414 291.525 78.6717 293.758 75.1506L288.691 71.9374C285.793 76.507 284.376 81.7119 284.376 87.456H290.376ZM293.73 75.194C296.079 71.6264 299.306 68.8163 303.495 66.7666L300.857 61.3773C295.771 63.8664 291.697 67.3709 288.719 71.894L293.73 75.194ZM303.495 66.7666C307.659 64.729 312.523 63.668 318.16 63.668V57.668C311.76 57.668 305.968 58.8763 300.857 61.3773L303.495 66.7666ZM318.16 63.668C323.489 63.668 328.094 64.4629 332.027 65.9824L334.189 60.3856C329.439 58.5504 324.079 57.668 318.16 57.668V63.668ZM332.103 66.0106C336.149 67.4492 339.11 69.4487 341.163 71.9126L345.773 68.0714C342.893 64.6153 338.947 62.0761 334.113 60.3574L332.103 66.0106ZM341.163 71.9126C343.194 74.3497 344.168 77.0293 344.168 80.056H350.168C350.168 75.584 348.675 71.5543 345.773 68.0714L341.163 71.9126ZM344.168 80.056C344.168 81.5857 343.616 82.7558 342.334 83.7814L346.082 88.4666C348.747 86.3348 350.168 83.4597 350.168 80.056H344.168ZM342.349 83.7693C341.206 84.6718 339.536 85.2178 337.001 85.0542L336.615 91.0418C340.197 91.2729 343.461 90.5362 346.067 88.4786L342.349 83.7693ZM339.808 88.048C339.808 82.4776 337.73 77.7825 333.58 74.2262L329.676 78.7818C332.433 81.1455 333.808 84.1464 333.808 88.048H339.808ZM333.613 74.2545C329.599 70.7129 324.451 69.064 318.456 69.064V75.064C323.315 75.064 326.948 76.3751 329.643 78.7535L333.613 74.2545ZM318.456 69.064C312.461 69.064 307.313 70.7129 303.299 74.2545L307.269 78.7535C309.965 76.3751 313.597 75.064 318.456 75.064V69.064ZM303.337 74.2215C299.276 77.6857 297.252 82.2882 297.252 87.752H303.252C303.252 83.9411 304.583 81.045 307.231 78.7865L303.337 74.2215ZM297.252 87.752V110.84H303.252V87.752H297.252ZM297.252 110.84C297.252 116.184 299.385 120.677 303.518 124.102L307.346 119.482C304.573 117.184 303.252 114.376 303.252 110.84H297.252ZM303.558 124.135C307.656 127.413 312.803 128.936 318.752 128.936V122.936C313.847 122.936 310.115 121.697 307.306 119.449L303.558 124.135ZM318.752 128.936C324.747 128.936 329.895 127.287 333.909 123.746L329.939 119.246C327.244 121.625 323.611 122.936 318.752 122.936V128.936ZM333.876 123.774C338.01 120.231 340.104 115.593 340.104 110.1H334.104C334.104 113.881 332.745 116.841 329.972 119.218L333.876 123.774ZM337.291 113.094C339.955 112.928 341.665 113.488 342.793 114.379L346.511 109.669C343.89 107.6 340.568 106.878 336.917 107.106L337.291 113.094ZM342.932 114.482C344.043 115.26 344.612 116.283 344.612 117.944H350.612C350.612 114.475 349.207 111.551 346.372 109.566L342.932 114.482ZM344.612 117.944C344.612 120.971 343.638 123.65 341.607 126.087L346.217 129.929C349.119 126.446 350.612 122.416 350.612 117.944H344.612ZM341.607 126.087C339.541 128.567 336.559 130.621 332.492 132.158L334.612 137.77C339.425 135.952 343.35 133.369 346.217 129.929L341.607 126.087ZM332.547 132.137C328.485 133.582 323.802 134.332 318.456 134.332V140.332C324.358 140.332 329.739 139.504 334.557 137.791L332.547 132.137ZM378.058 134.076L379.308 131.349L379.308 131.349L378.058 134.076ZM366.958 124.9L364.443 126.535L364.457 126.557L364.472 126.578L366.958 124.9ZM366.958 73.544L364.453 71.894L364.439 71.9156L364.425 71.9374L366.958 73.544ZM377.91 64.072L376.592 61.3773L376.592 61.3773L377.91 64.072ZM408.842 63.184L407.761 65.9824L407.799 65.997L407.837 66.0106L408.842 63.184ZM419.202 69.992L416.898 71.9126L416.898 71.9126L419.202 69.992ZM419.942 86.124L421.801 88.4786L421.809 88.4727L421.817 88.4666L419.942 86.124ZM412.542 88.048H409.542V90.8607L412.349 91.0418L412.542 88.048ZM407.362 76.504L405.378 78.7535L405.394 78.7678L405.41 78.7818L407.362 76.504ZM381.018 76.504L382.965 78.7865L382.984 78.7702L383.003 78.7535L381.018 76.504ZM381.166 121.792L379.252 124.102L379.272 124.119L379.292 124.135L381.166 121.792ZM407.658 121.496L405.706 119.218L405.69 119.232L405.674 119.246L407.658 121.496ZM412.838 110.1L412.651 107.106L409.838 107.282V110.1H412.838ZM420.386 112.024L418.528 114.379L418.595 114.432L418.666 114.482L420.386 112.024ZM419.646 128.008L421.951 129.929L421.951 129.929L419.646 128.008ZM409.286 134.964L410.291 137.791L410.319 137.781L410.347 137.77L409.286 134.964ZM394.19 134.332C388.537 134.332 383.596 133.314 379.308 131.349L376.809 136.803C381.993 139.179 387.807 140.332 394.19 140.332V134.332ZM379.308 131.349C375.024 129.385 371.772 126.669 369.445 123.222L364.472 126.578C367.473 131.024 371.621 134.425 376.809 136.803L379.308 131.349ZM369.474 123.265C367.247 119.839 366.11 115.926 366.11 111.432H360.11C360.11 117.002 361.539 122.068 364.443 126.535L369.474 123.265ZM366.11 111.432V87.456H360.11V111.432H366.11ZM366.11 87.456C366.11 82.7414 367.259 78.6717 369.492 75.1506L364.425 71.9374C361.527 76.507 360.11 81.7119 360.11 87.456H366.11ZM369.464 75.194C371.813 71.6264 375.041 68.8163 379.229 66.7666L376.592 61.3773C371.506 63.8664 367.432 67.3709 364.453 71.894L369.464 75.194ZM379.229 66.7666C383.393 64.729 388.257 63.668 393.894 63.668V57.668C387.494 57.668 381.703 58.8763 376.592 61.3773L379.229 66.7666ZM393.894 63.668C399.224 63.668 403.828 64.4629 407.761 65.9824L409.924 60.3856C405.174 58.5504 399.813 57.668 393.894 57.668V63.668ZM407.837 66.0106C411.884 67.4492 414.845 69.4487 416.898 71.9126L421.507 68.0714C418.627 64.6153 414.681 62.0761 409.848 60.3574L407.837 66.0106ZM416.898 71.9126C418.929 74.3497 419.902 77.0293 419.902 80.056H425.902C425.902 75.584 424.41 71.5543 421.507 68.0714L416.898 71.9126ZM419.902 80.056C419.902 81.5857 419.35 82.7558 418.068 83.7814L421.817 88.4666C424.481 86.3348 425.902 83.4597 425.902 80.056H419.902ZM418.084 83.7693C416.94 84.6718 415.271 85.2178 412.736 85.0542L412.349 91.0418C415.932 91.2729 419.195 90.5362 421.801 88.4786L418.084 83.7693ZM415.542 88.048C415.542 82.4776 413.464 77.7825 409.315 74.2262L405.41 78.7818C408.168 81.1455 409.542 84.1464 409.542 88.048H415.542ZM409.347 74.2545C405.334 70.7129 400.185 69.064 394.19 69.064V75.064C399.049 75.064 402.682 76.3751 405.378 78.7535L409.347 74.2545ZM394.19 69.064C388.196 69.064 383.047 70.7129 379.034 74.2545L383.003 78.7535C385.699 76.3751 389.332 75.064 394.19 75.064V69.064ZM379.072 74.2215C375.01 77.6857 372.986 82.2882 372.986 87.752H378.986C378.986 83.9411 380.317 81.045 382.965 78.7865L379.072 74.2215ZM372.986 87.752V110.84H378.986V87.752H372.986ZM372.986 110.84C372.986 116.184 375.119 120.677 379.252 124.102L383.081 119.482C380.307 117.184 378.986 114.376 378.986 110.84H372.986ZM379.292 124.135C383.39 127.413 388.538 128.936 394.486 128.936V122.936C389.582 122.936 385.85 121.697 383.041 119.449L379.292 124.135ZM394.486 128.936C400.481 128.936 405.63 127.287 409.643 123.746L405.674 119.246C402.978 121.625 399.345 122.936 394.486 122.936V128.936ZM409.611 123.774C413.744 120.231 415.838 115.593 415.838 110.1H409.838C409.838 113.881 408.48 116.841 405.706 119.218L409.611 123.774ZM413.026 113.094C415.689 112.928 417.4 113.488 418.528 114.379L422.245 109.669C419.624 107.6 416.302 106.878 412.651 107.106L413.026 113.094ZM418.666 114.482C419.778 115.26 420.346 116.283 420.346 117.944H426.346C426.346 114.475 424.942 111.551 422.107 109.566L418.666 114.482ZM420.346 117.944C420.346 120.971 419.373 123.65 417.342 126.087L421.951 129.929C424.854 126.446 426.346 122.416 426.346 117.944H420.346ZM417.342 126.087C415.275 128.567 412.293 130.621 408.226 132.158L410.347 137.77C415.16 135.952 419.084 133.369 421.951 129.929L417.342 126.087ZM408.281 132.137C404.22 133.582 399.536 134.332 394.19 134.332V140.332C400.092 140.332 405.473 139.504 410.291 137.791L408.281 132.137ZM489.165 137.332H486.165V140.332H489.165V137.332ZM489.165 127.86L487.044 125.739L486.165 126.617V127.86H489.165ZM492.273 123.864L494.769 125.528L496.133 123.482L494.394 121.743L492.273 123.864ZM491.681 123.272L493.802 121.151L491.27 118.618L489.22 121.555L491.681 123.272ZM480.433 133.484L478.957 130.872L478.944 130.879L478.932 130.886L480.433 133.484ZM451.573 133.928L450.105 136.544L450.118 136.552L450.132 136.559L451.573 133.928ZM442.101 124.456L439.457 125.874L439.471 125.899L439.484 125.924L442.101 124.456ZM442.101 63.036L443.791 65.5147L443.829 65.489L443.865 65.4622L442.101 63.036ZM451.869 60.668H454.869V57.668H451.869V60.668ZM456.013 121.644L453.855 123.728L453.873 123.747L453.892 123.765L456.013 121.644ZM478.657 123.716L479.964 126.416L479.998 126.4L480.033 126.382L478.657 123.716ZM485.909 117.5L483.455 115.774L483.449 115.783L483.442 115.792L485.909 117.5ZM491.829 63.036L493.573 65.4772L493.583 65.4697L493.593 65.4622L491.829 63.036ZM501.597 60.668H504.597V57.668H501.597V60.668ZM498.597 126.38C498.597 129.463 497.74 131.256 496.506 132.343C495.199 133.494 492.933 134.332 489.165 134.332V140.332C493.684 140.332 497.634 139.345 500.472 136.845C503.382 134.281 504.597 130.599 504.597 126.38H498.597ZM492.165 137.332V127.86H486.165V137.332H492.165ZM491.286 129.981C492.377 128.89 493.54 127.372 494.769 125.528L489.777 122.2C488.638 123.908 487.728 125.054 487.044 125.739L491.286 129.981ZM494.394 121.743L493.802 121.151L489.56 125.393L490.152 125.985L494.394 121.743ZM489.22 121.555C486.519 125.427 483.108 128.526 478.957 130.872L481.909 136.096C486.835 133.311 490.922 129.602 494.141 124.989L489.22 121.555ZM478.932 130.886C474.966 133.178 470.603 134.332 465.781 134.332V140.332C471.614 140.332 477.019 138.921 481.934 136.082L478.932 130.886ZM465.781 134.332C460.891 134.332 456.662 133.295 453.014 131.297L450.132 136.559C454.772 139.1 460.014 140.332 465.781 140.332V134.332ZM453.041 131.312C449.477 129.312 446.717 126.552 444.717 122.988L439.484 125.924C442.024 130.45 445.579 134.005 450.105 136.544L453.041 131.312ZM444.744 123.038C442.83 119.469 441.845 115.426 441.845 110.84H435.845C435.845 116.318 437.031 121.352 439.457 125.874L444.744 123.038ZM441.845 110.84V70.14H435.845V110.84H441.845ZM441.845 70.14C441.845 67.6072 442.639 66.2998 443.791 65.5147L440.411 60.5573C437.221 62.7322 435.845 66.1608 435.845 70.14H441.845ZM443.865 65.4622C445.294 64.4234 447.802 63.668 451.869 63.668V57.668C447.253 57.668 443.249 58.4913 440.336 60.6098L443.865 65.4622ZM448.869 60.668V110.248H454.869V60.668H448.869ZM448.869 110.248C448.869 115.603 450.451 120.203 453.855 123.728L458.171 119.56C456.049 117.363 454.869 114.365 454.869 110.248H448.869ZM453.892 123.765C457.496 127.37 462.57 128.936 468.593 128.936V122.936C463.565 122.936 460.252 121.641 458.134 119.523L453.892 123.765ZM468.593 128.936C472.662 128.936 476.468 128.108 479.964 126.416L477.35 121.016C474.729 122.284 471.825 122.936 468.593 122.936V128.936ZM480.033 126.382C483.482 124.602 486.292 122.217 488.375 119.208L483.442 115.792C481.974 117.913 479.949 119.673 477.281 121.05L480.033 126.382ZM488.362 119.226C490.568 116.092 491.721 112.634 491.721 108.916H485.721C485.721 111.315 484.999 113.58 483.455 115.774L488.362 119.226ZM491.721 108.916V70.14H485.721V108.916H491.721ZM491.721 70.14C491.721 67.553 492.505 66.2398 493.573 65.4772L490.085 60.5948C487.009 62.7922 485.721 66.215 485.721 70.14H491.721ZM493.593 65.4622C495.022 64.4234 497.53 63.668 501.597 63.668V57.668C496.981 57.668 492.977 58.4913 490.064 60.6098L493.593 65.4622ZM498.597 60.668V126.38H504.597V60.668H498.597ZM534.854 135.112L533.849 137.939L533.877 137.949L533.905 137.958L534.854 135.112ZM524.05 128.452L521.854 130.496L521.873 130.516L521.892 130.536L524.05 128.452ZM528.638 110.692L531.591 110.165L531.118 107.514L528.432 107.699L528.638 110.692ZM535.594 122.976L533.826 125.399L533.862 125.426L533.9 125.452L535.594 122.976ZM563.122 124.308L561.715 121.659L561.715 121.659L563.122 124.308ZM565.934 110.692L563.606 112.584L563.636 112.621L563.667 112.657L565.934 110.692ZM559.718 106.696L558.536 109.453L558.595 109.478L558.654 109.501L559.718 106.696ZM547.73 103.292L547.065 106.217L547.093 106.224L547.12 106.229L547.73 103.292ZM532.19 98.556L533.389 95.8059L533.389 95.8059L532.19 98.556ZM523.31 91.896L520.869 93.6397L520.889 93.6681L520.91 93.696L523.31 91.896ZM523.902 70.584L526.274 72.4205L526.288 72.4024L526.302 72.384L523.902 70.584ZM533.67 63.332L534.796 66.1128L534.812 66.1062L534.828 66.0993L533.67 63.332ZM561.938 62.74L561.028 65.5988L561.038 65.6017L561.047 65.6046L561.938 62.74ZM572.594 68.66L570.513 70.821L570.533 70.8398L570.553 70.8584L572.594 68.66ZM574.074 83.016L575.831 85.448L575.874 85.4168L575.916 85.3841L574.074 83.016ZM566.674 85.236L563.681 85.4401L563.884 88.4162L566.861 88.2302L566.674 85.236ZM561.346 75.024L559.454 77.3523L559.494 77.3845L559.534 77.4153L561.346 75.024ZM536.778 73.84L538.4 76.3635L538.4 76.3635L536.778 73.84ZM536.482 88.048L534.91 90.603L534.967 90.638L535.025 90.6705L536.482 88.048ZM549.95 92.34L549.309 95.2707L549.335 95.2765L549.362 95.2817L549.95 92.34ZM572.742 100.924L570.934 103.318L570.961 103.339L570.989 103.359L572.742 100.924ZM572.002 131.856L573.677 134.345L573.692 134.335L573.707 134.324L572.002 131.856ZM549.062 134.332C544.328 134.332 539.915 133.637 535.803 132.266L533.905 137.958C538.673 139.547 543.732 140.332 549.062 140.332V134.332ZM535.859 132.285C531.776 130.833 528.595 128.84 526.208 126.368L521.892 130.536C525.031 133.787 529.053 136.233 533.849 137.939L535.859 132.285ZM526.246 126.408C524.089 124.092 523.054 121.464 523.054 118.388H517.054C517.054 123.008 518.683 127.09 521.854 130.496L526.246 126.408ZM523.054 118.388C523.054 116.658 523.55 115.731 524.203 115.146C524.944 114.482 526.336 113.858 528.844 113.685L528.432 107.699C525.218 107.921 522.318 108.777 520.197 110.678C517.988 112.659 517.054 115.382 517.054 118.388H523.054ZM525.685 111.219C526.773 117.312 529.408 122.176 533.826 125.399L537.362 120.553C534.479 118.448 532.477 115.123 531.591 110.165L525.685 111.219ZM533.9 125.452C538.264 128.438 543.632 129.824 549.802 129.824V123.824C544.527 123.824 540.423 122.645 537.288 120.5L533.9 125.452ZM549.802 129.824C555.751 129.824 560.754 128.963 564.53 126.957L561.715 121.659C559.176 123.007 555.298 123.824 549.802 123.824V129.824ZM564.53 126.957C566.491 125.915 568.112 124.514 569.229 122.698C570.35 120.877 570.858 118.811 570.858 116.612H564.858C564.858 117.866 564.577 118.81 564.119 119.554C563.658 120.303 562.91 121.023 561.715 121.659L564.53 126.957ZM570.858 116.612C570.858 113.617 570.069 110.883 568.201 108.727L563.667 112.657C564.364 113.461 564.858 114.674 564.858 116.612H570.858ZM568.262 108.8C566.519 106.654 563.907 105.076 560.782 103.891L558.654 109.501C561.252 110.486 562.784 111.572 563.606 112.584L568.262 108.8ZM560.9 103.939C557.864 102.637 553.639 101.454 548.34 100.355L547.12 106.229C552.28 107.3 556.047 108.387 558.536 109.453L560.9 103.939ZM548.395 100.367C541.972 98.9069 536.995 97.3777 533.389 95.8059L530.991 101.306C535.081 103.089 540.464 104.717 547.065 106.217L548.395 100.367ZM533.389 95.8059C529.915 94.2915 527.41 92.3625 525.71 90.096L520.91 93.696C523.354 96.9548 526.77 99.4658 530.991 101.306L533.389 95.8059ZM525.751 90.1523C524.246 88.0448 523.35 85.0652 523.35 80.944H517.35C517.35 85.9001 518.428 90.2219 520.869 93.6397L525.751 90.1523ZM523.35 80.944C523.35 77.7646 524.311 74.9565 526.274 72.4205L521.53 68.7475C518.757 72.3288 517.35 76.4274 517.35 80.944H523.35ZM526.302 72.384C528.301 69.7192 531.089 67.6131 534.796 66.1128L532.544 60.5512C527.963 62.4055 524.239 65.1341 521.502 68.784L526.302 72.384ZM534.828 66.0993C538.651 64.4993 543.033 63.668 548.026 63.668V57.668C542.363 57.668 537.175 58.6127 532.512 60.5647L534.828 66.0993ZM548.026 63.668C552.676 63.668 557.005 64.3185 561.028 65.5988L562.848 59.8812C558.189 58.3989 553.243 57.668 548.026 57.668V63.668ZM561.047 65.6046C565.153 66.882 568.261 68.6521 570.513 70.821L574.675 66.499C571.599 63.5372 567.603 61.3607 562.829 59.8754L561.047 65.6046ZM570.553 70.8584C572.788 72.9337 573.738 75.1272 573.738 77.54H579.738C579.738 73.2435 577.926 69.5169 574.635 66.4616L570.553 70.8584ZM573.738 77.54C573.738 78.8929 573.27 79.8407 572.232 80.6479L575.916 85.3841C578.43 83.4286 579.738 80.7257 579.738 77.54H573.738ZM572.318 80.584C571.162 81.4185 569.316 82.065 566.487 82.2418L566.861 88.2302C570.346 88.0123 573.434 87.1789 575.831 85.448L572.318 80.584ZM569.667 85.0319C569.316 79.889 567.155 75.6609 563.158 72.6327L559.534 77.4153C562.049 79.3205 563.44 81.9003 563.681 85.4401L569.667 85.0319ZM563.238 72.6957C559.365 69.5491 554.162 68.176 548.026 68.176V74.176C553.335 74.176 557.012 75.3683 559.454 77.3523L563.238 72.6957ZM548.026 68.176C542.956 68.176 538.572 69.1205 535.156 71.3165L538.4 76.3635C540.51 75.0075 543.624 74.176 548.026 74.176V68.176ZM535.156 71.3165C531.646 73.5728 529.634 76.8374 529.634 80.944H535.634C535.634 79.1306 536.385 77.6592 538.4 76.3635L535.156 71.3165ZM529.634 80.944C529.634 85.0822 531.406 88.4471 534.91 90.603L538.054 85.493C536.427 84.4916 535.634 83.1205 535.634 80.944H529.634ZM535.025 90.6705C538.097 92.3773 542.954 93.8806 549.309 95.2707L550.591 89.4093C544.317 88.0367 540.195 86.6787 537.939 85.4255L535.025 90.6705ZM549.362 95.2817C559.562 97.3217 566.635 100.072 570.934 103.318L574.55 98.5299C569.18 94.4751 561.058 91.5022 550.538 89.3983L549.362 95.2817ZM570.989 103.359C575.063 106.292 577.142 110.424 577.142 116.168H583.142C583.142 108.691 580.288 102.66 574.495 98.4894L570.989 103.359ZM577.142 116.168C577.142 121.912 574.896 126.21 570.297 129.388L573.707 134.324C579.961 130.003 583.142 123.842 583.142 116.168H577.142ZM570.328 129.367C565.588 132.555 558.616 134.332 549.062 134.332V140.332C559.241 140.332 567.562 138.458 573.677 134.345L570.328 129.367Z" fill="white" fill-opacity="0.89" mask="url(#path-2-outside-1_9_2)"/>
</svg>
