<svg width="696" height="181" viewBox="0 0 696 181" fill="none" xmlns="http://www.w3.org/2000/svg">
<path d="M0 0H696V98C696 143.84 658.84 181 613 181H0V0Z" fill="#020202" fill-opacity="0.35"/>
<mask id="path-2-outside-1_21_16" maskUnits="userSpaceOnUse" x="22" y="47" width="651" height="89" fill="black">
<rect fill="white" x="22" y="47" width="651" height="89"/>
<path d="M29.71 114C28.51 114 27.46 113.58 26.56 112.74C25.72 111.84 25.3 110.79 25.3 109.59V57.21C25.3 52.53 28.12 50.19 33.76 50.19V106.53H61.39C63.49 106.53 65.11 107.19 66.25 108.51C67.39 109.77 67.96 111.6 67.96 114H29.71ZM83.3591 61.44C81.6791 61.44 80.2691 60.9 79.1291 59.82C77.9891 58.74 77.4191 57.39 77.4191 55.77C77.4191 54.15 77.9891 52.83 79.1291 51.81C80.2691 50.73 81.6791 50.19 83.3591 50.19C84.9791 50.19 86.3591 50.73 87.4991 51.81C88.6391 52.83 89.2091 54.15 89.2091 55.77C89.2091 57.39 88.6391 58.74 87.4991 59.82C86.3591 60.9 84.9791 61.44 83.3591 61.44ZM79.3991 73.95C79.3991 71.97 80.0291 70.53 81.2891 69.63C82.6091 68.67 84.5891 68.19 87.2291 68.19V109.05C87.2291 111.03 86.5691 112.5 85.2491 113.46C83.9891 114.36 82.0391 114.81 79.3991 114.81V73.95ZM101.853 74.85C101.853 70.41 104.343 68.19 109.323 68.19V73.95C108.543 74.79 107.913 75.6 107.433 76.38L107.793 76.74C109.713 74.04 111.753 71.94 113.913 70.44C116.073 68.94 118.563 68.19 121.383 68.19C126.843 68.19 130.593 70.8 132.633 76.02C136.053 70.8 140.613 68.19 146.313 68.19C150.573 68.19 153.843 69.63 156.123 72.51C158.463 75.33 159.633 79.05 159.633 83.67V109.05C159.633 111.03 158.973 112.5 157.653 113.46C156.393 114.36 154.473 114.81 151.893 114.81V84.12C151.893 81.24 151.293 78.99 150.093 77.37C148.893 75.75 147.003 74.94 144.423 74.94C141.723 74.94 139.413 75.87 137.493 77.73C135.573 79.53 134.613 81.96 134.613 85.02V109.05C134.613 111.03 133.983 112.5 132.723 113.46C131.463 114.36 129.543 114.81 126.963 114.81V84.12C126.963 81.24 126.363 78.99 125.163 77.37C123.963 75.75 122.073 74.94 119.493 74.94C116.733 74.94 114.393 75.93 112.473 77.91C110.553 79.89 109.593 82.32 109.593 85.2V109.05C109.593 111.03 108.933 112.5 107.613 113.46C106.353 114.36 104.433 114.81 101.853 114.81V74.85ZM171.374 74.58C171.374 72.6 171.974 71.04 173.174 69.9C174.434 68.76 176.324 68.19 178.844 68.19V73.23L177.044 75.57L177.314 75.93C179.174 73.53 181.304 71.64 183.704 70.26C186.104 68.88 188.954 68.19 192.254 68.19C197.414 68.19 201.584 69.63 204.764 72.51C207.944 75.33 209.534 79.11 209.534 83.85V99.24C209.534 103.98 207.884 107.76 204.584 110.58C201.284 113.4 196.994 114.81 191.714 114.81C188.894 114.81 186.284 114.24 183.884 113.1C181.544 111.9 179.474 110.34 177.674 108.42L177.404 108.87C177.824 109.47 178.454 110.13 179.294 110.85V126.69C179.294 130.77 176.654 132.81 171.374 132.81V74.58ZM190.544 107.88C194.084 107.88 196.844 107.1 198.824 105.54C200.804 103.92 201.794 101.7 201.794 98.88V84.21C201.794 81.27 200.804 79.02 198.824 77.46C196.844 75.9 194.054 75.12 190.454 75.12C187.274 75.12 184.604 75.96 182.444 77.64C180.284 79.26 179.204 81.3 179.204 83.76V99.33C179.204 101.73 180.224 103.77 182.264 105.45C184.304 107.07 187.064 107.88 190.544 107.88ZM239.298 114.81C235.638 114.81 232.368 114.12 229.488 112.74C226.608 111.3 224.358 109.35 222.738 106.89C221.118 104.37 220.308 101.55 220.308 98.43V85.11C220.308 81.93 221.148 79.05 222.828 76.47C224.568 73.89 226.878 71.88 229.758 70.44C232.698 68.94 235.878 68.19 239.298 68.19C242.718 68.19 245.838 68.91 248.658 70.35C251.538 71.79 253.788 73.77 255.408 76.29C257.088 78.81 257.928 81.66 257.928 84.84V90.6C257.928 91.56 257.568 92.37 256.848 93.03C256.128 93.69 255.258 94.02 254.238 94.02H227.958V98.07C227.958 101.13 228.918 103.59 230.838 105.45C232.818 107.31 235.638 108.24 239.298 108.24C242.958 108.24 245.748 107.43 247.668 105.81C249.588 104.19 250.548 102 250.548 99.24C252.348 99.12 253.848 99.48 255.048 100.32C256.308 101.1 256.938 102.27 256.938 103.83C256.938 105.75 256.098 107.55 254.418 109.23C252.798 110.91 250.638 112.26 247.938 113.28C245.238 114.3 242.358 114.81 239.298 114.81ZM250.638 87.9V84.84C250.638 81.84 249.588 79.41 247.488 77.55C245.448 75.63 242.718 74.67 239.298 74.67C235.878 74.67 233.118 75.63 231.018 77.55C228.978 79.41 227.958 81.84 227.958 84.84V87.9H250.638ZM267.022 114C266.062 114 265.282 113.67 264.682 113.01C264.082 112.29 263.782 111.48 263.782 110.58C263.782 109.86 264.022 109.2 264.502 108.6L293.752 73.05L293.392 72.78L291.232 75.21H270.352C268.612 75.21 267.262 74.64 266.302 73.5C265.402 72.36 264.952 70.86 264.952 69H298.792C299.812 69 300.592 69.3 301.132 69.9C301.732 70.5 302.032 71.25 302.032 72.15C302.032 72.99 301.762 73.77 301.222 74.49L272.152 109.77L272.602 110.13L274.582 107.79H296.902C298.642 107.79 299.962 108.36 300.862 109.5C301.822 110.64 302.302 112.14 302.302 114H267.022ZM325.269 114.81C320.109 114.81 315.939 113.43 312.759 110.67C309.639 107.91 308.079 104.28 308.079 99.78C308.079 95.22 309.729 91.56 313.029 88.8C316.329 85.98 320.679 84.57 326.079 84.57C331.839 84.57 336.579 86.61 340.299 90.69L340.659 90.33C339.999 89.61 339.249 88.86 338.409 88.08V84.3C338.409 81.24 337.449 78.87 335.529 77.19C333.609 75.51 330.879 74.67 327.339 74.67C321.039 74.67 316.539 77.16 313.839 82.14C312.879 81.66 312.069 81.03 311.409 80.25C310.809 79.41 310.509 78.57 310.509 77.73C310.509 76.11 311.319 74.58 312.939 73.14C314.559 71.64 316.689 70.44 319.329 69.54C322.029 68.64 324.849 68.19 327.789 68.19C333.489 68.19 337.959 69.6 341.199 72.42C344.499 75.24 346.149 79.14 346.149 84.12V108.78C346.149 110.88 345.549 112.41 344.349 113.37C343.149 114.33 341.259 114.81 338.679 114.81V110.58C339.939 109.26 340.629 108.48 340.749 108.24L340.389 107.88C336.489 112.5 331.449 114.81 325.269 114.81ZM326.619 108.6C330.339 108.6 333.249 107.82 335.349 106.26C337.509 104.7 338.589 102.54 338.589 99.78C338.589 97.02 337.539 94.83 335.439 93.21C333.339 91.59 330.459 90.78 326.799 90.78C323.379 90.78 320.679 91.59 318.699 93.21C316.779 94.77 315.819 96.96 315.819 99.78C315.819 102.6 316.749 104.79 318.609 106.35C320.529 107.85 323.199 108.6 326.619 108.6ZM397.991 114.81C392.831 114.81 388.631 113.4 385.391 110.58C382.211 107.7 380.621 103.89 380.621 99.15V83.76C380.621 80.7 381.371 78 382.871 75.66C384.371 73.26 386.441 71.43 389.081 70.17C391.781 68.85 394.871 68.19 398.351 68.19C401.171 68.19 403.781 68.79 406.181 69.99C408.581 71.13 410.681 72.66 412.481 74.58L412.751 74.13C412.331 73.53 411.701 72.87 410.861 72.15V56.31C410.861 54.33 411.521 52.83 412.841 51.81C414.161 50.73 416.141 50.19 418.781 50.19V108.42C418.781 110.4 418.181 111.96 416.981 113.1C415.841 114.24 413.981 114.81 411.401 114.81V109.77C412.241 108.69 412.811 107.91 413.111 107.43L412.841 107.07C410.921 109.47 408.791 111.36 406.451 112.74C404.111 114.12 401.291 114.81 397.991 114.81ZM399.701 107.88C402.881 107.88 405.551 107.07 407.711 105.45C409.871 103.77 410.951 101.7 410.951 99.24V83.67C410.951 81.27 409.931 79.26 407.891 77.64C405.851 75.96 403.091 75.12 399.611 75.12C396.071 75.12 393.311 75.93 391.331 77.55C389.411 79.11 388.451 81.3 388.451 84.12V98.79C388.451 101.73 389.411 103.98 391.331 105.54C393.311 107.1 396.101 107.88 399.701 107.88ZM449.445 114.81C445.785 114.81 442.515 114.12 439.635 112.74C436.755 111.3 434.505 109.35 432.885 106.89C431.265 104.37 430.455 101.55 430.455 98.43V85.11C430.455 81.93 431.295 79.05 432.975 76.47C434.715 73.89 437.025 71.88 439.905 70.44C442.845 68.94 446.025 68.19 449.445 68.19C452.865 68.19 455.985 68.91 458.805 70.35C461.685 71.79 463.935 73.77 465.555 76.29C467.235 78.81 468.075 81.66 468.075 84.84V90.6C468.075 91.56 467.715 92.37 466.995 93.03C466.275 93.69 465.405 94.02 464.385 94.02H438.105V98.07C438.105 101.13 439.065 103.59 440.985 105.45C442.965 107.31 445.785 108.24 449.445 108.24C453.105 108.24 455.895 107.43 457.815 105.81C459.735 104.19 460.695 102 460.695 99.24C462.495 99.12 463.995 99.48 465.195 100.32C466.455 101.1 467.085 102.27 467.085 103.83C467.085 105.75 466.245 107.55 464.565 109.23C462.945 110.91 460.785 112.26 458.085 113.28C455.385 114.3 452.505 114.81 449.445 114.81ZM460.785 87.9V84.84C460.785 81.84 459.735 79.41 457.635 77.55C455.595 75.63 452.865 74.67 449.445 74.67C446.025 74.67 443.265 75.63 441.165 77.55C439.125 79.41 438.105 81.84 438.105 84.84V87.9H460.785ZM501.667 54.96C501.667 53.82 502.057 52.89 502.837 52.17C503.677 51.39 504.727 51 505.987 51H532.267C536.227 51 539.737 51.84 542.797 53.52C545.857 55.14 548.227 57.45 549.907 60.45C551.587 63.39 552.427 66.78 552.427 70.62C552.427 74.58 551.587 78.06 549.907 81.06C548.287 84.06 545.947 86.37 542.887 87.99C539.827 89.61 536.287 90.42 532.267 90.42H510.127V107.79C510.127 110.07 509.407 111.81 507.967 113.01C506.527 114.21 504.427 114.81 501.667 114.81V54.96ZM532.267 82.95C535.867 82.95 538.717 81.87 540.817 79.71C542.917 77.49 543.967 74.46 543.967 70.62C543.967 66.9 542.887 63.96 540.727 61.8C538.627 59.58 535.807 58.47 532.267 58.47H510.127V82.95H532.267ZM574.953 114.81C571.293 114.81 568.023 114.12 565.143 112.74C562.263 111.3 560.013 109.35 558.393 106.89C556.773 104.37 555.963 101.55 555.963 98.43V85.11C555.963 81.93 556.803 79.05 558.483 76.47C560.223 73.89 562.533 71.88 565.413 70.44C568.353 68.94 571.533 68.19 574.953 68.19C578.373 68.19 581.493 68.91 584.313 70.35C587.193 71.79 589.443 73.77 591.063 76.29C592.743 78.81 593.583 81.66 593.583 84.84V90.6C593.583 91.56 593.223 92.37 592.503 93.03C591.783 93.69 590.913 94.02 589.893 94.02H563.613V98.07C563.613 101.13 564.573 103.59 566.493 105.45C568.473 107.31 571.293 108.24 574.953 108.24C578.613 108.24 581.403 107.43 583.323 105.81C585.243 104.19 586.203 102 586.203 99.24C588.003 99.12 589.503 99.48 590.703 100.32C591.963 101.1 592.593 102.27 592.593 103.83C592.593 105.75 591.753 107.55 590.073 109.23C588.453 110.91 586.293 112.26 583.593 113.28C580.893 114.3 578.013 114.81 574.953 114.81ZM586.293 87.9V84.84C586.293 81.84 585.243 79.41 583.143 77.55C581.103 75.63 578.373 74.67 574.953 74.67C571.533 74.67 568.773 75.63 566.673 77.55C564.633 79.41 563.613 81.84 563.613 84.84V87.9H586.293ZM617.022 114.81C612.642 114.81 609.372 113.61 607.212 111.21C605.052 108.75 603.972 105.54 603.972 101.58V55.95C603.972 53.97 604.602 52.53 605.862 51.63C607.182 50.67 609.162 50.19 611.802 50.19V101.31C611.802 103.65 612.282 105.33 613.242 106.35C614.202 107.37 615.792 107.88 618.012 107.88C620.232 107.88 622.272 107.34 624.132 106.26C624.912 107.16 625.302 108.21 625.302 109.41C625.302 110.85 624.552 112.11 623.052 113.19C621.552 114.27 619.542 114.81 617.022 114.81ZM650.538 114.81C646.878 114.81 643.608 114.12 640.728 112.74C637.848 111.3 635.598 109.35 633.978 106.89C632.358 104.37 631.548 101.55 631.548 98.43V85.11C631.548 81.93 632.388 79.05 634.068 76.47C635.808 73.89 638.118 71.88 640.998 70.44C643.938 68.94 647.118 68.19 650.538 68.19C653.958 68.19 657.078 68.91 659.898 70.35C662.778 71.79 665.028 73.77 666.648 76.29C668.328 78.81 669.168 81.66 669.168 84.84V90.6C669.168 91.56 668.808 92.37 668.088 93.03C667.368 93.69 666.498 94.02 665.478 94.02H639.198V98.07C639.198 101.13 640.158 103.59 642.078 105.45C644.058 107.31 646.878 108.24 650.538 108.24C654.198 108.24 656.988 107.43 658.908 105.81C660.828 104.19 661.788 102 661.788 99.24C663.588 99.12 665.088 99.48 666.288 100.32C667.548 101.1 668.178 102.27 668.178 103.83C668.178 105.75 667.338 107.55 665.658 109.23C664.038 110.91 661.878 112.26 659.178 113.28C656.478 114.3 653.598 114.81 650.538 114.81ZM661.878 87.9V84.84C661.878 81.84 660.828 79.41 658.728 77.55C656.688 75.63 653.958 74.67 650.538 74.67C647.118 74.67 644.358 75.63 642.258 77.55C640.218 79.41 639.198 81.84 639.198 84.84V87.9H661.878Z"/>
</mask>
<path d="M26.56 112.74L24.3668 114.787L24.4374 114.863L24.513 114.933L26.56 112.74ZM33.76 50.19H36.76V47.19H33.76V50.19ZM33.76 106.53H30.76V109.53H33.76V106.53ZM66.25 108.51L63.9795 110.471L64.0022 110.497L64.0254 110.523L66.25 108.51ZM67.96 114V117H70.96V114H67.96ZM29.71 111C29.2914 111 28.9674 110.883 28.607 110.547L24.513 114.933C25.9526 116.277 27.7286 117 29.71 117V111ZM28.7532 110.693C28.4168 110.333 28.3 110.009 28.3 109.59H22.3C22.3 111.571 23.0232 113.347 24.3668 114.787L28.7532 110.693ZM28.3 109.59V57.21H22.3V109.59H28.3ZM28.3 57.21C28.3 55.495 28.7899 54.7025 29.3307 54.2537C29.9788 53.7159 31.2803 53.19 33.76 53.19V47.19C30.5997 47.19 27.6712 47.8341 25.4993 49.6363C23.2201 51.5275 22.3 54.245 22.3 57.21H28.3ZM30.76 50.19V106.53H36.76V50.19H30.76ZM33.76 109.53H61.39V103.53H33.76V109.53ZM61.39 109.53C62.813 109.53 63.5255 109.945 63.9795 110.471L68.5205 106.549C66.6945 104.435 64.167 103.53 61.39 103.53V109.53ZM64.0254 110.523C64.4935 111.04 64.96 112.038 64.96 114H70.96C70.96 111.162 70.2865 108.5 68.4746 106.497L64.0254 110.523ZM67.96 111H29.71V117H67.96V111ZM79.1291 59.82L81.1924 57.6421L81.1924 57.6421L79.1291 59.82ZM79.1291 51.81L81.1295 54.0457L81.1614 54.0172L81.1924 53.9879L79.1291 51.81ZM87.4991 51.81L85.4359 53.9879L85.4669 54.0172L85.4988 54.0457L87.4991 51.81ZM87.4991 59.82L85.4359 57.6421L85.4359 57.6421L87.4991 59.82ZM81.2891 69.63L83.0329 72.0712L83.0433 72.0637L83.0537 72.0562L81.2891 69.63ZM87.2291 68.19H90.2291V65.19H87.2291V68.19ZM85.2491 113.46L86.9929 115.901L87.0033 115.894L87.0137 115.886L85.2491 113.46ZM79.3991 114.81H76.3991V117.81H79.3991V114.81ZM83.3591 58.44C82.3879 58.44 81.7338 58.1551 81.1924 57.6421L77.0659 61.9979C78.8045 63.6449 80.9704 64.44 83.3591 64.44V58.44ZM81.1924 57.6421C80.6714 57.1486 80.4191 56.5956 80.4191 55.77H74.4191C74.4191 58.1844 75.3069 60.3314 77.0659 61.9979L81.1924 57.6421ZM80.4191 55.77C80.4191 54.9465 80.6668 54.4597 81.1295 54.0457L77.1288 49.5743C75.3114 51.2003 74.4191 53.3535 74.4191 55.77H80.4191ZM81.1924 53.9879C81.7338 53.4749 82.3879 53.19 83.3591 53.19V47.19C80.9704 47.19 78.8045 47.9851 77.0659 49.6321L81.1924 53.9879ZM83.3591 53.19C84.2385 53.19 84.8724 53.454 85.4359 53.9879L89.5624 49.6321C87.8459 48.006 85.7198 47.19 83.3591 47.19V53.19ZM85.4988 54.0457C85.9614 54.4597 86.2091 54.9465 86.2091 55.77H92.2091C92.2091 53.3535 91.3168 51.2003 89.4995 49.5743L85.4988 54.0457ZM86.2091 55.77C86.2091 56.5956 85.9569 57.1486 85.4359 57.6421L89.5624 61.9979C91.3214 60.3314 92.2091 58.1844 92.2091 55.77H86.2091ZM85.4359 57.6421C84.8724 58.176 84.2385 58.44 83.3591 58.44V64.44C85.7198 64.44 87.8459 63.624 89.5624 61.9979L85.4359 57.6421ZM82.3991 73.95C82.3991 72.639 82.7772 72.2538 83.0329 72.0712L79.5454 67.1888C77.2811 68.8062 76.3991 71.301 76.3991 73.95H82.3991ZM83.0537 72.0562C83.6314 71.6361 84.8636 71.19 87.2291 71.19V65.19C84.3147 65.19 81.5869 65.7039 79.5246 67.2038L83.0537 72.0562ZM84.2291 68.19V109.05H90.2291V68.19H84.2291ZM84.2291 109.05C84.2291 110.301 83.8592 110.761 83.4846 111.034L87.0137 115.886C89.2791 114.239 90.2291 111.759 90.2291 109.05H84.2291ZM83.5054 111.019C83.0017 111.379 81.8089 111.81 79.3991 111.81V117.81C82.2693 117.81 84.9766 117.341 86.9929 115.901L83.5054 111.019ZM82.3991 114.81V73.95H76.3991V114.81H82.3991ZM109.323 68.19H112.323V65.19H109.323V68.19ZM109.323 73.95L111.521 75.9914L112.323 75.1281V73.95H109.323ZM107.433 76.38L104.878 74.8077L103.636 76.8258L105.311 78.5013L107.433 76.38ZM107.793 76.74L105.671 78.8613L108.181 81.3708L110.238 78.4786L107.793 76.74ZM113.913 70.44L112.202 67.9759L112.202 67.9759L113.913 70.44ZM132.633 76.02L129.839 77.112L131.955 82.5283L135.142 77.6641L132.633 76.02ZM156.123 72.51L153.771 74.3721L153.792 74.3992L153.814 74.4257L156.123 72.51ZM157.653 113.46L159.396 115.901L159.407 115.894L159.417 115.886L157.653 113.46ZM151.893 114.81H148.893V117.81H151.893V114.81ZM150.093 77.37L147.682 79.1557L147.682 79.1557L150.093 77.37ZM137.493 77.73L139.545 79.9186L139.562 79.9018L139.58 79.8847L137.493 77.73ZM132.723 113.46L134.466 115.901L134.504 115.874L134.541 115.846L132.723 113.46ZM126.963 114.81H123.963V117.81H126.963V114.81ZM125.163 77.37L127.573 75.5843L127.573 75.5843L125.163 77.37ZM107.613 113.46L109.356 115.901L109.367 115.894L109.377 115.886L107.613 113.46ZM101.853 114.81H98.8527V117.81H101.853V114.81ZM104.853 74.85C104.853 73.1872 105.303 72.4629 105.717 72.0942C106.196 71.6671 107.216 71.19 109.323 71.19V65.19C106.45 65.19 103.735 65.8229 101.724 67.6158C99.6473 69.4671 98.8527 72.0727 98.8527 74.85H104.853ZM106.323 68.19V73.95H112.323V68.19H106.323ZM107.124 71.9086C106.242 72.8586 105.483 73.8244 104.878 74.8077L109.988 77.9523C110.343 77.3756 110.843 76.7214 111.521 75.9914L107.124 71.9086ZM105.311 78.5013L105.671 78.8613L109.914 74.6187L109.554 74.2587L105.311 78.5013ZM110.238 78.4786C112.007 75.9907 113.812 74.1626 115.624 72.9041L112.202 67.9759C109.694 69.7174 107.419 72.0892 105.348 75.0014L110.238 78.4786ZM115.624 72.9041C117.245 71.7787 119.128 71.19 121.383 71.19V65.19C117.998 65.19 114.901 66.1013 112.202 67.9759L115.624 72.9041ZM121.383 71.19C123.622 71.19 125.296 71.7186 126.576 72.6098C127.863 73.5051 128.985 74.9292 129.839 77.112L135.427 74.928C134.24 71.8908 132.468 69.3999 130.004 67.6852C127.534 65.9664 124.603 65.19 121.383 65.19V71.19ZM135.142 77.6641C138.07 73.1951 141.733 71.19 146.313 71.19V65.19C139.492 65.19 134.035 68.4049 130.123 74.3759L135.142 77.6641ZM146.313 71.19C149.821 71.19 152.155 72.3308 153.771 74.3721L158.475 70.6479C155.531 66.9292 151.325 65.19 146.313 65.19V71.19ZM153.814 74.4257C155.601 76.579 156.633 79.5626 156.633 83.67H162.633C162.633 78.5374 161.325 74.081 158.431 70.5943L153.814 74.4257ZM156.633 83.67V109.05H162.633V83.67H156.633ZM156.633 109.05C156.633 110.301 156.263 110.761 155.888 111.034L159.417 115.886C161.683 114.239 162.633 111.759 162.633 109.05H156.633ZM155.909 111.019C155.397 111.385 154.225 111.81 151.893 111.81V117.81C154.721 117.81 157.389 117.335 159.396 115.901L155.909 111.019ZM154.893 114.81V84.12H148.893V114.81H154.893ZM154.893 84.12C154.893 80.8635 154.219 77.9004 152.503 75.5843L147.682 79.1557C148.366 80.0796 148.893 81.6165 148.893 84.12H154.893ZM152.503 75.5843C150.583 72.9921 147.66 71.94 144.423 71.94V77.94C146.345 77.94 147.202 78.5079 147.682 79.1557L152.503 75.5843ZM144.423 71.94C140.952 71.94 137.891 73.1671 135.405 75.5753L139.58 79.8847C140.934 78.5729 142.493 77.94 144.423 77.94V71.94ZM135.441 75.5414C132.816 78.002 131.613 81.2781 131.613 85.02H137.613C137.613 82.6419 138.329 81.058 139.545 79.9186L135.441 75.5414ZM131.613 85.02V109.05H137.613V85.02H131.613ZM131.613 109.05C131.613 110.353 131.236 110.822 130.905 111.074L134.541 115.846C136.73 114.178 137.613 111.707 137.613 109.05H131.613ZM130.979 111.019C130.467 111.385 129.295 111.81 126.963 111.81V117.81C129.791 117.81 132.459 117.335 134.466 115.901L130.979 111.019ZM129.963 114.81V84.12H123.963V114.81H129.963ZM129.963 84.12C129.963 80.8635 129.289 77.9004 127.573 75.5843L122.752 79.1557C123.436 80.0796 123.963 81.6165 123.963 84.12H129.963ZM127.573 75.5843C125.653 72.9921 122.73 71.94 119.493 71.94V77.94C121.415 77.94 122.272 78.5079 122.752 79.1557L127.573 75.5843ZM119.493 71.94C115.922 71.94 112.805 73.2584 110.319 75.8216L114.626 79.9984C115.981 78.6016 117.544 77.94 119.493 77.94V71.94ZM110.319 75.8216C107.83 78.3881 106.593 81.5786 106.593 85.2H112.593C112.593 83.0614 113.275 81.3918 114.626 79.9984L110.319 75.8216ZM106.593 85.2V109.05H112.593V85.2H106.593ZM106.593 109.05C106.593 110.301 106.223 110.761 105.848 111.034L109.377 115.886C111.643 114.239 112.593 111.759 112.593 109.05H106.593ZM105.869 111.019C105.357 111.385 104.185 111.81 101.853 111.81V117.81C104.681 117.81 107.349 117.335 109.356 115.901L105.869 111.019ZM104.853 114.81V74.85H98.8527V114.81H104.853ZM173.174 69.9L171.161 67.6754L171.134 67.6999L171.108 67.725L173.174 69.9ZM178.844 68.19H181.844V65.19H178.844V68.19ZM178.844 73.23L181.222 75.0591L181.844 74.2504V73.23H178.844ZM177.044 75.57L174.666 73.7409L173.277 75.547L174.644 77.37L177.044 75.57ZM177.314 75.93L174.914 77.73L177.275 80.8779L179.685 77.7677L177.314 75.93ZM183.704 70.26L182.209 67.6593L182.209 67.6593L183.704 70.26ZM204.764 72.51L202.75 74.7336L202.762 74.7441L202.774 74.7546L204.764 72.51ZM204.584 110.58L202.635 108.299L202.635 108.299L204.584 110.58ZM183.884 113.1L182.515 115.769L182.556 115.79L182.597 115.81L183.884 113.1ZM177.674 108.42L179.863 106.368L177.146 103.47L175.102 106.877L177.674 108.42ZM177.404 108.87L174.832 107.327L173.83 108.996L174.947 110.59L177.404 108.87ZM179.294 110.85H182.294V109.47L181.247 108.572L179.294 110.85ZM171.374 132.81H168.374V135.81H171.374V132.81ZM198.824 105.54L200.681 107.896L200.703 107.879L200.724 107.862L198.824 105.54ZM198.824 77.46L200.681 75.1035L200.681 75.1035L198.824 77.46ZM182.444 77.64L184.244 80.04L184.265 80.0242L184.286 80.0081L182.444 77.64ZM182.264 105.45L180.357 107.766L180.378 107.783L180.399 107.799L182.264 105.45ZM174.374 74.58C174.374 73.248 174.752 72.5388 175.24 72.075L171.108 67.725C169.196 69.5412 168.374 71.952 168.374 74.58H174.374ZM175.187 72.1246C175.681 71.6777 176.717 71.19 178.844 71.19V65.19C175.932 65.19 173.188 65.8423 171.161 67.6754L175.187 72.1246ZM175.844 68.19V73.23H181.844V68.19H175.844ZM176.466 71.4009L174.666 73.7409L179.422 77.3991L181.222 75.0591L176.466 71.4009ZM174.644 77.37L174.914 77.73L179.714 74.13L179.444 73.77L174.644 77.37ZM179.685 77.7677C181.329 75.6467 183.17 74.0278 185.2 72.8607L182.209 67.6593C179.438 69.2522 177.019 71.4133 174.943 74.0923L179.685 77.7677ZM185.2 72.8607C187.064 71.7885 189.378 71.19 192.254 71.19V65.19C188.53 65.19 185.144 65.9715 182.209 67.6593L185.2 72.8607ZM192.254 71.19C196.829 71.19 200.23 72.4506 202.75 74.7336L206.778 70.2864C202.939 66.8094 198 65.19 192.254 65.19V71.19ZM202.774 74.7546C205.234 76.9359 206.534 79.8578 206.534 83.85H212.534C212.534 78.3622 210.655 73.7241 206.755 70.2654L202.774 74.7546ZM206.534 83.85V99.24H212.534V83.85H206.534ZM206.534 99.24C206.534 103.194 205.202 106.106 202.635 108.299L206.533 112.861C210.566 109.414 212.534 104.766 212.534 99.24H206.534ZM202.635 108.299C199.99 110.56 196.441 111.81 191.714 111.81V117.81C197.548 117.81 202.579 116.24 206.533 112.861L202.635 108.299ZM191.714 111.81C189.312 111.81 187.145 111.327 185.171 110.39L182.597 115.81C185.424 117.153 188.477 117.81 191.714 117.81V111.81ZM185.253 110.431C183.22 109.388 181.427 108.037 179.863 106.368L175.486 110.472C177.521 112.643 179.868 114.412 182.515 115.769L185.253 110.431ZM175.102 106.877L174.832 107.327L179.977 110.413L180.247 109.963L175.102 106.877ZM174.947 110.59C175.564 111.473 176.397 112.318 177.342 113.128L181.247 108.572C180.511 107.942 180.084 107.467 179.862 107.15L174.947 110.59ZM176.294 110.85V126.69H182.294V110.85H176.294ZM176.294 126.69C176.294 128.031 175.9 128.582 175.48 128.906C174.913 129.344 173.711 129.81 171.374 129.81V135.81C174.317 135.81 177.075 135.256 179.149 133.654C181.368 131.938 182.294 129.429 182.294 126.69H176.294ZM174.374 132.81V74.58H168.374V132.81H174.374ZM190.544 110.88C194.491 110.88 197.994 110.013 200.681 107.896L196.968 103.184C195.694 104.187 193.678 104.88 190.544 104.88V110.88ZM200.724 107.862C203.477 105.609 204.794 102.495 204.794 98.88H198.794C198.794 100.905 198.131 102.231 196.925 103.218L200.724 107.862ZM204.794 98.88V84.21H198.794V98.88H204.794ZM204.794 84.21C204.794 80.5227 203.508 77.3309 200.681 75.1035L196.968 79.8165C198.101 80.7091 198.794 82.0173 198.794 84.21H204.794ZM200.681 75.1035C197.987 72.9809 194.447 72.12 190.454 72.12V78.12C193.662 78.12 195.702 78.8191 196.968 79.8165L200.681 75.1035ZM190.454 72.12C186.72 72.12 183.372 73.1181 180.602 75.2719L184.286 80.0081C185.837 78.8019 187.829 78.12 190.454 78.12V72.12ZM180.644 75.24C177.814 77.3627 176.204 80.2542 176.204 83.76H182.204C182.204 82.3458 182.755 81.1573 184.244 80.04L180.644 75.24ZM176.204 83.76V99.33H182.204V83.76H176.204ZM176.204 99.33C176.204 102.724 177.705 105.581 180.357 107.766L184.171 103.134C182.744 101.959 182.204 100.736 182.204 99.33H176.204ZM180.399 107.799C183.123 109.963 186.614 110.88 190.544 110.88V104.88C187.514 104.88 185.485 104.177 184.13 103.101L180.399 107.799ZM229.488 112.74L228.147 115.423L228.169 115.435L228.192 115.445L229.488 112.74ZM222.738 106.89L220.215 108.512L220.224 108.526L220.233 108.54L222.738 106.89ZM222.828 76.47L220.341 74.7926L220.327 74.8127L220.314 74.833L222.828 76.47ZM229.758 70.44L231.1 73.1233L231.111 73.1178L231.122 73.1123L229.758 70.44ZM248.658 70.35L247.294 73.0218L247.305 73.0276L247.317 73.0333L248.658 70.35ZM255.408 76.29L252.885 77.9123L252.898 77.9333L252.912 77.9541L255.408 76.29ZM256.848 93.03L258.875 95.2415L258.875 95.2415L256.848 93.03ZM227.958 94.02V91.02H224.958V94.02H227.958ZM230.838 105.45L228.751 107.605L228.767 107.621L228.784 107.637L230.838 105.45ZM250.548 99.24L250.349 96.2466L247.548 96.4333V99.24H250.548ZM255.048 100.32L253.328 102.778L253.397 102.826L253.469 102.871L255.048 100.32ZM254.418 109.23L252.297 107.109L252.278 107.128L252.259 107.148L254.418 109.23ZM247.938 113.28L246.878 110.474L246.878 110.474L247.938 113.28ZM250.638 87.9V90.9H253.638V87.9H250.638ZM247.488 77.55L245.432 79.7346L245.465 79.7657L245.499 79.7958L247.488 77.55ZM231.018 77.55L233.039 79.7669L233.043 79.7641L231.018 77.55ZM227.958 87.9H224.958V90.9H227.958V87.9ZM239.298 111.81C236.021 111.81 233.205 111.194 230.785 110.035L228.192 115.445C231.532 117.046 235.255 117.81 239.298 117.81V111.81ZM230.83 110.057C228.377 108.83 226.547 107.219 225.244 105.24L220.233 108.54C222.17 111.481 224.84 113.77 228.147 115.423L230.83 110.057ZM225.262 105.268C223.966 103.252 223.308 101 223.308 98.43H217.308C217.308 102.1 218.27 105.488 220.215 108.512L225.262 105.268ZM223.308 98.43V85.11H217.308V98.43H223.308ZM223.308 85.11C223.308 82.491 223.99 80.1833 225.342 78.107L220.314 74.833C218.306 77.9167 217.308 81.369 217.308 85.11H223.308ZM225.315 78.1474C226.756 76.011 228.665 74.3406 231.1 73.1233L228.417 67.7567C225.091 69.4194 222.38 71.769 220.341 74.7926L225.315 78.1474ZM231.122 73.1123C233.624 71.8356 236.334 71.19 239.298 71.19V65.19C235.422 65.19 231.773 66.0444 228.395 67.7677L231.122 73.1123ZM239.298 71.19C242.283 71.19 244.93 71.8145 247.294 73.0218L250.023 67.6782C246.747 66.0055 243.154 65.19 239.298 65.19V71.19ZM247.317 73.0333C249.752 74.2509 251.578 75.8796 252.885 77.9123L257.932 74.6677C255.998 71.6604 253.325 69.3291 250 67.6667L247.317 73.0333ZM252.912 77.9541C254.247 79.9559 254.928 82.2211 254.928 84.84H260.928C260.928 81.0989 259.93 77.6641 257.904 74.6259L252.912 77.9541ZM254.928 84.84V90.6H260.928V84.84H254.928ZM254.928 90.6C254.928 90.6517 254.923 90.6814 254.921 90.6939C254.92 90.7006 254.918 90.7044 254.918 90.7061C254.917 90.7077 254.917 90.7085 254.917 90.7091C254.917 90.7096 254.916 90.7112 254.914 90.7142C254.912 90.7172 254.909 90.7226 254.903 90.7306C254.892 90.7463 254.867 90.7763 254.821 90.8185L258.875 95.2415C260.203 94.0245 260.928 92.4174 260.928 90.6H254.928ZM254.821 90.8185C254.681 90.9472 254.544 91.02 254.238 91.02V97.02C255.972 97.02 257.576 96.4328 258.875 95.2415L254.821 90.8185ZM254.238 91.02H227.958V97.02H254.238V91.02ZM224.958 94.02V98.07H230.958V94.02H224.958ZM224.958 98.07C224.958 101.814 226.161 105.096 228.751 107.605L232.926 103.295C231.675 102.084 230.958 100.446 230.958 98.07H224.958ZM228.784 107.637C231.49 110.179 235.145 111.24 239.298 111.24V105.24C236.131 105.24 234.146 104.441 232.892 103.263L228.784 107.637ZM239.298 111.24C243.351 111.24 246.941 110.348 249.603 108.103L245.734 103.517C244.555 104.512 242.566 105.24 239.298 105.24V111.24ZM249.603 108.103C252.27 105.852 253.548 102.785 253.548 99.24H247.548C247.548 101.215 246.906 102.528 245.734 103.517L249.603 108.103ZM250.748 102.233C252.028 102.148 252.808 102.414 253.328 102.778L256.769 97.8623C254.888 96.5459 252.668 96.092 250.349 96.2466L250.748 102.233ZM253.469 102.871C253.791 103.07 253.938 103.243 253.938 103.83H259.938C259.938 101.297 258.826 99.1301 256.627 97.7692L253.469 102.871ZM253.938 103.83C253.938 104.774 253.556 105.85 252.297 107.109L256.54 111.351C258.641 109.25 259.938 106.726 259.938 103.83H253.938ZM252.259 107.148C251.011 108.441 249.259 109.574 246.878 110.474L248.998 116.086C252.018 114.946 254.585 113.379 256.578 111.312L252.259 107.148ZM246.878 110.474C244.537 111.358 242.018 111.81 239.298 111.81V117.81C242.698 117.81 245.94 117.242 248.998 116.086L246.878 110.474ZM253.638 87.9V84.84H247.638V87.9H253.638ZM253.638 84.84C253.638 81.0486 252.269 77.7768 249.477 75.3042L245.499 79.7958C246.907 81.0432 247.638 82.6314 247.638 84.84H253.638ZM249.544 75.3654C246.83 72.8112 243.304 71.67 239.298 71.67V77.67C242.132 77.67 244.066 78.4488 245.432 79.7346L249.544 75.3654ZM239.298 71.67C235.289 71.67 231.754 72.8121 228.994 75.3359L233.043 79.7641C234.482 78.4479 236.468 77.67 239.298 77.67V71.67ZM228.997 75.3331C226.275 77.8145 224.958 81.0782 224.958 84.84H230.958C230.958 82.6018 231.681 81.0055 233.039 79.7669L228.997 75.3331ZM224.958 84.84V87.9H230.958V84.84H224.958ZM227.958 90.9H250.638V84.9H227.958V90.9ZM264.682 113.01L262.378 114.931L262.419 114.98L262.463 115.028L264.682 113.01ZM264.502 108.6L262.186 106.694L262.173 106.71L262.16 106.726L264.502 108.6ZM293.752 73.05L296.069 74.9561L298.063 72.5328L295.552 70.65L293.752 73.05ZM293.392 72.78L295.192 70.38L292.984 68.7238L291.15 70.7869L293.392 72.78ZM291.232 75.21V78.21H292.58L293.475 77.2031L291.232 75.21ZM266.302 73.5L263.948 75.3589L263.977 75.3961L264.008 75.4324L266.302 73.5ZM264.952 69V66H261.952V69H264.952ZM301.132 69.9L298.903 71.9069L298.955 71.9655L299.011 72.0213L301.132 69.9ZM301.222 74.49L303.538 76.3977L303.581 76.3448L303.622 76.29L301.222 74.49ZM272.152 109.77L269.837 107.862L267.902 110.211L270.278 112.113L272.152 109.77ZM272.602 110.13L270.728 112.473L273.007 114.296L274.893 112.068L272.602 110.13ZM274.582 107.79V104.79H273.191L272.292 105.852L274.582 107.79ZM300.862 109.5L298.508 111.359L298.537 111.396L298.568 111.432L300.862 109.5ZM302.302 114V117H305.302V114H302.302ZM267.022 111C266.954 111 266.914 110.994 266.895 110.991C266.877 110.987 266.876 110.985 266.886 110.99C266.897 110.994 266.907 111 266.915 111.006C266.922 111.011 266.918 111.009 266.902 110.992L262.463 115.028C263.678 116.365 265.29 117 267.022 117V111ZM266.987 111.089C266.816 110.884 266.782 110.747 266.782 110.58H260.782C260.782 112.213 261.349 113.696 262.378 114.931L266.987 111.089ZM266.782 110.58C266.782 110.567 266.783 110.563 266.783 110.565C266.783 110.566 266.783 110.567 266.782 110.568C266.782 110.57 266.782 110.57 266.782 110.57C266.782 110.57 266.782 110.569 266.784 110.566C266.785 110.562 266.788 110.557 266.792 110.55C266.801 110.535 266.817 110.51 266.845 110.474L262.16 106.726C261.285 107.82 260.782 109.131 260.782 110.58H266.782ZM266.819 110.506L296.069 74.9561L291.436 71.1439L262.186 106.694L266.819 110.506ZM295.552 70.65L295.192 70.38L291.592 75.18L291.952 75.45L295.552 70.65ZM291.15 70.7869L288.99 73.2169L293.475 77.2031L295.635 74.7731L291.15 70.7869ZM291.232 72.21H270.352V78.21H291.232V72.21ZM270.352 72.21C269.333 72.21 268.889 71.9141 268.597 71.5676L264.008 75.4324C265.636 77.3659 267.892 78.21 270.352 78.21V72.21ZM268.657 71.6411C268.28 71.1636 267.952 70.3772 267.952 69H261.952C261.952 71.3428 262.525 73.5564 263.948 75.3589L268.657 71.6411ZM264.952 72H298.792V66H264.952V72ZM298.792 72C299.013 72 299.086 72.0328 299.065 72.025C299.054 72.0208 299.027 72.0087 298.992 71.9849C298.957 71.9609 298.926 71.9333 298.903 71.9069L303.362 67.8931C302.11 66.5022 300.423 66 298.792 66V72ZM299.011 72.0213C299.028 72.038 299.032 72.0452 299.03 72.0422C299.028 72.0389 299.024 72.0328 299.022 72.0267C299.02 72.0208 299.022 72.0236 299.025 72.0398C299.028 72.0566 299.032 72.0919 299.032 72.15H305.032C305.032 70.5079 304.453 68.9781 303.254 67.7787L299.011 72.0213ZM299.032 72.15C299.032 72.2933 299.003 72.4498 298.822 72.69L303.622 76.29C304.522 75.0901 305.032 73.6867 305.032 72.15H299.032ZM298.907 72.5823L269.837 107.862L274.468 111.678L303.538 76.3977L298.907 72.5823ZM270.278 112.113L270.728 112.473L274.477 107.787L274.027 107.427L270.278 112.113ZM274.893 112.068L276.873 109.728L272.292 105.852L270.312 108.192L274.893 112.068ZM274.582 110.79H296.902V104.79H274.582V110.79ZM296.902 110.79C297.927 110.79 298.291 111.085 298.508 111.359L303.217 107.641C301.633 105.635 299.358 104.79 296.902 104.79V110.79ZM298.568 111.432C298.968 111.908 299.302 112.666 299.302 114H305.302C305.302 111.614 304.677 109.372 303.157 107.568L298.568 111.432ZM302.302 111H267.022V117H302.302V111ZM312.759 110.67L310.772 112.917L310.782 112.926L310.793 112.936L312.759 110.67ZM313.029 88.8L314.954 91.1012L314.966 91.091L314.978 91.0807L313.029 88.8ZM340.299 90.69L338.082 92.7113L340.199 95.0328L342.421 92.8113L340.299 90.69ZM340.659 90.33L342.781 92.4513L344.812 90.4202L342.871 88.3028L340.659 90.33ZM338.409 88.08H335.409V89.3882L336.368 90.2784L338.409 88.08ZM313.839 82.14L312.498 84.8233L315.093 86.1212L316.477 83.5699L313.839 82.14ZM311.409 80.25L308.968 81.9937L309.04 82.0939L309.119 82.1878L311.409 80.25ZM312.939 73.14L314.932 75.3822L314.955 75.362L314.978 75.3413L312.939 73.14ZM319.329 69.54L318.381 66.6939L318.371 66.6972L318.361 66.7005L319.329 69.54ZM341.199 72.42L339.23 74.6829L339.24 74.6919L339.25 74.7007L341.199 72.42ZM344.349 113.37L342.475 111.027L342.475 111.027L344.349 113.37ZM338.679 114.81H335.679V117.81H338.679V114.81ZM338.679 110.58L336.509 108.509L335.679 109.378V110.58H338.679ZM340.749 108.24L343.433 109.582L344.4 107.648L342.871 106.119L340.749 108.24ZM340.389 107.88L342.511 105.759L340.202 103.451L338.097 105.945L340.389 107.88ZM335.349 106.26L333.593 103.828L333.576 103.84L333.56 103.852L335.349 106.26ZM335.439 93.21L333.607 95.5853L333.607 95.5853L335.439 93.21ZM318.699 93.21L320.591 95.5384L320.599 95.5319L318.699 93.21ZM318.609 106.35L316.681 108.649L316.721 108.682L316.762 108.714L318.609 106.35ZM325.269 111.81C320.662 111.81 317.244 110.59 314.726 108.404L310.793 112.936C314.634 116.27 319.556 117.81 325.269 117.81V111.81ZM314.747 108.423C312.327 106.282 311.079 103.498 311.079 99.78H305.079C305.079 105.062 306.952 109.538 310.772 112.917L314.747 108.423ZM311.079 99.78C311.079 96.0475 312.381 93.2533 314.954 91.1012L311.105 86.4988C307.078 89.8667 305.079 94.3925 305.079 99.78H311.079ZM314.978 91.0807C317.612 88.83 321.214 87.57 326.079 87.57V81.57C320.145 81.57 315.047 83.13 311.08 86.5193L314.978 91.0807ZM326.079 87.57C331.037 87.57 334.958 89.2846 338.082 92.7113L342.516 88.6687C338.2 83.9354 332.642 81.57 326.079 81.57V87.57ZM342.421 92.8113L342.781 92.4513L338.538 88.2087L338.178 88.5687L342.421 92.8113ZM342.871 88.3028C342.148 87.5144 341.34 86.7073 340.451 85.8816L336.368 90.2784C337.159 91.0127 337.851 91.7056 338.448 92.3572L342.871 88.3028ZM341.409 88.08V84.3H335.409V88.08H341.409ZM341.409 84.3C341.409 80.5637 340.206 77.2954 337.505 74.9323L333.554 79.4477C334.693 80.4445 335.409 81.9163 335.409 84.3H341.409ZM337.505 74.9323C334.858 72.6163 331.325 71.67 327.339 71.67V77.67C330.434 77.67 332.361 78.4037 333.554 79.4477L337.505 74.9323ZM327.339 71.67C323.794 71.67 320.571 72.372 317.787 73.9126C314.986 75.4625 312.796 77.7698 311.202 80.7101L316.477 83.5699C317.582 81.5302 318.993 80.1025 320.692 79.1624C322.408 78.213 324.584 77.67 327.339 77.67V71.67ZM315.181 79.4567C314.566 79.1491 314.084 78.7665 313.699 78.3122L309.119 82.1878C310.055 83.2935 311.193 84.1709 312.498 84.8233L315.181 79.4567ZM313.85 78.5063C313.529 78.0569 313.509 77.8137 313.509 77.73H307.509C307.509 79.3263 308.089 80.7631 308.968 81.9937L313.85 78.5063ZM313.509 77.73C313.509 77.2304 313.725 76.4553 314.932 75.3822L310.946 70.8978C308.913 72.7047 307.509 74.9896 307.509 77.73H313.509ZM314.978 75.3413C316.22 74.1912 317.954 73.1785 320.297 72.3795L318.361 66.7005C315.425 67.7015 312.899 69.0888 310.901 70.9387L314.978 75.3413ZM320.278 72.386C322.662 71.5914 325.161 71.19 327.789 71.19V65.19C324.538 65.19 321.397 65.6886 318.381 66.6939L320.278 72.386ZM327.789 71.19C333.005 71.19 336.693 72.4751 339.23 74.6829L343.169 70.1571C339.225 66.7249 333.973 65.19 327.789 65.19V71.19ZM339.25 74.7007C341.781 76.8634 343.149 79.8734 343.149 84.12H349.149C349.149 78.4065 347.217 73.6166 343.148 70.1393L339.25 74.7007ZM343.149 84.12V108.78H349.149V84.12H343.149ZM343.149 108.78C343.149 110.324 342.726 110.827 342.475 111.027L346.223 115.713C348.372 113.993 349.149 111.436 349.149 108.78H343.149ZM342.475 111.027C342.063 111.357 341.001 111.81 338.679 111.81V117.81C341.518 117.81 344.235 117.303 346.223 115.713L342.475 111.027ZM341.679 114.81V110.58H335.679V114.81H341.679ZM340.849 112.651C341.489 111.981 342.007 111.425 342.389 110.993C342.578 110.778 342.754 110.573 342.902 110.387C343.001 110.262 343.248 109.951 343.433 109.582L338.066 106.898C338.147 106.737 338.218 106.637 338.22 106.635C338.233 106.617 338.23 106.621 338.203 106.656C338.148 106.725 338.05 106.842 337.895 107.017C337.587 107.365 337.129 107.859 336.509 108.509L340.849 112.651ZM342.871 106.119L342.511 105.759L338.268 110.001L338.628 110.361L342.871 106.119ZM338.097 105.945C334.781 109.873 330.588 111.81 325.269 111.81V117.81C332.31 117.81 338.197 115.127 342.682 109.815L338.097 105.945ZM326.619 111.6C330.72 111.6 334.343 110.744 337.138 108.668L333.56 103.852C332.155 104.896 329.958 105.6 326.619 105.6V111.6ZM337.106 108.692C340.079 106.545 341.589 103.462 341.589 99.78H335.589C335.589 101.618 334.939 102.855 333.593 103.828L337.106 108.692ZM341.589 99.78C341.589 96.1341 340.142 93.049 337.272 90.8347L333.607 95.5853C334.936 96.611 335.589 97.9059 335.589 99.78H341.589ZM337.272 90.8347C334.479 88.6806 330.874 87.78 326.799 87.78V93.78C330.044 93.78 332.199 94.4994 333.607 95.5853L337.272 90.8347ZM326.799 87.78C322.921 87.78 319.472 88.7013 316.8 90.8881L320.599 95.5319C321.886 94.4787 323.838 93.78 326.799 93.78V87.78ZM316.808 90.8817C314.083 93.0954 312.819 96.1989 312.819 99.78H318.819C318.819 97.7211 319.476 96.4446 320.591 95.5383L316.808 90.8817ZM312.819 99.78C312.819 103.327 314.028 106.423 316.681 108.649L320.537 104.051C319.47 103.157 318.819 101.873 318.819 99.78H312.819ZM316.762 108.714C319.386 110.764 322.795 111.6 326.619 111.6V105.6C323.604 105.6 321.672 104.936 320.456 103.986L316.762 108.714ZM385.391 110.58L383.377 112.804L383.399 112.823L383.421 112.843L385.391 110.58ZM382.871 75.66L385.396 77.279L385.406 77.2645L385.415 77.25L382.871 75.66ZM389.081 70.17L390.373 72.8774L390.386 72.8714L390.398 72.8652L389.081 70.17ZM406.181 69.99L404.839 72.6733L404.866 72.6868L404.894 72.6998L406.181 69.99ZM412.481 74.58L410.292 76.6318L413.009 79.5301L415.053 76.1235L412.481 74.58ZM412.751 74.13L415.323 75.6735L416.325 74.0043L415.208 72.4096L412.751 74.13ZM410.861 72.15H407.861V73.5298L408.908 74.4278L410.861 72.15ZM412.841 51.81L414.675 54.1838L414.708 54.1583L414.74 54.1319L412.841 51.81ZM418.781 50.19H421.781V47.19H418.781V50.19ZM416.981 113.1L414.914 110.925L414.887 110.951L414.859 110.979L416.981 113.1ZM411.401 114.81H408.401V117.81H411.401V114.81ZM411.401 109.77L409.033 107.928L408.401 108.741V109.77H411.401ZM413.111 107.43L415.655 109.02L416.745 107.276L415.511 105.63L413.111 107.43ZM412.841 107.07L415.241 105.27L412.917 102.172L410.498 105.196L412.841 107.07ZM406.451 112.74L404.927 110.156L404.927 110.156L406.451 112.74ZM407.711 105.45L409.511 107.85L409.532 107.834L409.553 107.818L407.711 105.45ZM407.891 77.64L405.984 79.9558L406.004 79.9727L406.025 79.9893L407.891 77.64ZM391.331 77.55L393.222 79.8784L393.23 79.8719L391.331 77.55ZM391.331 105.54L389.439 107.868L389.456 107.883L389.474 107.896L391.331 105.54ZM397.991 111.81C393.402 111.81 389.949 110.57 387.36 108.317L383.421 112.843C387.312 116.23 392.26 117.81 397.991 117.81V111.81ZM387.405 108.356C384.922 106.108 383.621 103.142 383.621 99.15H377.621C377.621 104.638 379.499 109.292 383.377 112.804L387.405 108.356ZM383.621 99.15V83.76H377.621V99.15H383.621ZM383.621 83.76C383.621 81.2139 384.237 79.0876 385.396 77.279L380.345 74.041C378.504 76.9124 377.621 80.1861 377.621 83.76H383.621ZM385.415 77.25C386.602 75.3508 388.23 73.9003 390.373 72.8774L387.789 67.4626C384.652 68.9597 382.14 71.1692 380.327 74.07L385.415 77.25ZM390.398 72.8652C392.628 71.7751 395.255 71.19 398.351 71.19V65.19C394.486 65.19 390.934 65.9249 387.763 67.4748L390.398 72.8652ZM398.351 71.19C400.729 71.19 402.877 71.6922 404.839 72.6733L407.522 67.3067C404.684 65.8878 401.612 65.19 398.351 65.19V71.19ZM404.894 72.6998C406.958 73.6804 408.751 74.9883 410.292 76.6318L414.669 72.5282C412.61 70.3317 410.204 68.5796 407.468 67.2802L404.894 72.6998ZM415.053 76.1235L415.323 75.6735L410.178 72.5865L409.908 73.0365L415.053 76.1235ZM415.208 72.4096C414.591 71.5271 413.758 70.6818 412.813 69.8722L408.908 74.4278C409.644 75.0582 410.071 75.5329 410.293 75.8504L415.208 72.4096ZM413.861 72.15V56.31H407.861V72.15H413.861ZM413.861 56.31C413.861 55.0642 414.232 54.5264 414.675 54.1838L411.006 49.4361C408.81 51.1336 407.861 53.5958 407.861 56.31H413.861ZM414.74 54.1319C415.3 53.6741 416.473 53.19 418.781 53.19V47.19C415.808 47.19 413.022 47.7858 410.941 49.4881L414.74 54.1319ZM415.781 50.19V108.42H421.781V50.19H415.781ZM415.781 108.42C415.781 109.752 415.403 110.461 414.914 110.925L419.047 115.275C420.959 113.459 421.781 111.048 421.781 108.42H415.781ZM414.859 110.979C414.54 111.298 413.645 111.81 411.401 111.81V117.81C414.317 117.81 417.142 117.182 419.102 115.221L414.859 110.979ZM414.401 114.81V109.77H408.401V114.81H414.401ZM413.769 111.612C414.609 110.532 415.265 109.644 415.655 109.02L410.567 105.84C410.357 106.176 409.873 106.848 409.033 107.928L413.769 111.612ZM415.511 105.63L415.241 105.27L410.441 108.87L410.711 109.23L415.511 105.63ZM410.498 105.196C408.776 107.349 406.915 108.984 404.927 110.156L407.975 115.324C410.667 113.736 413.065 111.591 415.183 108.944L410.498 105.196ZM404.927 110.156C403.138 111.211 400.87 111.81 397.991 111.81V117.81C401.712 117.81 405.083 117.029 407.975 115.324L404.927 110.156ZM399.701 110.88C403.41 110.88 406.743 109.925 409.511 107.85L405.911 103.05C404.358 104.215 402.351 104.88 399.701 104.88V110.88ZM409.553 107.818C412.349 105.643 413.951 102.738 413.951 99.24H407.951C407.951 100.662 407.392 101.897 405.869 103.082L409.553 107.818ZM413.951 99.24V83.67H407.951V99.24H413.951ZM413.951 83.67C413.951 80.2688 412.443 77.424 409.756 75.2907L406.025 79.9893C407.419 81.096 407.951 82.2712 407.951 83.67H413.951ZM409.798 75.3242C407.071 73.0785 403.564 72.12 399.611 72.12V78.12C402.617 78.12 404.63 78.8415 405.984 79.9558L409.798 75.3242ZM399.611 72.12C395.641 72.12 392.12 73.0277 389.431 75.2281L393.23 79.8719C394.501 78.8323 396.5 78.12 399.611 78.12V72.12ZM389.439 75.2217C386.714 77.4354 385.451 80.5389 385.451 84.12H391.451C391.451 82.0611 392.107 80.7846 393.222 79.8783L389.439 75.2217ZM385.451 84.12V98.79H391.451V84.12H385.451ZM385.451 98.79C385.451 102.444 386.683 105.629 389.439 107.868L393.222 103.212C392.138 102.331 391.451 101.016 391.451 98.79H385.451ZM389.474 107.896C392.168 110.019 395.708 110.88 399.701 110.88V104.88C396.493 104.88 394.453 104.181 393.187 103.184L389.474 107.896ZM439.635 112.74L438.293 115.423L438.316 115.435L438.338 115.445L439.635 112.74ZM432.885 106.89L430.361 108.512L430.37 108.526L430.379 108.54L432.885 106.89ZM432.975 76.47L430.487 74.7926L430.474 74.8127L430.461 74.833L432.975 76.47ZM439.905 70.44L441.246 73.1233L441.257 73.1178L441.268 73.1123L439.905 70.44ZM458.805 70.35L457.44 73.0218L457.452 73.0276L457.463 73.0333L458.805 70.35ZM465.555 76.29L463.031 77.9123L463.045 77.9333L463.059 77.9541L465.555 76.29ZM466.995 93.03L469.022 95.2415L469.022 95.2415L466.995 93.03ZM438.105 94.02V91.02H435.105V94.02H438.105ZM440.985 105.45L438.897 107.605L438.914 107.621L438.931 107.637L440.985 105.45ZM460.695 99.24L460.495 96.2466L457.695 96.4333V99.24H460.695ZM465.195 100.32L463.474 102.778L463.544 102.826L463.616 102.871L465.195 100.32ZM464.565 109.23L462.443 107.109L462.424 107.128L462.405 107.148L464.565 109.23ZM458.085 113.28L457.024 110.474L457.024 110.474L458.085 113.28ZM460.785 87.9V90.9H463.785V87.9H460.785ZM457.635 77.55L455.579 79.7346L455.612 79.7657L455.646 79.7958L457.635 77.55ZM441.165 77.55L443.186 79.7669L443.189 79.7641L441.165 77.55ZM438.105 87.9H435.105V90.9H438.105V87.9ZM449.445 111.81C446.168 111.81 443.351 111.194 440.931 110.035L438.338 115.445C441.678 117.046 445.402 117.81 449.445 117.81V111.81ZM440.976 110.057C438.523 108.83 436.693 107.219 435.39 105.24L430.379 108.54C432.316 111.481 434.986 113.77 438.293 115.423L440.976 110.057ZM435.408 105.268C434.113 103.252 433.455 101 433.455 98.43H427.455C427.455 102.1 428.417 105.488 430.361 108.512L435.408 105.268ZM433.455 98.43V85.11H427.455V98.43H433.455ZM433.455 85.11C433.455 82.491 434.137 80.1833 435.489 78.107L430.461 74.833C428.453 77.9167 427.455 81.369 427.455 85.11H433.455ZM435.462 78.1474C436.903 76.011 438.812 74.3406 441.246 73.1233L438.563 67.7567C435.238 69.4194 432.527 71.769 430.487 74.7926L435.462 78.1474ZM441.268 73.1123C443.77 71.8356 446.481 71.19 449.445 71.19V65.19C445.568 65.19 441.919 66.0444 438.541 67.7677L441.268 73.1123ZM449.445 71.19C452.429 71.19 455.076 71.8145 457.44 73.0218L460.169 67.6782C456.893 66.0055 453.3 65.19 449.445 65.19V71.19ZM457.463 73.0333C459.898 74.2509 461.724 75.8796 463.031 77.9123L468.078 74.6677C466.145 71.6604 463.471 69.3291 460.146 67.6667L457.463 73.0333ZM463.059 77.9541C464.393 79.9559 465.075 82.2211 465.075 84.84H471.075C471.075 81.0989 470.076 77.6641 468.051 74.6259L463.059 77.9541ZM465.075 84.84V90.6H471.075V84.84H465.075ZM465.075 90.6C465.075 90.6517 465.07 90.6814 465.067 90.6939C465.066 90.7006 465.065 90.7044 465.064 90.7061C465.064 90.7077 465.063 90.7085 465.063 90.7091C465.063 90.7096 465.062 90.7112 465.061 90.7142C465.059 90.7172 465.055 90.7226 465.05 90.7306C465.038 90.7463 465.014 90.7763 464.968 90.8185L469.022 95.2415C470.349 94.0245 471.075 92.4174 471.075 90.6H465.075ZM464.968 90.8185C464.827 90.9472 464.691 91.02 464.385 91.02V97.02C466.119 97.02 467.722 96.4328 469.022 95.2415L464.968 90.8185ZM464.385 91.02H438.105V97.02H464.385V91.02ZM435.105 94.02V98.07H441.105V94.02H435.105ZM435.105 98.07C435.105 101.814 436.308 105.096 438.897 107.605L443.072 103.295C441.822 102.084 441.105 100.446 441.105 98.07H435.105ZM438.931 107.637C441.637 110.179 445.292 111.24 449.445 111.24V105.24C446.278 105.24 444.293 104.441 443.039 103.263L438.931 107.637ZM449.445 111.24C453.497 111.24 457.088 110.348 459.749 108.103L455.88 103.517C454.702 104.512 452.712 105.24 449.445 105.24V111.24ZM459.749 108.103C462.417 105.852 463.695 102.785 463.695 99.24H457.695C457.695 101.215 457.053 102.528 455.88 103.517L459.749 108.103ZM460.894 102.233C462.174 102.148 462.955 102.414 463.474 102.778L466.915 97.8623C465.035 96.5459 462.815 96.092 460.495 96.2466L460.894 102.233ZM463.616 102.871C463.937 103.07 464.085 103.243 464.085 103.83H470.085C470.085 101.297 468.972 99.1301 466.774 97.7692L463.616 102.871ZM464.085 103.83C464.085 104.774 463.702 105.85 462.443 107.109L466.686 111.351C468.787 109.25 470.085 106.726 470.085 103.83H464.085ZM462.405 107.148C461.158 108.441 459.405 109.574 457.024 110.474L459.145 116.086C462.164 114.946 464.732 113.379 466.724 111.312L462.405 107.148ZM457.024 110.474C454.683 111.358 452.165 111.81 449.445 111.81V117.81C452.845 117.81 456.086 117.242 459.145 116.086L457.024 110.474ZM463.785 87.9V84.84H457.785V87.9H463.785ZM463.785 84.84C463.785 81.0486 462.415 77.7768 459.624 75.3042L455.646 79.7958C457.054 81.0432 457.785 82.6314 457.785 84.84H463.785ZM459.691 75.3654C456.977 72.8112 453.451 71.67 449.445 71.67V77.67C452.278 77.67 454.212 78.4488 455.579 79.7346L459.691 75.3654ZM449.445 71.67C445.435 71.67 441.901 72.8121 439.14 75.3359L443.189 79.7641C444.629 78.4479 446.614 77.67 449.445 77.67V71.67ZM439.143 75.3331C436.422 77.8145 435.105 81.0782 435.105 84.84H441.105C441.105 82.6018 441.827 81.0055 443.186 79.7669L439.143 75.3331ZM435.105 84.84V87.9H441.105V84.84H435.105ZM438.105 90.9H460.785V84.9H438.105V90.9ZM502.837 52.17L504.872 54.3744L504.879 54.3684L502.837 52.17ZM542.797 53.52L541.353 56.1497L541.373 56.1607L541.394 56.1714L542.797 53.52ZM549.907 60.45L547.29 61.9158L547.296 61.9271L547.302 61.9384L549.907 60.45ZM549.907 81.06L547.29 79.5942L547.278 79.6143L547.267 79.6346L549.907 81.06ZM542.887 87.99L541.484 85.3386L541.484 85.3386L542.887 87.99ZM510.127 90.42V87.42H507.127V90.42H510.127ZM507.967 113.01L506.047 110.705L506.047 110.705L507.967 113.01ZM501.667 114.81H498.667V117.81H501.667V114.81ZM540.817 79.71L542.968 81.8012L542.982 81.7865L542.997 81.7716L540.817 79.71ZM540.727 61.8L538.548 63.8616L538.576 63.8919L538.606 63.9213L540.727 61.8ZM510.127 58.47V55.47H507.127V58.47H510.127ZM510.127 82.95H507.127V85.95H510.127V82.95ZM504.667 54.96C504.667 54.5879 504.756 54.4811 504.872 54.3744L500.802 49.9656C499.358 51.2989 498.667 53.0521 498.667 54.96H504.667ZM504.879 54.3684C505.107 54.1566 505.403 54 505.987 54V48C504.052 48 502.248 48.6234 500.796 49.9716L504.879 54.3684ZM505.987 54H532.267V48H505.987V54ZM532.267 54C535.791 54 538.792 54.7437 541.353 56.1497L544.241 50.8903C540.682 48.9363 536.663 48 532.267 48V54ZM541.394 56.1714C543.947 57.5232 545.894 59.4233 547.29 61.9158L552.525 58.9842C550.561 55.4767 547.767 52.7568 544.201 50.8686L541.394 56.1714ZM547.302 61.9384C548.69 64.3671 549.427 67.2309 549.427 70.62H555.427C555.427 66.3291 554.484 62.4129 552.512 58.9616L547.302 61.9384ZM549.427 70.62C549.427 74.1454 548.683 77.106 547.29 79.5942L552.525 82.5258C554.491 79.014 555.427 75.0146 555.427 70.62H549.427ZM547.267 79.6346C545.934 82.1042 544.028 83.9915 541.484 85.3386L544.291 90.6414C547.866 88.7485 550.641 86.0158 552.547 82.4854L547.267 79.6346ZM541.484 85.3386C538.921 86.6953 535.877 87.42 532.267 87.42V93.42C536.697 93.42 540.733 92.5247 544.291 90.6414L541.484 85.3386ZM532.267 87.42H510.127V93.42H532.267V87.42ZM507.127 90.42V107.79H513.127V90.42H507.127ZM507.127 107.79C507.127 109.391 506.655 110.198 506.047 110.705L509.888 115.315C512.159 113.422 513.127 110.749 513.127 107.79H507.127ZM506.047 110.705C505.35 111.286 504.047 111.81 501.667 111.81V117.81C504.807 117.81 507.705 117.134 509.888 115.315L506.047 110.705ZM504.667 114.81V54.96H498.667V114.81H504.667ZM532.267 85.95C536.507 85.95 540.195 84.6538 542.968 81.8012L538.666 77.6188C537.24 79.0862 535.227 79.95 532.267 79.95V85.95ZM542.997 81.7716C545.75 78.8612 546.967 75.0211 546.967 70.62H540.967C540.967 73.8989 540.085 76.1188 538.638 77.6484L542.997 81.7716ZM546.967 70.62C546.967 66.289 545.689 62.5196 542.849 59.6787L538.606 63.9213C540.085 65.4004 540.967 67.511 540.967 70.62H546.967ZM542.907 59.7384C540.149 56.8231 536.489 55.47 532.267 55.47V61.47C535.125 61.47 537.105 62.3369 538.548 63.8616L542.907 59.7384ZM532.267 55.47H510.127V61.47H532.267V55.47ZM507.127 58.47V82.95H513.127V58.47H507.127ZM510.127 85.95H532.267V79.95H510.127V85.95ZM565.143 112.74L563.801 115.423L563.823 115.435L563.846 115.445L565.143 112.74ZM558.393 106.89L555.869 108.512L555.878 108.526L555.887 108.54L558.393 106.89ZM558.483 76.47L555.995 74.7926L555.982 74.8127L555.969 74.833L558.483 76.47ZM565.413 70.44L566.754 73.1233L566.765 73.1178L566.776 73.1123L565.413 70.44ZM584.313 70.35L582.948 73.0218L582.959 73.0276L582.971 73.0333L584.313 70.35ZM591.063 76.29L588.539 77.9123L588.552 77.9333L588.566 77.9541L591.063 76.29ZM592.503 93.03L594.53 95.2415L594.53 95.2415L592.503 93.03ZM563.613 94.02V91.02H560.613V94.02H563.613ZM566.493 105.45L564.405 107.605L564.422 107.621L564.438 107.637L566.493 105.45ZM586.203 99.24L586.003 96.2466L583.203 96.4333V99.24H586.203ZM590.703 100.32L588.982 102.778L589.051 102.826L589.123 102.871L590.703 100.32ZM590.073 109.23L587.951 107.109L587.932 107.128L587.913 107.148L590.073 109.23ZM583.593 113.28L582.532 110.474L582.532 110.474L583.593 113.28ZM586.293 87.9V90.9H589.293V87.9H586.293ZM583.143 77.55L581.086 79.7346L581.119 79.7657L581.153 79.7958L583.143 77.55ZM566.673 77.55L568.694 79.7669L568.697 79.7641L566.673 77.55ZM563.613 87.9H560.613V90.9H563.613V87.9ZM574.953 111.81C571.676 111.81 568.859 111.194 566.439 110.035L563.846 115.445C567.186 117.046 570.909 117.81 574.953 117.81V111.81ZM566.484 110.057C564.031 108.83 562.201 107.219 560.898 105.24L555.887 108.54C557.824 111.481 560.494 113.77 563.801 115.423L566.484 110.057ZM560.916 105.268C559.62 103.252 558.963 101 558.963 98.43H552.963C552.963 102.1 553.925 105.488 555.869 108.512L560.916 105.268ZM558.963 98.43V85.11H552.963V98.43H558.963ZM558.963 85.11C558.963 82.491 559.645 80.1833 560.996 78.107L555.969 74.833C553.96 77.9167 552.963 81.369 552.963 85.11H558.963ZM560.97 78.1474C562.411 76.011 564.32 74.3406 566.754 73.1233L564.071 67.7567C560.745 69.4194 558.034 71.769 555.995 74.7926L560.97 78.1474ZM566.776 73.1123C569.278 71.8356 571.989 71.19 574.953 71.19V65.19C571.076 65.19 567.427 66.0444 564.049 67.7677L566.776 73.1123ZM574.953 71.19C577.937 71.19 580.584 71.8145 582.948 73.0218L585.677 67.6782C582.401 66.0055 578.808 65.19 574.953 65.19V71.19ZM582.971 73.0333C585.406 74.2509 587.232 75.8796 588.539 77.9123L593.586 74.6677C591.653 71.6604 588.979 69.3291 585.654 67.6667L582.971 73.0333ZM588.566 77.9541C589.901 79.9559 590.583 82.2211 590.583 84.84H596.583C596.583 81.0989 595.584 77.6641 593.559 74.6259L588.566 77.9541ZM590.583 84.84V90.6H596.583V84.84H590.583ZM590.583 90.6C590.583 90.6517 590.578 90.6814 590.575 90.6939C590.574 90.7006 590.573 90.7044 590.572 90.7061C590.572 90.7077 590.571 90.7085 590.571 90.7091C590.571 90.7096 590.57 90.7112 590.568 90.7142C590.567 90.7172 590.563 90.7226 590.557 90.7306C590.546 90.7463 590.521 90.7763 590.475 90.8185L594.53 95.2415C595.857 94.0245 596.583 92.4174 596.583 90.6H590.583ZM590.475 90.8185C590.335 90.9472 590.198 91.02 589.893 91.02V97.02C591.627 97.02 593.23 96.4328 594.53 95.2415L590.475 90.8185ZM589.893 91.02H563.613V97.02H589.893V91.02ZM560.613 94.02V98.07H566.613V94.02H560.613ZM560.613 98.07C560.613 101.814 561.816 105.096 564.405 107.605L568.58 103.295C567.329 102.084 566.613 100.446 566.613 98.07H560.613ZM564.438 107.637C567.145 110.179 570.8 111.24 574.953 111.24V105.24C571.785 105.24 569.8 104.441 568.547 103.263L564.438 107.637ZM574.953 111.24C579.005 111.24 582.596 110.348 585.257 108.103L581.388 103.517C580.209 104.512 578.22 105.24 574.953 105.24V111.24ZM585.257 108.103C587.925 105.852 589.203 102.785 589.203 99.24H583.203C583.203 101.215 582.56 102.528 581.388 103.517L585.257 108.103ZM586.402 102.233C587.682 102.148 588.463 102.414 588.982 102.778L592.423 97.8623C590.542 96.5459 588.323 96.092 586.003 96.2466L586.402 102.233ZM589.123 102.871C589.445 103.07 589.593 103.243 589.593 103.83H595.593C595.593 101.297 594.48 99.1301 592.282 97.7692L589.123 102.871ZM589.593 103.83C589.593 104.774 589.21 105.85 587.951 107.109L592.194 111.351C594.295 109.25 595.593 106.726 595.593 103.83H589.593ZM587.913 107.148C586.665 108.441 584.913 109.574 582.532 110.474L584.653 116.086C587.672 114.946 590.24 113.379 592.232 111.312L587.913 107.148ZM582.532 110.474C580.191 111.358 577.672 111.81 574.953 111.81V117.81C578.353 117.81 581.594 117.242 584.653 116.086L582.532 110.474ZM589.293 87.9V84.84H583.293V87.9H589.293ZM589.293 84.84C589.293 81.0486 587.923 77.7768 585.132 75.3042L581.153 79.7958C582.562 81.0432 583.293 82.6314 583.293 84.84H589.293ZM585.199 75.3654C582.485 72.8112 578.959 71.67 574.953 71.67V77.67C577.786 77.67 579.72 78.4488 581.086 79.7346L585.199 75.3654ZM574.953 71.67C570.943 71.67 567.409 72.8121 564.648 75.3359L568.697 79.7641C570.136 78.4479 572.122 77.67 574.953 77.67V71.67ZM564.651 75.3331C561.93 77.8145 560.613 81.0782 560.613 84.84H566.613C566.613 82.6018 567.335 81.0055 568.694 79.7669L564.651 75.3331ZM560.613 84.84V87.9H566.613V84.84H560.613ZM563.613 90.9H586.293V84.9H563.613V90.9ZM607.212 111.21L604.958 113.189L604.97 113.203L604.982 113.217L607.212 111.21ZM605.862 51.63L607.606 54.0712L607.616 54.0637L607.626 54.0562L605.862 51.63ZM611.802 50.19H614.802V47.19H611.802V50.19ZM613.242 106.35L611.057 108.406L611.057 108.406L613.242 106.35ZM624.132 106.26L626.399 104.295L624.773 102.419L622.625 103.666L624.132 106.26ZM623.052 113.19L621.299 110.755L621.299 110.755L623.052 113.19ZM617.022 111.81C613.176 111.81 610.851 110.769 609.442 109.203L604.982 113.217C607.893 116.451 612.108 117.81 617.022 117.81V111.81ZM609.466 109.231C607.883 107.427 606.972 104.971 606.972 101.58H600.972C600.972 106.109 602.221 110.073 604.958 113.189L609.466 109.231ZM606.972 101.58V55.95H600.972V101.58H606.972ZM606.972 55.95C606.972 54.639 607.35 54.2538 607.606 54.0712L604.118 49.1888C601.854 50.8062 600.972 53.301 600.972 55.95H606.972ZM607.626 54.0562C608.204 53.6361 609.436 53.19 611.802 53.19V47.19C608.887 47.19 606.16 47.7039 604.097 49.2038L607.626 54.0562ZM608.802 50.19V101.31H614.802V50.19H608.802ZM608.802 101.31C608.802 103.934 609.318 106.558 611.057 108.406L615.426 104.294C615.246 104.102 614.802 103.366 614.802 101.31H608.802ZM611.057 108.406C612.842 110.302 615.437 110.88 618.012 110.88V104.88C616.147 104.88 615.562 104.438 615.426 104.294L611.057 108.406ZM618.012 110.88C620.743 110.88 623.306 110.209 625.638 108.854L622.625 103.666C621.238 104.471 619.721 104.88 618.012 104.88V110.88ZM621.865 108.225C622.168 108.575 622.302 108.926 622.302 109.41H628.302C628.302 107.494 627.656 105.745 626.399 104.295L621.865 108.225ZM622.302 109.41C622.302 109.618 622.262 110.062 621.299 110.755L624.805 115.625C626.842 114.158 628.302 112.082 628.302 109.41H622.302ZM621.299 110.755C620.465 111.355 619.137 111.81 617.022 111.81V117.81C619.947 117.81 622.638 117.185 624.805 115.625L621.299 110.755ZM640.728 112.74L639.387 115.423L639.409 115.435L639.432 115.445L640.728 112.74ZM633.978 106.89L631.455 108.512L631.464 108.526L631.473 108.54L633.978 106.89ZM634.068 76.47L631.581 74.7926L631.568 74.8127L631.554 74.833L634.068 76.47ZM640.998 70.44L642.34 73.1233L642.351 73.1178L642.362 73.1123L640.998 70.44ZM659.898 70.35L658.534 73.0218L658.545 73.0276L658.557 73.0333L659.898 70.35ZM666.648 76.29L664.125 77.9123L664.138 77.9333L664.152 77.9541L666.648 76.29ZM668.088 93.03L670.116 95.2415L670.116 95.2415L668.088 93.03ZM639.198 94.02V91.02H636.198V94.02H639.198ZM642.078 105.45L639.991 107.605L640.008 107.621L640.024 107.637L642.078 105.45ZM661.788 99.24L661.589 96.2466L658.788 96.4333V99.24H661.788ZM666.288 100.32L664.568 102.778L664.637 102.826L664.709 102.871L666.288 100.32ZM665.658 109.23L663.537 107.109L663.518 107.128L663.499 107.148L665.658 109.23ZM659.178 113.28L658.118 110.474L658.118 110.474L659.178 113.28ZM661.878 87.9V90.9H664.878V87.9H661.878ZM658.728 77.55L656.672 79.7346L656.705 79.7657L656.739 79.7958L658.728 77.55ZM642.258 77.55L644.28 79.7669L644.283 79.7641L642.258 77.55ZM639.198 87.9H636.198V90.9H639.198V87.9ZM650.538 111.81C647.262 111.81 644.445 111.194 642.025 110.035L639.432 115.445C642.772 117.046 646.495 117.81 650.538 117.81V111.81ZM642.07 110.057C639.617 108.83 637.787 107.219 636.484 105.24L631.473 108.54C633.41 111.481 636.08 113.77 639.387 115.423L642.07 110.057ZM636.502 105.268C635.206 103.252 634.548 101 634.548 98.43H628.548C628.548 102.1 629.511 105.488 631.455 108.512L636.502 105.268ZM634.548 98.43V85.11H628.548V98.43H634.548ZM634.548 85.11C634.548 82.491 635.23 80.1833 636.582 78.107L631.554 74.833C629.546 77.9167 628.548 81.369 628.548 85.11H634.548ZM636.556 78.1474C637.997 76.011 639.905 74.3406 642.34 73.1233L639.657 67.7567C636.331 69.4194 633.62 71.769 631.581 74.7926L636.556 78.1474ZM642.362 73.1123C644.864 71.8356 647.575 71.19 650.538 71.19V65.19C646.662 65.19 643.013 66.0444 639.635 67.7677L642.362 73.1123ZM650.538 71.19C653.523 71.19 656.17 71.8145 658.534 73.0218L661.263 67.6782C657.987 66.0055 654.394 65.19 650.538 65.19V71.19ZM658.557 73.0333C660.992 74.2509 662.818 75.8796 664.125 77.9123L669.172 74.6677C667.239 71.6604 664.565 69.3291 661.24 67.6667L658.557 73.0333ZM664.152 77.9541C665.487 79.9559 666.168 82.2211 666.168 84.84H672.168C672.168 81.0989 671.17 77.6641 669.145 74.6259L664.152 77.9541ZM666.168 84.84V90.6H672.168V84.84H666.168ZM666.168 90.6C666.168 90.6517 666.164 90.6814 666.161 90.6939C666.16 90.7006 666.159 90.7044 666.158 90.7061C666.158 90.7077 666.157 90.7085 666.157 90.7091C666.157 90.7096 666.156 90.7112 666.154 90.7142C666.153 90.7172 666.149 90.7226 666.143 90.7306C666.132 90.7463 666.107 90.7763 666.061 90.8185L670.116 95.2415C671.443 94.0245 672.168 92.4174 672.168 90.6H666.168ZM666.061 90.8185C665.921 90.9472 665.784 91.02 665.478 91.02V97.02C667.212 97.02 668.816 96.4328 670.116 95.2415L666.061 90.8185ZM665.478 91.02H639.198V97.02H665.478V91.02ZM636.198 94.02V98.07H642.198V94.02H636.198ZM636.198 98.07C636.198 101.814 637.402 105.096 639.991 107.605L644.166 103.295C642.915 102.084 642.198 100.446 642.198 98.07H636.198ZM640.024 107.637C642.731 110.179 646.385 111.24 650.538 111.24V105.24C647.371 105.24 645.386 104.441 644.132 103.263L640.024 107.637ZM650.538 111.24C654.591 111.24 658.182 110.348 660.843 108.103L656.974 103.517C655.795 104.512 653.806 105.24 650.538 105.24V111.24ZM660.843 108.103C663.511 105.852 664.788 102.785 664.788 99.24H658.788C658.788 101.215 658.146 102.528 656.974 103.517L660.843 108.103ZM661.988 102.233C663.268 102.148 664.049 102.414 664.568 102.778L668.009 97.8623C666.128 96.5459 663.909 96.092 661.589 96.2466L661.988 102.233ZM664.709 102.871C665.031 103.07 665.178 103.243 665.178 103.83H671.178C671.178 101.297 670.066 99.1301 667.868 97.7692L664.709 102.871ZM665.178 103.83C665.178 104.774 664.796 105.85 663.537 107.109L667.78 111.351C669.881 109.25 671.178 106.726 671.178 103.83H665.178ZM663.499 107.148C662.251 108.441 660.499 109.574 658.118 110.474L660.239 116.086C663.258 114.946 665.826 113.379 667.818 111.312L663.499 107.148ZM658.118 110.474C655.777 111.358 653.258 111.81 650.538 111.81V117.81C653.939 117.81 657.18 117.242 660.239 116.086L658.118 110.474ZM664.878 87.9V84.84H658.878V87.9H664.878ZM664.878 84.84C664.878 81.0486 663.509 77.7768 660.718 75.3042L656.739 79.7958C658.148 81.0432 658.878 82.6314 658.878 84.84H664.878ZM660.785 75.3654C658.071 72.8112 654.545 71.67 650.538 71.67V77.67C653.372 77.67 655.306 78.4488 656.672 79.7346L660.785 75.3654ZM650.538 71.67C646.529 71.67 642.995 72.8121 640.234 75.3359L644.283 79.7641C645.722 78.4479 647.708 77.67 650.538 77.67V71.67ZM640.237 75.3331C637.516 77.8145 636.198 81.0782 636.198 84.84H642.198C642.198 82.6018 642.921 81.0055 644.28 79.7669L640.237 75.3331ZM636.198 84.84V87.9H642.198V84.84H636.198ZM639.198 90.9H661.878V84.9H639.198V90.9Z" fill="white" mask="url(#path-2-outside-1_21_16)"/>
</svg>
