<svg version="1.2" xmlns="http://www.w3.org/2000/svg" viewBox="0 0 254 42" width="500" height="83">
	<title>Group-1171274972-svg</title>
	<defs>
		<clipPath clipPathUnits="userSpaceOnUse" id="cp1">
			<path d="m3.97 8.58h17.13v9.76h-17.13z"/>
		</clipPath>
	</defs>
	<style>
		.s0 { fill: #000000 } 
		.s1 { fill: #f4f4f4 } 
		.s2 { fill: #494949 } 
		.s3 { fill: none;stroke: #000000;stroke-linecap: round;stroke-linejoin: round;stroke-width: .4 } 
	</style>
	<g id="Clip-Path" clip-path="url(#cp1)">
		<g id="Layer">
			<path id="Layer" class="s0" d="m4 8.6h0.2v5.1h-0.2zm0.4 0h0.1v5.2h-0.1zm1.1 0h0.2v5.1h-0.2zm3.8 0h0.2v5.2h-0.2zm1.2 0h0.2v5.1h-0.2zm1.3 0h0.2v5.1h-0.2zm0.3 0h0.2v5.2h-0.2zm0.3 0h0.2v5.1h-0.2zm0.4 0h0.2v5.2h-0.2zm0.3 0h0.2v5.1h-0.2zm1 0h0.2v5.2h-0.2zm2.4 0h0.2v5.1h-0.2zm2.6 0h0.2v5.1h-0.2zm0.7 0h0.2v5.2h-0.2zm0.5 0h0.2v5.1h-0.2zm0.3 0h0.2v5.2h-0.2zm-13.8 0h0.2v5.1h-0.2zm-1.9 0h0.3v5.2h-0.3zm2.3 0h0.3v5.1h-0.3zm1.6 0h0.3v5.1h-0.3zm0.8 0h0.4v5.2h-0.4zm1.3 0h0.4v5.1h-0.4zm3.7 0h0.6v5.2h-0.6zm0.7 0h0.4v5.1h-0.4zm0.8 0h0.3v5.2h-0.3zm1 0h0.5v5.1h-0.5zm1.1 0h0.6v5.1h-0.6zm-12.3 0h0.7v5.2h-0.7zm1.8 0h0.6v5.1h-0.6z"/>
			<path id="Layer" fill-rule="evenodd" class="s0" d="m4.2 18.3v-3h1.1q0.3 0 0.6 0.1 0.2 0.1 0.3 0.3 0.1 0.2 0.1 0.4 0 0.2-0.1 0.4-0.1 0.1-0.3 0.2 0.2 0.1 0.4 0.3 0.1 0.2 0.1 0.4 0 0.2 0 0.4-0.1 0.2-0.3 0.3-0.1 0.1-0.3 0.1-0.2 0.1-0.5 0.1zm0.4-1.7h0.7q0.2 0 0.3 0 0.2-0.1 0.3-0.2 0-0.1 0-0.3 0-0.1 0-0.2-0.1-0.1-0.2-0.2-0.3 0-0.5 0h-0.6zm0 1.4h0.8q0.1 0 0.2-0.1 0.1 0 0.3 0 0-0.1 0.1-0.2 0.1-0.1 0.1-0.3 0-0.1-0.1-0.2-0.1-0.2-0.3-0.2-0.2-0.1-0.4-0.1h-0.7zm2.4-1c0-0.5 0.1-0.9 0.4-1.2q0.2-0.2 0.5-0.3 0.3-0.1 0.5-0.1 0.4 0 0.8 0.2 0.3 0.2 0.5 0.5 0.2 0.4 0.1 0.8 0.1 0.4-0.1 0.8-0.2 0.4-0.5 0.6-0.4 0.1-0.8 0.1-0.4 0-0.7-0.2-0.3-0.2-0.5-0.5-0.2-0.4-0.2-0.7zm0.4 0c0 0.3 0.1 0.6 0.3 0.8q0.2 0.1 0.3 0.2 0.2 0.1 0.4 0.1 0.2 0 0.4-0.1 0.2-0.1 0.4-0.2c0.2-0.2 0.3-0.6 0.2-0.9q0.1-0.3-0.1-0.6-0.1-0.3-0.3-0.4-0.3-0.2-0.6-0.2-0.2 0-0.3 0.1-0.2 0.1-0.4 0.2-0.1 0.2-0.2 0.5-0.1 0.2-0.1 0.5zm3.1 1.4v-3h0.4v2.6h1.4v0.4zm2.5 0v-3h2.1v0.4h-1.7v0.9h1.6v0.3h-1.6v1h1.8v0.4zm3.6 0v-2.6h-0.9v-0.4h2.3v0.4h-1v2.6zm1.7-1.4c0-0.5 0.2-0.9 0.4-1.2q0.2-0.2 0.5-0.3 0.3-0.1 0.5-0.1 0.4 0 0.8 0.2 0.3 0.2 0.5 0.5 0.2 0.4 0.1 0.8 0.1 0.4-0.1 0.8-0.2 0.4-0.5 0.6-0.4 0.1-0.8 0.1-0.4 0-0.7-0.2-0.3-0.2-0.5-0.5-0.2-0.4-0.2-0.7zm0.4 0c0 0.3 0.1 0.6 0.3 0.8q0.2 0.1 0.3 0.2 0.2 0.1 0.4 0.1 0.2 0 0.4-0.1 0.2-0.1 0.4-0.2c0.2-0.3 0.3-0.6 0.2-0.9q0.1-0.3-0.1-0.6-0.1-0.3-0.3-0.4-0.3-0.2-0.6-0.2-0.2 0-0.3 0.1-0.2 0.1-0.4 0.2-0.1 0.2-0.2 0.5-0.1 0.2-0.1 0.5z"/>
		</g>
	</g>
	<path id="Layer" fill-rule="evenodd" class="s0" d="m33.3 16.4h-1.5l-1.1-4.2c-0.1-0.2-0.2-0.4-0.3-0.4q-0.6-0.4-1.4-0.5v-0.2h2.4c0.3 0 0.6 0.3 0.6 0.6l0.6 3 1.5-3.6h1.4zm3 0h-1.4l1.2-5.2h1.4zm4.9-1.8c0 1.1-1 1.8-2.5 1.8-0.5 0-1-0.1-1.5-0.3l0.2-1.1q0.7 0.3 1.5 0.3c0.4 0 0.8-0.2 0.8-0.5 0-0.3-0.2-0.4-0.7-0.7-0.5-0.2-1.2-0.6-1.2-1.4 0-1 1-1.7 2.3-1.7 0.5 0 0.9 0 1.3 0.2l-0.2 1.1c-0.4-0.2-0.9-0.3-1.4-0.2-0.3 0-0.5 0.2-0.6 0.4 0 0.6 2 0.7 2 2.1zm3.6 1.8l-0.2-0.8h-1.7l-0.3 0.8h-1.5l2.1-4.9c0.1-0.3 0.3-0.4 0.6-0.4h1.1l1.2 5.3zm-1.6-1.9h1.1l-0.4-2z"/>
	<path id="Layer" fill-rule="evenodd" class="s0" d="m63.6 17.1c-0.8 0.7-1.9 1.1-3 1.1-2.7 0-4.8-2.1-4.8-4.8 0-2.7 2.1-4.8 4.8-4.8 1.1 0 2.2 0.4 3 1.1 0.9-0.7 1.9-1.1 3.1-1.1 2.7 0 4.8 2.1 4.8 4.8 0 2.7-2.1 4.8-4.8 4.8-1.2 0-2.2-0.4-3.1-1.1z"/>
	<path id="Layer" fill-rule="evenodd" class="s1" d="m63.6 17.1c1.1-0.9 1.7-2.2 1.7-3.7 0-1.5-0.6-2.8-1.7-3.7 0.9-0.7 1.9-1.1 3.1-1.1 2.7 0 4.8 2.1 4.8 4.8 0 2.7-2.1 4.8-4.8 4.8-1.2 0-2.2-0.4-3.1-1.1z"/>
	<path id="Layer" fill-rule="evenodd" class="s2" d="m63.6 17.1c1.1-0.9 1.7-2.2 1.7-3.7 0-1.5-0.6-2.8-1.7-3.7-1 0.9-1.6 2.2-1.6 3.7 0 1.5 0.6 2.8 1.6 3.7z"/>
	<path id="Layer" fill-rule="evenodd" class="s0" d="m83.4 11l0.3 0.6v-0.6h2.7l0.6 1.3 0.6-1.3h6.8l0.7 0.8 0.7-0.8h3.2l-2.3 2.6 2.3 2.5h-3.2l-0.7-0.8-0.8 0.8h-6.3v-0.7l-0.2 0.7h-1.6l-0.3-0.6v0.6h-3l-0.3-0.8h-0.8l-0.3 0.8h-2.7l2.2-5.1zm7 4.4h3.6l1.1-1.2 1.1 1.2h1.2l-1.7-1.8 1.7-1.9h-1.1l-1.2 1.2-1.1-1.2h-3.6zm0.9-2.2v-0.6h2.3l1 1-1.1 1.1h-2.2v-0.7h2v-0.8zm-11.3 2.2h1l0.3-0.8h1.9l0.3 0.8h1.8v-2.8l1.3 2.8h0.8l1.3-2.8v2.8h0.9v-3.6h-1.5l-1 2.5-1.2-2.5h-1.5v3.4l-1.5-3.4h-1.3zm1.6-1.5l0.6-1.5 0.7 1.5z"/>
	<path id="Layer" fill-rule="evenodd" class="s3" d="m112.5 16.2v-3.6q0-0.3 0.1-0.5 0.1-0.2 0.2-0.4 0.2-0.1 0.4-0.2 0.2-0.1 0.5-0.1h1c0.3 0 0.6 0.1 0.9 0.3 0.2 0.3 0.3 0.6 0.3 0.9v0.8c0 0.3-0.1 0.6-0.3 0.8-0.3 0.2-0.6 0.3-0.9 0.3h-1.5"/>
	<path id="Layer" fill-rule="evenodd" class="s3" d="m116.2 11.4h0.5q0.2 0 0.3 0.1 0.2 0.2 0.2 0.4v2.7"/>
	<path id="Layer" class="s0" d="m117.1 11l-0.2-0.2q-0.1-0.1-0.1-0.1 0 0 0 0 0-0.1 0-0.1 0 0 0.1 0l0.2-0.2q0-0.1 0-0.1 0 0 0.1 0 0 0 0 0 0 0 0.1 0.1l0.2 0.2q0 0 0 0 0 0 0 0.1 0 0 0 0 0 0 0 0.1l-0.2 0.2q-0.1 0-0.1 0 0 0 0 0-0.1 0-0.1 0 0 0 0 0z"/>
	<path id="Layer" fill-rule="evenodd" class="s3" d="m118.1 11.4h0.4q0.4 0 0.6 0.2l1.1 1.1q0.1 0.1 0.1 0.1 0.1 0 0.2 0 0 0 0.1 0 0.1 0 0.1-0.1l1.1-1.1q0.1-0.1 0.3-0.1 0.1-0.1 0.3-0.1h0.4"/>
	<path id="Layer" fill-rule="evenodd" class="s3" d="m118.1 14.5h0.4q0.4 0 0.6-0.2l1.1-1.1q0.1 0 0.1-0.1 0.1 0 0.2 0 0 0 0.1 0 0.1 0.1 0.1 0.1l1.1 1.1q0.1 0.1 0.3 0.2 0.1 0 0.3 0h0.4"/>
	<path id="Layer" class="s0" d="m109.7 15.2q-0.1 0-0.3 0-0.1-0.1-0.3-0.2l-0.8-0.9q-0.1 0-0.2 0 0 0-0.1 0l-0.8 0.9q-0.2 0.1-0.3 0.2-0.2 0-0.4 0h-0.1l1.1 1.1q0.2 0.3 0.6 0.3 0.4 0 0.6-0.3l1.2-1.1z"/>
	<path id="Layer" class="s0" d="m106.5 12.1q0.2 0 0.4 0.1 0.1 0.1 0.3 0.2l0.8 0.9q0.1 0 0.1 0 0.1 0 0.2 0l0.8-0.9q0.2-0.1 0.3-0.2 0.2-0.1 0.3-0.1h0.2l-1.2-1.1q-0.1-0.1-0.2-0.2-0.2 0-0.4 0-0.2 0-0.3 0-0.2 0.1-0.3 0.2l-1.1 1.1z"/>
	<path id="Layer" class="s0" d="m110.8 13l-0.7-0.6q0 0 0 0h-0.4q-0.2 0-0.4 0.2l-0.9 0.8q0 0.1-0.1 0.1-0.1 0.1-0.2 0.1-0.1 0-0.3-0.2l-0.8-0.8q-0.2-0.2-0.5-0.2h-0.3q-0.1 0-0.1 0l-0.7 0.6q-0.1 0.2-0.1 0.3-0.1 0.2-0.1 0.4 0 0.2 0.1 0.3 0 0.2 0.1 0.3l0.7 0.7q0 0 0.1 0h0.3q0.3 0 0.5-0.2l0.8-0.9q0.2-0.1 0.3-0.1 0.2 0 0.3 0.1l0.9 0.9q0.2 0.2 0.4 0.2h0.4q0 0 0 0l0.7-0.7q0.2-0.3 0.2-0.6 0-0.4-0.2-0.7z"/>
	<path id="Layer" fill-rule="evenodd" class="s0" d="m113.2 16.3v-0.4q0.1-0.1 0.2-0.1 0 0 0.1 0.1 0 0 0 0 0.1 0.1 0 0.1 0.1 0.1 0 0.1 0 0 0 0-0.1 0.1-0.2 0.1 0 0-0.1 0v0.1zm0.2-0.4q-0.1 0-0.1 0v0.2q0 0 0.1 0 0.1 0 0.1-0.1 0-0.1-0.1-0.1z"/>
	<path id="Layer" fill-rule="evenodd" class="s0" d="m114 16.1q-0.1 0.1-0.2 0.1-0.1 0-0.1-0.1 0 0-0.1 0 0-0.1 0-0.1 0 0 0-0.1 0.1 0 0.1 0 0-0.1 0.1-0.1 0.1 0 0.2 0.1 0 0 0 0 0 0.1 0 0.1 0 0 0 0.1 0 0 0 0zm-0.2-0.2q-0.1 0-0.1 0.1 0 0.1 0.1 0.1 0.2 0 0.2-0.1 0-0.1-0.2-0.1z"/>
	<path id="Layer" class="s0" d="m114.5 16.2l-0.1-0.3-0.2 0.3-0.1-0.3 0.1 0.2 0.1-0.2h0.1l0.1 0.2 0.1-0.2h0.1l-0.2 0.3z"/>
	<path id="Layer" fill-rule="evenodd" class="s0" d="m114.9 16.2q-0.1 0-0.1-0.1-0.1 0-0.1 0 0-0.1 0-0.1 0 0 0-0.1 0 0 0.1 0 0-0.1 0.1-0.1 0.1 0 0.1 0.1 0.1 0 0.1 0.1h-0.4c0 0.1 0.1 0.1 0.2 0.1q0.1 0 0.2 0v0.1q-0.1 0-0.2 0zm0-0.3q-0.2 0-0.2 0.1h0.3q0-0.1-0.1-0.1z"/>
	<path id="Layer" class="s0" d="m115.2 16.2v-0.3q0.1-0.1 0.2-0.1v0.1q-0.1 0-0.2 0v0.3z"/>
	<path id="Layer" fill-rule="evenodd" class="s0" d="m115.6 16.2q-0.1 0-0.1-0.1-0.1 0-0.1 0 0-0.1 0-0.1 0 0 0-0.1 0 0 0.1 0 0-0.1 0.1-0.1 0.1 0 0.1 0.1 0.1 0 0.1 0.1h-0.4c0 0.1 0.1 0.1 0.2 0.1q0.1 0 0.2 0v0.1q-0.1 0-0.2 0zm0-0.3q-0.2 0-0.2 0.1h0.3q0-0.1-0.1-0.1z"/>
	<path id="Layer" fill-rule="evenodd" class="s0" d="m116.2 16.2v-0.1q-0.1 0.1-0.2 0.1-0.1 0-0.1-0.1 0 0 0 0-0.1-0.1-0.1-0.1 0 0 0.1-0.1 0 0 0 0 0.1-0.1 0.1-0.1 0.1 0 0.2 0.1v-0.2 0.5zm0-0.3q-0.1 0-0.1 0-0.2 0-0.2 0.1 0 0.1 0.1 0.1 0.1 0 0.2 0z"/>
	<path id="Layer" fill-rule="evenodd" class="s0" d="m116.8 16.1q0 0.1-0.1 0.1-0.1 0-0.1 0v-0.5 0.2q0.1-0.1 0.2-0.1 0 0 0.1 0.1 0 0 0 0 0 0.1 0 0.1 0 0.1 0 0.1 0 0-0.1 0zm0-0.2q-0.1 0-0.2 0v0.2q0.1 0 0.1 0 0.2 0 0.2-0.1 0-0.1-0.1-0.1z"/>
	<path id="Layer" class="s0" d="m117 16.3q0 0 0 0 0 0 0.1-0.1 0 0 0 0l-0.1-0.3 0.1 0.2 0.2-0.2-0.2 0.3q0 0.1-0.1 0.1 0 0 0 0z"/>
	<path id="Layer" fill-rule="evenodd" class="s0" d="m118 16.1q-0.1 0.1-0.2 0.1h-0.2v-0.5h0.2q0.1 0 0.2 0.1 0 0 0 0 0 0 0 0.1 0 0 0 0 0 0 0 0 0 0.1 0 0.2 0.1 0 0 0 0 0 0 0zm-0.2-0.3h-0.1v0.1h0.1q0.1 0 0.1 0 0-0.1-0.1-0.1zm0 0.2h-0.1v0.1h0.1q0.2 0 0.2-0.1-0.1 0-0.2 0z"/>
	<path id="Layer" fill-rule="evenodd" class="s0" d="m118.4 16.2v-0.1q0 0.1-0.1 0.1-0.1 0-0.1 0 0-0.1-0.1-0.1 0 0 0 0 0-0.1 0.1-0.1 0 0 0 0 0 0 0.1 0 0.1 0 0.1 0 0-0.1-0.1-0.1-0.1 0-0.1 0v-0.1q0.1 0 0.1 0 0.1 0 0.2 0.1 0 0 0 0.1v0.2zm0-0.2q-0.1 0-0.1 0-0.1 0-0.1 0.1 0 0 0.1 0 0 0 0.1 0z"/>
	<path id="Layer" class="s0" d="m118.9 16.2v-0.2q0-0.1-0.1-0.1 0 0-0.1 0v0.3h-0.1v-0.4h0.1v0.1q0.1-0.1 0.2-0.1 0 0 0.1 0.1 0 0 0 0 0 0 0 0.1v0.2z"/>
	<path id="Layer" class="s0" d="m119.3 16.2q-0.1 0-0.2-0.1 0 0 0 0 0-0.1 0-0.1 0 0 0-0.1 0 0 0.1 0 0-0.1 0.1-0.1 0.1 0 0.1 0v0.1q0 0-0.1 0-0.1 0-0.1 0.1 0 0.1 0.1 0.1 0.1 0 0.1 0v0.1q-0.1 0-0.1 0z"/>
	<path id="Layer" fill-rule="evenodd" class="s0" d="m119.8 16.1q0 0.1-0.1 0.1-0.1 0-0.2-0.1 0 0 0 0 0-0.1 0-0.1 0 0 0-0.1 0 0 0 0 0.1-0.1 0.2-0.1 0.1 0 0.1 0.1 0.1 0 0.1 0 0 0.1 0 0.1 0 0 0 0.1 0 0-0.1 0zm-0.1-0.2q-0.1 0-0.1 0.1 0 0.1 0.1 0.1 0.1 0 0.1-0.1 0-0.1-0.1-0.1z"/>
	<path id="Layer" class="s0" d="m120.4 16.2q-0.1 0-0.1-0.1-0.1 0-0.1-0.1 0-0.1 0-0.1 0-0.1 0.1-0.1 0.1-0.1 0.2-0.1 0 0 0.1 0v0.1q-0.1 0-0.1 0-0.2 0-0.2 0.2 0 0.1 0.1 0.1 0.1 0 0.2 0v0.1q-0.1 0-0.2 0z"/>
	<path id="Layer" fill-rule="evenodd" class="s0" d="m120.9 16.2q-0.1 0-0.2-0.1 0 0 0 0 0-0.1 0-0.1 0 0 0-0.1 0 0 0 0 0.1-0.1 0.2-0.1 0 0 0.1 0.1 0.1 0 0.1 0.1h-0.3q0 0.1 0.1 0.1 0.1 0 0.2 0v0.1q-0.1 0-0.2 0zm0-0.3q-0.1 0-0.1 0.1h0.2q0-0.1-0.1-0.1z"/>
	<path id="Layer" class="s0" d="m121.5 16.2v-0.2q0-0.1-0.1-0.1-0.1 0-0.2 0v0.3-0.4 0.1q0.1-0.1 0.2-0.1 0.1 0 0.1 0.1 0 0 0 0 0.1 0 0 0.1v0.2z"/>
	<path id="Layer" class="s0" d="m121.8 16.2q0 0-0.1 0 0 0 0-0.1 0 0 0-0.1v-0.1h-0.1 0.1v-0.1h0.1v0.1h0.1-0.1v0.1q0 0 0 0.1 0 0 0 0 0 0 0 0 0.1 0 0.1 0v0.1q-0.1 0-0.1 0z"/>
	<path id="Layer" class="s0" d="m122 16.2v-0.3q0.1-0.1 0.2-0.1v0.1q0 0 0 0-0.1 0-0.1 0v0.3z"/>
	<path id="Layer" fill-rule="evenodd" class="s0" d="m122.6 16.2q-0.1 0-0.2 0-0.1 0-0.1 0 0-0.1 0-0.1-0.1 0 0 0-0.1-0.1 0-0.1 0 0 0 0 0.1 0 0.1 0 0.1 0 0.1 0 0-0.1-0.1-0.1 0 0-0.1 0v-0.1q0.1 0 0.1 0 0.1 0 0.2 0.1 0 0 0 0.1v0.2zm0-0.2q0 0-0.1 0-0.1 0-0.1 0.1 0 0 0.1 0 0 0 0.1 0z"/>
	<path id="Layer" class="s0" d="m122.7 15.7h0.1v0.5h-0.1z"/>
	<path id="Layer" class="s0" d="m221.3 14.5q-0.3 0-0.5 0.2-0.2 0.2-0.3 0.4-0.1 0.3 0.1 0.5 0.1 0.2 0.3 0.4v0.9h0.7v-0.9q0.2-0.1 0.4-0.3 0.1-0.3 0.1-0.6-0.1-0.2-0.3-0.4-0.2-0.2-0.5-0.2z"/>
	<path id="Layer" fill-rule="evenodd" class="s0" d="m224.9 12.8v5.3q0 0.3-0.2 0.5-0.2 0.2-0.5 0.2h-5.9q-0.3 0-0.5-0.2-0.2-0.2-0.2-0.5v-5.3h1v-1.4c0-0.7 0.3-1.3 0.8-1.8 0.5-0.5 1.1-0.8 1.8-0.8 0.8 0 1.4 0.3 1.9 0.8 0.5 0.5 0.8 1.1 0.8 1.8v1.4zm-5.6 0h3.9v-1.4c0-0.5-0.2-1-0.5-1.4-0.4-0.3-0.9-0.6-1.4-0.6-0.6 0-1.1 0.3-1.5 0.6-0.3 0.4-0.5 0.9-0.5 1.4zm4.9 5.4v-4.7h-5.9v4.7z"/>
	<path id="Layer" class="s0" d="m145.4 13.6c0.5 0 0.9-0.2 1.2-0.5l-0.4-0.3q-0.3 0.3-0.7 0.3c-0.6 0-1.1-0.4-1.1-1 0-0.6 0.5-1 1.1-1q0.4 0 0.7 0.4l0.4-0.4c-0.3-0.3-0.7-0.5-1.2-0.5-0.8 0-1.5 0.7-1.5 1.5 0 0.9 0.7 1.5 1.5 1.5z"/>
	<path id="Layer" fill-rule="evenodd" class="s0" d="m146.8 12.5c0-0.7 0.5-1.2 1.2-1.2 0.6 0 1.1 0.5 1.1 1.2 0 0.6-0.5 1.1-1.1 1.1-0.7 0-1.2-0.5-1.2-1.1zm1.8 0c0-0.4-0.3-0.7-0.6-0.7-0.4 0-0.7 0.3-0.7 0.7 0 0.4 0.3 0.7 0.7 0.7 0.3 0 0.6-0.3 0.6-0.7z"/>
	<path id="Layer" class="s0" d="m152.4 11.3c-0.3 0-0.6 0.2-0.8 0.4q-0.3-0.4-0.8-0.4-0.4 0.1-0.7 0.4v-0.3h-0.5v2.2h0.5v-1.1c0-0.5 0.3-0.7 0.6-0.7q0.5 0 0.5 0.6v1.2h0.5v-1.1c0-0.5 0.3-0.7 0.6-0.7q0.5 0 0.5 0.6v1.2h0.5v-1.3c0-0.7-0.4-1-0.9-1z"/>
	<path id="Layer" fill-rule="evenodd" class="s0" d="m156.3 12.5c0 0.7-0.5 1.1-1.1 1.1q-0.4 0-0.7-0.3v1.1h-0.5v-3h0.5v0.3q0.2-0.4 0.7-0.4c0.6 0 1.1 0.5 1.1 1.2zm-0.5 0c0-0.4-0.3-0.7-0.7-0.7-0.3 0-0.6 0.3-0.6 0.7 0 0.4 0.3 0.7 0.6 0.7 0.4 0 0.7-0.3 0.7-0.7z"/>
	<path id="Layer" class="s0" d="m157.3 11.7v-0.3h-0.5v2.2h0.5v-1.1c0-0.4 0.3-0.7 0.6-0.7q0.1 0 0.2 0v-0.5q-0.6 0-0.8 0.4z"/>
	<path id="Layer" fill-rule="evenodd" class="s0" d="m160.3 12.3v1.3h-0.4v-0.3q-0.2 0.3-0.7 0.3c-0.5 0-0.9-0.3-0.9-0.7 0-0.3 0.3-0.6 1-0.6h0.5q0-0.5-0.5-0.5c-0.3 0-0.5 0.1-0.7 0.2l-0.2-0.4c0.2-0.2 0.6-0.3 0.9-0.3 0.7 0 1 0.3 1 1zm-0.5 0.6v-0.3h-0.5c-0.4 0-0.5 0.2-0.5 0.3 0 0.2 0.2 0.3 0.5 0.3 0.2 0 0.4-0.1 0.5-0.3z"/>
	<path id="Layer" class="s0" d="m145 17.5c0.8 0 1.2-0.4 1.2-0.8 0-1.1-1.7-0.7-1.7-1.3 0-0.2 0.1-0.4 0.6-0.4q0.4 0 0.8 0.2l0.1-0.4c-0.2-0.1-0.6-0.2-0.9-0.2-0.8 0-1.2 0.4-1.2 0.8 0 1.1 1.7 0.7 1.7 1.3 0 0.2-0.2 0.4-0.6 0.4-0.4 0-0.7-0.1-1-0.3l-0.1 0.4c0.2 0.2 0.6 0.3 1.1 0.3z"/>
	<path id="Layer" fill-rule="evenodd" class="s0" d="m148.7 16.6h-1.7c0 0.3 0.3 0.5 0.7 0.5q0.4 0 0.6-0.3l0.3 0.4q-0.3 0.3-0.9 0.3c-0.8 0-1.2-0.5-1.2-1.1 0-0.7 0.4-1.1 1.1-1.1 0.6 0 1.1 0.4 1.1 1.1q0 0.1 0 0.2zm-1.7-0.4h1.2c0-0.3-0.3-0.5-0.6-0.5-0.3 0-0.6 0.2-0.6 0.5z"/>
	<path id="Layer" fill-rule="evenodd" class="s0" d="m151.4 15.3v1.9c0 0.8-0.4 1.1-1.2 1.1-0.4 0-0.8-0.1-1.1-0.3l0.3-0.4c0.2 0.2 0.5 0.3 0.8 0.3q0.7 0 0.7-0.7v-0.1q-0.3 0.3-0.8 0.3c-0.6 0-1.1-0.4-1.1-1.1 0-0.6 0.5-1 1.1-1q0.5 0 0.8 0.3v-0.3zm-0.5 1c0-0.4-0.3-0.6-0.7-0.6-0.4 0-0.6 0.2-0.6 0.6 0 0.4 0.2 0.7 0.6 0.7 0.4 0 0.7-0.3 0.7-0.7z"/>
	<path id="Layer" class="s0" d="m153.7 15.3v1.1c0 0.4-0.3 0.7-0.6 0.7q-0.5 0-0.5-0.6v-1.2h-0.5v1.2c0 0.7 0.3 1 0.9 1 0.3 0 0.6-0.1 0.7-0.3v0.3h0.5v-2.2z"/>
	<path id="Layer" class="s0" d="m155.4 15.6v-0.3h-0.5v2.2h0.5v-1.1c0-0.4 0.2-0.7 0.6-0.7q0.1 0 0.2 0.1v-0.5q-0.6 0-0.8 0.3z"/>
	<path id="Layer" fill-rule="evenodd" class="s0" d="m158.4 16.2v1.3h-0.5v-0.3q-0.2 0.3-0.7 0.3c-0.5 0-0.8-0.3-0.8-0.6 0-0.4 0.3-0.7 0.9-0.7h0.6q0-0.5-0.5-0.5c-0.3 0-0.5 0.1-0.7 0.2l-0.2-0.4c0.2-0.1 0.6-0.2 0.9-0.2 0.7 0 1 0.3 1 0.9zm-0.5 0.6v-0.3h-0.5c-0.4 0-0.5 0.2-0.5 0.3 0 0.2 0.2 0.3 0.5 0.3 0.2 0 0.4-0.1 0.5-0.3z"/>
	<path id="Layer" class="s0" d="m186.7 13.6c0.8 0 1.2-0.4 1.2-0.8 0-1.1-1.7-0.7-1.7-1.3 0-0.2 0.2-0.4 0.6-0.4q0.4 0 0.8 0.2l0.2-0.4c-0.3-0.2-0.6-0.3-1-0.3-0.8 0-1.1 0.4-1.1 0.9 0 1.1 1.7 0.7 1.7 1.3 0 0.2-0.2 0.4-0.7 0.4-0.3 0-0.7-0.2-0.9-0.3l-0.2 0.4c0.2 0.2 0.7 0.3 1.1 0.3z"/>
	<path id="Layer" fill-rule="evenodd" class="s0" d="m190.2 12.3v1.3h-0.5v-0.3q-0.2 0.3-0.7 0.3c-0.5 0-0.8-0.3-0.8-0.7 0-0.3 0.3-0.6 0.9-0.6h0.6q0-0.5-0.5-0.5c-0.3 0-0.5 0.1-0.7 0.2l-0.2-0.4c0.2-0.2 0.6-0.3 0.9-0.3 0.7 0 1 0.3 1 1zm-0.5 0.6v-0.3h-0.5c-0.4 0-0.5 0.2-0.5 0.3 0 0.2 0.2 0.3 0.5 0.3 0.2 0 0.4-0.1 0.5-0.3z"/>
	<path id="Layer" class="s0" d="m192.1 13.1q-0.2 0.1-0.3 0.1-0.3 0-0.3-0.4v-1h0.6v-0.4h-0.6v-0.5h-0.5v0.5h-0.4v0.4h0.4v1.1c0 0.4 0.2 0.7 0.7 0.7q0.3 0 0.5-0.1z"/>
	<path id="Layer" class="s0" d="m192.9 11c0.2 0 0.3-0.1 0.3-0.3 0-0.2-0.1-0.3-0.3-0.3-0.2 0-0.3 0.1-0.3 0.3 0 0.2 0.1 0.3 0.3 0.3zm-0.3 2.6h0.5v-2.2h-0.5z"/>
	<path id="Layer" class="s0" d="m194.5 13.6c0.6 0 1-0.3 1-0.7 0-0.8-1.4-0.4-1.4-0.9 0-0.1 0.2-0.2 0.5-0.2q0.3 0 0.6 0.1l0.2-0.4c-0.2-0.1-0.5-0.2-0.8-0.2-0.6 0-1 0.3-1 0.7 0 0.9 1.4 0.5 1.4 0.9q0 0.3-0.5 0.3c-0.2 0-0.5-0.1-0.7-0.2l-0.2 0.4c0.2 0.1 0.5 0.2 0.9 0.2z"/>
	<path id="Layer" class="s0" d="m196.8 10.9q0.2 0 0.3 0.1l0.2-0.4q-0.2-0.1-0.5-0.1c-0.5 0-0.8 0.3-0.8 0.7v0.2h-0.3v0.4h0.3v1.8h0.5v-1.8h0.6v-0.4h-0.6v-0.1q0-0.4 0.3-0.4z"/>
	<path id="Layer" fill-rule="evenodd" class="s0" d="m199.3 12.3v1.3h-0.5v-0.3q-0.2 0.3-0.7 0.3c-0.5 0-0.8-0.3-0.8-0.7 0-0.3 0.2-0.6 0.9-0.6h0.6q0-0.5-0.6-0.5c-0.2 0-0.5 0.1-0.7 0.2l-0.2-0.4c0.3-0.2 0.6-0.3 1-0.3 0.6 0 1 0.3 1 1zm-0.5 0.6v-0.3h-0.6c-0.3 0-0.4 0.2-0.4 0.3 0 0.2 0.1 0.3 0.4 0.3 0.3 0 0.5-0.1 0.6-0.3z"/>
	<path id="Layer" class="s0" d="m201 13.2c-0.4 0-0.7-0.3-0.7-0.7 0-0.5 0.3-0.7 0.7-0.7q0.3 0 0.5 0.3l0.4-0.2c-0.2-0.4-0.5-0.6-0.9-0.6-0.7 0-1.2 0.5-1.2 1.2 0 0.6 0.4 1 0.9 1.1l-0.1 0.4h0.1q0.3 0 0.3 0.1 0 0.1-0.3 0.2-0.1 0-0.2-0.1l-0.1 0.2q0.1 0.1 0.3 0.1c0.4 0 0.6-0.1 0.6-0.4 0-0.2-0.1-0.3-0.3-0.3v-0.2c0.4 0 0.7-0.2 0.9-0.5l-0.4-0.2q-0.2 0.3-0.5 0.3z"/>
	<path id="Layer" fill-rule="evenodd" class="s0" d="m202.8 11h-0.3c0-0.3 0.2-0.5 0.4-0.5 0.3 0 0.5 0.3 0.6 0.3q0.2 0 0.2-0.3h0.3c0 0.4-0.2 0.6-0.5 0.6-0.2 0-0.4-0.3-0.5-0.3q-0.2 0-0.2 0.2zm1.4 1.3v1.3h-0.5v-0.3q-0.2 0.3-0.7 0.3c-0.5 0-0.8-0.3-0.8-0.7 0-0.3 0.2-0.6 0.9-0.6h0.6q0-0.5-0.6-0.5c-0.2 0-0.5 0.1-0.6 0.2l-0.2-0.4c0.2-0.2 0.5-0.3 0.9-0.3 0.6 0 1 0.3 1 1zm-0.5 0.6v-0.3h-0.6c-0.3 0-0.4 0.2-0.4 0.3 0 0.2 0.2 0.3 0.4 0.3 0.3 0 0.5-0.1 0.6-0.3z"/>
	<path id="Layer" fill-rule="evenodd" class="s0" d="m204.7 12.5c0-0.7 0.5-1.2 1.2-1.2 0.7 0 1.1 0.5 1.1 1.2 0 0.6-0.4 1.1-1.1 1.1-0.7 0-1.2-0.5-1.2-1.1zm1.8 0c0-0.4-0.3-0.7-0.6-0.7-0.4 0-0.7 0.3-0.7 0.7 0 0.4 0.3 0.7 0.7 0.7 0.3 0 0.6-0.3 0.6-0.7z"/>
	<path id="Layer" class="s0" d="m187.8 16.9q-0.3 0.2-0.6 0.2c-0.6 0-1-0.5-1-1.1 0-0.6 0.4-1 1-1q0.5 0 0.8 0.4l0.4-0.4q-0.5-0.4-1.2-0.4c-0.9 0-1.6 0.6-1.6 1.4 0 0.9 0.7 1.5 1.6 1.5 0.4 0 0.8-0.1 1.1-0.3v-1.2h-0.5z"/>
	<path id="Layer" fill-rule="evenodd" class="s0" d="m190.8 16.2v1.3h-0.5v-0.3q-0.2 0.3-0.7 0.3c-0.5 0-0.8-0.3-0.8-0.6 0-0.4 0.3-0.7 0.9-0.7h0.6q0-0.5-0.6-0.5c-0.2 0-0.5 0.1-0.6 0.2l-0.2-0.4c0.2-0.1 0.6-0.2 0.9-0.2 0.6 0 1 0.3 1 0.9zm-0.5 0.6v-0.3h-0.5c-0.4 0-0.5 0.2-0.5 0.3 0 0.2 0.2 0.3 0.4 0.3 0.3 0 0.5-0.1 0.6-0.3z"/>
	<path id="Layer" class="s0" d="m192 15.6v-0.3h-0.5v2.2h0.5v-1.1c0-0.4 0.2-0.7 0.6-0.7q0.1 0 0.2 0.1v-0.5q-0.6 0-0.8 0.3z"/>
	<path id="Layer" fill-rule="evenodd" class="s0" d="m195 16.2v1.3h-0.5v-0.3q-0.2 0.3-0.7 0.3c-0.5 0-0.8-0.3-0.8-0.6 0-0.4 0.3-0.7 0.9-0.7h0.6q0-0.5-0.5-0.5c-0.3 0-0.5 0.1-0.7 0.2l-0.2-0.4c0.2-0.1 0.6-0.2 0.9-0.2 0.7 0 1 0.3 1 0.9zm-0.5 0.6v-0.3h-0.5c-0.4 0-0.5 0.2-0.5 0.3 0 0.2 0.2 0.3 0.4 0.3 0.3 0 0.5-0.1 0.6-0.3z"/>
	<path id="Layer" class="s0" d="m196.9 15.3q-0.5 0-0.7 0.3v-0.3h-0.5v2.2h0.5v-1.1c0-0.5 0.2-0.7 0.6-0.7q0.5 0 0.5 0.6v1.2h0.5v-1.3c0-0.6-0.3-0.9-0.9-0.9z"/>
	<path id="Layer" class="s0" d="m199.7 17q-0.1 0.1-0.3 0.1-0.3 0-0.3-0.3v-1.1h0.6v-0.4h-0.6v-0.5h-0.5v0.5h-0.4v0.4h0.4v1.1c0 0.5 0.3 0.7 0.7 0.7q0.3 0 0.5-0.1z"/>
	<path id="Layer" class="s0" d="m200.5 14.9c0.2 0 0.3-0.1 0.3-0.3 0-0.2-0.1-0.3-0.3-0.3-0.2 0-0.3 0.1-0.3 0.3 0 0.2 0.1 0.3 0.3 0.3zm-0.2 2.6h0.5v-2.2h-0.5z"/>
	<path id="Layer" fill-rule="evenodd" class="s0" d="m203.6 14.4v3.1h-0.5v-0.3q-0.3 0.3-0.7 0.3c-0.7 0-1.1-0.4-1.1-1.1 0-0.7 0.4-1.1 1.1-1.1q0.4 0 0.7 0.3v-1.2zm-0.5 2c0-0.4-0.3-0.7-0.7-0.7-0.3 0-0.6 0.3-0.6 0.7 0 0.4 0.3 0.7 0.6 0.7 0.4 0 0.7-0.3 0.7-0.7z"/>
	<path id="Layer" fill-rule="evenodd" class="s0" d="m206.1 16.2v1.3h-0.5v-0.3q-0.2 0.3-0.7 0.3c-0.5 0-0.8-0.3-0.8-0.6 0-0.4 0.3-0.7 0.9-0.7h0.6q0-0.5-0.5-0.5c-0.3 0-0.5 0.1-0.7 0.2l-0.2-0.4c0.2-0.1 0.6-0.2 0.9-0.2 0.7 0 1 0.3 1 0.9zm-0.5 0.6v-0.3h-0.5c-0.4 0-0.5 0.2-0.5 0.3 0 0.2 0.2 0.3 0.4 0.3 0.3 0 0.5-0.1 0.6-0.3z"/>
	<path id="Layer" fill-rule="evenodd" class="s0" d="m231.7 11.7c0 0.6-0.4 1-1.2 1h-0.7v0.9h-0.5v-2.9h1.2c0.8 0 1.2 0.4 1.2 1zm-0.5 0q0-0.5-0.7-0.6h-0.7v1.2h0.7q0.7 0 0.7-0.6z"/>
	<path id="Layer" class="s0" d="m232.7 11.7v-0.3h-0.5v2.2h0.5v-1.1c0-0.4 0.3-0.7 0.6-0.7q0.1 0 0.2 0v-0.5q-0.6 0-0.8 0.4z"/>
	<path id="Layer" class="s0" d="m234.2 11c0.2 0 0.3-0.1 0.3-0.3 0-0.2-0.1-0.3-0.3-0.3-0.2 0-0.4 0.1-0.4 0.3 0 0.2 0.2 0.3 0.4 0.3zm-0.3 2.6h0.5v-2.2h-0.5z"/>
	<path id="Layer" class="s0" d="m236.7 11.4l-0.7 1.6-0.7-1.6h-0.6l1 2.2h0.5l1-2.2z"/>
	<path id="Layer" fill-rule="evenodd" class="s0" d="m239.3 12.3v1.3h-0.5v-0.3q-0.2 0.3-0.7 0.3c-0.5 0-0.8-0.3-0.8-0.7 0-0.3 0.2-0.6 0.9-0.6h0.5q0-0.5-0.5-0.5c-0.3 0-0.5 0.1-0.7 0.2l-0.2-0.4c0.3-0.2 0.6-0.3 0.9-0.3 0.7 0 1.1 0.3 1.1 1zm-0.6 0.6v-0.3h-0.5c-0.3 0-0.4 0.2-0.4 0.3 0 0.2 0.1 0.3 0.4 0.3 0.2 0 0.4-0.1 0.5-0.3z"/>
	<path id="Layer" class="s0" d="m240.9 13.6c0.5 0 0.8-0.2 1-0.5l-0.4-0.2q-0.2 0.3-0.6 0.3c-0.3 0-0.6-0.3-0.6-0.7 0-0.5 0.3-0.7 0.6-0.7q0.4 0 0.6 0.3l0.4-0.2c-0.2-0.4-0.5-0.6-1-0.6-0.7 0-1.1 0.5-1.1 1.2 0 0.6 0.4 1.1 1.1 1.1z"/>
	<path id="Layer" class="s0" d="m242.6 11c0.2 0 0.3-0.1 0.3-0.3 0-0.2-0.1-0.3-0.3-0.3-0.2 0-0.3 0.1-0.3 0.3 0 0.2 0.1 0.3 0.3 0.3zm-0.3 2.6h0.5v-2.2h-0.5z"/>
	<path id="Layer" fill-rule="evenodd" class="s0" d="m245.7 10.5v3.1h-0.5v-0.3q-0.3 0.3-0.7 0.3c-0.7 0-1.2-0.4-1.2-1.1 0-0.7 0.5-1.2 1.2-1.2q0.4 0 0.7 0.3v-1.1zm-0.5 2c0-0.4-0.3-0.7-0.7-0.7-0.4 0-0.7 0.3-0.7 0.7 0 0.4 0.3 0.7 0.7 0.7 0.4 0 0.7-0.3 0.7-0.7z"/>
	<path id="Layer" fill-rule="evenodd" class="s0" d="m248.2 12.3v1.3h-0.5v-0.3q-0.2 0.3-0.7 0.3c-0.5 0-0.8-0.3-0.8-0.7 0-0.3 0.2-0.6 0.9-0.6h0.6q0-0.5-0.6-0.5c-0.2 0-0.5 0.1-0.6 0.2l-0.2-0.4c0.2-0.2 0.5-0.3 0.9-0.3 0.6 0 1 0.3 1 1zm-0.5 0.6v-0.3h-0.6c-0.3 0-0.4 0.2-0.4 0.3 0 0.2 0.2 0.3 0.4 0.3 0.3 0 0.5-0.1 0.6-0.3z"/>
	<path id="Layer" fill-rule="evenodd" class="s0" d="m251 10.5v3.1h-0.5v-0.3q-0.2 0.3-0.7 0.3c-0.6 0-1.1-0.4-1.1-1.1 0-0.7 0.5-1.2 1.1-1.2q0.4 0 0.7 0.3v-1.1zm-0.5 2c0-0.4-0.3-0.7-0.6-0.7-0.4 0-0.7 0.3-0.7 0.7 0 0.4 0.3 0.7 0.7 0.7 0.3 0 0.6-0.3 0.6-0.7z"/>
	<path id="Layer" fill-rule="evenodd" class="s0" d="m253.8 12.6h-1.8c0.1 0.4 0.4 0.6 0.8 0.6q0.3 0 0.6-0.3l0.2 0.3q-0.3 0.4-0.9 0.4c-0.7 0-1.2-0.5-1.2-1.1 0-0.7 0.5-1.2 1.2-1.2 0.6 0 1.1 0.5 1.1 1.2q0 0.1 0 0.1zm-1.8-0.3h1.3c-0.1-0.3-0.3-0.5-0.6-0.5-0.4 0-0.6 0.2-0.7 0.5z"/>
	<path id="Layer" fill-rule="evenodd" class="s0" d="m231.7 15.6c0 0.7-0.4 1.1-1.2 1.1h-0.7v0.8h-0.5v-2.9h1.2c0.8 0 1.2 0.4 1.2 1zm-0.5 0q0-0.5-0.7-0.5h-0.7v1.1h0.7q0.7 0 0.7-0.6z"/>
	<path id="Layer" class="s0" d="m232.7 15.6v-0.3h-0.5v2.2h0.5v-1.1c0-0.4 0.3-0.7 0.6-0.7q0.1 0 0.2 0.1v-0.5q-0.6 0-0.8 0.3z"/>
	<path id="Layer" fill-rule="evenodd" class="s0" d="m233.7 16.4c0-0.7 0.5-1.1 1.2-1.1 0.7 0 1.1 0.4 1.1 1.1 0 0.6-0.4 1.1-1.1 1.1-0.7 0-1.2-0.5-1.2-1.1zm1.8 0c0-0.4-0.3-0.7-0.6-0.7-0.4 0-0.7 0.3-0.7 0.7 0 0.4 0.3 0.7 0.7 0.7 0.3 0 0.6-0.3 0.6-0.7z"/>
	<path id="Layer" class="s0" d="m237.7 17q-0.1 0.1-0.3 0.1-0.3 0-0.3-0.3v-1.1h0.6v-0.4h-0.6v-0.5h-0.5v0.5h-0.4v0.4h0.4v1.1c0 0.5 0.3 0.7 0.8 0.7 0.2 0 0.3 0 0.5-0.1z"/>
	<path id="Layer" fill-rule="evenodd" class="s0" d="m240.3 16.6h-1.8c0.1 0.3 0.4 0.5 0.8 0.5q0.3 0 0.6-0.3l0.2 0.4q-0.3 0.3-0.9 0.3c-0.7 0-1.2-0.5-1.2-1.1 0-0.7 0.5-1.1 1.2-1.1 0.6 0 1.1 0.4 1.1 1.1q0 0.1 0 0.2zm-1.8-0.4h1.3c0-0.3-0.3-0.5-0.6-0.5-0.4 0-0.6 0.2-0.7 0.5z"/>
	<path id="Layer" fill-rule="evenodd" class="s0" d="m243 15.3v1.9c0 0.8-0.5 1.1-1.2 1.1-0.4 0-0.8-0.1-1.1-0.3l0.2-0.4c0.2 0.2 0.5 0.3 0.8 0.3q0.8 0 0.7-0.7v-0.1q-0.2 0.3-0.7 0.3c-0.6 0-1.1-0.4-1.1-1.1 0-0.6 0.5-1 1.1-1q0.5 0 0.8 0.3v-0.3zm-0.5 1c0-0.4-0.3-0.6-0.7-0.6-0.4 0-0.7 0.2-0.7 0.6 0 0.4 0.3 0.7 0.7 0.7 0.4 0 0.7-0.3 0.7-0.7z"/>
	<path id="Layer" class="s0" d="m243.9 14.9c0.2 0 0.3-0.1 0.3-0.3 0-0.2-0.1-0.3-0.3-0.3-0.2 0-0.3 0.1-0.3 0.3 0 0.2 0.1 0.3 0.3 0.3zm-0.3 2.6h0.6v-2.2h-0.6z"/>
	<path id="Layer" fill-rule="evenodd" class="s0" d="m247 14.4v3.1h-0.5v-0.3q-0.3 0.3-0.7 0.3c-0.7 0-1.1-0.4-1.1-1.1 0-0.7 0.4-1.1 1.1-1.1q0.4 0 0.7 0.3v-1.2zm-0.5 2c0-0.4-0.3-0.7-0.7-0.7-0.4 0-0.6 0.3-0.6 0.7 0 0.4 0.2 0.7 0.6 0.7 0.4 0 0.7-0.3 0.7-0.7z"/>
	<path id="Layer" fill-rule="evenodd" class="s0" d="m249.5 16.2v1.3h-0.5v-0.3q-0.2 0.3-0.7 0.3c-0.5 0-0.8-0.3-0.8-0.6 0-0.4 0.3-0.7 0.9-0.7h0.6q0-0.5-0.6-0.5c-0.2 0-0.5 0.1-0.6 0.2l-0.2-0.4c0.2-0.1 0.6-0.2 0.9-0.2 0.6 0 1 0.3 1 0.9zm-0.5 0.6v-0.3h-0.5c-0.4 0-0.5 0.2-0.5 0.3 0 0.2 0.2 0.3 0.4 0.3 0.3 0 0.5-0.1 0.6-0.3z"/>
	<path id="Layer" fill-rule="evenodd" class="s0" d="m140 10.2v4.2c0 2.4-2 4.3-4.5 4.3-2.4 0-4.4-1.9-4.4-4.3v-4.2l4.4-1.4zm-0.8 0.6l-3.6-1.2-3.6 1.2v3.6c0 1.9 1.6 3.5 3.6 3.5 2 0 3.6-1.6 3.6-3.5z"/>
	<path id="Layer" class="s0" d="m134 13.3q-0.1 0-0.1-0.1-0.1 0-0.2 0-0.1 0-0.2 0 0 0.1-0.1 0.1-0.1 0.1-0.1 0.1 0 0.1 0 0.2 0 0.1 0 0.2 0 0 0.1 0.1l1.5 1.4q0.1 0.1 0.1 0.1 0.1 0 0.2 0 0.1 0 0.1 0 0.1 0 0.2-0.1l2.5-2.4q0.1-0.1 0.1-0.2 0.1 0 0.1-0.1 0-0.1-0.1-0.1 0-0.1-0.1-0.2 0 0-0.1-0.1-0.1 0-0.2 0 0 0-0.1 0-0.1 0.1-0.1 0.1l-2.3 2.2z"/>
	<path id="Layer" fill-rule="evenodd" class="s0" d="m173.2 13.1c-0.6 0-1.1-0.3-1.5-0.8-0.4-0.4-0.6-0.9-0.6-1.5v-0.3c0-0.6 0.5-1.1 1.1-1.1h0.9c0.2-0.3 0.5-0.6 1-0.6h4.5q0.3 0 0.5 0.2 0.3 0.1 0.4 0.4h0.9c0.6 0 1.1 0.5 1.1 1.1v0.3c0 0.6-0.2 1.1-0.6 1.5-0.3 0.5-0.9 0.8-1.5 0.8q-0.2 0.7-0.6 1.2-0.5 0.5-1.2 0.8l0.1 0.9q0 0 0.1 0.1 0.1 0.1 0.2 0.1c0.2 0.1 0.4 0.2 0.6 0.4q0.3 0.3 0.3 0.8v0.4h0.8q0.2 0 0.4 0.2 0.1 0.1 0.1 0.3 0 0.2-0.1 0.3-0.2 0.2-0.4 0.2h-6.8q-0.2 0-0.4-0.2-0.1-0.1-0.1-0.3 0-0.2 0.1-0.3 0.2-0.2 0.4-0.2h0.8v-0.4q0-0.5 0.3-0.8c0.2-0.2 0.4-0.3 0.6-0.4q0.1 0 0.2-0.1 0.1-0.1 0.1-0.1l0.1-0.9q-0.6-0.3-1.1-0.8-0.5-0.5-0.7-1.2zm-0.1-2.7h-0.9q0 0-0.1 0 0 0 0 0.1v0.3c0 0.6 0.4 1.1 1 1.3zm2.9 5l-0.1 0.8c-0.1 0.5-0.6 0.9-1 1q-0.1 0-0.2 0.1 0 0 0 0.2v0.4h3.2v-0.4q0-0.2 0-0.2-0.1-0.1-0.2-0.1c-0.4-0.1-0.9-0.5-0.9-1l-0.1-0.8q-0.4 0-0.7 0zm3.6-3.2q0.4-0.1 0.7-0.5 0.3-0.3 0.3-0.8v-0.3q0-0.1-0.1-0.1 0-0.1-0.1-0.1h-0.8zm-5.6 0.1c0 0.6 0.3 1.2 0.7 1.6 0.4 0.4 1 0.6 1.6 0.6 0.6 0 1.2-0.2 1.6-0.6 0.5-0.4 0.7-1 0.7-1.6v-2.4q0-0.1 0-0.1h-4.5q-0.1 0-0.1 0.1z"/>
	<path id="Layer" class="s0" d="m176.3 10.3l0.4 1h1.1l-0.9 0.7 0.3 1-0.9-0.6-0.9 0.6 0.3-1-0.9-0.7h1.2z"/>
	<path id="Layer" fill-rule="evenodd" class="s0" d="m123.7 31.9v8.5h-0.9v-8.5zm7.6 3.4h-1q0-0.2-0.1-0.4-0.1-0.2-0.3-0.3-0.2-0.1-0.4-0.2-0.2-0.1-0.4-0.1-0.4 0-0.8 0.2-0.3 0.3-0.5 0.7-0.1 0.4-0.2 1 0.1 0.6 0.2 1 0.2 0.4 0.5 0.6 0.4 0.2 0.8 0.2 0.2 0 0.4-0.1 0.2 0 0.4-0.2 0.2-0.1 0.3-0.3 0.1-0.1 0.1-0.4h1q-0.1 0.4-0.3 0.7-0.1 0.3-0.4 0.6-0.3 0.2-0.7 0.4-0.4 0.1-0.8 0.1-0.7 0-1.2-0.3-0.6-0.3-0.9-0.9-0.3-0.6-0.3-1.4 0-0.9 0.3-1.5 0.3-0.6 0.9-0.9 0.5-0.3 1.2-0.3 0.4 0 0.8 0.1 0.4 0.1 0.6 0.4 0.3 0.2 0.5 0.5 0.2 0.4 0.3 0.8zm2.5 3.5q-0.6 0-1-0.2-0.4-0.3-0.6-0.7-0.3-0.5-0.3-1.1 0-0.6 0.3-1 0.2-0.5 0.6-0.7 0.4-0.3 1-0.3 0.6 0 1 0.3 0.4 0.2 0.6 0.7 0.2 0.4 0.2 1 0 0.6-0.2 1.1-0.2 0.4-0.6 0.7-0.4 0.2-1 0.2zm0-0.7q0.3 0 0.5-0.2 0.2-0.2 0.3-0.4 0.1-0.3 0.1-0.7 0-0.3-0.1-0.6-0.1-0.3-0.3-0.5-0.2-0.2-0.5-0.2-0.3 0-0.5 0.2-0.2 0.2-0.3 0.5-0.1 0.3-0.1 0.6 0 0.4 0.1 0.7 0.1 0.2 0.3 0.4 0.2 0.2 0.5 0.2zm2.6 0.6v-3.8h0.9v0.6q0.2-0.3 0.4-0.5 0.3-0.2 0.7-0.2 0.4 0 0.7 0.2 0.3 0.2 0.4 0.5 0.1-0.3 0.4-0.5 0.4-0.2 0.8-0.2 0.5 0 0.9 0.3 0.3 0.4 0.3 1v2.6h-0.9v-2.4q0-0.4-0.2-0.5-0.2-0.2-0.5-0.2-0.3 0-0.5 0.2-0.2 0.2-0.2 0.5v2.4h-0.9v-2.5q0-0.3-0.2-0.4-0.2-0.2-0.4-0.2-0.2 0-0.4 0.1-0.2 0.1-0.3 0.3-0.1 0.1-0.1 0.4v2.3zm6.4 1.5v-5.3h0.9v0.6h0.1q0.1-0.1 0.2-0.3 0.1-0.2 0.3-0.3 0.3-0.1 0.6-0.1 0.5 0 0.8 0.2 0.4 0.3 0.6 0.7 0.2 0.5 0.2 1.1 0 0.6-0.2 1.1-0.2 0.4-0.6 0.7-0.3 0.2-0.8 0.2-0.3 0-0.6-0.1-0.2-0.1-0.3-0.3-0.1-0.1-0.2-0.3v2.1zm0.9-3.4q-0.1 0.4 0.1 0.7 0.1 0.2 0.3 0.4 0.2 0.2 0.5 0.2 0.3 0 0.5-0.2 0.2-0.2 0.3-0.4 0.1-0.3 0.1-0.7 0-0.4-0.1-0.6-0.1-0.3-0.3-0.5-0.2-0.1-0.5-0.1-0.3 0-0.5 0.1-0.2 0.2-0.3 0.4-0.2 0.3-0.1 0.7zm3.5 1.9v-3.8h0.9v0.6q0.1-0.3 0.4-0.5 0.3-0.2 0.6-0.2 0.1 0 0.2 0 0.1 0 0.1 0v0.9q0 0-0.2-0.1-0.1 0-0.2 0-0.3 0-0.5 0.1-0.2 0.1-0.3 0.3-0.1 0.2-0.1 0.5v2.2zm3.9 0.1q-0.4 0-0.7-0.1-0.3-0.1-0.4-0.4-0.2-0.3-0.2-0.6 0-0.4 0.1-0.6 0.1-0.2 0.3-0.3 0.3-0.2 0.5-0.2 0.3-0.1 0.6-0.1 0.3-0.1 0.5-0.1 0.2 0 0.3-0.1 0.1 0 0.1-0.2 0-0.3-0.1-0.4-0.2-0.2-0.5-0.2-0.4 0-0.6 0.2-0.2 0.1-0.2 0.3l-0.9-0.1q0.1-0.4 0.4-0.6 0.2-0.2 0.5-0.4 0.4-0.1 0.8-0.1 0.2 0 0.5 0.1 0.3 0 0.5 0.2 0.3 0.1 0.4 0.4 0.1 0.3 0.1 0.6v2.6h-0.8v-0.5h-0.1q0 0.2-0.2 0.3-0.2 0.2-0.4 0.2-0.2 0.1-0.5 0.1zm0.2-0.6q0.3 0 0.5-0.2 0.2-0.1 0.3-0.2 0.1-0.2 0.1-0.4v-0.5q0 0-0.1 0.1-0.1 0-0.2 0-0.2 0-0.3 0.1-0.1 0-0.2 0-0.2 0-0.4 0.1-0.1 0-0.2 0.2-0.1 0.1-0.1 0.2 0 0.3 0.2 0.4 0.1 0.2 0.4 0.2zm7.6-2.3l-0.8 0.1q-0.1-0.1-0.2-0.3 0-0.1-0.2-0.1-0.1-0.1-0.3-0.1-0.3 0-0.5 0.1-0.2 0.1-0.2 0.3 0 0.2 0.1 0.3 0.1 0.1 0.4 0.2l0.7 0.1q0.5 0.1 0.8 0.4 0.3 0.3 0.3 0.7 0 0.4-0.2 0.6-0.2 0.3-0.6 0.5-0.4 0.1-0.9 0.1-0.7 0-1.1-0.3-0.5-0.3-0.5-0.8l0.9-0.1q0 0.3 0.2 0.4 0.2 0.1 0.5 0.1 0.4 0 0.5-0.1 0.2-0.1 0.2-0.3 0-0.2-0.1-0.3-0.1-0.1-0.4-0.2l-0.6-0.1q-0.6-0.1-0.9-0.4-0.2-0.3-0.2-0.7 0-0.4 0.2-0.6 0.2-0.3 0.5-0.4 0.4-0.2 0.8-0.2 0.7 0 1.1 0.3 0.4 0.3 0.5 0.8zm2.6 2.9q-0.6 0-1-0.2-0.5-0.3-0.7-0.7-0.2-0.5-0.2-1.1 0-0.6 0.2-1 0.2-0.5 0.6-0.7 0.5-0.3 1-0.3 0.4 0 0.7 0.1 0.3 0.1 0.6 0.4 0.2 0.2 0.3 0.6 0.2 0.4 0.2 0.9v0.3h-2.7q0 0.3 0.1 0.5 0.1 0.3 0.4 0.4 0.2 0.1 0.5 0.1 0.2 0 0.3 0 0.2-0.1 0.3-0.2 0.1-0.1 0.2-0.3l0.9 0.1q-0.1 0.3-0.4 0.6-0.2 0.2-0.5 0.4-0.4 0.1-0.8 0.1zm-1-1.7q0-0.1 0-0.1v-0.5q0 0 0-0.1h-0.5v0.7zm1.8-0.7q0-0.2-0.1-0.4-0.1-0.2-0.3-0.4-0.2-0.1-0.5-0.1-0.2 0-0.4 0.2-0.3 0.1-0.4 0.3-0.1 0.2-0.1 0.4zm3.3 3.9q-0.4 0-0.8-0.1-0.4-0.2-0.6-0.4-0.2-0.2-0.3-0.5l0.9-0.2q0 0.1 0.1 0.2 0.1 0.1 0.3 0.2 0.2 0.1 0.5 0.1 0.4 0 0.6-0.2 0.3-0.2 0.3-0.6v-0.8h-0.1q-0.1 0.2-0.2 0.3-0.1 0.2-0.3 0.3-0.3 0.1-0.6 0.1-0.4 0-0.8-0.2-0.4-0.2-0.6-0.7-0.2-0.4-0.2-1 0-0.6 0.2-1.1 0.2-0.4 0.6-0.7 0.4-0.2 0.8-0.2 0.3 0 0.6 0.1 0.2 0.1 0.3 0.3 0.2 0.2 0.2 0.3h0.1v-0.6h0.9v3.9q0 0.5-0.3 0.8-0.2 0.4-0.6 0.5-0.4 0.2-1 0.2zm0.1-2.3q0.2 0 0.5-0.2 0.2-0.1 0.3-0.4 0.1-0.2 0.1-0.6 0-0.4-0.1-0.7-0.1-0.2-0.3-0.4-0.2-0.1-0.5-0.1-0.3 0-0.6 0.1-0.2 0.2-0.3 0.5-0.1 0.2-0.1 0.6 0 0.3 0.1 0.6 0.1 0.3 0.3 0.4 0.3 0.2 0.6 0.2zm5.2-0.9v-2.2h0.9v3.8h-0.9v-0.6q-0.2 0.3-0.5 0.5-0.3 0.2-0.7 0.2-0.4 0-0.7-0.2-0.3-0.1-0.4-0.5-0.2-0.3-0.2-0.8v-2.4h0.9v2.3q0 0.4 0.2 0.6 0.2 0.2 0.6 0.2 0.2 0 0.4-0.1 0.1-0.1 0.3-0.3 0.1-0.2 0.1-0.5zm1.8 1.6v-3.8h0.9v0.6h0.1q0.1-0.3 0.3-0.5 0.3-0.2 0.6-0.2 0.1 0 0.2 0 0.1 0 0.2 0v0.9q-0.1 0-0.2-0.1-0.1 0-0.3 0-0.2 0-0.4 0.1-0.2 0.1-0.3 0.3-0.1 0.2-0.1 0.5v2.2zm3.8 0.1q-0.3 0-0.6-0.1-0.3-0.1-0.5-0.4-0.2-0.3-0.2-0.6 0-0.4 0.2-0.6 0.1-0.2 0.3-0.3 0.2-0.2 0.5-0.2 0.2-0.1 0.5-0.1 0.4-0.1 0.6-0.1 0.2 0 0.3-0.1 0.1 0 0.1-0.2 0-0.3-0.2-0.4-0.2-0.2-0.5-0.2-0.3 0-0.5 0.2-0.2 0.1-0.3 0.3l-0.8-0.1q0.1-0.4 0.3-0.6 0.2-0.2 0.6-0.4 0.3-0.1 0.7-0.1 0.3 0 0.6 0.1 0.2 0 0.5 0.2 0.2 0.1 0.3 0.4 0.2 0.3 0.2 0.6v2.6h-0.9v-0.5q-0.1 0.2-0.3 0.3-0.1 0.2-0.3 0.2-0.3 0.1-0.6 0.1zm0.3-0.6q0.2 0 0.5-0.2 0.2-0.1 0.3-0.2 0.1-0.2 0.1-0.4v-0.5q-0.1 0-0.2 0.1-0.1 0-0.2 0-0.1 0-0.3 0.1-0.1 0-0.2 0-0.2 0-0.3 0.1-0.2 0-0.3 0.2-0.1 0.1-0.1 0.2 0 0.3 0.2 0.4 0.2 0.2 0.5 0.2z"/>
	<path id="Layer" class="s0" d="m80.8 31.9c-0.3 0.4-0.6 0.8-0.8 1.2-0.7 1.3-0.8 2.6-0.3 3.9q0.9 2.5 3.5 3.1c1.6 0.4 3.1 0 4.3-1.1 0.2-0.2 0.3-0.1 0.4 0q0.4 0.4 0.9 0.8c0.1 0.2 0.1 0.3-0.1 0.4q-2 1.9-4.8 1.7-2.4-0.1-4.2-1.8-1.4-1.3-1.8-3.2-0.4-1.6 0-3.2 0.5-1.5 1.5-2.7c0.2-0.2 0.3-0.2 0.5 0q0.5 0.5 0.9 0.9z"/>
	<path id="Layer" class="s0" d="m98.6 33.7c0.5 0 1 0 1.5 0 0 0 0.1 0.2 0.2 0.3q0.5 1.6 1 3.2c0 0 0 0.1 0.1 0.2 0.1-0.4 0.2-0.8 0.3-1.1q0.3-1.2 0.7-2.4c0-0.1 0.2-0.2 0.3-0.2q0.5 0 1.1 0c0.2 0 0.3 0.1 0.3 0.3q0.5 1.6 1 3.2c0 0 0 0.1 0.1 0.2q0.3-0.9 0.5-1.8 0.3-0.8 0.5-1.6c0.1-0.2 0.2-0.3 0.4-0.3q0.5 0 1 0c0.2 0 0.3 0.1 0.2 0.3q-0.6 1.6-1.2 3.2-0.3 0.8-0.5 1.6c-0.1 0.2-0.2 0.3-0.5 0.3q-0.5 0-1 0c-0.2 0-0.3 0-0.3-0.2q-0.4-1.2-0.8-2.4-0.1-0.4-0.3-0.8-0.3 1.1-0.7 2.1-0.1 0.6-0.3 1.1c-0.1 0.1-0.2 0.2-0.3 0.2-0.4 0-0.8 0-1.1 0-0.2 0-0.3-0.1-0.4-0.2q-0.3-0.9-0.6-1.9-0.6-1.4-1.1-2.9c-0.1-0.1-0.1-0.2-0.1-0.4z"/>
	<path id="Layer" class="s0" d="m92.6 37c-0.3 0.3-0.7 0.6-0.6 1.1 0 0.3 0 0.5 0 0.8 0 0.1-0.1 0.2-0.2 0.2q-0.6 0-1.2 0-0.2 0-0.2-0.2 0-0.1 0-0.2 0-3.3 0-6.6c0-0.4 0-0.4 0.4-0.4q0.4 0 0.9 0c0.2 0 0.3 0.1 0.3 0.3q0 1.7 0 3.3 0 0.1 0 0.4 0.1-0.2 0.2-0.2 0.7-0.8 1.5-1.6c0.1-0.1 0.3-0.1 0.4-0.2q0.6 0 1.2 0c0.1 0 0.2 0.1 0.3 0.1q-0.2 0.2-0.4 0.4-0.6 0.7-1.3 1.5c-0.2 0.1-0.2 0.2-0.1 0.3q0.9 1.5 1.9 2.9 0 0.1 0 0.2-0.1 0-0.2 0-0.7 0-1.4 0c-0.2 0-0.3 0-0.3-0.2-0.4-0.6-0.8-1.2-1.2-1.9z"/>
	<path id="Layer" class="s0" d="m115.1 39.4q0.3 0.2 0.5 0.3c0.5 0.1 1-0.3 1-0.7 0-0.2-0.1-0.4-0.2-0.6q-0.6-1.5-1.2-2.9-0.3-0.7-0.6-1.4c-0.1-0.1-0.1-0.2-0.1-0.4q0.3 0 0.6 0 0.4 0 0.8 0c0.1 0 0.2 0.1 0.3 0.2q0.5 1.3 0.9 2.6 0.2 0.3 0.4 0.7 0.1-0.4 0.3-0.8 0.4-1.2 0.8-2.5c0.1-0.1 0.2-0.2 0.3-0.2 0.5 0 0.9 0 1.4 0-0.2 0.4-0.3 0.8-0.4 1.1q-0.6 1.6-1.3 3.1c-0.2 0.7-0.5 1.5-0.8 2.1q-0.5 1-1.6 1.1c-0.6 0-1.1-0.1-1.6-0.4 0-0.1-0.1-0.2-0.1-0.2q0.3-0.6 0.6-1.1z"/>
	<path id="Layer" class="s0" d="m114.5 33.1c-0.3 0-0.5-0.1-0.8-0.1-0.3 0-0.6 0.5-0.4 0.9 0 0 0.1 0 0.2 0q0.4 0.1 0.7 0 0.3 0 0.3 0.3 0 0.3 0 0.7 0 0.2-0.2 0.2-0.4 0-0.8 0c-0.2 0-0.3 0.1-0.3 0.3q0 1.7 0 3.3c0 0.4 0 0.4-0.3 0.4q-0.5 0-1 0c-0.2 0-0.3-0.1-0.3-0.3q0-1.7 0-3.4c0.1-0.2 0-0.3-0.3-0.3-0.4 0-0.4 0-0.4-0.4q0-0.3 0-0.5 0-0.3 0.3-0.3c0.4 0 0.4 0 0.4-0.5 0.1-0.9 0.8-1.7 1.8-1.8q0.8 0 1.5 0.3c0.1 0.1 0.2 0.2 0.1 0.3q-0.3 0.5-0.5 0.9z"/>
	<path id="Layer" class="s0" d="m110 36.4q0 1.2 0 2.4c0 0.2 0 0.3-0.2 0.3q-0.6 0-1.1 0c-0.2 0-0.3 0-0.3-0.2q0-2.5 0-4.9 0-0.3 0.2-0.3 0.6 0 1.2 0c0.2 0 0.2 0.1 0.2 0.3q0 1.2 0 2.4z"/>
	<path id="Layer" class="s0" d="m98 36.4q0 1.2 0 2.4c0 0.2-0.1 0.3-0.3 0.3q-0.5 0-1.1 0c-0.1 0-0.2 0-0.2-0.2q0-2.5 0-4.9 0-0.3 0.2-0.3 0.6 0 1.2 0c0.2 0 0.2 0.1 0.2 0.3q0 1.2 0 2.4z"/>
	<path id="Layer" class="s0" d="m109.2 33.1c-0.5 0-0.9-0.4-0.9-0.9 0-0.4 0.4-0.8 0.9-0.8 0.5 0 0.9 0.3 0.9 0.9 0 0.5-0.4 0.8-0.9 0.8z"/>
	<path id="Layer" class="s0" d="m97.2 31.4c0.5 0 0.9 0.3 0.9 0.8 0 0.5-0.4 0.9-0.9 0.9-0.5 0-0.9-0.3-0.9-0.9 0-0.5 0.4-0.8 0.9-0.8z"/>
	<path id="Layer" class="s0" d="m81.6 37.8c0-0.5 0.7-1.2 1.2-1.2q0.3 0 0.3 0.3c0 0.4-0.2 0.6-0.5 0.8q-0.2 0.3-0.6 0.4c-0.2 0.1-0.4-0.1-0.4-0.3z"/>
	<path id="Layer" class="s0" d="m86.2 38.3c-0.1 0.1-0.1 0.3-0.2 0.4-0.2 0-0.4 0-0.5-0.1-0.4-0.3-0.6-0.7-0.6-1.2 0-0.1 0.1-0.3 0.2-0.4 0.1 0 0.3 0 0.4 0.1 0.4 0.3 0.6 0.7 0.7 1.2z"/>
	<path id="Layer" class="s0" d="m84.4 37.9c-0.1 0.4-0.1 0.7-0.4 1-0.2 0.2-0.5 0.2-0.6-0.1-0.1-0.5-0.1-1 0.2-1.4 0.3-0.3 0.5-0.3 0.7 0.1 0 0.1 0 0.3 0.1 0.4z"/>
	<path id="Layer" class="s0" d="m81.3 36.4c-0.1-0.1-0.3-0.1-0.4-0.1-0.3-0.2-0.4-0.5-0.1-0.7 0.4-0.3 0.9-0.3 1.4-0.2 0.3 0.1 0.4 0.4 0.1 0.6-0.3 0.3-0.6 0.3-1 0.4z"/>
	<path id="Layer" class="s0" d="m81.5 33.6c0.4 0 0.8 0.2 1.1 0.6 0.2 0.3 0.1 0.5-0.3 0.6-0.4 0-1.1-0.3-1.3-0.7-0.2-0.3 0-0.5 0.5-0.5z"/>
</svg>