<svg width="623" height="212" viewBox="0 0 623 212" fill="none" xmlns="http://www.w3.org/2000/svg">
<path d="M10.5 172H0V85H10.5C38.6197 105.86 45.2485 120.102 68.5 153C87.3181 103.747 105.868 61.8281 143.5 32H151V187.5H136V56C108.047 82.4716 96.4569 123.359 80.5 172H59.5C48.8082 139.79 35 115.5 10.5 94.5V172Z" fill="#627C41"/>
<path d="M174.139 90.5H172.29C172.18 89.968 171.989 89.5007 171.716 89.098C171.447 88.6953 171.119 88.3572 170.731 88.0838C170.348 87.8054 169.923 87.5966 169.456 87.4574C168.989 87.3182 168.501 87.2486 167.994 87.2486C167.07 87.2486 166.232 87.4822 165.481 87.9496C164.735 88.4169 164.141 89.1055 163.699 90.0153C163.261 90.9251 163.043 92.0412 163.043 93.3636C163.043 94.6861 163.261 95.8022 163.699 96.712C164.141 97.6218 164.735 98.3104 165.481 98.7777C166.232 99.245 167.07 99.4787 167.994 99.4787C168.501 99.4787 168.989 99.4091 169.456 99.2699C169.923 99.1307 170.348 98.9244 170.731 98.6509C171.119 98.3725 171.447 98.032 171.716 97.6293C171.989 97.2216 172.18 96.7543 172.29 96.2273H174.139C174 97.0078 173.746 97.7063 173.379 98.3228C173.011 98.9393 172.553 99.4638 172.006 99.8963C171.46 100.324 170.846 100.65 170.164 100.873C169.488 101.097 168.765 101.209 167.994 101.209C166.692 101.209 165.533 100.891 164.519 100.254C163.505 99.6179 162.707 98.7131 162.125 97.5398C161.544 96.3665 161.253 94.9744 161.253 93.3636C161.253 91.7528 161.544 90.3608 162.125 89.1875C162.707 88.0142 163.505 87.1094 164.519 86.473C165.533 85.8366 166.692 85.5185 167.994 85.5185C168.765 85.5185 169.488 85.6303 170.164 85.854C170.846 86.0778 171.46 86.4059 172.006 86.8384C172.553 87.266 173.011 87.788 173.379 88.4045C173.746 89.016 174 89.7145 174.139 90.5ZM177.128 101V85.7273H178.977V99.3594H186.077V101H177.128ZM190.79 85.7273V101H188.94V85.7273H190.79ZM189.06 84.1761L190.879 80.7159H192.937L190.611 84.1761H189.06ZM206.609 85.7273V101H204.819L196.496 89.0085H196.347V101H194.498V85.7273H196.288L204.64 97.7486H204.789V85.7273H206.609ZM212.159 85.7273V101H210.309V85.7273H212.159ZM228.157 90.5H226.307C226.198 89.968 226.007 89.5007 225.733 89.098C225.465 88.6953 225.137 88.3572 224.749 88.0838C224.366 87.8054 223.941 87.5966 223.474 87.4574C223.006 87.3182 222.519 87.2486 222.012 87.2486C221.087 87.2486 220.249 87.4822 219.499 87.9496C218.753 88.4169 218.159 89.1055 217.716 90.0153C217.279 90.9251 217.06 92.0412 217.06 93.3636C217.06 94.6861 217.279 95.8022 217.716 96.712C218.159 97.6218 218.753 98.3104 219.499 98.7777C220.249 99.245 221.087 99.4787 222.012 99.4787C222.519 99.4787 223.006 99.4091 223.474 99.2699C223.941 99.1307 224.366 98.9244 224.749 98.6509C225.137 98.3725 225.465 98.032 225.733 97.6293C226.007 97.2216 226.198 96.7543 226.307 96.2273H228.157C228.018 97.0078 227.764 97.7063 227.396 98.3228C227.028 98.9393 226.571 99.4638 226.024 99.8963C225.477 100.324 224.863 100.65 224.182 100.873C223.506 101.097 222.782 101.209 222.012 101.209C220.709 101.209 219.551 100.891 218.537 100.254C217.523 99.6179 216.725 98.7131 216.143 97.5398C215.561 96.3665 215.27 94.9744 215.27 93.3636C215.27 91.7528 215.561 90.3608 216.143 89.1875C216.725 88.0142 217.523 87.1094 218.537 86.473C219.551 85.8366 220.709 85.5185 222.012 85.5185C222.782 85.5185 223.506 85.6303 224.182 85.854C224.863 86.0778 225.477 86.4059 226.024 86.8384C226.571 87.266 227.028 87.788 227.396 88.4045C227.764 89.016 228.018 89.7145 228.157 90.5ZM231.772 101H229.833L235.441 85.7273H237.35L242.958 101H241.019L236.455 88.1435H236.336L231.772 101ZM232.488 95.0341H240.303V96.6747H232.488V95.0341Z" fill="#414141"/>
<path d="M161.321 175V164.091H167.905V165.263H162.642V168.949H167.564V170.121H162.642V173.828H167.99V175H161.321ZM176.252 166.818C176.188 166.278 175.929 165.859 175.474 165.561C175.02 165.263 174.462 165.114 173.801 165.114C173.319 165.114 172.896 165.192 172.534 165.348C172.175 165.504 171.895 165.719 171.692 165.993C171.493 166.266 171.394 166.577 171.394 166.925C171.394 167.216 171.463 167.466 171.602 167.676C171.744 167.882 171.925 168.054 172.145 168.192C172.365 168.327 172.596 168.439 172.837 168.528C173.079 168.613 173.301 168.683 173.503 168.736L174.611 169.034C174.895 169.109 175.211 169.212 175.559 169.343C175.911 169.474 176.246 169.654 176.566 169.881C176.889 170.105 177.156 170.392 177.365 170.744C177.575 171.096 177.679 171.527 177.679 172.038C177.679 172.628 177.525 173.161 177.216 173.636C176.911 174.112 176.463 174.49 175.874 174.771C175.288 175.051 174.576 175.192 173.738 175.192C172.956 175.192 172.28 175.066 171.708 174.814C171.14 174.561 170.692 174.21 170.366 173.759C170.043 173.308 169.86 172.784 169.817 172.188H171.181C171.216 172.599 171.355 172.94 171.596 173.21C171.841 173.477 172.15 173.675 172.523 173.807C172.9 173.935 173.304 173.999 173.738 173.999C174.242 173.999 174.695 173.917 175.096 173.754C175.497 173.587 175.815 173.356 176.049 173.061C176.284 172.763 176.401 172.415 176.401 172.017C176.401 171.655 176.3 171.36 176.097 171.133C175.895 170.906 175.629 170.721 175.298 170.579C174.968 170.437 174.611 170.312 174.228 170.206L172.885 169.822C172.033 169.577 171.358 169.228 170.861 168.773C170.364 168.319 170.115 167.724 170.115 166.989C170.115 166.378 170.281 165.845 170.611 165.391C170.945 164.933 171.392 164.577 171.953 164.325C172.518 164.07 173.148 163.942 173.844 163.942C174.547 163.942 175.172 164.068 175.719 164.32C176.266 164.569 176.699 164.909 177.019 165.343C177.342 165.776 177.512 166.268 177.53 166.818H176.252ZM179.255 165.263V164.091H187.437V165.263H184.006V175H182.685V165.263H179.255ZM189.475 175V164.091H196.059V165.263H190.796V168.949H195.718V170.121H190.796V173.828H196.144V175H189.475ZM192.181 162.983L193.481 160.511H194.951L193.289 162.983H192.181ZM197.844 165.263V164.091H206.025V165.263H202.595V175H201.274V165.263H197.844ZM209.385 164.091V175H208.064V164.091H209.385ZM220.812 167.5H219.491C219.413 167.12 219.276 166.786 219.081 166.499C218.889 166.211 218.655 165.969 218.378 165.774C218.105 165.575 217.801 165.426 217.467 165.327C217.133 165.227 216.785 165.178 216.423 165.178C215.763 165.178 215.164 165.344 214.628 165.678C214.095 166.012 213.671 166.504 213.355 167.154C213.042 167.804 212.886 168.601 212.886 169.545C212.886 170.49 213.042 171.287 213.355 171.937C213.671 172.587 214.095 173.079 214.628 173.413C215.164 173.746 215.763 173.913 216.423 173.913C216.785 173.913 217.133 173.864 217.467 173.764C217.801 173.665 218.105 173.517 218.378 173.322C218.655 173.123 218.889 172.88 219.081 172.592C219.276 172.301 219.413 171.967 219.491 171.591H220.812C220.713 172.148 220.532 172.647 220.269 173.088C220.006 173.528 219.68 173.903 219.289 174.212C218.898 174.517 218.46 174.75 217.973 174.909C217.49 175.069 216.974 175.149 216.423 175.149C215.493 175.149 214.665 174.922 213.941 174.467C213.216 174.013 212.646 173.366 212.231 172.528C211.816 171.69 211.608 170.696 211.608 169.545C211.608 168.395 211.816 167.401 212.231 166.562C212.646 165.724 213.216 165.078 213.941 164.624C214.665 164.169 215.493 163.942 216.423 163.942C216.974 163.942 217.49 164.022 217.973 164.181C218.46 164.341 218.898 164.576 219.289 164.885C219.68 165.19 220.006 165.563 220.269 166.003C220.532 166.44 220.713 166.939 220.812 167.5ZM223.394 175H222.009L226.015 164.091H227.379L231.384 175H230L226.74 165.817H226.654L223.394 175ZM223.906 170.739H229.488V171.911H223.906V170.739ZM240.222 175.149C239.504 175.149 238.886 175.018 238.368 174.755C237.849 174.492 237.45 174.132 237.169 173.674C236.889 173.216 236.748 172.692 236.748 172.102C236.748 171.648 236.844 171.245 237.036 170.893C237.231 170.538 237.5 170.21 237.84 169.908C238.185 169.602 238.581 169.297 239.028 168.991L240.605 167.82C240.914 167.617 241.161 167.401 241.345 167.17C241.534 166.939 241.628 166.637 241.628 166.264C241.628 165.987 241.505 165.719 241.26 165.46C241.019 165.201 240.701 165.071 240.307 165.071C240.03 165.071 239.785 165.142 239.572 165.284C239.362 165.423 239.197 165.6 239.076 165.817C238.959 166.03 238.9 166.25 238.9 166.477C238.9 166.733 238.97 166.992 239.108 167.255C239.25 167.514 239.43 167.781 239.646 168.054C239.866 168.324 240.094 168.601 240.328 168.885L245.335 175H243.822L239.689 170.014C239.305 169.553 238.957 169.134 238.645 168.757C238.332 168.381 238.084 168.01 237.899 167.644C237.714 167.278 237.622 166.882 237.622 166.456C237.622 165.966 237.73 165.536 237.947 165.167C238.167 164.794 238.474 164.505 238.869 164.299C239.266 164.089 239.731 163.984 240.264 163.984C240.811 163.984 241.282 164.091 241.676 164.304C242.07 164.513 242.373 164.792 242.587 165.14C242.8 165.485 242.906 165.859 242.906 166.264C242.906 166.786 242.777 167.239 242.517 167.623C242.258 168.006 241.905 168.363 241.457 168.693L239.284 170.312C238.794 170.675 238.462 171.026 238.288 171.367C238.114 171.708 238.027 171.953 238.027 172.102C238.027 172.443 238.116 172.761 238.293 173.056C238.471 173.35 238.721 173.588 239.044 173.77C239.367 173.951 239.746 174.041 240.179 174.041C240.591 174.041 240.992 173.954 241.383 173.78C241.773 173.603 242.127 173.347 242.443 173.013C242.762 172.679 243.014 172.278 243.199 171.809C243.387 171.341 243.481 170.813 243.481 170.227H244.696C244.696 170.952 244.612 171.543 244.446 172.001C244.279 172.459 244.09 172.818 243.881 173.077C243.671 173.336 243.503 173.53 243.375 173.658C243.332 173.711 243.293 173.764 243.258 173.817C243.222 173.871 243.183 173.924 243.141 173.977C242.789 174.371 242.345 174.666 241.809 174.862C241.273 175.053 240.744 175.149 240.222 175.149ZM251.116 175V164.091H254.93C255.69 164.091 256.317 164.222 256.81 164.485C257.304 164.744 257.671 165.094 257.913 165.534C258.154 165.971 258.275 166.456 258.275 166.989C258.275 167.457 258.192 167.844 258.025 168.15C257.861 168.455 257.645 168.697 257.375 168.874C257.108 169.052 256.819 169.183 256.507 169.268V169.375C256.84 169.396 257.176 169.513 257.513 169.727C257.851 169.94 258.133 170.245 258.36 170.643C258.588 171.04 258.701 171.527 258.701 172.102C258.701 172.649 258.577 173.141 258.328 173.578C258.08 174.015 257.687 174.361 257.151 174.616C256.615 174.872 255.917 175 255.058 175H251.116ZM252.437 173.828H255.058C255.921 173.828 256.533 173.661 256.895 173.327C257.261 172.99 257.444 172.582 257.444 172.102C257.444 171.733 257.35 171.392 257.162 171.08C256.974 170.763 256.705 170.511 256.357 170.323C256.009 170.131 255.597 170.036 255.122 170.036H252.437V173.828ZM252.437 168.885H254.887C255.285 168.885 255.644 168.807 255.963 168.651C256.286 168.494 256.542 168.274 256.73 167.99C256.922 167.706 257.018 167.372 257.018 166.989C257.018 166.509 256.851 166.103 256.517 165.769C256.183 165.431 255.654 165.263 254.93 165.263H252.437V168.885ZM260.872 175V164.091H267.456V165.263H262.193V168.949H267.115V170.121H262.193V173.828H267.541V175H260.872ZM269.837 164.091H271.413L275.121 173.146H275.249L278.956 164.091H280.533V175H279.297V166.712H279.19L275.781 175H274.588L271.179 166.712H271.072V175H269.837V164.091ZM287.698 168.96V170.131H282.926V168.96H287.698ZM290.081 175V164.091H296.665V165.263H291.402V168.949H296.324V170.121H291.402V173.828H296.75V175H290.081ZM305.012 166.818C304.948 166.278 304.688 165.859 304.234 165.561C303.779 165.263 303.222 165.114 302.561 165.114C302.078 165.114 301.656 165.192 301.294 165.348C300.935 165.504 300.654 165.719 300.452 165.993C300.253 166.266 300.154 166.577 300.154 166.925C300.154 167.216 300.223 167.466 300.361 167.676C300.503 167.882 300.684 168.054 300.905 168.192C301.125 168.327 301.356 168.439 301.597 168.528C301.839 168.613 302.061 168.683 302.263 168.736L303.371 169.034C303.655 169.109 303.971 169.212 304.319 169.343C304.671 169.474 305.006 169.654 305.326 169.881C305.649 170.105 305.915 170.392 306.125 170.744C306.334 171.096 306.439 171.527 306.439 172.038C306.439 172.628 306.285 173.161 305.976 173.636C305.67 174.112 305.223 174.49 304.633 174.771C304.047 175.051 303.335 175.192 302.497 175.192C301.716 175.192 301.04 175.066 300.468 174.814C299.9 174.561 299.452 174.21 299.126 173.759C298.802 173.308 298.619 172.784 298.577 172.188H299.941C299.976 172.599 300.115 172.94 300.356 173.21C300.601 173.477 300.91 173.675 301.283 173.807C301.659 173.935 302.064 173.999 302.497 173.999C303.002 173.999 303.454 173.917 303.856 173.754C304.257 173.587 304.575 173.356 304.809 173.061C305.044 172.763 305.161 172.415 305.161 172.017C305.161 171.655 305.059 171.36 304.857 171.133C304.655 170.906 304.388 170.721 304.058 170.579C303.728 170.437 303.371 170.312 302.987 170.206L301.645 169.822C300.793 169.577 300.118 169.228 299.621 168.773C299.124 168.319 298.875 167.724 298.875 166.989C298.875 166.378 299.04 165.845 299.371 165.391C299.704 164.933 300.152 164.577 300.713 164.325C301.278 164.07 301.908 163.942 302.604 163.942C303.307 163.942 303.932 164.068 304.479 164.32C305.026 164.569 305.459 164.909 305.779 165.343C306.102 165.776 306.272 166.268 306.29 166.818H305.012ZM308.014 165.263V164.091H316.196V165.263H312.766V175H311.445V165.263H308.014ZM317.408 175H316.023L320.029 164.091H321.392L325.398 175H324.013L320.753 165.817H320.668L317.408 175ZM317.919 170.739H323.502V171.911H317.919V170.739ZM327.097 175V164.091H330.783C331.636 164.091 332.335 164.237 332.882 164.528C333.429 164.815 333.834 165.211 334.097 165.716C334.359 166.22 334.491 166.793 334.491 167.436C334.491 168.079 334.359 168.649 334.097 169.146C333.834 169.643 333.431 170.034 332.888 170.318C332.344 170.598 331.65 170.739 330.805 170.739H327.822V169.545H330.762C331.345 169.545 331.813 169.46 332.168 169.29C332.527 169.119 332.786 168.878 332.946 168.565C333.109 168.249 333.191 167.873 333.191 167.436C333.191 166.999 333.109 166.618 332.946 166.291C332.783 165.964 332.522 165.712 332.163 165.534C331.804 165.353 331.33 165.263 330.741 165.263H328.418V175H327.097ZM332.232 170.099L334.917 175H333.383L330.741 170.099H332.232Z" fill="#414141"/>
<mask id="mask0_1_7" style="mask-type:alpha" maskUnits="userSpaceOnUse" x="158" y="69" width="311" height="126">
<path d="M174.64 115.305C174.93 114.58 176.38 115.015 177.54 116.175C178.845 117.335 179.57 118.785 179.135 119.655L176.525 124.15C181.02 119.8 185.37 116.175 188.125 115.16C197.115 112.115 195.665 121.975 192.765 130.82C193.2 130.53 193.78 130.24 194.215 130.095C195.52 129.515 196.68 129.08 197.695 129.08C200.015 128.935 201.9 130.095 203.205 132.85C203.93 134.445 203.93 136.91 202.77 140.245C202.625 140.535 218.285 127.63 218.43 127.63C219.01 127.05 220.315 125.455 221.475 126.76C222.78 127.92 222.635 128.79 222.055 129.37C221.91 129.515 187.255 166.055 198.13 136.185C198.275 135.605 198.42 135.17 198.565 134.59L197.985 134.88C194.07 136.91 188.995 141.115 187.98 142.855V143C187.545 143.87 186.24 143.58 184.935 142.42C183.63 141.26 183.05 139.665 183.34 138.94C183.34 138.795 192.185 119.945 191.75 120.09C183.92 122.845 163.04 148.365 162.895 148.51C162.46 149.09 161.155 148.655 159.995 147.64C158.835 146.48 158.11 144.885 158.545 144.16L174.64 115.305ZM224.501 126.325C226.531 125.745 228.706 124.875 231.026 123.86C234.071 122.265 236.681 119.22 238.276 116.465C238.566 115.885 238.711 115.45 239.001 114.87C237.406 115.595 235.521 116.755 233.346 118.35C230.446 120.525 227.111 123.28 224.501 126.325ZM234.796 128.645C227.981 132.125 220.296 132.995 219.861 132.995C210.001 154.165 249.151 136.185 253.646 128.065C254.081 127.195 255.531 126.18 256.836 127.34C257.996 128.5 257.996 129.08 257.561 129.95C253.501 137.055 230.881 152.715 220.876 147.06C215.946 144.305 212.901 138.505 214.061 132.85C214.786 129.225 216.961 125.455 219.861 122.12C222.761 118.93 226.096 115.885 229.286 113.565C233.491 110.665 237.406 108.925 239.001 109.215C240.306 109.505 241.466 110.23 242.481 111.39C243.931 112.985 244.511 114.87 244.221 116.61C244.076 117.915 243.496 119.22 242.771 120.67C241.176 123.715 238.276 126.905 234.796 128.645ZM262.811 111.825C263.246 111.1 264.696 111.535 265.856 112.695C267.161 113.855 267.741 115.45 267.306 116.175L261.941 124.73C267.016 122.265 273.976 119.945 276.876 123.57C278.181 125.02 277.746 128.355 279.631 128.5C282.386 128.645 286.446 128.065 290.361 126.905C291.231 126.615 292.101 125.89 292.971 127.195C293.986 128.645 293.406 129.08 292.536 129.225C288.331 130.53 281.371 131.98 278.326 131.69C274.556 131.4 273.396 130.385 270.206 126.615C268.031 124.005 255.126 135.46 255.126 135.46C254.836 135.605 247.296 148.365 246.571 149.67C246.136 150.395 244.686 149.96 243.526 148.8C242.221 147.64 241.641 146.045 242.076 145.32L262.811 111.825ZM300.066 115.885C300.791 115.305 302.241 115.885 303.401 117.19C304.561 118.495 304.996 119.945 304.271 120.525C301.081 123.28 295.861 129.515 292.671 135.605C290.641 139.665 290.786 141.985 292.236 142.71C298.181 143.58 314.276 127.92 314.276 127.775C314.856 127.195 315.871 126.035 317.031 127.34C318.336 128.645 317.756 129.08 317.176 129.66C317.031 129.66 292.961 155.76 286.726 144.885C284.696 141.26 285.711 136.33 288.176 131.4C291.366 125.165 296.731 118.64 300.066 115.885ZM309.056 111.68C308.476 112.405 307.026 111.825 305.866 110.665C304.706 109.36 304.126 107.91 304.706 107.185L312.826 97.905C313.406 97.18 314.711 97.76 316.016 98.92C317.176 100.225 317.611 101.675 317.176 102.4L309.056 111.68ZM336.032 133.285C335.887 134.01 335.017 134.155 334.002 133.575L333.857 133.865C328.637 138.36 323.997 141.985 320.372 144.305C315.442 147.35 307.177 148.075 307.612 139.81C307.757 137.635 308.772 134.88 310.367 132.125C313.267 127.34 319.502 119.365 325.592 119.655C331.247 119.51 332.987 122.41 334.437 124.585C339.802 119.51 345.312 113.565 350.532 107.33C362.422 93.12 370.542 81.375 374.457 75.285L377.502 70.645C377.937 69.92 379.242 70.21 380.547 71.515C381.707 72.675 382.432 74.125 381.997 74.995C381.997 74.995 380.837 76.88 378.517 80.36C364.307 102.69 310.512 187.515 312.542 192.3C313.122 193.75 312.542 194.475 311.382 194.185C310.222 193.895 308.772 192.59 308.337 191.14C306.597 187.08 325.882 154.02 344.442 123.425C341.687 126.325 338.932 129.08 336.177 131.545C336.177 132.56 336.032 133.14 336.032 133.285ZM331.247 127.63C330.957 126.615 330.232 125.455 328.347 125.455C323.127 125.165 317.327 132.27 314.862 136.33C313.702 138.36 312.832 140.245 312.542 141.695C313.412 141.26 314.717 140.535 316.312 139.52C319.937 137.345 324.577 133.72 329.652 129.225L331.247 127.63ZM369.026 115.885C369.751 115.305 371.201 115.885 372.361 117.19C373.521 118.495 373.956 119.945 373.231 120.525C370.041 123.28 364.821 129.515 361.631 135.605C359.601 139.665 359.746 141.985 361.196 142.71C367.141 143.58 383.236 127.92 383.236 127.775C383.816 127.195 384.831 126.035 385.991 127.34C387.296 128.645 386.716 129.08 386.136 129.66C385.991 129.66 361.921 155.76 355.686 144.885C353.656 141.26 354.671 136.33 357.136 131.4C360.326 125.165 365.691 118.64 369.026 115.885ZM378.016 111.68C377.436 112.405 375.986 111.825 374.826 110.665C373.666 109.36 373.086 107.91 373.666 107.185L381.786 97.905C382.366 97.18 383.671 97.76 384.976 98.92C386.136 100.225 386.571 101.675 386.136 102.4L378.016 111.68ZM407.602 124.73C408.182 126.18 407.747 127.05 406.587 126.76C405.427 126.47 403.977 125.165 403.397 123.86C400.497 121.105 393.392 124.44 390.782 126.615C385.417 130.965 382.372 136.185 380.777 142.855C385.852 141.405 399.047 126.035 399.047 126.035C399.627 125.455 400.932 125.89 402.237 127.195C403.252 128.355 403.832 129.66 403.397 130.385C403.107 131.11 401.367 134.88 402.237 138.94C402.817 142.42 421.667 126.615 421.957 126.47C422.537 125.89 423.697 125.165 424.857 126.325C426.017 127.63 425.872 128.79 425.292 129.37C415.722 137.925 410.067 143 406.152 145.03C399.482 148.51 394.407 146.48 394.552 139.375C389.332 144.305 383.967 148.8 380.777 147.35C379.617 146.915 378.747 146.045 377.877 145.175C376.427 143.29 375.847 141.26 376.137 139.085C376.282 137.345 376.862 135.46 377.732 133.575C379.617 129.515 382.952 125.02 386.722 121.975C393.247 116.61 405.137 116.32 407.602 124.73ZM425.689 119.075C426.124 118.35 427.574 118.64 428.734 119.8C430.039 120.96 430.619 122.555 430.184 123.28L426.559 129.805C434.389 123.28 442.944 116.9 446.134 117.77H446.424C450.774 119.075 451.499 121.83 450.484 125.455C450.049 127.05 449.034 128.935 448.019 131.11C446.134 134.88 443.959 139.085 443.959 139.085C448.599 142.13 464.259 128.355 464.404 128.355C464.839 127.775 466.434 125.89 467.594 127.195C468.899 128.355 468.029 128.645 467.449 129.37C467.449 129.37 451.644 148.075 444.104 143.145C437.579 138.94 440.769 132.56 443.524 126.905C444.104 125.745 444.684 124.585 445.119 123.425C436.854 127.775 417.569 146.19 416.989 146.77C416.554 147.35 415.249 146.915 414.089 145.9C412.929 144.595 412.204 143.145 412.639 142.42L425.689 119.075Z" fill="#5F8132"/>
</mask>
<g mask="url(#mask0_1_7)">
<rect x="140" y="65" width="353" height="88" fill="#5F8132"/>
</g>
</svg>
