<svg width="696" height="181" viewBox="0 0 696 181" fill="none" xmlns="http://www.w3.org/2000/svg">
<path d="M0 0H696V98C696 143.84 658.84 181 613 181H0V0Z" fill="black" fill-opacity="0.35"/>
<mask id="path-2-outside-1_9_2" maskUnits="userSpaceOnUse" x="21" y="55" width="650" height="80" fill="black">
<rect fill="white" x="21" y="55" width="650" height="80"/>
<path d="M24.53 65.151C24.53 63.2023 25.1883 61.7013 26.505 60.648C27.8217 59.542 29.6387 58.989 31.956 58.989L51.074 104.888L49.573 108.601L50.126 108.838L70.35 58.989C72.6673 58.989 74.4843 59.542 75.801 60.648C77.1703 61.754 77.855 63.2813 77.855 65.23V115.711C72.957 115.711 70.508 113.683 70.508 109.628V76.369L72.562 70.918L71.93 70.76L54.313 113.578C54.0497 114.21 53.6283 114.71 53.049 115.079C52.4697 115.5 51.864 115.711 51.232 115.711C50.5473 115.711 49.9153 115.527 49.336 115.158C48.7567 114.789 48.3353 114.263 48.072 113.578L30.455 70.681L29.823 70.918L31.877 76.29V109.628C31.877 111.629 31.245 113.157 29.981 114.21C28.7697 115.211 26.9527 115.711 24.53 115.711V65.151ZM94.1629 68.864C92.6883 68.864 91.4506 68.39 90.4499 67.442C89.4493 66.494 88.9489 65.309 88.9489 63.887C88.9489 62.465 89.4493 61.3063 90.4499 60.411C91.4506 59.463 92.6883 58.989 94.1629 58.989C95.5849 58.989 96.7963 59.463 97.7969 60.411C98.7976 61.3063 99.2979 62.465 99.2979 63.887C99.2979 65.309 98.7976 66.494 97.7969 67.442C96.7963 68.39 95.5849 68.864 94.1629 68.864ZM90.6869 79.845C90.6869 78.107 91.2399 76.843 92.3459 76.053C93.5046 75.2103 95.2426 74.789 97.5599 74.789V110.655C97.5599 112.393 96.9806 113.683 95.8219 114.526C94.7159 115.316 93.0043 115.711 90.6869 115.711V79.845ZM126.196 115.711C122.984 115.711 120.113 115.132 117.585 113.973C115.057 112.814 113.082 111.182 111.66 109.075C110.291 106.968 109.606 104.572 109.606 101.886V89.088C109.606 86.2967 110.291 83.8213 111.66 81.662C113.082 79.5027 115.031 77.8173 117.506 76.606C119.982 75.3947 122.826 74.789 126.038 74.789C129.04 74.789 131.7 75.2367 134.017 76.132C136.387 76.9747 138.231 78.186 139.547 79.766C140.864 81.346 141.522 83.1367 141.522 85.138C141.522 86.4547 140.996 87.5343 139.942 88.377C138.942 89.167 137.625 89.5093 135.992 89.404C135.992 86.876 135.071 84.822 133.227 83.242C131.437 81.662 129.093 80.872 126.196 80.872C123.3 80.872 120.956 81.662 119.165 83.242C117.375 84.7693 116.479 86.7707 116.479 89.246V101.57C116.479 103.94 117.401 105.889 119.244 107.416C121.088 108.891 123.458 109.628 126.354 109.628C129.251 109.628 131.595 108.838 133.385 107.258C135.229 105.678 136.15 103.65 136.15 101.175C137.836 101.07 139.179 101.412 140.179 102.202C141.233 102.939 141.759 103.993 141.759 105.362C141.759 107.363 141.101 109.154 139.784 110.734C138.468 112.314 136.624 113.552 134.254 114.447C131.884 115.29 129.198 115.711 126.196 115.711ZM167.965 80.872C165.016 80.872 162.567 81.7673 160.618 83.558C158.669 85.296 157.695 87.429 157.695 89.957V110.655C157.695 112.393 157.116 113.683 155.957 114.526C154.851 115.316 153.139 115.711 150.822 115.711V80.635C150.822 76.7377 153.034 74.789 157.458 74.789V79.608C156.615 80.5033 156.036 81.2933 155.72 81.978L156.036 82.294C159.407 77.2907 163.62 74.789 168.676 74.789C170.572 74.789 172.02 75.263 173.021 76.211C174.022 77.1063 174.522 78.2123 174.522 79.529C174.522 80.477 174.285 81.3197 173.811 82.057C172.336 81.267 170.388 80.872 167.965 80.872ZM192.68 115.711C189.467 115.711 186.544 115.105 183.911 113.894C181.33 112.683 179.302 111.05 177.828 108.996C176.406 106.889 175.695 104.546 175.695 101.965V89.009C175.695 86.3757 176.406 83.9793 177.828 81.82C179.302 79.6607 181.33 77.949 183.911 76.685C186.491 75.421 189.414 74.789 192.68 74.789C195.945 74.789 198.868 75.421 201.449 76.685C204.082 77.949 206.11 79.6607 207.532 81.82C209.006 83.9793 209.744 86.3757 209.744 89.009V101.965C209.744 104.546 209.006 106.889 207.532 108.996C206.057 111.05 204.029 112.683 201.449 113.894C198.868 115.105 195.945 115.711 192.68 115.711ZM192.68 109.786C195.84 109.786 198.341 109.049 200.185 107.574C202.081 106.047 203.029 104.072 203.029 101.649V89.246C203.029 86.718 202.081 84.664 200.185 83.084C198.341 81.504 195.84 80.714 192.68 80.714C189.572 80.714 187.071 81.504 185.175 83.084C183.279 84.664 182.331 86.718 182.331 89.246V101.649C182.331 104.072 183.252 106.047 185.096 107.574C186.992 109.049 189.52 109.786 192.68 109.786ZM229.975 115.711C225.446 115.711 221.785 114.5 218.994 112.077C216.255 109.654 214.886 106.468 214.886 102.518C214.886 98.5153 216.334 95.3027 219.231 92.88C222.128 90.4047 225.946 89.167 230.686 89.167C235.742 89.167 239.903 90.9577 243.168 94.539L243.484 94.223C242.905 93.591 242.246 92.9327 241.509 92.248V88.93C241.509 86.244 240.666 84.1637 238.981 82.689C237.296 81.2143 234.899 80.477 231.792 80.477C226.262 80.477 222.312 82.6627 219.942 87.034C219.099 86.6127 218.388 86.0597 217.809 85.375C217.282 84.6377 217.019 83.9003 217.019 83.163C217.019 81.741 217.73 80.398 219.152 79.134C220.574 77.8173 222.444 76.764 224.761 75.974C227.131 75.184 229.606 74.789 232.187 74.789C237.19 74.789 241.114 76.0267 243.958 78.502C246.855 80.9773 248.303 84.4007 248.303 88.772V110.418C248.303 112.261 247.776 113.604 246.723 114.447C245.67 115.29 244.011 115.711 241.746 115.711V111.998C242.852 110.839 243.458 110.155 243.563 109.944L243.247 109.628C239.824 113.683 235.4 115.711 229.975 115.711ZM231.16 110.26C234.425 110.26 236.98 109.575 238.823 108.206C240.719 106.837 241.667 104.941 241.667 102.518C241.667 100.095 240.745 98.173 238.902 96.751C237.059 95.329 234.531 94.618 231.318 94.618C228.316 94.618 225.946 95.329 224.208 96.751C222.523 98.1203 221.68 100.043 221.68 102.518C221.68 104.993 222.496 106.916 224.129 108.285C225.814 109.602 228.158 110.26 231.16 110.26ZM274.705 131.511C271.966 131.511 269.412 131.063 267.042 130.168C264.672 129.273 262.802 128.061 261.433 126.534C260.064 125.059 259.379 123.453 259.379 121.715C259.379 120.346 259.827 119.345 260.722 118.713C261.67 118.081 262.934 117.765 264.514 117.765C264.619 120.24 265.567 122.189 267.358 123.611C269.201 125.086 271.65 125.823 274.705 125.823C281.446 125.823 284.817 122.558 284.817 116.027V111.445C285.554 110.813 286.107 110.234 286.476 109.707L286.239 109.312C284.712 110.945 282.789 112.288 280.472 113.341C278.207 114.394 275.916 114.921 273.599 114.921C269.07 114.921 265.357 113.683 262.46 111.208C259.616 108.68 258.194 105.362 258.194 101.254V88.535C258.194 85.849 258.852 83.479 260.169 81.425C261.538 79.3183 263.382 77.6857 265.699 76.527C268.069 75.3683 270.676 74.789 273.52 74.789C278.681 74.789 283 77.0537 286.476 81.583L286.792 81.267L285.212 79.292C285.212 77.8173 285.712 76.7113 286.713 75.974C287.766 75.184 289.452 74.789 291.769 74.789V115.316C291.769 118.476 291.032 121.267 289.557 123.69C288.135 126.165 286.134 128.088 283.553 129.457C280.972 130.826 278.023 131.511 274.705 131.511ZM274.863 108.917C277.654 108.917 280.024 108.18 281.973 106.705C283.922 105.178 284.896 103.387 284.896 101.333V88.456C284.896 86.2967 283.922 84.4797 281.973 83.005C280.077 81.5303 277.76 80.793 275.021 80.793C271.861 80.793 269.412 81.504 267.674 82.926C265.936 84.2953 265.067 86.2703 265.067 88.851V100.938C265.067 103.413 265.91 105.362 267.595 106.784C269.333 108.206 271.756 108.917 274.863 108.917ZM335.51 109.865C335.51 113.762 333.298 115.711 328.874 115.711V110.655C329.348 110.181 329.901 109.47 330.533 108.522L330.217 108.206C328.637 110.471 326.636 112.288 324.213 113.657C321.843 115.026 319.236 115.711 316.392 115.711C313.548 115.711 311.02 115.105 308.808 113.894C306.649 112.683 304.964 110.997 303.752 108.838C302.594 106.679 302.014 104.256 302.014 101.57V79.845C302.014 78.107 302.594 76.843 303.752 76.053C304.911 75.2103 306.649 74.789 308.966 74.789V101.254C308.966 103.782 309.704 105.81 311.178 107.337C312.706 108.864 314.944 109.628 317.893 109.628C319.842 109.628 321.633 109.233 323.265 108.443C324.898 107.6 326.188 106.494 327.136 105.125C328.137 103.703 328.637 102.176 328.637 100.543V79.845C328.637 78.107 329.19 76.843 330.296 76.053C331.455 75.2103 333.193 74.789 335.51 74.789V109.865ZM358.003 115.711C354.158 115.711 351.288 114.658 349.392 112.551C347.496 110.392 346.548 107.574 346.548 104.098V64.045C346.548 62.307 347.101 61.043 348.207 60.253C349.365 59.4103 351.103 58.989 353.421 58.989V103.861C353.421 105.915 353.842 107.39 354.685 108.285C355.527 109.18 356.923 109.628 358.872 109.628C360.82 109.628 362.611 109.154 364.244 108.206C364.928 108.996 365.271 109.918 365.271 110.971C365.271 112.235 364.612 113.341 363.296 114.289C361.979 115.237 360.215 115.711 358.003 115.711ZM373.55 64.835C373.55 62.939 374.129 61.4907 375.288 60.49C376.446 59.4893 378.158 58.989 380.423 58.989V79.766C379.685 80.6087 379.106 81.346 378.685 81.978L379.001 82.294C380.633 80.082 382.687 78.2913 385.163 76.922C387.638 75.5 390.324 74.789 393.221 74.789C397.487 74.789 400.857 76.053 403.333 78.581C405.808 81.109 407.046 84.3743 407.046 88.377V110.655C407.046 112.393 406.466 113.683 405.308 114.526C404.202 115.316 402.49 115.711 400.173 115.711V89.088C400.173 86.56 399.462 84.5587 398.04 83.084C396.618 81.6093 394.458 80.872 391.562 80.872C389.613 80.872 387.77 81.2933 386.032 82.136C384.346 82.926 382.977 84.032 381.924 85.454C380.923 86.8233 380.423 88.3243 380.423 89.957V110.655C380.423 112.393 379.843 113.683 378.685 114.526C377.579 115.316 375.867 115.711 373.55 115.711V64.835ZM430.407 115.711C425.877 115.711 422.217 114.5 419.426 112.077C416.687 109.654 415.318 106.468 415.318 102.518C415.318 98.5153 416.766 95.3027 419.663 92.88C422.559 90.4047 426.378 89.167 431.118 89.167C436.174 89.167 440.334 90.9577 443.6 94.539L443.916 94.223C443.336 93.591 442.678 92.9327 441.941 92.248V88.93C441.941 86.244 441.098 84.1637 439.413 82.689C437.727 81.2143 435.331 80.477 432.224 80.477C426.694 80.477 422.744 82.6627 420.374 87.034C419.531 86.6127 418.82 86.0597 418.241 85.375C417.714 84.6377 417.451 83.9003 417.451 83.163C417.451 81.741 418.162 80.398 419.584 79.134C421.006 77.8173 422.875 76.764 425.193 75.974C427.563 75.184 430.038 74.789 432.619 74.789C437.622 74.789 441.546 76.0267 444.39 78.502C447.286 80.9773 448.735 84.4007 448.735 88.772V110.418C448.735 112.261 448.208 113.604 447.155 114.447C446.101 115.29 444.442 115.711 442.178 115.711V111.998C443.284 110.839 443.889 110.155 443.995 109.944L443.679 109.628C440.255 113.683 435.831 115.711 430.407 115.711ZM431.592 110.26C434.857 110.26 437.411 109.575 439.255 108.206C441.151 106.837 442.099 104.941 442.099 102.518C442.099 100.095 441.177 98.173 439.334 96.751C437.49 95.329 434.962 94.618 431.75 94.618C428.748 94.618 426.378 95.329 424.64 96.751C422.954 98.1203 422.112 100.043 422.112 102.518C422.112 104.993 422.928 106.916 424.561 108.285C426.246 109.602 428.59 110.26 431.592 110.26ZM459.416 80.635C459.416 76.7377 461.601 74.789 465.973 74.789V79.845C465.288 80.5823 464.735 81.2933 464.314 81.978L464.63 82.294C466.315 79.924 468.106 78.0807 470.002 76.764C471.898 75.4473 474.083 74.789 476.559 74.789C481.351 74.789 484.643 77.08 486.434 81.662C489.436 77.08 493.438 74.789 498.442 74.789C502.181 74.789 505.051 76.053 507.053 78.581C509.107 81.0563 510.134 84.3217 510.134 88.377V110.655C510.134 112.393 509.554 113.683 508.396 114.526C507.29 115.316 505.604 115.711 503.34 115.711V88.772C503.34 86.244 502.813 84.269 501.76 82.847C500.706 81.425 499.047 80.714 496.783 80.714C494.413 80.714 492.385 81.5303 490.7 83.163C489.014 84.743 488.172 86.876 488.172 89.562V110.655C488.172 112.393 487.619 113.683 486.513 114.526C485.407 115.316 483.721 115.711 481.457 115.711V88.772C481.457 86.244 480.93 84.269 479.877 82.847C478.823 81.425 477.164 80.714 474.9 80.714C472.477 80.714 470.423 81.583 468.738 83.321C467.052 85.059 466.21 87.192 466.21 89.72V110.655C466.21 112.393 465.63 113.683 464.472 114.526C463.366 115.316 461.68 115.711 459.416 115.711V80.635ZM536.319 115.711C533.106 115.711 530.236 115.105 527.708 113.894C525.18 112.63 523.205 110.918 521.783 108.759C520.361 106.547 519.65 104.072 519.65 101.333V89.641C519.65 86.8497 520.387 84.3217 521.862 82.057C523.389 79.7923 525.417 78.028 527.945 76.764C530.526 75.4473 533.317 74.789 536.319 74.789C539.321 74.789 542.06 75.421 544.535 76.685C547.063 77.949 549.038 79.687 550.46 81.899C551.935 84.111 552.672 86.6127 552.672 89.404V94.46C552.672 95.3027 552.356 96.0137 551.724 96.593C551.092 97.1723 550.328 97.462 549.433 97.462H526.365V101.017C526.365 103.703 527.208 105.862 528.893 107.495C530.631 109.128 533.106 109.944 536.319 109.944C539.532 109.944 541.981 109.233 543.666 107.811C545.351 106.389 546.194 104.467 546.194 102.044C547.774 101.939 549.091 102.255 550.144 102.992C551.25 103.677 551.803 104.704 551.803 106.073C551.803 107.758 551.066 109.338 549.591 110.813C548.169 112.288 546.273 113.473 543.903 114.368C541.533 115.263 539.005 115.711 536.319 115.711ZM546.273 92.09V89.404C546.273 86.7707 545.351 84.6377 543.508 83.005C541.717 81.3197 539.321 80.477 536.319 80.477C533.317 80.477 530.894 81.3197 529.051 83.005C527.26 84.6377 526.365 86.7707 526.365 89.404V92.09H546.273ZM561.792 80.635C561.792 76.7377 564.004 74.789 568.428 74.789V79.845C567.954 80.319 567.401 81.03 566.769 81.978L567.085 82.294C568.665 80.082 570.719 78.2913 573.247 76.922C575.775 75.5 578.513 74.789 581.463 74.789C585.729 74.789 589.099 76.053 591.575 78.581C594.05 81.109 595.288 84.3743 595.288 88.377V110.655C595.288 112.393 594.708 113.683 593.55 114.526C592.444 115.316 590.732 115.711 588.415 115.711V89.088C588.415 86.56 587.704 84.5587 586.282 83.084C584.86 81.6093 582.7 80.872 579.804 80.872C577.855 80.872 576.012 81.2933 574.274 82.136C572.588 82.926 571.219 84.032 570.166 85.454C569.165 86.8233 568.665 88.3243 568.665 89.957V110.655C568.665 112.393 568.085 113.683 566.927 114.526C565.821 115.316 564.109 115.711 561.792 115.711V80.635ZM621.256 115.711C617.517 115.711 614.725 114.658 612.882 112.551C611.039 110.392 610.117 107.574 610.117 104.098V81.03H602.77C602.77 79.2393 603.165 77.87 603.955 76.922C604.745 75.974 605.825 75.5 607.194 75.5H610.196V67.995C610.196 66.257 610.749 64.993 611.855 64.203C613.014 63.3603 614.725 62.939 616.99 62.939V75.5H627.497C627.497 79.1867 625.838 81.03 622.52 81.03H617.069V103.861C617.069 105.968 617.438 107.469 618.175 108.364C618.965 109.207 620.361 109.628 622.362 109.628C624.205 109.628 625.943 109.154 627.576 108.206C628.261 108.891 628.603 109.812 628.603 110.971C628.603 112.235 627.945 113.341 626.628 114.289C625.311 115.237 623.521 115.711 621.256 115.711ZM649.938 115.711C646.726 115.711 643.803 115.105 641.169 113.894C638.589 112.683 636.561 111.05 635.086 108.996C633.664 106.889 632.953 104.546 632.953 101.965V89.009C632.953 86.3757 633.664 83.9793 635.086 81.82C636.561 79.6607 638.589 77.949 641.169 76.685C643.75 75.421 646.673 74.789 649.938 74.789C653.204 74.789 656.127 75.421 658.707 76.685C661.341 77.949 663.368 79.6607 664.79 81.82C666.265 83.9793 667.002 86.3757 667.002 89.009V101.965C667.002 104.546 666.265 106.889 664.79 108.996C663.316 111.05 661.288 112.683 658.707 113.894C656.127 115.105 653.204 115.711 649.938 115.711ZM649.938 109.786C653.098 109.786 655.6 109.049 657.443 107.574C659.339 106.047 660.287 104.072 660.287 101.649V89.246C660.287 86.718 659.339 84.664 657.443 83.084C655.6 81.504 653.098 80.714 649.938 80.714C646.831 80.714 644.329 81.504 642.433 83.084C640.537 84.664 639.589 86.718 639.589 89.246V101.649C639.589 104.072 640.511 106.047 642.354 107.574C644.25 109.049 646.778 109.786 649.938 109.786Z"/>
</mask>
<path d="M26.505 60.648L28.3791 62.9906L28.4071 62.9682L28.4346 62.9451L26.505 60.648ZM31.956 58.989L34.7254 57.8355L33.9563 55.989H31.956V58.989ZM51.074 104.888L53.8553 106.012L54.3167 104.871L53.8434 103.734L51.074 104.888ZM49.573 108.601L46.7917 107.477L45.6904 110.201L48.3912 111.358L49.573 108.601ZM50.126 108.838L48.9442 111.595L51.7559 112.8L52.9059 109.966L50.126 108.838ZM70.35 58.989V55.989H68.3296L67.5701 57.8612L70.35 58.989ZM75.801 60.648L73.8714 62.9451L73.8935 62.9637L73.916 62.9818L75.801 60.648ZM77.855 115.711V118.711H80.855V115.711H77.855ZM70.508 76.369L67.7007 75.3112L67.508 75.8225V76.369H70.508ZM72.562 70.918L75.3693 71.9758L76.5568 68.8244L73.2896 68.0076L72.562 70.918ZM71.93 70.76L72.6576 67.8496L70.1422 67.2207L69.1556 69.6185L71.93 70.76ZM54.313 113.578L57.0823 114.732L57.0874 114.719L54.313 113.578ZM53.049 115.079L51.4384 112.548L51.3598 112.598L51.2845 112.653L53.049 115.079ZM49.336 115.158L47.7254 117.689L47.7254 117.689L49.336 115.158ZM48.072 113.578L50.872 112.501L50.8599 112.47L50.8471 112.438L48.072 113.578ZM30.455 70.681L33.2301 69.5413L32.1251 66.8507L29.4016 67.872L30.455 70.681ZM29.823 70.918L28.7696 68.109L25.9425 69.1692L27.0208 71.9894L29.823 70.918ZM31.877 76.29H34.877V75.736L34.6792 75.2186L31.877 76.29ZM29.981 114.21L31.8917 116.523L31.9016 116.515L29.981 114.21ZM24.53 115.711H21.53V118.711H24.53V115.711ZM27.53 65.151C27.53 63.9542 27.8899 63.3819 28.3791 62.9906L24.6309 58.3054C22.4867 60.0207 21.53 62.4505 21.53 65.151H27.53ZM28.4346 62.9451C29.0482 62.4297 30.0983 61.989 31.956 61.989V55.989C29.1791 55.989 26.5952 56.6543 24.5754 58.3509L28.4346 62.9451ZM29.1866 60.1425L48.3046 106.042L53.8434 103.734L34.7254 57.8355L29.1866 60.1425ZM48.2927 103.764L46.7917 107.477L52.3543 109.725L53.8553 106.012L48.2927 103.764ZM48.3912 111.358L48.9442 111.595L51.3078 106.081L50.7548 105.844L48.3912 111.358ZM52.9059 109.966L73.1299 60.1168L67.5701 57.8612L47.3461 107.71L52.9059 109.966ZM70.35 61.989C72.2077 61.989 73.2578 62.4297 73.8714 62.9451L77.7306 58.3509C75.7109 56.6543 73.1269 55.989 70.35 55.989V61.989ZM73.916 62.9818C74.4986 63.4524 74.855 64.0774 74.855 65.23H80.855C80.855 62.4852 79.8421 60.0556 77.686 58.3142L73.916 62.9818ZM74.855 65.23V115.711H80.855V65.23H74.855ZM77.855 112.711C75.7451 112.711 74.7207 112.263 74.258 111.879C73.9037 111.586 73.508 111.028 73.508 109.628H67.508C67.508 112.283 68.3368 114.767 70.4315 116.501C72.4178 118.146 75.0669 118.711 77.855 118.711V112.711ZM73.508 109.628V76.369H67.508V109.628H73.508ZM73.3153 77.4268L75.3693 71.9758L69.7547 69.8602L67.7007 75.3112L73.3153 77.4268ZM73.2896 68.0076L72.6576 67.8496L71.2024 73.6704L71.8344 73.8284L73.2896 68.0076ZM69.1556 69.6185L51.5386 112.437L57.0874 114.719L74.7044 71.9015L69.1556 69.6185ZM51.5438 112.424C51.5242 112.471 51.5095 112.489 51.5048 112.495C51.5 112.501 51.4838 112.519 51.4384 112.548L54.6596 117.61C55.7554 116.913 56.582 115.932 57.0822 114.732L51.5438 112.424ZM51.2845 112.653C51.2055 112.71 51.1689 112.722 51.1747 112.72C51.1769 112.719 51.185 112.716 51.1977 112.714C51.2104 112.712 51.2225 112.711 51.232 112.711V118.711C52.5809 118.711 53.7928 118.248 54.8135 117.505L51.2845 112.653ZM51.232 112.711C51.1197 112.711 51.0461 112.69 50.9466 112.627L47.7254 117.689C48.7846 118.363 49.975 118.711 51.232 118.711V112.711ZM50.9466 112.627C50.9364 112.621 50.9322 112.617 50.9315 112.616C50.9309 112.616 50.9301 112.615 50.9281 112.612C50.9261 112.61 50.9027 112.581 50.872 112.501L45.272 114.655C45.7492 115.896 46.5661 116.951 47.7254 117.689L50.9466 112.627ZM50.8471 112.438L33.2301 69.5413L27.6799 71.8207L45.2969 114.718L50.8471 112.438ZM29.4016 67.872L28.7696 68.109L30.8764 73.727L31.5084 73.49L29.4016 67.872ZM27.0208 71.9894L29.0748 77.3614L34.6792 75.2186L32.6252 69.8466L27.0208 71.9894ZM28.877 76.29V109.628H34.877V76.29H28.877ZM28.877 109.628C28.877 110.951 28.493 111.545 28.0604 111.905L31.9016 116.515C33.997 114.768 34.877 112.308 34.877 109.628H28.877ZM28.0704 111.897C27.6205 112.269 26.6148 112.711 24.53 112.711V118.711C27.2905 118.711 29.9188 118.153 31.8916 116.523L28.0704 111.897ZM27.53 115.711V65.151H21.53V115.711H27.53ZM90.4499 67.442L92.5132 65.2641L92.5132 65.2641L90.4499 67.442ZM90.4499 60.411L92.4503 62.6467L92.4822 62.6182L92.5132 62.5889L90.4499 60.411ZM97.7969 60.411L95.7337 62.5889L95.7647 62.6182L95.7966 62.6467L97.7969 60.411ZM97.7969 67.442L95.7337 65.2641L95.7337 65.2641L97.7969 67.442ZM92.3459 76.053L94.0897 78.4942L94.1001 78.4867L94.1105 78.4792L92.3459 76.053ZM97.5599 74.789H100.56V71.789H97.5599V74.789ZM95.8219 114.526L97.5657 116.967L97.5761 116.96L97.5865 116.952L95.8219 114.526ZM90.6869 115.711H87.6869V118.711H90.6869V115.711ZM94.1629 65.864C93.397 65.864 92.9153 65.6451 92.5132 65.2641L88.3867 69.6199C89.9859 71.1349 91.9795 71.864 94.1629 71.864V65.864ZM92.5132 65.2641C92.1315 64.9026 91.9489 64.5146 91.9489 63.887H85.9489C85.9489 66.1034 86.767 68.0854 88.3867 69.6199L92.5132 65.2641ZM91.9489 63.887C91.9489 63.2615 92.127 62.936 92.4503 62.6467L88.4496 58.1753C86.7716 59.6766 85.9489 61.6685 85.9489 63.887H91.9489ZM92.5132 62.5889C92.9153 62.2079 93.397 61.989 94.1629 61.989V55.989C91.9795 55.989 89.9859 56.7181 88.3867 58.2331L92.5132 62.5889ZM94.1629 61.989C94.8443 61.989 95.3095 62.187 95.7337 62.5889L99.8602 58.2331C98.283 56.739 96.3256 55.989 94.1629 55.989V61.989ZM95.7966 62.6467C96.1199 62.936 96.2979 63.2615 96.2979 63.887H102.298C102.298 61.6685 101.475 59.6766 99.7973 58.1753L95.7966 62.6467ZM96.2979 63.887C96.2979 64.5146 96.1154 64.9026 95.7337 65.2641L99.8602 69.6199C101.48 68.0854 102.298 66.1034 102.298 63.887H96.2979ZM95.7337 65.2641C95.3095 65.666 94.8443 65.864 94.1629 65.864V71.864C96.3256 71.864 98.283 71.114 99.8602 69.6199L95.7337 65.2641ZM93.6869 79.845C93.6869 78.776 93.988 78.5668 94.0897 78.4942L90.6022 73.6118C88.4919 75.1192 87.6869 77.438 87.6869 79.845H93.6869ZM94.1105 78.4792C94.5268 78.1764 95.517 77.789 97.5599 77.789V71.789C94.9682 71.789 92.4824 72.2443 90.5814 73.6268L94.1105 78.4792ZM94.5599 74.789V110.655H100.56V74.789H94.5599ZM94.5599 110.655C94.5599 111.664 94.2706 111.945 94.0574 112.1L97.5865 116.952C99.6906 115.422 100.56 113.122 100.56 110.655H94.5599ZM94.0782 112.085C93.7285 112.335 92.7741 112.711 90.6869 112.711V118.711C93.2345 118.711 95.7034 118.297 97.5657 116.967L94.0782 112.085ZM93.6869 115.711V79.845H87.6869V115.711H93.6869ZM117.585 113.973L118.835 111.246L118.835 111.246L117.585 113.973ZM111.66 109.075L109.145 110.71L109.159 110.732L109.174 110.753L111.66 109.075ZM111.66 81.662L109.155 80.012L109.141 80.0336L109.127 80.0554L111.66 81.662ZM117.506 76.606L116.188 73.9113L116.188 73.9113L117.506 76.606ZM134.017 76.132L132.936 78.9304L132.974 78.945L133.012 78.9586L134.017 76.132ZM139.547 79.766L137.243 81.6866L137.243 81.6866L139.547 79.766ZM139.942 88.377L141.801 90.7316L141.809 90.7257L141.816 90.7196L139.942 88.377ZM135.992 89.404H132.992V92.2167L135.799 92.3978L135.992 89.404ZM133.227 83.242L131.242 85.4915L131.258 85.5058L131.275 85.5198L133.227 83.242ZM119.165 83.242L121.112 85.5245L121.131 85.5082L121.15 85.4915L119.165 83.242ZM119.244 107.416L117.33 109.726L117.35 109.743L117.37 109.759L119.244 107.416ZM133.385 107.258L131.433 104.98L131.416 104.994L131.4 105.008L133.385 107.258ZM136.15 101.175L135.963 98.1808L133.15 98.3566V101.175H136.15ZM140.179 102.202L138.32 104.557L138.388 104.61L138.459 104.66L140.179 102.202ZM139.784 110.734L142.089 112.655L142.089 112.655L139.784 110.734ZM134.254 114.447L135.259 117.274L135.287 117.264L135.314 117.253L134.254 114.447ZM126.196 112.711C123.348 112.711 120.915 112.199 118.835 111.246L116.335 116.7C119.312 118.064 122.619 118.711 126.196 118.711V112.711ZM118.835 111.246C116.759 110.294 115.232 109.004 114.147 107.397L109.174 110.753C110.932 113.359 113.355 115.334 116.335 116.7L118.835 111.246ZM114.176 107.44C113.145 105.854 112.606 104.034 112.606 101.886H106.606C106.606 105.11 107.437 108.083 109.145 110.71L114.176 107.44ZM112.606 101.886V89.088H106.606V101.886H112.606ZM112.606 89.088C112.606 86.8114 113.157 84.9037 114.194 83.2686L109.127 80.0554C107.425 82.739 106.606 85.7819 106.606 89.088H112.606ZM114.166 83.312C115.273 81.6304 116.798 80.2923 118.825 79.3006L116.188 73.9113C113.263 75.3424 110.891 77.3749 109.155 80.012L114.166 83.312ZM118.825 79.3006C120.827 78.321 123.207 77.789 126.038 77.789V71.789C122.444 71.789 119.136 72.4683 116.188 73.9113L118.825 79.3006ZM126.038 77.789C128.745 77.789 131.027 78.1929 132.936 78.9304L135.098 73.3336C132.373 72.2804 129.335 71.789 126.038 71.789V77.789ZM133.012 78.9586C134.988 79.6612 136.339 80.6027 137.243 81.6866L141.852 77.8454C140.122 75.7693 137.786 74.2881 135.022 73.3054L133.012 78.9586ZM137.243 81.6866C138.123 82.7437 138.522 83.8593 138.522 85.138H144.522C144.522 82.414 143.604 79.9483 141.852 77.8454L137.243 81.6866ZM138.522 85.138C138.522 85.5177 138.43 85.7448 138.068 86.0344L141.816 90.7196C143.561 89.3238 144.522 87.3917 144.522 85.138H138.522ZM138.083 86.0223C137.814 86.2348 137.294 86.4818 136.185 86.4102L135.799 92.3978C137.955 92.5369 140.069 92.0992 141.801 90.7316L138.083 86.0223ZM138.992 89.404C138.992 86.0416 137.719 83.1405 135.18 80.9642L131.275 85.5198C132.422 86.5035 132.992 87.7104 132.992 89.404H138.992ZM135.212 80.9925C132.762 78.8309 129.661 77.872 126.196 77.872V83.872C128.525 83.872 130.111 84.4931 131.242 85.4915L135.212 80.9925ZM126.196 77.872C122.732 77.872 119.63 78.8309 117.18 80.9925L121.15 85.4915C122.282 84.4931 123.868 83.872 126.196 83.872V77.872ZM117.218 80.9595C114.721 83.0897 113.479 85.9442 113.479 89.246H119.479C119.479 87.5971 120.028 86.449 121.112 85.5245L117.218 80.9595ZM113.479 89.246V101.57H119.479V89.246H113.479ZM113.479 101.57C113.479 104.844 114.807 107.635 117.33 109.726L121.158 105.106C119.995 104.142 119.479 103.036 119.479 101.57H113.479ZM117.37 109.759C119.858 111.749 122.936 112.628 126.354 112.628V106.628C123.98 106.628 122.317 106.033 121.118 105.073L117.37 109.759ZM126.354 112.628C129.819 112.628 132.92 111.669 135.37 109.508L131.4 105.008C130.269 106.007 128.683 106.628 126.354 106.628V112.628ZM135.338 109.536C137.861 107.373 139.15 104.506 139.15 101.175H133.15C133.15 102.794 132.596 103.983 131.433 104.98L135.338 109.536ZM136.337 104.169C137.529 104.095 138.066 104.356 138.32 104.557L142.038 99.8474C140.291 98.4678 138.142 98.0447 135.963 98.1808L136.337 104.169ZM138.459 104.66C138.615 104.769 138.661 104.846 138.681 104.887C138.705 104.934 138.759 105.067 138.759 105.362H144.759C144.759 103.089 143.815 101.085 141.9 99.7443L138.459 104.66ZM138.759 105.362C138.759 106.641 138.36 107.756 137.48 108.813L142.089 112.655C143.841 110.552 144.759 108.086 144.759 105.362H138.759ZM137.48 108.813C136.563 109.913 135.191 110.886 133.194 111.641L135.314 117.253C138.057 116.217 140.372 114.715 142.089 112.655L137.48 108.813ZM133.249 111.62C131.257 112.329 128.92 112.711 126.196 112.711V118.711C129.476 118.711 132.511 118.251 135.259 117.274L133.249 111.62ZM160.618 83.558L162.615 85.7969L162.631 85.7821L162.648 85.767L160.618 83.558ZM155.957 114.526L157.701 116.967L157.711 116.96L157.722 116.952L155.957 114.526ZM150.822 115.711H147.822V118.711H150.822V115.711ZM157.458 74.789H160.458V71.789H157.458V74.789ZM157.458 79.608L159.643 81.6641L160.458 80.7977V79.608H157.458ZM155.72 81.978L152.996 80.7208L152.119 82.6202L153.599 84.0993L155.72 81.978ZM156.036 82.294L153.915 84.4153L156.49 86.9902L158.524 83.9702L156.036 82.294ZM173.021 76.211L170.958 78.3889L170.989 78.4182L171.021 78.4467L173.021 76.211ZM173.811 82.057L172.394 84.7014L174.836 86.0097L176.335 83.6793L173.811 82.057ZM167.965 77.872C164.357 77.872 161.155 78.99 158.588 81.349L162.648 85.767C163.978 84.5446 165.675 83.872 167.965 83.872V77.872ZM158.621 81.3191C156.058 83.605 154.695 86.5423 154.695 89.957H160.695C160.695 88.3157 161.28 86.987 162.615 85.7969L158.621 81.3191ZM154.695 89.957V110.655H160.695V89.957H154.695ZM154.695 110.655C154.695 111.664 154.406 111.945 154.192 112.1L157.722 116.952C159.826 115.422 160.695 113.122 160.695 110.655H154.695ZM154.213 112.085C153.864 112.335 152.909 112.711 150.822 112.711V118.711C153.37 118.711 155.838 118.297 157.701 116.967L154.213 112.085ZM153.822 115.711V80.635H147.822V115.711H153.822ZM153.822 80.635C153.822 79.2544 154.196 78.7375 154.464 78.5016C154.804 78.2017 155.622 77.789 157.458 77.789V71.789C154.87 71.789 152.37 72.3506 150.498 73.9994C148.554 75.7121 147.822 78.1182 147.822 80.635H153.822ZM154.458 74.789V79.608H160.458V74.789H154.458ZM155.273 77.5519C154.33 78.5539 153.506 79.6163 152.996 80.7208L158.444 83.2352C158.566 82.9704 158.9 82.4528 159.643 81.6641L155.273 77.5519ZM153.599 84.0993L153.915 84.4153L158.157 80.1727L157.841 79.8567L153.599 84.0993ZM158.524 83.9702C161.461 79.6108 164.821 77.789 168.676 77.789V71.789C162.419 71.789 157.352 74.9706 153.548 80.6178L158.524 83.9702ZM168.676 77.789C170.096 77.789 170.695 78.1402 170.958 78.3889L175.084 74.0331C173.345 72.3858 171.048 71.789 168.676 71.789V77.789ZM171.021 78.4467C171.4 78.7858 171.522 79.085 171.522 79.529H177.522C177.522 77.3397 176.644 75.4269 175.021 73.9753L171.021 78.4467ZM171.522 79.529C171.522 79.9506 171.425 80.2208 171.287 80.4347L176.335 83.6793C177.145 82.4185 177.522 81.0034 177.522 79.529H171.522ZM175.228 79.4126C173.166 78.3079 170.675 77.872 167.965 77.872V83.872C170.1 83.872 171.507 84.2261 172.394 84.7014L175.228 79.4126ZM183.911 113.894L182.636 116.61L182.646 116.615L182.657 116.619L183.911 113.894ZM177.828 108.996L175.341 110.674L175.365 110.71L175.391 110.746L177.828 108.996ZM177.828 81.82L175.35 80.1281L175.336 80.149L175.322 80.17L177.828 81.82ZM183.911 76.685L182.591 73.9908L182.591 73.9908L183.911 76.685ZM201.449 76.685L200.129 79.3792L200.14 79.3844L200.15 79.3896L201.449 76.685ZM207.532 81.82L205.026 83.47L205.04 83.491L205.054 83.5119L207.532 81.82ZM207.532 108.996L209.969 110.746L209.979 110.731L209.989 110.716L207.532 108.996ZM201.449 113.894L200.174 111.178L201.449 113.894ZM200.185 107.574L202.059 109.917L202.067 109.91L200.185 107.574ZM200.185 83.084L198.232 85.3618L198.248 85.3753L198.264 85.3887L200.185 83.084ZM185.175 83.084L183.254 80.7793L183.254 80.7793L185.175 83.084ZM185.096 107.574L183.182 109.884L183.217 109.914L183.254 109.942L185.096 107.574ZM192.68 112.711C189.853 112.711 187.364 112.18 185.164 111.169L182.657 116.619C185.724 118.03 189.081 118.711 192.68 118.711V112.711ZM185.185 111.178C183.008 110.156 181.404 108.834 180.265 107.246L175.391 110.746C177.2 113.266 179.652 115.209 182.636 116.61L185.185 111.178ZM180.314 107.318C179.232 105.715 178.695 103.957 178.695 101.965H172.695C172.695 105.134 173.579 108.064 175.341 110.674L180.314 107.318ZM178.695 101.965V89.009H172.695V101.965H178.695ZM178.695 89.009C178.695 86.9506 179.24 85.1299 180.333 83.47L175.322 80.17C173.571 82.8287 172.695 85.8007 172.695 89.009H178.695ZM180.305 83.5119C181.459 81.8227 183.068 80.4381 185.23 79.3792L182.591 73.9908C179.592 75.4599 177.146 77.4986 175.35 80.1281L180.305 83.5119ZM185.23 79.3792C187.347 78.3423 189.809 77.789 192.68 77.789V71.789C189.02 71.789 185.635 72.4997 182.591 73.9908L185.23 79.3792ZM192.68 77.789C195.55 77.789 198.012 78.3423 200.129 79.3792L202.768 73.9908C199.724 72.4997 196.34 71.789 192.68 71.789V77.789ZM200.15 79.3896C202.358 80.4493 203.941 81.8219 205.026 83.47L210.037 80.17C208.278 77.4994 205.806 75.4487 202.747 73.9804L200.15 79.3896ZM205.054 83.5119C206.186 85.1689 206.744 86.9748 206.744 89.009H212.744C212.744 85.7765 211.827 82.7897 210.009 80.1281L205.054 83.5119ZM206.744 89.009V101.965H212.744V89.009H206.744ZM206.744 101.965C206.744 103.933 206.194 105.675 205.074 107.276L209.989 110.716C211.818 108.104 212.744 105.159 212.744 101.965H206.744ZM205.095 107.246C203.955 108.834 202.351 110.156 200.174 111.178L202.723 116.61C205.707 115.209 208.159 113.266 209.969 110.746L205.095 107.246ZM200.174 111.178C198.046 112.177 195.568 112.711 192.68 112.711V118.711C196.322 118.711 199.69 118.034 202.723 116.61L200.174 111.178ZM192.68 112.786C196.29 112.786 199.528 111.941 202.059 109.917L198.311 105.231C197.155 106.156 195.389 106.786 192.68 106.786V112.786ZM202.067 109.91C204.666 107.817 206.029 104.985 206.029 101.649H200.029C200.029 103.159 199.496 104.277 198.303 105.238L202.067 109.91ZM206.029 101.649V89.246H200.029V101.649H206.029ZM206.029 89.246C206.029 85.8526 204.704 82.9451 202.105 80.7793L198.264 85.3887C199.457 86.3829 200.029 87.5834 200.029 89.246H206.029ZM202.137 80.8062C199.603 78.6346 196.336 77.714 192.68 77.714V83.714C195.344 83.714 197.079 84.3734 198.232 85.3618L202.137 80.8062ZM192.68 77.714C189.057 77.714 185.817 78.6436 183.254 80.7793L187.095 85.3887C188.324 84.3644 190.088 83.714 192.68 83.714V77.714ZM183.254 80.7793C180.655 82.9451 179.331 85.8526 179.331 89.246H185.331C185.331 87.5834 185.902 86.3829 187.095 85.3887L183.254 80.7793ZM179.331 89.246V101.649H185.331V89.246H179.331ZM179.331 101.649C179.331 104.953 180.641 107.779 183.182 109.884L187.01 105.264C185.864 104.314 185.331 103.191 185.331 101.649H179.331ZM183.254 109.942C185.822 111.939 189.064 112.786 192.68 112.786V106.786C189.976 106.786 188.162 106.158 186.937 105.206L183.254 109.942ZM218.994 112.077L217.006 114.324L217.017 114.333L217.028 114.343L218.994 112.077ZM219.231 92.88L221.156 95.1812L221.168 95.171L221.18 95.1607L219.231 92.88ZM243.168 94.539L240.951 96.5603L243.068 98.8818L245.289 96.6603L243.168 94.539ZM243.484 94.223L245.605 96.3443L247.636 94.3132L245.696 92.1958L243.484 94.223ZM241.509 92.248H238.509V93.5562L239.468 94.4464L241.509 92.248ZM238.981 82.689L237.006 84.9467L238.981 82.689ZM219.942 87.034L218.6 89.7173L221.196 91.0152L222.579 88.4639L219.942 87.034ZM217.809 85.375L215.368 87.1187L215.439 87.2189L215.519 87.3128L217.809 85.375ZM219.152 79.134L221.145 81.3762L221.168 81.356L221.19 81.3353L219.152 79.134ZM224.761 75.974L223.812 73.1279L223.803 73.1312L223.793 73.1345L224.761 75.974ZM243.958 78.502L241.988 80.7649L241.999 80.7739L242.009 80.7827L243.958 78.502ZM246.723 114.447L244.849 112.104L244.849 112.104L246.723 114.447ZM241.746 115.711H238.746V118.711H241.746V115.711ZM241.746 111.998L239.576 109.927L238.746 110.796V111.998H241.746ZM243.563 109.944L246.246 111.286L247.213 109.352L245.684 107.823L243.563 109.944ZM243.247 109.628L245.368 107.507L243.06 105.199L240.955 107.693L243.247 109.628ZM238.823 108.206L237.067 105.774L237.05 105.786L237.034 105.798L238.823 108.206ZM238.902 96.751L237.07 99.1263L237.07 99.1263L238.902 96.751ZM224.208 96.751L226.1 99.0794L226.108 99.0729L224.208 96.751ZM224.129 108.285L222.201 110.584L222.241 110.617L222.282 110.649L224.129 108.285ZM229.975 112.711C225.999 112.711 223.09 111.66 220.96 109.811L217.028 114.343C220.48 117.339 224.893 118.711 229.975 118.711V112.711ZM220.982 109.83C218.943 108.026 217.886 105.686 217.886 102.518H211.886C211.886 107.25 213.568 111.282 217.006 114.324L220.982 109.83ZM217.886 102.518C217.886 99.3429 218.986 96.9959 221.156 95.1812L217.306 90.5788C213.683 93.6094 211.886 97.6878 211.886 102.518H217.886ZM221.18 95.1607C223.411 93.2546 226.48 92.167 230.686 92.167V86.167C225.412 86.167 220.845 87.5547 217.282 90.5993L221.18 95.1607ZM230.686 92.167C234.94 92.167 238.282 93.6323 240.951 96.5603L245.385 92.5177C241.524 88.2831 236.544 86.167 230.686 86.167V92.167ZM245.289 96.6603L245.605 96.3443L241.363 92.1017L241.047 92.4177L245.289 96.6603ZM245.696 92.1958C245.053 91.4954 244.337 90.7799 243.55 90.0496L239.468 94.4464C240.156 95.0854 240.756 95.6866 241.273 96.2502L245.696 92.1958ZM244.509 92.248V88.93H238.509V92.248H244.509ZM244.509 88.93C244.509 85.5677 243.423 82.5891 240.957 80.4313L237.006 84.9467C237.91 85.7382 238.509 86.9203 238.509 88.93H244.509ZM240.957 80.4313C238.544 78.3207 235.345 77.477 231.792 77.477V83.477C234.454 83.477 236.047 84.108 237.006 84.9467L240.957 80.4313ZM231.792 77.477C228.632 77.477 225.739 78.1029 223.23 79.4913C220.704 80.8891 218.734 82.9682 217.305 85.6041L222.579 88.4639C223.52 86.7285 224.711 85.5291 226.135 84.7412C227.575 83.9439 229.422 83.477 231.792 83.477V77.477ZM221.284 84.3507C220.786 84.1017 220.403 83.7961 220.099 83.4372L215.519 87.3128C216.374 88.3232 217.413 89.1236 218.6 89.7173L221.284 84.3507ZM220.25 83.6313C220.124 83.4539 220.067 83.3299 220.042 83.26C220.019 83.195 220.019 83.167 220.019 83.163H214.019C214.019 84.6567 214.562 85.9908 215.368 87.1187L220.25 83.6313ZM220.019 83.163C220.019 82.8614 220.136 82.2733 221.145 81.3762L217.159 76.8918C215.324 78.5227 214.019 80.6206 214.019 83.163H220.019ZM221.19 81.3353C222.234 80.3685 223.708 79.5025 225.729 78.8135L223.793 73.1345C221.179 74.0255 218.914 75.2661 217.114 76.9327L221.19 81.3353ZM225.71 78.82C227.764 78.1354 229.918 77.789 232.187 77.789V71.789C229.295 71.789 226.498 72.2326 223.812 73.1279L225.71 78.82ZM232.187 77.789C236.706 77.789 239.848 78.9018 241.988 80.7649L245.928 76.2391C242.38 73.1515 237.674 71.789 232.187 71.789V77.789ZM242.009 80.7827C244.137 82.6008 245.303 85.1341 245.303 88.772H251.303C251.303 83.6672 249.573 79.3539 245.907 76.2213L242.009 80.7827ZM245.303 88.772V110.418H251.303V88.772H245.303ZM245.303 110.418C245.303 111.705 244.953 112.021 244.849 112.104L248.597 116.79C250.599 115.188 251.303 112.818 251.303 110.418H245.303ZM244.849 112.104C244.584 112.317 243.752 112.711 241.746 112.711V118.711C244.269 118.711 246.756 118.263 248.597 116.79L244.849 112.104ZM244.746 115.711V111.998H238.746V115.711H244.746ZM243.916 114.069C244.479 113.48 244.937 112.987 245.277 112.603C245.445 112.413 245.604 112.227 245.74 112.057C245.827 111.947 246.065 111.647 246.246 111.286L240.88 108.602C240.962 108.437 241.037 108.333 241.042 108.325C241.059 108.301 241.062 108.299 241.041 108.325C240.999 108.379 240.917 108.476 240.783 108.628C240.517 108.928 240.119 109.358 239.576 109.927L243.916 114.069ZM245.684 107.823L245.368 107.507L241.126 111.749L241.442 112.065L245.684 107.823ZM240.955 107.693C238.116 111.056 234.539 112.711 229.975 112.711V118.711C236.261 118.711 241.532 116.311 245.539 111.563L240.955 107.693ZM231.16 113.26C234.806 113.26 238.074 112.5 240.612 110.614L237.034 105.798C235.886 106.651 234.045 107.26 231.16 107.26V113.26ZM240.58 110.638C243.289 108.681 244.667 105.863 244.667 102.518H238.667C238.667 104.018 238.149 104.992 237.067 105.774L240.58 110.638ZM244.667 102.518C244.667 99.2094 243.348 96.392 240.734 94.3757L237.07 99.1263C238.142 99.954 238.667 100.981 238.667 102.518H244.667ZM240.734 94.3757C238.199 92.4196 234.946 91.618 231.318 91.618V97.618C234.116 97.618 235.919 98.2384 237.07 99.1263L240.734 94.3757ZM231.318 91.618C227.857 91.618 224.739 92.4403 222.308 94.4291L226.108 99.0729C227.153 98.2177 228.775 97.618 231.318 97.618V91.618ZM222.316 94.4227C219.826 96.4457 218.68 99.2816 218.68 102.518H224.68C224.68 100.804 225.219 99.795 226.1 99.0793L222.316 94.4227ZM218.68 102.518C218.68 105.721 219.775 108.549 222.201 110.584L226.057 105.986C225.217 105.282 224.68 104.266 224.68 102.518H218.68ZM222.282 110.649C224.671 112.516 227.753 113.26 231.16 113.26V107.26C228.563 107.26 226.958 106.688 225.976 105.921L222.282 110.649ZM267.042 130.168L268.102 127.362L268.102 127.362L267.042 130.168ZM261.433 126.534L263.667 124.531L263.649 124.512L263.631 124.493L261.433 126.534ZM260.722 118.713L259.058 116.217L259.025 116.239L258.992 116.262L260.722 118.713ZM264.514 117.765L267.511 117.637L267.389 114.765H264.514V117.765ZM267.358 123.611L269.232 121.268L269.224 121.262L267.358 123.611ZM284.817 111.445L282.865 109.167L281.817 110.065V111.445H284.817ZM286.476 109.707L288.934 111.427L290.05 109.833L289.049 108.164L286.476 109.707ZM286.239 109.312L288.812 107.769L286.765 104.358L284.048 107.263L286.239 109.312ZM280.472 113.341L279.231 110.61L279.219 110.615L279.207 110.621L280.472 113.341ZM262.46 111.208L260.467 113.45L260.489 113.47L260.511 113.489L262.46 111.208ZM260.169 81.425L257.654 79.79L257.649 79.798L257.643 79.806L260.169 81.425ZM265.699 76.527L264.381 73.8318L264.369 73.8377L264.357 73.8437L265.699 76.527ZM286.476 81.583L284.096 83.4095L286.179 86.123L288.597 83.7043L286.476 81.583ZM286.792 81.267L288.913 83.3883L290.812 81.4896L289.135 79.3929L286.792 81.267ZM285.212 79.292H282.212V80.3443L282.869 81.1661L285.212 79.292ZM286.713 75.974L288.493 78.3892L288.503 78.3816L288.513 78.374L286.713 75.974ZM291.769 74.789H294.769V71.789H291.769V74.789ZM289.557 123.69L286.995 122.13L286.975 122.163L286.956 122.196L289.557 123.69ZM283.553 129.457L284.959 132.107L284.959 132.107L283.553 129.457ZM281.973 106.705L283.783 109.097L283.804 109.082L283.824 109.066L281.973 106.705ZM281.973 83.005L280.131 85.3731L280.147 85.3852L280.163 85.3972L281.973 83.005ZM267.674 82.926L269.531 85.2825L269.552 85.2654L269.574 85.2479L267.674 82.926ZM267.595 106.784L265.66 109.077L265.678 109.092L265.695 109.106L267.595 106.784ZM274.705 128.511C272.299 128.511 270.107 128.119 268.102 127.362L265.982 132.974C268.717 134.008 271.634 134.511 274.705 134.511V128.511ZM268.102 127.362C266.078 126.597 264.648 125.626 263.667 124.531L259.199 128.537C260.957 130.497 263.266 131.948 265.982 132.974L268.102 127.362ZM263.631 124.493C262.69 123.479 262.379 122.577 262.379 121.715H256.379C256.379 124.329 257.437 126.64 259.235 128.575L263.631 124.493ZM262.379 121.715C262.379 121.351 262.439 121.194 262.453 121.163C262.46 121.148 262.46 121.151 262.451 121.162C262.443 121.172 262.439 121.173 262.452 121.164L258.992 116.262C257.101 117.597 256.379 119.644 256.379 121.715H262.379ZM262.386 121.209C262.685 121.01 263.305 120.765 264.514 120.765V114.765C262.563 114.765 260.655 115.152 259.058 116.217L262.386 121.209ZM261.517 117.893C261.656 121.156 262.958 123.948 265.492 125.96L269.224 121.262C268.177 120.43 267.583 119.325 267.511 117.637L261.517 117.893ZM265.484 125.954C267.998 127.965 271.172 128.823 274.705 128.823V122.823C272.129 122.823 270.404 122.206 269.232 121.268L265.484 125.954ZM274.705 128.823C278.515 128.823 281.927 127.901 284.376 125.529C286.843 123.139 287.817 119.779 287.817 116.027H281.817C281.817 118.805 281.106 120.344 280.202 121.219C279.28 122.112 277.637 122.823 274.705 122.823V128.823ZM287.817 116.027V111.445H281.817V116.027H287.817ZM286.769 113.723C287.611 113.001 288.367 112.237 288.934 111.427L284.018 107.987C283.847 108.231 283.498 108.625 282.865 109.167L286.769 113.723ZM289.049 108.164L288.812 107.769L283.667 110.855L283.904 111.25L289.049 108.164ZM284.048 107.263C282.824 108.571 281.239 109.697 279.231 110.61L281.714 116.072C284.34 114.878 286.599 113.318 288.43 111.361L284.048 107.263ZM279.207 110.621C277.307 111.504 275.446 111.921 273.599 111.921V117.921C276.387 117.921 279.108 117.284 281.737 116.061L279.207 110.621ZM273.599 111.921C269.643 111.921 266.664 110.854 264.409 108.927L260.511 113.489C264.05 116.513 268.497 117.921 273.599 117.921V111.921ZM264.453 108.966C262.305 107.056 261.194 104.582 261.194 101.254H255.194C255.194 106.142 256.927 110.304 260.467 113.45L264.453 108.966ZM261.194 101.254V88.535H255.194V101.254H261.194ZM261.194 88.535C261.194 86.3629 261.719 84.5666 262.695 83.044L257.643 79.806C255.986 82.3914 255.194 85.3351 255.194 88.535H261.194ZM262.684 83.06C263.753 81.4153 265.185 80.138 267.041 79.2103L264.357 73.8437C261.578 75.2334 259.323 77.2213 257.654 79.79L262.684 83.06ZM267.017 79.2222C268.945 78.2794 271.096 77.789 273.52 77.789V71.789C270.256 71.789 267.193 72.4572 264.381 73.8318L267.017 79.2222ZM273.52 77.789C277.641 77.789 281.119 79.5298 284.096 83.4095L288.856 79.7565C284.881 74.5775 279.722 71.789 273.52 71.789V77.789ZM288.597 83.7043L288.913 83.3883L284.671 79.1457L284.355 79.4617L288.597 83.7043ZM289.135 79.3929L287.555 77.4179L282.869 81.1661L284.449 83.1411L289.135 79.3929ZM288.212 79.292C288.212 78.5694 288.408 78.4515 288.493 78.3892L284.934 73.5588C283.017 74.9712 282.212 77.0652 282.212 79.292H288.212ZM288.513 78.374C288.781 78.1729 289.663 77.789 291.769 77.789V71.789C289.241 71.789 286.752 72.1951 284.913 73.574L288.513 78.374ZM288.769 74.789V115.316H294.769V74.789H288.769ZM288.769 115.316C288.769 117.99 288.151 120.23 286.995 122.13L292.12 125.25C293.912 122.305 294.769 118.962 294.769 115.316H288.769ZM286.956 122.196C285.822 124.169 284.241 125.696 282.147 126.807L284.959 132.107C288.027 130.479 290.448 128.162 292.158 125.184L286.956 122.196ZM282.147 126.807C280.055 127.917 277.6 128.511 274.705 128.511V134.511C278.446 134.511 281.89 133.736 284.959 132.107L282.147 126.807ZM274.863 111.917C278.211 111.917 281.241 111.021 283.783 109.097L280.163 104.313C278.808 105.338 277.098 105.917 274.863 105.917V111.917ZM283.824 109.066C286.332 107.1 287.896 104.501 287.896 101.333H281.896C281.896 102.273 281.512 103.255 280.122 104.344L283.824 109.066ZM287.896 101.333V88.456H281.896V101.333H287.896ZM287.896 88.456C287.896 85.224 286.369 82.5692 283.783 80.6128L280.163 85.3972C281.475 86.3902 281.896 87.3694 281.896 88.456H287.896ZM283.815 80.6369C281.32 78.6963 278.329 77.793 275.021 77.793V83.793C277.191 83.793 278.834 84.3644 280.131 85.3731L283.815 80.6369ZM275.021 77.793C271.446 77.793 268.23 78.5952 265.774 80.6041L269.574 85.2479C270.594 84.4128 272.276 83.793 275.021 83.793V77.793ZM265.817 80.5695C263.232 82.6062 262.067 85.523 262.067 88.851H268.067C268.067 87.0176 268.64 85.9844 269.531 85.2825L265.817 80.5695ZM262.067 88.851V100.938H268.067V88.851H262.067ZM262.067 100.938C262.067 104.176 263.212 107.011 265.66 109.077L269.53 104.491C268.608 103.713 268.067 102.651 268.067 100.938H262.067ZM265.695 109.106C268.143 111.108 271.327 111.917 274.863 111.917V105.917C272.185 105.917 270.523 105.304 269.495 104.462L265.695 109.106ZM328.874 115.711H325.874V118.711H328.874V115.711ZM328.874 110.655L326.753 108.534L325.874 109.412V110.655H328.874ZM330.533 108.522L333.03 110.186L334.394 108.14L332.655 106.401L330.533 108.522ZM330.217 108.206L332.339 106.085L329.806 103.552L327.757 106.489L330.217 108.206ZM324.213 113.657L322.737 111.045L322.725 111.052L322.713 111.059L324.213 113.657ZM308.808 113.894L307.341 116.51L307.354 116.518L307.367 116.525L308.808 113.894ZM303.752 108.838L301.109 110.256L301.122 110.281L301.136 110.306L303.752 108.838ZM303.752 76.053L305.442 78.5317L305.48 78.506L305.517 78.4792L303.752 76.053ZM308.966 74.789H311.966V71.789H308.966V74.789ZM311.178 107.337L309.02 109.421L309.038 109.44L309.057 109.458L311.178 107.337ZM323.265 108.443L324.572 111.143L324.607 111.127L324.641 111.109L323.265 108.443ZM327.136 105.125L324.683 103.399L324.676 103.408L324.67 103.417L327.136 105.125ZM330.296 76.053L332.04 78.4942L332.051 78.4867L332.061 78.4792L330.296 76.053ZM335.51 74.789H338.51V71.789H335.51V74.789ZM332.51 109.865C332.51 111.246 332.136 111.762 331.868 111.998C331.528 112.298 330.711 112.711 328.874 112.711V118.711C331.462 118.711 333.963 118.149 335.835 116.501C337.779 114.788 338.51 112.382 338.51 109.865H332.51ZM331.874 115.711V110.655H325.874V115.711H331.874ZM330.996 112.776C331.673 112.099 332.353 111.202 333.03 110.186L328.037 106.858C327.45 107.738 327.024 108.263 326.753 108.534L330.996 112.776ZM332.655 106.401L332.339 106.085L328.096 110.327L328.412 110.643L332.655 106.401ZM327.757 106.489C326.436 108.383 324.772 109.895 322.737 111.045L325.69 116.269C328.5 114.68 330.839 112.558 332.678 109.923L327.757 106.489ZM322.713 111.059C320.817 112.155 318.731 112.711 316.392 112.711V118.711C319.742 118.711 322.87 117.898 325.714 116.255L322.713 111.059ZM316.392 112.711C313.987 112.711 311.966 112.203 310.249 111.263L307.367 116.525C310.075 118.008 313.11 118.711 316.392 118.711V112.711ZM310.276 111.278C308.598 110.336 307.31 109.048 306.369 107.37L301.136 110.306C302.617 112.946 304.7 115.029 307.341 116.51L310.276 111.278ZM306.396 107.42C305.493 105.737 305.014 103.81 305.014 101.57H299.014C299.014 104.702 299.694 107.62 301.109 110.256L306.396 107.42ZM305.014 101.57V79.845H299.014V101.57H305.014ZM305.014 79.845C305.014 78.8302 305.303 78.6268 305.442 78.5317L302.062 73.5743C299.885 75.0592 299.014 77.3838 299.014 79.845H305.014ZM305.517 78.4792C305.933 78.1764 306.923 77.789 308.966 77.789V71.789C306.375 71.789 303.889 72.2443 301.988 73.6268L305.517 78.4792ZM305.966 74.789V101.254H311.966V74.789H305.966ZM305.966 101.254C305.966 104.401 306.905 107.23 309.02 109.421L313.337 105.253C312.503 104.39 311.966 103.163 311.966 101.254H305.966ZM309.057 109.458C311.327 111.729 314.446 112.628 317.893 112.628V106.628C315.442 106.628 314.084 106 313.3 105.216L309.057 109.458ZM317.893 112.628C320.26 112.628 322.502 112.145 324.572 111.143L321.959 105.743C320.763 106.321 319.424 106.628 317.893 106.628V112.628ZM324.641 111.109C326.665 110.065 328.347 108.646 329.603 106.833L324.67 103.417C324.029 104.342 323.132 105.136 321.889 105.777L324.641 111.109ZM329.59 106.851C330.922 104.959 331.637 102.835 331.637 100.543H325.637C325.637 101.516 325.352 102.447 324.683 103.399L329.59 106.851ZM331.637 100.543V79.845H325.637V100.543H331.637ZM331.637 79.845C331.637 78.776 331.938 78.5668 332.04 78.4942L328.553 73.6118C326.442 75.1192 325.637 77.438 325.637 79.845H331.637ZM332.061 78.4792C332.477 78.1764 333.467 77.789 335.51 77.789V71.789C332.919 71.789 330.433 72.2443 328.532 73.6268L332.061 78.4792ZM332.51 74.789V109.865H338.51V74.789H332.51ZM349.392 112.551L347.137 114.53L347.149 114.544L347.162 114.558L349.392 112.551ZM348.207 60.253L349.95 62.6942L349.961 62.6867L349.971 62.6792L348.207 60.253ZM353.421 58.989H356.421V55.989H353.421V58.989ZM354.685 108.285L352.5 110.341L352.5 110.341L354.685 108.285ZM364.244 108.206L366.511 106.241L364.884 104.365L362.737 105.612L364.244 108.206ZM363.296 114.289L361.543 111.854L361.543 111.854L363.296 114.289ZM358.003 112.711C354.692 112.711 352.766 111.816 351.621 110.544L347.162 114.558C349.809 117.499 353.624 118.711 358.003 118.711V112.711ZM351.646 110.572C350.326 109.069 349.548 107.005 349.548 104.098H343.548C343.548 108.143 344.665 111.714 347.137 114.53L351.646 110.572ZM349.548 104.098V64.045H343.548V104.098H349.548ZM349.548 64.045C349.548 62.976 349.849 62.7668 349.95 62.6942L346.463 57.8118C344.353 59.3192 343.548 61.638 343.548 64.045H349.548ZM349.971 62.6792C350.387 62.3764 351.378 61.989 353.421 61.989V55.989C350.829 55.989 348.343 56.4443 346.442 57.8268L349.971 62.6792ZM350.421 58.989V103.861H356.421V58.989H350.421ZM350.421 103.861C350.421 106.199 350.878 108.618 352.5 110.341L356.869 106.229C356.806 106.162 356.421 105.631 356.421 103.861H350.421ZM352.5 110.341C354.167 112.113 356.568 112.628 358.872 112.628V106.628C357.278 106.628 356.887 106.248 356.869 106.229L352.5 110.341ZM358.872 112.628C361.332 112.628 363.645 112.023 365.75 110.8L362.737 105.612C361.577 106.285 360.309 106.628 358.872 106.628V112.628ZM361.977 110.171C362.185 110.411 362.271 110.633 362.271 110.971H368.271C368.271 109.202 367.672 107.581 366.511 106.241L361.977 110.171ZM362.271 110.971C362.271 111.053 362.257 111.116 362.199 111.214C362.127 111.334 361.951 111.56 361.543 111.854L365.048 116.724C366.902 115.389 368.271 113.467 368.271 110.971H362.271ZM361.543 111.854C360.893 112.322 359.81 112.711 358.003 112.711V118.711C360.62 118.711 363.065 118.152 365.048 116.724L361.543 111.854ZM375.288 60.49L373.327 58.2195L373.327 58.2195L375.288 60.49ZM380.423 58.989H383.423V55.989H380.423V58.989ZM380.423 79.766L382.68 81.7415L383.423 80.8932V79.766H380.423ZM378.685 81.978L376.188 80.3139L374.824 82.3603L376.563 84.0993L378.685 81.978ZM379.001 82.294L376.879 84.4153L379.344 86.8802L381.414 84.0756L379.001 82.294ZM385.163 76.922L386.615 79.5471L386.636 79.5354L386.657 79.5233L385.163 76.922ZM403.333 78.581L405.476 76.4821L405.476 76.4821L403.333 78.581ZM405.308 114.526L407.051 116.967L407.062 116.96L407.072 116.952L405.308 114.526ZM400.173 115.711H397.173V118.711H400.173V115.711ZM398.04 83.084L400.199 81.0016L400.199 81.0016L398.04 83.084ZM386.032 82.136L387.305 84.8524L387.323 84.844L387.34 84.8354L386.032 82.136ZM381.924 85.454L379.513 83.6683L379.507 83.6761L379.501 83.6839L381.924 85.454ZM378.685 114.526L380.428 116.967L380.439 116.96L380.449 116.952L378.685 114.526ZM373.55 115.711H370.55V118.711H373.55V115.711ZM376.55 64.835C376.55 63.5853 376.903 63.0587 377.248 62.7605L373.327 58.2195C371.355 59.9226 370.55 62.2927 370.55 64.835H376.55ZM377.248 62.7605C377.653 62.4112 378.542 61.989 380.423 61.989V55.989C377.774 55.989 375.24 56.5675 373.327 58.2195L377.248 62.7605ZM377.423 58.989V79.766H383.423V58.989H377.423ZM378.165 77.7905C377.378 78.6901 376.708 79.5351 376.188 80.3139L381.181 83.6421C381.504 83.1568 381.993 82.5272 382.68 81.7415L378.165 77.7905ZM376.563 84.0993L376.879 84.4153L381.122 80.1727L380.806 79.8567L376.563 84.0993ZM381.414 84.0756C382.783 82.2208 384.506 80.7139 386.615 79.5471L383.71 74.2969C380.869 75.8688 378.483 77.9432 376.587 80.5124L381.414 84.0756ZM386.657 79.5233C388.671 78.3665 390.84 77.789 393.221 77.789V71.789C389.808 71.789 386.605 72.6335 383.668 74.3207L386.657 79.5233ZM393.221 77.789C396.858 77.789 399.391 78.844 401.189 80.6799L405.476 76.4821C402.323 73.262 398.115 71.789 393.221 71.789V77.789ZM401.189 80.6799C403.042 82.572 404.046 85.0471 404.046 88.377H410.046C410.046 83.7015 408.574 79.646 405.476 76.4821L401.189 80.6799ZM404.046 88.377V110.655H410.046V88.377H404.046ZM404.046 110.655C404.046 111.664 403.756 111.945 403.543 112.1L407.072 116.952C409.176 115.422 410.046 113.122 410.046 110.655H404.046ZM403.564 112.085C403.214 112.335 402.26 112.711 400.173 112.711V118.711C402.72 118.711 405.189 118.297 407.051 116.967L403.564 112.085ZM403.173 115.711V89.088H397.173V115.711H403.173ZM403.173 89.088C403.173 85.975 402.28 83.1597 400.199 81.0016L395.88 85.1664C396.643 85.9576 397.173 87.145 397.173 89.088H403.173ZM400.199 81.0016C398.011 78.7327 394.93 77.872 391.562 77.872V83.872C393.987 83.872 395.224 84.486 395.88 85.1664L400.199 81.0016ZM391.562 77.872C389.164 77.872 386.872 78.3943 384.723 79.4366L387.34 84.8354C388.667 84.1924 390.062 83.872 391.562 83.872V77.872ZM384.758 79.4196C382.647 80.4094 380.878 81.8257 379.513 83.6683L384.334 87.2397C385.076 86.2383 386.046 85.4425 387.305 84.8524L384.758 79.4196ZM379.501 83.6839C378.141 85.5458 377.423 87.6621 377.423 89.957H383.423C383.423 88.9866 383.705 88.1009 384.346 87.224L379.501 83.6839ZM377.423 89.957V110.655H383.423V89.957H377.423ZM377.423 110.655C377.423 111.664 377.133 111.945 376.92 112.1L380.449 116.952C382.553 115.422 383.423 113.122 383.423 110.655H377.423ZM376.941 112.085C376.591 112.335 375.637 112.711 373.55 112.711V118.711C376.097 118.711 378.566 118.297 380.428 116.967L376.941 112.085ZM376.55 115.711V64.835H370.55V115.711H376.55ZM419.426 112.077L417.438 114.324L417.449 114.333L417.459 114.343L419.426 112.077ZM419.663 92.88L421.587 95.1812L421.6 95.171L421.612 95.1607L419.663 92.88ZM443.6 94.539L441.383 96.5603L443.5 98.8818L445.721 96.6603L443.6 94.539ZM443.916 94.223L446.037 96.3443L448.068 94.3132L446.127 92.1958L443.916 94.223ZM441.941 92.248H438.941V93.5562L439.899 94.4464L441.941 92.248ZM439.413 82.689L437.437 84.9467L439.413 82.689ZM420.374 87.034L419.032 89.7173L421.628 91.0152L423.011 88.4639L420.374 87.034ZM418.241 85.375L415.799 87.1187L415.871 87.2189L415.951 87.3128L418.241 85.375ZM419.584 79.134L421.577 81.3762L421.6 81.356L421.622 81.3353L419.584 79.134ZM425.193 75.974L424.244 73.1279L424.234 73.1312L424.225 73.1345L425.193 75.974ZM444.39 78.502L442.42 80.7649L442.43 80.7739L442.441 80.7827L444.39 78.502ZM447.155 114.447L445.281 112.104L445.281 112.104L447.155 114.447ZM442.178 115.711H439.178V118.711H442.178V115.711ZM442.178 111.998L440.008 109.927L439.178 110.796V111.998H442.178ZM443.995 109.944L446.678 111.286L447.645 109.352L446.116 107.823L443.995 109.944ZM443.679 109.628L445.8 107.507L443.492 105.199L441.386 107.693L443.679 109.628ZM439.255 108.206L437.498 105.774L437.482 105.786L437.466 105.798L439.255 108.206ZM439.334 96.751L437.501 99.1263L437.501 99.1263L439.334 96.751ZM424.64 96.751L426.531 99.0794L426.539 99.0729L424.64 96.751ZM424.561 108.285L422.633 110.584L422.673 110.617L422.714 110.649L424.561 108.285ZM430.407 112.711C426.43 112.711 423.522 111.66 421.392 109.811L417.459 114.343C420.912 117.339 425.324 118.711 430.407 118.711V112.711ZM421.413 109.83C419.374 108.026 418.318 105.686 418.318 102.518H412.318C412.318 107.25 414 111.282 417.438 114.324L421.413 109.83ZM418.318 102.518C418.318 99.3429 419.418 96.9959 421.587 95.1812L417.738 90.5788C414.114 93.6094 412.318 97.6878 412.318 102.518H418.318ZM421.612 95.1607C423.842 93.2546 426.912 92.167 431.118 92.167V86.167C425.843 86.167 421.277 87.5547 417.714 90.5993L421.612 95.1607ZM431.118 92.167C435.371 92.167 438.713 93.6323 441.383 96.5603L445.817 92.5177C441.956 88.2831 436.976 86.167 431.118 86.167V92.167ZM445.721 96.6603L446.037 96.3443L441.794 92.1017L441.478 92.4177L445.721 96.6603ZM446.127 92.1958C445.485 91.4954 444.769 90.7799 443.982 90.0496L439.899 94.4464C440.588 95.0854 441.188 95.6866 441.704 96.2502L446.127 92.1958ZM444.941 92.248V88.93H438.941V92.248H444.941ZM444.941 88.93C444.941 85.5677 443.854 82.5891 441.388 80.4313L437.437 84.9467C438.342 85.7382 438.941 86.9203 438.941 88.93H444.941ZM441.388 80.4313C438.976 78.3207 435.776 77.477 432.224 77.477V83.477C434.886 83.477 436.479 84.108 437.437 84.9467L441.388 80.4313ZM432.224 77.477C429.064 77.477 426.17 78.1029 423.661 79.4913C421.135 80.8891 419.166 82.9682 417.736 85.6041L423.011 88.4639C423.952 86.7285 425.142 85.5291 426.566 84.7412C428.007 83.9439 429.854 83.477 432.224 83.477V77.477ZM421.715 84.3507C421.217 84.1017 420.835 83.7961 420.531 83.4372L415.951 87.3128C416.805 88.3232 417.845 89.1236 419.032 89.7173L421.715 84.3507ZM420.682 83.6313C420.555 83.4539 420.498 83.3299 420.473 83.26C420.45 83.195 420.451 83.167 420.451 83.163H414.451C414.451 84.6567 414.994 85.9908 415.799 87.1187L420.682 83.6313ZM420.451 83.163C420.451 82.8614 420.568 82.2733 421.577 81.3762L417.591 76.8918C415.756 78.5227 414.451 80.6206 414.451 83.163H420.451ZM421.622 81.3353C422.666 80.3685 424.14 79.5025 426.161 78.8135L424.225 73.1345C421.611 74.0255 419.345 75.2661 417.545 76.9327L421.622 81.3353ZM426.141 78.82C428.195 78.1354 430.35 77.789 432.619 77.789V71.789C429.726 71.789 426.93 72.2326 424.244 73.1279L426.141 78.82ZM432.619 77.789C437.138 77.789 440.28 78.9018 442.42 80.7649L446.359 76.2391C442.812 73.1515 438.106 71.789 432.619 71.789V77.789ZM442.441 80.7827C444.568 82.6008 445.735 85.1341 445.735 88.772H451.735C451.735 83.6672 450.004 79.3539 446.339 76.2213L442.441 80.7827ZM445.735 88.772V110.418H451.735V88.772H445.735ZM445.735 110.418C445.735 111.705 445.385 112.021 445.281 112.104L449.029 116.79C451.031 115.188 451.735 112.818 451.735 110.418H445.735ZM445.281 112.104C445.015 112.317 444.184 112.711 442.178 112.711V118.711C444.701 118.711 447.187 118.263 449.029 116.79L445.281 112.104ZM445.178 115.711V111.998H439.178V115.711H445.178ZM444.348 114.069C444.911 113.48 445.369 112.987 445.708 112.603C445.877 112.413 446.036 112.227 446.171 112.057C446.258 111.947 446.497 111.647 446.678 111.286L441.311 108.602C441.394 108.437 441.468 108.333 441.474 108.325C441.491 108.301 441.494 108.299 441.473 108.325C441.43 108.379 441.349 108.476 441.214 108.628C440.949 108.928 440.551 109.358 440.008 109.927L444.348 114.069ZM446.116 107.823L445.8 107.507L441.557 111.749L441.873 112.065L446.116 107.823ZM441.386 107.693C438.547 111.056 434.97 112.711 430.407 112.711V118.711C436.692 118.711 441.963 116.311 445.971 111.563L441.386 107.693ZM431.592 113.26C435.238 113.26 438.505 112.5 441.044 110.614L437.466 105.798C436.317 106.651 434.476 107.26 431.592 107.26V113.26ZM441.011 110.638C443.721 108.681 445.099 105.863 445.099 102.518H439.099C439.099 104.018 438.581 104.992 437.498 105.774L441.011 110.638ZM445.099 102.518C445.099 99.2094 443.78 96.392 441.166 94.3757L437.501 99.1263C438.574 99.954 439.099 100.981 439.099 102.518H445.099ZM441.166 94.3757C438.63 92.4196 435.377 91.618 431.75 91.618V97.618C434.547 97.618 436.35 98.2384 437.501 99.1263L441.166 94.3757ZM431.75 91.618C428.289 91.618 425.171 92.4403 422.74 94.4291L426.539 99.0729C427.585 98.2177 429.206 97.618 431.75 97.618V91.618ZM422.748 94.4227C420.258 96.4457 419.112 99.2816 419.112 102.518H425.112C425.112 100.804 425.651 99.795 426.531 99.0793L422.748 94.4227ZM419.112 102.518C419.112 105.721 420.207 108.549 422.633 110.584L426.489 105.986C425.649 105.282 425.112 104.266 425.112 102.518H419.112ZM422.714 110.649C425.103 112.516 428.185 113.26 431.592 113.26V107.26C428.994 107.26 427.389 106.688 426.408 105.921L422.714 110.649ZM465.973 74.789H468.973V71.789H465.973V74.789ZM465.973 79.845L468.171 81.8864L468.973 81.0231V79.845H465.973ZM464.314 81.978L461.759 80.4057L460.517 82.4238L462.192 84.0993L464.314 81.978ZM464.63 82.294L462.508 84.4153L465.018 86.9248L467.075 84.0326L464.63 82.294ZM470.002 76.764L468.291 74.2999L468.291 74.2999L470.002 76.764ZM486.434 81.662L483.64 82.754L485.756 88.1703L488.943 83.3061L486.434 81.662ZM507.053 78.581L504.701 80.4431L504.722 80.4702L504.744 80.4967L507.053 78.581ZM508.396 114.526L510.139 116.967L510.15 116.96L510.16 116.952L508.396 114.526ZM503.34 115.711H500.34V118.711H503.34V115.711ZM501.76 82.847L499.349 84.6327L499.349 84.6327L501.76 82.847ZM490.7 83.163L492.752 85.3516L492.769 85.3348L492.787 85.3177L490.7 83.163ZM486.513 114.526L488.256 116.967L488.294 116.94L488.331 116.912L486.513 114.526ZM481.457 115.711H478.457V118.711H481.457V115.711ZM479.877 82.847L482.287 81.0613L482.287 81.0613L479.877 82.847ZM468.738 83.321L470.891 85.4094L468.738 83.321ZM464.472 114.526L466.215 116.967L466.226 116.96L466.236 116.952L464.472 114.526ZM459.416 115.711H456.416V118.711H459.416V115.711ZM462.416 80.635C462.416 79.2436 462.79 78.7228 463.051 78.4897C463.378 78.1983 464.17 77.789 465.973 77.789V71.789C463.404 71.789 460.917 72.3541 459.059 74.0113C457.134 75.7269 456.416 78.1291 456.416 80.635H462.416ZM462.973 74.789V79.845H468.973V74.789H462.973ZM463.774 77.8036C462.988 78.651 462.305 79.5177 461.759 80.4057L466.869 83.5503C467.165 83.0689 467.589 82.5137 468.171 81.8864L463.774 77.8036ZM462.192 84.0993L462.508 84.4153L466.751 80.1727L466.435 79.8567L462.192 84.0993ZM467.075 84.0326C468.609 81.8747 470.165 80.3033 471.713 79.2281L468.291 74.2999C466.047 75.858 464.021 77.9732 462.185 80.5554L467.075 84.0326ZM471.713 79.2281C473.07 78.286 474.648 77.789 476.559 77.789V71.789C473.518 71.789 470.726 72.6086 468.291 74.2999L471.713 79.2281ZM476.559 77.789C478.464 77.789 479.857 78.2379 480.908 78.9696C481.965 79.7053 482.911 80.8902 483.64 82.754L489.228 80.57C488.166 77.8518 486.57 75.6002 484.336 74.0449C482.095 72.4856 479.446 71.789 476.559 71.789V77.789ZM488.943 83.3061C491.453 79.4751 494.559 77.789 498.442 77.789V71.789C492.318 71.789 487.418 74.6849 483.924 80.0179L488.943 83.3061ZM498.442 77.789C501.429 77.789 503.363 78.7538 504.701 80.4431L509.405 76.7189C506.74 73.3522 502.933 71.789 498.442 71.789V77.789ZM504.744 80.4967C506.245 82.3054 507.134 84.8343 507.134 88.377H513.134C513.134 83.8091 511.969 79.8073 509.361 76.6653L504.744 80.4967ZM507.134 88.377V110.655H513.134V88.377H507.134ZM507.134 110.655C507.134 111.664 506.844 111.945 506.631 112.1L510.16 116.952C512.264 115.422 513.134 113.122 513.134 110.655H507.134ZM506.652 112.085C506.294 112.341 505.356 112.711 503.34 112.711V118.711C505.853 118.711 508.286 118.291 510.139 116.967L506.652 112.085ZM506.34 115.711V88.772H500.34V115.711H506.34ZM506.34 88.772C506.34 85.8675 505.739 83.1794 504.17 81.0613L499.349 84.6327C499.887 85.3586 500.34 86.6205 500.34 88.772H506.34ZM504.17 81.0613C502.397 78.6671 499.705 77.714 496.783 77.714V83.714C498.39 83.714 499.016 84.1829 499.349 84.6327L504.17 81.0613ZM496.783 77.714C493.642 77.714 490.864 78.8274 488.612 81.0083L492.787 85.3177C493.907 84.2332 495.183 83.714 496.783 83.714V77.714ZM488.648 80.9744C486.258 83.215 485.172 86.1941 485.172 89.562H491.172C491.172 87.5579 491.771 86.271 492.752 85.3516L488.648 80.9744ZM485.172 89.562V110.655H491.172V89.562H485.172ZM485.172 110.655C485.172 111.716 484.872 112.005 484.695 112.14L488.331 116.912C490.366 115.362 491.172 113.07 491.172 110.655H485.172ZM484.769 112.085C484.411 112.341 483.473 112.711 481.457 112.711V118.711C483.97 118.711 486.403 118.291 488.256 116.967L484.769 112.085ZM484.457 115.711V88.772H478.457V115.711H484.457ZM484.457 88.772C484.457 85.8675 483.856 83.1794 482.287 81.0613L477.466 84.6327C478.004 85.3586 478.457 86.6205 478.457 88.772H484.457ZM482.287 81.0613C480.514 78.6671 477.822 77.714 474.9 77.714V83.714C476.507 83.714 477.133 84.1829 477.466 84.6327L482.287 81.0613ZM474.9 77.714C471.666 77.714 468.835 78.9114 466.584 81.2326L470.891 85.4094C472.011 84.2546 473.288 83.714 474.9 83.714V77.714ZM466.584 81.2326C464.33 83.5571 463.21 86.4506 463.21 89.72H469.21C469.21 87.9334 469.775 86.5608 470.891 85.4094L466.584 81.2326ZM463.21 89.72V110.655H469.21V89.72H463.21ZM463.21 110.655C463.21 111.664 462.92 111.945 462.707 112.1L466.236 116.952C468.34 115.422 469.21 113.122 469.21 110.655H463.21ZM462.728 112.085C462.37 112.341 461.432 112.711 459.416 112.711V118.711C461.929 118.711 464.362 118.291 466.215 116.967L462.728 112.085ZM462.416 115.711V80.635H456.416V115.711H462.416ZM527.708 113.894L526.367 116.577L526.389 116.589L526.412 116.599L527.708 113.894ZM521.783 108.759L519.26 110.381L519.269 110.395L519.278 110.409L521.783 108.759ZM521.862 82.057L519.375 80.3796L519.361 80.3997L519.348 80.42L521.862 82.057ZM527.945 76.764L529.287 79.4473L529.298 79.4418L529.309 79.4363L527.945 76.764ZM544.535 76.685L543.171 79.3568L543.182 79.3626L543.194 79.3683L544.535 76.685ZM550.46 81.899L547.937 83.5213L547.95 83.5423L547.964 83.5631L550.46 81.899ZM551.724 96.593L553.751 98.8045L553.751 98.8045L551.724 96.593ZM526.365 97.462V94.462H523.365V97.462H526.365ZM528.893 107.495L526.806 109.65L526.822 109.666L526.839 109.682L528.893 107.495ZM546.194 102.044L545.995 99.0506L543.194 99.2373V102.044H546.194ZM550.144 102.992L548.424 105.45L548.493 105.498L548.565 105.543L550.144 102.992ZM549.591 110.813L547.47 108.692L547.451 108.711L547.432 108.731L549.591 110.813ZM543.903 114.368L542.843 111.562L542.843 111.562L543.903 114.368ZM546.273 92.09V95.09H549.273V92.09H546.273ZM543.508 83.005L541.452 85.1896L541.485 85.2207L541.519 85.2508L543.508 83.005ZM529.051 83.005L531.072 85.2219L531.075 85.2191L529.051 83.005ZM526.365 92.09H523.365V95.09H526.365V92.09ZM536.319 112.711C533.49 112.711 531.073 112.18 529.005 111.189L526.412 116.599C529.4 118.031 532.723 118.711 536.319 118.711V112.711ZM529.05 111.211C526.949 110.16 525.394 108.787 524.289 107.109L519.278 110.409C521.017 113.05 523.412 115.1 526.367 116.577L529.05 111.211ZM524.307 107.137C523.209 105.429 522.65 103.522 522.65 101.333H516.65C516.65 104.622 517.513 107.665 519.26 110.381L524.307 107.137ZM522.65 101.333V89.641H516.65V101.333H522.65ZM522.65 89.641C522.65 87.4107 523.229 85.455 524.376 83.694L519.348 80.42C517.545 83.1884 516.65 86.2886 516.65 89.641H522.65ZM524.349 83.7344C525.578 81.9133 527.204 80.4886 529.287 79.4473L526.604 74.0807C523.63 75.5674 521.201 77.6713 519.375 80.3796L524.349 83.7344ZM529.309 79.4363C531.452 78.3429 533.773 77.789 536.319 77.789V71.789C532.861 71.789 529.6 72.5517 526.582 74.0917L529.309 79.4363ZM536.319 77.789C538.886 77.789 541.151 78.3255 543.171 79.3568L545.899 74.0132C542.968 72.5165 539.757 71.789 536.319 71.789V77.789ZM543.194 79.3683C545.277 80.4099 546.828 81.7966 547.937 83.5213L552.984 80.2767C551.248 77.5774 548.85 75.4881 545.877 74.0017L543.194 79.3683ZM547.964 83.5631C549.093 85.2569 549.672 87.1737 549.672 89.404H555.672C555.672 86.0516 554.776 82.9651 552.956 80.2349L547.964 83.5631ZM549.672 89.404V94.46H555.672V89.404H549.672ZM549.672 94.46C549.672 94.4824 549.67 94.4839 549.673 94.4694C549.676 94.4542 549.683 94.4318 549.694 94.4068C549.705 94.3819 549.716 94.365 549.721 94.3576C549.726 94.3508 549.721 94.3595 549.697 94.3815L553.751 98.8045C554.991 97.6682 555.672 96.1601 555.672 94.46H549.672ZM549.697 94.3815C549.647 94.427 549.622 94.4365 549.613 94.4398C549.603 94.4438 549.552 94.462 549.433 94.462V100.462C551.042 100.462 552.54 99.9152 553.751 98.8045L549.697 94.3815ZM549.433 94.462H526.365V100.462H549.433V94.462ZM523.365 97.462V101.017H529.365V97.462H523.365ZM523.365 101.017C523.365 104.387 524.451 107.369 526.806 109.65L530.981 105.34C529.965 104.356 529.365 103.019 529.365 101.017H523.365ZM526.839 109.682C529.303 111.996 532.614 112.944 536.319 112.944V106.944C533.599 106.944 531.959 106.259 530.947 105.308L526.839 109.682ZM536.319 112.944C539.924 112.944 543.174 112.151 545.601 110.104L541.732 105.518C540.788 106.315 539.139 106.944 536.319 106.944V112.944ZM545.601 110.104C548.034 108.051 549.194 105.252 549.194 102.044H543.194C543.194 103.681 542.669 104.727 541.732 105.518L545.601 110.104ZM546.394 105.037C547.454 104.967 548.051 105.189 548.424 105.45L551.865 100.534C550.131 99.3206 548.094 98.9107 545.995 99.0506L546.394 105.037ZM548.565 105.543C548.651 105.596 548.695 105.636 548.716 105.658C548.735 105.678 548.743 105.69 548.747 105.698C548.75 105.704 548.803 105.798 548.803 106.073H554.803C554.803 103.731 553.768 101.707 551.723 100.441L548.565 105.543ZM548.803 106.073C548.803 106.783 548.523 107.638 547.47 108.692L551.712 112.934C553.608 111.039 554.803 108.734 554.803 106.073H548.803ZM547.432 108.731C546.382 109.819 544.893 110.787 542.843 111.562L544.963 117.174C547.653 116.158 549.956 114.756 551.751 112.895L547.432 108.731ZM542.843 111.562C540.832 112.321 538.665 112.711 536.319 112.711V118.711C539.345 118.711 542.235 118.205 544.963 117.174L542.843 111.562ZM549.273 92.09V89.404H543.273V92.09H549.273ZM549.273 89.404C549.273 85.9792 548.032 83.0045 545.497 80.7592L541.519 85.2508C542.671 86.2709 543.273 87.5621 543.273 89.404H549.273ZM545.564 80.8204C543.1 78.5009 539.907 77.477 536.319 77.477V83.477C538.735 83.477 540.335 84.1384 541.452 85.1896L545.564 80.8204ZM536.319 77.477C532.728 77.477 529.531 78.5017 527.027 80.7909L531.075 85.2191C532.258 84.1376 533.907 83.477 536.319 83.477V77.477ZM527.03 80.7881C524.558 83.0422 523.365 86.0088 523.365 89.404H529.365C529.365 87.5325 529.963 86.2332 531.072 85.2219L527.03 80.7881ZM523.365 89.404V92.09H529.365V89.404H523.365ZM526.365 95.09H546.273V89.09H526.365V95.09ZM568.428 74.789H571.428V71.789H568.428V74.789ZM568.428 79.845L570.549 81.9663L571.428 81.0876V79.845H568.428ZM566.769 81.978L564.273 80.3139L562.908 82.3603L564.647 84.0993L566.769 81.978ZM567.085 82.294L564.963 84.4153L567.468 86.9194L569.526 84.0377L567.085 82.294ZM573.247 76.922L574.676 79.5599L574.697 79.5485L574.718 79.5367L573.247 76.922ZM591.575 78.581L593.718 76.4821L593.718 76.4821L591.575 78.581ZM593.55 114.526L595.293 116.967L595.304 116.96L595.314 116.952L593.55 114.526ZM588.415 115.711H585.415V118.711H588.415V115.711ZM586.282 83.084L588.441 81.0016L588.441 81.0016L586.282 83.084ZM574.274 82.136L575.547 84.8524L575.565 84.844L575.583 84.8354L574.274 82.136ZM570.166 85.454L567.755 83.6683L567.749 83.6761L567.744 83.6839L570.166 85.454ZM566.927 114.526L568.67 116.967L568.681 116.96L568.691 116.952L566.927 114.526ZM561.792 115.711H558.792V118.711H561.792V115.711ZM564.792 80.635C564.792 79.2544 565.166 78.7375 565.434 78.5016C565.774 78.2017 566.591 77.789 568.428 77.789V71.789C565.84 71.789 563.339 72.3506 561.468 73.9994C559.523 75.7121 558.792 78.1182 558.792 80.635H564.792ZM565.428 74.789V79.845H571.428V74.789H565.428ZM566.306 77.7237C565.629 78.4008 564.95 79.2984 564.273 80.3139L569.265 83.6421C569.852 82.7616 570.278 82.2372 570.549 81.9663L566.306 77.7237ZM564.647 84.0993L564.963 84.4153L569.206 80.1727L568.89 79.8567L564.647 84.0993ZM569.526 84.0377C570.826 82.2182 572.525 80.7248 574.676 79.5599L571.818 74.2841C568.913 75.8578 566.504 77.9458 564.644 80.5503L569.526 84.0377ZM574.718 79.5367C576.789 78.3717 579.02 77.789 581.463 77.789V71.789C578.007 71.789 574.761 72.6283 571.776 74.3073L574.718 79.5367ZM581.463 77.789C585.1 77.789 587.634 78.844 589.431 80.6799L593.718 76.4821C590.565 73.262 586.357 71.789 581.463 71.789V77.789ZM589.431 80.6799C591.284 82.572 592.288 85.0471 592.288 88.377H598.288C598.288 83.7015 596.816 79.646 593.718 76.4821L589.431 80.6799ZM592.288 88.377V110.655H598.288V88.377H592.288ZM592.288 110.655C592.288 111.664 591.998 111.945 591.785 112.1L595.314 116.952C597.418 115.422 598.288 113.122 598.288 110.655H592.288ZM591.806 112.085C591.456 112.335 590.502 112.711 588.415 112.711V118.711C590.962 118.711 593.431 118.297 595.293 116.967L591.806 112.085ZM591.415 115.711V89.088H585.415V115.711H591.415ZM591.415 89.088C591.415 85.975 590.522 83.1597 588.441 81.0016L584.122 85.1664C584.885 85.9576 585.415 87.145 585.415 89.088H591.415ZM588.441 81.0016C586.253 78.7327 583.172 77.872 579.804 77.872V83.872C582.229 83.872 583.466 84.486 584.122 85.1664L588.441 81.0016ZM579.804 77.872C577.406 77.872 575.115 78.3943 572.965 79.4366L575.583 84.8354C576.909 84.1924 578.304 83.872 579.804 83.872V77.872ZM573 79.4196C570.889 80.4094 569.12 81.8257 567.755 83.6683L572.576 87.2397C573.318 86.2383 574.288 85.4425 575.547 84.8524L573 79.4196ZM567.744 83.6839C566.383 85.5458 565.665 87.6621 565.665 89.957H571.665C571.665 88.9866 571.947 88.1009 572.588 87.224L567.744 83.6839ZM565.665 89.957V110.655H571.665V89.957H565.665ZM565.665 110.655C565.665 111.664 565.375 111.945 565.162 112.1L568.691 116.952C570.795 115.422 571.665 113.122 571.665 110.655H565.665ZM565.183 112.085C564.833 112.335 563.879 112.711 561.792 112.711V118.711C564.339 118.711 566.808 118.297 568.67 116.967L565.183 112.085ZM564.792 115.711V80.635H558.792V115.711H564.792ZM612.882 112.551L610.6 114.499L610.612 114.513L610.624 114.527L612.882 112.551ZM610.117 81.03H613.117V78.03H610.117V81.03ZM602.77 81.03H599.77V84.03H602.77V81.03ZM603.955 76.922L601.65 75.0014L601.65 75.0014L603.955 76.922ZM610.196 75.5V78.5H613.196V75.5H610.196ZM611.855 64.203L613.599 66.6442L613.609 66.6367L613.619 66.6292L611.855 64.203ZM616.99 62.939H619.99V59.939H616.99V62.939ZM616.99 75.5H613.99V78.5H616.99V75.5ZM627.497 75.5H630.497V72.5H627.497V75.5ZM617.069 81.03V78.03H614.069V81.03H617.069ZM618.175 108.364L615.859 110.271L615.92 110.346L615.986 110.416L618.175 108.364ZM627.576 108.206L629.697 106.085L628.065 104.453L626.069 105.612L627.576 108.206ZM626.628 114.289L624.875 111.854L624.875 111.854L626.628 114.289ZM621.256 112.711C618.075 112.711 616.239 111.831 615.14 110.575L610.624 114.527C613.212 117.484 616.958 118.711 621.256 118.711V112.711ZM615.164 110.603C613.882 109.101 613.117 107.026 613.117 104.098H607.117C607.117 108.122 608.196 111.682 610.6 114.499L615.164 110.603ZM613.117 104.098V81.03H607.117V104.098H613.117ZM610.117 78.03H602.77V84.03H610.117V78.03ZM605.77 81.03C605.77 79.6323 606.083 79.0541 606.26 78.8426L601.65 75.0014C600.247 76.6859 599.77 78.8463 599.77 81.03H605.77ZM606.26 78.8426C606.413 78.659 606.605 78.5 607.194 78.5V72.5C605.045 72.5 603.077 73.289 601.65 75.0014L606.26 78.8426ZM607.194 78.5H610.196V72.5H607.194V78.5ZM613.196 75.5V67.995H607.196V75.5H613.196ZM613.196 67.995C613.196 66.926 613.497 66.7168 613.599 66.6442L610.111 61.7618C608.001 63.2692 607.196 65.588 607.196 67.995H613.196ZM613.619 66.6292C614.045 66.3197 615.018 65.939 616.99 65.939V59.939C614.433 59.939 611.982 60.4009 610.09 61.7768L613.619 66.6292ZM613.99 62.939V75.5H619.99V62.939H613.99ZM616.99 78.5H627.497V72.5H616.99V78.5ZM624.497 75.5C624.497 76.9544 624.163 77.485 624.023 77.6406C623.937 77.7361 623.63 78.03 622.52 78.03V84.03C624.728 84.03 626.909 83.4022 628.483 81.6544C630.001 79.9667 630.497 77.7323 630.497 75.5H624.497ZM622.52 78.03H617.069V84.03H622.52V78.03ZM614.069 81.03V103.861H620.069V81.03H614.069ZM614.069 103.861C614.069 106.16 614.44 108.548 615.859 110.271L620.491 106.457C620.435 106.389 620.069 105.775 620.069 103.861H614.069ZM615.986 110.416C617.641 112.181 620.101 112.628 622.362 112.628V106.628C621.554 106.628 621.015 106.541 620.681 106.44C620.358 106.342 620.315 106.26 620.363 106.312L615.986 110.416ZM622.362 112.628C624.748 112.628 627.004 112.007 629.082 110.8L626.069 105.612C624.883 106.301 623.663 106.628 622.362 106.628V112.628ZM625.455 110.327C625.468 110.341 625.603 110.44 625.603 110.971H631.603C631.603 109.184 631.053 107.44 629.697 106.085L625.455 110.327ZM625.603 110.971C625.603 111.053 625.589 111.116 625.531 111.214C625.46 111.334 625.283 111.56 624.875 111.854L628.381 116.724C630.235 115.389 631.603 113.467 631.603 110.971H625.603ZM624.875 111.854C624.235 112.315 623.134 112.711 621.256 112.711V118.711C623.908 118.711 626.387 118.159 628.381 116.724L624.875 111.854ZM641.169 113.894L639.895 116.61L639.905 116.615L639.916 116.619L641.169 113.894ZM635.086 108.996L632.6 110.674L632.624 110.71L632.649 110.746L635.086 108.996ZM635.086 81.82L632.609 80.1281L632.595 80.149L632.581 80.17L635.086 81.82ZM641.169 76.685L639.85 73.9908L639.85 73.9908L641.169 76.685ZM658.707 76.685L657.388 79.3792L657.399 79.3844L657.409 79.3896L658.707 76.685ZM664.79 81.82L662.285 83.47L662.299 83.491L662.313 83.5119L664.79 81.82ZM664.79 108.996L667.227 110.746L667.238 110.731L667.248 110.716L664.79 108.996ZM658.707 113.894L657.433 111.178L658.707 113.894ZM657.443 107.574L659.318 109.917L659.325 109.91L657.443 107.574ZM657.443 83.084L655.491 85.3618L655.507 85.3753L655.523 85.3887L657.443 83.084ZM642.433 83.084L640.513 80.7793L640.513 80.7793L642.433 83.084ZM642.354 107.574L640.44 109.884L640.476 109.914L640.513 109.942L642.354 107.574ZM649.938 112.711C647.111 112.711 644.622 112.18 642.423 111.169L639.916 116.619C642.983 118.03 646.34 118.711 649.938 118.711V112.711ZM642.444 111.178C640.267 110.156 638.663 108.834 637.523 107.246L632.649 110.746C634.459 113.266 636.911 115.209 639.895 116.61L642.444 111.178ZM637.573 107.318C636.491 105.715 635.953 103.957 635.953 101.965H629.953C629.953 105.134 630.838 108.064 632.6 110.674L637.573 107.318ZM635.953 101.965V89.009H629.953V101.965H635.953ZM635.953 89.009C635.953 86.9506 636.499 85.1299 637.592 83.47L632.581 80.17C630.83 82.8287 629.953 85.8007 629.953 89.009H635.953ZM637.564 83.5119C638.717 81.8227 640.327 80.4381 642.489 79.3792L639.85 73.9908C636.85 75.4599 634.405 77.4986 632.609 80.1281L637.564 83.5119ZM642.489 79.3792C644.606 78.3423 647.068 77.789 649.938 77.789V71.789C646.278 71.789 642.894 72.4997 639.85 73.9908L642.489 79.3792ZM649.938 77.789C652.809 77.789 655.271 78.3423 657.388 79.3792L660.027 73.9908C656.983 72.4997 653.599 71.789 649.938 71.789V77.789ZM657.409 79.3896C659.617 80.4493 661.2 81.8219 662.285 83.47L667.296 80.17C665.537 77.4994 663.064 75.4487 660.006 73.9804L657.409 79.3896ZM662.313 83.5119C663.445 85.1689 664.002 86.9748 664.002 89.009H670.002C670.002 85.7765 669.086 82.7897 667.268 80.1281L662.313 83.5119ZM664.002 89.009V101.965H670.002V89.009H664.002ZM664.002 101.965C664.002 103.933 663.453 105.675 662.333 107.276L667.248 110.716C669.077 108.104 670.002 105.159 670.002 101.965H664.002ZM662.353 107.246C661.214 108.834 659.61 110.156 657.433 111.178L659.982 116.61C662.966 115.209 665.418 113.266 667.227 110.746L662.353 107.246ZM657.433 111.178C655.305 112.177 652.827 112.711 649.938 112.711V118.711C653.58 118.711 656.948 118.034 659.982 116.61L657.433 111.178ZM649.938 112.786C653.549 112.786 656.786 111.941 659.318 109.917L655.569 105.231C654.414 106.156 652.648 106.786 649.938 106.786V112.786ZM659.325 109.91C661.924 107.817 663.287 104.985 663.287 101.649H657.287C657.287 103.159 656.755 104.277 655.561 105.238L659.325 109.91ZM663.287 101.649V89.246H657.287V101.649H663.287ZM663.287 89.246C663.287 85.8526 661.963 82.9451 659.364 80.7793L655.523 85.3887C656.716 86.3829 657.287 87.5834 657.287 89.246H663.287ZM659.396 80.8062C656.862 78.6346 653.595 77.714 649.938 77.714V83.714C652.602 83.714 654.338 84.3734 655.491 85.3618L659.396 80.8062ZM649.938 77.714C646.316 77.714 643.076 78.6436 640.513 80.7793L644.354 85.3887C645.583 84.3644 647.346 83.714 649.938 83.714V77.714ZM640.513 80.7793C637.914 82.9451 636.589 85.8526 636.589 89.246H642.589C642.589 87.5834 643.161 86.3829 644.354 85.3887L640.513 80.7793ZM636.589 89.246V101.649H642.589V89.246H636.589ZM636.589 101.649C636.589 104.953 637.9 107.779 640.44 109.884L644.268 105.264C643.123 104.314 642.589 103.191 642.589 101.649H636.589ZM640.513 109.942C643.081 111.939 646.322 112.786 649.938 112.786V106.786C647.235 106.786 645.42 106.158 644.196 105.206L640.513 109.942Z" fill="white" fill-opacity="0.89" mask="url(#path-2-outside-1_9_2)"/>
</svg>
