<svg width="696" height="181" viewBox="0 0 696 181" fill="none" xmlns="http://www.w3.org/2000/svg">
<path d="M0 0H696V98C696 143.84 658.84 181 613 181H0V0Z" fill="black" fill-opacity="0.35"/>
<mask id="path-2-outside-1_9_2" maskUnits="userSpaceOnUse" x="118" y="22" width="437" height="119" fill="black">
<rect fill="white" x="118" y="22" width="437" height="119"/>
<path d="M164.284 137.332C156.095 137.332 148.744 135.753 142.232 132.596C135.819 129.34 130.787 124.9 127.136 119.276C123.485 113.553 121.66 107.239 121.66 100.332V67.772C121.66 60.8653 123.485 54.6493 127.136 49.124C130.787 43.5 135.819 39.1093 142.232 35.952C148.744 32.696 156.095 31.068 164.284 31.068C172.572 31.068 179.923 32.696 186.336 35.952C192.848 39.1093 197.929 43.5 201.58 49.124C205.231 54.6493 207.056 60.8653 207.056 67.772V100.332C207.056 107.239 205.231 113.553 201.58 119.276C197.929 124.9 192.848 129.34 186.336 132.596C179.824 135.753 172.473 137.332 164.284 137.332ZM164.284 125.196C173.46 125.196 180.613 122.927 185.744 118.388C190.875 113.849 193.44 107.781 193.44 100.184V68.068C193.44 60.4707 190.875 54.452 185.744 50.012C180.613 45.4733 173.46 43.204 164.284 43.204C155.207 43.204 148.103 45.4733 142.972 50.012C137.841 54.452 135.276 60.4707 135.276 68.068V100.184C135.276 107.781 137.841 113.849 142.972 118.388C148.103 122.927 155.207 125.196 164.284 125.196ZM220.5 136C218.921 136 217.638 135.457 216.652 134.372C215.665 133.188 215.172 131.856 215.172 130.376C215.172 129.192 215.566 128.107 216.356 127.12L264.456 68.66L263.864 68.216L260.312 72.212H225.976C223.114 72.212 220.894 71.2747 219.316 69.4C217.836 67.5253 217.096 65.0587 217.096 62H272.744C274.421 62 275.704 62.4933 276.592 63.48C277.578 64.4667 278.072 65.7 278.072 67.18C278.072 68.5613 277.628 69.844 276.74 71.028L228.936 129.044L229.676 129.636L232.932 125.788H269.636C272.497 125.788 274.668 126.725 276.148 128.6C277.726 130.475 278.516 132.941 278.516 136H220.5ZM323.593 137.332C317.575 137.332 312.099 136.197 307.165 133.928C302.331 131.659 298.532 128.6 295.769 124.752C293.105 120.805 291.773 116.415 291.773 111.58V87.308C291.773 82.3747 293.105 77.8853 295.769 73.84C298.532 69.7947 302.331 66.588 307.165 64.22C312 61.852 317.476 60.668 323.593 60.668C329.711 60.668 335.187 61.852 340.021 64.22C344.955 66.588 348.753 69.7947 351.417 73.84C354.18 77.8853 355.561 82.3747 355.561 87.308V111.58C355.561 116.415 354.18 120.805 351.417 124.752C348.655 128.6 344.856 131.659 340.021 133.928C335.187 136.197 329.711 137.332 323.593 137.332ZM323.593 126.232C329.513 126.232 334.2 124.851 337.653 122.088C341.205 119.227 342.981 115.527 342.981 110.988V87.752C342.981 83.016 341.205 79.168 337.653 76.208C334.2 73.248 329.513 71.768 323.593 71.768C317.772 71.768 313.085 73.248 309.533 76.208C305.981 79.168 304.205 83.016 304.205 87.752V110.988C304.205 115.527 305.932 119.227 309.385 122.088C312.937 124.851 317.673 126.232 323.593 126.232ZM312.345 50.012C311.655 50.8013 310.767 51.4427 309.681 51.936C308.596 52.3307 307.461 52.528 306.277 52.528C304.699 52.528 303.219 52.232 301.837 51.64C300.555 50.9493 299.469 50.012 298.581 48.828L319.449 27.072C320.535 25.7893 321.965 25.148 323.741 25.148C325.517 25.148 326.948 25.7893 328.033 27.072L348.901 48.828C348.013 50.012 346.879 50.9493 345.497 51.64C344.215 52.232 342.784 52.528 341.205 52.528C340.021 52.528 338.887 52.3307 337.801 51.936C336.716 51.4427 335.828 50.8013 335.137 50.012L323.741 36.396L312.345 50.012ZM372.653 71.62C372.653 64.3187 376.797 60.668 385.085 60.668V70.14C384.197 71.028 383.161 72.36 381.977 74.136L382.569 74.728C385.529 70.584 389.377 67.2293 394.113 64.664C398.849 62 403.98 60.668 409.505 60.668C417.497 60.668 423.812 63.036 428.449 67.772C433.086 72.508 435.405 78.6253 435.405 86.124V127.86C435.405 131.116 434.32 133.533 432.149 135.112C430.077 136.592 426.87 137.332 422.529 137.332V87.456C422.529 82.72 421.197 78.9707 418.533 76.208C415.869 73.4453 411.824 72.064 406.397 72.064C402.746 72.064 399.293 72.8533 396.037 74.432C392.88 75.912 390.314 77.984 388.341 80.648C386.466 83.2133 385.529 86.0253 385.529 89.084V127.86C385.529 131.116 384.444 133.533 382.273 135.112C380.201 136.592 376.994 137.332 372.653 137.332V71.62ZM464.37 49.568C461.608 49.568 459.289 48.68 457.414 46.904C455.54 45.128 454.602 42.908 454.602 40.244C454.602 37.58 455.54 35.4093 457.414 33.732C459.289 31.956 461.608 31.068 464.37 31.068C467.034 31.068 469.304 31.956 471.178 33.732C473.053 35.4093 473.99 37.58 473.99 40.244C473.99 42.908 473.053 45.128 471.178 46.904C469.304 48.68 467.034 49.568 464.37 49.568ZM457.858 70.14C457.858 66.884 458.894 64.516 460.966 63.036C463.137 61.4573 466.393 60.668 470.734 60.668V127.86C470.734 131.116 469.649 133.533 467.478 135.112C465.406 136.592 462.2 137.332 457.858 137.332V70.14ZM519.144 137.332C513.125 137.332 507.649 136.197 502.716 133.928C497.881 131.659 494.083 128.6 491.32 124.752C488.656 120.805 487.324 116.415 487.324 111.58V87.308C487.324 82.3747 488.656 77.8853 491.32 73.84C494.083 69.7947 497.881 66.588 502.716 64.22C507.551 61.852 513.027 60.668 519.144 60.668C525.261 60.668 530.737 61.852 535.572 64.22C540.505 66.588 544.304 69.7947 546.968 73.84C549.731 77.8853 551.112 82.3747 551.112 87.308V111.58C551.112 116.415 549.731 120.805 546.968 124.752C544.205 128.6 540.407 131.659 535.572 133.928C530.737 136.197 525.261 137.332 519.144 137.332ZM519.144 126.232C525.064 126.232 529.751 124.851 533.204 122.088C536.756 119.227 538.532 115.527 538.532 110.988V87.752C538.532 83.016 536.756 79.168 533.204 76.208C529.751 73.248 525.064 71.768 519.144 71.768C513.323 71.768 508.636 73.248 505.084 76.208C501.532 79.168 499.756 83.016 499.756 87.752V110.988C499.756 115.527 501.483 119.227 504.936 122.088C508.488 124.851 513.224 126.232 519.144 126.232Z"/>
</mask>
<path d="M142.232 132.596L140.874 135.271L140.898 135.283L140.923 135.295L142.232 132.596ZM127.136 119.276L124.607 120.889L124.613 120.899L124.62 120.909L127.136 119.276ZM127.136 49.124L129.639 50.7778L129.646 50.7676L129.652 50.7574L127.136 49.124ZM142.232 35.952L143.557 38.6435L143.565 38.6394L143.574 38.6353L142.232 35.952ZM186.336 35.952L184.978 38.627L185.002 38.6394L185.027 38.6514L186.336 35.952ZM201.58 49.124L199.064 50.7574L199.07 50.7676L199.077 50.7778L201.58 49.124ZM201.58 119.276L204.096 120.909L204.103 120.899L204.109 120.889L201.58 119.276ZM186.336 132.596L187.645 135.295L187.661 135.287L187.678 135.279L186.336 132.596ZM185.744 118.388L183.756 116.141L183.756 116.141L185.744 118.388ZM185.744 50.012L183.756 52.259L183.769 52.2698L183.781 52.2805L185.744 50.012ZM142.972 50.012L144.935 52.2805L144.947 52.2698L144.96 52.259L142.972 50.012ZM142.972 118.388L140.984 120.635L140.984 120.635L142.972 118.388ZM164.284 134.332C156.488 134.332 149.594 132.831 143.541 129.897L140.923 135.295C147.894 138.675 155.701 140.332 164.284 140.332V134.332ZM143.59 129.921C137.612 126.886 132.994 122.791 129.652 117.643L124.62 120.909C128.579 127.009 134.025 131.794 140.874 135.271L143.59 129.921ZM129.665 117.663C126.328 112.431 124.66 106.678 124.66 100.332H118.66C118.66 107.8 120.643 114.676 124.607 120.889L129.665 117.663ZM124.66 100.332V67.772H118.66V100.332H124.66ZM124.66 67.772C124.66 61.4267 126.327 55.7907 129.639 50.7778L124.633 47.4702C120.644 53.508 118.66 60.3039 118.66 67.772H124.66ZM129.652 50.7574C132.989 45.6172 137.596 41.5784 143.557 38.6435L140.907 33.2605C134.042 36.6403 128.584 41.3828 124.62 47.4906L129.652 50.7574ZM143.574 38.6353C149.62 35.6123 156.502 34.068 164.284 34.068V28.068C155.688 28.068 147.868 29.7797 140.89 33.2687L143.574 38.6353ZM164.284 34.068C172.172 34.068 179.045 35.6151 184.978 38.627L187.694 33.277C180.8 29.7769 172.972 28.068 164.284 28.068V34.068ZM185.027 38.6514C191.088 41.5898 195.734 45.6285 199.064 50.7574L204.096 47.4906C200.124 41.3715 194.608 36.6289 187.645 33.2525L185.027 38.6514ZM199.077 50.7778C202.389 55.7907 204.056 61.4267 204.056 67.772H210.056C210.056 60.3039 208.072 53.508 204.083 47.4702L199.077 50.7778ZM204.056 67.772V100.332H210.056V67.772H204.056ZM204.056 100.332C204.056 106.678 202.388 112.431 199.051 117.663L204.109 120.889C208.073 114.676 210.056 107.8 210.056 100.332H204.056ZM199.064 117.643C195.729 122.78 191.071 126.875 184.994 129.913L187.678 135.279C194.625 131.805 200.13 127.02 204.096 120.909L199.064 117.643ZM185.027 129.897C178.974 132.831 172.08 134.332 164.284 134.332V140.332C172.867 140.332 180.674 138.675 187.645 135.295L185.027 129.897ZM164.284 128.196C173.94 128.196 181.889 125.803 187.732 120.635L183.756 116.141C179.337 120.05 172.98 122.196 164.284 122.196V128.196ZM187.732 120.635C193.581 115.461 196.44 108.536 196.44 100.184H190.44C190.44 107.027 188.169 112.238 183.756 116.141L187.732 120.635ZM196.44 100.184V68.068H190.44V100.184H196.44ZM196.44 68.068C196.44 59.7165 193.58 52.8255 187.707 47.7435L183.781 52.2805C188.17 56.0785 190.44 61.2248 190.44 68.068H196.44ZM187.732 47.765C181.889 42.5968 173.94 40.204 164.284 40.204V46.204C172.98 46.204 179.337 48.3498 183.756 52.259L187.732 47.765ZM164.284 40.204C154.716 40.204 146.821 42.6017 140.984 47.765L144.96 52.259C149.384 48.345 155.697 46.204 164.284 46.204V40.204ZM141.009 47.7435C135.136 52.8255 132.276 59.7165 132.276 68.068H138.276C138.276 61.2248 140.546 56.0785 144.935 52.2805L141.009 47.7435ZM132.276 68.068V100.184H138.276V68.068H132.276ZM132.276 100.184C132.276 108.536 135.135 115.461 140.984 120.635L144.96 116.141C140.547 112.238 138.276 107.027 138.276 100.184H132.276ZM140.984 120.635C146.821 125.798 154.716 128.196 164.284 128.196V122.196C155.697 122.196 149.384 120.055 144.96 116.141L140.984 120.635ZM216.652 134.372L214.347 136.293L214.388 136.342L214.432 136.39L216.652 134.372ZM216.356 127.12L214.039 125.214L214.026 125.23L214.013 125.246L216.356 127.12ZM264.456 68.66L266.772 70.5661L268.766 68.1428L266.256 66.26L264.456 68.66ZM263.864 68.216L265.664 65.816L263.455 64.1598L261.621 66.2229L263.864 68.216ZM260.312 72.212V75.212H261.659L262.554 74.2051L260.312 72.212ZM219.316 69.4L216.961 71.2589L216.99 71.2961L217.021 71.3324L219.316 69.4ZM217.096 62V59H214.096V62H217.096ZM276.592 63.48L274.362 65.4869L274.415 65.5455L274.47 65.6013L276.592 63.48ZM276.74 71.028L279.055 72.9357L279.099 72.8828L279.14 72.828L276.74 71.028ZM228.936 129.044L226.62 127.136L224.685 129.485L227.062 131.387L228.936 129.044ZM229.676 129.636L227.802 131.979L230.081 133.802L231.966 131.574L229.676 129.636ZM232.932 125.788V122.788H231.54L230.642 123.85L232.932 125.788ZM276.148 128.6L273.793 130.459L273.822 130.496L273.853 130.532L276.148 128.6ZM278.516 136V139H281.516V136H278.516ZM220.5 133C219.694 133 219.243 132.762 218.872 132.354L214.432 136.39C216.034 138.152 218.148 139 220.5 139V133ZM218.956 132.451C218.399 131.782 218.172 131.123 218.172 130.376H212.172C212.172 132.589 212.931 134.594 214.347 136.293L218.956 132.451ZM218.172 130.376C218.172 129.921 218.304 129.487 218.698 128.994L214.013 125.246C212.829 126.726 212.172 128.463 212.172 130.376H218.172ZM218.672 129.026L266.772 70.5661L262.139 66.7539L214.039 125.214L218.672 129.026ZM266.256 66.26L265.664 65.816L262.064 70.616L262.656 71.06L266.256 66.26ZM261.621 66.2229L258.069 70.2189L262.554 74.2051L266.106 70.2091L261.621 66.2229ZM260.312 69.212H225.976V75.212H260.312V69.212ZM225.976 69.212C223.835 69.212 222.521 68.5488 221.61 67.4676L217.021 71.3324C219.268 74.0005 222.394 75.212 225.976 75.212V69.212ZM221.67 67.5411C220.713 66.329 220.096 64.5759 220.096 62H214.096C214.096 65.5414 214.958 68.7217 216.961 71.2589L221.67 67.5411ZM217.096 65H272.744V59H217.096V65ZM272.744 65C273.811 65 274.186 65.2911 274.362 65.4869L278.822 61.4731C277.222 59.6955 275.032 59 272.744 59V65ZM274.47 65.6013C274.858 65.9886 275.072 66.4421 275.072 67.18H281.072C281.072 64.9579 280.299 62.9447 278.713 61.3587L274.47 65.6013ZM275.072 67.18C275.072 67.8646 274.868 68.5238 274.34 69.228L279.14 72.828C280.388 71.1641 281.072 69.2581 281.072 67.18H275.072ZM274.424 69.1203L226.62 127.136L231.251 130.952L279.055 72.9357L274.424 69.1203ZM227.062 131.387L227.802 131.979L231.55 127.293L230.81 126.701L227.062 131.387ZM231.966 131.574L235.222 127.726L230.642 123.85L227.386 127.698L231.966 131.574ZM232.932 128.788H269.636V122.788H232.932V128.788ZM269.636 128.788C271.781 128.788 272.997 129.45 273.793 130.459L278.502 126.741C276.339 124 273.213 122.788 269.636 122.788V128.788ZM273.853 130.532C274.872 131.742 275.516 133.468 275.516 136H281.516C281.516 132.415 280.581 129.207 278.442 126.668L273.853 130.532ZM278.516 133H220.5V139H278.516V133ZM307.165 133.928L305.891 136.644L305.901 136.649L305.912 136.653L307.165 133.928ZM295.769 124.752L293.283 126.43L293.307 126.466L293.332 126.502L295.769 124.752ZM295.769 73.84L293.292 72.1481L293.278 72.169L293.264 72.19L295.769 73.84ZM307.165 64.22L305.846 61.5258L305.846 61.5258L307.165 64.22ZM340.021 64.22L338.702 66.9142L338.712 66.9194L338.723 66.9246L340.021 64.22ZM351.417 73.84L348.912 75.49L348.926 75.511L348.94 75.5319L351.417 73.84ZM351.417 124.752L353.854 126.502L353.865 126.487L353.875 126.472L351.417 124.752ZM340.021 133.928L338.747 131.212L340.021 133.928ZM337.653 122.088L339.527 124.431L339.535 124.424L337.653 122.088ZM337.653 76.208L335.701 78.4858L335.717 78.4993L335.733 78.5127L337.653 76.208ZM309.385 122.088L307.471 124.398L307.507 124.428L307.543 124.456L309.385 122.088ZM312.345 50.012L314.603 51.9875L314.625 51.9627L314.646 51.9375L312.345 50.012ZM309.681 51.936L310.707 54.7554L310.816 54.7154L310.923 54.6671L309.681 51.936ZM301.837 51.64L300.415 54.2814L300.533 54.3448L300.656 54.3974L301.837 51.64ZM298.581 48.828L296.416 46.7513L294.653 48.5899L296.181 50.628L298.581 48.828ZM319.449 27.072L321.614 29.1487L321.679 29.0812L321.739 29.0098L319.449 27.072ZM328.033 27.072L325.743 29.0098L325.804 29.0812L325.868 29.1487L328.033 27.072ZM348.901 48.828L351.301 50.628L352.83 48.5899L351.066 46.7513L348.901 48.828ZM345.497 51.64L346.754 54.3639L346.797 54.3442L346.839 54.3233L345.497 51.64ZM337.801 51.936L336.56 54.6671L336.666 54.7154L336.776 54.7554L337.801 51.936ZM335.137 50.012L332.837 51.9375L332.858 51.9627L332.88 51.9875L335.137 50.012ZM323.741 36.396L326.042 34.4705L323.741 31.7218L321.441 34.4705L323.741 36.396ZM323.593 134.332C317.96 134.332 312.918 133.272 308.419 131.203L305.912 136.653C311.279 139.122 317.189 140.332 323.593 140.332V134.332ZM308.44 131.212C304.009 129.132 300.634 126.384 298.206 123.002L293.332 126.502C296.43 130.816 300.652 134.185 305.891 136.644L308.44 131.212ZM298.256 123.074C295.932 119.631 294.773 115.826 294.773 111.58H288.773C288.773 117.003 290.279 121.98 293.283 126.43L298.256 123.074ZM294.773 111.58V87.308H288.773V111.58H294.773ZM294.773 87.308C294.773 82.9496 295.94 79.0359 298.275 75.49L293.264 72.19C290.271 76.7347 288.773 81.7997 288.773 87.308H294.773ZM298.247 75.5319C300.688 71.9567 304.069 69.077 308.485 66.9142L305.846 61.5258C300.592 64.0989 296.376 67.6326 293.292 72.1481L298.247 75.5319ZM308.485 66.9142C312.856 64.7732 317.871 63.668 323.593 63.668V57.668C317.081 57.668 311.144 58.9307 305.846 61.5258L308.485 66.9142ZM323.593 63.668C329.316 63.668 334.331 64.7732 338.702 66.9142L341.341 61.5258C336.043 58.9307 330.105 57.668 323.593 57.668V63.668ZM338.723 66.9246C343.231 69.0883 346.584 71.9559 348.912 75.49L353.923 72.19C350.922 67.6334 346.678 64.0877 341.319 61.5154L338.723 66.9246ZM348.94 75.5319C351.36 79.0749 352.561 82.9738 352.561 87.308H358.561C358.561 81.7755 357 76.6957 353.895 72.1481L348.94 75.5319ZM352.561 87.308V111.58H358.561V87.308H352.561ZM352.561 111.58C352.561 115.802 351.368 119.591 348.96 123.032L353.875 126.472C356.992 122.02 358.561 117.028 358.561 111.58H352.561ZM348.98 123.002C346.553 126.384 343.178 129.132 338.747 131.212L341.296 136.644C346.534 134.185 350.757 130.816 353.854 126.502L348.98 123.002ZM338.747 131.212C334.365 133.269 329.334 134.332 323.593 134.332V140.332C330.087 140.332 336.008 139.126 341.296 136.644L338.747 131.212ZM323.593 129.232C329.964 129.232 335.386 127.743 339.527 124.431L335.779 119.745C333.014 121.958 329.063 123.232 323.593 123.232V129.232ZM339.535 124.424C343.79 120.997 345.981 116.44 345.981 110.988H339.981C339.981 114.614 338.62 117.457 335.771 119.752L339.535 124.424ZM345.981 110.988V87.752H339.981V110.988H345.981ZM345.981 87.752C345.981 82.1506 343.829 77.4491 339.574 73.9033L335.733 78.5127C338.582 80.8869 339.981 83.8814 339.981 87.752H345.981ZM339.606 73.9302C335.462 70.3786 330.009 68.768 323.593 68.768V74.768C329.017 74.768 332.938 76.1174 335.701 78.4858L339.606 73.9302ZM323.593 68.768C317.257 68.768 311.832 70.3876 307.613 73.9033L311.454 78.5127C314.339 76.1084 318.287 74.768 323.593 74.768V68.768ZM307.613 73.9033C303.358 77.4491 301.205 82.1506 301.205 87.752H307.205C307.205 83.8814 308.605 80.8869 311.454 78.5127L307.613 73.9033ZM301.205 87.752V110.988H307.205V87.752H301.205ZM301.205 110.988C301.205 116.408 303.321 120.959 307.471 124.398L311.299 119.778C308.543 117.494 307.205 114.646 307.205 110.988H301.205ZM307.543 124.456C311.767 127.741 317.217 129.232 323.593 129.232V123.232C318.129 123.232 314.107 121.96 311.227 119.72L307.543 124.456ZM310.088 48.0365C309.714 48.4633 309.19 48.8641 308.44 49.2049L310.923 54.6671C312.344 54.0212 313.595 53.1393 314.603 51.9875L310.088 48.0365ZM308.656 49.1166C307.908 49.3888 307.121 49.528 306.277 49.528V55.528C307.802 55.528 309.284 55.2726 310.707 54.7554L308.656 49.1166ZM306.277 49.528C305.084 49.528 304.008 49.3065 303.019 48.8826L300.656 54.3974C302.429 55.1575 304.313 55.528 306.277 55.528V49.528ZM303.26 48.9986C302.366 48.5175 301.613 47.8697 300.981 47.028L296.181 50.628C297.326 52.1543 298.743 53.3811 300.415 54.2814L303.26 48.9986ZM300.746 50.9047L321.614 29.1487L317.284 24.9953L296.416 46.7513L300.746 50.9047ZM321.739 29.0098C322.219 28.4435 322.79 28.148 323.741 28.148V22.148C321.14 22.148 318.851 23.1352 317.159 25.1342L321.739 29.0098ZM323.741 28.148C324.692 28.148 325.264 28.4435 325.743 29.0098L330.323 25.1342C328.632 23.1352 326.342 22.148 323.741 22.148V28.148ZM325.868 29.1487L346.736 50.9047L351.066 46.7513L330.198 24.9953L325.868 29.1487ZM346.501 47.028C345.905 47.8231 345.139 48.465 344.156 48.9567L346.839 54.3233C348.618 53.4337 350.122 52.2009 351.301 50.628L346.501 47.028ZM344.24 48.9161C343.396 49.3059 342.401 49.528 341.205 49.528V55.528C343.167 55.528 345.034 55.1581 346.754 54.3639L344.24 48.9161ZM341.205 49.528C340.362 49.528 339.575 49.3888 338.827 49.1166L336.776 54.7554C338.198 55.2726 339.681 55.528 341.205 55.528V49.528ZM339.043 49.2049C338.293 48.8641 337.769 48.4633 337.395 48.0365L332.88 51.9875C333.887 53.1393 335.139 54.0212 336.56 54.6671L339.043 49.2049ZM337.438 48.0865L326.042 34.4705L321.441 38.3215L332.837 51.9375L337.438 48.0865ZM321.441 34.4705L310.045 48.0865L314.646 51.9375L326.042 38.3215L321.441 34.4705ZM385.085 60.668H388.085V57.668H385.085V60.668ZM385.085 70.14L387.206 72.2613L388.085 71.3826V70.14H385.085ZM381.977 74.136L379.481 72.4719L378.117 74.5183L379.856 76.2573L381.977 74.136ZM382.569 74.728L380.448 76.8493L382.952 79.3534L385.01 76.4717L382.569 74.728ZM394.113 64.664L395.542 67.3019L395.563 67.2905L395.584 67.2787L394.113 64.664ZM428.449 67.772L430.593 65.6731L430.593 65.6731L428.449 67.772ZM432.149 135.112L433.893 137.553L433.903 137.546L433.913 137.538L432.149 135.112ZM422.529 137.332H419.529V140.332H422.529V137.332ZM418.533 76.208L420.693 74.1256L420.693 74.1256L418.533 76.208ZM396.037 74.432L397.31 77.1484L397.328 77.14L397.346 77.1314L396.037 74.432ZM388.341 80.648L385.93 78.8623L385.925 78.8701L385.919 78.8779L388.341 80.648ZM382.273 135.112L384.017 137.553L384.027 137.546L384.037 137.538L382.273 135.112ZM372.653 137.332H369.653V140.332H372.653V137.332ZM375.653 71.62C375.653 68.5374 376.51 66.744 377.744 65.6571C379.05 64.5062 381.316 63.668 385.085 63.668V57.668C380.565 57.668 376.615 58.6551 373.778 61.1549C370.868 63.7186 369.653 67.4012 369.653 71.62H375.653ZM382.085 60.668V70.14H388.085V60.668H382.085ZM382.964 68.0187C381.872 69.1098 380.71 70.6284 379.481 72.4719L384.473 75.8001C385.612 74.0916 386.521 72.9462 387.206 72.2613L382.964 68.0187ZM379.856 76.2573L380.448 76.8493L384.69 72.6067L384.098 72.0147L379.856 76.2573ZM385.01 76.4717C387.69 72.7202 391.183 69.6628 395.542 67.3019L392.684 62.0261C387.571 64.7958 383.368 68.4478 380.128 72.9843L385.01 76.4717ZM395.584 67.2787C399.863 64.8717 404.486 63.668 409.505 63.668V57.668C403.474 57.668 397.835 59.1283 392.642 62.0493L395.584 67.2787ZM409.505 63.668C416.868 63.668 422.346 65.827 426.305 69.8709L430.593 65.6731C425.277 60.245 418.126 57.668 409.505 57.668V63.668ZM426.305 69.8709C430.32 73.971 432.405 79.2981 432.405 86.124H438.405C438.405 77.9525 435.852 71.045 430.593 65.6731L426.305 69.8709ZM432.405 86.124V127.86H438.405V86.124H432.405ZM432.405 127.86C432.405 130.387 431.61 131.795 430.384 132.686L433.913 137.538C437.03 135.272 438.405 131.845 438.405 127.86H432.405ZM430.405 132.671C429.09 133.611 426.64 134.332 422.529 134.332V140.332C427.101 140.332 431.064 139.573 433.893 137.553L430.405 132.671ZM425.529 137.332V87.456H419.529V137.332H425.529ZM425.529 87.456C425.529 82.135 424.016 77.5717 420.693 74.1256L416.373 78.2904C418.378 80.3696 419.529 83.305 419.529 87.456H425.529ZM420.693 74.1256C417.263 70.5687 412.295 69.064 406.397 69.064V75.064C411.352 75.064 414.475 76.322 416.373 78.2904L420.693 74.1256ZM406.397 69.064C402.297 69.064 398.396 69.9543 394.728 71.7326L397.346 77.1314C400.19 75.7524 403.196 75.064 406.397 75.064V69.064ZM394.764 71.7156C391.18 73.3954 388.215 75.7777 385.93 78.8623L390.752 82.4337C392.413 80.1903 394.579 78.4285 397.31 77.1484L394.764 71.7156ZM385.919 78.8779C383.684 81.9358 382.529 85.3631 382.529 89.084H388.529C388.529 86.6876 389.248 84.4909 390.763 82.418L385.919 78.8779ZM382.529 89.084V127.86H388.529V89.084H382.529ZM382.529 127.86C382.529 130.387 381.734 131.795 380.508 132.686L384.037 137.538C387.154 135.272 388.529 131.845 388.529 127.86H382.529ZM380.529 132.671C379.214 133.611 376.764 134.332 372.653 134.332V140.332C377.224 140.332 381.188 139.573 384.017 137.553L380.529 132.671ZM375.653 137.332V71.62H369.653V137.332H375.653ZM457.414 46.904L459.477 44.7261L459.477 44.7261L457.414 46.904ZM457.414 33.732L459.415 35.9677L459.446 35.9392L459.477 35.9099L457.414 33.732ZM471.178 33.732L469.115 35.9099L469.146 35.9392L469.178 35.9677L471.178 33.732ZM471.178 46.904L469.115 44.7261L469.115 44.7261L471.178 46.904ZM460.966 63.036L462.71 65.4772L462.72 65.4697L462.731 65.4622L460.966 63.036ZM470.734 60.668H473.734V57.668H470.734V60.668ZM467.478 135.112L469.222 137.553L469.232 137.546L469.243 137.538L467.478 135.112ZM457.858 137.332H454.858V140.332H457.858V137.332ZM464.37 46.568C462.316 46.568 460.754 45.9351 459.477 44.7261L455.351 49.0818C457.824 51.4249 460.899 52.568 464.37 52.568V46.568ZM459.477 44.7261C458.222 43.5366 457.602 42.1136 457.602 40.244H451.602C451.602 43.7024 452.857 46.7194 455.351 49.0819L459.477 44.7261ZM457.602 40.244C457.602 38.3765 458.217 37.039 459.415 35.9677L455.414 31.4963C452.862 33.7796 451.602 36.7835 451.602 40.244H457.602ZM459.477 35.9099C460.754 34.7009 462.316 34.068 464.37 34.068V28.068C460.899 28.068 457.824 29.2111 455.351 31.5541L459.477 35.9099ZM464.37 34.068C466.293 34.068 467.817 34.68 469.115 35.9099L473.241 31.5541C470.79 29.232 467.775 28.068 464.37 28.068V34.068ZM469.178 35.9677C470.375 37.039 470.99 38.3765 470.99 40.244H476.99C476.99 36.7835 475.731 33.7796 473.179 31.4963L469.178 35.9677ZM470.99 40.244C470.99 42.1136 470.371 43.5366 469.115 44.7261L473.241 49.0819C475.735 46.7194 476.99 43.7024 476.99 40.244H470.99ZM469.115 44.7261C467.817 45.956 466.293 46.568 464.37 46.568V52.568C467.775 52.568 470.79 51.404 473.241 49.0818L469.115 44.7261ZM460.858 70.14C460.858 67.553 461.642 66.2398 462.71 65.4772L459.222 60.5948C456.146 62.7922 454.858 66.215 454.858 70.14H460.858ZM462.731 65.4622C464.159 64.4234 466.667 63.668 470.734 63.668V57.668C466.118 57.668 462.115 58.4913 459.202 60.6098L462.731 65.4622ZM467.734 60.668V127.86H473.734V60.668H467.734ZM467.734 127.86C467.734 130.387 466.939 131.795 465.714 132.686L469.243 137.538C472.359 135.272 473.734 131.845 473.734 127.86H467.734ZM465.734 132.671C464.419 133.611 461.969 134.332 457.858 134.332V140.332C462.43 140.332 466.394 139.573 469.222 137.553L465.734 132.671ZM460.858 137.332V70.14H454.858V137.332H460.858ZM502.716 133.928L501.441 136.644L501.452 136.649L501.462 136.653L502.716 133.928ZM491.32 124.752L488.834 126.43L488.858 126.466L488.883 126.502L491.32 124.752ZM491.32 73.84L488.843 72.1481L488.828 72.169L488.815 72.19L491.32 73.84ZM502.716 64.22L501.396 61.5258L501.396 61.5258L502.716 64.22ZM535.572 64.22L534.252 66.9142L534.263 66.9194L534.274 66.9246L535.572 64.22ZM546.968 73.84L544.463 75.49L544.476 75.511L544.491 75.5319L546.968 73.84ZM546.968 124.752L549.405 126.502L549.415 126.487L549.426 126.472L546.968 124.752ZM535.572 133.928L534.297 131.212L535.572 133.928ZM533.204 122.088L535.078 124.431L535.086 124.424L533.204 122.088ZM533.204 76.208L531.252 78.4858L531.268 78.4993L531.284 78.5127L533.204 76.208ZM504.936 122.088L503.022 124.398L503.058 124.428L503.094 124.456L504.936 122.088ZM519.144 134.332C513.511 134.332 508.469 133.272 503.97 131.203L501.462 136.653C506.83 139.122 512.74 140.332 519.144 140.332V134.332ZM503.991 131.212C499.56 129.132 496.185 126.384 493.757 123.002L488.883 126.502C491.981 130.816 496.203 134.185 501.441 136.644L503.991 131.212ZM493.807 123.074C491.483 119.631 490.324 115.826 490.324 111.58H484.324C484.324 117.003 485.829 121.98 488.834 126.43L493.807 123.074ZM490.324 111.58V87.308H484.324V111.58H490.324ZM490.324 87.308C490.324 82.9496 491.49 79.0359 493.826 75.49L488.815 72.19C485.822 76.7347 484.324 81.7997 484.324 87.308H490.324ZM493.797 75.5319C496.239 71.9567 499.62 69.077 504.036 66.9142L501.396 61.5258C496.143 64.0989 491.926 67.6326 488.843 72.1481L493.797 75.5319ZM504.036 66.9142C508.407 64.7732 513.422 63.668 519.144 63.668V57.668C512.632 57.668 506.695 58.9307 501.396 61.5258L504.036 66.9142ZM519.144 63.668C524.867 63.668 529.881 64.7732 534.252 66.9142L536.892 61.5258C531.593 58.9307 525.656 57.668 519.144 57.668V63.668ZM534.274 66.9246C538.782 69.0883 542.135 71.9559 544.463 75.49L549.474 72.19C546.473 67.6334 542.229 64.0877 536.87 61.5154L534.274 66.9246ZM544.491 75.5319C546.91 79.0749 548.112 82.9738 548.112 87.308H554.112C554.112 81.7755 552.551 76.6957 549.445 72.1481L544.491 75.5319ZM548.112 87.308V111.58H554.112V87.308H548.112ZM548.112 111.58C548.112 115.802 546.919 119.591 544.51 123.032L549.426 126.472C552.543 122.02 554.112 117.028 554.112 111.58H548.112ZM544.531 123.002C542.104 126.384 538.729 129.132 534.297 131.212L536.847 136.644C542.085 134.185 546.307 130.816 549.405 126.502L544.531 123.002ZM534.297 131.212C529.916 133.269 524.885 134.332 519.144 134.332V140.332C525.638 140.332 531.559 139.126 536.847 136.644L534.297 131.212ZM519.144 129.232C525.515 129.232 530.937 127.743 535.078 124.431L531.33 119.745C528.564 121.958 524.613 123.232 519.144 123.232V129.232ZM535.086 124.424C539.341 120.997 541.532 116.44 541.532 110.988H535.532C535.532 114.614 534.171 117.457 531.322 119.752L535.086 124.424ZM541.532 110.988V87.752H535.532V110.988H541.532ZM541.532 87.752C541.532 82.1506 539.38 77.4491 535.125 73.9033L531.284 78.5127C534.133 80.8869 535.532 83.8814 535.532 87.752H541.532ZM535.156 73.9302C531.013 70.3786 525.56 68.768 519.144 68.768V74.768C524.568 74.768 528.489 76.1174 531.252 78.4858L535.156 73.9302ZM519.144 68.768C512.807 68.768 507.382 70.3876 503.164 73.9033L507.005 78.5127C509.89 76.1084 513.838 74.768 519.144 74.768V68.768ZM503.164 73.9033C498.909 77.4491 496.756 82.1506 496.756 87.752H502.756C502.756 83.8814 504.156 80.8869 507.005 78.5127L503.164 73.9033ZM496.756 87.752V110.988H502.756V87.752H496.756ZM496.756 110.988C496.756 116.408 498.871 120.959 503.022 124.398L506.85 119.778C504.094 117.494 502.756 114.646 502.756 110.988H496.756ZM503.094 124.456C507.318 127.741 512.768 129.232 519.144 129.232V123.232C513.68 123.232 509.658 121.96 506.778 119.72L503.094 124.456Z" fill="white" fill-opacity="0.89" mask="url(#path-2-outside-1_9_2)"/>
</svg>
