<svg width="696" height="181" viewBox="0 0 696 181" fill="none" xmlns="http://www.w3.org/2000/svg">
<path d="M0 0H696V98C696 143.84 658.84 181 613 181H0V0Z" fill="#020202" fill-opacity="0.35"/>
<mask id="path-2-outside-1_21_16" maskUnits="userSpaceOnUse" x="105" y="34" width="455" height="133" fill="black">
<rect fill="white" x="105" y="34" width="455" height="133"/>
<path d="M108.66 44.472C108.66 42.724 109.258 41.298 110.454 40.194C111.742 38.998 113.352 38.4 115.284 38.4H155.58C161.652 38.4 167.034 39.688 171.726 42.264C176.418 44.748 180.052 48.29 182.628 52.89C185.204 57.398 186.492 62.596 186.492 68.484C186.492 74.556 185.204 79.892 182.628 84.492C180.144 89.092 176.556 92.634 171.864 95.118C167.172 97.602 161.744 98.844 155.58 98.844H121.632V125.478C121.632 128.974 120.528 131.642 118.32 133.482C116.112 135.322 112.892 136.242 108.66 136.242V44.472ZM155.58 87.39C161.1 87.39 165.47 85.734 168.69 82.422C171.91 79.018 173.52 74.372 173.52 68.484C173.52 62.78 171.864 58.272 168.552 54.96C165.332 51.556 161.008 49.854 155.58 49.854H121.632V87.39H155.58ZM221.031 136.242C215.419 136.242 210.405 135.184 205.989 133.068C201.573 130.86 198.123 127.87 195.639 124.098C193.155 120.234 191.913 115.91 191.913 111.126V90.702C191.913 85.826 193.201 81.41 195.777 77.454C198.445 73.498 201.987 70.416 206.403 68.208C210.911 65.908 215.787 64.758 221.031 64.758C226.275 64.758 231.059 65.862 235.383 68.07C239.799 70.278 243.249 73.314 245.733 77.178C248.309 81.042 249.597 85.412 249.597 90.288V99.12C249.597 100.592 249.045 101.834 247.941 102.846C246.837 103.858 245.503 104.364 243.939 104.364H203.643V110.574C203.643 115.266 205.115 119.038 208.059 121.89C211.095 124.742 215.419 126.168 221.031 126.168C226.643 126.168 230.921 124.926 233.865 122.442C236.809 119.958 238.281 116.6 238.281 112.368C241.041 112.184 243.341 112.736 245.181 114.024C247.113 115.22 248.079 117.014 248.079 119.406C248.079 122.35 246.791 125.11 244.215 127.686C241.731 130.262 238.419 132.332 234.279 133.896C230.139 135.46 225.723 136.242 221.031 136.242ZM238.419 94.98V90.288C238.419 85.688 236.809 81.962 233.589 79.11C230.461 76.166 226.275 74.694 221.031 74.694C215.787 74.694 211.555 76.166 208.335 79.11C205.207 81.962 203.643 85.688 203.643 90.288V94.98H238.419ZM293.265 136.242C287.653 136.242 282.639 135.184 278.223 133.068C273.807 130.86 270.357 127.87 267.873 124.098C265.389 120.234 264.147 115.91 264.147 111.126V90.702C264.147 85.826 265.435 81.41 268.011 77.454C270.679 73.498 274.221 70.416 278.637 68.208C283.145 65.908 288.021 64.758 293.265 64.758C298.509 64.758 303.293 65.862 307.617 68.07C312.033 70.278 315.483 73.314 317.967 77.178C320.543 81.042 321.831 85.412 321.831 90.288V99.12C321.831 100.592 321.279 101.834 320.175 102.846C319.071 103.858 317.737 104.364 316.173 104.364H275.877V110.574C275.877 115.266 277.349 119.038 280.293 121.89C283.329 124.742 287.653 126.168 293.265 126.168C298.877 126.168 303.155 124.926 306.099 122.442C309.043 119.958 310.515 116.6 310.515 112.368C313.275 112.184 315.575 112.736 317.415 114.024C319.347 115.22 320.313 117.014 320.313 119.406C320.313 122.35 319.025 125.11 316.449 127.686C313.965 130.262 310.653 132.332 306.513 133.896C302.373 135.46 297.957 136.242 293.265 136.242ZM310.653 94.98V90.288C310.653 85.688 309.043 81.962 305.823 79.11C302.695 76.166 298.509 74.694 293.265 74.694C288.021 74.694 283.789 76.166 280.569 79.11C277.441 81.962 275.877 85.688 275.877 90.288V94.98H310.653ZM357.772 136.242C351.056 136.242 346.042 134.402 342.73 130.722C339.418 126.95 337.762 122.028 337.762 115.956V45.99C337.762 42.954 338.728 40.746 340.66 39.366C342.684 37.894 345.72 37.158 349.768 37.158V115.542C349.768 119.13 350.504 121.706 351.976 123.27C353.448 124.834 355.886 125.616 359.29 125.616C362.694 125.616 365.822 124.788 368.674 123.132C369.87 124.512 370.468 126.122 370.468 127.962C370.468 130.17 369.318 132.102 367.018 133.758C364.718 135.414 361.636 136.242 357.772 136.242ZM394.038 54.408C391.462 54.408 389.3 53.58 387.552 51.924C385.804 50.268 384.93 48.198 384.93 45.714C384.93 43.23 385.804 41.206 387.552 39.642C389.3 37.986 391.462 37.158 394.038 37.158C396.522 37.158 398.638 37.986 400.386 39.642C402.134 41.206 403.008 43.23 403.008 45.714C403.008 48.198 402.134 50.268 400.386 51.924C398.638 53.58 396.522 54.408 394.038 54.408ZM387.966 73.59C387.966 70.554 388.932 68.346 390.864 66.966C392.888 65.494 395.924 64.758 399.972 64.758V127.41C399.972 130.446 398.96 132.7 396.936 134.172C395.004 135.552 392.014 136.242 387.966 136.242V73.59ZM422.394 74.97C422.394 68.162 426.258 64.758 433.986 64.758V73.59C433.158 74.418 432.192 75.66 431.088 77.316L431.64 77.868C434.4 74.004 437.988 70.876 442.404 68.484C446.82 66 451.604 64.758 456.756 64.758C464.208 64.758 470.096 66.966 474.42 71.382C478.744 75.798 480.906 81.502 480.906 88.494V127.41C480.906 130.446 479.894 132.7 477.87 134.172C475.938 135.552 472.948 136.242 468.9 136.242V89.736C468.9 85.32 467.658 81.824 465.174 79.248C462.69 76.672 458.918 75.384 453.858 75.384C450.454 75.384 447.234 76.12 444.198 77.592C441.254 78.972 438.862 80.904 437.022 83.388C435.274 85.78 434.4 88.402 434.4 91.254V127.41C434.4 130.446 433.388 132.7 431.364 134.172C429.432 135.552 426.442 136.242 422.394 136.242V74.97ZM526.268 163.842C521.484 163.842 517.022 163.06 512.882 161.496C508.742 159.932 505.476 157.816 503.084 155.148C500.692 152.572 499.496 149.766 499.496 146.73C499.496 144.338 500.278 142.59 501.842 141.486C503.498 140.382 505.706 139.83 508.466 139.83C508.65 144.154 510.306 147.558 513.434 150.042C516.654 152.618 520.932 153.906 526.268 153.906C538.044 153.906 543.932 148.202 543.932 136.794V128.79C545.22 127.686 546.186 126.674 546.83 125.754L546.416 125.064C543.748 127.916 540.39 130.262 536.342 132.102C532.386 133.942 528.384 134.862 524.336 134.862C516.424 134.862 509.938 132.7 504.878 128.376C499.91 123.96 497.426 118.164 497.426 110.988V88.77C497.426 84.078 498.576 79.938 500.876 76.35C503.268 72.67 506.488 69.818 510.536 67.794C514.676 65.77 519.23 64.758 524.198 64.758C533.214 64.758 540.758 68.714 546.83 76.626L547.382 76.074L544.622 72.624C544.622 70.048 545.496 68.116 547.244 66.828C549.084 65.448 552.028 64.758 556.076 64.758V135.552C556.076 141.072 554.788 145.948 552.212 150.18C549.728 154.504 546.232 157.862 541.724 160.254C537.216 162.646 532.064 163.842 526.268 163.842ZM526.544 124.374C531.42 124.374 535.56 123.086 538.964 120.51C542.368 117.842 544.07 114.714 544.07 111.126V88.632C544.07 84.86 542.368 81.686 538.964 79.11C535.652 76.534 531.604 75.246 526.82 75.246C521.3 75.246 517.022 76.488 513.986 78.972C510.95 81.364 509.432 84.814 509.432 89.322V110.436C509.432 114.76 510.904 118.164 513.848 120.648C516.884 123.132 521.116 124.374 526.544 124.374Z"/>
</mask>
<path d="M110.454 40.194L112.489 42.3984L112.495 42.3924L110.454 40.194ZM171.726 42.264L170.282 44.8937L170.302 44.9047L170.322 44.9154L171.726 42.264ZM182.628 52.89L180.01 54.3558L180.017 54.3671L180.023 54.3784L182.628 52.89ZM182.628 84.492L180.01 83.0262L179.999 83.0463L179.988 83.0666L182.628 84.492ZM171.864 95.118L170.46 92.4666L170.46 92.4666L171.864 95.118ZM121.632 98.844V95.844H118.632V98.844H121.632ZM118.32 133.482L116.399 131.177L116.399 131.177L118.32 133.482ZM108.66 136.242H105.66V139.242H108.66V136.242ZM168.69 82.422L170.841 84.5132L170.855 84.4985L170.869 84.4836L168.69 82.422ZM168.552 54.96L166.373 57.0216L166.401 57.0519L166.431 57.0813L168.552 54.96ZM121.632 49.854V46.854H118.632V49.854H121.632ZM121.632 87.39H118.632V90.39H121.632V87.39ZM111.66 44.472C111.66 43.4919 111.957 42.8891 112.489 42.3984L108.419 37.9896C106.559 39.7069 105.66 41.9561 105.66 44.472H111.66ZM112.495 42.3924C113.171 41.7646 114.028 41.4 115.284 41.4V35.4C112.676 35.4 110.313 36.2314 108.413 37.9956L112.495 42.3924ZM115.284 41.4H155.58V35.4H115.284V41.4ZM155.58 41.4C161.216 41.4 166.089 42.5917 170.282 44.8937L173.17 39.6343C167.979 36.7843 162.088 35.4 155.58 35.4V41.4ZM170.322 44.9154C174.508 47.1312 177.719 50.2633 180.01 54.3558L185.246 51.4242C182.385 46.3167 178.328 42.3648 173.13 39.6126L170.322 44.9154ZM180.023 54.3784C182.307 58.3751 183.492 63.0469 183.492 68.484H189.492C189.492 62.1451 188.101 56.4209 185.233 51.4016L180.023 54.3784ZM183.492 68.484C183.492 74.1214 182.3 78.938 180.01 83.0262L185.246 85.9578C188.108 80.846 189.492 74.9906 189.492 68.484H183.492ZM179.988 83.0666C177.791 87.1362 174.637 90.2555 170.46 92.4666L173.268 97.7694C178.475 95.0125 182.497 91.0478 185.268 85.9174L179.988 83.0666ZM170.46 92.4666C166.266 94.6873 161.334 95.844 155.58 95.844V101.844C162.154 101.844 168.078 100.517 173.268 97.7694L170.46 92.4666ZM155.58 95.844H121.632V101.844H155.58V95.844ZM118.632 98.844V125.478H124.632V98.844H118.632ZM118.632 125.478C118.632 128.295 117.776 130.03 116.399 131.177L120.241 135.787C123.28 133.254 124.632 129.653 124.632 125.478H118.632ZM116.399 131.177C114.935 132.398 112.512 133.242 108.66 133.242V139.242C113.272 139.242 117.289 138.246 120.241 135.787L116.399 131.177ZM111.66 136.242V44.472H105.66V136.242H111.66ZM155.58 90.39C161.74 90.39 166.948 88.5178 170.841 84.5132L166.539 80.3308C163.992 82.9502 160.46 84.39 155.58 84.39V90.39ZM170.869 84.4836C174.743 80.3892 176.52 74.9331 176.52 68.484H170.52C170.52 73.8109 169.077 77.6468 166.511 80.3604L170.869 84.4836ZM176.52 68.484C176.52 62.169 174.666 56.8316 170.673 52.8387L166.431 57.0813C169.062 59.7124 170.52 63.391 170.52 68.484H176.52ZM170.731 52.8984C166.854 48.7991 161.69 46.854 155.58 46.854V52.854C160.326 52.854 163.81 54.3129 166.373 57.0216L170.731 52.8984ZM155.58 46.854H121.632V52.854H155.58V46.854ZM118.632 49.854V87.39H124.632V49.854H118.632ZM121.632 90.39H155.58V84.39H121.632V90.39ZM205.989 133.068L204.647 135.751L204.67 135.763L204.692 135.773L205.989 133.068ZM195.639 124.098L193.115 125.72L193.124 125.734L193.133 125.748L195.639 124.098ZM195.777 77.454L193.29 75.7766L193.276 75.7967L193.263 75.817L195.777 77.454ZM206.403 68.208L207.744 70.8913L207.755 70.8858L207.766 70.8803L206.403 68.208ZM235.383 68.07L234.018 70.7418L234.03 70.7476L234.041 70.7533L235.383 68.07ZM245.733 77.178L243.209 78.8003L243.223 78.8213L243.237 78.8421L245.733 77.178ZM247.941 102.846L249.968 105.057L249.968 105.057L247.941 102.846ZM203.643 104.364V101.364H200.643V104.364H203.643ZM208.059 121.89L205.971 124.045L205.988 124.061L206.005 124.077L208.059 121.89ZM238.281 112.368L238.081 109.375L235.281 109.561V112.368H238.281ZM245.181 114.024L243.46 116.482L243.53 116.53L243.602 116.575L245.181 114.024ZM244.215 127.686L242.093 125.565L242.074 125.584L242.055 125.604L244.215 127.686ZM234.279 133.896L233.219 131.09L233.219 131.09L234.279 133.896ZM238.419 94.98V97.98H241.419V94.98H238.419ZM233.589 79.11L231.533 81.2946L231.566 81.3257L231.6 81.3558L233.589 79.11ZM208.335 79.11L210.356 81.3269L210.359 81.3241L208.335 79.11ZM203.643 94.98H200.643V97.98H203.643V94.98ZM221.031 133.242C215.802 133.242 211.241 132.258 207.285 130.363L204.692 135.773C209.568 138.11 215.036 139.242 221.031 139.242V133.242ZM207.33 130.385C203.341 128.39 200.311 125.739 198.144 122.448L193.133 125.748C195.934 130.001 199.804 133.33 204.647 135.751L207.33 130.385ZM198.162 122.476C196.003 119.116 194.913 115.36 194.913 111.126H188.913C188.913 116.46 190.307 121.352 193.115 125.72L198.162 122.476ZM194.913 111.126V90.702H188.913V111.126H194.913ZM194.913 90.702C194.913 86.387 196.043 82.5433 198.291 79.091L193.263 75.817C190.359 80.2767 188.913 85.265 188.913 90.702H194.913ZM198.264 79.1314C200.633 75.619 203.774 72.8766 207.744 70.8913L205.061 65.5247C200.2 67.9554 196.257 71.377 193.29 75.7766L198.264 79.1314ZM207.766 70.8803C211.837 68.8036 216.243 67.758 221.031 67.758V61.758C215.331 61.758 209.985 63.0124 205.039 65.5357L207.766 70.8803ZM221.031 67.758C225.839 67.758 230.15 68.7665 234.018 70.7418L236.747 65.3982C231.967 62.9575 226.71 61.758 221.031 61.758V67.758ZM234.041 70.7533C238.012 72.7389 241.039 75.4236 243.209 78.8003L248.256 75.5557C245.459 71.2044 241.585 67.8171 236.724 65.3867L234.041 70.7533ZM243.237 78.8421C245.467 82.1879 246.597 85.9731 246.597 90.288H252.597C252.597 84.8509 251.15 79.8961 248.229 75.5139L243.237 78.8421ZM246.597 90.288V99.12H252.597V90.288H246.597ZM246.597 99.12C246.597 99.7345 246.41 100.179 245.914 100.635L249.968 105.057C251.68 103.488 252.597 101.449 252.597 99.12H246.597ZM245.914 100.635C245.389 101.115 244.789 101.364 243.939 101.364V107.364C246.217 107.364 248.284 106.601 249.968 105.057L245.914 100.635ZM243.939 101.364H203.643V107.364H243.939V101.364ZM200.643 104.364V110.574H206.643V104.364H200.643ZM200.643 110.574C200.643 115.95 202.358 120.544 205.971 124.045L210.146 119.735C207.872 117.532 206.643 114.582 206.643 110.574H200.643ZM206.005 124.077C209.767 127.611 214.926 129.168 221.031 129.168V123.168C215.912 123.168 212.423 121.873 210.113 119.703L206.005 124.077ZM221.031 129.168C227.035 129.168 232.114 127.844 235.799 124.735L231.93 120.149C229.728 122.008 226.25 123.168 221.031 123.168V129.168ZM235.799 124.735C239.491 121.62 241.281 117.385 241.281 112.368H235.281C235.281 115.815 234.127 118.296 231.93 120.149L235.799 124.735ZM238.48 115.361C240.721 115.212 242.301 115.67 243.46 116.482L246.901 111.566C244.381 109.802 241.361 109.156 238.081 109.375L238.48 115.361ZM243.602 116.575C244.595 117.19 245.079 117.987 245.079 119.406H251.079C251.079 116.041 249.63 113.25 246.76 111.473L243.602 116.575ZM245.079 119.406C245.079 121.374 244.248 123.41 242.093 125.565L246.336 129.807C249.333 126.81 251.079 123.326 251.079 119.406H245.079ZM242.055 125.604C239.944 127.793 237.039 129.646 233.219 131.09L235.339 136.702C239.798 135.018 243.518 132.731 246.374 129.768L242.055 125.604ZM233.219 131.09C229.437 132.518 225.383 133.242 221.031 133.242V139.242C226.063 139.242 230.84 138.402 235.339 136.702L233.219 131.09ZM241.419 94.98V90.288H235.419V94.98H241.419ZM241.419 90.288C241.419 84.8966 239.49 80.3288 235.578 76.8642L231.6 81.3558C234.128 83.5952 235.419 86.4794 235.419 90.288H241.419ZM235.645 76.9254C231.843 73.3472 226.861 71.694 221.031 71.694V77.694C225.689 77.694 229.079 78.9848 231.533 81.2946L235.645 76.9254ZM221.031 71.694C215.197 71.694 210.191 73.3481 206.311 76.8959L210.359 81.3241C212.919 78.9839 216.376 77.694 221.031 77.694V71.694ZM206.314 76.8931C202.504 80.3665 200.643 84.9262 200.643 90.288H206.643C206.643 86.4498 207.91 83.5575 210.356 81.3269L206.314 76.8931ZM200.643 90.288V94.98H206.643V90.288H200.643ZM203.643 97.98H238.419V91.98H203.643V97.98ZM278.223 133.068L276.882 135.751L276.904 135.763L276.927 135.773L278.223 133.068ZM267.873 124.098L265.35 125.72L265.359 125.734L265.368 125.748L267.873 124.098ZM268.011 77.454L265.524 75.7766L265.51 75.7967L265.497 75.817L268.011 77.454ZM278.637 68.208L279.979 70.8913L279.99 70.8858L280.001 70.8803L278.637 68.208ZM307.617 68.07L306.253 70.7418L306.264 70.7476L306.276 70.7533L307.617 68.07ZM317.967 77.178L315.444 78.8003L315.457 78.8213L315.471 78.8421L317.967 77.178ZM320.175 102.846L322.202 105.057L322.202 105.057L320.175 102.846ZM275.877 104.364V101.364H272.877V104.364H275.877ZM280.293 121.89L278.206 124.045L278.222 124.061L278.239 124.077L280.293 121.89ZM310.515 112.368L310.316 109.375L307.515 109.561V112.368H310.515ZM317.415 114.024L315.695 116.482L315.764 116.53L315.836 116.575L317.415 114.024ZM316.449 127.686L314.328 125.565L314.309 125.584L314.29 125.604L316.449 127.686ZM306.513 133.896L305.453 131.09L305.453 131.09L306.513 133.896ZM310.653 94.98V97.98H313.653V94.98H310.653ZM305.823 79.11L303.767 81.2946L303.8 81.3257L303.834 81.3558L305.823 79.11ZM280.569 79.11L282.59 81.3269L282.593 81.3241L280.569 79.11ZM275.877 94.98H272.877V97.98H275.877V94.98ZM293.265 133.242C288.036 133.242 283.476 132.258 279.52 130.363L276.927 135.773C281.803 138.11 287.27 139.242 293.265 139.242V133.242ZM279.565 130.385C275.576 128.39 272.546 125.739 270.379 122.448L265.368 125.748C268.169 130.001 272.039 133.33 276.882 135.751L279.565 130.385ZM270.397 122.476C268.237 119.116 267.147 115.36 267.147 111.126H261.147C261.147 116.46 262.541 121.352 265.35 125.72L270.397 122.476ZM267.147 111.126V90.702H261.147V111.126H267.147ZM267.147 90.702C267.147 86.387 268.277 82.5433 270.525 79.091L265.497 75.817C262.593 80.2767 261.147 85.265 261.147 90.702H267.147ZM270.498 79.1314C272.867 75.619 276.008 72.8766 279.979 70.8913L277.296 65.5247C272.434 67.9554 268.491 71.377 265.524 75.7766L270.498 79.1314ZM280.001 70.8803C284.071 68.8036 288.477 67.758 293.265 67.758V61.758C287.565 61.758 282.219 63.0124 277.274 65.5357L280.001 70.8803ZM293.265 67.758C298.074 67.758 302.385 68.7665 306.253 70.7418L308.982 65.3982C304.202 62.9575 298.945 61.758 293.265 61.758V67.758ZM306.276 70.7533C310.247 72.7389 313.273 75.4236 315.444 78.8003L320.491 75.5557C317.693 71.2044 313.82 67.8171 308.959 65.3867L306.276 70.7533ZM315.471 78.8421C317.702 82.1879 318.831 85.9731 318.831 90.288H324.831C324.831 84.8509 323.385 79.8961 320.463 75.5139L315.471 78.8421ZM318.831 90.288V99.12H324.831V90.288H318.831ZM318.831 99.12C318.831 99.7345 318.644 100.179 318.148 100.635L322.202 105.057C323.914 103.488 324.831 101.449 324.831 99.12H318.831ZM318.148 100.635C317.624 101.115 317.023 101.364 316.173 101.364V107.364C318.451 107.364 320.519 106.601 322.202 105.057L318.148 100.635ZM316.173 101.364H275.877V107.364H316.173V101.364ZM272.877 104.364V110.574H278.877V104.364H272.877ZM272.877 110.574C272.877 115.95 274.592 120.544 278.206 124.045L282.381 119.735C280.106 117.532 278.877 114.582 278.877 110.574H272.877ZM278.239 124.077C282.001 127.611 287.16 129.168 293.265 129.168V123.168C288.146 123.168 284.657 121.873 282.347 119.703L278.239 124.077ZM293.265 129.168C299.27 129.168 304.348 127.844 308.034 124.735L304.165 120.149C301.962 122.008 298.485 123.168 293.265 123.168V129.168ZM308.034 124.735C311.725 121.62 313.515 117.385 313.515 112.368H307.515C307.515 115.815 306.361 118.296 304.165 120.149L308.034 124.735ZM310.715 115.361C312.955 115.212 314.535 115.67 315.695 116.482L319.136 111.566C316.615 109.802 313.595 109.156 310.316 109.375L310.715 115.361ZM315.836 116.575C316.83 117.19 317.313 117.987 317.313 119.406H323.313C323.313 116.041 321.865 113.25 318.994 111.473L315.836 116.575ZM317.313 119.406C317.313 121.374 316.483 123.41 314.328 125.565L318.571 129.807C321.568 126.81 323.313 123.326 323.313 119.406H317.313ZM314.29 125.604C312.178 127.793 309.274 129.646 305.453 131.09L307.573 136.702C312.033 135.018 315.752 132.731 318.609 129.768L314.29 125.604ZM305.453 131.09C301.672 132.518 297.617 133.242 293.265 133.242V139.242C298.297 139.242 303.075 138.402 307.573 136.702L305.453 131.09ZM313.653 94.98V90.288H307.653V94.98H313.653ZM313.653 90.288C313.653 84.8966 311.724 80.3288 307.812 76.8642L303.834 81.3558C306.362 83.5952 307.653 86.4794 307.653 90.288H313.653ZM307.879 76.9254C304.077 73.3472 299.095 71.694 293.265 71.694V77.694C297.923 77.694 301.313 78.9848 303.767 81.2946L307.879 76.9254ZM293.265 71.694C287.432 71.694 282.425 73.3481 278.545 76.8959L282.593 81.3241C285.153 78.9839 288.611 77.694 293.265 77.694V71.694ZM278.548 76.8931C274.738 80.3665 272.877 84.9262 272.877 90.288H278.877C278.877 86.4498 280.144 83.5575 282.59 81.3269L278.548 76.8931ZM272.877 90.288V94.98H278.877V90.288H272.877ZM275.877 97.98H310.653V91.98H275.877V97.98ZM342.73 130.722L340.475 132.701L340.487 132.715L340.5 132.729L342.73 130.722ZM340.66 39.366L342.403 41.8072L342.414 41.7997L342.424 41.7922L340.66 39.366ZM349.768 37.158H352.768V34.158H349.768V37.158ZM351.976 123.27L349.791 125.326L349.791 125.326L351.976 123.27ZM368.674 123.132L370.941 121.167L369.314 119.291L367.167 120.538L368.674 123.132ZM367.018 133.758L365.265 131.323L365.265 131.323L367.018 133.758ZM357.772 133.242C351.589 133.242 347.52 131.561 344.959 128.715L340.5 132.729C344.563 137.243 350.522 139.242 357.772 139.242V133.242ZM344.984 128.743C342.248 125.627 340.762 121.459 340.762 115.956H334.762C334.762 122.597 336.587 128.273 340.475 132.701L344.984 128.743ZM340.762 115.956V45.99H334.762V115.956H340.762ZM340.762 45.99C340.762 43.623 341.476 42.4698 342.403 41.8072L338.916 36.9248C335.98 39.0222 334.762 42.285 334.762 45.99H340.762ZM342.424 41.7922C343.706 40.8601 345.994 40.158 349.768 40.158V34.158C345.445 34.158 341.661 34.9279 338.895 36.9398L342.424 41.7922ZM346.768 37.158V115.542H352.768V37.158H346.768ZM346.768 115.542C346.768 119.414 347.54 122.934 349.791 125.326L354.16 121.214C353.468 120.478 352.768 118.846 352.768 115.542H346.768ZM349.791 125.326C352.088 127.766 355.53 128.616 359.29 128.616V122.616C356.241 122.616 354.807 121.902 354.16 121.214L349.791 125.326ZM359.29 128.616C363.205 128.616 366.855 127.657 370.18 125.726L367.167 120.538C364.788 121.919 362.182 122.616 359.29 122.616V128.616ZM366.406 125.097C367.126 125.927 367.468 126.838 367.468 127.962H373.468C373.468 125.406 372.613 123.097 370.941 121.167L366.406 125.097ZM367.468 127.962C367.468 128.938 367.028 130.054 365.265 131.323L368.77 136.193C371.608 134.15 373.468 131.402 373.468 127.962H367.468ZM365.265 131.323C363.631 132.499 361.231 133.242 357.772 133.242V139.242C362.041 139.242 365.804 138.329 368.77 136.193L365.265 131.323ZM387.552 51.924L389.615 49.7461L389.615 49.7461L387.552 51.924ZM387.552 39.642L389.552 41.8777L389.584 41.8492L389.615 41.8199L387.552 39.642ZM400.386 39.642L398.322 41.8199L398.353 41.8492L398.385 41.8777L400.386 39.642ZM400.386 51.924L398.322 49.7461L398.322 49.7461L400.386 51.924ZM390.864 66.966L392.607 69.4072L392.618 69.3997L392.628 69.3922L390.864 66.966ZM399.972 64.758H402.972V61.758H399.972V64.758ZM396.936 134.172L398.679 136.613L398.69 136.606L398.7 136.598L396.936 134.172ZM387.966 136.242H384.966V139.242H387.966V136.242ZM394.038 51.408C392.17 51.408 390.764 50.8351 389.615 49.7461L385.488 54.1018C387.835 56.3249 390.753 57.408 394.038 57.408V51.408ZM389.615 49.7461C388.486 48.6766 387.93 47.4036 387.93 45.714H381.93C381.93 48.9924 383.121 51.8594 385.488 54.1019L389.615 49.7461ZM387.93 45.714C387.93 44.0265 388.481 42.8357 389.552 41.8777L385.551 37.4063C383.126 39.5763 381.93 42.4335 381.93 45.714H387.93ZM389.615 41.8199C390.764 40.7309 392.17 40.158 394.038 40.158V34.158C390.753 34.158 387.835 35.2411 385.488 37.4641L389.615 41.8199ZM394.038 40.158C395.781 40.158 397.151 40.71 398.322 41.8199L402.449 37.4641C400.124 35.262 397.262 34.158 394.038 34.158V40.158ZM398.385 41.8777C399.456 42.8357 400.008 44.0265 400.008 45.714H406.008C406.008 42.4335 404.811 39.5763 402.386 37.4063L398.385 41.8777ZM400.008 45.714C400.008 47.4036 399.451 48.6766 398.322 49.7461L402.449 54.1019C404.816 51.8594 406.008 48.9924 406.008 45.714H400.008ZM398.322 49.7461C397.151 50.856 395.781 51.408 394.038 51.408V57.408C397.262 57.408 400.124 56.304 402.449 54.1019L398.322 49.7461ZM390.966 73.59C390.966 71.223 391.68 70.0698 392.607 69.4072L389.12 64.5248C386.184 66.6222 384.966 69.885 384.966 73.59H390.966ZM392.628 69.3922C393.91 68.4601 396.198 67.758 399.972 67.758V61.758C395.649 61.758 391.865 62.5279 389.099 64.5398L392.628 69.3922ZM396.972 64.758V127.41H402.972V64.758H396.972ZM396.972 127.41C396.972 129.717 396.25 130.961 395.171 131.746L398.7 136.598C401.67 134.439 402.972 131.175 402.972 127.41H396.972ZM395.192 131.731C394.016 132.571 391.783 133.242 387.966 133.242V139.242C392.244 139.242 395.991 138.533 398.679 136.613L395.192 131.731ZM390.966 136.242V73.59H384.966V136.242H390.966ZM433.986 64.758H436.986V61.758H433.986V64.758ZM433.986 73.59L436.108 75.7113L436.986 74.8326V73.59H433.986ZM431.088 77.316L428.592 75.6519L427.228 77.6983L428.967 79.4373L431.088 77.316ZM431.64 77.868L429.519 79.9893L432.023 82.4934L434.082 79.6117L431.64 77.868ZM442.404 68.484L443.833 71.1219L443.854 71.1105L443.875 71.0987L442.404 68.484ZM474.42 71.382L476.564 69.2831L476.564 69.2831L474.42 71.382ZM477.87 134.172L479.614 136.613L479.625 136.606L479.635 136.598L477.87 134.172ZM468.9 136.242H465.9V139.242H468.9V136.242ZM465.174 79.248L467.334 77.1656L467.334 77.1656L465.174 79.248ZM444.198 77.592L445.472 80.3084L445.489 80.3L445.507 80.2914L444.198 77.592ZM437.022 83.388L434.612 81.6023L434.606 81.6101L434.6 81.6179L437.022 83.388ZM431.364 134.172L433.108 136.613L433.119 136.606L433.129 136.598L431.364 134.172ZM422.394 136.242H419.394V139.242H422.394V136.242ZM425.394 74.97C425.394 72.1341 426.182 70.5257 427.275 69.5621C428.442 68.5345 430.498 67.758 433.986 67.758V61.758C429.747 61.758 426.007 62.6835 423.309 65.0599C420.539 67.5003 419.394 70.9979 419.394 74.97H425.394ZM430.986 64.758V73.59H436.986V64.758H430.986ZM431.865 71.4687C430.834 72.4998 429.741 73.9284 428.592 75.6519L433.585 78.9801C434.644 77.3916 435.483 76.3362 436.108 75.7113L431.865 71.4687ZM428.967 79.4373L429.519 79.9893L433.762 75.7467L433.21 75.1947L428.967 79.4373ZM434.082 79.6117C436.561 76.1402 439.795 73.3095 443.833 71.1219L440.976 65.8461C436.182 68.4425 432.239 71.8678 429.199 76.1243L434.082 79.6117ZM443.875 71.0987C447.834 68.8717 452.111 67.758 456.756 67.758V61.758C451.098 61.758 445.806 63.1283 440.934 65.8693L443.875 71.0987ZM456.756 67.758C463.58 67.758 468.631 69.757 472.277 73.4809L476.564 69.2831C471.562 64.175 464.837 61.758 456.756 61.758V67.758ZM472.277 73.4809C475.978 77.261 477.906 82.1748 477.906 88.494H483.906C483.906 80.8292 481.511 74.335 476.564 69.2831L472.277 73.4809ZM477.906 88.494V127.41H483.906V88.494H477.906ZM477.906 127.41C477.906 129.717 477.184 130.961 476.106 131.746L479.635 136.598C482.604 134.439 483.906 131.175 483.906 127.41H477.906ZM476.127 131.731C474.951 132.571 472.718 133.242 468.9 133.242V139.242C473.179 139.242 476.926 138.533 479.614 136.613L476.127 131.731ZM471.9 136.242V89.736H465.9V136.242H471.9ZM471.9 89.736C471.9 84.735 470.477 80.425 467.334 77.1656L463.015 81.3304C464.84 83.223 465.9 85.905 465.9 89.736H471.9ZM467.334 77.1656C464.084 73.7953 459.39 72.384 453.858 72.384V78.384C458.447 78.384 461.297 79.5487 463.015 81.3304L467.334 77.1656ZM453.858 72.384C450.005 72.384 446.337 73.2209 442.89 74.8926L445.507 80.2914C448.131 79.0191 450.904 78.384 453.858 78.384V72.384ZM442.925 74.8756C439.555 76.4554 436.763 78.6977 434.612 81.6023L439.433 85.1737C440.961 83.1103 442.954 81.4885 445.472 80.3084L442.925 74.8756ZM434.6 81.6179C432.492 84.5024 431.4 87.7397 431.4 91.254H437.4C437.4 89.0643 438.056 87.0576 439.445 85.158L434.6 81.6179ZM431.4 91.254V127.41H437.4V91.254H431.4ZM431.4 127.41C431.4 129.717 430.678 130.961 429.6 131.746L433.129 136.598C436.098 134.439 437.4 131.175 437.4 127.41H431.4ZM429.621 131.731C428.445 132.571 426.212 133.242 422.394 133.242V139.242C426.673 139.242 430.42 138.533 433.108 136.613L429.621 131.731ZM425.394 136.242V74.97H419.394V136.242H425.394ZM512.882 161.496L513.943 158.69L513.943 158.69L512.882 161.496ZM503.084 155.148L505.318 153.145L505.301 153.126L505.283 153.107L503.084 155.148ZM501.842 141.486L500.178 138.99L500.145 139.012L500.112 139.035L501.842 141.486ZM508.466 139.83L511.464 139.702L511.342 136.83H508.466V139.83ZM513.434 150.042L515.309 147.699L515.3 147.693L513.434 150.042ZM543.932 128.79L541.98 126.512L540.932 127.41V128.79H543.932ZM546.83 125.754L549.288 127.474L550.404 125.88L549.403 124.211L546.83 125.754ZM546.416 125.064L548.989 123.521L546.943 120.11L544.226 123.015L546.416 125.064ZM536.342 132.102L535.101 129.371L535.089 129.376L535.077 129.382L536.342 132.102ZM504.878 128.376L502.885 130.618L502.907 130.638L502.93 130.657L504.878 128.376ZM500.876 76.35L498.361 74.715L498.356 74.723L498.351 74.731L500.876 76.35ZM510.536 67.794L509.219 65.0988L509.207 65.1047L509.195 65.1107L510.536 67.794ZM546.83 76.626L544.451 78.4525L546.533 81.166L548.952 78.7473L546.83 76.626ZM547.382 76.074L549.504 78.1953L551.402 76.2966L549.725 74.1999L547.382 76.074ZM544.622 72.624H541.622V73.6763L542.28 74.4981L544.622 72.624ZM547.244 66.828L549.024 69.2432L549.034 69.2356L549.044 69.228L547.244 66.828ZM556.076 64.758H559.076V61.758H556.076V64.758ZM552.212 150.18L549.65 148.62L549.63 148.653L549.611 148.686L552.212 150.18ZM541.724 160.254L543.131 162.904L543.131 162.904L541.724 160.254ZM538.964 120.51L540.775 122.902L540.795 122.887L540.815 122.871L538.964 120.51ZM538.964 79.11L537.123 81.4781L537.138 81.4902L537.154 81.5022L538.964 79.11ZM513.986 78.972L515.843 81.3285L515.865 81.3114L515.886 81.2939L513.986 78.972ZM513.848 120.648L511.914 122.941L511.931 122.956L511.949 122.97L513.848 120.648ZM526.268 160.842C521.817 160.842 517.717 160.116 513.943 158.69L511.822 164.302C516.328 166.004 521.152 166.842 526.268 166.842V160.842ZM513.943 158.69C510.149 157.256 507.322 155.381 505.318 153.145L500.851 157.151C503.631 160.251 507.336 162.608 511.822 164.302L513.943 158.69ZM505.283 153.107C503.319 150.992 502.496 148.89 502.496 146.73H496.496C496.496 150.642 498.066 154.152 500.886 157.189L505.283 153.107ZM502.496 146.73C502.496 145.04 503.004 144.338 503.573 143.937L500.112 139.035C497.553 140.842 496.496 143.636 496.496 146.73H502.496ZM503.507 143.982C504.513 143.311 506.077 142.83 508.466 142.83V136.83C505.336 136.83 502.484 137.453 500.178 138.99L503.507 143.982ZM505.469 139.958C505.687 145.069 507.697 149.317 511.569 152.391L515.3 147.693C512.916 145.799 511.614 143.239 511.464 139.702L505.469 139.958ZM511.56 152.385C515.451 155.497 520.454 156.906 526.268 156.906V150.906C521.411 150.906 517.857 149.739 515.309 147.699L511.56 152.385ZM526.268 156.906C532.595 156.906 537.896 155.375 541.604 151.783C545.329 148.174 546.932 142.985 546.932 136.794H540.932C540.932 142.011 539.592 145.378 537.429 147.473C535.249 149.585 531.717 150.906 526.268 150.906V156.906ZM546.932 136.794V128.79H540.932V136.794H546.932ZM545.885 131.068C547.277 129.874 548.446 128.677 549.288 127.474L544.373 124.034C543.927 124.671 543.164 125.498 541.98 126.512L545.885 131.068ZM549.403 124.211L548.989 123.521L543.844 126.607L544.258 127.297L549.403 124.211ZM544.226 123.015C541.861 125.542 538.84 127.671 535.101 129.371L537.584 134.833C541.941 132.853 545.636 130.29 548.607 127.113L544.226 123.015ZM535.077 129.382C531.486 131.052 527.914 131.862 524.336 131.862V137.862C528.855 137.862 533.287 136.832 537.608 134.822L535.077 129.382ZM524.336 131.862C516.998 131.862 511.246 129.871 506.827 126.095L502.93 130.657C508.631 135.529 515.851 137.862 524.336 137.862V131.862ZM506.872 126.134C502.599 122.336 500.426 117.384 500.426 110.988H494.426C494.426 118.944 497.222 125.584 502.885 130.618L506.872 126.134ZM500.426 110.988V88.77H494.426V110.988H500.426ZM500.426 88.77C500.426 84.5919 501.443 81.0256 503.402 77.969L498.351 74.731C495.71 78.8504 494.426 83.5641 494.426 88.77H500.426ZM503.392 77.985C505.483 74.767 508.292 72.2703 511.878 70.4773L509.195 65.1107C504.685 67.3657 501.053 70.573 498.361 74.715L503.392 77.985ZM511.854 70.4892C515.552 68.6811 519.651 67.758 524.198 67.758V61.758C518.81 61.758 513.801 62.8589 509.219 65.0988L511.854 70.4892ZM524.198 67.758C532.174 67.758 538.877 71.1901 544.451 78.4525L549.21 74.7995C542.64 66.2379 534.255 61.758 524.198 61.758V67.758ZM548.952 78.7473L549.504 78.1953L545.261 73.9527L544.709 74.5047L548.952 78.7473ZM549.725 74.1999L546.965 70.7499L542.28 74.4981L545.04 77.9481L549.725 74.1999ZM547.622 72.624C547.622 70.8001 548.192 69.8562 549.024 69.2432L545.465 64.4128C542.801 66.3758 541.622 69.2959 541.622 72.624H547.622ZM549.044 69.228C550.099 68.4369 552.239 67.758 556.076 67.758V61.758C551.818 61.758 548.07 62.4591 545.444 64.428L549.044 69.228ZM553.076 64.758V135.552H559.076V64.758H553.076ZM553.076 135.552C553.076 140.586 551.908 144.91 549.65 148.62L554.775 151.74C557.669 146.986 559.076 141.558 559.076 135.552H553.076ZM549.611 148.686C547.416 152.508 544.339 155.47 540.318 157.604L543.131 162.904C548.126 160.254 552.041 156.5 554.814 151.674L549.611 148.686ZM540.318 157.604C536.299 159.737 531.641 160.842 526.268 160.842V166.842C532.487 166.842 538.134 165.555 543.131 162.904L540.318 157.604ZM526.544 127.374C531.977 127.374 536.777 125.927 540.775 122.902L537.154 118.118C534.344 120.245 530.864 121.374 526.544 121.374V127.374ZM540.815 122.871C544.779 119.765 547.07 115.828 547.07 111.126H541.07C541.07 113.6 539.958 115.919 537.114 118.149L540.815 122.871ZM547.07 111.126V88.632H541.07V111.126H547.07ZM547.07 88.632C547.07 83.7873 544.815 79.7755 540.775 76.7178L537.154 81.5022C539.922 83.5965 541.07 85.9327 541.07 88.632H547.07ZM540.806 76.7419C536.895 73.6999 532.173 72.246 526.82 72.246V78.246C531.035 78.246 534.41 79.3681 537.123 81.4781L540.806 76.7419ZM526.82 72.246C520.886 72.246 515.84 73.5792 512.087 76.6501L515.886 81.2939C518.205 79.3968 521.715 78.246 526.82 78.246V72.246ZM512.13 76.6155C508.247 79.6749 506.432 84.0667 506.432 89.322H512.432C512.432 85.5613 513.654 83.0531 515.843 81.3285L512.13 76.6155ZM506.432 89.322V110.436H512.432V89.322H506.432ZM506.432 110.436C506.432 115.522 508.206 119.813 511.914 122.941L515.783 118.355C513.602 116.515 512.432 113.998 512.432 110.436H506.432ZM511.949 122.97C515.694 126.034 520.687 127.374 526.544 127.374V121.374C521.546 121.374 518.075 120.23 515.748 118.326L511.949 122.97Z" fill="white" mask="url(#path-2-outside-1_21_16)"/>
</svg>
