<svg width="696" height="181" viewBox="0 0 696 181" fill="none" xmlns="http://www.w3.org/2000/svg">
<path d="M0 0H696V98C696 143.84 658.84 181 613 181H0V0Z" fill="black" fill-opacity="0.35"/>
<mask id="path-2-outside-1_9_2" maskUnits="userSpaceOnUse" x="22" y="23" width="641" height="93" fill="black">
<rect fill="white" x="22" y="23" width="641" height="93"/>
<path d="M25.3 34.96C25.3 33.82 25.69 32.89 26.47 32.17C27.31 31.39 28.36 31 29.62 31H54.46C60.28 31 64.9 32.71 68.32 36.13C71.8 39.49 73.54 43.99 73.54 49.63C73.54 56.71 70.45 61.72 64.27 64.66V64.93C66.97 66.07 69.04 67.81 70.48 70.15C71.92 72.43 72.64 75.22 72.64 78.52V87.79C72.64 90.07 71.92 91.81 70.48 93.01C69.04 94.21 66.94 94.81 64.18 94.81V79.06C64.18 75.52 63.37 72.85 61.75 71.05C60.19 69.19 57.85 68.26 54.73 68.26H33.67V87.79C33.67 90.07 32.95 91.81 31.51 93.01C30.13 94.21 28.06 94.81 25.3 94.81V34.96ZM54.19 60.97C57.49 60.97 60.1 59.95 62.02 57.91C64 55.87 64.99 53.08 64.99 49.54C64.99 45.94 64.06 43.18 62.2 41.26C60.34 39.34 57.67 38.38 54.19 38.38H33.67V60.97H54.19ZM97.8963 94.81C92.7363 94.81 88.5663 93.43 85.3863 90.67C82.2663 87.91 80.7063 84.28 80.7063 79.78C80.7063 75.22 82.3563 71.56 85.6563 68.8C88.9563 65.98 93.3063 64.57 98.7063 64.57C104.466 64.57 109.206 66.61 112.926 70.69L113.286 70.33C112.626 69.61 111.876 68.86 111.036 68.08V64.3C111.036 61.24 110.076 58.87 108.156 57.19C106.236 55.51 103.506 54.67 99.9663 54.67C93.6663 54.67 89.1663 57.16 86.4663 62.14C85.5063 61.66 84.6963 61.03 84.0363 60.25C83.4363 59.41 83.1363 58.57 83.1363 57.73C83.1363 56.11 83.9463 54.58 85.5663 53.14C87.1863 51.64 89.3163 50.44 91.9563 49.54C94.6563 48.64 97.4763 48.19 100.416 48.19C106.116 48.19 110.586 49.6 113.826 52.42C117.126 55.24 118.776 59.14 118.776 64.12V88.78C118.776 90.88 118.176 92.41 116.976 93.37C115.776 94.33 113.886 94.81 111.306 94.81V90.58C112.566 89.26 113.256 88.48 113.376 88.24L113.016 87.88C109.116 92.5 104.076 94.81 97.8963 94.81ZM99.2463 88.6C102.966 88.6 105.876 87.82 107.976 86.26C110.136 84.7 111.216 82.54 111.216 79.78C111.216 77.02 110.166 74.83 108.066 73.21C105.966 71.59 103.086 70.78 99.4263 70.78C96.0063 70.78 93.3063 71.59 91.3263 73.21C89.4063 74.77 88.4463 76.96 88.4463 79.78C88.4463 82.6 89.3763 84.79 91.2363 86.35C93.1563 87.85 95.8263 88.6 99.2463 88.6ZM147.415 94.81C142.255 94.81 138.055 93.4 134.815 90.58C131.635 87.7 130.045 83.89 130.045 79.15V63.76C130.045 60.7 130.795 58 132.295 55.66C133.795 53.26 135.865 51.43 138.505 50.17C141.205 48.85 144.295 48.19 147.775 48.19C150.595 48.19 153.205 48.79 155.605 49.99C158.005 51.13 160.105 52.66 161.905 54.58L162.175 54.13C161.755 53.53 161.125 52.87 160.285 52.15V36.31C160.285 34.33 160.945 32.83 162.265 31.81C163.585 30.73 165.565 30.19 168.205 30.19V88.42C168.205 90.4 167.605 91.96 166.405 93.1C165.265 94.24 163.405 94.81 160.825 94.81V89.77C161.665 88.69 162.235 87.91 162.535 87.43L162.265 87.07C160.345 89.47 158.215 91.36 155.875 92.74C153.535 94.12 150.715 94.81 147.415 94.81ZM149.125 87.88C152.305 87.88 154.975 87.07 157.135 85.45C159.295 83.77 160.375 81.7 160.375 79.24V63.67C160.375 61.27 159.355 59.26 157.315 57.64C155.275 55.96 152.515 55.12 149.035 55.12C145.495 55.12 142.735 55.93 140.755 57.55C138.835 59.11 137.875 61.3 137.875 64.12V78.79C137.875 81.73 138.835 83.98 140.755 85.54C142.735 87.1 145.525 87.88 149.125 87.88ZM186.719 41.44C185.039 41.44 183.629 40.9 182.489 39.82C181.349 38.74 180.779 37.39 180.779 35.77C180.779 34.15 181.349 32.83 182.489 31.81C183.629 30.73 185.039 30.19 186.719 30.19C188.339 30.19 189.719 30.73 190.859 31.81C191.999 32.83 192.569 34.15 192.569 35.77C192.569 37.39 191.999 38.74 190.859 39.82C189.719 40.9 188.339 41.44 186.719 41.44ZM182.759 53.95C182.759 51.97 183.389 50.53 184.649 49.63C185.969 48.67 187.949 48.19 190.589 48.19V89.05C190.589 91.03 189.929 92.5 188.609 93.46C187.349 94.36 185.399 94.81 182.759 94.81V53.95ZM220.027 94.81C216.367 94.81 213.037 94.12 210.037 92.74C207.097 91.36 204.787 89.5 203.107 87.16C201.487 84.76 200.677 82.09 200.677 79.15V64.39C200.677 61.39 201.487 58.66 203.107 56.2C204.787 53.74 207.097 51.79 210.037 50.35C212.977 48.91 216.307 48.19 220.027 48.19C223.747 48.19 227.077 48.91 230.017 50.35C233.017 51.79 235.327 53.74 236.947 56.2C238.627 58.66 239.467 61.39 239.467 64.39V79.15C239.467 82.09 238.627 84.76 236.947 87.16C235.267 89.5 232.957 91.36 230.017 92.74C227.077 94.12 223.747 94.81 220.027 94.81ZM220.027 88.06C223.627 88.06 226.477 87.22 228.577 85.54C230.737 83.8 231.817 81.55 231.817 78.79V64.66C231.817 61.78 230.737 59.44 228.577 57.64C226.477 55.84 223.627 54.94 220.027 54.94C216.487 54.94 213.637 55.84 211.477 57.64C209.317 59.44 208.237 61.78 208.237 64.66V78.79C208.237 81.55 209.287 83.8 211.387 85.54C213.547 87.22 216.427 88.06 220.027 88.06ZM250.138 55.3H242.668C242.668 51.1 244.228 49 247.348 49H250.138V43.51C250.138 39.61 251.248 36.43 253.468 33.97C255.688 31.45 259.018 30.19 263.458 30.19C265.978 30.19 267.928 30.76 269.308 31.9C270.688 32.98 271.378 34.24 271.378 35.68C271.378 36.94 270.988 37.96 270.208 38.74C268.348 37.66 266.338 37.12 264.178 37.12C261.958 37.12 260.368 37.66 259.408 38.74C258.448 39.82 257.968 41.53 257.968 43.87V49H269.218C269.218 51.16 268.738 52.75 267.778 53.77C266.878 54.79 265.468 55.3 263.548 55.3H257.968V89.05C257.968 91.03 257.308 92.5 255.988 93.46C254.728 94.36 252.778 94.81 250.138 94.81V55.3ZM296.285 55.12C292.925 55.12 290.135 56.14 287.915 58.18C285.695 60.16 284.585 62.59 284.585 65.47V89.05C284.585 91.03 283.925 92.5 282.605 93.46C281.345 94.36 279.395 94.81 276.755 94.81V54.85C276.755 50.41 279.275 48.19 284.315 48.19V53.68C283.355 54.7 282.695 55.6 282.335 56.38L282.695 56.74C286.535 51.04 291.335 48.19 297.095 48.19C299.255 48.19 300.905 48.73 302.045 49.81C303.185 50.83 303.755 52.09 303.755 53.59C303.755 54.67 303.485 55.63 302.945 56.47C301.265 55.57 299.045 55.12 296.285 55.12ZM327.277 94.81C323.617 94.81 320.347 94.12 317.467 92.74C314.587 91.3 312.337 89.35 310.717 86.89C309.097 84.37 308.287 81.55 308.287 78.43V65.11C308.287 61.93 309.127 59.05 310.807 56.47C312.547 53.89 314.857 51.88 317.737 50.44C320.677 48.94 323.857 48.19 327.277 48.19C330.697 48.19 333.817 48.91 336.637 50.35C339.517 51.79 341.767 53.77 343.387 56.29C345.067 58.81 345.907 61.66 345.907 64.84V70.6C345.907 71.56 345.547 72.37 344.827 73.03C344.107 73.69 343.237 74.02 342.217 74.02H315.937V78.07C315.937 81.13 316.897 83.59 318.817 85.45C320.797 87.31 323.617 88.24 327.277 88.24C330.937 88.24 333.727 87.43 335.647 85.81C337.567 84.19 338.527 82 338.527 79.24C340.327 79.12 341.827 79.48 343.027 80.32C344.287 81.1 344.917 82.27 344.917 83.83C344.917 85.75 344.077 87.55 342.397 89.23C340.777 90.91 338.617 92.26 335.917 93.28C333.217 94.3 330.337 94.81 327.277 94.81ZM338.617 67.9V64.84C338.617 61.84 337.567 59.41 335.467 57.55C333.427 55.63 330.697 54.67 327.277 54.67C323.857 54.67 321.097 55.63 318.997 57.55C316.957 59.41 315.937 61.84 315.937 64.84V67.9H338.617ZM393.646 106.69C393.646 110.77 391.006 112.81 385.726 112.81V90.85C386.566 90.13 387.196 89.47 387.616 88.87L387.346 88.42C385.606 90.28 383.416 91.81 380.776 93.01C378.196 94.21 375.586 94.81 372.946 94.81C367.666 94.81 363.406 93.4 360.166 90.58C356.986 87.76 355.396 83.98 355.396 79.24V63.85C355.396 60.73 356.146 58 357.646 55.66C359.206 53.26 361.306 51.43 363.946 50.17C366.646 48.85 369.616 48.19 372.856 48.19C378.736 48.19 383.656 50.77 387.616 55.93L387.976 55.57L386.176 53.32C386.176 51.64 386.746 50.38 387.886 49.54C389.086 48.64 391.006 48.19 393.646 48.19V106.69ZM374.566 55.12C370.966 55.12 368.176 55.9 366.196 57.46C364.216 59.02 363.226 61.27 363.226 64.21V78.88C363.226 81.7 364.216 83.92 366.196 85.54C368.176 87.1 370.906 87.88 374.386 87.88C377.566 87.88 380.266 87.04 382.486 85.36C384.706 83.68 385.816 81.67 385.816 79.33V63.76C385.816 61.36 384.736 59.32 382.576 57.64C380.416 55.96 377.746 55.12 374.566 55.12ZM443.478 88.15C443.478 92.59 440.958 94.81 435.918 94.81V89.05C436.458 88.51 437.088 87.7 437.808 86.62L437.448 86.26C435.648 88.84 433.368 90.91 430.608 92.47C427.908 94.03 424.938 94.81 421.698 94.81C418.458 94.81 415.578 94.12 413.058 92.74C410.598 91.36 408.678 89.44 407.298 86.98C405.978 84.52 405.318 81.76 405.318 78.7V53.95C405.318 51.97 405.978 50.53 407.298 49.63C408.618 48.67 410.598 48.19 413.238 48.19V78.34C413.238 81.22 414.078 83.53 415.758 85.27C417.498 87.01 420.048 87.88 423.408 87.88C425.628 87.88 427.668 87.43 429.528 86.53C431.388 85.57 432.858 84.31 433.938 82.75C435.078 81.13 435.648 79.39 435.648 77.53V53.95C435.648 51.97 436.278 50.53 437.538 49.63C438.858 48.67 440.838 48.19 443.478 48.19V88.15ZM474.142 94.81C470.482 94.81 467.212 94.12 464.332 92.74C461.452 91.3 459.202 89.35 457.582 86.89C455.962 84.37 455.152 81.55 455.152 78.43V65.11C455.152 61.93 455.992 59.05 457.672 56.47C459.412 53.89 461.722 51.88 464.602 50.44C467.542 48.94 470.722 48.19 474.142 48.19C477.562 48.19 480.682 48.91 483.502 50.35C486.382 51.79 488.632 53.77 490.252 56.29C491.932 58.81 492.772 61.66 492.772 64.84V70.6C492.772 71.56 492.412 72.37 491.692 73.03C490.972 73.69 490.102 74.02 489.082 74.02H462.802V78.07C462.802 81.13 463.762 83.59 465.682 85.45C467.662 87.31 470.482 88.24 474.142 88.24C477.802 88.24 480.592 87.43 482.512 85.81C484.432 84.19 485.392 82 485.392 79.24C487.192 79.12 488.692 79.48 489.892 80.32C491.152 81.1 491.782 82.27 491.782 83.83C491.782 85.75 490.942 87.55 489.262 89.23C487.642 90.91 485.482 92.26 482.782 93.28C480.082 94.3 477.202 94.81 474.142 94.81ZM485.482 67.9V64.84C485.482 61.84 484.432 59.41 482.332 57.55C480.292 55.63 477.562 54.67 474.142 54.67C470.722 54.67 467.962 55.63 465.862 57.55C463.822 59.41 462.802 61.84 462.802 64.84V67.9H485.482ZM467.392 41.71C466.972 42.19 466.432 42.58 465.772 42.88C465.112 43.12 464.422 43.24 463.702 43.24C462.742 43.24 461.842 43.06 461.002 42.7C460.222 42.28 459.562 41.71 459.022 40.99L471.712 27.76C472.372 26.98 473.242 26.59 474.322 26.59C475.402 26.59 476.272 26.98 476.932 27.76L489.622 40.99C489.082 41.71 488.392 42.28 487.552 42.7C486.772 43.06 485.902 43.24 484.942 43.24C484.222 43.24 483.532 43.12 482.872 42.88C482.212 42.58 481.672 42.19 481.252 41.71L474.322 33.43L467.392 41.71ZM503.161 54.85C503.161 50.41 505.681 48.19 510.721 48.19V53.95C510.181 54.49 509.551 55.3 508.831 56.38L509.191 56.74C510.991 54.22 513.331 52.18 516.211 50.62C519.091 49 522.211 48.19 525.571 48.19C530.431 48.19 534.271 49.63 537.091 52.51C539.911 55.39 541.321 59.11 541.321 63.67V89.05C541.321 91.03 540.661 92.5 539.341 93.46C538.081 94.36 536.131 94.81 533.491 94.81V64.48C533.491 61.6 532.681 59.32 531.061 57.64C529.441 55.96 526.981 55.12 523.681 55.12C521.461 55.12 519.361 55.6 517.381 56.56C515.461 57.46 513.901 58.72 512.701 60.34C511.561 61.9 510.991 63.61 510.991 65.47V89.05C510.991 91.03 510.331 92.5 509.011 93.46C507.751 94.36 505.801 94.81 503.161 94.81V54.85ZM570.995 94.81C567.335 94.81 564.065 94.15 561.185 92.83C558.305 91.51 556.055 89.65 554.435 87.25C552.875 84.85 552.095 82.12 552.095 79.06V64.48C552.095 61.3 552.875 58.48 554.435 56.02C556.055 53.56 558.275 51.64 561.095 50.26C563.915 48.88 567.155 48.19 570.815 48.19C574.235 48.19 577.265 48.7 579.905 49.72C582.605 50.68 584.705 52.06 586.205 53.86C587.705 55.66 588.455 57.7 588.455 59.98C588.455 61.48 587.855 62.71 586.655 63.67C585.515 64.57 584.015 64.96 582.155 64.84C582.155 61.96 581.105 59.62 579.005 57.82C576.965 56.02 574.295 55.12 570.995 55.12C567.695 55.12 565.025 56.02 562.985 57.82C560.945 59.56 559.925 61.84 559.925 64.66V78.7C559.925 81.4 560.975 83.62 563.075 85.36C565.175 87.04 567.875 87.88 571.175 87.88C574.475 87.88 577.145 86.98 579.185 85.18C581.285 83.38 582.335 81.07 582.335 78.25C584.255 78.13 585.785 78.52 586.925 79.42C588.125 80.26 588.725 81.46 588.725 83.02C588.725 85.3 587.975 87.34 586.475 89.14C584.975 90.94 582.875 92.35 580.175 93.37C577.475 94.33 574.415 94.81 570.995 94.81ZM604.99 41.44C603.31 41.44 601.9 40.9 600.76 39.82C599.62 38.74 599.05 37.39 599.05 35.77C599.05 34.15 599.62 32.83 600.76 31.81C601.9 30.73 603.31 30.19 604.99 30.19C606.61 30.19 607.99 30.73 609.13 31.81C610.27 32.83 610.84 34.15 610.84 35.77C610.84 37.39 610.27 38.74 609.13 39.82C607.99 40.9 606.61 41.44 604.99 41.44ZM601.03 53.95C601.03 51.97 601.66 50.53 602.92 49.63C604.24 48.67 606.22 48.19 608.86 48.19V89.05C608.86 91.03 608.2 92.5 606.88 93.46C605.62 94.36 603.67 94.81 601.03 94.81V53.95ZM638.424 94.81C633.264 94.81 629.094 93.43 625.914 90.67C622.794 87.91 621.234 84.28 621.234 79.78C621.234 75.22 622.884 71.56 626.184 68.8C629.484 65.98 633.834 64.57 639.234 64.57C644.994 64.57 649.734 66.61 653.454 70.69L653.814 70.33C653.154 69.61 652.404 68.86 651.564 68.08V64.3C651.564 61.24 650.604 58.87 648.684 57.19C646.764 55.51 644.034 54.67 640.494 54.67C634.194 54.67 629.694 57.16 626.994 62.14C626.034 61.66 625.224 61.03 624.564 60.25C623.964 59.41 623.664 58.57 623.664 57.73C623.664 56.11 624.474 54.58 626.094 53.14C627.714 51.64 629.844 50.44 632.484 49.54C635.184 48.64 638.004 48.19 640.944 48.19C646.644 48.19 651.114 49.6 654.354 52.42C657.654 55.24 659.304 59.14 659.304 64.12V88.78C659.304 90.88 658.704 92.41 657.504 93.37C656.304 94.33 654.414 94.81 651.834 94.81V90.58C653.094 89.26 653.784 88.48 653.904 88.24L653.544 87.88C649.644 92.5 644.604 94.81 638.424 94.81ZM639.774 88.6C643.494 88.6 646.404 87.82 648.504 86.26C650.664 84.7 651.744 82.54 651.744 79.78C651.744 77.02 650.694 74.83 648.594 73.21C646.494 71.59 643.614 70.78 639.954 70.78C636.534 70.78 633.834 71.59 631.854 73.21C629.934 74.77 628.974 76.96 628.974 79.78C628.974 82.6 629.904 84.79 631.764 86.35C633.684 87.85 636.354 88.6 639.774 88.6Z"/>
</mask>
<path d="M26.47 32.17L28.5049 34.3744L28.5114 34.3684L26.47 32.17ZM68.32 36.13L66.1987 38.2513L66.2173 38.2699L66.2362 38.2882L68.32 36.13ZM64.27 64.66L62.9812 61.9509L61.27 62.765V64.66H64.27ZM64.27 64.93H61.27V66.9198L63.1031 67.6937L64.27 64.93ZM70.48 70.15L67.925 71.7223L67.9342 71.7372L67.9435 71.752L70.48 70.15ZM70.48 93.01L68.5594 90.7053L68.5594 90.7053L70.48 93.01ZM64.18 94.81H61.18V97.81H64.18V94.81ZM61.75 71.05L59.4514 72.9778L59.4851 73.018L59.5201 73.0569L61.75 71.05ZM33.67 68.26V65.26H30.67V68.26H33.67ZM31.51 93.01L29.5894 90.7053L29.5652 90.7255L29.5415 90.7462L31.51 93.01ZM25.3 94.81H22.3V97.81H25.3V94.81ZM62.02 57.91L59.8673 55.8206L59.8512 55.8371L59.8354 55.8539L62.02 57.91ZM62.2 41.26L60.0453 43.3474L60.0453 43.3474L62.2 41.26ZM33.67 38.38V35.38H30.67V38.38H33.67ZM33.67 60.97H30.67V63.97H33.67V60.97ZM28.3 34.96C28.3 34.5879 28.3893 34.4811 28.5048 34.3744L24.4352 29.9656C22.9907 31.2989 22.3 33.0521 22.3 34.96H28.3ZM28.5114 34.3684C28.7394 34.1566 29.0356 34 29.62 34V28C27.6844 28 25.8806 28.6234 24.4286 29.9716L28.5114 34.3684ZM29.62 34H54.46V28H29.62V34ZM54.46 34C59.6574 34 63.4528 35.5055 66.1987 38.2513L70.4413 34.0087C66.3472 29.9145 60.9027 28 54.46 28V34ZM66.2362 38.2882C69.033 40.9885 70.54 44.6572 70.54 49.63H76.54C76.54 43.3228 74.567 37.9915 70.4038 33.9718L66.2362 38.2882ZM70.54 49.63C70.54 52.7273 69.8678 55.1792 68.6691 57.1226C67.4743 59.0598 65.6359 60.688 62.9812 61.9509L65.5588 67.3691C69.0841 65.692 71.8807 63.3452 73.7759 60.2723C75.6672 57.2058 76.54 53.6127 76.54 49.63H70.54ZM61.27 64.66V64.93H67.27V64.66H61.27ZM63.1031 67.6937C65.2683 68.6079 66.8348 69.9506 67.925 71.7223L73.035 68.5777C71.2452 65.6694 68.6718 63.5321 65.4369 62.1662L63.1031 67.6937ZM67.9435 71.752C69.0193 73.4552 69.64 75.6598 69.64 78.52H75.64C75.64 74.7802 74.8207 71.4048 73.0165 68.548L67.9435 71.752ZM69.64 78.52V87.79H75.64V78.52H69.64ZM69.64 87.79C69.64 89.3912 69.1681 90.1982 68.5594 90.7053L72.4006 95.3147C74.672 93.4218 75.64 90.7488 75.64 87.79H69.64ZM68.5594 90.7053C67.8626 91.286 66.5598 91.81 64.18 91.81V97.81C67.3202 97.81 70.2174 97.134 72.4006 95.3147L68.5594 90.7053ZM67.18 94.81V79.06H61.18V94.81H67.18ZM67.18 79.06C67.18 75.1153 66.2822 71.6012 63.9799 69.0431L59.5201 73.0569C60.4578 74.0988 61.18 75.9247 61.18 79.06H67.18ZM64.0486 69.1222C61.764 66.3982 58.4645 65.26 54.73 65.26V71.26C57.2355 71.26 58.616 71.9818 59.4514 72.9778L64.0486 69.1222ZM54.73 65.26H33.67V71.26H54.73V65.26ZM30.67 68.26V87.79H36.67V68.26H30.67ZM30.67 87.79C30.67 89.3912 30.198 90.1982 29.5894 90.7053L33.4306 95.3147C35.702 93.4218 36.67 90.7488 36.67 87.79H30.67ZM29.5415 90.7462C28.9266 91.2809 27.6924 91.81 25.3 91.81V97.81C28.4276 97.81 31.3334 97.1391 33.4785 95.2738L29.5415 90.7462ZM28.3 94.81V34.96H22.3V94.81H28.3ZM54.19 63.97C58.1572 63.97 61.6166 62.7158 64.2046 59.9661L59.8354 55.8539C58.5834 57.1842 56.8228 57.97 54.19 57.97V63.97ZM64.1727 59.9994C66.8218 57.27 67.99 53.6588 67.99 49.54H61.99C61.99 52.5012 61.1782 54.4699 59.8673 55.8206L64.1727 59.9994ZM67.99 49.54C67.99 45.4376 66.9229 41.8237 64.3547 39.1726L60.0453 43.3474C61.1971 44.5363 61.99 46.4424 61.99 49.54H67.99ZM64.3547 39.1726C61.773 36.5076 58.2255 35.38 54.19 35.38V41.38C57.1145 41.38 58.907 42.1724 60.0453 43.3474L64.3547 39.1726ZM54.19 35.38H33.67V41.38H54.19V35.38ZM30.67 38.38V60.97H36.67V38.38H30.67ZM33.67 63.97H54.19V57.97H33.67V63.97ZM85.3863 90.67L83.3985 92.917L83.4091 92.9264L83.4198 92.9357L85.3863 90.67ZM85.6563 68.8L87.5809 71.1012L87.5931 71.091L87.6052 71.0807L85.6563 68.8ZM112.926 70.69L110.709 72.7113L112.826 75.0328L115.048 72.8113L112.926 70.69ZM113.286 70.33L115.408 72.4513L117.439 70.4202L115.498 68.3028L113.286 70.33ZM111.036 68.08H108.036V69.3882L108.995 70.2784L111.036 68.08ZM86.4663 62.14L85.1246 64.8233L87.7203 66.1212L89.1036 63.5699L86.4663 62.14ZM84.0363 60.25L81.595 61.9937L81.6666 62.0939L81.7461 62.1878L84.0363 60.25ZM85.5663 53.14L87.5593 55.3822L87.5821 55.362L87.6045 55.3413L85.5663 53.14ZM91.9563 49.54L91.0076 46.6939L90.9979 46.6972L90.9882 46.7005L91.9563 49.54ZM113.826 52.42L111.857 54.6829L111.867 54.6919L111.877 54.7007L113.826 52.42ZM116.976 93.37L115.102 91.0274L115.102 91.0274L116.976 93.37ZM111.306 94.81H108.306V97.81H111.306V94.81ZM111.306 90.58L109.136 88.5086L108.306 89.378V90.58H111.306ZM113.376 88.24L116.06 89.5816L117.027 87.6476L115.498 86.1187L113.376 88.24ZM113.016 87.88L115.138 85.7587L112.829 83.4505L110.724 85.9448L113.016 87.88ZM107.976 86.26L106.22 83.828L106.203 83.8398L106.187 83.8518L107.976 86.26ZM108.066 73.21L106.234 75.5853L106.234 75.5853L108.066 73.21ZM91.3263 73.21L93.218 75.5384L93.226 75.5319L91.3263 73.21ZM91.2363 86.35L89.3084 88.6486L89.3483 88.682L89.3893 88.7141L91.2363 86.35ZM97.8963 91.81C93.2892 91.81 89.8713 90.5903 87.3527 88.4043L83.4198 92.9357C87.2612 96.2697 92.1833 97.81 97.8963 97.81V91.81ZM87.374 88.423C84.9537 86.282 83.7063 83.4983 83.7063 79.78H77.7063C77.7063 85.0617 79.5788 89.538 83.3985 92.917L87.374 88.423ZM83.7063 79.78C83.7063 76.0475 85.0078 73.2533 87.5809 71.1012L83.7316 66.4988C79.7047 69.8667 77.7063 74.3925 77.7063 79.78H83.7063ZM87.6052 71.0807C90.239 68.83 93.8406 67.57 98.7063 67.57V61.57C92.7719 61.57 87.6735 63.13 83.7073 66.5193L87.6052 71.0807ZM98.7063 67.57C103.664 67.57 107.585 69.2846 110.709 72.7113L115.143 68.6687C110.827 63.9354 105.269 61.57 98.7063 61.57V67.57ZM115.048 72.8113L115.408 72.4513L111.165 68.2087L110.805 68.5687L115.048 72.8113ZM115.498 68.3028C114.775 67.5144 113.967 66.7073 113.078 65.8816L108.995 70.2784C109.786 71.0127 110.478 71.7056 111.075 72.3572L115.498 68.3028ZM114.036 68.08V64.3H108.036V68.08H114.036ZM114.036 64.3C114.036 60.5637 112.833 57.2954 110.132 54.9323L106.181 59.4477C107.32 60.4445 108.036 61.9163 108.036 64.3H114.036ZM110.132 54.9323C107.485 52.6163 103.952 51.67 99.9663 51.67V57.67C103.061 57.67 104.988 58.4037 106.181 59.4477L110.132 54.9323ZM99.9663 51.67C96.4214 51.67 93.1979 52.372 90.4138 53.9126C87.6127 55.4625 85.4231 57.7698 83.8289 60.7101L89.1036 63.5699C90.2094 61.5302 91.6198 60.1025 93.3187 59.1624C95.0346 58.213 97.2111 57.67 99.9663 57.67V51.67ZM87.8079 59.4567C87.1926 59.1491 86.7108 58.7665 86.3264 58.3122L81.7461 62.1878C82.6817 63.2935 83.8199 64.1709 85.1246 64.8233L87.8079 59.4567ZM86.4775 58.5063C86.1565 58.0569 86.1363 57.8137 86.1363 57.73H80.1363C80.1363 59.3263 80.716 60.7631 81.595 61.9937L86.4775 58.5063ZM86.1363 57.73C86.1363 57.2304 86.3522 56.4553 87.5593 55.3822L83.5732 50.8978C81.5403 52.7047 80.1363 54.9896 80.1363 57.73H86.1363ZM87.6045 55.3413C88.8466 54.1912 90.5806 53.1785 92.9243 52.3795L90.9882 46.7005C88.0519 47.7015 85.5259 49.0888 83.528 50.9387L87.6045 55.3413ZM92.9049 52.386C95.289 51.5914 97.7879 51.19 100.416 51.19V45.19C97.1646 45.19 94.0235 45.6886 91.0076 46.6939L92.9049 52.386ZM100.416 51.19C105.632 51.19 109.32 52.4751 111.857 54.6829L115.796 50.1571C111.852 46.7249 106.6 45.19 100.416 45.19V51.19ZM111.877 54.7007C114.408 56.8634 115.776 59.8734 115.776 64.12H121.776C121.776 58.4065 119.844 53.6166 115.775 50.1393L111.877 54.7007ZM115.776 64.12V88.78H121.776V64.12H115.776ZM115.776 88.78C115.776 90.3236 115.353 90.8266 115.102 91.0274L118.85 95.7126C120.999 93.9934 121.776 91.4364 121.776 88.78H115.776ZM115.102 91.0274C114.69 91.357 113.628 91.81 111.306 91.81V97.81C114.145 97.81 116.862 97.303 118.85 95.7126L115.102 91.0274ZM114.306 94.81V90.58H108.306V94.81H114.306ZM113.476 92.6514C114.116 91.9811 114.634 91.4245 115.016 90.9927C115.205 90.7784 115.381 90.573 115.529 90.3869C115.628 90.2616 115.875 89.9508 116.06 89.5816L110.693 86.8984C110.774 86.7368 110.845 86.6372 110.847 86.6349C110.86 86.6165 110.857 86.6212 110.83 86.6556C110.775 86.7245 110.677 86.8416 110.522 87.0173C110.214 87.3655 109.756 87.8589 109.136 88.5086L113.476 92.6514ZM115.498 86.1187L115.138 85.7587L110.895 90.0013L111.255 90.3613L115.498 86.1187ZM110.724 85.9448C107.408 89.8725 103.215 91.81 97.8963 91.81V97.81C104.937 97.81 110.824 95.1275 115.309 89.8152L110.724 85.9448ZM99.2463 91.6C103.347 91.6 106.97 90.7445 109.765 88.6682L106.187 83.8518C104.782 84.8955 102.585 85.6 99.2463 85.6V91.6ZM109.733 88.692C112.706 86.5445 114.216 83.4625 114.216 79.78H108.216C108.216 81.6175 107.566 82.8555 106.22 83.828L109.733 88.692ZM114.216 79.78C114.216 76.1341 112.769 73.049 109.899 70.8347L106.234 75.5853C107.563 76.611 108.216 77.9059 108.216 79.78H114.216ZM109.899 70.8347C107.106 68.6806 103.501 67.78 99.4263 67.78V73.78C102.671 73.78 104.826 74.4994 106.234 75.5853L109.899 70.8347ZM99.4263 67.78C95.5477 67.78 92.0993 68.7013 89.4265 70.8881L93.226 75.5319C94.5132 74.4787 96.4648 73.78 99.4263 73.78V67.78ZM89.4345 70.8817C86.7099 73.0954 85.4463 76.1989 85.4463 79.78H91.4463C91.4463 77.7211 92.1026 76.4446 93.218 75.5383L89.4345 70.8817ZM85.4463 79.78C85.4463 83.3274 86.6553 86.4234 89.3084 88.6486L93.1641 84.0514C92.0972 83.1566 91.4463 81.8726 91.4463 79.78H85.4463ZM89.3893 88.7141C92.0131 90.7639 95.4216 91.6 99.2463 91.6V85.6C96.2309 85.6 94.2994 84.9361 93.0832 83.9859L89.3893 88.7141ZM134.815 90.58L132.801 92.8036L132.823 92.8235L132.845 92.8429L134.815 90.58ZM132.295 55.66L134.82 57.279L134.829 57.2645L134.839 57.25L132.295 55.66ZM138.505 50.17L139.797 52.8774L139.809 52.8714L139.822 52.8652L138.505 50.17ZM155.605 49.99L154.263 52.6733L154.29 52.6868L154.317 52.6998L155.605 49.99ZM161.905 54.58L159.716 56.6318L162.433 59.5301L164.477 56.1235L161.905 54.58ZM162.175 54.13L164.747 55.6735L165.749 54.0043L164.632 52.4096L162.175 54.13ZM160.285 52.15H157.285V53.5298L158.332 54.4278L160.285 52.15ZM162.265 31.81L164.099 34.1838L164.132 34.1583L164.164 34.1319L162.265 31.81ZM168.205 30.19H171.205V27.19H168.205V30.19ZM166.405 93.1L164.338 90.925L164.31 90.9515L164.283 90.9787L166.405 93.1ZM160.825 94.81H157.825V97.81H160.825V94.81ZM160.825 89.77L158.456 87.9282L157.825 88.7407V89.77H160.825ZM162.535 87.43L165.079 89.02L166.169 87.2756L164.935 85.63L162.535 87.43ZM162.265 87.07L164.665 85.27L162.341 82.172L159.922 85.1959L162.265 87.07ZM155.875 92.74L154.351 90.1559L154.351 90.1559L155.875 92.74ZM157.135 85.45L158.935 87.85L158.956 87.8342L158.976 87.8181L157.135 85.45ZM157.315 57.64L155.407 59.9558L155.428 59.9727L155.449 59.9893L157.315 57.64ZM140.755 57.55L142.646 59.8784L142.654 59.8719L140.755 57.55ZM140.755 85.54L138.863 87.8683L138.88 87.8825L138.898 87.8965L140.755 85.54ZM147.415 91.81C142.826 91.81 139.373 90.5703 136.784 88.3171L132.845 92.8429C136.736 96.2297 141.683 97.81 147.415 97.81V91.81ZM136.828 88.3564C134.346 86.1083 133.045 83.1418 133.045 79.15H127.045C127.045 84.6382 128.923 89.2917 132.801 92.8036L136.828 88.3564ZM133.045 79.15V63.76H127.045V79.15H133.045ZM133.045 63.76C133.045 61.2139 133.661 59.0876 134.82 57.279L129.769 54.041C127.928 56.9124 127.045 60.1861 127.045 63.76H133.045ZM134.839 57.25C136.026 55.3508 137.654 53.9003 139.797 52.8774L137.212 47.4626C134.076 48.9597 131.564 51.1692 129.751 54.07L134.839 57.25ZM139.822 52.8652C142.052 51.7751 144.679 51.19 147.775 51.19V45.19C143.91 45.19 140.357 45.9249 137.187 47.4748L139.822 52.8652ZM147.775 51.19C150.153 51.19 152.301 51.6922 154.263 52.6733L156.946 47.3067C154.108 45.8878 151.036 45.19 147.775 45.19V51.19ZM154.317 52.6998C156.382 53.6804 158.175 54.9883 159.716 56.6318L164.093 52.5282C162.034 50.3317 159.627 48.5796 156.892 47.2802L154.317 52.6998ZM164.477 56.1235L164.747 55.6735L159.602 52.5865L159.332 53.0365L164.477 56.1235ZM164.632 52.4096C164.014 51.5271 163.181 50.6818 162.237 49.8722L158.332 54.4278C159.068 55.0582 159.495 55.5329 159.717 55.8504L164.632 52.4096ZM163.285 52.15V36.31H157.285V52.15H163.285ZM163.285 36.31C163.285 35.0642 163.656 34.5264 164.099 34.1838L160.43 29.4361C158.233 31.1336 157.285 33.5958 157.285 36.31H163.285ZM164.164 34.1319C164.724 33.6741 165.897 33.19 168.205 33.19V27.19C165.232 27.19 162.445 27.7858 160.365 29.4881L164.164 34.1319ZM165.205 30.19V88.42H171.205V30.19H165.205ZM165.205 88.42C165.205 89.752 164.827 90.4612 164.338 90.925L168.471 95.275C170.383 93.4588 171.205 91.048 171.205 88.42H165.205ZM164.283 90.9787C163.964 91.2982 163.068 91.81 160.825 91.81V97.81C163.741 97.81 166.565 97.1818 168.526 95.2213L164.283 90.9787ZM163.825 94.81V89.77H157.825V94.81H163.825ZM163.193 91.6118C164.032 90.5321 164.688 89.6441 165.079 89.02L159.991 85.84C159.781 86.1759 159.297 86.8479 158.456 87.9282L163.193 91.6118ZM164.935 85.63L164.665 85.27L159.865 88.87L160.135 89.23L164.935 85.63ZM159.922 85.1959C158.2 87.3486 156.338 88.9836 154.351 90.1559L157.398 95.3241C160.091 93.7364 162.489 91.5914 164.607 88.9441L159.922 85.1959ZM154.351 90.1559C152.562 91.2106 150.294 91.81 147.415 91.81V97.81C151.136 97.81 154.507 97.0294 157.398 95.3241L154.351 90.1559ZM149.125 90.88C152.834 90.88 156.167 89.9255 158.935 87.85L155.335 83.05C153.782 84.2145 151.775 84.88 149.125 84.88V90.88ZM158.976 87.8181C161.773 85.6427 163.375 82.7385 163.375 79.24H157.375C157.375 80.6615 156.816 81.8973 155.293 83.0819L158.976 87.8181ZM163.375 79.24V63.67H157.375V79.24H163.375ZM163.375 63.67C163.375 60.2688 161.867 57.424 159.18 55.2907L155.449 59.9893C156.842 61.096 157.375 62.2712 157.375 63.67H163.375ZM159.222 55.3242C156.495 53.0785 152.988 52.12 149.035 52.12V58.12C152.041 58.12 154.054 58.8415 155.407 59.9558L159.222 55.3242ZM149.035 52.12C145.065 52.12 141.544 53.0277 138.855 55.2281L142.654 59.8719C143.925 58.8323 145.924 58.12 149.035 58.12V52.12ZM138.863 55.2217C136.138 57.4354 134.875 60.5389 134.875 64.12H140.875C140.875 62.0611 141.531 60.7846 142.646 59.8783L138.863 55.2217ZM134.875 64.12V78.79H140.875V64.12H134.875ZM134.875 78.79C134.875 82.4442 136.107 85.6292 138.863 87.8683L142.646 83.2117C141.562 82.3308 140.875 81.0158 140.875 78.79H134.875ZM138.898 87.8965C141.592 90.0191 145.132 90.88 149.125 90.88V84.88C145.917 84.88 143.877 84.1809 142.611 83.1835L138.898 87.8965ZM182.489 39.82L184.552 37.6421L184.552 37.6421L182.489 39.82ZM182.489 31.81L184.489 34.0457L184.521 34.0172L184.552 33.9879L182.489 31.81ZM190.859 31.81L188.795 33.9879L188.826 34.0172L188.858 34.0457L190.859 31.81ZM190.859 39.82L188.795 37.6421L188.795 37.6421L190.859 39.82ZM184.649 49.63L186.392 52.0712L186.403 52.0637L186.413 52.0562L184.649 49.63ZM190.589 48.19H193.589V45.19H190.589V48.19ZM188.609 93.46L190.352 95.9012L190.363 95.8937L190.373 95.8862L188.609 93.46ZM182.759 94.81H179.759V97.81H182.759V94.81ZM186.719 38.44C185.747 38.44 185.093 38.1551 184.552 37.6421L180.425 41.9979C182.164 43.6449 184.33 44.44 186.719 44.44V38.44ZM184.552 37.6421C184.031 37.1486 183.779 36.5956 183.779 35.77H177.779C177.779 38.1844 178.666 40.3314 180.425 41.9979L184.552 37.6421ZM183.779 35.77C183.779 34.9465 184.026 34.4597 184.489 34.0457L180.488 29.5743C178.671 31.2003 177.779 33.3535 177.779 35.77H183.779ZM184.552 33.9879C185.093 33.4749 185.747 33.19 186.719 33.19V27.19C184.33 27.19 182.164 27.9851 180.425 29.6321L184.552 33.9879ZM186.719 33.19C187.598 33.19 188.232 33.454 188.795 33.9879L192.922 29.6321C191.205 28.006 189.079 27.19 186.719 27.19V33.19ZM188.858 34.0457C189.321 34.4597 189.569 34.9465 189.569 35.77H195.569C195.569 33.3535 194.676 31.2003 192.859 29.5743L188.858 34.0457ZM189.569 35.77C189.569 36.5956 189.316 37.1486 188.795 37.6421L192.922 41.9979C194.681 40.3314 195.569 38.1844 195.569 35.77H189.569ZM188.795 37.6421C188.232 38.176 187.598 38.44 186.719 38.44V44.44C189.079 44.44 191.205 43.624 192.922 41.9979L188.795 37.6421ZM185.759 53.95C185.759 52.639 186.137 52.2538 186.392 52.0712L182.905 47.1888C180.64 48.8062 179.759 51.301 179.759 53.95H185.759ZM186.413 52.0562C186.991 51.6361 188.223 51.19 190.589 51.19V45.19C187.674 45.19 184.946 45.7039 182.884 47.2038L186.413 52.0562ZM187.589 48.19V89.05H193.589V48.19H187.589ZM187.589 89.05C187.589 90.3006 187.219 90.7614 186.844 91.0338L190.373 95.8862C192.639 94.2386 193.589 91.7594 193.589 89.05H187.589ZM186.865 91.0188C186.361 91.3786 185.168 91.81 182.759 91.81V97.81C185.629 97.81 188.336 97.3414 190.352 95.9012L186.865 91.0188ZM185.759 94.81V53.95H179.759V94.81H185.759ZM210.037 92.74L208.762 95.4557L208.773 95.4606L208.783 95.4655L210.037 92.74ZM203.107 87.16L200.62 88.8384L200.645 88.8744L200.67 88.9096L203.107 87.16ZM203.107 56.2L200.63 54.5081L200.615 54.529L200.601 54.55L203.107 56.2ZM210.037 50.35L208.717 47.6558L208.717 47.6558L210.037 50.35ZM230.017 50.35L228.697 53.0442L228.708 53.0494L228.719 53.0546L230.017 50.35ZM236.947 56.2L234.441 57.85L234.455 57.871L234.47 57.8919L236.947 56.2ZM236.947 87.16L239.384 88.9096L239.394 88.8951L239.405 88.8804L236.947 87.16ZM230.017 92.74L228.742 90.0243L230.017 92.74ZM228.577 85.54L230.451 87.8826L230.459 87.8763L228.577 85.54ZM228.577 57.64L226.625 59.9178L226.64 59.9313L226.656 59.9447L228.577 57.64ZM211.387 85.54L209.473 87.8501L209.509 87.8796L209.545 87.9081L211.387 85.54ZM220.027 91.81C216.753 91.81 213.857 91.1949 211.291 90.0145L208.783 95.4655C212.217 97.0451 215.981 97.81 220.027 97.81V91.81ZM211.312 90.0243C208.775 88.8337 206.889 87.2837 205.544 85.4104L200.67 88.9096C202.685 91.7163 205.419 93.8863 208.762 95.4557L211.312 90.0243ZM205.593 85.4816C204.314 83.5854 203.677 81.5016 203.677 79.15H197.677C197.677 82.6784 198.66 85.9346 200.62 88.8384L205.593 85.4816ZM203.677 79.15V64.39H197.677V79.15H203.677ZM203.677 64.39C203.677 61.965 204.321 59.8106 205.612 57.85L200.601 54.55C198.653 57.5094 197.677 60.815 197.677 64.39H203.677ZM205.584 57.8919C206.943 55.902 208.835 54.2791 211.357 53.0442L208.717 47.6558C205.359 49.3009 202.631 51.578 200.63 54.5081L205.584 57.8919ZM211.357 53.0442C213.833 51.8313 216.702 51.19 220.027 51.19V45.19C215.912 45.19 212.121 45.9887 208.717 47.6558L211.357 53.0442ZM220.027 51.19C223.352 51.19 226.221 51.8313 228.697 53.0442L231.337 47.6558C227.933 45.9887 224.142 45.19 220.027 45.19V51.19ZM228.719 53.0546C231.293 54.2903 233.158 55.9013 234.441 57.85L239.452 54.55C237.496 51.5787 234.741 49.2897 231.315 47.6454L228.719 53.0546ZM234.47 57.8919C235.807 59.8496 236.467 61.9891 236.467 64.39H242.467C242.467 60.7909 241.447 57.4704 239.424 54.5081L234.47 57.8919ZM236.467 64.39V79.15H242.467V64.39H236.467ZM236.467 79.15C236.467 81.4768 235.815 83.5458 234.489 85.4396L239.405 88.8804C241.439 85.9742 242.467 82.7032 242.467 79.15H236.467ZM234.51 85.4104C233.165 87.2837 231.279 88.8337 228.742 90.0243L231.292 95.4557C234.635 93.8863 237.369 91.7163 239.384 88.9096L234.51 85.4104ZM228.742 90.0243C226.255 91.1916 223.37 91.81 220.027 91.81V97.81C224.124 97.81 227.899 97.0484 231.292 95.4557L228.742 90.0243ZM220.027 91.06C224.078 91.06 227.663 90.1128 230.451 87.8826L226.703 83.1974C225.291 84.3272 223.176 85.06 220.027 85.06V91.06ZM230.459 87.8763C233.322 85.5701 234.817 82.463 234.817 78.79H228.817C228.817 80.637 228.152 82.0299 226.695 83.2037L230.459 87.8763ZM234.817 78.79V64.66H228.817V78.79H234.817ZM234.817 64.66C234.817 60.9146 233.36 57.7211 230.498 55.3353L226.656 59.9447C228.113 61.1589 228.817 62.6454 228.817 64.66H234.817ZM230.529 55.3622C227.739 52.9706 224.123 51.94 220.027 51.94V57.94C223.131 57.94 225.215 58.7094 226.625 59.9178L230.529 55.3622ZM220.027 51.94C215.972 51.94 212.383 52.9796 209.556 55.3353L213.398 59.9447C214.891 58.7004 217.002 57.94 220.027 57.94V51.94ZM209.556 55.3353C206.693 57.7211 205.237 60.9146 205.237 64.66H211.237C211.237 62.6454 211.94 61.1589 213.398 59.9447L209.556 55.3353ZM205.237 64.66V78.79H211.237V64.66H205.237ZM205.237 78.79C205.237 82.4308 206.676 85.5322 209.473 87.8501L213.301 83.2299C211.898 82.0678 211.237 80.6692 211.237 78.79H205.237ZM209.545 87.9081C212.377 90.1106 215.971 91.06 220.027 91.06V85.06C216.883 85.06 214.717 84.3294 213.229 83.1719L209.545 87.9081ZM250.138 55.3H253.138V52.3H250.138V55.3ZM242.668 55.3H239.668V58.3H242.668V55.3ZM250.138 49V52H253.138V49H250.138ZM253.468 33.97L255.695 35.9799L255.707 35.9666L255.719 35.9531L253.468 33.97ZM269.308 31.9L267.397 34.2129L267.427 34.2381L267.459 34.2625L269.308 31.9ZM270.208 38.74L268.701 41.3344L270.697 42.4932L272.329 40.8613L270.208 38.74ZM257.968 49H254.968V52H257.968V49ZM269.218 49H272.218V46H269.218V49ZM267.778 53.77L265.593 51.7139L265.56 51.749L265.528 51.7851L267.778 53.77ZM257.968 55.3V52.3H254.968V55.3H257.968ZM255.988 93.46L257.731 95.9012L257.742 95.8937L257.752 95.8862L255.988 93.46ZM250.138 94.81H247.138V97.81H250.138V94.81ZM250.138 52.3H242.668V58.3H250.138V52.3ZM245.668 55.3C245.668 53.484 246.02 52.6675 246.246 52.364C246.347 52.2275 246.53 52 247.348 52V46C245.045 46 242.888 46.8225 241.429 48.786C240.095 50.5825 239.668 52.916 239.668 55.3H245.668ZM247.348 52H250.138V46H247.348V52ZM253.138 49V43.51H247.138V49H253.138ZM253.138 43.51C253.138 40.2132 254.058 37.7933 255.695 35.9799L251.24 31.9601C248.437 35.0667 247.138 39.0068 247.138 43.51H253.138ZM255.719 35.9531C257.2 34.2713 259.586 33.19 263.458 33.19V27.19C258.449 27.19 254.175 28.6287 251.217 31.9869L255.719 35.9531ZM263.458 33.19C265.561 33.19 266.737 33.6677 267.397 34.2129L271.218 29.5871C269.118 27.8523 266.395 27.19 263.458 27.19V33.19ZM267.459 34.2625C268.287 34.9109 268.378 35.3641 268.378 35.68H274.378C274.378 33.1159 273.088 31.0491 271.157 29.5375L267.459 34.2625ZM268.378 35.68C268.378 36.2673 268.222 36.4827 268.086 36.6187L272.329 40.8613C273.753 39.4373 274.378 37.6127 274.378 35.68H268.378ZM271.714 36.1456C269.394 34.7987 266.864 34.12 264.178 34.12V40.12C265.811 40.12 267.301 40.5212 268.701 41.3344L271.714 36.1456ZM264.178 34.12C261.559 34.12 258.941 34.7493 257.165 36.7469L261.65 40.7331C261.794 40.5707 262.356 40.12 264.178 40.12V34.12ZM257.165 36.7469C255.493 38.6287 254.968 41.2236 254.968 43.87H260.968C260.968 41.8363 261.402 41.0113 261.65 40.7331L257.165 36.7469ZM254.968 43.87V49H260.968V43.87H254.968ZM257.968 52H269.218V46H257.968V52ZM266.218 49C266.218 50.797 265.807 51.4863 265.593 51.7139L269.962 55.8261C271.668 54.0137 272.218 51.523 272.218 49H266.218ZM265.528 51.7851C265.401 51.9286 264.972 52.3 263.548 52.3V58.3C265.963 58.3 268.354 57.6514 270.027 55.7549L265.528 51.7851ZM263.548 52.3H257.968V58.3H263.548V52.3ZM254.968 55.3V89.05H260.968V55.3H254.968ZM254.968 89.05C254.968 90.3006 254.598 90.7614 254.223 91.0338L257.752 95.8862C260.018 94.2386 260.968 91.7594 260.968 89.05H254.968ZM254.244 91.0188C253.74 91.3786 252.547 91.81 250.138 91.81V97.81C253.008 97.81 255.715 97.3414 257.731 95.9012L254.244 91.0188ZM253.138 94.81V55.3H247.138V94.81H253.138ZM287.915 58.18L289.912 60.4189L289.929 60.4041L289.945 60.389L287.915 58.18ZM282.605 93.46L284.349 95.9012L284.359 95.8937L284.37 95.8862L282.605 93.46ZM276.755 94.81H273.755V97.81H276.755V94.81ZM284.315 48.19H287.315V45.19H284.315V48.19ZM284.315 53.68L286.5 55.7361L287.315 54.8697V53.68H284.315ZM282.335 56.38L279.611 55.1228L278.735 57.0222L280.214 58.5013L282.335 56.38ZM282.695 56.74L280.574 58.8613L283.149 61.4362L285.183 58.4162L282.695 56.74ZM302.045 49.81L299.982 51.9879L300.013 52.0172L300.045 52.0457L302.045 49.81ZM302.945 56.47L301.528 59.1144L303.97 60.4227L305.469 58.0923L302.945 56.47ZM296.285 52.12C292.266 52.12 288.724 53.3627 285.885 55.971L289.945 60.389C291.547 58.9173 293.584 58.12 296.285 58.12V52.12ZM285.918 55.9411C283.084 58.469 281.585 61.7033 281.585 65.47H287.585C287.585 63.4767 288.306 61.851 289.912 60.4189L285.918 55.9411ZM281.585 65.47V89.05H287.585V65.47H281.585ZM281.585 89.05C281.585 90.3006 281.215 90.7614 280.841 91.0338L284.37 95.8862C286.635 94.2386 287.585 91.7594 287.585 89.05H281.585ZM280.861 91.0188C280.358 91.3786 279.165 91.81 276.755 91.81V97.81C279.625 97.81 282.333 97.3414 284.349 95.9012L280.861 91.0188ZM279.755 94.81V54.85H273.755V94.81H279.755ZM279.755 54.85C279.755 53.1981 280.206 52.4777 280.628 52.1061C281.123 51.6705 282.171 51.19 284.315 51.19V45.19C281.42 45.19 278.688 45.8195 276.662 47.6039C274.564 49.4523 273.755 52.0619 273.755 54.85H279.755ZM281.315 48.19V53.68H287.315V48.19H281.315ZM282.13 51.6239C281.07 52.7506 280.165 53.9229 279.611 55.1228L285.059 57.6372C285.225 57.2771 285.64 56.6494 286.5 55.7361L282.13 51.6239ZM280.214 58.5013L280.574 58.8613L284.816 54.6187L284.456 54.2587L280.214 58.5013ZM285.183 58.4162C288.589 53.3601 292.536 51.19 297.095 51.19V45.19C290.134 45.19 284.481 48.7199 280.207 55.0638L285.183 58.4162ZM297.095 51.19C298.78 51.19 299.58 51.6072 299.982 51.9879L304.108 47.6321C302.23 45.8528 299.731 45.19 297.095 45.19V51.19ZM300.045 52.0457C300.563 52.5095 300.755 52.9626 300.755 53.59H306.755C306.755 51.2174 305.807 49.1505 304.045 47.5743L300.045 52.0457ZM300.755 53.59C300.755 54.1436 300.625 54.5312 300.422 54.8477L305.469 58.0923C306.345 56.7288 306.755 55.1964 306.755 53.59H300.755ZM304.362 53.8256C302.094 52.6109 299.333 52.12 296.285 52.12V58.12C298.757 58.12 300.436 58.5291 301.528 59.1144L304.362 53.8256ZM317.467 92.74L316.125 95.4233L316.148 95.4346L316.17 95.4454L317.467 92.74ZM310.717 86.89L308.193 88.5123L308.202 88.5262L308.211 88.54L310.717 86.89ZM310.807 56.47L308.32 54.7926L308.306 54.8127L308.293 54.833L310.807 56.47ZM317.737 50.44L319.078 53.1233L319.089 53.1178L319.1 53.1123L317.737 50.44ZM336.637 50.35L335.272 53.0218L335.284 53.0276L335.295 53.0333L336.637 50.35ZM343.387 56.29L340.863 57.9123L340.877 57.9333L340.891 57.9541L343.387 56.29ZM344.827 73.03L346.854 75.2415L346.854 75.2415L344.827 73.03ZM315.937 74.02V71.02H312.937V74.02H315.937ZM318.817 85.45L316.729 87.6047L316.746 87.6208L316.763 87.6365L318.817 85.45ZM338.527 79.24L338.327 76.2466L335.527 76.4333V79.24H338.527ZM343.027 80.32L341.306 82.7777L341.376 82.8262L341.448 82.8708L343.027 80.32ZM342.397 89.23L340.275 87.1087L340.256 87.128L340.237 87.1476L342.397 89.23ZM335.917 93.28L334.857 90.4736L334.857 90.4736L335.917 93.28ZM338.617 67.9V70.9H341.617V67.9H338.617ZM335.467 57.55L333.411 59.7346L333.444 59.7657L333.478 59.7958L335.467 57.55ZM318.997 57.55L321.018 59.7669L321.021 59.7641L318.997 57.55ZM315.937 67.9H312.937V70.9H315.937V67.9ZM327.277 91.81C324 91.81 321.183 91.1942 318.763 90.0346L316.17 95.4454C319.51 97.0458 323.234 97.81 327.277 97.81V91.81ZM318.808 90.0567C316.355 88.8301 314.525 87.2188 313.222 85.24L308.211 88.54C310.148 91.4812 312.818 93.7699 316.125 95.4233L318.808 90.0567ZM313.24 85.2677C311.945 83.2523 311.287 80.9999 311.287 78.43H305.287C305.287 82.1001 306.249 85.4877 308.193 88.5123L313.24 85.2677ZM311.287 78.43V65.11H305.287V78.43H311.287ZM311.287 65.11C311.287 62.491 311.969 60.1833 313.321 58.107L308.293 54.833C306.285 57.9167 305.287 61.369 305.287 65.11H311.287ZM313.294 58.1474C314.735 56.011 316.644 54.3406 319.078 53.1233L316.395 47.7567C313.07 49.4194 310.359 51.769 308.32 54.7926L313.294 58.1474ZM319.1 53.1123C321.602 51.8356 324.313 51.19 327.277 51.19V45.19C323.4 45.19 319.751 46.0444 316.373 47.7677L319.1 53.1123ZM327.277 51.19C330.261 51.19 332.908 51.8145 335.272 53.0218L338.001 47.6782C334.725 46.0055 331.132 45.19 327.277 45.19V51.19ZM335.295 53.0333C337.73 54.2509 339.556 55.8796 340.863 57.9123L345.91 54.6677C343.977 51.6604 341.303 49.3291 337.978 47.6667L335.295 53.0333ZM340.891 57.9541C342.225 59.9559 342.907 62.2211 342.907 64.84H348.907C348.907 61.0989 347.908 57.6641 345.883 54.6259L340.891 57.9541ZM342.907 64.84V70.6H348.907V64.84H342.907ZM342.907 70.6C342.907 70.6517 342.902 70.6814 342.899 70.6939C342.898 70.7006 342.897 70.7044 342.896 70.7061C342.896 70.7077 342.896 70.7085 342.895 70.7091C342.895 70.7096 342.894 70.7112 342.893 70.7142C342.891 70.7172 342.887 70.7226 342.882 70.7306C342.87 70.7463 342.846 70.7763 342.8 70.8185L346.854 75.2415C348.181 74.0245 348.907 72.4174 348.907 70.6H342.907ZM342.8 70.8185C342.659 70.9472 342.523 71.02 342.217 71.02V77.02C343.951 77.02 345.554 76.4328 346.854 75.2415L342.8 70.8185ZM342.217 71.02H315.937V77.02H342.217V71.02ZM312.937 74.02V78.07H318.937V74.02H312.937ZM312.937 78.07C312.937 81.8139 314.14 85.0962 316.729 87.6047L320.904 83.2953C319.654 82.0838 318.937 80.4461 318.937 78.07H312.937ZM316.763 87.6365C319.469 90.1787 323.124 91.24 327.277 91.24V85.24C324.11 85.24 322.125 84.4413 320.871 83.2635L316.763 87.6365ZM327.277 91.24C331.329 91.24 334.92 90.3485 337.581 88.1029L333.712 83.5171C332.534 84.5115 330.544 85.24 327.277 85.24V91.24ZM337.581 88.1029C340.249 85.8522 341.527 82.7853 341.527 79.24H335.527C335.527 81.2147 334.885 82.5278 333.712 83.5171L337.581 88.1029ZM338.726 82.2334C340.007 82.148 340.787 82.4141 341.306 82.7777L344.747 77.8623C342.867 76.5459 340.647 76.092 338.327 76.2466L338.726 82.2334ZM341.448 82.8708C341.769 83.0699 341.917 83.2426 341.917 83.83H347.917C347.917 81.2974 346.804 79.1301 344.606 77.7692L341.448 82.8708ZM341.917 83.83C341.917 84.7743 341.534 85.8497 340.275 87.1087L344.518 91.3513C346.619 89.2503 347.917 86.7257 347.917 83.83H341.917ZM340.237 87.1476C338.99 88.4414 337.237 89.5743 334.857 90.4736L336.977 96.0864C339.996 94.9457 342.564 93.3786 344.556 91.3124L340.237 87.1476ZM334.857 90.4736C332.515 91.358 329.997 91.81 327.277 91.81V97.81C330.677 97.81 333.918 97.242 336.977 96.0864L334.857 90.4736ZM341.617 67.9V64.84H335.617V67.9H341.617ZM341.617 64.84C341.617 61.0486 340.247 57.7768 337.456 55.3042L333.478 59.7958C334.886 61.0432 335.617 62.6314 335.617 64.84H341.617ZM337.523 55.3654C334.809 52.8112 331.283 51.67 327.277 51.67V57.67C330.11 57.67 332.044 58.4488 333.411 59.7346L337.523 55.3654ZM327.277 51.67C323.267 51.67 319.733 52.8121 316.972 55.3359L321.021 59.7641C322.461 58.4479 324.446 57.67 327.277 57.67V51.67ZM316.975 55.3331C314.254 57.8145 312.937 61.0782 312.937 64.84H318.937C318.937 62.6018 319.659 61.0055 321.018 59.7669L316.975 55.3331ZM312.937 64.84V67.9H318.937V64.84H312.937ZM315.937 70.9H338.617V64.9H315.937V70.9ZM385.726 112.81H382.726V115.81H385.726V112.81ZM385.726 90.85L383.774 88.5722L382.726 89.4702V90.85H385.726ZM387.616 88.87L390.074 90.5904L391.19 88.9957L390.189 87.3265L387.616 88.87ZM387.346 88.42L389.919 86.8765L387.872 83.4661L385.155 86.3705L387.346 88.42ZM380.776 93.01L379.535 90.2789L379.523 90.2843L379.511 90.2898L380.776 93.01ZM360.166 90.58L358.176 92.8246L358.186 92.8338L358.197 92.8429L360.166 90.58ZM357.646 55.66L355.131 54.025L355.126 54.033L355.12 54.041L357.646 55.66ZM363.946 50.17L365.238 52.8774L365.251 52.8714L365.264 52.8652L363.946 50.17ZM387.616 55.93L385.236 57.7565L387.319 60.47L389.737 58.0513L387.616 55.93ZM387.976 55.57L390.097 57.6913L391.996 55.7926L390.319 53.6959L387.976 55.57ZM386.176 53.32H383.176V54.3723L383.833 55.1941L386.176 53.32ZM387.886 49.54L389.666 51.9552L389.676 51.9476L389.686 51.94L387.886 49.54ZM393.646 48.19H396.646V45.19H393.646V48.19ZM366.196 85.54L364.296 87.8619L364.318 87.8794L364.339 87.8965L366.196 85.54ZM382.486 85.36L384.296 87.7522L384.296 87.7522L382.486 85.36ZM390.646 106.69C390.646 108.031 390.252 108.582 389.832 108.906C389.265 109.344 388.063 109.81 385.726 109.81V115.81C388.669 115.81 391.427 115.256 393.5 113.654C395.72 111.938 396.646 109.429 396.646 106.69H390.646ZM388.726 112.81V90.85H382.726V112.81H388.726ZM387.678 93.1278C388.623 92.3182 389.456 91.4729 390.074 90.5904L385.158 87.1496C384.936 87.4671 384.509 87.9418 383.774 88.5722L387.678 93.1278ZM390.189 87.3265L389.919 86.8765L384.774 89.9635L385.044 90.4135L390.189 87.3265ZM385.155 86.3705C383.719 87.9062 381.866 89.2193 379.535 90.2789L382.018 95.7411C384.966 94.4007 387.494 92.6538 389.537 90.4695L385.155 86.3705ZM379.511 90.2898C377.296 91.3201 375.116 91.81 372.946 91.81V97.81C376.056 97.81 379.096 97.0999 382.041 95.7302L379.511 90.2898ZM372.946 91.81C368.217 91.81 364.712 90.5595 362.136 88.3171L358.197 92.8429C362.1 96.2405 367.115 97.81 372.946 97.81V91.81ZM362.157 88.3354C359.697 86.1541 358.396 83.2322 358.396 79.24H352.396C352.396 84.7278 354.275 89.3659 358.176 92.8246L362.157 88.3354ZM358.396 79.24V63.85H352.396V79.24H358.396ZM358.396 63.85C358.396 61.2314 359.018 59.0782 360.172 57.279L355.12 54.041C353.274 56.9218 352.396 60.2286 352.396 63.85H358.396ZM360.161 57.295C361.413 55.3689 363.085 53.9049 365.238 52.8774L362.654 47.4626C359.527 48.9551 356.999 51.1511 355.131 54.025L360.161 57.295ZM365.264 52.8652C367.522 51.7611 370.036 51.19 372.856 51.19V45.19C369.196 45.19 365.77 45.9389 362.628 47.4748L365.264 52.8652ZM372.856 51.19C377.695 51.19 381.775 53.2461 385.236 57.7565L389.996 54.1035C385.537 48.2939 379.777 45.19 372.856 45.19V51.19ZM389.737 58.0513L390.097 57.6913L385.855 53.4487L385.495 53.8087L389.737 58.0513ZM390.319 53.6959L388.519 51.4459L383.833 55.1941L385.633 57.4441L390.319 53.6959ZM389.176 53.32C389.176 52.3921 389.442 52.1202 389.666 51.9552L386.107 47.1248C384.05 48.6398 383.176 50.8879 383.176 53.32H389.176ZM389.686 51.94C390.101 51.6289 391.217 51.19 393.646 51.19V45.19C390.795 45.19 388.071 45.6511 386.086 47.14L389.686 51.94ZM390.646 48.19V106.69H396.646V48.19H390.646ZM374.566 52.12C370.574 52.12 367.034 52.9809 364.339 55.1035L368.053 59.8165C369.319 58.8191 371.359 58.12 374.566 58.12V52.12ZM364.339 55.1035C361.512 57.3309 360.226 60.5227 360.226 64.21H366.226C366.226 62.0173 366.92 60.7091 368.053 59.8165L364.339 55.1035ZM360.226 64.21V78.88H366.226V64.21H360.226ZM360.226 78.88C360.226 82.4953 361.543 85.609 364.296 87.8619L368.096 83.2181C366.889 82.231 366.226 80.9047 366.226 78.88H360.226ZM364.339 87.8965C367.018 90.0067 370.485 90.88 374.386 90.88V84.88C371.327 84.88 369.334 84.1933 368.053 83.1835L364.339 87.8965ZM374.386 90.88C378.122 90.88 381.483 89.8814 384.296 87.7522L380.676 82.9678C379.049 84.1986 377.01 84.88 374.386 84.88V90.88ZM384.296 87.7522C387.106 85.6262 388.816 82.7937 388.816 79.33H382.816C382.816 80.5463 382.306 81.7338 380.676 82.9678L384.296 87.7522ZM388.816 79.33V63.76H382.816V79.33H388.816ZM388.816 63.76C388.816 60.2963 387.192 57.4299 384.418 55.2719L380.734 60.0081C382.28 61.2101 382.816 62.4237 382.816 63.76H388.816ZM384.418 55.2719C381.649 53.1181 378.3 52.12 374.566 52.12V58.12C377.192 58.12 379.183 58.8019 380.734 60.0081L384.418 55.2719ZM435.918 94.81H432.918V97.81H435.918V94.81ZM435.918 89.05L433.797 86.9287L432.918 87.8074V89.05H435.918ZM437.808 86.62L440.304 88.2841L441.668 86.2377L439.929 84.4987L437.808 86.62ZM437.448 86.26L439.569 84.1387L437.037 81.6062L434.988 84.5435L437.448 86.26ZM430.608 92.47L429.132 89.8583L429.119 89.8653L429.107 89.8724L430.608 92.47ZM413.058 92.74L411.59 95.3564L411.604 95.3639L411.617 95.3713L413.058 92.74ZM407.298 86.98L404.654 88.3985L404.668 88.4232L404.682 88.4478L407.298 86.98ZM407.298 49.63L408.988 52.1087L409.026 52.083L409.062 52.0562L407.298 49.63ZM413.238 48.19H416.238V45.19H413.238V48.19ZM415.758 85.27L413.6 87.3538L413.618 87.3727L413.637 87.3913L415.758 85.27ZM429.528 86.53L430.835 89.2305L430.87 89.2136L430.904 89.1959L429.528 86.53ZM433.938 82.75L431.485 81.0235L431.478 81.0329L431.471 81.0424L433.938 82.75ZM437.538 49.63L439.282 52.0712L439.292 52.0637L439.302 52.0562L437.538 49.63ZM443.478 48.19H446.478V45.19H443.478V48.19ZM440.478 88.15C440.478 89.8019 440.027 90.5223 439.605 90.8939C439.11 91.3295 438.062 91.81 435.918 91.81V97.81C438.813 97.81 441.545 97.1805 443.571 95.3961C445.669 93.5477 446.478 90.9381 446.478 88.15H440.478ZM438.918 94.81V89.05H432.918V94.81H438.918ZM438.039 91.1713C438.782 90.4282 439.539 89.4316 440.304 88.2841L435.312 84.9559C434.637 85.9684 434.133 86.5918 433.797 86.9287L438.039 91.1713ZM439.929 84.4987L439.569 84.1387L435.327 88.3813L435.687 88.7413L439.929 84.4987ZM434.988 84.5435C433.447 86.7522 431.504 88.5175 429.132 89.8583L432.084 95.0817C435.232 93.3025 437.849 90.9278 439.908 87.9765L434.988 84.5435ZM429.107 89.8724C426.882 91.1583 424.432 91.81 421.698 91.81V97.81C425.443 97.81 428.934 96.9017 432.109 95.0676L429.107 89.8724ZM421.698 91.81C418.896 91.81 416.523 91.2173 414.499 90.1087L411.617 95.3713C414.633 97.0227 418.02 97.81 421.698 97.81V91.81ZM414.526 90.1236C412.547 89.0135 411.024 87.491 409.914 85.5122L404.682 88.4478C406.332 91.389 408.649 93.7065 411.59 95.3564L414.526 90.1236ZM409.941 85.5615C408.877 83.5786 408.318 81.3136 408.318 78.7H402.318C402.318 82.2064 403.078 85.4614 404.654 88.3985L409.941 85.5615ZM408.318 78.7V53.95H402.318V78.7H408.318ZM408.318 53.95C408.318 52.6932 408.687 52.3138 408.988 52.1087L405.608 47.1513C403.269 48.7462 402.318 51.2468 402.318 53.95H408.318ZM409.062 52.0562C409.64 51.6361 410.872 51.19 413.238 51.19V45.19C410.324 45.19 407.596 45.7039 405.533 47.2038L409.062 52.0562ZM410.238 48.19V78.34H416.238V48.19H410.238ZM410.238 78.34C410.238 81.8392 411.279 84.9502 413.6 87.3538L417.916 83.1862C416.877 82.1098 416.238 80.6008 416.238 78.34H410.238ZM413.637 87.3913C416.12 89.8744 419.55 90.88 423.408 90.88V84.88C420.546 84.88 418.876 84.1456 417.879 83.1487L413.637 87.3913ZM423.408 90.88C426.046 90.88 428.537 90.342 430.835 89.2305L428.221 83.8295C426.798 84.518 425.21 84.88 423.408 84.88V90.88ZM430.904 89.1959C433.155 88.0343 435.017 86.462 436.405 84.4576L431.471 81.0424C430.699 82.158 429.621 83.1057 428.152 83.8641L430.904 89.1959ZM436.391 84.4765C437.863 82.3858 438.648 80.0492 438.648 77.53H432.648C432.648 78.7308 432.293 79.8742 431.485 81.0235L436.391 84.4765ZM438.648 77.53V53.95H432.648V77.53H438.648ZM438.648 53.95C438.648 52.639 439.026 52.2538 439.282 52.0712L435.794 47.1888C433.53 48.8062 432.648 51.301 432.648 53.95H438.648ZM439.302 52.0562C439.88 51.6361 441.112 51.19 443.478 51.19V45.19C440.564 45.19 437.836 45.7039 435.773 47.2038L439.302 52.0562ZM440.478 48.19V88.15H446.478V48.19H440.478ZM464.332 92.74L462.99 95.4233L463.013 95.4346L463.036 95.4454L464.332 92.74ZM457.582 86.89L455.058 88.5123L455.067 88.5262L455.076 88.54L457.582 86.89ZM457.672 56.47L455.185 54.7926L455.171 54.8127L455.158 54.833L457.672 56.47ZM464.602 50.44L465.944 53.1233L465.955 53.1178L465.965 53.1123L464.602 50.44ZM483.502 50.35L482.138 53.0218L482.149 53.0276L482.16 53.0333L483.502 50.35ZM490.252 56.29L487.728 57.9123L487.742 57.9333L487.756 57.9541L490.252 56.29ZM491.692 73.03L493.719 75.2415L493.719 75.2415L491.692 73.03ZM462.802 74.02V71.02H459.802V74.02H462.802ZM465.682 85.45L463.595 87.6047L463.611 87.6208L463.628 87.6365L465.682 85.45ZM485.392 79.24L485.192 76.2466L482.392 76.4333V79.24H485.392ZM489.892 80.32L488.172 82.7777L488.241 82.8262L488.313 82.8708L489.892 80.32ZM489.262 89.23L487.141 87.1087L487.121 87.128L487.102 87.1476L489.262 89.23ZM482.782 93.28L481.722 90.4736L481.722 90.4736L482.782 93.28ZM485.482 67.9V70.9H488.482V67.9H485.482ZM482.332 57.55L480.276 59.7346L480.309 59.7657L480.343 59.7958L482.332 57.55ZM465.862 57.55L467.883 59.7669L467.886 59.7641L465.862 57.55ZM462.802 67.9H459.802V70.9H462.802V67.9ZM467.392 41.71L469.65 43.6855L469.671 43.6607L469.693 43.6355L467.392 41.71ZM465.772 42.88L466.797 45.6994L466.907 45.6594L467.013 45.6111L465.772 42.88ZM461.002 42.7L459.58 45.3414L459.697 45.4048L459.82 45.4574L461.002 42.7ZM459.022 40.99L456.857 38.9133L455.093 40.7519L456.622 42.79L459.022 40.99ZM471.712 27.76L473.877 29.8367L473.942 29.7692L474.002 29.6978L471.712 27.76ZM476.932 27.76L474.642 29.6978L474.702 29.7692L474.767 29.8367L476.932 27.76ZM489.622 40.99L492.022 42.79L493.551 40.7519L491.787 38.9133L489.622 40.99ZM487.552 42.7L488.809 45.4239L488.852 45.4042L488.894 45.3833L487.552 42.7ZM482.872 42.88L481.631 45.6111L481.737 45.6594L481.847 45.6994L482.872 42.88ZM481.252 41.71L478.951 43.6355L478.973 43.6607L478.994 43.6855L481.252 41.71ZM474.322 33.43L476.623 31.5045L474.322 28.7558L472.021 31.5045L474.322 33.43ZM474.142 91.81C470.865 91.81 468.048 91.1942 465.628 90.0346L463.036 95.4454C466.375 97.0458 470.099 97.81 474.142 97.81V91.81ZM465.674 90.0567C463.22 88.8301 461.391 87.2188 460.087 85.24L455.076 88.54C457.013 91.4812 459.683 93.7699 462.99 95.4233L465.674 90.0567ZM460.105 85.2677C458.81 83.2523 458.152 80.9999 458.152 78.43H452.152C452.152 82.1001 453.114 85.4877 455.058 88.5123L460.105 85.2677ZM458.152 78.43V65.11H452.152V78.43H458.152ZM458.152 65.11C458.152 62.491 458.834 60.1833 460.186 58.107L455.158 54.833C453.15 57.9167 452.152 61.369 452.152 65.11H458.152ZM460.159 58.1474C461.6 56.011 463.509 54.3406 465.944 53.1233L463.26 47.7567C459.935 49.4194 457.224 51.769 455.185 54.7926L460.159 58.1474ZM465.965 53.1123C468.468 51.8356 471.178 51.19 474.142 51.19V45.19C470.266 45.19 466.616 46.0444 463.239 47.7677L465.965 53.1123ZM474.142 51.19C477.126 51.19 479.773 51.8145 482.138 53.0218L484.866 47.6782C481.591 46.0055 477.997 45.19 474.142 45.19V51.19ZM482.16 53.0333C484.596 54.2509 486.422 55.8796 487.728 57.9123L492.775 54.6677C490.842 51.6604 488.168 49.3291 484.844 47.6667L482.16 53.0333ZM487.756 57.9541C489.09 59.9559 489.772 62.2211 489.772 64.84H495.772C495.772 61.0989 494.774 57.6641 492.748 54.6259L487.756 57.9541ZM489.772 64.84V70.6H495.772V64.84H489.772ZM489.772 70.6C489.772 70.6517 489.767 70.6814 489.765 70.6939C489.763 70.7006 489.762 70.7044 489.762 70.7061C489.761 70.7077 489.761 70.7085 489.761 70.7091C489.76 70.7096 489.76 70.7112 489.758 70.7142C489.756 70.7172 489.753 70.7226 489.747 70.7306C489.735 70.7463 489.711 70.7763 489.665 70.8185L493.719 75.2415C495.047 74.0245 495.772 72.4174 495.772 70.6H489.772ZM489.665 70.8185C489.524 70.9472 489.388 71.02 489.082 71.02V77.02C490.816 77.02 492.419 76.4328 493.719 75.2415L489.665 70.8185ZM489.082 71.02H462.802V77.02H489.082V71.02ZM459.802 74.02V78.07H465.802V74.02H459.802ZM459.802 78.07C459.802 81.8139 461.005 85.0962 463.595 87.6047L467.769 83.2953C466.519 82.0838 465.802 80.4461 465.802 78.07H459.802ZM463.628 87.6365C466.334 90.1787 469.989 91.24 474.142 91.24V85.24C470.975 85.24 468.99 84.4413 467.736 83.2635L463.628 87.6365ZM474.142 91.24C478.194 91.24 481.785 90.3485 484.447 88.1029L480.577 83.5171C479.399 84.5115 477.41 85.24 474.142 85.24V91.24ZM484.447 88.1029C487.114 85.8522 488.392 82.7853 488.392 79.24H482.392C482.392 81.2147 481.75 82.5278 480.577 83.5171L484.447 88.1029ZM485.592 82.2334C486.872 82.148 487.652 82.4141 488.172 82.7777L491.612 77.8623C489.732 76.5459 487.512 76.092 485.192 76.2466L485.592 82.2334ZM488.313 82.8708C488.635 83.0699 488.782 83.2426 488.782 83.83H494.782C494.782 81.2974 493.669 79.1301 491.471 77.7692L488.313 82.8708ZM488.782 83.83C488.782 84.7743 488.4 85.8497 487.141 87.1087L491.383 91.3513C493.484 89.2503 494.782 86.7257 494.782 83.83H488.782ZM487.102 87.1476C485.855 88.4414 484.102 89.5743 481.722 90.4736L483.842 96.0864C486.862 94.9457 489.429 93.3786 491.421 91.3124L487.102 87.1476ZM481.722 90.4736C479.381 91.358 476.862 91.81 474.142 91.81V97.81C477.542 97.81 480.783 97.242 483.842 96.0864L481.722 90.4736ZM488.482 67.9V64.84H482.482V67.9H488.482ZM488.482 64.84C488.482 61.0486 487.113 57.7768 484.321 55.3042L480.343 59.7958C481.751 61.0432 482.482 62.6314 482.482 64.84H488.482ZM484.388 55.3654C481.674 52.8112 478.148 51.67 474.142 51.67V57.67C476.976 57.67 478.91 58.4488 480.276 59.7346L484.388 55.3654ZM474.142 51.67C470.132 51.67 466.598 52.8121 463.838 55.3359L467.886 59.7641C469.326 58.4479 471.312 57.67 474.142 57.67V51.67ZM463.841 55.3331C461.119 57.8145 459.802 61.0782 459.802 64.84H465.802C465.802 62.6018 466.525 61.0055 467.883 59.7669L463.841 55.3331ZM459.802 64.84V67.9H465.802V64.84H459.802ZM462.802 70.9H485.482V64.9H462.802V70.9ZM465.134 39.7345C465.031 39.852 464.855 40.0014 464.531 40.1489L467.013 45.6111C468.009 45.1586 468.913 44.528 469.65 43.6855L465.134 39.7345ZM464.747 40.0606C464.424 40.1781 464.081 40.24 463.702 40.24V46.24C464.763 46.24 465.8 46.0619 466.797 45.6994L464.747 40.0606ZM463.702 40.24C463.127 40.24 462.632 40.1345 462.184 39.9426L459.82 45.4574C461.052 45.9855 462.357 46.24 463.702 46.24V40.24ZM462.424 40.0586C462.034 39.8482 461.705 39.5677 461.422 39.19L456.622 42.79C457.419 43.8523 458.41 44.7118 459.58 45.3414L462.424 40.0586ZM461.187 43.0667L473.877 29.8367L469.547 25.6833L456.857 38.9133L461.187 43.0667ZM474.002 29.6978C474.036 29.6577 474.059 29.6386 474.069 29.6312C474.078 29.6243 474.083 29.6218 474.087 29.62C474.087 29.6196 474.149 29.59 474.322 29.59V23.59C472.417 23.59 470.688 24.3259 469.422 25.8222L474.002 29.6978ZM474.322 29.59C474.495 29.59 474.556 29.6196 474.557 29.62C474.561 29.6218 474.566 29.6243 474.575 29.6312C474.585 29.6386 474.608 29.6577 474.642 29.6978L479.222 25.8222C477.956 24.3259 476.227 23.59 474.322 23.59V29.59ZM474.767 29.8367L487.457 43.0667L491.787 38.9133L479.097 25.6833L474.767 29.8367ZM487.222 39.19C486.974 39.5211 486.652 39.7957 486.21 40.0167L488.894 45.3833C490.131 44.7643 491.19 43.8989 492.022 42.79L487.222 39.19ZM486.295 39.9761C485.953 40.1339 485.519 40.24 484.942 40.24V46.24C486.285 46.24 487.591 45.9861 488.809 45.4239L486.295 39.9761ZM484.942 40.24C484.563 40.24 484.22 40.1781 483.897 40.0606L481.847 45.6994C482.844 46.0619 483.881 46.24 484.942 46.24V40.24ZM484.113 40.1489C483.789 40.0014 483.613 39.852 483.51 39.7345L478.994 43.6855C479.731 44.528 480.635 45.1586 481.631 45.6111L484.113 40.1489ZM483.553 39.7845L476.623 31.5045L472.021 35.3555L478.951 43.6355L483.553 39.7845ZM472.021 31.5045L465.091 39.7845L469.693 43.6355L476.623 35.3555L472.021 31.5045ZM510.721 48.19H513.721V45.19H510.721V48.19ZM510.721 53.95L512.843 56.0713L513.721 55.1926V53.95H510.721ZM508.831 56.38L506.335 54.7159L504.971 56.7623L506.71 58.5013L508.831 56.38ZM509.191 56.74L507.07 58.8613L509.574 61.3654L511.633 58.4837L509.191 56.74ZM516.211 50.62L517.64 53.2579L517.661 53.2465L517.682 53.2347L516.211 50.62ZM537.091 52.51L539.235 50.4111L539.235 50.4111L537.091 52.51ZM539.341 93.46L541.085 95.9012L541.095 95.8937L541.106 95.8862L539.341 93.46ZM533.491 94.81H530.491V97.81H533.491V94.81ZM531.061 57.64L533.221 55.5576L533.221 55.5576L531.061 57.64ZM517.381 56.56L518.655 59.2764L518.672 59.268L518.69 59.2594L517.381 56.56ZM512.701 60.34L510.291 58.5543L510.285 58.5621L510.279 58.5699L512.701 60.34ZM509.011 93.46L510.755 95.9012L510.765 95.8937L510.776 95.8862L509.011 93.46ZM503.161 94.81H500.161V97.81H503.161V94.81ZM506.161 54.85C506.161 53.1981 506.613 52.4777 507.034 52.1061C507.529 51.6705 508.577 51.19 510.721 51.19V45.19C507.826 45.19 505.094 45.8195 503.068 47.6039C500.97 49.4523 500.161 52.0619 500.161 54.85H506.161ZM507.721 48.19V53.95H513.721V48.19H507.721ZM508.6 51.8287C507.857 52.5718 507.1 53.5684 506.335 54.7159L511.327 58.0441C512.003 57.0316 512.506 56.4082 512.843 56.0713L508.6 51.8287ZM506.71 58.5013L507.07 58.8613L511.313 54.6187L510.953 54.2587L506.71 58.5013ZM511.633 58.4837C513.152 56.3562 515.138 54.6135 517.64 53.2579L514.782 47.9821C511.525 49.7465 508.83 52.0838 506.75 54.9963L511.633 58.4837ZM517.682 53.2347C520.105 51.8717 522.717 51.19 525.571 51.19V45.19C521.705 45.19 518.077 46.1283 514.741 48.0053L517.682 53.2347ZM525.571 51.19C529.803 51.19 532.806 52.421 534.948 54.6089L539.235 50.4111C535.737 46.839 531.06 45.19 525.571 45.19V51.19ZM534.948 54.6089C537.145 56.853 538.321 59.7828 538.321 63.67H544.321C544.321 58.4372 542.677 53.927 539.235 50.4111L534.948 54.6089ZM538.321 63.67V89.05H544.321V63.67H538.321ZM538.321 89.05C538.321 90.3006 537.951 90.7614 537.577 91.0338L541.106 95.8862C543.371 94.2386 544.321 91.7594 544.321 89.05H538.321ZM537.598 91.0188C537.094 91.3786 535.901 91.81 533.491 91.81V97.81C536.362 97.81 539.069 97.3414 541.085 95.9012L537.598 91.0188ZM536.491 94.81V64.48H530.491V94.81H536.491ZM536.491 64.48C536.491 61.015 535.5 57.921 533.221 55.5576L528.902 59.7224C529.863 60.719 530.491 62.185 530.491 64.48H536.491ZM533.221 55.5576C530.835 53.0833 527.453 52.12 523.681 52.12V58.12C526.51 58.12 528.048 58.8367 528.902 59.7224L533.221 55.5576ZM523.681 52.12C521.012 52.12 518.464 52.7009 516.073 53.8606L518.69 59.2594C520.258 58.4991 521.911 58.12 523.681 58.12V52.12ZM516.108 53.8436C513.762 54.9434 511.802 56.5137 510.291 58.5543L515.112 62.1257C516 60.9263 517.161 59.9765 518.655 59.2764L516.108 53.8436ZM510.279 58.5699C508.779 60.6224 507.991 62.9477 507.991 65.47H513.991C513.991 64.2723 514.343 63.1776 515.124 62.11L510.279 58.5699ZM507.991 65.47V89.05H513.991V65.47H507.991ZM507.991 89.05C507.991 90.3006 507.621 90.7614 507.247 91.0338L510.776 95.8862C513.041 94.2386 513.991 91.7594 513.991 89.05H507.991ZM507.268 91.0188C506.764 91.3786 505.571 91.81 503.161 91.81V97.81C506.032 97.81 508.739 97.3414 510.755 95.9012L507.268 91.0188ZM506.161 94.81V54.85H500.161V94.81H506.161ZM561.185 92.83L562.435 90.1028L562.435 90.1028L561.185 92.83ZM554.435 87.25L551.92 88.885L551.934 88.9068L551.949 88.9284L554.435 87.25ZM554.435 56.02L551.93 54.37L551.916 54.3916L551.902 54.4134L554.435 56.02ZM561.095 50.26L559.777 47.5653L559.777 47.5653L561.095 50.26ZM579.905 49.72L578.824 52.5184L578.862 52.533L578.9 52.5466L579.905 49.72ZM586.205 53.86L583.901 55.7806L583.901 55.7806L586.205 53.86ZM586.655 63.67L588.514 66.0246L588.522 66.0187L588.529 66.0126L586.655 63.67ZM582.155 64.84H579.155V67.6527L581.962 67.8338L582.155 64.84ZM579.005 57.82L577.02 60.0695L577.037 60.0838L577.053 60.0978L579.005 57.82ZM562.985 57.82L564.932 60.1025L564.951 60.0862L564.97 60.0695L562.985 57.82ZM563.075 85.36L561.161 87.6701L561.181 87.6865L561.201 87.7026L563.075 85.36ZM579.185 85.18L577.233 82.9022L577.217 82.9162L577.2 82.9305L579.185 85.18ZM582.335 78.25L582.148 75.2558L579.335 75.4316V78.25H582.335ZM586.925 79.42L585.066 81.7746L585.134 81.8282L585.205 81.8777L586.925 79.42ZM586.475 89.14L588.78 91.0606L588.78 91.0606L586.475 89.14ZM580.175 93.37L581.18 96.1966L581.208 96.1868L581.236 96.1764L580.175 93.37ZM570.995 91.81C567.7 91.81 564.867 91.2172 562.435 90.1028L559.935 95.5572C563.264 97.0828 566.971 97.81 570.995 97.81V91.81ZM562.435 90.1028C560.007 88.9899 558.205 87.4727 556.922 85.5716L551.949 88.9284C553.906 91.8273 556.603 94.0301 559.935 95.5572L562.435 90.1028ZM556.951 85.615C555.729 83.7357 555.095 81.5815 555.095 79.06H549.095C549.095 82.6585 550.022 85.9643 551.92 88.885L556.951 85.615ZM555.095 79.06V64.48H549.095V79.06H555.095ZM555.095 64.48C555.095 61.8148 555.741 59.5624 556.969 57.6266L551.902 54.4134C550.009 57.3976 549.095 60.7852 549.095 64.48H555.095ZM556.941 57.67C558.246 55.6877 560.043 54.1149 562.414 52.9546L559.777 47.5653C556.508 49.165 553.864 51.4322 551.93 54.37L556.941 57.67ZM562.414 52.9546C564.761 51.8063 567.537 51.19 570.815 51.19V45.19C566.774 45.19 563.07 45.9537 559.777 47.5653L562.414 52.9546ZM570.815 51.19C573.941 51.19 576.593 51.6562 578.824 52.5184L580.987 46.9216C577.938 45.7438 574.53 45.19 570.815 45.19V51.19ZM578.9 52.5466C581.206 53.3666 582.814 54.4767 583.901 55.7806L588.51 51.9394C586.597 49.6433 584.004 47.9934 580.91 46.8934L578.9 52.5466ZM583.901 55.7806C584.965 57.0577 585.455 58.4227 585.455 59.98H591.455C591.455 56.9773 590.446 54.2623 588.51 51.9394L583.901 55.7806ZM585.455 59.98C585.455 60.543 585.29 60.9205 584.781 61.3274L588.529 66.0126C590.421 64.4995 591.455 62.417 591.455 59.98H585.455ZM584.796 61.3153C584.388 61.6378 583.685 61.9324 582.348 61.8462L581.962 67.8338C584.346 67.9876 586.643 67.5022 588.514 66.0246L584.796 61.3153ZM585.155 64.84C585.155 61.1256 583.753 57.9385 580.958 55.5422L577.053 60.0978C578.457 61.3015 579.155 62.7944 579.155 64.84H585.155ZM580.99 55.5705C578.291 53.1889 574.863 52.12 570.995 52.12V58.12C573.727 58.12 575.64 58.8511 577.02 60.0695L580.99 55.5705ZM570.995 52.12C567.127 52.12 563.7 53.1889 561 55.5705L564.97 60.0695C566.351 58.8511 568.263 58.12 570.995 58.12V52.12ZM561.038 55.5375C558.292 57.8803 556.925 61.0136 556.925 64.66H562.925C562.925 62.6664 563.599 61.2397 564.932 60.1025L561.038 55.5375ZM556.925 64.66V78.7H562.925V64.66H556.925ZM556.925 78.7C556.925 82.3037 558.381 85.3668 561.161 87.6701L564.989 83.0499C563.569 81.8732 562.925 80.4963 562.925 78.7H556.925ZM561.201 87.7026C563.945 89.898 567.353 90.88 571.175 90.88V84.88C568.397 84.88 566.405 84.182 564.949 83.0174L561.201 87.7026ZM571.175 90.88C575.043 90.88 578.471 89.8111 581.17 87.4295L577.2 82.9305C575.82 84.1489 573.907 84.88 571.175 84.88V90.88ZM581.138 87.4578C583.917 85.0751 585.335 81.9261 585.335 78.25H579.335C579.335 80.2139 578.653 81.6849 577.233 82.9022L581.138 87.4578ZM582.522 81.2442C583.949 81.155 584.673 81.4642 585.066 81.7746L588.784 77.0654C586.898 75.5758 584.562 75.105 582.148 75.2558L582.522 81.2442ZM585.205 81.8777C585.543 82.1146 585.725 82.3639 585.725 83.02H591.725C591.725 80.5561 590.707 78.4054 588.646 76.9623L585.205 81.8777ZM585.725 83.02C585.725 84.5773 585.235 85.9423 584.171 87.2194L588.78 91.0606C590.716 88.7377 591.725 86.0227 591.725 83.02H585.725ZM584.171 87.2194C583.071 88.5394 581.442 89.6845 579.115 90.5636L581.236 96.1764C584.309 95.0155 586.88 93.3406 588.78 91.0606L584.171 87.2194ZM579.17 90.5434C576.849 91.3689 574.137 91.81 570.995 91.81V97.81C574.693 97.81 578.102 97.2911 581.18 96.1966L579.17 90.5434ZM600.76 39.82L602.823 37.6421L602.823 37.6421L600.76 39.82ZM600.76 31.81L602.76 34.0457L602.792 34.0172L602.823 33.9879L600.76 31.81ZM609.13 31.81L607.067 33.9879L607.098 34.0172L607.13 34.0457L609.13 31.81ZM609.13 39.82L607.067 37.6421L607.067 37.6421L609.13 39.82ZM602.92 49.63L604.664 52.0712L604.674 52.0637L604.685 52.0562L602.92 49.63ZM608.86 48.19H611.86V45.19H608.86V48.19ZM606.88 93.46L608.624 95.9012L608.634 95.8937L608.645 95.8862L606.88 93.46ZM601.03 94.81H598.03V97.81H601.03V94.81ZM604.99 38.44C604.019 38.44 603.365 38.1551 602.823 37.6421L598.697 41.9979C600.435 43.6449 602.601 44.44 604.99 44.44V38.44ZM602.823 37.6421C602.302 37.1486 602.05 36.5956 602.05 35.77H596.05C596.05 38.1844 596.938 40.3314 598.697 41.9979L602.823 37.6421ZM602.05 35.77C602.05 34.9465 602.298 34.4597 602.76 34.0457L598.76 29.5743C596.942 31.2003 596.05 33.3535 596.05 35.77H602.05ZM602.823 33.9879C603.365 33.4749 604.019 33.19 604.99 33.19V27.19C602.601 27.19 600.435 27.9851 598.697 29.6321L602.823 33.9879ZM604.99 33.19C605.869 33.19 606.503 33.454 607.067 33.9879L611.193 29.6321C609.477 28.006 607.351 27.19 604.99 27.19V33.19ZM607.13 34.0457C607.592 34.4597 607.84 34.9465 607.84 35.77H613.84C613.84 33.3535 612.948 31.2003 611.13 29.5743L607.13 34.0457ZM607.84 35.77C607.84 36.5956 607.588 37.1486 607.067 37.6421L611.193 41.9979C612.952 40.3314 613.84 38.1844 613.84 35.77H607.84ZM607.067 37.6421C606.503 38.176 605.869 38.44 604.99 38.44V44.44C607.351 44.44 609.477 43.624 611.193 41.9979L607.067 37.6421ZM604.03 53.95C604.03 52.639 604.408 52.2538 604.664 52.0712L601.176 47.1888C598.912 48.8062 598.03 51.301 598.03 53.95H604.03ZM604.685 52.0562C605.262 51.6361 606.494 51.19 608.86 51.19V45.19C605.946 45.19 603.218 45.7039 601.155 47.2038L604.685 52.0562ZM605.86 48.19V89.05H611.86V48.19H605.86ZM605.86 89.05C605.86 90.3006 605.49 90.7614 605.115 91.0338L608.645 95.8862C610.91 94.2386 611.86 91.7594 611.86 89.05H605.86ZM605.136 91.0188C604.633 91.3786 603.44 91.81 601.03 91.81V97.81C603.9 97.81 606.607 97.3414 608.624 95.9012L605.136 91.0188ZM604.03 94.81V53.95H598.03V94.81H604.03ZM625.914 90.67L623.926 92.917L623.936 92.9264L623.947 92.9357L625.914 90.67ZM626.184 68.8L628.108 71.1012L628.12 71.091L628.133 71.0807L626.184 68.8ZM653.454 70.69L651.237 72.7113L653.353 75.0328L655.575 72.8113L653.454 70.69ZM653.814 70.33L655.935 72.4513L657.966 70.4202L656.025 68.3028L653.814 70.33ZM651.564 68.08H648.564V69.3882L649.522 70.2784L651.564 68.08ZM626.994 62.14L625.652 64.8233L628.248 66.1212L629.631 63.5699L626.994 62.14ZM624.564 60.25L622.122 61.9937L622.194 62.0939L622.273 62.1878L624.564 60.25ZM626.094 53.14L628.087 55.3822L628.109 55.362L628.132 55.3413L626.094 53.14ZM632.484 49.54L631.535 46.6939L631.525 46.6972L631.516 46.7005L632.484 49.54ZM654.354 52.42L652.384 54.6829L652.394 54.6919L652.405 54.7007L654.354 52.42ZM657.504 93.37L655.63 91.0274L655.63 91.0274L657.504 93.37ZM651.834 94.81H648.834V97.81H651.834V94.81ZM651.834 90.58L649.664 88.5086L648.834 89.378V90.58H651.834ZM653.904 88.24L656.587 89.5816L657.554 87.6476L656.025 86.1187L653.904 88.24ZM653.544 87.88L655.665 85.7587L653.357 83.4505L651.251 85.9448L653.544 87.88ZM648.504 86.26L646.747 83.828L646.731 83.8398L646.715 83.8518L648.504 86.26ZM648.594 73.21L646.761 75.5853L646.761 75.5853L648.594 73.21ZM631.854 73.21L633.745 75.5384L633.753 75.5319L631.854 73.21ZM631.764 86.35L629.836 88.6486L629.876 88.682L629.917 88.7141L631.764 86.35ZM638.424 91.81C633.817 91.81 630.399 90.5903 627.88 88.4043L623.947 92.9357C627.789 96.2697 632.711 97.81 638.424 97.81V91.81ZM627.901 88.423C625.481 86.282 624.234 83.4983 624.234 79.78H618.234C618.234 85.0617 620.106 89.538 623.926 92.917L627.901 88.423ZM624.234 79.78C624.234 76.0475 625.535 73.2533 628.108 71.1012L624.259 66.4988C620.232 69.8667 618.234 74.3925 618.234 79.78H624.234ZM628.133 71.0807C630.766 68.83 634.368 67.57 639.234 67.57V61.57C633.299 61.57 628.201 63.13 624.235 66.5193L628.133 71.0807ZM639.234 67.57C644.191 67.57 648.112 69.2846 651.237 72.7113L655.67 68.6687C651.355 63.9354 645.796 61.57 639.234 61.57V67.57ZM655.575 72.8113L655.935 72.4513L651.692 68.2087L651.332 68.5687L655.575 72.8113ZM656.025 68.3028C655.302 67.5144 654.494 66.7073 653.605 65.8816L649.522 70.2784C650.313 71.0127 651.005 71.7056 651.602 72.3572L656.025 68.3028ZM654.564 68.08V64.3H648.564V68.08H654.564ZM654.564 64.3C654.564 60.5637 653.36 57.2954 650.659 54.9323L646.708 59.4477C647.847 60.4445 648.564 61.9163 648.564 64.3H654.564ZM650.659 54.9323C648.012 52.6163 644.479 51.67 640.494 51.67V57.67C643.588 57.67 645.515 58.4037 646.708 59.4477L650.659 54.9323ZM640.494 51.67C636.949 51.67 633.725 52.372 630.941 53.9126C628.14 55.4625 625.95 57.7698 624.356 60.7101L629.631 63.5699C630.737 61.5302 632.147 60.1025 633.846 59.1624C635.562 58.213 637.738 57.67 640.494 57.67V51.67ZM628.335 59.4567C627.72 59.1491 627.238 58.7665 626.854 58.3122L622.273 62.1878C623.209 63.2935 624.347 64.1709 625.652 64.8233L628.335 59.4567ZM627.005 58.5063C626.684 58.0569 626.664 57.8137 626.664 57.73H620.664C620.664 59.3263 621.243 60.7631 622.122 61.9937L627.005 58.5063ZM626.664 57.73C626.664 57.2304 626.88 56.4553 628.087 55.3822L624.101 50.8978C622.068 52.7047 620.664 54.9896 620.664 57.73H626.664ZM628.132 55.3413C629.374 54.1912 631.108 53.1785 633.452 52.3795L631.516 46.7005C628.579 47.7015 626.053 49.0888 624.055 50.9387L628.132 55.3413ZM633.432 52.386C635.816 51.5914 638.315 51.19 640.944 51.19V45.19C637.692 45.19 634.551 45.6886 631.535 46.6939L633.432 52.386ZM640.944 51.19C646.16 51.19 649.847 52.4751 652.384 54.6829L656.323 50.1571C652.38 46.7249 647.127 45.19 640.944 45.19V51.19ZM652.405 54.7007C654.936 56.8634 656.304 59.8734 656.304 64.12H662.304C662.304 58.4065 660.372 53.6166 656.303 50.1393L652.405 54.7007ZM656.304 64.12V88.78H662.304V64.12H656.304ZM656.304 88.78C656.304 90.3236 655.881 90.8266 655.63 91.0274L659.378 95.7126C661.527 93.9934 662.304 91.4364 662.304 88.78H656.304ZM655.63 91.0274C655.217 91.357 654.155 91.81 651.834 91.81V97.81C654.672 97.81 657.39 97.303 659.378 95.7126L655.63 91.0274ZM654.834 94.81V90.58H648.834V94.81H654.834ZM654.004 92.6514C654.644 91.9811 655.161 91.4245 655.543 90.9927C655.733 90.7784 655.908 90.573 656.056 90.3869C656.156 90.2616 656.402 89.9508 656.587 89.5816L651.22 86.8984C651.301 86.7368 651.373 86.6372 651.374 86.6349C651.387 86.6165 651.385 86.6212 651.357 86.6556C651.303 86.7245 651.205 86.8416 651.049 87.0173C650.741 87.3655 650.284 87.8589 649.664 88.5086L654.004 92.6514ZM656.025 86.1187L655.665 85.7587L651.422 90.0013L651.782 90.3613L656.025 86.1187ZM651.251 85.9448C647.936 89.8725 643.742 91.81 638.424 91.81V97.81C645.465 97.81 651.352 95.1275 655.836 89.8152L651.251 85.9448ZM639.774 91.6C643.874 91.6 647.498 90.7445 650.293 88.6682L646.715 83.8518C645.31 84.8955 643.113 85.6 639.774 85.6V91.6ZM650.26 88.692C653.234 86.5445 654.744 83.4625 654.744 79.78H648.744C648.744 81.6175 648.094 82.8555 646.747 83.828L650.26 88.692ZM654.744 79.78C654.744 76.1341 653.297 73.049 650.426 70.8347L646.761 75.5853C648.091 76.611 648.744 77.9059 648.744 79.78H654.744ZM650.426 70.8347C647.634 68.6806 644.029 67.78 639.954 67.78V73.78C643.199 73.78 645.354 74.4994 646.761 75.5853L650.426 70.8347ZM639.954 67.78C636.075 67.78 632.627 68.7013 629.954 70.8881L633.753 75.5319C635.041 74.4787 636.992 73.78 639.954 73.78V67.78ZM629.962 70.8817C627.237 73.0954 625.974 76.1989 625.974 79.78H631.974C631.974 77.7211 632.63 76.4446 633.745 75.5383L629.962 70.8817ZM625.974 79.78C625.974 83.3274 627.183 86.4234 629.836 88.6486L633.691 84.0514C632.625 83.1566 631.974 81.8726 631.974 79.78H625.974ZM629.917 88.7141C632.54 90.7639 635.949 91.6 639.774 91.6V85.6C636.758 85.6 634.827 84.9361 633.611 83.9859L629.917 88.7141Z" fill="white" fill-opacity="0.89" mask="url(#path-2-outside-1_9_2)"/>
<path d="M243.45 168.45C240.65 168.45 238.15 167.933 235.95 166.9C233.75 165.833 232.033 164.367 230.8 162.5C229.6 160.6 229 158.45 229 156.05V144.85C229 142.45 229.6 140.317 230.8 138.45C232.033 136.583 233.733 135.133 235.9 134.1C238.067 133.067 240.55 132.55 243.35 132.55C246.15 132.55 248.633 133 250.8 133.9C252.967 134.767 254.65 135.983 255.85 137.55C257.083 139.117 257.7 140.917 257.7 142.95C257.7 143.95 257.367 144.733 256.7 145.3C256.033 145.867 255.15 146.15 254.05 146.15C253.817 146.15 253.467 146.117 253 146.05C253.067 145.65 253.1 145.017 253.1 144.15C253.1 142.717 252.683 141.433 251.85 140.3C251.05 139.167 249.9 138.283 248.4 137.65C246.933 137.017 245.25 136.7 243.35 136.7C241.483 136.7 239.817 137.05 238.35 137.75C236.883 138.417 235.733 139.383 234.9 140.65C234.1 141.883 233.7 143.283 233.7 144.85V156.05C233.7 157.65 234.1 159.083 234.9 160.35C235.733 161.583 236.883 162.55 238.35 163.25C239.85 163.95 241.55 164.3 243.45 164.3C245.383 164.3 247.1 163.983 248.6 163.35C250.1 162.717 251.267 161.85 252.1 160.75C252.933 159.617 253.35 158.317 253.35 156.85C253.35 156.317 253.317 155.683 253.25 154.95C253.717 154.883 254.05 154.85 254.25 154.85C255.35 154.85 256.233 155.167 256.9 155.8C257.6 156.433 257.95 157.283 257.95 158.35C257.95 160.317 257.333 162.067 256.1 163.6C254.867 165.133 253.15 166.333 250.95 167.2C248.783 168.033 246.283 168.45 243.45 168.45ZM274.53 146.4C272.663 146.4 271.113 146.967 269.88 148.1C268.646 149.2 268.03 150.55 268.03 152.15V165.25C268.03 166.35 267.663 167.167 266.93 167.7C266.23 168.2 265.146 168.45 263.68 168.45V146.25C263.68 143.783 265.08 142.55 267.88 142.55V145.6C267.346 146.167 266.98 146.667 266.78 147.1L266.98 147.3C269.113 144.133 271.78 142.55 274.98 142.55C276.18 142.55 277.096 142.85 277.73 143.45C278.363 144.017 278.68 144.717 278.68 145.55C278.68 146.15 278.53 146.683 278.23 147.15C277.296 146.65 276.063 146.4 274.53 146.4ZM285.974 138.8C285.04 138.8 284.257 138.5 283.624 137.9C282.99 137.3 282.674 136.55 282.674 135.65C282.674 134.75 282.99 134.017 283.624 133.45C284.257 132.85 285.04 132.55 285.974 132.55C286.874 132.55 287.64 132.85 288.274 133.45C288.907 134.017 289.224 134.75 289.224 135.65C289.224 136.55 288.907 137.3 288.274 137.9C287.64 138.5 286.874 138.8 285.974 138.8ZM283.774 145.75C283.774 144.65 284.124 143.85 284.824 143.35C285.557 142.817 286.657 142.55 288.124 142.55V165.25C288.124 166.35 287.757 167.167 287.024 167.7C286.324 168.2 285.24 168.45 283.774 168.45V145.75ZM304.479 168.45C302.445 168.45 300.595 168.067 298.929 167.3C297.295 166.533 296.012 165.5 295.079 164.2C294.179 162.867 293.729 161.383 293.729 159.75V151.55C293.729 149.883 294.179 148.367 295.079 147C296.012 145.633 297.295 144.55 298.929 143.75C300.562 142.95 302.412 142.55 304.479 142.55C306.545 142.55 308.395 142.95 310.029 143.75C311.695 144.55 312.979 145.633 313.879 147C314.812 148.367 315.279 149.883 315.279 151.55V159.75C315.279 161.383 314.812 162.867 313.879 164.2C312.945 165.5 311.662 166.533 310.029 167.3C308.395 168.067 306.545 168.45 304.479 168.45ZM304.479 164.7C306.479 164.7 308.062 164.233 309.229 163.3C310.429 162.333 311.029 161.083 311.029 159.55V151.7C311.029 150.1 310.429 148.8 309.229 147.8C308.062 146.8 306.479 146.3 304.479 146.3C302.512 146.3 300.929 146.8 299.729 147.8C298.529 148.8 297.929 150.1 297.929 151.7V159.55C297.929 161.083 298.512 162.333 299.679 163.3C300.879 164.233 302.479 164.7 304.479 164.7ZM330.27 178.45C328.537 178.45 326.92 178.167 325.42 177.6C323.92 177.033 322.737 176.267 321.87 175.3C321.004 174.367 320.57 173.35 320.57 172.25C320.57 171.383 320.854 170.75 321.42 170.35C322.02 169.95 322.82 169.75 323.82 169.75C323.887 171.317 324.487 172.55 325.62 173.45C326.787 174.383 328.337 174.85 330.27 174.85C334.537 174.85 336.67 172.783 336.67 168.65V165.75C337.137 165.35 337.487 164.983 337.72 164.65L337.57 164.4C336.604 165.433 335.387 166.283 333.92 166.95C332.487 167.617 331.037 167.95 329.57 167.95C326.704 167.95 324.354 167.167 322.52 165.6C320.72 164 319.82 161.9 319.82 159.3V151.25C319.82 149.55 320.237 148.05 321.07 146.75C321.937 145.417 323.104 144.383 324.57 143.65C326.07 142.917 327.72 142.55 329.52 142.55C332.787 142.55 335.52 143.983 337.72 146.85L337.92 146.65L336.92 145.4C336.92 144.467 337.237 143.767 337.87 143.3C338.537 142.8 339.604 142.55 341.07 142.55V168.2C341.07 170.2 340.604 171.967 339.67 173.5C338.77 175.067 337.504 176.283 335.87 177.15C334.237 178.017 332.37 178.45 330.27 178.45ZM330.37 164.15C332.137 164.15 333.637 163.683 334.87 162.75C336.104 161.783 336.72 160.65 336.72 159.35V151.2C336.72 149.833 336.104 148.683 334.87 147.75C333.67 146.817 332.204 146.35 330.47 146.35C328.47 146.35 326.92 146.8 325.82 147.7C324.72 148.567 324.17 149.817 324.17 151.45V159.1C324.17 160.667 324.704 161.9 325.77 162.8C326.87 163.7 328.404 164.15 330.37 164.15ZM358.105 168.45C356.071 168.45 354.255 168.067 352.655 167.3C351.055 166.5 349.805 165.417 348.905 164.05C348.005 162.65 347.555 161.083 347.555 159.35V151.95C347.555 150.183 348.021 148.583 348.955 147.15C349.921 145.717 351.205 144.6 352.805 143.8C354.438 142.967 356.205 142.55 358.105 142.55C360.005 142.55 361.738 142.95 363.305 143.75C364.905 144.55 366.155 145.65 367.055 147.05C367.988 148.45 368.455 150.033 368.455 151.8V155C368.455 155.533 368.255 155.983 367.855 156.35C367.455 156.717 366.971 156.9 366.405 156.9H351.805V159.15C351.805 160.85 352.338 162.217 353.405 163.25C354.505 164.283 356.071 164.8 358.105 164.8C360.138 164.8 361.688 164.35 362.755 163.45C363.821 162.55 364.355 161.333 364.355 159.8C365.355 159.733 366.188 159.933 366.855 160.4C367.555 160.833 367.905 161.483 367.905 162.35C367.905 163.417 367.438 164.417 366.505 165.35C365.605 166.283 364.405 167.033 362.905 167.6C361.405 168.167 359.805 168.45 358.105 168.45ZM364.405 153.5V151.8C364.405 150.133 363.821 148.783 362.655 147.75C361.521 146.683 360.005 146.15 358.105 146.15C356.205 146.15 354.671 146.683 353.505 147.75C352.371 148.783 351.805 150.133 351.805 151.8V153.5H364.405ZM354.355 138.95C354.121 139.217 353.821 139.433 353.455 139.6C353.088 139.733 352.705 139.8 352.305 139.8C351.771 139.8 351.271 139.7 350.805 139.5C350.371 139.267 350.005 138.95 349.705 138.55L356.755 131.2C357.121 130.767 357.605 130.55 358.205 130.55C358.805 130.55 359.288 130.767 359.655 131.2L366.705 138.55C366.405 138.95 366.021 139.267 365.555 139.5C365.121 139.7 364.638 139.8 364.105 139.8C363.705 139.8 363.321 139.733 362.955 139.6C362.588 139.433 362.288 139.217 362.055 138.95L358.205 134.35L354.355 138.95ZM374.227 146.25C374.227 143.783 375.627 142.55 378.427 142.55V145.75C378.127 146.05 377.777 146.5 377.377 147.1L377.577 147.3C378.577 145.9 379.877 144.767 381.477 143.9C383.077 143 384.81 142.55 386.677 142.55C389.377 142.55 391.51 143.35 393.077 144.95C394.643 146.55 395.427 148.617 395.427 151.15V165.25C395.427 166.35 395.06 167.167 394.327 167.7C393.627 168.2 392.543 168.45 391.077 168.45V151.6C391.077 150 390.627 148.733 389.727 147.8C388.827 146.867 387.46 146.4 385.627 146.4C384.393 146.4 383.227 146.667 382.127 147.2C381.06 147.7 380.193 148.4 379.527 149.3C378.893 150.167 378.577 151.117 378.577 152.15V165.25C378.577 166.35 378.21 167.167 377.477 167.7C376.777 168.2 375.693 168.45 374.227 168.45V146.25ZM405.212 138.8C404.279 138.8 403.495 138.5 402.862 137.9C402.229 137.3 401.912 136.55 401.912 135.65C401.912 134.75 402.229 134.017 402.862 133.45C403.495 132.85 404.279 132.55 405.212 132.55C406.112 132.55 406.879 132.85 407.512 133.45C408.145 134.017 408.462 134.75 408.462 135.65C408.462 136.55 408.145 137.3 407.512 137.9C406.879 138.5 406.112 138.8 405.212 138.8ZM403.012 145.75C403.012 144.65 403.362 143.85 404.062 143.35C404.795 142.817 405.895 142.55 407.362 142.55V165.25C407.362 166.35 406.995 167.167 406.262 167.7C405.562 168.2 404.479 168.45 403.012 168.45V145.75ZM425.486 168.45C423.453 168.45 421.636 168.083 420.036 167.35C418.436 166.617 417.186 165.583 416.286 164.25C415.42 162.917 414.986 161.4 414.986 159.7V151.6C414.986 149.833 415.42 148.267 416.286 146.9C417.186 145.533 418.42 144.467 419.986 143.7C421.553 142.933 423.353 142.55 425.386 142.55C427.286 142.55 428.97 142.833 430.436 143.4C431.936 143.933 433.103 144.7 433.936 145.7C434.77 146.7 435.186 147.833 435.186 149.1C435.186 149.933 434.853 150.617 434.186 151.15C433.553 151.65 432.72 151.867 431.686 151.8C431.686 150.2 431.103 148.9 429.936 147.9C428.803 146.9 427.32 146.4 425.486 146.4C423.653 146.4 422.17 146.9 421.036 147.9C419.903 148.867 419.336 150.133 419.336 151.7V159.5C419.336 161 419.92 162.233 421.086 163.2C422.253 164.133 423.753 164.6 425.586 164.6C427.42 164.6 428.903 164.1 430.036 163.1C431.203 162.1 431.786 160.817 431.786 159.25C432.853 159.183 433.703 159.4 434.336 159.9C435.003 160.367 435.336 161.033 435.336 161.9C435.336 163.167 434.92 164.3 434.086 165.3C433.253 166.3 432.086 167.083 430.586 167.65C429.086 168.183 427.386 168.45 425.486 168.45ZM448.64 168.45C445.773 168.45 443.457 167.683 441.69 166.15C439.957 164.617 439.09 162.6 439.09 160.1C439.09 157.567 440.007 155.533 441.84 154C443.673 152.433 446.09 151.65 449.09 151.65C452.29 151.65 454.923 152.783 456.99 155.05L457.19 154.85C456.823 154.45 456.407 154.033 455.94 153.6V151.5C455.94 149.8 455.407 148.483 454.34 147.55C453.273 146.617 451.757 146.15 449.79 146.15C446.29 146.15 443.79 147.533 442.29 150.3C441.757 150.033 441.307 149.683 440.94 149.25C440.607 148.783 440.44 148.317 440.44 147.85C440.44 146.95 440.89 146.1 441.79 145.3C442.69 144.467 443.873 143.8 445.34 143.3C446.84 142.8 448.407 142.55 450.04 142.55C453.207 142.55 455.69 143.333 457.49 144.9C459.323 146.467 460.24 148.633 460.24 151.4V165.1C460.24 166.267 459.907 167.117 459.24 167.65C458.573 168.183 457.523 168.45 456.09 168.45V166.1C456.79 165.367 457.173 164.933 457.24 164.8L457.04 164.6C454.873 167.167 452.073 168.45 448.64 168.45ZM449.39 165C451.457 165 453.073 164.567 454.24 163.7C455.44 162.833 456.04 161.633 456.04 160.1C456.04 158.567 455.457 157.35 454.29 156.45C453.123 155.55 451.523 155.1 449.49 155.1C447.59 155.1 446.09 155.55 444.99 156.45C443.923 157.317 443.39 158.533 443.39 160.1C443.39 161.667 443.907 162.883 444.94 163.75C446.007 164.583 447.49 165 449.39 165Z" fill="#5BFFFF" fill-opacity="0.56"/>
</svg>
